<svg xmlns="http://www.w3.org/2000/svg" xmlns:xlink="http://www.w3.org/1999/xlink" width="1024" height="100" viewBox="0 0 1024 100">
    <defs>
        <path id="a" d="M0 0h1023.852v99.89H0z"/>
    </defs>
    <g fill="none" fill-rule="evenodd">
        <mask id="b" fill="#fff">
            <use xlink:href="#a"/>
        </mask>
        <path fill="#FFF" d="M1023.852 99.89V67.311c0 1.228-20.605-1.104-23.586-1.221-11.4-.452-21.366.794-32.074 4.49-11.724 4.047-22.89 9.515-35.117 12.161-9.781 2.118-19.957 2.362-30.025 2.128-37.208-.862-74.307-8.08-111.372-5.068-23.096 1.876-45.883 7.713-69.05 6.735-39.119-1.65-81.272-28.268-120.109-18.592-45.37 11.303-94.274 1.381-139.918-3.604a768.197 768.197 0 0 0-11.336-1.162c-10.466-.986-21.195-1.677-31.393.621-14.782 3.33-26.854 12.531-40.592 18.39-37.052 15.807-80.913 5.885-120.414-4.29-35.74-9.206-72.846-19.076-100.266-41.318-9.056-7.346-16.994-16.002-27.63-21.452-9.654-4.946-20.86-6.894-31.874-8.482A652.28 652.28 0 0 0 0 .028V99.89h1023.852z" mask="url(#b)"/>
    </g>
</svg>
