<svg xmlns="http://www.w3.org/2000/svg" xmlns:xlink="http://www.w3.org/1999/xlink" width="210" height="248" viewBox="0 0 210 248">
    <defs>
        <path id="a" d="M0 .21h6.883V5H0z"/>
        <path id="c" d="M.016.22h5.978v8.727H.016z"/>
        <path id="e" d="M.216.295h3.666v3.467H.216z"/>
        <path id="g" d="M0 .263h18v25.57H0z"/>
        <path id="i" d="M0 .231h22.844v8.595H0z"/>
        <path id="k" d="M.13.235h6.79v14.593H.13z"/>
        <path id="m" d="M.025.182h7.489v2.39H.024z"/>
    </defs>
    <g fill="none" fill-rule="evenodd">
        <path fill="#B78865" d="M23.54 18.516l.323.22c.098.066.197.156.093.22-.103.065-.33.05-.478.006-.147-.043-.267-.109-.434-.134a2.015 2.015 0 0 0-.36-.01l-.51.016c-.53.017-.977-.022-1.132-.28-.1-.167-.027-.347.29-.453.865-.291 1.758.11 2.207.415"/>
        <path fill="#492317" d="M22.787 41.895c1.266.288 2.527-.099 3.801-.185.51-.035 1.123-.058 1.343-.371.128-.182.069-.42-.098-.609-.167-.187-.428-.329-.703-.436-.755-.294-1.639-.35-2.437-.245-.755.099-1.687.336-2.298.646-.666.338-.46 1.005.392 1.2"/>
        <path fill="#4F332F" d="M24.34 45.495c.424.522 1.174.572 1.815.45.64-.124 1.273-.379 1.922-.32.388.036.762.184 1.15.207a1.898 1.898 0 0 0 1.583-.733c.098-.125.184-.271.19-.433a.746.746 0 0 0-.07-.312c-.301-.719-1.056-1.099-1.782-1.267-.846-.197-1.65-.277-2.463-.61-.498-.205-1.101-.622-1.663-.426-1.025.356-1.33 2.648-.682 3.444"/>
        <path fill="#21160A" d="M26.412 41.216c.025.385.234.728.394 1.077.161.349.277.763.118 1.112-.197.432-.728.585-1.196.594-.382.008-.781-.053-1.09-.279-.63-.46-.66-1.382-.63-2.17.009-.223.019-.453.111-.656.13-.283.397-.47.653-.642.156-.105.318-.213.502-.243.337-.056.671.166.856.457.185.292.252.642.314.983"/>
        <g transform="translate(0 42)">
            <mask id="b" fill="#fff">
                <use xlink:href="#a"/>
            </mask>
            <path fill="#4F332F" d="M4.365 1.74c-.116-.147-.208-.319-.325-.465C3.759.92 3.36.737 2.976.563 2.412.31 1.778.053 1.22.328c-.437.215-.724.711-.936 1.21-.193.451-.349.961-.259 1.456.115.64.682 1.118 1.234 1.043.307-.042.604-.23.908-.168.19.039.355.172.519.294.567.424 1.2.751 1.87.823.669.072 1.377-.134 1.875-.664.56-.596.674-1.6-.093-1.92-.698-.29-1.366.115-1.974-.662" mask="url(#b)"/>
        </g>
        <path fill="#21160A" d="M2.104 42.655c-.214.294-.074.738.208.969.281.23.658.3 1.018.347.264.035.546.06.783-.063.143-.075.255-.199.355-.326.383-.489.641-1.13.486-1.731-.514-2-2.304.052-2.85.804"/>
        <path fill="#8A6359" d="M20.174 27.923l1.808 3.339c.138.254.278.512.473.727.21.23.475.405.704.616.866.8 1.12 2.025 1.578 3.102.467 1.1 1.21 2.21 2.164 2.967.939.747 1.836 1.216 2.099 2.5-.556.253-1.199.012-1.794-.133-1.008-.246-2.131-.189-3.015.346-.386.234-.743.56-1.194.607-.686.07-1.059-.47-1.522-.848a9.003 9.003 0 0 1-1.282-1.261 18.878 18.878 0 0 1-2.12-3.209c-1.225-2.307-2.054-4.795-2.757-7.296-.223-.794-.437-1.631-.236-2.431a2.548 2.548 0 0 1 1.517-1.716c2.374-.938 2.746 1.155 3.577 2.69M8.625 30.365c-.944 2.45-3.24 4.131-4.284 6.539-.564 1.301-.775 2.829-1.763 3.833-.307.312-.718.712-.53 1.112.065.14.194.236.319.325.93.655 1.926 1.213 2.967 1.663.3.13.654.247.936.081.158-.093.26-.259.355-.418a182.83 182.83 0 0 0 6.2-11.324c.805-1.604 1.602-3.486.912-5.147-.44-1.06-2.303-2.547-3.505-1.85-1.21.703-1.132 3.951-1.607 5.186"/>
        <path fill="#B78865" d="M14.243 31.396c-.352.353-.316 1.026.071 1.336.14.112.312.178.484.221.158.04.322.062.481.035.4-.067.71-.466.72-.883a1.106 1.106 0 0 0-.621-.993c-.367-.176-.814-.138-1.168.064"/>
        <path fill="#9CBD9C" d="M12.887 9.205c-.944 1.775-1.77 3.647-2.012 5.632-.14 1.158-.08 2.33-.095 3.496a26.942 26.942 0 0 1-.573 5.188c-.11.53-.24 1.068-.2 1.608.04.54.279 1.098.75 1.385.309.19.683.244 1.045.288a28.06 28.06 0 0 0 3.6.197c1.244-.012 2.569-.136 3.554-.878 1.437-1.085 1.67-3.077 1.788-4.846l.087-1.31c.221-3.325.426-6.768-.771-9.89-.618-1.611-1.728-3.183-3.381-3.903-1.928-.84-3.03 1.6-3.792 3.033"/>
        <path fill="#CAD6E3" d="M12.877 17.802c-.164-1.06-.329-2.135-.219-3.202.11-1.067.525-2.145 1.353-2.861.828-.717 2.116-.988 3.091-.471.972.514 1.412 1.626 1.643 2.67.46 2.076.36 4.362-.809 6.16-.316.488-.705.93-1.022 1.418-.872 1.34-1.163 2.958-1.233 4.539-.07 1.58.062 3.165-.046 4.744-.023.341-.071.71-.32.956-.488.482-1.326.162-1.928-.182-.25.197-.637-.17-.617-.48.02-.311.158-.66-.035-.908-.078-.1-.198-.162-.285-.256-.166-.177-.188-.437-.2-.676l-.2-3.724c-.067-1.215-.128-2.462.252-3.622.233-.71.625-1.366.812-2.088.186-.722.326-1.509-.237-2.017"/>
        <path fill="#B78865" d="M22.963 5.256c.015.055.026.112.032.169.046.394-.251.713-.373 1.073-.068.2-.098.42-.18.61-.158.371-.483.582-.804.701-.498.185-1.024.205-1.542.185-.74-.03-1.504-.152-2.133-.642s-1.085-1.43-.934-2.34c.076-.456.29-.854.504-1.234.193-.34.393-.68.652-.94.57-.571 1.338-.687 2.063-.78.705-.092 1.673-.184 2.104.657.316.615.18 1.391.424 2.024.066.17.142.34.187.517"/>
        <path fill="#492317" d="M23.54 5.133c.34-.51.593-1.134.384-1.701-.16-.434-.573-.759-1.028-.946-.455-.187-.956-.256-1.45-.324-1.219-.165-2.52-.32-3.636.161-1.046.453-1.773 1.47-1.808 2.533-.026.749.264 1.475.585 2.164.132.284.282.58.557.756.231.15.521.195.802.213 2.147.145 4.494-1.204 5.594-2.856"/>
        <path fill="#E1846A" d="M18.052 8.19c.118.328.457.551.741.79 1.48 1.245 1.689 3.216 1.807 5.006.057.857.113 1.726-.094 2.565-.066.263-.157.527-.134.796.022.268.191.55.485.63.26.072.55-.035.74-.204.428-.381.423-.982.39-1.515l-.203-3.235c-.033-.54-.068-1.083-.22-1.607-.163-.563-.458-1.09-.65-1.647-.279-.805-.381-2.157-1.322-2.645-.775-.402-1.84.234-1.54 1.065"/>
        <g transform="translate(16)">
            <mask id="d" fill="#fff">
                <use xlink:href="#c"/>
            </mask>
            <path fill="#EA9581" d="M5.873 1.74c.093-.214.183-.481.063-.679C5.871.955 5.761.9 5.656.85 5.098.58 4.529.315 3.926.241 2.91.117 1.913.55.962.973c-.206.092-.416.186-.582.352-.555.553-.367 1.558-.134 2.35l.826 2.805c.259.881.583 1.85 1.32 2.266.415.234.91.25 1.36.116 1.155-.346.506-1.794.636-2.766.207-1.548.883-2.967 1.486-4.355" mask="url(#d)"/>
        </g>
        <g>
            <path fill="#F7E0C4" d="M196.038 136c-.04.72-.079 1.447.054 2.155.132.708.456 1.405 1.021 1.845.513-.424 1.108-.917 1.473-1.476.261-.399.486-.87.392-1.339-.088-.442-.453-.787-.861-.968-.41-.181-1.635-.174-2.08-.217"/>
            <path fill="#EAADA0" d="M192.403 137c-.328.795-.363 1.654-.395 2.498-.027.72-.015 1.53.594 2.048.413.35 1.035.487 1.616.447.58-.04 1.127-.238 1.631-.479.315-.15.628-.325.814-.585.216-.3.235-.67.248-1.021l.089-2.45c.003-.089-.101-.217-.164-.145"/>
            <path fill="#F7E0C4" d="M207 142.765c.002.425.002.858-.1 1.266-.102.408-.323.795-.652.969l-.236-2.606c-.032-.365-.045-1.686.56-1.335.467.27.424 1.21.427 1.706"/>
            <path fill="#21160A" d="M206 165.993c-.048.484-.15.964-.304 1.427-.05.151-.11.306-.231.412-.165.142-.403.163-.624.167a7.56 7.56 0 0 1-2.33-.323c-.186-.057-.389-.136-.47-.307-.052-.11-.044-.235-.033-.354.048-.604.136-1.282.633-1.653.338-.253.79-.3 1.216-.338.584-.052 1.278-.059 1.627.396"/>
            <path fill="#D1B3AF" d="M205 164.743c-.01.48-.063.965-.156 1.44-.03.156-.068.317-.156.44-.118.163-.3.22-.468.26a4.5 4.5 0 0 1-1.8.049c-.145-.026-.304-.071-.375-.226-.045-.098-.046-.222-.045-.34.006-.597.037-1.272.397-1.712.245-.3.588-.416.912-.52.444-.143.975-.258 1.266.132"/>
            <path fill="#21160A" d="M197 165.993c.048.484.15.964.304 1.427.05.151.11.306.232.412.164.142.402.163.623.167a7.56 7.56 0 0 0 2.33-.323c.186-.057.389-.136.47-.307.052-.11.044-.235.033-.354-.048-.604-.136-1.282-.633-1.653-.338-.253-.79-.3-1.216-.338-.584-.052-1.278-.059-1.626.396"/>
            <path fill="#D1B3AF" d="M197 164.743c.01.48.064.965.156 1.44.03.156.068.317.156.44.118.163.3.22.468.26a4.503 4.503 0 0 0 1.8.049c.145-.026.304-.071.375-.226.045-.098.046-.222.045-.34-.006-.597-.037-1.272-.397-1.712-.245-.3-.588-.416-.912-.52-.444-.143-.975-.258-1.265.132"/>
            <path fill="#C69B93" d="M199.194 166c-.942-.012-1.852-.235-2.784-.335-1.168-.125-2.36-.056-3.539.025-.152.01-.311.02-.453-.023-.25-.077-.368-.297-.402-.503-.113-.681.395-1.325.728-1.969.668-1.293.645-2.72.566-4.102-.203-3.563-.71-7.166.207-10.676.677-2.59 2.13-5.161 1.683-7.768-.088-.514-.25-1.032-.142-1.546a1.431 1.431 0 0 1 1.256-1.098c.175-.016.369.005.487.103.08.065.114.154.146.24l3.01 8.064c.686 1.841 1.375 3.689 1.736 5.587.631 3.318.244 6.731-.752 10.016-.168.554-.354 1.116-.292 1.68.06.537 1.02 1.213.86 1.594-.236.56-1.71.718-2.315.71"/>
            <path fill="#E1846A" d="M206.241 140.424c.383 1.413.66 2.852.847 4.269.228 1.74.314 3.498.4 5.253l.412 8.454c.11 2.262.424 4.792-1.166 6.64-.994 1.155-3.164.996-4.558 1.71-1.231.631-1.56.01-2.129-1.231-1.802-3.936-2.255-8.37-2.625-12.71-.115-1.356-.225-2.725-.064-4.076.141-1.189.49-2.344.624-3.533.403-3.563-1.133-7.095-.97-10.678 1.256-1.254 3.613-3.54 5.347-2.016.471.415.817.96 1.155 1.497 1.223 1.94 2.112 4.148 2.727 6.421"/>
            <path fill="#FFF" d="M204.435 139.774c.343-.014.704-.035.986-.179.506-.258.565-.794.576-1.258.007-.29.012-.588-.107-.867-.22-.514-.823-.882-1.422-1.183-.88-.443-1.812-.835-2.797-1.078-1.013-.25-1.973-.43-2.554.398-.642.917-1.3 1.862-1.913 2.796-.408.623-.203 1.03.61 1.277 2.008.61 4.552.175 6.621.094"/>
            <path fill="#F7E0C4" d="M200.389 128.304l1.445.047c.045.001.095.005.126.038.024.026.03.064.033.1.058.604-.245 1.178-.546 1.704-.434.76-.556 1.343-.594 2.2-.007.142-.02.298-.12.398a.489.489 0 0 1-.209.111c-1.573.484-1.819-.929-2.024-2.004-.28-1.464-1.668-2.147-1.483-3.85.051-.473.306-1.022.776-1.048.02.374.039.75.057 1.124.006.105.014.219.082.3.078.094.21.113.325.156.455.17.402.708.723.906.162.1.633.033.838.073.256.052.508.13.748.238.073.033.15.07.194.139.057.085.05.197.042.299-.05.6-.01 1.075.03 1.65.024.333.035.667.034 1"/>
            <path fill="#21160A" d="M193.248 138.513c-.128-.173-.25-.369-.248-.584.001-.161.071-.313.14-.458l1.835-3.88c.521-1.104.755-2.228 1.907-2.722 1.727-.741 3.498-1.485 5.376-1.734.79-.105 1.974-.267 2.731.056.67.286.859 1.03 1.115 1.664l2.404 5.942c.721 1.783 1.738 3.52 1.438 5.51a3.78 3.78 0 0 1-.393 1.21c-.067.128-.173.389-.314.449-.161.068-.451.017-.619-.004a1.853 1.853 0 0 1-.733-.237 1.188 1.188 0 0 1-.502-.572c-.04-.101-.065-.22-.131-.307-.062-.081-.143-.088-.218-.147-.188-.149-.333-.435-.466-.632a12.092 12.092 0 0 1-.777-1.323c-.908-1.798-1.254-2.79-3.414-2.915-1.044-.06-2.122-.116-3.105.24-1.25.451-1.489 2.164-2.535 2.463-1.154.329-2.89-1.204-3.491-2.019"/>
            <path stroke="#909CA9" stroke-width=".935" d="M200 123l3-2"/>
            <path fill="#301E22" d="M200.049 128.994a2.71 2.71 0 0 1-.909-.188c-1.22-.506-2.196-2.278-2.138-3.619.023-.503.196-.987.424-1.43.109-.214.236-.427.428-.563.28-.198.643-.2.98-.191.678.02 1.355.058 2.03.117.47.041.961.1 1.351.376.433.307.673.846.75 1.385.078.54.011 1.089-.055 1.63-.094.77-.515 2.014-1.266 2.342-.205.09-.432.104-.653.118a8.21 8.21 0 0 1-.942.023"/>
            <path stroke="#909CA9" stroke-width=".935" d="M204 125a109.964 109.964 0 0 1-7-3"/>
            <g transform="translate(198 121)">
                <mask id="f" fill="#fff">
                    <use xlink:href="#e"/>
                </mask>
                <path fill="#3F292F" d="M.42 2.904c.21.446.602.772 1.029.842.441.072.878-.117 1.292-.303l.597-.267c.15-.068.31-.144.398-.303C4.3 1.846 3.114.191 2.196.3 1.069.435-.31 1.357.42 2.904" mask="url(#f)"/>
            </g>
            <path stroke="#909CA9" stroke-width=".935" d="M198 125l2-1"/>
            <path fill="#CAD6E3" d="M188.66 166.793c.5-.138 1.017-.3 1.382-.66.486-.479.602-1.213.547-1.885-.055-.672-.253-1.327-.292-2-.077-1.334.472-2.622.642-3.947.155-1.222-.014-2.46-.183-3.68l-.796-5.747c-.033-.24-.075-.498-.246-.674-.33-.34-.907-.181-1.35.001l-3.13 1.289c-.377.155-.777.328-1.003.662-.197.29-.23.656-.231 1.004-.003 1.62.57 3.18.898 4.768.486 2.358.429 4.772.627 7.159.072.866 0 2.63.521 3.36.562.79 1.81.574 2.615.35"/>
            <path fill="#E1846A" d="M186.202 163.199c-.037.568-.01 1.223.477 1.573.48.345 1.18.23 1.783.098l1.533-.335a3.171 3.171 0 0 0-.006-.452c-.052-.61-.239-1.207-.275-1.82a5.155 5.155 0 0 1 .102-1.263c-.654.296-2.397.813-2.734.827-1.769.072-.822.477-.88 1.372"/>
            <path fill="#DCE1E5" d="M186.993 166.64c-.54.37-1.285.046-1.883-.237-.598-.282-1.452-.461-1.83.056-.126.172-.163.385-.236.581-.307.835-1.605 1.307-2.237.653-.406-.42-.378-1.082-.731-1.541-.412-.536-1.197-.642-1.883-.793-.687-.152-1.463-.524-1.515-1.183-.493-.18-.715-.742-.673-1.237.041-.495.28-.953.449-1.423.736-2.053.14-4.358.814-6.43.66-2.035 2.609-3.65 4.843-4.017 3.751-.615 3.689 3 4.113 5.502.564 3.327.822 6.7.77 10.069"/>
            <path fill="#B78865" d="M185.258 127.402c-.119.24-.146.526-.171.804-.068.759-.136 1.528-.038 2.288.097.76.38 1.523.897 2.008.627.59 1.564.664 2.227.177.267-.196.486-.468.671-.765.604-.967 1.828-4.75.687-5.697-.8-.664-3.846.33-4.273 1.185"/>
            <path fill="#FFF" d="M190.484 150.063c.837-.96 1.08-2.255 1.293-3.486.297-1.704.593-3.409.888-5.113.127-.73.254-1.462.306-2.2.108-1.535-.109-3.072-.325-4.596-.06-.423-.125-.858-.347-1.229-.525-.874-1.715-1.107-2.762-1.253-1.928-.267-4.177-.438-5.54.885-.715.692-1.025 1.662-1.486 2.528-.484.913-1.163 1.753-1.401 2.75-.156.65-.113 1.326-.07 1.992.12 1.837.24 3.676.48 5.503.221 1.669.77 5.262 2.757 5.982 1.69.612 5.099-.49 6.207-1.763"/>
            <path fill="#057158" d="M189.768 155.868c-.356.076-.358.051-.716.12-.51.098-.977-.4-1.04-.91-.065-.51.151-1.007.355-1.48 2.394-5.548 3.748-11.577 3.532-17.603-.046-1.279-.301-2.774-1.456-3.356-.32-.162-.686-.236-.972-.45-.287-.214-.455-.655-.217-.92.098-.11.243-.165.385-.202.955-.241 1.939.207 2.793.691 1.942 1.101 3.405 1.977 4.155 4.125.695 1.988.322 3.91.236 5.943-.09 2.144-.294 4.3-.914 6.367-.634 2.117-1.699 4.124-1.978 6.314-.03.235-.065.499-.253.645-.122.095-.283.12-.436.14a31.2 31.2 0 0 1-2.07.207c-.197.013-.377-.117-.574-.094-.308.035-.502.35-.83.463"/>
            <path fill="#3E2B2F" d="M185.097 129.224a3.316 3.316 0 0 1 .478-2.656c.529-.777 1.402-1.336 2.361-1.513.633-.117 1.331-.06 1.853.298.713.489.928 1.391 1.047 2.216.093.638.16 1.281.164 1.926.003.57-.053 1.17-.389 1.643-.78 1.102-2.354.937-3.525.647-1.155-.287-1.724-1.515-1.989-2.56"/>
            <path fill="#5E8C6B" d="M188.25 131.093c-.36-.088-.803-.165-1.081.024-.237.163-.213.466-.001.646.21.18.558.249.881.235.324-.013.633-.099.936-.183.095-.335-.274-.7-.738-.729"/>
            <path fill="#3E2B2F" d="M187.934 134.265c.517.317 1.11.567 1.744.735.023-.42.213-.823.3-1.238.169-.81-.64-1.977-1.982-1.728-1.648.305-.948 1.686-.062 2.23"/>
            <path fill="#B78865" d="M183.093 131.126a1.477 1.477 0 0 0-1.488.174c-.156.123-.282.276-.407.427l-2.47 2.998c-.386.468-.795 1.008-.719 1.603.043.34.316.686.67.672a.781.781 0 0 0 .283-.076c.971-.435 1.17-1.677 1.847-2.478.722-.855 1.765-.936 2.692-1.443.91-.499.455-1.482-.408-1.877"/>
            <g transform="translate(168 132)">
                <mask id="h" fill="#fff">
                    <use xlink:href="#g"/>
                </mask>
                <path fill="#057158" d="M17.568 4.585c.238 2.034.476 4.076.425 6.123-.042 1.66-.275 3.311-.556 4.95-.163.948-.342 1.893-.479 2.845-.265 1.852-.369 3.721-.472 5.588l-3.738.211c-.265.015-.541.028-.783-.076-.241-.104-.431-.366-.353-.608.145.886-.622 1.72-1.507 2.017-.884.297-1.852.195-2.785.104A81.394 81.394 0 0 0 0 25.362c.68-1.798-.054-3.872.624-5.67.23-.609.612-1.154.9-1.74.545-1.11.743-2.343 1.127-3.513.424-1.293 1.076-2.509 1.526-3.794.373-1.067.606-2.176.999-3.237.393-1.06.972-2.096 1.891-2.797 2.024-1.542 5.102-1.09 7.246-2.476.589-.38 1.08-.884 1.649-1.29.203-.146 1.033-.742 1.288-.541.16.126-.06.857-.06 1.04-.004 1.062.254 2.184.378 3.24" mask="url(#h)"/>
            </g>
            <path fill="#E1846A" d="M185.766 159c-.98.184-1.616 1.182-2.472 1.724-.446.282-.95.438-1.449.59-.197.06-.399.122-.604.115-.73-.025-1.266-.883-1.995-.862-.551.016-.981.53-1.519.664-.477.119-.967-.078-1.408-.31-.016.059-.03.117-.048.176-.084.273-.187.543-.271.818.246.4.798.545 1.266.473.532-.083 1.026-.358 1.558-.442a2.244 2.244 0 0 1 1.287.18c.16.073.312.166.48.215.21.06.438.049.643.129.275.106.478.364.752.472.47.185.972-.113 1.425-.342a5.726 5.726 0 0 1 2.589-.616 68.333 68.333 0 0 0-.226-2.984h-.008"/>
        </g>
        <g>
            <path fill="#2D1311" d="M17.395 194.215c-4.132-.608-8.603.09-12.105 1.887-.568.292-1.055.807-1.23 1.434-.256.923.341 1.868 1.026 2.518 2.186 2.075 5.337 2.592 8.299 2.82 2.34.182 4.722.237 7.005-.328 1.684-.417 6.983-2.541 5.275-5.075-1.499-2.223-5.907-2.909-8.27-3.256"/>
            <path fill="#88604C" d="M11.588 234.987c-.007-2.315-.298-4.617-.588-6.912.383-.208.855.046 1.148.38.292.334.502.755.855 1.018.188.14.418.236.548.437.1.156.125.352.147.539.27 2.367.549 4.839-.073 7.173-.215.804-.876 2.07-1.614.911-.592-.93-.42-2.49-.423-3.546"/>
            <path fill="#31201D" d="M11.482 245.197a.415.415 0 0 1 .207.02c.068.032.109.098.14.163.173.355.173.758.17 1.148-.002.309-.016.647-.241.876-.127.13-.305.205-.477.277-.332.138-.672.279-1.035.312-.363.034-.76-.058-.993-.316-.188-.21-.243-.495-.252-.766-.015-.473.103-1.532.607-1.823.456-.264 1.3.152 1.874.109"/>
            <path fill="#88604C" d="M14.981 207c.231.67.58 1.281 1.019 1.781-.392 1.247-1.439 2.157-2.55 2.217-.391.02-.827-.085-1.058-.464-.108-.177-.158-.395-.205-.607-.106-.486-.297-1.188-.104-1.672.172-.43.405-.656.482-1.167.19-.012 2.424-.064 2.416-.088"/>
            <path fill="#B78865" d="M12.06 240.317c.18-1.074.236-2.17.32-3.259.131-1.72.332-3.435.601-5.135.043-.272.1-.565.286-.743.203-.194.497-.189.764-.173.728.043 1.605.198 1.885.961.158.429.063.918-.036 1.369a159.278 159.278 0 0 1-3.15 12.11c-.476 1.57-1.836 2.463-1.723.13.087-1.798.757-3.505 1.053-5.26"/>
            <path fill="#21160A" d="M12.056 205.42c.222.595.649 1.09 1.17 1.355.52.265 1.129.298 1.67.09a1.78 1.78 0 0 0 .818-.62c.209-.295.324-.683.275-1.057-.018-.134-2.046-.165-2.251-.17-.376-.012-.752-.014-1.128-.008-.386.006-.753-.126-.554.41"/>
            <path fill="#057158" d="M12.623 232.141a24.443 24.443 0 0 1-3.608-10.311c-.025-.227-.038-.482.116-.653.171-.19.468-.189.726-.168 3.058.248 6.102 1.165 9.143.76a46.898 46.898 0 0 1-1.466 7.429c-.227.803-.483 1.615-.963 2.303-.887 1.272-2.907 2.292-3.948.64"/>
            <path fill="#E1846A" d="M9.05 218c-.087.714-.103 1.49.3 2.09.438.651 1.253.934 2.02 1.138a24.96 24.96 0 0 0 3.921.714c.65.065 1.315.104 1.95-.044.636-.148 1.248-.508 1.556-1.072.37-.679.258-1.503-.528-1.582-.976-.099-2.056.184-3.067.106-2.102-.162-4.148-.733-6.151-1.35"/>
            <path fill="#B78865" d="M9.787 205.113L8.1 205c-.242 1.7-.036 3.476.585 5.052.225.572.507 1.13.586 1.747.053.407.015.823.08 1.227.066.404.273.821.626.94.284.097.599-.025.827-.236.228-.21.385-.5.533-.785.3-.58.585-1.193.647-1.86.226-2.413-1.903-3.735-2.196-5.972"/>
            <path fill="#EAEAEA" d="M8.927 213.926a1.42 1.42 0 0 0 1.854-.918c.427-1.434.378-3.044.557-4.56.026-.22.169-.514.378-.435.072.027.12.095.157.162.374.667.193 1.634.799 2.104.546.425 1.36.128 1.898-.306.54-.434 1.012-1.009 1.683-1.181a.5.5 0 0 1 .243-.015c.345.087.249.595.09.911a10.756 10.756 0 0 0-1.13 4.46c-.02.638.17 1.46.807 1.548.47.066 1.3.226 1.364.04.062-.177.145.342.156.529l.21 3.478c.015.263.022.554-.148.757-.174.205-.47.247-.739.274-2.671.274-5.51.52-7.913-.67-.363-.18-1.024-.512-1.16-.931-.14-.433.196-1.078.302-1.515.295-1.226.493-2.475.592-3.732"/>
            <path fill="#B78865" d="M19.373 207.41c.6-.648 1.075-1.42 1.73-2.008.948-.85 2.205-1.251 3.45-1.394a.557.557 0 0 1 .22.006c.346.1.242.64.048.954-.966 1.565-2.327 2.814-3.476 4.238a18.593 18.593 0 0 0-2.907 5.085c-.248.655-.533 1.405-1.172 1.642-.454.168-.98.006-1.346-.32-.365-.327-.59-.795-.732-1.274-.476-1.604-.015-3.34 1.01-4.6.883-1.084 2.238-1.317 3.175-2.328"/>
            <path fill="#E0A16C" d="M14.047 198.693c-.122.195.004.462.256.546.066.022.146.037.18.087.097.138-.269.28-.178.42.024.038.075.059.123.076.952.34 2.149.183 2.914-.382.257-.19.469-.42.76-.576.335-.18.806-.295.887-.61.054-.211-.104-.416-.255-.595-.393-.464-.511-.863-1.18-.544-.397.189-.611.542-.91.805-.295.261-.59.458-1.024.569-.271.07-1.442-.006-1.573.204M17.169 202.633c-.274-.261-.216-.764.183-.86.413-.1.973.247 1.226-.045.083-.096.08-.225.125-.338.1-.256.442-.402.764-.409.322-.007.631.096.93.197.174-.081.1-.314-.05-.424-.15-.11-.357-.174-.454-.32-.218-.33.325-.677.775-.665.45.01.912.183 1.336.058.173-.14.005-.383-.178-.514-.183-.132-.407-.308-.324-.497.07-.162.315-.202.515-.243.2-.042.433-.172.377-.338-.023-.069-.091-.119-.137-.18-.191-.247.16-.627.495-.536a.965.965 0 0 1 .202-1.145c.318-.31.856-.446 1.326-.337a.724.724 0 0 1 .36.178c.297.309-.093.744-.468.987.406.116.58.597.32.882-.137.15-.38.31-.277.479.128.21.599.06.747.26.052.071.04.161.027.243l-.221 1.354a.473.473 0 0 1-.094.249c-.164.185-.512.116-.772.192-.444.128-.526.616-.808.93-.417.464-1.214.497-1.903.57-.479.05-.951.138-1.412.258-.833.218-1.864.728-2.61.014"/>
            <path fill="#E0A16C" d="M19.175 196.988c-.262.155-.598.316-.88.187a.527.527 0 0 1-.287-.416c-.131-.916 1.314-1.546 1.293-2.47-.01-.427-.345-.849-.195-1.257.253-.111.534.091.72.275l.685.68c.284-.107.178-.617.488-.614.062.001.12.028.167.062.272.197.21.558.254.86.05.348.267.66.405.99.108.261.167.536.174.812a1.86 1.86 0 0 1-.56 1.411c-.4.378-1.042.584-1.619.452-.045-.01-.092-.024-.12-.055-.026-.03-.03-.07-.03-.108 0-.238.108-.475.296-.651.168-.158 1.298-.953.646-1.194-.144-.053-1.182.884-1.437 1.036M13.728 194.484c-.249.054-.564.02-.683-.176-.121-.197.026-.433.17-.618.298-.383.607-.765 1.001-1.077.394-.313.884-.554 1.418-.604 1.02-.095 2.016.58 2.282 1.429.266.848-.123 1.788-.85 2.409-.13.112-.348.216-.482.107-.083-.067-.079-.18-.065-.277.08-.584.251-1.192.022-1.746-.065-.158-.26-.332-.423-.24-.102.059-.107.183-.102.288l.028.524c.019.371-.038.844-.45.96-.28.08-.594-.074-.742-.293-.147-.218-.163-.484-.147-.736.013-.227.055-.448-.016-.662-.245.313-.502.613-.961.712M8.004 202.291c.023.309.304.509.607.63a.85.85 0 0 0 .42.075c.288-.034.554-.264.843-.315.172-.03.33.005.49.026.83.108 1.828-.228 2.514-.845.15-.135.29-.35.164-.45l.744-.391a.53.53 0 0 0 .135-.09.294.294 0 0 0 .079-.204.425.425 0 0 0-.387-.445c-.244-.025-.56.158-.616.383-.132-.13-.02-.378-.1-.541-.108-.22-.594-.13-.712.13-.08.178.004.349-.03.53-.05.271-.415.526-.71.496-.384-.039-.505-.445-.862-.54-1.153-.303-.68 1.139-1.09 1.323-.142.063-1.583-1.046-1.489.228M9.306 199.06c.215.382.513.764.963.901.45.138 1.056-.105 1.08-.532.01-.193-.096-.375-.198-.546l-.707-1.18c.397-.086.65.352.855.67.27.416.709.742 1.213.908.324.106.791.089.893-.207.11-.316-.296-.556-.587-.756a1.837 1.837 0 0 1-.684-.862c1.003.283 1.618 1.368 2.667 1.432.131.008.281-.01.36-.105.054-.066.06-.155.056-.238-.022-.435-.283-.855-.684-1.1l1.143-.053c.11-.005.239-.02.297-.103.077-.112-.026-.255-.142-.333-.56-.375-1.427-.148-1.983-.527-.49-.334-.569-1.032-1.106-1.3-.251-.127-.554-.13-.841-.129-.516 0-1.06.008-1.503.246a.987.987 0 0 0-.537.934c.018.663.338.363-.272.848-.719.57-.738 1.226-.283 2.033M8.812 194.965c-.158.066-.367.04-.47-.093-.218-.28.133-.794-.174-.984-.061-.037-.148-.06-.165-.128-.023-.089.092-.147.182-.181.221-.086.414-.24.542-.432.11-.166.172-.358.292-.517.258-.341.722-.467 1.15-.57.153-.036.31-.073.466-.056.29.031.52.238.728.434.248.233.505.482.597.802.097.334-.002.688-.101 1.021a.407.407 0 0 1-.1.196c-.115.104-.311.057-.434-.04s-.208-.232-.336-.322l-.434.48c-.094.104-.19.21-.32.275-.643.321-.383-.519-.697-.597-.388-.097-.393.573-.726.712M6.75 198.674c-.13-.031-.268-.053-.387-.106-.2-.087-.325-.247-.483-.376-.157-.13-.393-.237-.607-.173a.377.377 0 0 0-.273.352c-.002.145.073.285.155.416.173.277.38.54.62.786.106.108.223.216.376.283.138.06.297.084.453.104.285.037.581.066.86.005 1.293-.285-.079-1.143-.713-1.291"/>
            <path fill="#E0A16C" d="M5.037 198.033c-.094.27-.006.569.231.788.142.13.33.231.516.33.659.35 1.663.946 2.556.836.622-.077.877-.366.445-.66-.397-.268-1.129-.306-1.575-.562-.343-.196-.553-.481-.958-.623-.112-.04-1.178-.214-1.215-.109M9.186 197.013c.3.12.49.351.435.573-.054.221-.372.412-.727.414-.544.003-.88-.362-1.328-.557-.264-.114-.58-.171-.87-.258-.29-.086-.574-.219-.666-.413-.097-.204.052-.434.315-.567.262-.134.616-.18.951-.163.463.022.92.152 1.375.097.251-.03.482-.116.736-.136.254-.02.565.062.591.223.016.097-.076.186-.163.265-.443.405-.868.584-1.634.468a1.72 1.72 0 0 1 .985.054"/>
            <g transform="translate(4 197)">
                <mask id="j" fill="#fff">
                    <use xlink:href="#i"/>
                </mask>
                <path fill="#7B5932" d="M9.52 4.006c2.332.53 4.748.798 7.088.318 2.341-.48 4.613-1.772 6.048-3.909.371.855.121 1.87-.135 2.778-.41 1.458-.874 3.004-1.938 3.956-.692.62-1.568.915-2.433 1.126-3.315.807-6.751.56-10.135.308-1.216-.09-2.45-.184-3.598-.647C2.989 7.36 1.779 6.182 1 4.724.545 3.869-.578-.506.368.34c1.569 1.404 3.38 2.258 4.267 2.543 2.361.76 3.137.726 4.885 1.123" mask="url(#j)"/>
            </g>
        </g>
        <g>
            <path fill="#0E0E09" d="M147.47 128.673a3.065 3.065 0 0 1-1.672.313c-.133-.013-.27-.036-.376-.11-.11-.08-.168-.203-.215-.324-.474-1.23-.22-2.98 1.66-2.457 1.012.282 1.635 2.05.602 2.578"/>
            <path fill="#BDC2BE" d="M144.524 126.95c.755.054 1.514.064 2.27.031.214-.009.44-.026.613-.163.263-.207.311-.607.335-.96.31-4.56.34-9.14.093-13.704-.006-.118-.015-.244-.077-.342-.088-.141-.257-.185-.41-.218l-2.18-.469c-.42-.09-.851-.18-1.268-.084-1.302.3-.816 2.076-.789 3.123.038 1.458.047 2.918.098 4.375.1 2.849.36 5.734 1.315 8.41"/>
            <path fill="#0E0E09" d="M141.47 129.673a3.062 3.062 0 0 1-1.672.313c-.133-.013-.27-.036-.375-.11-.111-.08-.17-.203-.216-.324-.474-1.23-.22-2.98 1.66-2.457 1.012.282 1.635 2.05.602 2.578"/>
            <path fill="#BDC2BE" d="M138.524 127.949c.755.055 1.514.065 2.27.032.214-.01.44-.027.613-.163.263-.208.311-.607.335-.961.31-4.559.34-9.14.093-13.703-.006-.119-.015-.244-.077-.342-.088-.141-.257-.185-.41-.218l-2.18-.469c-.419-.09-.851-.18-1.268-.084-1.302.3-.816 2.076-.789 3.123.038 1.458.047 2.917.098 4.375.1 2.848.36 5.734 1.315 8.41"/>
            <path fill="#FFF" d="M148.734 92.902c.785 1.724 1.57 3.47 1.942 5.323.339 1.682.33 3.41.32 5.126-.73-.187-1.626.343-2.205-.134-.225-.186-.324-.478-.41-.755a47.908 47.908 0 0 1-1.535-6.548c.704 3.108.826 6.317.74 9.5-.041 1.492.684 5.334.216 6.754-.469 1.42-2.174.426-3.495 1.161-2.193 1.22-4.929.54-7.34-.185-.203-.062-.42-.131-.555-.293-.125-.15-.158-.353-.187-.545l-.83-5.583c-.23-1.554-.462-3.12-.377-4.69.059-1.097.272-2.18.485-3.26l.736-3.73c.185-.937.371-1.88.72-2.771.56-1.44 1.568-2.735 2.924-3.508 3.882-2.214 7.31.757 8.85 4.138"/>
            <path fill="#7E5C33" d="M147.133 105.052c.156.304.418.542.67.778a23.334 23.334 0 0 1 2.447 2.691c.255.329.502.665.794.962.383.389.837.704 1.271 1.037.595.457 1.159.951 1.685 1.48l-.02-1.523a1.16 1.16 0 0 0-.046-.374c-.053-.15-.165-.273-.274-.392l-2.826-3.085c-.64-.698-1.298-1.406-2.103-1.933-.331-.216-1.706-.693-1.706-.693s-.103.644.108 1.052"/>
            <path fill="#170C05" d="M160.797 135.39c-.011.351-.03.722-.23 1.013-.31.446-.93.55-1.48.587-.946.064-1.85-.161-2.155-1.104l-.453-1.398c-.226-.695-.453-1.401-.476-2.13-.031-.985.196-1.958.193-2.953-.002-1.08.018-2.16.063-3.24.01-.229.025-.473.165-.658.116-.154.301-.242.487-.303 5.31-1.733 3.952 8.077 3.886 10.187"/>
            <path fill="#564636" d="M173 127.278L154.928 111 145 112.461 159.397 129l13.071-1.46z"/>
            <path fill="#564636" d="M173 127.999l-23.755-23.863L147 104l25.025 24z"/>
            <path fill="#E19BB0" d="M159.993 111l.007 1.868c0 .225-.01.48-.172.628a.694.694 0 0 1-.274.133 8.422 8.422 0 0 1-4.138.204c-.546-.11-1.16-.35-1.334-.91-.185-.598 0-1.726 0-1.726"/>
            <path fill="#E19BB0" d="M159.993 110l.007 1.868c0 .225-.01.48-.172.628a.697.697 0 0 1-.274.133 8.422 8.422 0 0 1-4.138.204c-.546-.11-1.16-.35-1.334-.91-.185-.598 0-1.726 0-1.726"/>
            <path fill="#E19BB0" d="M159.993 108l.007 1.868c0 .225-.01.48-.173.628a.703.703 0 0 1-.276.133 8.52 8.52 0 0 1-4.162.204c-.549-.11-1.167-.35-1.341-.91-.187-.598.24-1.233.169-1.858M159.993 113l.007 1.868c0 .225-.01.48-.172.628a.694.694 0 0 1-.274.133 8.422 8.422 0 0 1-4.138.204c-.546-.11-1.16-.35-1.334-.91-.185-.598 0-1.726 0-1.726"/>
            <path fill="#BEBEB5" d="M159.103 115h-.22c-.022-1.592-.044-4.335-.066-5.927.15-.053.244-.136.335.004.064.1.007.567.008.699.004.456.004.913.001 1.37-.001.227-.029 3.854-.058 3.854"/>
            <path fill="#7C7F7C" d="M158.38 109.017c.288.266.584.546.618.857.004.028.004.058-.02.082-.05.047-.167.05-.26.038-.29-.037-.526-.167-.636-.322-.11-.156-.103-.334-.015-.494.054-.1.215-.212.381-.168"/>
            <path fill="#CC718F" d="M154 108.5c0 .276 1.343.5 3 .5s3-.224 3-.5-1.343-.5-3-.5-3 .224-3 .5"/>
            <path fill="#7C7F7C" d="M165.993 117l.007 1.868c0 .225-.01.48-.172.628a.696.696 0 0 1-.274.133 8.422 8.422 0 0 1-4.138.204c-.546-.11-1.16-.35-1.334-.91-.185-.598 0-1.726 0-1.726"/>
            <path fill="#BEBEB5" d="M165.993 115l.007 1.868c0 .225-.01.48-.172.628a.696.696 0 0 1-.274.133 8.422 8.422 0 0 1-4.138.204c-.546-.11-1.16-.35-1.334-.91-.185-.598 0-1.726 0-1.726"/>
            <path fill="#7C7F7C" d="M165.993 113l.007 1.868c0 .225-.01.48-.173.628a.702.702 0 0 1-.276.133 8.52 8.52 0 0 1-4.162.204c-.549-.11-1.167-.35-1.341-.91-.187-.598.24-1.233.169-1.858"/>
            <path fill="#BEBEB5" d="M160 113.5c0 .276 1.343.5 3 .5s3-.224 3-.5-1.343-.5-3-.5-3 .224-3 .5"/>
            <path fill="#7C7F7C" d="M167.993 123l.007 1.868c0 .225-.01.481-.172.628a.693.693 0 0 1-.274.133 8.427 8.427 0 0 1-4.138.205c-.546-.111-1.16-.352-1.334-.91-.185-.599 0-1.727 0-1.727"/>
            <path fill="#BEBEB5" d="M167.993 122l.007 1.868c0 .225-.01.48-.172.628a.693.693 0 0 1-.274.133 8.427 8.427 0 0 1-4.138.205c-.546-.111-1.16-.352-1.334-.91-.185-.599 0-1.727 0-1.727"/>
            <path fill="#7C7F7C" d="M167.993 120l.007 1.868c0 .225-.01.48-.172.628a.694.694 0 0 1-.274.133 8.423 8.423 0 0 1-4.138.204c-.546-.11-1.16-.35-1.334-.91-.185-.598 0-1.726 0-1.726"/>
            <path fill="#BEBEB5" d="M167.993 118l.007 1.868c0 .225-.01.481-.173.628a.699.699 0 0 1-.276.133 8.524 8.524 0 0 1-4.162.205c-.549-.111-1.167-.352-1.341-.91-.187-.599.24-1.234.169-1.858"/>
            <path fill="#7C7F7C" d="M162 118.5c0 .276 1.343.5 3 .5s3-.224 3-.5-1.343-.5-3-.5-3 .224-3 .5"/>
            <path fill="#E1846A" d="M163.993 118l.007 1.868c0 .225-.01.48-.172.628a.693.693 0 0 1-.274.133 8.422 8.422 0 0 1-4.138.204c-.546-.11-1.16-.35-1.334-.91-.185-.598 0-1.726 0-1.726"/>
            <path fill="#E1846A" d="M163.993 117l.007 1.868c0 .225-.01.48-.172.628a.696.696 0 0 1-.274.133 8.422 8.422 0 0 1-4.138.204c-.546-.11-1.16-.35-1.334-.91-.185-.598 0-1.726 0-1.726"/>
            <path fill="#E1846A" d="M163.993 115l.007 1.868c0 .225-.01.48-.173.628a.702.702 0 0 1-.276.133 8.52 8.52 0 0 1-4.162.204c-.549-.11-1.167-.35-1.341-.91-.187-.598.24-1.233.169-1.858M163.993 120l.007 1.868c0 .225-.01.48-.172.628a.693.693 0 0 1-.274.133 8.422 8.422 0 0 1-4.138.204c-.546-.11-1.16-.35-1.334-.91-.185-.598 0-1.726 0-1.726"/>
            <path fill="#BEBEB5" d="M162.11 116.057c-.073 0-.142-.043-.211-.057-.022 1.731-.06 5.19-.082 6.92.15.058.245.148.335-.004.064-.109.007-.616.008-.76.004-.496.004-.993.001-1.49-.001-.246-.022-4.609-.05-4.609"/>
            <path fill="#7C7F7C" d="M163.38 116.017c.288.266.584.546.619.857.003.028.003.058-.022.082-.049.047-.166.05-.26.038-.288-.037-.525-.167-.635-.322-.11-.156-.103-.334-.015-.494.054-.1.215-.212.382-.168"/>
            <path fill="#C16752" d="M158 115.5c0 .276 1.343.5 3 .5s3-.224 3-.5-1.343-.5-3-.5-3 .224-3 .5"/>
            <path fill="#7C7F7C" d="M151.993 116l.007 1.868c0 .225-.01.48-.172.628a.696.696 0 0 1-.274.133 8.422 8.422 0 0 1-4.138.204c-.546-.11-1.16-.35-1.334-.91-.185-.598 0-1.726 0-1.726"/>
            <path fill="#BEBEB5" d="M151.993 114l.007 1.868c0 .225-.01.48-.172.628a.693.693 0 0 1-.274.133 8.422 8.422 0 0 1-4.138.204c-.546-.11-1.16-.35-1.334-.91-.185-.598 0-1.726 0-1.726"/>
            <path fill="#7C7F7C" d="M151.993 113l.007 1.868c0 .225-.01.48-.172.628a.696.696 0 0 1-.274.133 8.422 8.422 0 0 1-4.138.204c-.546-.11-1.16-.35-1.334-.91-.185-.598 0-1.726 0-1.726"/>
            <path fill="#BEBEB5" d="M151.993 111l.007 1.868c0 .225-.01.48-.173.628a.702.702 0 0 1-.276.133 8.52 8.52 0 0 1-4.162.204c-.549-.11-1.167-.35-1.341-.91-.187-.598.24-1.233.169-1.858"/>
            <path fill="#7C7F7C" d="M146 111.5c0 .276 1.343.5 3 .5s3-.224 3-.5-1.343-.5-3-.5-3 .224-3 .5"/>
            <path fill="#BEBEB5" d="M157.993 118l.007 1.868c0 .225-.01.48-.172.628a.696.696 0 0 1-.274.133 8.422 8.422 0 0 1-4.138.204c-.546-.11-1.16-.35-1.334-.91-.185-.598 0-1.726 0-1.726"/>
            <path fill="#7C7F7C" d="M157.993 118l.007 1.868c0 .225-.01.48-.172.628a.694.694 0 0 1-.274.133 8.422 8.422 0 0 1-4.138.204c-.546-.11-1.16-.35-1.334-.91-.185-.598 0-1.726 0-1.726"/>
            <path fill="#BEBEB5" d="M157.993 117l.007 1.868c0 .225-.01.48-.172.628a.697.697 0 0 1-.274.133 8.422 8.422 0 0 1-4.138.204c-.546-.11-1.16-.35-1.334-.91-.185-.598 0-1.726 0-1.726"/>
            <path fill="#7C7F7C" d="M157.993 115l.007 1.868c0 .225-.01.48-.173.628a.703.703 0 0 1-.276.133 8.52 8.52 0 0 1-4.162.204c-.549-.11-1.167-.35-1.341-.91-.187-.598.24-1.233.169-1.858"/>
            <path fill="#BEBEB5" d="M152 115.5c0 .276 1.343.5 3 .5s3-.224 3-.5-1.343-.5-3-.5-3 .224-3 .5M156.993 122l.007 1.868c0 .225-.01.48-.172.628a.697.697 0 0 1-.274.133 8.423 8.423 0 0 1-4.138.204c-.546-.11-1.16-.35-1.334-.91-.185-.598 0-1.726 0-1.726"/>
            <path fill="#7C7F7C" d="M156.993 120l.007 1.868c0 .225-.01.48-.172.628a.697.697 0 0 1-.274.133 8.423 8.423 0 0 1-4.138.204c-.546-.11-1.16-.35-1.334-.91-.185-.598 0-1.726 0-1.726"/>
            <path fill="#BEBEB5" d="M156.993 119l.007 1.868c0 .225-.01.48-.172.628a.697.697 0 0 1-.274.133 8.427 8.427 0 0 1-4.138.205c-.546-.111-1.16-.352-1.334-.91-.185-.599 0-1.727 0-1.727"/>
            <path fill="#7C7F7C" d="M156.993 117l.007 1.868c0 .225-.01.48-.173.628a.703.703 0 0 1-.276.133 8.52 8.52 0 0 1-4.162.204c-.549-.11-1.167-.35-1.341-.91-.187-.598.24-1.233.169-1.858"/>
            <path fill="#BEBEB5" d="M151 117.5c0 .276 1.343.5 3 .5s3-.224 3-.5-1.343-.5-3-.5-3 .224-3 .5M161.993 125l.007 1.868c0 .225-.01.48-.172.628a.697.697 0 0 1-.274.133 8.427 8.427 0 0 1-4.138.205c-.546-.111-1.16-.352-1.334-.91-.185-.599 0-1.727 0-1.727"/>
            <path fill="#7C7F7C" d="M161.993 123l.007 1.868c0 .225-.01.48-.172.628a.697.697 0 0 1-.274.133 8.427 8.427 0 0 1-4.138.205c-.546-.111-1.16-.352-1.334-.91-.185-.599 0-1.727 0-1.727"/>
            <path fill="#BEBEB5" d="M161.993 122l.007 1.868c0 .225-.01.48-.172.628a.694.694 0 0 1-.274.133 8.423 8.423 0 0 1-4.138.204c-.546-.11-1.16-.35-1.334-.91-.185-.598 0-1.726 0-1.726"/>
            <path fill="#7C7F7C" d="M161.993 120l.007 1.868c0 .225-.01.48-.173.628a.699.699 0 0 1-.276.133 8.524 8.524 0 0 1-4.162.205c-.55-.111-1.167-.352-1.341-.91-.187-.599.24-1.234.169-1.858"/>
            <path fill="#BEBEB5" d="M156 120.5c0 .276 1.343.5 3 .5s3-.224 3-.5-1.343-.5-3-.5-3 .224-3 .5M166.993 128l.007 1.868c0 .225-.01.481-.172.628a.693.693 0 0 1-.274.133 8.426 8.426 0 0 1-4.138.205c-.546-.111-1.16-.352-1.334-.91-.185-.599 0-1.727 0-1.727"/>
            <path fill="#7C7F7C" d="M166.993 126l.007 1.868c0 .225-.01.48-.172.628a.693.693 0 0 1-.274.133 8.426 8.426 0 0 1-4.138.205c-.546-.111-1.16-.352-1.334-.91-.185-.599 0-1.727 0-1.727"/>
            <path fill="#BEBEB5" d="M166.993 124l.007 1.868c0 .225-.01.48-.172.628a.697.697 0 0 1-.274.133 8.423 8.423 0 0 1-4.138.204c-.546-.11-1.16-.35-1.334-.91-.185-.598 0-1.726 0-1.726"/>
            <path fill="#7C7F7C" d="M166.993 123l.007 1.868c0 .225-.01.48-.173.628a.7.7 0 0 1-.276.133 8.52 8.52 0 0 1-4.162.204c-.55-.11-1.167-.35-1.341-.91-.187-.598.24-1.233.169-1.858"/>
            <path fill="#BEBEB5" d="M161 123.5c0 .276 1.343.5 3 .5s3-.224 3-.5-1.343-.5-3-.5-3 .224-3 .5"/>
            <path fill="#170C05" d="M172.316 135.652c-.478.969-1.56 1.654-2.46 1.21-.908-.448-1.185-1.724-1.35-2.828l-.505-3.414c-.07-.47 4.159-1.057 4.714-.128.63 1.054.09 4.168-.4 5.16"/>
            <path fill="#896A55" d="M142.894 91.983c-.47-.187-.953-.384-1.301-.728-.424-.417-.594-1.008-.593-1.577.002-.569.158-1.127.313-1.678 1.042.053 2.385-.034 2.676 1.023.097.352-.446 3.22-1.095 2.96"/>
            <path fill="#9A7962" d="M144.88 85.74c.107.862.212 1.753-.014 2.59-.225.836-.872 1.61-1.69 1.666-.966.067-1.727-.815-2.33-1.617-.218-.292-.44-.588-.589-.926-.331-.753-.272-1.625-.205-2.453"/>
            <path fill="#1A2020" d="M141.838 85.77l.162-.302c-.36.648-.833 1.375-1.698 1.532a1.855 1.855 0 0 1-.158-1.728.418.418 0 0 1 .155-.207c.1-.062.237-.066.363-.065.363.002.725.013 1.086.032"/>
            <path fill="#879993" d="M145 85.86a22.847 22.847 0 0 0-.267-2.1c-.029-.162-.063-.333-.167-.451-.115-.133-.29-.17-.455-.196a9.07 9.07 0 0 0-2.93.012c-.237.04-.483.095-.666.264-.183.17-.275.428-.344.68-.12.445-.224.943-.141 1.386.883-.35 1.517-.295 2.428.007.165.055 2.578.853 2.542.399"/>
            <g transform="matrix(-1 0 0 1 140 89)">
                <mask id="l" fill="#fff">
                    <use xlink:href="#k"/>
                </mask>
                <path fill="#BDC2BE" d="M2.91.77c.797.509 1.406 1.29 1.915 2.113 1.761 2.854 2.458 6.414 1.913 9.768-.084.51-.204 1.037-.521 1.433-.62.774-1.73.78-2.69.723-.066-.79.234-1.556.433-2.32.726-2.778.086-5.91-1.661-8.128C1.687 3.582.006 2.244.139 1.106.3-.295 2.182.306 2.908.77" mask="url(#l)"/>
            </g>
            <path fill="#E19BB0" d="M139.901 92.106c.053.442.106.887.098 1.333-.008.444-.076.884-.144 1.321l-.282 1.813a4.152 4.152 0 0 0-2.702.427c.264-1.941-.02-3.973-.801-5.728a.597.597 0 0 1-.07-.241c0-.12.072-.224.142-.315.457-.589 1.637-1.825 2.41-1.708 1.05.158 1.241 2.198 1.35 3.098"/>
            <path fill="#7E5C33" d="M171 130.65c.573.009 2.15-1.65 2.15-1.65l1.858 2.296s.612.218.865.422l3.106 2.51c.161.131-.652 2.324-.826 2.51-.636.685-1.052-.127-1.637-.7-1.356-1.33-4.227-3.999-5.516-5.389"/>
            <path fill="#A18A65" d="M160.89 129.242c-.968.018-2.89.225-2.89.225l1.055 4.533 13.945-.83-.235-4.17s-2.384.072-3.435.09l-8.44.152"/>
            <path fill="#564636" d="M177.73 136.038c.026-.184.046-.375-.002-.555-.068-.251-.257-.446-.438-.631-1.707-1.749-2.965-3.807-4.669-5.653-1.703-1.846-1.926-3.243-1.304-3.198 1.277 1.38 5.726 6.092 7.002 7.472.2.216.403.439.504.716.072.194.088.404.101.611.087 1.332.441 3.813-1.688 3.061.182-.605.4-1.188.493-1.823"/>
            <path fill="#1F9995" d="M166.007 124l-.007 1.868c0 .225.01.48.172.628.077.07.177.103.274.133a8.426 8.426 0 0 0 4.138.205c.546-.111 1.16-.352 1.334-.91.185-.599 0-1.727 0-1.727"/>
            <path fill="#1F9995" d="M166.007 122l-.007 1.868c0 .225.01.48.172.628.077.07.177.103.274.133a8.422 8.422 0 0 0 4.138.204c.546-.11 1.16-.35 1.334-.91.185-.598 0-1.726 0-1.726"/>
            <path fill="#1F9995" d="M166.007 121l-.007 1.868c0 .225.01.48.173.628a.7.7 0 0 0 .276.133 8.52 8.52 0 0 0 4.162.204c.549-.11 1.167-.35 1.341-.91.187-.598-.24-1.233-.169-1.858M166.007 125l-.007 1.868c0 .225.01.481.172.628.077.07.177.103.274.133a8.426 8.426 0 0 0 4.138.205c.546-.111 1.16-.352 1.334-.91.185-.599 0-1.727 0-1.727"/>
            <path fill="#BEBEB5" d="M166.89 127.943c.073 0 .142.043.211.057.022-1.731.06-5.19.082-6.92-.15-.058-.244-.148-.335.004-.064.109-.007.616-.008.76-.004.496-.004.993-.001 1.49.002.246.022 4.609.05 4.609"/>
            <path fill="#7C7F7C" d="M166.62 121.017c-.288.266-.584.546-.618.858-.004.027-.004.057.02.08.05.048.167.051.26.039.29-.037.526-.167.636-.322.11-.156.103-.334.015-.494-.054-.1-.215-.212-.381-.169"/>
            <path fill="#217A76" d="M172 120.5c0 .276-1.343.5-3 .5s-3-.224-3-.5 1.343-.5 3-.5 3 .224 3 .5"/>
            <path fill="#8C784A" d="M159 134l-15-16.093.259-4.907 14.733 16.282zM159.169 128.998l-.169-1.86c2.669-.218 5.528.205 8.207.124 2.292-.068 5.782-.262 5.782-.262l.011 1.568s-8.816.468-13.831.43"/>
            <path fill="#564636" d="M150.57 117.97c.57.612 1.14 1.223 1.75 1.795.913.855 1.91 1.618 2.84 2.457 3.515 3.171 9.425 10.267 12.84 13.544-.596-.022-1.174.276-1.769.229-.764-.06-4.819-3.584-5.314-4.161-.758-.882-1.471-1.8-2.195-2.71a153.766 153.766 0 0 0-17.213-18.328c-1.982-1.792-4.491-3.965-5.509-6.504 1.29-.513 1.46-.376 2.392.624l2.945 3.156 5.939 6.367 3.293 3.532"/>
            <path fill="#7E5C33" d="M135.657 104l-.657 1.388c.435.772 1.103 1.38 1.751 1.983 4.616 4.293 25.852 28.178 28.575 31.629.187-.614.368-1.422.555-2.036.086-.282.171-.587.08-.868-.065-.194-.207-.351-.345-.502-8.788-9.586-19.886-23.378-29.959-31.594"/>
            <path fill="#9A7962" d="M150.873 103.099c.142.764.257 1.661-.189 2.243-.29.377-.74.509-1.162.621-.108.03-.222.058-.327.016a.617.617 0 0 1-.213-.18c-.476-.544-.988-1.18-.982-1.959.003-.339.134-.704.398-.84M136.873 103.099c.142.764.257 1.661-.189 2.243-.29.377-.74.509-1.162.622-.108.028-.222.057-.327.015a.617.617 0 0 1-.213-.18c-.476-.544-.988-1.18-.982-1.959.003-.339.134-.704.398-.84"/>
            <path fill="#564636" d="M168 138.979a7.765 7.765 0 0 1-.05-2.485c-.704-.355-1.57-.43-2.403-.494-.003.485-.148.957-.278 1.427-.093.332-.413 1.003-.194 1.326.318.469 2.902.103 2.925.226"/>
        </g>
        <g>
            <path fill="#DDA37C" d="M72.005 84.761c-.58-.169-1.21.141-1.617.549-.406.407-.675.913-1.082 1.32-.068.069-.144.14-.16.23-.015.087.026.17.06.252.25.618.023 1.297.266 1.931.118.31.319.59.541.85.652.763 1.532 1.393 2.558 1.678"/>
            <path fill="#823725" d="M80.551 129.93c.393.279.969.266 1.415.065.446-.201.782-.56 1.055-.94.274-.377.5-.784.8-1.145.242-.29.531-.549.73-.864.346-.549.385-1.214.67-1.79.12-.241.284-.509.168-.75-.084-.176-.294-.273-.497-.324-.186-.047-.395-.065-.564.02a.872.872 0 0 0-.26.234c-.77.922-1.378 1.942-2.062 2.916-.342.488-.704.967-1.113 1.412-.343.372-.964.725-.342 1.166"/>
            <path fill="#D1A384" d="M81.595 123.209c.356.11.53.564.48.954-.048.39-.26.73-.448 1.069-.445.797-.793 1.65-1.14 2.5-.144.353-.288.758-.138 1.106.169.39.659.528 1.046.402.387-.125.687-.446.947-.776.8-1.012 1.373-2.2 1.94-3.375.196-.406.396-.88.225-1.299-.104-.253-.323-.427-.533-.59-.425-.326-.867-.662-1.382-.771"/>
            <path fill="#823725" d="M80.864 129.286l-.327-.36c.05-.038.064-.174.07-.232.081-.78-.02-1.322-.321-1.704l.411-.276c.496.631.475 1.458.416 2.025-.015.135-.041.385-.25.547M81.4 129.286l-.257-.387c.076-.12.141-.258.21-.404.07-.146.142-.297.227-.436.237-.386.534-.557.794-.462.027.01.054.024.082.037.03.016.069.035.084.032l.026-.008c.058-.017.194-.059.291.112l-.27.364c.03.052.067.06.079.06-.01 0-.02.004-.03.007a.5.5 0 0 1-.052.014c-.094.018-.174-.022-.238-.054-.019-.01-.037-.019-.056-.025-.158-.06-.336.118-.45.303-.07.115-.131.245-.197.383-.074.156-.15.317-.244.464"/>
            <g transform="translate(64.857 127.571)">
                <mask id="n" fill="#fff">
                    <use xlink:href="#m"/>
                </mask>
                <path fill="#823725" d="M.025 1.138c-.002.517.35.982.783 1.208.434.225.935.25 1.415.21.48-.04.957-.14 1.439-.145.387-.004.776.052 1.16-.006.666-.1 1.25-.532 1.904-.702.273-.07.596-.123.73-.387.099-.192.056-.432-.021-.635-.07-.186-.18-.37-.351-.448a.81.81 0 0 0-.35-.05C5.5.192 4.281.408 3.056.528c-.614.06-1.23.098-1.847.073C.693.582.028.318.025 1.138" mask="url(#n)"/>
            </g>
            <path fill="#D1A384" d="M71.026 125.857c.144.326-.102.703-.44.879-.338.176-.743.204-1.131.248-.915.102-1.811.307-2.704.512-.37.085-.782.198-.96.5-.198.339.01.78.359 1 .349.22.795.27 1.222.284 1.314.045 2.618-.174 3.91-.391.445-.075.947-.186 1.166-.541.133-.215.128-.474.12-.72-.016-.495-.037-1.008-.284-1.452"/>
            <path fill="#9CBD9C" d="M64.97 124.404c-.096.441-.19.918-.013 1.332.273.636 1.044.85 1.717.985 3.005.607 6.11 1.215 9.11.583 2.187-.46 4.362-1.574 6.547-1.102.394.085.793.222 1.19.155.344-.058.644-.261.931-.46l3.054-2.11c.216-.148.45-.327.489-.588.022-.155-.03-.31-.085-.458a20.489 20.489 0 0 0-3.098-5.565c-1.77-2.26-4.127-4.38-4.401-7.25-.103-1.07.08-2.253-.529-3.134-.355-.514-.922-.827-1.469-1.123l-3.018-1.631c-.352-.191-.714-.385-1.109-.445-.384-.059-.776.012-1.153.108a9.053 9.053 0 0 0-4.258 2.495c-1.491 1.548-1.505 2.885-1.737 4.954-.5 4.452-1.223 8.877-2.169 13.254"/>
            <path fill="#1F9995" d="M64.045 104.75c.115.71.467 1.354.813 1.984.063.114.128.232.229.315.252.209.623.14.946.19.76.12 1.208.892 1.564 1.572.658 1.254 1.369 2.478 2.08 3.702l3.275 5.639 2.47 4.252c.288.496.804 1.07 1.32.822.32-.154.424-.546.571-.87.253-.553.71-.982 1.07-1.474.904-1.238 1.16-2.857 1.002-4.382-.158-1.525-.695-2.982-1.253-4.41-.081-.206-.164-.415-.297-.593-.137-.184-.321-.326-.5-.471-1.545-1.259-2.768-2.897-4.412-4.023-.557-.382-1.155-.7-1.701-1.095-1.046-.757-1.885-1.788-2.998-2.443-1.541-.907-4.631-1.49-4.18 1.285"/>
            <path fill="#067070" d="M64.895 101.93c-.054.46-.076.947.114 1.37.406.906 1.542 1.143 2.459 1.523a5.625 5.625 0 0 1 1.858 1.255c.478.487.863 1.058 1.306 1.578.472.553 1.008 1.047 1.542 1.54l1.968 1.814c1.36 1.253 2.835 2.564 4.661 2.847.913-1.165.744-2.896.024-4.19-.72-1.293-1.887-2.264-2.978-3.263a42.597 42.597 0 0 1-5.453-6.052c-.123-.166-.25-.338-.424-.447-.192-.12-.422-.155-.645-.188-.928-.135-2.346-.62-3.282-.352-1.007.287-1.047 1.703-1.15 2.565"/>
            <path fill="#492317" d="M69.016 87.234c-.458-.535-.94-1.202-.635-1.77.316-.59 1.27-.69 2.076-.713l1.081-.031c.4-.012.823-.02 1.184.141.393.175.636.513.819.845.647 1.172.819 2.469.718 3.716-.083 1.017-.071 2.942-1.768 1.798-1.385-.935-2.449-2.786-3.475-3.986"/>
            <path fill="#9CBD9C" d="M77.978 89.2c.167.401.237.834.306 1.263l.943 5.88c.133.828.267 1.669.167 2.502-.1.832-.467 1.67-1.152 2.155.431-2.513-.566-5.038-1.683-7.33-.142-.295-.29-.59-.502-.84-.674-.794-1.912-1.019-2.42-1.928-.396-.708-.191-1.634.305-2.275.42-.542 1.421-1.424 2.167-1.335.771.091 1.597 1.254 1.869 1.908"/>
            <path fill="#067070" d="M71.85 88.302A43.184 43.184 0 0 1 70 83.327a6.271 6.271 0 0 1 4.674.272c1.427.689 2.523 1.954 2.945 3.403.066.226.117.46.086.694-.046.347-.266.65-.485.934-.86 1.112-1.916 2.246-3.312 2.77-1.029.386-1.037.114-1.204-.762-.155-.814-.517-1.577-.854-2.336"/>
            <path fill="#CAD6E3" d="M73.134 91.29c-.404-1.16-1.185-2.2-1.865-3.267-.68-1.067-1.282-2.224-1.269-3.421.003-.233.043-.49.247-.637.354-.255.906-.013 1.26.263 1.102.858 1.794 2.049 2.184 3.27.318.997.466 2.033.549 3.056.022.27.138.672-.113.88-.259.218-.88.182-.993-.144M72.617 105.667c-1.475-1.301-2.796-2.785-4.416-3.904-1.135-.783-2.464-1.44-3.11-2.651-.216-.406-.337-.912-.118-1.315.312-.574 1.12-.654 1.592-1.106.467-.447.571-1.224 1.137-1.539.31-.172.687-.16 1.042-.142.633.03 1.297.071 1.833.406.351.22.617.548.875.87l1.256 1.565c1.4 1.743 2.848 3.59 3.215 5.79.159.949.119 2.324-.583 3.084-.78.843-2.053-.467-2.723-1.058"/>
            <path fill="#1F9995" d="M67.952 92.413c.188-.266.44-.476.688-.682l.878-.73c.6-.498 1.239-1.015 1.998-1.123.577-.081 1.158.085 1.709.28 1.02.36 2.025.837 2.813 1.601 1.686 1.632 2.079 4.213 2.375 6.59l.957 7.682c.063.504.121 1.04-.088 1.499-.092.202-.231.377-.337.573-.543 1.006-.192 2.52-1.1 3.183-.096-.724-.571-1.322-1.027-1.878-.692-.842-1.383-1.685-2.108-2.496-.367-.411-.749-.823-.988-1.326-.722-1.516.021-3.396-.486-5.003-.2-.632-.583-1.183-.844-1.79-.31-.718-.453-1.557-.922-2.19-.562-.758-1.423-.88-2.278-1.015-.541-.085-1.279-.074-1.598-.625-.38-.655-.04-1.987.358-2.55"/>
            <path stroke="#823725" stroke-width="1.734" d="M65.714 128.421c.144.034.286-.051.41-.136.564-.383 1.118-.88 1.305-1.57M66.571 128.429c.27.033.545-.013.816.016.27.028.56.156.67.419.038.089.056.191.12.26.046.049.12.094.107.162"/>
        </g>
    </g>
</svg>
