<svg xmlns="http://www.w3.org/2000/svg" xmlns:xlink="http://www.w3.org/1999/xlink" width="1024" height="200" viewBox="0 0 1024 200">
    <defs>
        <path id="a" d="M0 0h1023.965v199.875H0z"/>
    </defs>
    <g fill="none" fill-rule="evenodd">
        <mask id="b" fill="#fff">
            <use xlink:href="#a"/>
        </mask>
        <path fill="#FFF" d="M0 0v30.775c61.901-15.551 126.982-17.07 189.476-4.375 31.857 6.471 63.251 16.603 95.665 18.208 41.783 2.067 82.828-10.11 124.057-17.517.552-.1 1.105-.198 1.658-.295 59.798-10.549 121.18-10.924 181.133-1.475 29.231 4.608 57.836 12.122 87.042 16.893 31.231 5.1 62.416 10.584 93.375 17.288 11.487 2.487 23.116 5.209 33.428 11.068 9.483 5.388 17.465 13.212 25.3 20.981 25.596 25.377 51.642 51.78 83.63 68.175 16.155 8.28 33.707 12.004 50.64 18.278 19.538 7.24 39.029 14.617 58.561 21.872V0H0z" mask="url(#b)"/>
    </g>
</svg>
