<svg xmlns="http://www.w3.org/2000/svg" xmlns:xlink="http://www.w3.org/1999/xlink" width="72" height="330" viewBox="0 0 72 330">
    <defs>
        <path id="a" d="M.072.035h4.9v4.9h-4.9z"/>
        <path id="c" d="M5.208.24c-.882.236-1.444 1.214-1.86 1.944-.962 1.909-1.198 4.088-1.714 6.164C1.18 10.168.506 11.926.07 13.75c-.11.467-.142 1.083.287 1.295.454.225.935-.234 1.228-.648.383-.542.753-1.1.995-1.718.24-.615.346-1.272.497-1.915.311-1.326.815-2.598 1.316-3.864-.078 1.47-.766 2.847-.911 4.312-.078.789.003 1.583.084 2.371l.225 2.18c.043.422.087.845.172 1.26.108.526.284 1.038.52 1.52.094.19.203.383.376.506.222.16.51.179.783.189 1.026.038 2.055.017 3.08-.06.535-.042 1.094-.107 1.54-.407.621-.417.888-1.195 1.032-1.932.366-1.866.204-3.8.5-5.677.154-.97.43-1.922.502-2.9.158-2.133-.656-4.222-1.687-6.093-.405-.735-.913-1.505-1.712-1.754C8.588.318 8.26.31 7.935.302 7.354.29 6.625.155 5.966.155c-.27 0-.527.022-.758.084"/>
        <path id="e" d="M5.208.24c-.882.236-1.444 1.214-1.86 1.944-.962 1.909-1.198 4.088-1.714 6.164C1.18 10.168.506 11.926.07 13.75c-.11.467-.142 1.083.287 1.295.454.225.935-.234 1.228-.648.383-.542.753-1.1.995-1.718.24-.615.346-1.272.497-1.915.311-1.326.815-2.598 1.316-3.864-.078 1.47-.766 2.847-.911 4.312-.078.789.003 1.583.084 2.371l.225 2.18c.043.422.087.845.172 1.26.108.526.284 1.038.52 1.52.094.19.203.383.376.506.222.16.51.179.783.189 1.026.038 2.055.017 3.08-.06.535-.042 1.094-.107 1.54-.407.621-.417.888-1.195 1.032-1.932.366-1.866.204-3.8.5-5.677.154-.97.43-1.922.502-2.9.158-2.133-.656-4.222-1.687-6.093-.405-.735-.913-1.505-1.712-1.754C8.588.318 8.26.31 7.935.302 7.354.29 6.625.155 5.966.155c-.27 0-.527.022-.758.084"/>
        <path id="g" d="M5.208.24c-.882.236-1.444 1.214-1.86 1.944-.962 1.909-1.198 4.088-1.714 6.164C1.18 10.168.506 11.926.07 13.75c-.11.467-.142 1.083.287 1.295.454.225.935-.234 1.228-.648.383-.542.753-1.1.995-1.718.24-.615.346-1.272.497-1.915.311-1.326.815-2.598 1.316-3.864-.078 1.47-.766 2.847-.911 4.312-.078.789.003 1.583.084 2.371l.225 2.18c.043.422.087.845.172 1.26.108.526.284 1.038.52 1.52.094.19.203.383.376.506.222.16.51.179.783.189 1.026.038 2.055.017 3.08-.06.535-.042 1.094-.107 1.54-.407.621-.417.888-1.195 1.032-1.932.366-1.866.204-3.8.5-5.677.154-.97.43-1.922.502-2.9.158-2.133-.656-4.222-1.687-6.093-.405-.735-.913-1.505-1.712-1.754C8.588.318 8.26.31 7.935.302 7.354.29 6.625.155 5.966.155c-.27 0-.527.022-.758.084"/>
        <path id="i" d="M5.208.24c-.882.236-1.444 1.214-1.86 1.944-.962 1.909-1.198 4.088-1.714 6.164C1.18 10.168.506 11.926.07 13.75c-.11.467-.142 1.083.287 1.295.454.225.935-.234 1.228-.648.383-.542.753-1.1.995-1.718.24-.615.346-1.272.497-1.915.311-1.326.815-2.598 1.316-3.864-.078 1.47-.766 2.847-.911 4.312-.078.789.003 1.583.084 2.371l.225 2.18c.043.422.087.845.172 1.26.108.526.284 1.038.52 1.52.094.19.203.383.376.506.222.16.51.179.783.189 1.026.038 2.055.017 3.08-.06.535-.042 1.094-.107 1.54-.407.621-.417.888-1.195 1.032-1.932.366-1.866.204-3.8.5-5.677.154-.97.43-1.922.502-2.9.158-2.133-.656-4.222-1.687-6.093-.405-.735-.913-1.505-1.712-1.754C8.588.318 8.26.31 7.935.302 7.354.29 6.625.155 5.966.155c-.27 0-.527.022-.758.084"/>
        <path id="k" d="M5.208.24c-.882.236-1.444 1.214-1.86 1.944-.962 1.909-1.198 4.088-1.714 6.164C1.18 10.168.506 11.926.07 13.75c-.11.467-.142 1.083.287 1.295.454.225.935-.234 1.228-.648.383-.542.753-1.1.995-1.718.24-.615.346-1.272.497-1.915.311-1.326.815-2.598 1.316-3.864-.078 1.47-.766 2.847-.911 4.312-.078.789.003 1.583.084 2.371l.225 2.18c.043.422.087.845.172 1.26.108.526.284 1.038.52 1.52.094.19.203.383.376.506.222.16.51.179.783.189 1.026.038 2.055.017 3.08-.06.535-.042 1.094-.107 1.54-.407.621-.417.888-1.195 1.032-1.932.366-1.866.204-3.8.5-5.677.154-.97.43-1.922.502-2.9.158-2.133-.656-4.222-1.687-6.093-.405-.735-.913-1.505-1.712-1.754C8.588.318 8.26.31 7.935.302 7.354.29 6.625.155 5.966.155c-.27 0-.527.022-.758.084"/>
        <path id="m" d="M5.208.24c-.882.236-1.444 1.214-1.86 1.944-.962 1.909-1.198 4.088-1.714 6.164C1.18 10.168.506 11.926.07 13.75c-.11.467-.142 1.083.287 1.295.454.225.935-.234 1.228-.648.383-.542.753-1.1.995-1.718.24-.615.346-1.272.497-1.915.311-1.326.815-2.598 1.316-3.864-.078 1.47-.766 2.847-.911 4.312-.078.789.003 1.583.084 2.371l.225 2.18c.043.422.087.845.172 1.26.108.526.284 1.038.52 1.52.094.19.203.383.376.506.222.16.51.179.783.189 1.026.038 2.055.017 3.08-.06.535-.042 1.094-.107 1.54-.407.621-.417.888-1.195 1.032-1.932.366-1.866.204-3.8.5-5.677.154-.97.43-1.922.502-2.9.158-2.133-.656-4.222-1.687-6.093-.405-.735-.913-1.505-1.712-1.754C8.588.318 8.26.31 7.935.302 7.354.29 6.625.155 5.966.155c-.27 0-.527.022-.758.084"/>
        <path id="o" d="M5.208.24c-.882.236-1.444 1.214-1.86 1.944-.962 1.909-1.198 4.088-1.714 6.164C1.18 10.168.506 11.926.07 13.75c-.11.467-.142 1.083.287 1.295.454.225.935-.234 1.228-.648.383-.542.753-1.1.995-1.718.24-.615.346-1.272.497-1.915.311-1.326.815-2.598 1.316-3.864-.078 1.47-.766 2.847-.911 4.312-.078.789.003 1.583.084 2.371l.225 2.18c.043.422.087.845.172 1.26.108.526.284 1.038.52 1.52.094.19.203.383.376.506.222.16.51.179.783.189 1.026.038 2.055.017 3.08-.06.535-.042 1.094-.107 1.54-.407.621-.417.888-1.195 1.032-1.932.366-1.866.204-3.8.5-5.677.154-.97.43-1.922.502-2.9.158-2.133-.656-4.222-1.687-6.093-.405-.735-.913-1.505-1.712-1.754C8.588.318 8.26.31 7.935.302 7.354.29 6.625.155 5.966.155c-.27 0-.527.022-.758.084"/>
        <path id="q" d="M5.208.24c-.882.236-1.444 1.214-1.86 1.944-.962 1.909-1.198 4.088-1.714 6.164C1.18 10.168.506 11.926.07 13.75c-.11.467-.142 1.083.287 1.295.454.225.935-.234 1.228-.648.383-.542.753-1.1.995-1.718.24-.615.346-1.272.497-1.915.311-1.326.815-2.598 1.316-3.864-.078 1.47-.766 2.847-.911 4.312-.078.789.003 1.583.084 2.371l.225 2.18c.043.422.087.845.172 1.26.108.526.284 1.038.52 1.52.094.19.203.383.376.506.222.16.51.179.783.189 1.026.038 2.055.017 3.08-.06.535-.042 1.094-.107 1.54-.407.621-.417.888-1.195 1.032-1.932.366-1.866.204-3.8.5-5.677.154-.97.43-1.922.502-2.9.158-2.133-.656-4.222-1.687-6.093-.405-.735-.913-1.505-1.712-1.754C8.588.318 8.26.31 7.935.302 7.354.29 6.625.155 5.966.155c-.27 0-.527.022-.758.084"/>
        <path id="s" d="M5.208.24c-.882.236-1.444 1.214-1.86 1.944-.962 1.909-1.198 4.088-1.714 6.164C1.18 10.168.506 11.926.07 13.75c-.11.467-.142 1.083.287 1.295.454.225.935-.234 1.228-.648.383-.542.753-1.1.995-1.718.24-.615.346-1.272.497-1.915.311-1.326.815-2.598 1.316-3.864-.078 1.47-.766 2.847-.911 4.312-.078.789.003 1.583.084 2.371l.225 2.18c.043.422.087.845.172 1.26.108.526.284 1.038.52 1.52.094.19.203.383.376.506.222.16.51.179.783.189 1.026.038 2.055.017 3.08-.06.535-.042 1.094-.107 1.54-.407.621-.417.888-1.195 1.032-1.932.366-1.866.204-3.8.5-5.677.154-.97.43-1.922.502-2.9.158-2.133-.656-4.222-1.687-6.093-.405-.735-.913-1.505-1.712-1.754C8.588.318 8.26.31 7.935.302 7.354.29 6.625.155 5.966.155c-.27 0-.527.022-.758.084"/>
        <path id="u" d="M5.208.24c-.882.236-1.444 1.214-1.86 1.944-.962 1.909-1.198 4.088-1.714 6.164C1.18 10.168.506 11.926.07 13.75c-.11.467-.142 1.083.287 1.295.454.225.935-.234 1.228-.648.383-.542.753-1.1.995-1.718.24-.615.346-1.272.497-1.915.311-1.326.815-2.598 1.316-3.864-.078 1.47-.766 2.847-.911 4.312-.078.789.003 1.583.084 2.371l.225 2.18c.043.422.087.845.172 1.26.108.526.284 1.038.52 1.52.094.19.203.383.376.506.222.16.51.179.783.189 1.026.038 2.055.017 3.08-.06.535-.042 1.094-.107 1.54-.407.621-.417.888-1.195 1.032-1.932.366-1.866.204-3.8.5-5.677.154-.97.43-1.922.502-2.9.158-2.133-.656-4.222-1.687-6.093-.405-.735-.913-1.505-1.712-1.754C8.588.318 8.26.31 7.935.302 7.354.29 6.625.155 5.966.155c-.27 0-.527.022-.758.084"/>
        <path id="w" d="M5.208.24c-.882.236-1.444 1.214-1.86 1.944-.962 1.909-1.198 4.088-1.714 6.164C1.18 10.168.506 11.926.07 13.75c-.11.467-.142 1.083.287 1.295.454.225.935-.234 1.228-.648.383-.542.753-1.1.995-1.718.24-.615.346-1.272.497-1.915.311-1.326.815-2.598 1.316-3.864-.078 1.47-.766 2.847-.911 4.312-.078.789.003 1.583.084 2.371l.225 2.18c.043.422.087.845.172 1.26.108.526.284 1.038.52 1.52.094.19.203.383.376.506.222.16.51.179.783.189 1.026.038 2.055.017 3.08-.06.535-.042 1.094-.107 1.54-.407.621-.417.888-1.195 1.032-1.932.366-1.866.204-3.8.5-5.677.154-.97.43-1.922.502-2.9.158-2.133-.656-4.222-1.687-6.093-.405-.735-.913-1.505-1.712-1.754C8.588.318 8.26.31 7.935.302 7.354.29 6.625.155 5.966.155c-.27 0-.527.022-.758.084"/>
        <path id="y" d="M5.208.24c-.882.236-1.444 1.214-1.86 1.944-.962 1.909-1.198 4.088-1.714 6.164C1.18 10.168.506 11.926.07 13.75c-.11.467-.142 1.083.287 1.295.454.225.935-.234 1.228-.648.383-.542.753-1.1.995-1.718.24-.615.346-1.272.497-1.915.311-1.326.815-2.598 1.316-3.864-.078 1.47-.766 2.847-.911 4.312-.078.789.003 1.583.084 2.371l.225 2.18c.043.422.087.845.172 1.26.108.526.284 1.038.52 1.52.094.19.203.383.376.506.222.16.51.179.783.189 1.026.038 2.055.017 3.08-.06.535-.042 1.094-.107 1.54-.407.621-.417.888-1.195 1.032-1.932.366-1.866.204-3.8.5-5.677.154-.97.43-1.922.502-2.9.158-2.133-.656-4.222-1.687-6.093-.405-.735-.913-1.505-1.712-1.754C8.588.318 8.26.31 7.935.302 7.354.29 6.625.155 5.966.155c-.27 0-.527.022-.758.084"/>
        <path id="A" d="M5.208.24c-.882.236-1.444 1.214-1.86 1.944-.962 1.909-1.198 4.088-1.714 6.164C1.18 10.168.506 11.926.07 13.75c-.11.467-.142 1.083.287 1.295.454.225.935-.234 1.228-.648.383-.542.753-1.1.995-1.718.24-.615.346-1.272.497-1.915.311-1.326.815-2.598 1.316-3.864-.078 1.47-.766 2.847-.911 4.312-.078.789.003 1.583.084 2.371l.225 2.18c.043.422.087.845.172 1.26.108.526.284 1.038.52 1.52.094.19.203.383.376.506.222.16.51.179.783.189 1.026.038 2.055.017 3.08-.06.535-.042 1.094-.107 1.54-.407.621-.417.888-1.195 1.032-1.932.366-1.866.204-3.8.5-5.677.154-.97.43-1.922.502-2.9.158-2.133-.656-4.222-1.687-6.093-.405-.735-.913-1.505-1.712-1.754C8.588.318 8.26.31 7.935.302 7.354.29 6.625.155 5.966.155c-.27 0-.527.022-.758.084"/>
        <path id="C" d="M5.208.24c-.882.236-1.444 1.214-1.86 1.944-.962 1.909-1.198 4.088-1.714 6.164C1.18 10.168.506 11.926.07 13.75c-.11.467-.142 1.083.287 1.295.454.225.935-.234 1.228-.648.383-.542.753-1.1.995-1.718.24-.615.346-1.272.497-1.915.311-1.326.815-2.598 1.316-3.864-.078 1.47-.766 2.847-.911 4.312-.078.789.003 1.583.084 2.371l.225 2.18c.043.422.087.845.172 1.26.108.526.284 1.038.52 1.52.094.19.203.383.376.506.222.16.51.179.783.189 1.026.038 2.055.017 3.08-.06.535-.042 1.094-.107 1.54-.407.621-.417.888-1.195 1.032-1.932.366-1.866.204-3.8.5-5.677.154-.97.43-1.922.502-2.9.158-2.133-.656-4.222-1.687-6.093-.405-.735-.913-1.505-1.712-1.754C8.588.318 8.26.31 7.935.302 7.354.29 6.625.155 5.966.155c-.27 0-.527.022-.758.084"/>
        <path id="E" d="M5.208.24c-.882.236-1.444 1.214-1.86 1.944-.962 1.909-1.198 4.088-1.714 6.164C1.18 10.168.506 11.926.07 13.75c-.11.467-.142 1.083.287 1.295.454.225.935-.234 1.228-.648.383-.542.753-1.1.995-1.718.24-.615.346-1.272.497-1.915.311-1.326.815-2.598 1.316-3.864-.078 1.47-.766 2.847-.911 4.312-.078.789.003 1.583.084 2.371l.225 2.18c.043.422.087.845.172 1.26.108.526.284 1.038.52 1.52.094.19.203.383.376.506.222.16.51.179.783.189 1.026.038 2.055.017 3.08-.06.535-.042 1.094-.107 1.54-.407.621-.417.888-1.195 1.032-1.932.366-1.866.204-3.8.5-5.677.154-.97.43-1.922.502-2.9.158-2.133-.656-4.222-1.687-6.093-.405-.735-.913-1.505-1.712-1.754C8.588.318 8.26.31 7.935.302 7.354.29 6.625.155 5.966.155c-.27 0-.527.022-.758.084"/>
        <path id="G" d="M5.208.24c-.882.236-1.444 1.214-1.86 1.944-.962 1.909-1.198 4.088-1.714 6.164C1.18 10.168.506 11.926.07 13.75c-.11.467-.142 1.083.287 1.295.454.225.935-.234 1.228-.648.383-.542.753-1.1.995-1.718.24-.615.346-1.272.497-1.915.311-1.326.815-2.598 1.316-3.864-.078 1.47-.766 2.847-.911 4.312-.078.789.003 1.583.084 2.371l.225 2.18c.043.422.087.845.172 1.26.108.526.284 1.038.52 1.52.094.19.203.383.376.506.222.16.51.179.783.189 1.026.038 2.055.017 3.08-.06.535-.042 1.094-.107 1.54-.407.621-.417.888-1.195 1.032-1.932.366-1.866.204-3.8.5-5.677.154-.97.43-1.922.502-2.9.158-2.133-.656-4.222-1.687-6.093-.405-.735-.913-1.505-1.712-1.754C8.588.318 8.26.31 7.935.302 7.354.29 6.625.155 5.966.155c-.27 0-.527.022-.758.084"/>
        <path id="I" d="M5.208.24c-.882.236-1.444 1.214-1.86 1.944-.962 1.909-1.198 4.088-1.714 6.164C1.18 10.168.506 11.926.07 13.75c-.11.467-.142 1.083.287 1.295.454.225.935-.234 1.228-.648.383-.542.753-1.1.995-1.718.24-.615.346-1.272.497-1.915.311-1.326.815-2.598 1.316-3.864-.078 1.47-.766 2.847-.911 4.312-.078.789.003 1.583.084 2.371l.225 2.18c.043.422.087.845.172 1.26.108.526.284 1.038.52 1.52.094.19.203.383.376.506.222.16.51.179.783.189 1.026.038 2.055.017 3.08-.06.535-.042 1.094-.107 1.54-.407.621-.417.888-1.195 1.032-1.932.366-1.866.204-3.8.5-5.677.154-.97.43-1.922.502-2.9.158-2.133-.656-4.222-1.687-6.093-.405-.735-.913-1.505-1.712-1.754C8.588.318 8.26.31 7.935.302 7.354.29 6.625.155 5.966.155c-.27 0-.527.022-.758.084"/>
        <path id="K" d="M5.208.24c-.882.236-1.444 1.214-1.86 1.944-.962 1.909-1.198 4.088-1.714 6.164C1.18 10.168.506 11.926.07 13.75c-.11.467-.142 1.083.287 1.295.454.225.935-.234 1.228-.648.383-.542.753-1.1.995-1.718.24-.615.346-1.272.497-1.915.311-1.326.815-2.598 1.316-3.864-.078 1.47-.766 2.847-.911 4.312-.078.789.003 1.583.084 2.371l.225 2.18c.043.422.087.845.172 1.26.108.526.284 1.038.52 1.52.094.19.203.383.376.506.222.16.51.179.783.189 1.026.038 2.055.017 3.08-.06.535-.042 1.094-.107 1.54-.407.621-.417.888-1.195 1.032-1.932.366-1.866.204-3.8.5-5.677.154-.97.43-1.922.502-2.9.158-2.133-.656-4.222-1.687-6.093-.405-.735-.913-1.505-1.712-1.754C8.588.318 8.26.31 7.935.302 7.354.29 6.625.155 5.966.155c-.27 0-.527.022-.758.084"/>
        <path id="M" d="M5.208.24c-.882.236-1.444 1.214-1.86 1.944-.962 1.909-1.198 4.088-1.714 6.164C1.18 10.168.506 11.926.07 13.75c-.11.467-.142 1.083.287 1.295.454.225.935-.234 1.228-.648.383-.542.753-1.1.995-1.718.24-.615.346-1.272.497-1.915.311-1.326.815-2.598 1.316-3.864-.078 1.47-.766 2.847-.911 4.312-.078.789.003 1.583.084 2.371l.225 2.18c.043.422.087.845.172 1.26.108.526.284 1.038.52 1.52.094.19.203.383.376.506.222.16.51.179.783.189 1.026.038 2.055.017 3.08-.06.535-.042 1.094-.107 1.54-.407.621-.417.888-1.195 1.032-1.932.366-1.866.204-3.8.5-5.677.154-.97.43-1.922.502-2.9.158-2.133-.656-4.222-1.687-6.093-.405-.735-.913-1.505-1.712-1.754C8.588.318 8.26.31 7.935.302 7.354.29 6.625.155 5.966.155c-.27 0-.527.022-.758.084"/>
        <path id="O" d="M5.208.24c-.882.236-1.444 1.214-1.86 1.944-.962 1.909-1.198 4.088-1.714 6.164C1.18 10.168.506 11.926.07 13.75c-.11.467-.142 1.083.287 1.295.454.225.935-.234 1.228-.648.383-.542.753-1.1.995-1.718.24-.615.346-1.272.497-1.915.311-1.326.815-2.598 1.316-3.864-.078 1.47-.766 2.847-.911 4.312-.078.789.003 1.583.084 2.371l.225 2.18c.043.422.087.845.172 1.26.108.526.284 1.038.52 1.52.094.19.203.383.376.506.222.16.51.179.783.189 1.026.038 2.055.017 3.08-.06.535-.042 1.094-.107 1.54-.407.621-.417.888-1.195 1.032-1.932.366-1.866.204-3.8.5-5.677.154-.97.43-1.922.502-2.9.158-2.133-.656-4.222-1.687-6.093-.405-.735-.913-1.505-1.712-1.754C8.588.318 8.26.31 7.935.302 7.354.29 6.625.155 5.966.155c-.27 0-.527.022-.758.084"/>
        <path id="Q" d="M.964.25C.883.283.776.28.668.28.512.28.354.278.268.37.134.519.125.802.099.997c-.127 1.002.08 2.64.245 3.625a56.36 56.36 0 0 1 .536 4.43c.01.104.03.226.125.272.05.024.11.02.166.013l.288-.029c.044-.004.09-.01.122-.04.037-.036.04-.093.04-.144.037-1.966.813-3.852.966-5.812.077-.983-.003-1.97-.084-2.953-.006-.078-.78-.125-1.23-.125a1.47 1.47 0 0 0-.308.018"/>
        <path id="S" d="M1.163.69C.833.78.153.729.18 1.159c.03.47.367 1.06.534 1.502a44.546 44.546 0 0 0 1.298 3.09c.196.42.4 1.26.566 1.693.07.181.139.373.287.5.148.126.405.149.521-.007.077-.102.07-.242.058-.37-.203-2.337-.41-5.104-.942-7.39.024.105-1.214.481-1.34.515z"/>
        <path id="U" d="M1.32.558c-.367.13-.71.33-.967.62-1.3 1.47 1.861 5.774 3.368 7.773-.027.602-.07 1.203-.158 1.802-.367 2.502-.62 13.139-.987 15.641.372-.034 2.363.064 4.458.163 2.619.122 5.4.245 5.386.109-.35-3.341-.91-14.805-1.356-18.134-.127-.946-.54-3.171-1.322-4.967C8.81 1.428 7.356-.103 5.235 1.851a3.563 3.563 0 0 0-.67.85l-.813-1.52C3.56.817 3.337.43 2.955.274a1.015 1.015 0 0 0-.384-.07c-.429 0-.878.22-1.252.353"/>
        <path id="W" d="M1.32.558c-.367.13-.71.33-.967.62-1.3 1.47 1.861 5.774 3.368 7.773-.027.602-.07 1.203-.158 1.802-.367 2.502-.62 13.139-.987 15.641.372-.034 2.363.064 4.458.163 2.619.122 5.4.245 5.386.109-.35-3.341-.91-14.805-1.356-18.134-.127-.946-.54-3.171-1.322-4.967C8.81 1.428 7.356-.103 5.235 1.851a3.563 3.563 0 0 0-.67.85l-.813-1.52C3.56.817 3.337.43 2.955.274a1.015 1.015 0 0 0-.384-.07c-.429 0-.878.22-1.252.353"/>
        <path id="Y" d="M1.32.558c-.367.13-.71.33-.967.62-1.3 1.47 1.861 5.774 3.368 7.773-.027.602-.07 1.203-.158 1.802-.367 2.502-.62 13.139-.987 15.641.372-.034 2.363.064 4.458.163 2.619.122 5.4.245 5.386.109-.35-3.341-.91-14.805-1.356-18.134-.127-.946-.54-3.171-1.322-4.967C8.81 1.428 7.356-.103 5.235 1.851a3.563 3.563 0 0 0-.67.85l-.813-1.52C3.56.817 3.337.43 2.955.274a1.015 1.015 0 0 0-.384-.07c-.429 0-.878.22-1.252.353"/>
        <path id="aa" d="M1.32.558c-.367.13-.71.33-.967.62-1.3 1.47 1.861 5.774 3.368 7.773-.027.602-.07 1.203-.158 1.802-.367 2.502-.62 13.139-.987 15.641.372-.034 2.363.064 4.458.163 2.619.122 5.4.245 5.386.109-.35-3.341-.91-14.805-1.356-18.134-.127-.946-.54-3.171-1.322-4.967C8.81 1.428 7.356-.103 5.235 1.851a3.563 3.563 0 0 0-.67.85l-.813-1.52C3.56.817 3.337.43 2.955.274a1.015 1.015 0 0 0-.384-.07c-.429 0-.878.22-1.252.353"/>
        <path id="ac" d="M1.32.558c-.367.13-.71.33-.967.62-1.3 1.47 1.861 5.774 3.368 7.773-.027.602-.07 1.203-.158 1.802-.367 2.502-.62 13.139-.987 15.641.372-.034 2.363.064 4.458.163 2.619.122 5.4.245 5.386.109-.35-3.341-.91-14.805-1.356-18.134-.127-.946-.54-3.171-1.322-4.967C8.81 1.428 7.356-.103 5.235 1.851a3.563 3.563 0 0 0-.67.85l-.813-1.52C3.56.817 3.337.43 2.955.274a1.015 1.015 0 0 0-.384-.07c-.429 0-.878.22-1.252.353"/>
        <path id="ae" d="M1.32.558c-.367.13-.71.33-.967.62-1.3 1.47 1.861 5.774 3.368 7.773-.027.602-.07 1.203-.158 1.802-.367 2.502-.62 13.139-.987 15.641.372-.034 2.363.064 4.458.163 2.619.122 5.4.245 5.386.109-.35-3.341-.91-14.805-1.356-18.134-.127-.946-.54-3.171-1.322-4.967C8.81 1.428 7.356-.103 5.235 1.851a3.563 3.563 0 0 0-.67.85l-.813-1.52C3.56.817 3.337.43 2.955.274a1.015 1.015 0 0 0-.384-.07c-.429 0-.878.22-1.252.353"/>
        <path id="ag" d="M1.32.558c-.367.13-.71.33-.967.62-1.3 1.47 1.861 5.774 3.368 7.773-.027.602-.07 1.203-.158 1.802-.367 2.502-.62 13.139-.987 15.641.372-.034 2.363.064 4.458.163 2.619.122 5.4.245 5.386.109-.35-3.341-.91-14.805-1.356-18.134-.127-.946-.54-3.171-1.322-4.967C8.81 1.428 7.356-.103 5.235 1.851a3.563 3.563 0 0 0-.67.85l-.813-1.52C3.56.817 3.337.43 2.955.274a1.015 1.015 0 0 0-.384-.07c-.429 0-.878.22-1.252.353"/>
        <path id="ai" d="M1.32.558c-.367.13-.71.33-.967.62-1.3 1.47 1.861 5.774 3.368 7.773-.027.602-.07 1.203-.158 1.802-.367 2.502-.62 13.139-.987 15.641.372-.034 2.363.064 4.458.163 2.619.122 5.4.245 5.386.109-.35-3.341-.91-14.805-1.356-18.134-.127-.946-.54-3.171-1.322-4.967C8.81 1.428 7.356-.103 5.235 1.851a3.563 3.563 0 0 0-.67.85l-.813-1.52C3.56.817 3.337.43 2.955.274a1.015 1.015 0 0 0-.384-.07c-.429 0-.878.22-1.252.353"/>
        <path id="ak" d="M1.32.558c-.367.13-.71.33-.967.62-1.3 1.47 1.861 5.774 3.368 7.773-.027.602-.07 1.203-.158 1.802-.367 2.502-.62 13.139-.987 15.641.372-.034 2.363.064 4.458.163 2.619.122 5.4.245 5.386.109-.35-3.341-.91-14.805-1.356-18.134-.127-.946-.54-3.171-1.322-4.967C8.81 1.428 7.356-.103 5.235 1.851a3.563 3.563 0 0 0-.67.85l-.813-1.52C3.56.817 3.337.43 2.955.274a1.015 1.015 0 0 0-.384-.07c-.429 0-.878.22-1.252.353"/>
        <path id="am" d="M1.32.558c-.367.13-.71.33-.967.62-1.3 1.47 1.861 5.774 3.368 7.773-.027.602-.07 1.203-.158 1.802-.367 2.502-.62 13.139-.987 15.641.372-.034 2.363.064 4.458.163 2.619.122 5.4.245 5.386.109-.35-3.341-.91-14.805-1.356-18.134-.127-.946-.54-3.171-1.322-4.967C8.81 1.428 7.356-.103 5.235 1.851a3.563 3.563 0 0 0-.67.85l-.813-1.52C3.56.817 3.337.43 2.955.274a1.015 1.015 0 0 0-.384-.07c-.429 0-.878.22-1.252.353"/>
        <path id="ao" d="M1.32.558c-.367.13-.71.33-.967.62-1.3 1.47 1.861 5.774 3.368 7.773-.027.602-.07 1.203-.158 1.802-.367 2.502-.62 13.139-.987 15.641.372-.034 2.363.064 4.458.163 2.619.122 5.4.245 5.386.109-.35-3.341-.91-14.805-1.356-18.134-.127-.946-.54-3.171-1.322-4.967C8.81 1.428 7.356-.103 5.235 1.851a3.563 3.563 0 0 0-.67.85l-.813-1.52C3.56.817 3.337.43 2.955.274a1.015 1.015 0 0 0-.384-.07c-.429 0-.878.22-1.252.353"/>
        <path id="aq" d="M1.32.558c-.367.13-.71.33-.967.62-1.3 1.47 1.861 5.774 3.368 7.773-.027.602-.07 1.203-.158 1.802-.367 2.502-.62 13.139-.987 15.641.372-.034 2.363.064 4.458.163 2.619.122 5.4.245 5.386.109-.35-3.341-.91-14.805-1.356-18.134-.127-.946-.54-3.171-1.322-4.967C8.81 1.428 7.356-.103 5.235 1.851a3.563 3.563 0 0 0-.67.85l-.813-1.52C3.56.817 3.337.43 2.955.274a1.015 1.015 0 0 0-.384-.07c-.429 0-.878.22-1.252.353"/>
        <path id="as" d="M1.32.558c-.367.13-.71.33-.967.62-1.3 1.47 1.861 5.774 3.368 7.773-.027.602-.07 1.203-.158 1.802-.367 2.502-.62 13.139-.987 15.641.372-.034 2.363.064 4.458.163 2.619.122 5.4.245 5.386.109-.35-3.341-.91-14.805-1.356-18.134-.127-.946-.54-3.171-1.322-4.967C8.81 1.428 7.356-.103 5.235 1.851a3.563 3.563 0 0 0-.67.85l-.813-1.52C3.56.817 3.337.43 2.955.274a1.015 1.015 0 0 0-.384-.07c-.429 0-.878.22-1.252.353"/>
        <path id="au" d="M1.32.558c-.367.13-.71.33-.967.62-1.3 1.47 1.861 5.774 3.368 7.773-.027.602-.07 1.203-.158 1.802-.367 2.502-.62 13.139-.987 15.641.372-.034 2.363.064 4.458.163 2.619.122 5.4.245 5.386.109-.35-3.341-.91-14.805-1.356-18.134-.127-.946-.54-3.171-1.322-4.967C8.81 1.428 7.356-.103 5.235 1.851a3.563 3.563 0 0 0-.67.85l-.813-1.52C3.56.817 3.337.43 2.955.274a1.015 1.015 0 0 0-.384-.07c-.429 0-.878.22-1.252.353"/>
        <path id="aw" d="M1.32.558c-.367.13-.71.33-.967.62-1.3 1.47 1.861 5.774 3.368 7.773-.027.602-.07 1.203-.158 1.802-.367 2.502-.62 13.139-.987 15.641.372-.034 2.363.064 4.458.163 2.619.122 5.4.245 5.386.109-.35-3.341-.91-14.805-1.356-18.134-.127-.946-.54-3.171-1.322-4.967C8.81 1.428 7.356-.103 5.235 1.851a3.563 3.563 0 0 0-.67.85l-.813-1.52C3.56.817 3.337.43 2.955.274a1.015 1.015 0 0 0-.384-.07c-.429 0-.878.22-1.252.353"/>
        <path id="ay" d="M1.32.558c-.367.13-.71.33-.967.62-1.3 1.47 1.861 5.774 3.368 7.773-.027.602-.07 1.203-.158 1.802-.367 2.502-.62 13.139-.987 15.641.372-.034 2.363.064 4.458.163 2.619.122 5.4.245 5.386.109-.35-3.341-.91-14.805-1.356-18.134-.127-.946-.54-3.171-1.322-4.967C8.81 1.428 7.356-.103 5.235 1.851a3.563 3.563 0 0 0-.67.85l-.813-1.52C3.56.817 3.337.43 2.955.274a1.015 1.015 0 0 0-.384-.07c-.429 0-.878.22-1.252.353"/>
        <path id="aA" d="M1.32.558c-.367.13-.71.33-.967.62-1.3 1.47 1.861 5.774 3.368 7.773-.027.602-.07 1.203-.158 1.802-.367 2.502-.62 13.139-.987 15.641.372-.034 2.363.064 4.458.163 2.619.122 5.4.245 5.386.109-.35-3.341-.91-14.805-1.356-18.134-.127-.946-.54-3.171-1.322-4.967C8.81 1.428 7.356-.103 5.235 1.851a3.563 3.563 0 0 0-.67.85l-.813-1.52C3.56.817 3.337.43 2.955.274a1.015 1.015 0 0 0-.384-.07c-.429 0-.878.22-1.252.353"/>
        <path id="aC" d="M1.32.558c-.367.13-.71.33-.967.62-1.3 1.47 1.861 5.774 3.368 7.773-.027.602-.07 1.203-.158 1.802-.367 2.502-.62 13.139-.987 15.641.372-.034 2.363.064 4.458.163 2.619.122 5.4.245 5.386.109-.35-3.341-.91-14.805-1.356-18.134-.127-.946-.54-3.171-1.322-4.967C8.81 1.428 7.356-.103 5.235 1.851a3.563 3.563 0 0 0-.67.85l-.813-1.52C3.56.817 3.337.43 2.955.274a1.015 1.015 0 0 0-.384-.07c-.429 0-.878.22-1.252.353"/>
        <path id="aE" d="M1.32.558c-.367.13-.71.33-.967.62-1.3 1.47 1.861 5.774 3.368 7.773-.027.602-.07 1.203-.158 1.802-.367 2.502-.62 13.139-.987 15.641.372-.034 2.363.064 4.458.163 2.619.122 5.4.245 5.386.109-.35-3.341-.91-14.805-1.356-18.134-.127-.946-.54-3.171-1.322-4.967C8.81 1.428 7.356-.103 5.235 1.851a3.563 3.563 0 0 0-.67.85l-.813-1.52C3.56.817 3.337.43 2.955.274a1.015 1.015 0 0 0-.384-.07c-.429 0-.878.22-1.252.353"/>
        <path id="aG" d="M1.32.558c-.367.13-.71.33-.967.62-1.3 1.47 1.861 5.774 3.368 7.773-.027.602-.07 1.203-.158 1.802-.367 2.502-.62 13.139-.987 15.641.372-.034 2.363.064 4.458.163 2.619.122 5.4.245 5.386.109-.35-3.341-.91-14.805-1.356-18.134-.127-.946-.54-3.171-1.322-4.967C8.81 1.428 7.356-.103 5.235 1.851a3.563 3.563 0 0 0-.67.85l-.813-1.52C3.56.817 3.337.43 2.955.274a1.015 1.015 0 0 0-.384-.07c-.429 0-.878.22-1.252.353"/>
        <path id="aI" d="M1.32.558c-.367.13-.71.33-.967.62-1.3 1.47 1.861 5.774 3.368 7.773-.027.602-.07 1.203-.158 1.802-.367 2.502-.62 13.139-.987 15.641.372-.034 2.363.064 4.458.163 2.619.122 5.4.245 5.386.109-.35-3.341-.91-14.805-1.356-18.134-.127-.946-.54-3.171-1.322-4.967C8.81 1.428 7.356-.103 5.235 1.851a3.563 3.563 0 0 0-.67.85l-.813-1.52C3.56.817 3.337.43 2.955.274a1.015 1.015 0 0 0-.384-.07c-.429 0-.878.22-1.252.353"/>
        <path id="aK" d="M1.32.558c-.367.13-.71.33-.967.62-1.3 1.47 1.861 5.774 3.368 7.773-.027.602-.07 1.203-.158 1.802-.367 2.502-.62 13.139-.987 15.641.372-.034 2.363.064 4.458.163 2.619.122 5.4.245 5.386.109-.35-3.341-.91-14.805-1.356-18.134-.127-.946-.54-3.171-1.322-4.967C8.81 1.428 7.356-.103 5.235 1.851a3.563 3.563 0 0 0-.67.85l-.813-1.52C3.56.817 3.337.43 2.955.274a1.015 1.015 0 0 0-.384-.07c-.429 0-.878.22-1.252.353"/>
        <path id="aM" d="M1.32.558c-.367.13-.71.33-.967.62-1.3 1.47 1.861 5.774 3.368 7.773-.027.602-.07 1.203-.158 1.802-.367 2.502-.62 13.139-.987 15.641.372-.034 2.363.064 4.458.163 2.619.122 5.4.245 5.386.109-.35-3.341-.91-14.805-1.356-18.134-.127-.946-.54-3.171-1.322-4.967C8.81 1.428 7.356-.103 5.235 1.851a3.563 3.563 0 0 0-.67.85l-.813-1.52C3.56.817 3.337.43 2.955.274a1.015 1.015 0 0 0-.384-.07c-.429 0-.878.22-1.252.353"/>
        <path id="aO" d="M1.32.558c-.367.13-.71.33-.967.62-1.3 1.47 1.861 5.774 3.368 7.773-.027.602-.07 1.203-.158 1.802-.367 2.502-.62 13.139-.987 15.641.372-.034 2.363.064 4.458.163 2.619.122 5.4.245 5.386.109-.35-3.341-.91-14.805-1.356-18.134-.127-.946-.54-3.171-1.322-4.967C8.81 1.428 7.356-.103 5.235 1.851a3.563 3.563 0 0 0-.67.85l-.813-1.52C3.56.817 3.337.43 2.955.274a1.015 1.015 0 0 0-.384-.07c-.429 0-.878.22-1.252.353"/>
        <path id="aQ" d="M1.32.558c-.367.13-.71.33-.967.62-1.3 1.47 1.861 5.774 3.368 7.773-.027.602-.07 1.203-.158 1.802-.367 2.502-.62 13.139-.987 15.641.372-.034 2.363.064 4.458.163 2.619.122 5.4.245 5.386.109-.35-3.341-.91-14.805-1.356-18.134-.127-.946-.54-3.171-1.322-4.967C8.81 1.428 7.356-.103 5.235 1.851a3.563 3.563 0 0 0-.67.85l-.813-1.52C3.56.817 3.337.43 2.955.274a1.015 1.015 0 0 0-.384-.07c-.429 0-.878.22-1.252.353"/>
        <path id="aS" d="M1.32.558c-.367.13-.71.33-.967.62-1.3 1.47 1.861 5.774 3.368 7.773-.027.602-.07 1.203-.158 1.802-.367 2.502-.62 13.139-.987 15.641.372-.034 2.363.064 4.458.163 2.619.122 5.4.245 5.386.109-.35-3.341-.91-14.805-1.356-18.134-.127-.946-.54-3.171-1.322-4.967C8.81 1.428 7.356-.103 5.235 1.851a3.563 3.563 0 0 0-.67.85l-.813-1.52C3.56.817 3.337.43 2.955.274a1.015 1.015 0 0 0-.384-.07c-.429 0-.878.22-1.252.353"/>
        <path id="aU" d="M1.32.558c-.367.13-.71.33-.967.62-1.3 1.47 1.861 5.774 3.368 7.773-.027.602-.07 1.203-.158 1.802-.367 2.502-.62 13.139-.987 15.641.372-.034 2.363.064 4.458.163 2.619.122 5.4.245 5.386.109-.35-3.341-.91-14.805-1.356-18.134-.127-.946-.54-3.171-1.322-4.967C8.81 1.428 7.356-.103 5.235 1.851a3.563 3.563 0 0 0-.67.85l-.813-1.52C3.56.817 3.337.43 2.955.274a1.015 1.015 0 0 0-.384-.07c-.429 0-.878.22-1.252.353"/>
        <path id="aW" d="M1.32.558c-.367.13-.71.33-.967.62-1.3 1.47 1.861 5.774 3.368 7.773-.027.602-.07 1.203-.158 1.802-.367 2.502-.62 13.139-.987 15.641.372-.034 2.363.064 4.458.163 2.619.122 5.4.245 5.386.109-.35-3.341-.91-14.805-1.356-18.134-.127-.946-.54-3.171-1.322-4.967C8.81 1.428 7.356-.103 5.235 1.851a3.563 3.563 0 0 0-.67.85l-.813-1.52C3.56.817 3.337.43 2.955.274a1.015 1.015 0 0 0-.384-.07c-.429 0-.878.22-1.252.353"/>
        <path id="aY" d="M1.32.558c-.367.13-.71.33-.967.62-1.3 1.47 1.861 5.774 3.368 7.773-.027.602-.07 1.203-.158 1.802-.367 2.502-.62 13.139-.987 15.641.372-.034 2.363.064 4.458.163 2.619.122 5.4.245 5.386.109-.35-3.341-.91-14.805-1.356-18.134-.127-.946-.54-3.171-1.322-4.967C8.81 1.428 7.356-.103 5.235 1.851a3.563 3.563 0 0 0-.67.85l-.813-1.52C3.56.817 3.337.43 2.955.274a1.015 1.015 0 0 0-.384-.07c-.429 0-.878.22-1.252.353"/>
        <path id="ba" d="M1.32.558c-.367.13-.71.33-.967.62-1.3 1.47 1.861 5.774 3.368 7.773-.027.602-.07 1.203-.158 1.802-.367 2.502-.62 13.139-.987 15.641.372-.034 2.363.064 4.458.163 2.619.122 5.4.245 5.386.109-.35-3.341-.91-14.805-1.356-18.134-.127-.946-.54-3.171-1.322-4.967C8.81 1.428 7.356-.103 5.235 1.851a3.563 3.563 0 0 0-.67.85l-.813-1.52C3.56.817 3.337.43 2.955.274a1.015 1.015 0 0 0-.384-.07c-.429 0-.878.22-1.252.353"/>
        <path id="bc" d="M1.32.558c-.367.13-.71.33-.967.62-1.3 1.47 1.861 5.774 3.368 7.773-.027.602-.07 1.203-.158 1.802-.367 2.502-.62 13.139-.987 15.641.372-.034 2.363.064 4.458.163 2.619.122 5.4.245 5.386.109-.35-3.341-.91-14.805-1.356-18.134-.127-.946-.54-3.171-1.322-4.967C8.81 1.428 7.356-.103 5.235 1.851a3.563 3.563 0 0 0-.67.85l-.813-1.52C3.56.817 3.337.43 2.955.274a1.015 1.015 0 0 0-.384-.07c-.429 0-.878.22-1.252.353"/>
        <path id="be" d="M1.32.558c-.367.13-.71.33-.967.62-1.3 1.47 1.861 5.774 3.368 7.773-.027.602-.07 1.203-.158 1.802-.367 2.502-.62 13.139-.987 15.641.372-.034 2.363.064 4.458.163 2.619.122 5.4.245 5.386.109-.35-3.341-.91-14.805-1.356-18.134-.127-.946-.54-3.171-1.322-4.967C8.81 1.428 7.356-.103 5.235 1.851a3.563 3.563 0 0 0-.67.85l-.813-1.52C3.56.817 3.337.43 2.955.274a1.015 1.015 0 0 0-.384-.07c-.429 0-.878.22-1.252.353"/>
        <path id="bg" d="M1.32.558c-.367.13-.71.33-.967.62-1.3 1.47 1.861 5.774 3.368 7.773-.027.602-.07 1.203-.158 1.802-.367 2.502-.62 13.139-.987 15.641.372-.034 2.363.064 4.458.163 2.619.122 5.4.245 5.386.109-.35-3.341-.91-14.805-1.356-18.134-.127-.946-.54-3.171-1.322-4.967C8.81 1.428 7.356-.103 5.235 1.851a3.563 3.563 0 0 0-.67.85l-.813-1.52C3.56.817 3.337.43 2.955.274a1.015 1.015 0 0 0-.384-.07c-.429 0-.878.22-1.252.353"/>
        <path id="bi" d="M1.32.558c-.367.13-.71.33-.967.62-1.3 1.47 1.861 5.774 3.368 7.773-.027.602-.07 1.203-.158 1.802-.367 2.502-.62 13.139-.987 15.641.372-.034 2.363.064 4.458.163 2.619.122 5.4.245 5.386.109-.35-3.341-.91-14.805-1.356-18.134-.127-.946-.54-3.171-1.322-4.967C8.81 1.428 7.356-.103 5.235 1.851a3.563 3.563 0 0 0-.67.85l-.813-1.52C3.56.817 3.337.43 2.955.274a1.015 1.015 0 0 0-.384-.07c-.429 0-.878.22-1.252.353"/>
        <path id="bk" d="M1.32.558c-.367.13-.71.33-.967.62-1.3 1.47 1.861 5.774 3.368 7.773-.027.602-.07 1.203-.158 1.802-.367 2.502-.62 13.139-.987 15.641.372-.034 2.363.064 4.458.163 2.619.122 5.4.245 5.386.109-.35-3.341-.91-14.805-1.356-18.134-.127-.946-.54-3.171-1.322-4.967C8.81 1.428 7.356-.103 5.235 1.851a3.563 3.563 0 0 0-.67.85l-.813-1.52C3.56.817 3.337.43 2.955.274a1.015 1.015 0 0 0-.384-.07c-.429 0-.878.22-1.252.353"/>
        <path id="bm" d="M1.32.558c-.367.13-.71.33-.967.62-1.3 1.47 1.861 5.774 3.368 7.773-.027.602-.07 1.203-.158 1.802-.367 2.502-.62 13.139-.987 15.641.372-.034 2.363.064 4.458.163 2.619.122 5.4.245 5.386.109-.35-3.341-.91-14.805-1.356-18.134-.127-.946-.54-3.171-1.322-4.967C8.81 1.428 7.356-.103 5.235 1.851a3.563 3.563 0 0 0-.67.85l-.813-1.52C3.56.817 3.337.43 2.955.274a1.015 1.015 0 0 0-.384-.07c-.429 0-.878.22-1.252.353"/>
        <path id="bo" d="M1.32.558c-.367.13-.71.33-.967.62-1.3 1.47 1.861 5.774 3.368 7.773-.027.602-.07 1.203-.158 1.802-.367 2.502-.62 13.139-.987 15.641.372-.034 2.363.064 4.458.163 2.619.122 5.4.245 5.386.109-.35-3.341-.91-14.805-1.356-18.134-.127-.946-.54-3.171-1.322-4.967C8.81 1.428 7.356-.103 5.235 1.851a3.563 3.563 0 0 0-.67.85l-.813-1.52C3.56.817 3.337.43 2.955.274a1.015 1.015 0 0 0-.384-.07c-.429 0-.878.22-1.252.353"/>
        <path id="bq" d="M1.32.558c-.367.13-.71.33-.967.62-1.3 1.47 1.861 5.774 3.368 7.773-.027.602-.07 1.203-.158 1.802-.367 2.502-.62 13.139-.987 15.641.372-.034 2.363.064 4.458.163 2.619.122 5.4.245 5.386.109-.35-3.341-.91-14.805-1.356-18.134-.127-.946-.54-3.171-1.322-4.967C8.81 1.428 7.356-.103 5.235 1.851a3.563 3.563 0 0 0-.67.85l-.813-1.52C3.56.817 3.337.43 2.955.274a1.015 1.015 0 0 0-.384-.07c-.429 0-.878.22-1.252.353"/>
        <path id="bs" d="M1.32.558c-.367.13-.71.33-.967.62-1.3 1.47 1.861 5.774 3.368 7.773-.027.602-.07 1.203-.158 1.802-.367 2.502-.62 13.139-.987 15.641.372-.034 2.363.064 4.458.163 2.619.122 5.4.245 5.386.109-.35-3.341-.91-14.805-1.356-18.134-.127-.946-.54-3.171-1.322-4.967C8.81 1.428 7.356-.103 5.235 1.851a3.563 3.563 0 0 0-.67.85l-.813-1.52C3.56.817 3.337.43 2.955.274a1.015 1.015 0 0 0-.384-.07c-.429 0-.878.22-1.252.353"/>
        <path id="bu" d="M1.32.558c-.367.13-.71.33-.967.62-1.3 1.47 1.861 5.774 3.368 7.773-.027.602-.07 1.203-.158 1.802-.367 2.502-.62 13.139-.987 15.641.372-.034 2.363.064 4.458.163 2.619.122 5.4.245 5.386.109-.35-3.341-.91-14.805-1.356-18.134-.127-.946-.54-3.171-1.322-4.967C8.81 1.428 7.356-.103 5.235 1.851a3.563 3.563 0 0 0-.67.85l-.813-1.52C3.56.817 3.337.43 2.955.274a1.015 1.015 0 0 0-.384-.07c-.429 0-.878.22-1.252.353"/>
        <path id="bw" d="M1.32.558c-.367.13-.71.33-.967.62-1.3 1.47 1.861 5.774 3.368 7.773-.027.602-.07 1.203-.158 1.802-.367 2.502-.62 13.139-.987 15.641.372-.034 2.363.064 4.458.163 2.619.122 5.4.245 5.386.109-.35-3.341-.91-14.805-1.356-18.134-.127-.946-.54-3.171-1.322-4.967C8.81 1.428 7.356-.103 5.235 1.851a3.563 3.563 0 0 0-.67.85l-.813-1.52C3.56.817 3.337.43 2.955.274a1.015 1.015 0 0 0-.384-.07c-.429 0-.878.22-1.252.353"/>
        <path id="by" d="M1.32.558c-.367.13-.71.33-.967.62-1.3 1.47 1.861 5.774 3.368 7.773-.027.602-.07 1.203-.158 1.802-.367 2.502-.62 13.139-.987 15.641.372-.034 2.363.064 4.458.163 2.619.122 5.4.245 5.386.109-.35-3.341-.91-14.805-1.356-18.134-.127-.946-.54-3.171-1.322-4.967C8.81 1.428 7.356-.103 5.235 1.851a3.563 3.563 0 0 0-.67.85l-.813-1.52C3.56.817 3.337.43 2.955.274a1.015 1.015 0 0 0-.384-.07c-.429 0-.878.22-1.252.353"/>
        <path id="bA" d="M1.32.558c-.367.13-.71.33-.967.62-1.3 1.47 1.861 5.774 3.368 7.773-.027.602-.07 1.203-.158 1.802-.367 2.502-.62 13.139-.987 15.641.372-.034 2.363.064 4.458.163 2.619.122 5.4.245 5.386.109-.35-3.341-.91-14.805-1.356-18.134-.127-.946-.54-3.171-1.322-4.967C8.81 1.428 7.356-.103 5.235 1.851a3.563 3.563 0 0 0-.67.85l-.813-1.52C3.56.817 3.337.43 2.955.274a1.015 1.015 0 0 0-.384-.07c-.429 0-.878.22-1.252.353"/>
        <path id="bC" d="M.179.245c-.08.982-.161 1.97-.084 2.952.154 1.961.929 3.846.966 5.812 0 .051.003.108.04.144.031.03.078.036.123.04l.288.03c.055.006.115.01.166-.014.094-.045.115-.168.124-.272.129-1.482.29-2.962.536-4.43.165-.984.372-2.623.244-3.624-.025-.196-.034-.479-.17-.626-.085-.092-.243-.091-.399-.09a.87.87 0 0 1-.296-.03A1.49 1.49 0 0 0 1.41.12C.96.12.185.167.179.245"/>
        <path id="bE" d="M.222 7.453c-.01.127-.019.267.058.37.117.155.373.132.522.006.148-.126.217-.318.287-.5.166-.433.37-1.273.566-1.694a43.556 43.556 0 0 0 1.298-3.088c.166-.443.503-1.032.534-1.503.027-.43-.653-.379-.982-.467C2.379.543 1.14.167 1.165.063.633 2.348.425 5.116.222 7.453"/>
        <path id="bG" d="M0 .03h2.627v7.892H0z"/>
    </defs>
    <g fill="none" fill-rule="evenodd">
        <path fill="#A9ADB5" d="M39.44 29.436c.193.09.243.339.27.551a.346.346 0 0 1-.01.178c-.033.078-.115.12-.191.155a9.77 9.77 0 0 1-1.337.493.34.34 0 0 1-.161.019.35.35 0 0 1-.15-.09c-.434-.376-.825-.896-.155-1.239.454-.232 1.266-.286 1.733-.067M41.612 29.737c.347.044.724.238.789.582.008.045.01.091-.002.135a.315.315 0 0 1-.079.122c-.267.284-.688.343-1.076.378-.107.01-.215.018-.32.004a.758.758 0 0 1-.605-.505c-.306-.937.744-.785 1.293-.716"/>
        <path fill="#BF9D95" d="M51.333 28.177c.175.067.262.285.22.468-.042.183-.188.329-.354.416-.166.087-.353.124-.537.16-.094.02-.188.037-.282.056-.528.104-.728-.492-.348-.819.227-.196 1.037-.38 1.301-.28M46.73 29.165l.922-.195c.032-.007.067-.013.096.001a.13.13 0 0 1 .046.043c.108.15.118.365.025.525a.904.904 0 0 1-.285.27c-.173.12-.358.235-.566.27-.207.034-.444-.03-.56-.205-.117-.177-.052-.464.15-.526.068-.021.145-.017.203-.058"/>
        <path fill="#071E1C" d="M46.372 29.4c.006.066.015.14.064.184.07.065.182.037.272.006l.282-.097c.067-.023.138-.048.181-.104.06-.078.05-.186.043-.283-.033-.525.155-1.036.23-1.557.082-.565.031-1.14-.02-1.71-.325-.006-.812.013-1.099.193-.3.187-.207.459-.178.784l.225 2.584M49.946 28.76c.207-.054.408-.134.596-.237a.463.463 0 0 0 .15-.112c.106-.137.05-.334-.006-.498-.31-.916-.408-1.83-.49-2.785-.569.058-.893.435-.798.998.15.882.403 1.747.548 2.633"/>
        <path fill="#516660" d="M40.26 30.148c.376.12.802-.038 1.078-.321.276-.284.421-.672.495-1.061.123-.654.065-1.327-.005-1.99-.1-.952-.222-1.901-.366-2.848-.016-.109-.045-.234-.144-.281-.059-.028-.127-.02-.191-.01-.392.057-1.39.036-1.398.532-.005.25.238.625.31.87.097.33.168.666.22 1.005.21 1.357.108 2.742.001 4.104M38.542 29.155c-.07.193-.153.39-.301.532-.164.156-.393.228-.618.25-.103.01-.215.009-.298-.054-.09-.07-.118-.193-.14-.306-.276-1.44-.552-2.888-.59-4.354-.008-.334-.002-.677.113-.99a.481.481 0 0 1 .158-.238c.083-.058.19-.067.29-.075.466-.035 1.162-.279 1.433.167.265.436.315 1.182.365 1.68a7.589 7.589 0 0 1-.412 3.388"/>
        <path fill="#856F60" d="M38.473 1.493c.08-.122.212-.22.357-.22.159 0 .3.117.37.26.072.142.087.306.092.465a4.837 4.837 0 0 1-.78 2.78 1.784 1.784 0 0 1-.43.486 1.8 1.8 0 0 1-.594.256c-.358.096-.732.155-1.097.1-.366-.054-.725-.233-.938-.536a.25.25 0 0 1-.05-.108c-.017-.128.13-.208.249-.254.8-.313 1.42-.828 2-1.448.176-.19.355-.348.455-.593.152-.376.142-.845.366-1.188"/>
        <g transform="translate(33.895 .127)">
            <mask id="b" fill="#fff">
                <use xlink:href="#a"/>
            </mask>
            <path fill="#E1846A" d="M4.04.65C3.598.438 3.104.367 2.623.27 1.942.13 1.242-.067.568.096a.424.424 0 0 0-.17.071.446.446 0 0 0-.122.202C.044 1 .02 1.696.153 2.354c.134.657.42 1.278.787 1.839.204.31.46.624.819.715.3.076.62-.02.895-.164.276-.142.526-.33.809-.46.192-.087.4-.147.571-.273.211-.156.342-.395.467-.627.257-.477.482-.84.472-1.388C4.96 1.356 4.588.937 4.04.65" mask="url(#b)"/>
        </g>
        <path fill="#E0A16C" d="M43.016 7.245c-1.143 2.434-.628 5.286-.91 7.962-.06.573-.154 1.178.077 1.706.231.528.944.886 1.397.53a19.482 19.482 0 0 0-.064 7.672c.076.394.184.817.498 1.065.336.266.807.25 1.234.216a39.917 39.917 0 0 0 3.668-.467c.61-.107 1.268-.257 1.658-.74.234-.29.337-.661.43-1.022.57-2.2 1.002-4.438 1.293-6.693-.11.568.652 1.075 1.13.752.388-.262.437-.808.44-1.278a42.75 42.75 0 0 0-.704-7.903c-.263-1.432-.712-3.01-1.971-3.73-1.395-.8-3.092-.228-4.584-.138-1.632.1-2.83.444-3.592 2.068"/>
        <path fill="#071E1C" d="M44.721 4.073c-.046.893.087 1.815.524 2.594.848-.164 1.71-.253 2.573-.266.125-.002.252-.002.373-.035a1.45 1.45 0 0 0 .366-.176c.58-.35 1.197-.744 1.443-1.377.527-1.354.034-4.388-1.725-4.547-2.118-.19-3.457 1.954-3.554 3.807"/>
        <path fill="#CAD6E3" d="M34.348 7.154c-.962 1.91-1.198 4.09-1.714 6.165-.453 1.82-1.128 3.578-1.563 5.402-.11.466-.142 1.083.287 1.295.454.225.936-.235 1.228-.649.383-.541.753-1.1.994-1.717.24-.615.347-1.272.498-1.915.311-1.326.815-2.598 1.316-3.864-.078 1.47-.766 2.847-.911 4.312-.078.788.003 1.583.084 2.371l.225 2.18c.043.422.087.845.172 1.26.108.526.284 1.038.52 1.52.094.19.203.382.376.506.222.159.51.178.783.189a27.38 27.38 0 0 0 3.08-.061c.535-.041 1.094-.106 1.54-.406.621-.418.888-1.196 1.032-1.932.365-1.866.204-3.8.5-5.678.154-.97.43-1.921.502-2.9.158-2.132-.656-4.221-1.687-6.092-.405-.735-.913-1.505-1.712-1.754-.31-.097-.639-.105-.963-.113-.819-.02-1.93-.277-2.728-.063-.881.237-1.442 1.214-1.86 1.944"/>
        <g>
            <g transform="translate(31 4.97)">
                <mask id="d" fill="#fff">
                    <use xlink:href="#c"/>
                </mask>
                <path fill="#909CA9" d="M5.323 4.788c-.816-.739-1.93-.49-2.926-.384-.309.033-.208.507.098.474.782-.083 1.819-.354 2.47.235.228.207.59-.115.358-.325" mask="url(#d)"/>
            </g>
            <g transform="translate(31 4.97)">
                <mask id="f" fill="#fff">
                    <use xlink:href="#e"/>
                </mask>
                <path fill="#909CA9" d="M5.589 4.297c-.153-1.158-1.903-.881-2.513-1.596-.202-.237-.56.087-.358.325.286.335.67.493 1.084.615.399.118 1.246.231 1.315.755.04.31.513.209.472-.099" mask="url(#f)"/>
            </g>
            <g transform="translate(31 4.97)">
                <mask id="h" fill="#fff">
                    <use xlink:href="#g"/>
                </mask>
                <path fill="#909CA9" d="M4.68 6.08a3.386 3.386 0 0 0-1.24-.434c-.556-.075-1.077.1-1.629.082-.31-.01-.34.473-.03.483.442.015.869-.115 1.31-.106.473.01.915.146 1.324.38.27.153.535-.251.264-.406" mask="url(#h)"/>
            </g>
            <g transform="translate(31 4.97)">
                <mask id="j" fill="#fff">
                    <use xlink:href="#i"/>
                </mask>
                <path fill="#909CA9" d="M4.202 7.816c-.543-1.059-1.701-.864-2.71-.851-.309.004-.34.488-.03.484.78-.01 1.881-.249 2.31.588.143.277.573.057.43-.221" mask="url(#j)"/>
            </g>
            <g transform="translate(31 4.97)">
                <mask id="l" fill="#fff">
                    <use xlink:href="#k"/>
                </mask>
                <path fill="#909CA9" d="M3.884 8.855c-.469-1.038-1.696-.683-2.576-.672-.31.004-.341.487-.03.484.665-.01 1.815-.392 2.176.41.129.283.558.062.43-.222" mask="url(#l)"/>
            </g>
            <g transform="translate(31 4.97)">
                <mask id="n" fill="#fff">
                    <use xlink:href="#m"/>
                </mask>
                <path fill="#909CA9" d="M3.304 10.524c-.599-.459-1.201-1.233-2.054-.932-.29.102-.194.578.098.475.69-.244 1.21.493 1.692.862.247.19.51-.217.264-.405" mask="url(#n)"/>
            </g>
            <g transform="translate(31 4.97)">
                <mask id="p" fill="#fff">
                    <use xlink:href="#o"/>
                </mask>
                <path fill="#909CA9" d="M2.765 12.098a2.233 2.233 0 0 0-1.873-1.267c-.31-.02-.34.463-.03.484a1.745 1.745 0 0 1 1.474 1.005c.133.281.563.06.429-.222" mask="url(#p)"/>
            </g>
            <g transform="translate(31 4.97)">
                <mask id="r" fill="#fff">
                    <use xlink:href="#q"/>
                </mask>
                <path fill="#909CA9" d="M2.375 13.112c-.585-.36-1.18-.824-1.839-1.036-.296-.095-.45.364-.153.46.615.197 1.18.645 1.728.982.265.162.53-.243.264-.406" mask="url(#r)"/>
            </g>
            <g transform="translate(31 4.97)">
                <mask id="t" fill="#fff">
                    <use xlink:href="#s"/>
                </mask>
                <path fill="#909CA9" d="M10.68 2.182c-.558.166-.991.168-1.558.096-.387-.05-.722.002-1.037.243-.247.189.078.547.324.36.379-.291.865-.049 1.284-.034.373.014.732-.085 1.086-.19.296-.088.2-.563-.099-.475" mask="url(#t)"/>
            </g>
            <g transform="translate(31 4.97)">
                <mask id="v" fill="#fff">
                    <use xlink:href="#u"/>
                </mask>
                <path fill="#909CA9" d="M8.238 4.141c.647-.118 1.227-.287 1.87-.115.467.125.84.033 1.288-.127.291-.104.069-.534-.22-.431-.22.094-.449.145-.687.153A2.959 2.959 0 0 1 10 3.469a1.931 1.931 0 0 0-.452-.04c-.467.013-.95.154-1.408.238-.306.056-.207.53.098.474" mask="url(#v)"/>
            </g>
            <g transform="translate(31 4.97)">
                <mask id="x" fill="#fff">
                    <use xlink:href="#w"/>
                </mask>
                <path fill="#909CA9" d="M8.738 5.737c.966-.63 2.178-.077 3.23-.443.29-.1.195-.576-.098-.474-1.103.384-2.32-.188-3.352.486-.258.168-.04.601.22.431" mask="url(#x)"/>
            </g>
            <g transform="translate(31 4.97)">
                <mask id="z" fill="#fff">
                    <use xlink:href="#y"/>
                </mask>
                <path fill="#909CA9" d="M9.571 7.39c.887.017 1.767-.033 2.646-.15.308-.041.208-.515-.098-.474-.837.11-1.674.157-2.517.14-.31-.007-.342.477-.03.483" mask="url(#z)"/>
            </g>
            <g transform="translate(31 4.97)">
                <mask id="B" fill="#fff">
                    <use xlink:href="#A"/>
                </mask>
                <path fill="#909CA9" d="M12.542 9.29c-1.402-.278-2.451-1.458-3.92-1.509-.31-.01-.34.473-.03.484 1.406.048 2.442 1.216 3.797 1.484.301.06.457-.4.153-.46" mask="url(#B)"/>
            </g>
            <g transform="translate(31 4.97)">
                <mask id="D" fill="#fff">
                    <use xlink:href="#C"/>
                </mask>
                <path fill="#909CA9" d="M6.903 8.568c-1.028-.06-1.928.487-2.94.537-.307.015-.34.499-.03.483 1.005-.05 1.928-.596 2.94-.536.31.018.34-.466.03-.484" mask="url(#D)"/>
            </g>
            <g transform="translate(31 4.97)">
                <mask id="F" fill="#fff">
                    <use xlink:href="#E"/>
                </mask>
                <path fill="#909CA9" d="M3.692 10.53c1.336-.516 3.046-.248 4.461-.274 1.355-.025 2.66.326 3.954.686.3.083.453-.376.154-.46-1.445-.401-2.872-.758-4.382-.699-1.467.058-3.007-.225-4.408.317-.289.112-.067.542.221.43" mask="url(#F)"/>
            </g>
            <g transform="translate(31 4.97)">
                <mask id="H" fill="#fff">
                    <use xlink:href="#G"/>
                </mask>
                <path fill="#909CA9" d="M3.134 11.993c1.582.65 3.066.446 4.722.55 1.576.1 3.084.81 4.665.348.296-.087.2-.562-.098-.474-1.529.447-3.01-.262-4.536-.358-1.615-.101-3.05.111-4.6-.525-.288-.119-.439.341-.153.459" mask="url(#H)"/>
            </g>
            <g transform="translate(31 4.97)">
                <mask id="J" fill="#fff">
                    <use xlink:href="#I"/>
                </mask>
                <path fill="#909CA9" d="M12.262 14.075l-5.08-.009c-1.384-.001-3.082-.283-4.372.317-.282.131-.061.562.22.43.79-.366 1.685-.267 2.533-.265l2.223.003 4.445.007c.31 0 .342-.483.03-.483" mask="url(#J)"/>
            </g>
            <g transform="translate(31 4.97)">
                <mask id="L" fill="#fff">
                    <use xlink:href="#K"/>
                </mask>
                <path fill="#909CA9" d="M3.36 16.736a16.641 16.641 0 0 1 4.722-.084c1.33.16 2.621.234 3.894-.262.289-.112.067-.543-.22-.43-1.477.575-3.001.264-4.52.102-1.35-.143-2.638-.01-3.974.2-.307.048-.207.522.099.474" mask="url(#L)"/>
            </g>
            <g transform="translate(31 4.97)">
                <mask id="N" fill="#fff">
                    <use xlink:href="#M"/>
                </mask>
                <path fill="#909CA9" d="M12.04 18.331l-4.89-.029c-1.444-.008-2.862-.011-4.229.516-.289.111-.067.542.221.431 1.465-.565 3.048-.469 4.589-.46l4.279.026c.31.002.341-.482.03-.484" mask="url(#N)"/>
            </g>
            <g transform="translate(31 4.97)">
                <mask id="P" fill="#fff">
                    <use xlink:href="#O"/>
                </mask>
                <path fill="#909CA9" d="M8.21-.232c-.265.25-.433.566-.684.825-.632.654-1.215.446-1.95.106C4.85.363 4.051.322 3.264.362c-.307.016-.34.5-.03.484.64-.033 1.293-.024 1.905.193.485.173.863.54 1.398.537C7.554 1.571 7.894.727 8.534.128c.227-.213-.096-.573-.323-.36" mask="url(#P)"/>
            </g>
        </g>
        <path fill="#156B52" d="M38.658 7.933c-.059.097-.122.198-.22.253-.173.096-.388.022-.566-.063a5.601 5.601 0 0 1-1.964-1.56c-.187-.234-.49-.511-.734-.339-.124.088-.158.264-.121.412.037.147.13.272.222.394l.544.718c.148.196.299.396.376.63.142.427.02.89-.075 1.33-.317 1.481-.257 3.15.658 4.356.18.238.4.46.679.569.237.093.498.098.752.099.512.002 1.04-.007 1.507-.215.704-.313 1.159-1.04 1.33-1.794.17-.755.095-1.54-.003-2.308-.037-.288-.079-.58-.194-.847-.228-.53-.716-.895-1.048-1.366a.436.436 0 0 1-.088-.186c-.03-.22.197-.494.265-.698.077-.228.125-.47.126-.712.001-.19-.03-.9-.237-1.004-.225-.114-.306.6-.382.79-.218.542-.523 1.044-.827 1.54"/>
        <g>
            <path fill="#353535" d="M69.156 277.917c-.218.082-.819.569-.601.792.675.689 1.603 1.343 2.583 1.482.27.038.584.01.749-.207.174-.23.098-.555.013-.83-.205-.669-.396-.746-1.065-.972-.44-.148-1.208-.432-1.68-.265M63.638 279c-.229.04-.91.407-.738.666.534.802 1.324 1.195 2.26 1.513.258.088.574.117.775-.064.215-.194.2-.528.168-.815-.076-.694-.25-.805-.865-1.15-.404-.227-1.105-.227-1.6-.15"/>
            <path fill="#F5D2B1" d="M64.453 275.19c.245 1.468.407 2.949.536 4.43.009.105.03.227.124.273.05.024.11.02.166.013l.288-.029c.044-.004.092-.01.123-.04.036-.036.04-.093.04-.144.037-1.966.812-3.852.966-5.812.077-.983-.004-1.97-.084-2.953-.008-.105-1.416.267-1.539.314-.196.075-.55.173-.695.33-.136.147-.145.43-.17.626-.127 1.001.08 2.008.245 2.993M69.821 276.81c.196.42.4 1.26.566 1.693.07.182.139.374.287.5.148.126.405.15.521-.006.077-.103.07-.243.059-.37-.203-2.337-.623-10.08-1.155-12.366.024.104-1.214 4.404-1.34 4.437-.33.088-1.01.038-.982.468.03.47.58 2.112.746 2.555a43.997 43.997 0 0 0 1.298 3.088"/>
            <g transform="translate(64.11 270.57)">
                <mask id="R" fill="#fff">
                    <use xlink:href="#Q"/>
                </mask>
                <path fill="#EAEAEF" d="M2.603 6.735c-.024.187.28.207.405.349a.45.45 0 0 1 .085.194c.325 1.267.407 2.595.241 3.892-.132 1.03-.443 2.082-1.154 2.843-.223.24-.491.45-.808.534-.317.084-.687.021-.91-.218-.114-.124-.181-.282-.246-.436-.269-.647-.527-1.31-.588-2.007-.048-.547.028-1.097.048-1.646.018-.516-.012-1.031-.019-1.547-.005-.427-.067-1.009.095-1.415.16-.406.737-.326 1.106-.364l1.745-.179" mask="url(#R)"/>
            </g>
            <g transform="translate(67.808 271.06)">
                <mask id="T" fill="#fff">
                    <use xlink:href="#S"/>
                </mask>
                <path fill="#EAEAEF" d="M3.287 5.75c.065-.02.134-.038.198-.017.06.02.103.072.141.123.334.451.53.988.688 1.525.203.69.35 1.397.438 2.11.058.472.09 1.383-.062 1.835-.158.472-.502.437-.86.786-.172.169-.374.342-.616.347-.21.004-.399-.12-.555-.259-1.201-1.071-.533-.116-1.288-2.593-.153-.502-.32-1-.5-1.493C.753 7.789.302 7.079.442 6.74c.144-.343.907-.416 1.216-.508l1.629-.483z" mask="url(#T)"/>
            </g>
            <path fill="#F5D2B1" d="M65.054 246.486c.74.782 1.614 1.53 1.736 2.622.033.292.067 1.01-.148 1.237-.256.273-.801.089-1.03-.117-.308-.279-.448-.691-.595-1.079-.3-.783-.68-1.536-1.134-2.243-.255-.35-.406-.834-.61-1.22-.236-.446.343-.665.685-.48.203.108.327.316.455.507.18.27.404.523.64.773M59.586 244.966c-.15-.158-.338-.276-.486-.437-.092-.1-.17-.217-.284-.291-.114-.075-.284-.091-.376.009-.116.125-.037.326.044.476.329.607.536 1.297.531 1.986 0 .09.003.19.06.26.076.094.215.102.337.101h.194c.153 0 .331-.014.416-.141a.426.426 0 0 0 .055-.202c.055-.608-.048-1.297-.49-1.761"/>
            <path fill="#F5D2B1" d="M63.549 244.37c-.203-.35-.251-.782-.497-1.104-.053-.07-.14-.139-.221-.103l-.123 1.386c-.015.169-.03.343.02.506.102.338.41.49.58.779.04.067.075.142.14.186.109.074.262.033.372-.042.705-.486 0-1.14-.271-1.608"/>
            <path fill="#8D9FB5" d="M69.304 253.094c.757 1.807 1.139 4.037 1.253 4.984.4 3.336.8 14.806 1.104 18.151.022.246-9.002-.472-9.84-.406.402-2.498.803-13.13 1.205-15.627.343-2.13.14-4.287.52-6.393.169-.932.567-1.851 1.275-2.485 2.148-1.924 3.582-.374 4.483 1.776"/>
            <path fill="#F5D2B1" d="M60.83 249.843a4.582 4.582 0 0 1-.43-.983 7.658 7.658 0 0 1-.214-1.069c-.052-.342-.023-1.343-.247-1.595-.215-.241-.733-.063-.86.188-.1.198-.064.434-.025.652l.53 2.976c.136.758.277 1.532.657 2.203.355.626.896 1.123 1.429 1.609.45.41 1.563 1.592 2.258 1.476.922-.153.094-1.498-.226-1.97-.85-1.254-2.122-2.192-2.871-3.487"/>
            <path fill="#8D9FB5" d="M64.378 252.619l-1.03-1.992c-.188-.364-.405-.756-.784-.915-.528-.223-1.15.093-1.64.26-.368.125-.713.319-.974.606-1.512 1.663 2.774 7.123 3.782 8.536.16.224.336.458.594.555.507.193 1.041-.227 1.337-.679.686-1.047.698-2.218.41-3.377-.322-1.289-1.137-1.915-1.695-2.994"/>
            <g>
                <g transform="translate(59.425 249.48)">
                    <mask id="V" fill="#fff">
                        <use xlink:href="#U"/>
                    </mask>
                    <path fill="#EAEAEF" d="M9.242 19.58c-.079-.16-.067-.492.112-.589.223-.12.508-.016.674.147.182.178.32.49.136.665a.41.41 0 0 1-.208.094c-.275.053-.59-.067-.714-.317" mask="url(#V)"/>
                </g>
                <g transform="translate(59.425 249.48)">
                    <mask id="X" fill="#fff">
                        <use xlink:href="#W"/>
                    </mask>
                    <path fill="#EAEAEF" d="M12.757 18.631c.237.035.45.205.535.429.043.114.05.25-.022.35a.361.361 0 0 1-.19.121.613.613 0 0 1-.635-.192.605.605 0 0 1-.062-.657c.115-.07.24-.07.374-.051" mask="url(#X)"/>
                </g>
                <g transform="translate(59.425 249.48)">
                    <mask id="Z" fill="#fff">
                        <use xlink:href="#Y"/>
                    </mask>
                    <path fill="#EAEAEF" d="M9.854 16.733a.502.502 0 0 0 .194.273c.161.102.377.06.548-.025.288-.143.529-.432.507-.752-.015-.226-.253-.505-.495-.495-.218.008-.524.086-.66.275-.137.193-.166.504-.094.724" mask="url(#Z)"/>
                </g>
                <g transform="translate(59.425 249.48)">
                    <mask id="ab" fill="#fff">
                        <use xlink:href="#aa"/>
                    </mask>
                    <path fill="#EAEAEF" d="M9.456 13.881a.761.761 0 0 1-.293.93c-.147.09-.345.121-.488.026a.49.49 0 0 1-.17-.235 1.502 1.502 0 0 1-.03-.929.28.28 0 0 1 .056-.117c.047-.051.122-.065.19-.072.306-.03.607.11.735.397" mask="url(#ab)"/>
                </g>
                <g transform="translate(59.425 249.48)">
                    <mask id="ad" fill="#fff">
                        <use xlink:href="#ac"/>
                    </mask>
                    <path fill="#EAEAEF" d="M5.597 14.457c.116.274.45.405.747.375a.516.516 0 0 0 .34-.148c.142-.16.087-.42-.056-.562-.166-.163-.634-.39-.865-.258-.156.088-.231.436-.166.593" mask="url(#ad)"/>
                </g>
                <g transform="translate(59.425 249.48)">
                    <mask id="af" fill="#fff">
                        <use xlink:href="#ae"/>
                    </mask>
                    <path fill="#EAEAEF" d="M3.539 13.92c-.093-.455-.632-.254-.936-.187-.155.034-.29.042-.316.24-.02.155.09.305.232.376.141.07.305.077.463.072.134-.004.274-.016.385-.09a.407.407 0 0 0 .172-.412" mask="url(#af)"/>
                </g>
                <g transform="translate(59.425 249.48)">
                    <mask id="ah" fill="#fff">
                        <use xlink:href="#ag"/>
                    </mask>
                    <path fill="#EAEAEF" d="M1.738 17.515a.587.587 0 0 1-.033-.24c.039-.49.724-.206.936-.01.223.205.263.629 0 .782-.167.097-.389.045-.542-.072a1.053 1.053 0 0 1-.36-.46" mask="url(#ah)"/>
                </g>
                <g transform="translate(59.425 249.48)">
                    <mask id="aj" fill="#fff">
                        <use xlink:href="#ai"/>
                    </mask>
                    <path fill="#EAEAEF" d="M4.628 16.888c.167.022.346.025.496-.053a.5.5 0 0 0 .248-.539c-.068-.298-.415-.466-.695-.352a.739.739 0 0 0-.28.228.758.758 0 0 0-.162.293c-.07.285.147.391.393.423" mask="url(#aj)"/>
                </g>
                <g transform="translate(59.425 249.48)">
                    <mask id="al" fill="#fff">
                        <use xlink:href="#ak"/>
                    </mask>
                    <path fill="#EAEAEF" d="M4.295 20.001c.225-.03.357-.296.312-.517a.783.783 0 0 0-.438-.537c-.192-.078-.504-.042-.603.162a.519.519 0 0 0-.029.307.744.744 0 0 0 .112.305c.117.17.441.309.646.28" mask="url(#al)"/>
                </g>
                <g transform="translate(59.425 249.48)">
                    <mask id="an" fill="#fff">
                        <use xlink:href="#am"/>
                    </mask>
                    <path fill="#EAEAEF" d="M5.854 19.699c.148.074.324.066.488.04.118-.019.246-.056.307-.158.071-.12.012-.278-.077-.387-.117-.14-.325-.373-.532-.342a.402.402 0 0 0-.256.171c-.143.198-.181.55.07.676" mask="url(#an)"/>
                </g>
                <g transform="translate(59.425 249.48)">
                    <mask id="ap" fill="#fff">
                        <use xlink:href="#ao"/>
                    </mask>
                    <path fill="#EAEAEF" d="M7.354 16.747c.012.272.354.47.597.344.243-.125.28-.517.062-.684-.216-.166-.589-.033-.65.233" mask="url(#ap)"/>
                </g>
                <g transform="translate(59.425 249.48)">
                    <mask id="ar" fill="#fff">
                        <use xlink:href="#aq"/>
                    </mask>
                    <path fill="#EAEAEF" d="M8.036 21.51c-.093-.208-.071-.482.185-.563.204-.065.479.107.603.254.13.154.237.329.14.521-.074.148-.226.266-.398.26-.25-.01-.428-.245-.53-.472" mask="url(#ar)"/>
                </g>
                <g transform="translate(59.425 249.48)">
                    <mask id="at" fill="#fff">
                        <use xlink:href="#as"/>
                    </mask>
                    <path fill="#EAEAEF" d="M5.99 22.11c-.29.04-.984-.523-.492-.71.257-.096.745.042.792.347.026.172-.127.338-.3.363" mask="url(#at)"/>
                </g>
                <g transform="translate(59.425 249.48)">
                    <mask id="av" fill="#fff">
                        <use xlink:href="#au"/>
                    </mask>
                    <path fill="#EAEAEF" d="M7.232 25.258c-.323-.03-.551-.328-.623-.618-.017-.066-.02-.138.012-.197a.273.273 0 0 1 .078-.083.592.592 0 0 1 .544-.083c.143.05.224.235.303.355.06.09.122.188.122.297 0 .204-.232.348-.436.329" mask="url(#av)"/>
                </g>
                <g transform="translate(59.425 249.48)">
                    <mask id="ax" fill="#fff">
                        <use xlink:href="#aw"/>
                    </mask>
                    <path fill="#EAEAEF" d="M9.755 23.971a.151.151 0 0 1 .011-.006c.16-.09.562-.052.698.078.192.182.219.518.036.716-.176.19-.522.194-.69-.003a.61.61 0 0 1-.124-.41c.001-.11-.037-.303.07-.375" mask="url(#ax)"/>
                </g>
                <g transform="translate(59.425 249.48)">
                    <mask id="az" fill="#fff">
                        <use xlink:href="#ay"/>
                    </mask>
                    <path fill="#EAEAEF" d="M11.797 22.125c.16-.164.177-.424.126-.638-.053-.226-.375-.198-.562-.184a.537.537 0 0 0-.181.037c-.123.054-.199.257-.214.383a.497.497 0 0 0 .14.413.51.51 0 0 0 .69-.011" mask="url(#az)"/>
                </g>
                <g transform="translate(59.425 249.48)">
                    <mask id="aB" fill="#fff">
                        <use xlink:href="#aA"/>
                    </mask>
                    <path fill="#EAEAEF" d="M12.872 26.257c.277-.323-.225-.965-.6-.928-.165.016-.297.156-.345.313-.103.34.18.729.535.761a.483.483 0 0 0 .41-.146" mask="url(#aB)"/>
                </g>
                <g transform="translate(59.425 249.48)">
                    <mask id="aD" fill="#fff">
                        <use xlink:href="#aC"/>
                    </mask>
                    <path fill="#EAEAEF" d="M8.476 26.52c.097-.225-.087-.509-.33-.547-.244-.038-.491.143-.563.378-.052.171-.008.385.147.477.08.047.178.055.272.052.18-.007.373-.063.481-.207.108-.145.082-.39-.084-.463" mask="url(#aD)"/>
                </g>
                <g transform="translate(59.425 249.48)">
                    <mask id="aF" fill="#fff">
                        <use xlink:href="#aE"/>
                    </mask>
                    <path fill="#EAEAEF" d="M5.084 26.891c.12-.095.11-.218.078-.344-.034-.13-.037-.288-.14-.387-.09-.085-.237-.132-.354-.082-.105.044-.17.151-.198.26a.532.532 0 0 0 .117.506c.129.129.355.16.497.047" mask="url(#aF)"/>
                </g>
                <g transform="translate(59.425 249.48)">
                    <mask id="aH" fill="#fff">
                        <use xlink:href="#aG"/>
                    </mask>
                    <path fill="#EAEAEF" d="M4.02 24.34c-.198-.192-.304-.463-.02-.614.241-.127.542-.076.764.067.162.106.277.306.228.492-.05.19-.257.31-.454.304-.196-.005-.378-.113-.518-.25" mask="url(#aH)"/>
                </g>
                <g transform="translate(59.425 249.48)">
                    <mask id="aJ" fill="#fff">
                        <use xlink:href="#aI"/>
                    </mask>
                    <path fill="#EAEAEF" d="M6.96 5.21c-.079-.16-.067-.492.112-.588.223-.121.508-.016.674.146.182.178.32.49.136.665a.41.41 0 0 1-.208.095c-.275.053-.59-.067-.714-.317" mask="url(#aJ)"/>
                </g>
                <g transform="translate(59.425 249.48)">
                    <mask id="aL" fill="#fff">
                        <use xlink:href="#aK"/>
                    </mask>
                    <path fill="#EAEAEF" d="M10.474 4.262c.238.034.451.205.536.429.042.114.05.25-.022.349a.362.362 0 0 1-.19.122.613.613 0 0 1-.635-.192.605.605 0 0 1-.062-.658c.115-.069.24-.07.373-.05" mask="url(#aL)"/>
                </g>
                <g transform="translate(59.425 249.48)">
                    <mask id="aN" fill="#fff">
                        <use xlink:href="#aM"/>
                    </mask>
                    <path fill="#EAEAEF" d="M10.667 1.644c-.056-.19-.112-.394-.058-.586.053-.191.263-.354.45-.283a.39.39 0 0 1 .203.215c.096.213.056.498-.138.63-.193.132-.521.016-.538-.216" mask="url(#aN)"/>
                </g>
                <g transform="translate(59.425 249.48)">
                    <mask id="aP" fill="#fff">
                        <use xlink:href="#aO"/>
                    </mask>
                    <path fill="#EAEAEF" d="M7.572 2.363a.5.5 0 0 0 .194.273c.161.103.376.06.548-.024.288-.143.529-.433.507-.752-.015-.226-.253-.505-.495-.495-.218.008-.525.085-.66.275-.137.192-.166.503-.094.723" mask="url(#aP)"/>
                </g>
                <g transform="translate(59.425 249.48)">
                    <mask id="aR" fill="#fff">
                        <use xlink:href="#aQ"/>
                    </mask>
                    <path fill="#EAEAEF" d="M7.174-.488a.76.76 0 0 1-.293.93c-.147.089-.345.12-.488.025a.488.488 0 0 1-.17-.234c-.115-.287-.112-.635-.03-.929a.284.284 0 0 1 .056-.117c.047-.052.122-.065.19-.072.306-.03.607.11.735.397" mask="url(#aR)"/>
                </g>
                <g transform="translate(59.425 249.48)">
                    <mask id="aT" fill="#fff">
                        <use xlink:href="#aS"/>
                    </mask>
                    <path fill="#EAEAEF" d="M3.315.087c.116.275.45.406.747.376a.518.518 0 0 0 .34-.148c.142-.16.087-.421-.056-.562-.166-.163-.634-.39-.865-.259-.156.089-.232.437-.166.593" mask="url(#aT)"/>
                </g>
                <g transform="translate(59.425 249.48)">
                    <mask id="aV" fill="#fff">
                        <use xlink:href="#aU"/>
                    </mask>
                    <path fill="#EAEAEF" d="M1.257-.45C1.164-.905.625-.703.321-.636c-.156.034-.29.041-.316.239-.02.156.09.306.232.376C.378.05.542.056.7.052c.134-.004.274-.017.385-.09a.407.407 0 0 0 .172-.412" mask="url(#aV)"/>
                </g>
                <g transform="translate(59.425 249.48)">
                    <mask id="aX" fill="#fff">
                        <use xlink:href="#aW"/>
                    </mask>
                    <path fill="#EAEAEF" d="M-.544 3.146a.592.592 0 0 1-.033-.241c.039-.49.724-.205.936-.01.223.206.263.63 0 .782-.167.098-.39.046-.542-.072a1.056 1.056 0 0 1-.361-.459" mask="url(#aX)"/>
                </g>
                <g transform="translate(59.425 249.48)">
                    <mask id="aZ" fill="#fff">
                        <use xlink:href="#aY"/>
                    </mask>
                    <path fill="#EAEAEF" d="M2.346 2.519c.167.022.346.025.496-.054a.5.5 0 0 0 .248-.538c-.068-.298-.415-.466-.695-.353a.74.74 0 0 0-.28.228.76.76 0 0 0-.162.293c-.07.286.147.392.393.424" mask="url(#aZ)"/>
                </g>
                <g transform="translate(59.425 249.48)">
                    <mask id="bb" fill="#fff">
                        <use xlink:href="#ba"/>
                    </mask>
                    <path fill="#EAEAEF" d="M2.013 5.632c.225-.031.357-.297.312-.517a.784.784 0 0 0-.438-.537c-.192-.078-.504-.042-.603.162a.518.518 0 0 0-.03.307.745.745 0 0 0 .113.305c.116.17.441.308.646.28" mask="url(#bb)"/>
                </g>
                <g transform="translate(59.425 249.48)">
                    <mask id="bd" fill="#fff">
                        <use xlink:href="#bc"/>
                    </mask>
                    <path fill="#EAEAEF" d="M3.571 5.33c.15.073.325.066.489.04.117-.02.246-.056.307-.158.071-.12.012-.279-.077-.387-.117-.141-.325-.373-.532-.342a.402.402 0 0 0-.256.171c-.143.197-.181.55.07.675" mask="url(#bd)"/>
                </g>
                <g transform="translate(59.425 249.48)">
                    <mask id="bf" fill="#fff">
                        <use xlink:href="#be"/>
                    </mask>
                    <path fill="#EAEAEF" d="M5.072 2.378c.012.272.354.47.597.344.243-.125.279-.517.062-.684-.216-.166-.589-.033-.65.233" mask="url(#bf)"/>
                </g>
                <g transform="translate(59.425 249.48)">
                    <mask id="bh" fill="#fff">
                        <use xlink:href="#bg"/>
                    </mask>
                    <path fill="#EAEAEF" d="M5.754 7.14c-.094-.207-.072-.481.185-.562.204-.065.479.107.603.253.13.154.237.33.14.522-.074.148-.226.266-.398.26-.25-.01-.428-.245-.53-.472" mask="url(#bh)"/>
                </g>
                <g transform="translate(59.425 249.48)">
                    <mask id="bj" fill="#fff">
                        <use xlink:href="#bi"/>
                    </mask>
                    <path fill="#EAEAEF" d="M3.708 7.74c-.29.041-.984-.522-.492-.708.257-.097.745.04.791.346.027.172-.126.338-.299.362" mask="url(#bj)"/>
                </g>
                <g transform="translate(59.425 249.48)">
                    <mask id="bl" fill="#fff">
                        <use xlink:href="#bk"/>
                    </mask>
                    <path fill="#EAEAEF" d="M4.95 10.888c-.323-.03-.551-.327-.623-.618a.273.273 0 0 1 .012-.197.277.277 0 0 1 .078-.082.592.592 0 0 1 .544-.083c.143.05.224.235.303.355.06.09.122.188.122.296 0 .205-.232.348-.437.33" mask="url(#bl)"/>
                </g>
                <g transform="translate(59.425 249.48)">
                    <mask id="bn" fill="#fff">
                        <use xlink:href="#bm"/>
                    </mask>
                    <path fill="#EAEAEF" d="M7.473 9.602a.151.151 0 0 1 .011-.006c.16-.09.561-.052.698.077.192.182.219.519.036.716-.176.191-.522.195-.69-.002a.61.61 0 0 1-.124-.41c.001-.11-.037-.303.07-.375" mask="url(#bn)"/>
                </g>
                <g transform="translate(59.425 249.48)">
                    <mask id="bp" fill="#fff">
                        <use xlink:href="#bo"/>
                    </mask>
                    <path fill="#EAEAEF" d="M9.515 7.755c.16-.164.177-.424.126-.637-.053-.226-.375-.198-.562-.184a.537.537 0 0 0-.181.036c-.123.055-.199.258-.214.383a.498.498 0 0 0 .14.414.512.512 0 0 0 .69-.012" mask="url(#bp)"/>
                </g>
                <g transform="translate(59.425 249.48)">
                    <mask id="br" fill="#fff">
                        <use xlink:href="#bq"/>
                    </mask>
                    <path fill="#EAEAEF" d="M12.324 7.547c.14-.219.061-.603-.195-.71-.224-.093-.609-.015-.702.228a.54.54 0 0 0 .159.605.53.53 0 0 0 .738-.123" mask="url(#br)"/>
                </g>
                <g transform="translate(59.425 249.48)">
                    <mask id="bt" fill="#fff">
                        <use xlink:href="#bs"/>
                    </mask>
                    <path fill="#EAEAEF" d="M10.7 9.746c.083.185.338.342.536.229.176-.1.08-.458.018-.606a.431.431 0 0 0-.08-.133c-.118-.124-.349-.303-.444-.085-.082.188-.115.409-.03.595" mask="url(#bt)"/>
                </g>
                <g transform="translate(59.425 249.48)">
                    <mask id="bv" fill="#fff">
                        <use xlink:href="#bu"/>
                    </mask>
                    <path fill="#EAEAEF" d="M10.59 11.888c.277-.323-.225-.965-.6-.929-.165.016-.297.157-.345.314-.103.339.18.728.535.76a.484.484 0 0 0 .41-.145" mask="url(#bv)"/>
                </g>
                <g transform="translate(59.425 249.48)">
                    <mask id="bx" fill="#fff">
                        <use xlink:href="#bw"/>
                    </mask>
                    <path fill="#EAEAEF" d="M6.194 12.151c.096-.226-.087-.51-.33-.547-.244-.038-.491.143-.563.377-.052.172-.008.386.147.477.08.047.178.056.272.053.18-.007.373-.063.481-.208.108-.144.082-.39-.084-.462" mask="url(#bx)"/>
                </g>
                <g transform="translate(59.425 249.48)">
                    <mask id="bz" fill="#fff">
                        <use xlink:href="#by"/>
                    </mask>
                    <path fill="#EAEAEF" d="M2.802 12.522c.12-.095.11-.218.078-.345-.034-.129-.037-.288-.14-.386-.09-.086-.237-.133-.354-.083-.105.045-.17.152-.198.26a.531.531 0 0 0 .117.507c.129.128.355.16.497.047" mask="url(#bz)"/>
                </g>
                <g transform="translate(59.425 249.48)">
                    <mask id="bB" fill="#fff">
                        <use xlink:href="#bA"/>
                    </mask>
                    <path fill="#EAEAEF" d="M1.738 9.97c-.198-.191-.304-.462-.02-.613.241-.128.542-.077.764.067.162.106.277.305.228.492-.05.19-.257.31-.454.304-.196-.005-.378-.113-.518-.25" mask="url(#bB)"/>
                </g>
            </g>
            <g>
                <path fill="#492317" d="M69.417 251.882c-.45-1.242-.548-2.615-1.19-3.772-.113-.205-.247-.405-.434-.547-.18-.137-.397-.213-.613-.282-.686-.217-1.446-.38-2.114-.112-.922.37-1.35 1.41-1.635 2.358-.192.64-.365 1.302-.303 1.967.044.475.207.934.42 1.362.356.717.85 1.357 1.339 1.993l1.56 2.024c.343.444.71.907 1.232 1.113.277.109.613.13.855-.042.128-.09.217-.224.3-.356.586-.922 1.17-1.958 1.484-3.009.264-.882-.602-1.871-.901-2.697"/>
                <path fill="#FFAB93" d="M52.377 239.272c.44-.367 1.516-.57 1.618-.6.602-.177 1.174-.25 1.803-.315.71-.074 1.458-.139 2.114.134.01.028.022.056.028.085.14.734-1.173 1.601-2.932 1.937-1.643.313-3.094.051-3.393-.582.187-.326.762-.66.762-.66"/>
                <path fill="#FFFDFF" d="M55.316 239.377c.051-.025.062-.095.052-.152-.01-.057-.034-.112-.027-.17.008-.064.054-.121.05-.186-.003-.063-.054-.114-.072-.174-.029-.091.018-.194-.015-.283a.246.246 0 0 0-.114-.122c-.138-.078-.31-.072-.464-.033-.153.04-.298.109-.45.152-.076.022-.164.045-.196.116-.033.072.01.153.037.228.045.125.04.279-.05.376-.045.049-.106.08-.154.125a.327.327 0 0 0-.053.39.33.33 0 0 0 .368.144"/>
                <path fill="#E8BE91" d="M48.788 229.737c-.01.064-.018.128-.026.191a6.9 6.9 0 0 0 .365 3.122c.233.644 1.378 3.015 1.705 3.618.5.922-.173-.276.326.647.303.559.582 1.048.92 1.55.093.137.189.276.292.417 0 0-.57.33-.755.652-.01.016-.836-1.247-1.004-1.475-.323-.438-1.29-2.498-1.65-3.28-.58-1.26-.725-2.705-.552-4.08.058-.466.174-.94.379-1.362"/>
                <path fill="#CAD6E3" d="M52.263 241.47a1.003 1.003 0 0 1-.696-.362 1.785 1.785 0 0 1-.343-.666 8.431 8.431 0 0 1-.173-.716c-.073-.344-.142-.669-.272-.987a12.033 12.033 0 0 0-.79-1.626l-.053-.087c-.242-.405-.492-.824-.566-1.302-.052-.337-.01-.674.03-1 .02-.17.042-.347.05-.518l.246.01c-.008.18-.03.362-.051.537-.04.324-.078.63-.031.934.066.431.304.83.534 1.214l.053.088c.28.472.537.999.806 1.657.139.34.213.69.285 1.03.048.229.099.466.168.695.077.252.17.435.294.577a.757.757 0 0 0 .52.277l-.011.244z"/>
                <path fill="#F7E0C4" d="M49.212 228.883c.308-.332.76-.51 1.213-.617.625-.147 1.415.047 1.978-.186.48-.2.901-.551 1.376-.738.411-.162.957-.09 1.382-.008.307.058.612.141.892.28.916.45 1.673 1.355 1.788 2.33.386 3.287.94 5.892.105 8.825-.462-.565-1.49-.392-2.193-.328-.623.056-1.19.121-1.784.284-.101.027-1.166.212-1.599.556-.495-.515-2.092-2.914-2.556-4.04-.253-.617-.496-1.357-.734-1.98a6.448 6.448 0 0 1-.367-3.188c.065-.435.198-.867.499-1.19"/>
                <path fill="#663531" d="M55.141 239.295c-.29.112-.651.274-.857.368a.2.2 0 0 0 .135.374c.15-.04.353-.094.439-.12l.45-.138a.2.2 0 0 0 .13-.257l-.037-.107a.2.2 0 0 0-.26-.12"/>
                <path fill="#C69B93" d="M31.002 269.702c.385-.497 1.492-.971 1.594-1.027.604-.332.99-.797 1.65-1.016.745-.247 1.742-.242 2.511-.105.018.028.037.055.05.085.326.755-.875 1.996-2.683 2.772-1.689.726-3.31.788-3.781.178.122-.394.66-.887.66-.887"/>
                <path fill="#FFF" d="M34.246 269.147c-.21-.153-.377-.533-.662-.55-.092-.005-.187.019-.275-.01-.177-.059-.22-.288-.214-.474.005-.186.015-.404-.13-.522-.276-.224-.457.108-.694.158-.184.04-.53-.23-.684-.077-.105.104-.11.279-.05.413.062.135.177.237.294.328.15.115.31.22.48.304.244.122.328.2.392.444.06.225.158.432.41.49"/>
                <path fill="#E0A16C" d="M39.86 271.658c.651.424 1.34.891 1.63 1.61.13.317.17.662.203 1.003.052.546.086 1.094.103 1.643.014.451-.035.995-.436 1.206-.154.082-.334.096-.508.108-.098.007-.204.011-.284-.045-.091-.064-.118-.185-.136-.295-.276-1.687-.92-2.66-1.899-4.013-.289-.399-.599-1.044-.47-1.554.246-.987 1.31.021 1.796.337"/>
                <path fill="#E2CDB5" d="M43.319 274.35c-.52.241-1.131.28-1.677.104-.053-.017-.112-.035-.16-.01-.04.022-.061.066-.08.108a15.114 15.114 0 0 0-.573 1.615c-.01.038-.02.081.004.112.017.022.046.03.074.036.394.088.795.046 1.194.04.223-.004.735.126.927.004.24-.152.183-.545.201-.79.01-.14-.001-1.176.09-1.219"/>
                <path fill="#1E231C" d="M41.864 305.354c-.009.075-.02.156-.073.211-.058.063-.153.076-.239.083-.915.084-1.835.055-2.753.026-.236-.008-.485-.019-.685-.144-.2-.124-.321-.406-.188-.598.099-.141.287-.18.456-.216a6.88 6.88 0 0 0 1.955-.724c.11-.061.22-.126.34-.166.296-.102.954-.145 1.203.108.285.29.026 1.068-.016 1.42"/>
                <path fill="#415952" d="M42.473 302.625c-.001.35-.011.719-.194 1.018-.182.299-.6.485-.898.3-.287-.179-.317-.577-.32-.914-.044-4.88-1.06-9.747-.684-14.613-.029.37 2.163.27 2.372.685.17.337-.078 1.006-.123 1.355a29.69 29.69 0 0 0-.169 1.685c-.162 2.223-.101 4.453-.044 6.678.033 1.269.067 2.537.06 3.806"/>
                <path fill="#516660" d="M41.642 303.477c-.02.318-.045.636-.074.952-.014.154-.032.315-.124.44-.147.198-.427.232-.675.25-.674.048-1.503.016-1.82-.577-.092-.174-.123-.372-.153-.566l-.407-2.659c-.711-4.637-1.423-9.344-.849-14l1.918.594c.514.16 1.404.254 1.831.57.625.463.101 2.35.08 3.101-.071 2.552.165 5.099.275 7.646.062 1.422-.002 2.83-.002 4.25"/>
                <path fill="#2E362B" d="M41.044 306.947l-4.493-.076a.317.317 0 0 1-.15-.026c-.06-.032-.093-.1-.105-.165-.037-.198.08-.399.24-.522.16-.123.359-.185.55-.25a8.918 8.918 0 0 0 1.592-.734c.16-.094.32-.194.5-.24.136-.035.28-.037.42-.04.309-.004 1.452-.202 1.606.119.095.197-.048.69-.067.907l-.093 1.027"/>
                <path fill="#F5D2B1" d="M40.226 273.6a5.475 5.475 0 0 1-.063-1.134c.025-.446.08-.89.164-1.33.043-.22.101-.455.273-.6.181-.156.44-.17.68-.178.477-.015.982-.023 1.395.213.43.246.687.725.771 1.212.084.487.017.986-.067 1.473-.102.592-.074 1.554-.774 1.74-.412.109-1.647.18-1.961-.125-.13-.124-.192-.3-.241-.473a6.47 6.47 0 0 1-.177-.799"/>
                <path fill="#663531" d="M40.672 269.817c.075-.15.152-.303.279-.412.214-.184.522-.203.805-.198 1.14.018 2.407.37 2.96 1.361.363.65.338 1.461.085 2.16-.254.7-.712 1.305-1.195 1.872-.08.094-.169.192-.289.221-.14.034-.283-.036-.403-.114a2.545 2.545 0 0 1-.835-.88c-.135-.238-.232-.499-.392-.72-.384-.535-1.074-.855-1.357-1.472-.267-.583.082-1.294.342-1.818"/>
                <path fill="#E0A16C" d="M40.106 276.053a12.651 12.651 0 0 1 2.079-.15c.786.008 1.652.127 2.176.71.59.658.533 1.649.43 2.523a94.532 94.532 0 0 1-1.569 9.32c-.044.2-.098.414-.259.539-.153.12-.364.125-.559.133-.993.035-1.992.22-2.975.077-.984-.142-1.996-.716-2.267-1.667-.106-.369-.092-.76-.076-1.143l.128-3.197c.044-1.106.09-2.224.388-3.29.147-.53.383-1.04.51-1.574.084-.358 0-.697.06-1.04.152-.867 1.18-1.123 1.934-1.24"/>
                <path fill="#663531" d="M33.215 269.522c.276-.144.636-.308.842-.4a.201.201 0 0 1 .255.08.198.198 0 0 1-.06.266 16.62 16.62 0 0 1-.379.25l-.4.248a.202.202 0 0 1-.281-.071l-.056-.1a.198.198 0 0 1 .08-.273"/>
                <path fill="#F5D2B1" d="M32.499 270.28c-.208-.067-.43-.083-.637-.154-.129-.044-.253-.11-.389-.122-.136-.012-.293.054-.327.186-.041.165.123.304.266.398.291.19.586.396.767.691.065.106.114.221.186.322.173.244.456.382.727.51.064.03.13.06.2.062.709.026.61-.586.324-.955-.297-.382-.64-.783-1.117-.938"/>
                <path fill="#E0A16C" d="M35.834 274.846c-.427-.56-.684-1.229-.915-1.894-.149-.43-.311-.892-.686-1.152-.374-.26-1.024-.156-1.122.288-.048.217.046.436.138.638l1.254 2.753c.32.701.648 1.417 1.183 1.973.5.52 1.148.868 1.785 1.208.537.287 1.91 1.158 2.555.875.856-.375-.281-1.475-.709-1.854-1.118-.99-2.557-1.624-3.483-2.835"/>
                <path fill="#F5D2B1" d="M38.107 269.895c-.256-.376-.344-.855-.646-1.196-.066-.074-.17-.144-.256-.097l-.024 1.561c-.003.191-.005.387.063.565.068.177.2.321.327.46l.383.416c.021.023.046.048.076.05.027.002.051-.013.073-.028.286-.19.696-.409.667-.777-.028-.355-.475-.679-.663-.954"/>
                <path fill="#E8BE91" d="M26.169 262.018c.005.07.01.141.018.211a7.593 7.593 0 0 0 1.138 3.264c.405.637.902 1.21 1.396 1.78.758.872-.252-.255.505.617.459.528.875.987 1.359 1.446.132.126.268.251.413.378 0 0-.534.489-.655.88-.006.019-1.195-1.142-1.43-1.347-.452-.393-.684-.675-1.256-1.428-.924-1.215-1.426-2.733-1.57-4.25-.048-.514-.037-1.05.082-1.551"/>
                <path fill="#516660" d="M29.482 270.486l.01-.245a.844.844 0 0 1-.584-.304c-.137-.155-.244-.363-.33-.636a9.164 9.164 0 0 1-.191-.765c-.082-.372-.166-.756-.321-1.127a13.495 13.495 0 0 0-.9-1.814l-.06-.097c-.256-.422-.52-.858-.598-1.333-.054-.336-.015-.673.026-1.03.022-.193.045-.392.051-.59l-.246-.009c-.006.189-.029.383-.05.571-.041.358-.084.728-.024 1.096.084.523.362.98.63 1.422l.06.097c.305.505.586 1.07.883 1.781.147.35.225.707.308 1.085.056.258.115.523.197.785.096.307.22.545.38.726.208.235.485.376.76.387"/>
                <path fill="#F7E0C4" d="M26.419 260.564c.252-.448.694-.76 1.155-.99.635-.318 1.53-.296 2.078-.696.469-.342.836-.838 1.3-1.164.404-.283 1.007-.336 1.482-.35.344-.011.691.007 1.024.092 1.092.28 2.12 1.104 2.478 2.167 1.2 3.582 1.118 4.657.924 8.143-.63-.517-1.704-.23-2.444.015-.655.217-1.236.587-1.836.916-.101.056-1.2.525-1.582 1.017-.145-.127-.281-.252-.413-.378a20.05 20.05 0 0 1-1.359-1.446c-.757-.872.253.255-.505-.617-.495-.57-.991-1.143-1.396-1.78a7.593 7.593 0 0 1-1.156-3.475c-.034-.503.005-1.019.25-1.454"/>
                <path fill="#F5D2B1" d="M41.707 273.477c-.039-.128.262-.316.391-.352.129-.036.266-.003.395.03.05.012.104.028.132.07.025.037.024.085.018.13-.053.431-.405.756-.735 1.042-.057.05-.13.103-.203.08a.192.192 0 0 1-.089-.077.722.722 0 0 1 .09-.923"/>
                <path fill="#353535" d="M9.224 326.36c.218.082.819.57.6.792-.674.69-1.602 1.344-2.582 1.483-.27.038-.585.009-.749-.207-.175-.23-.098-.556-.013-.831.205-.668.396-.746 1.065-.971.44-.148 1.208-.432 1.68-.265M14.742 327.443c.229.04.91.407.738.667-.534.801-1.324 1.195-2.261 1.513-.258.087-.573.117-.774-.065-.215-.194-.2-.527-.169-.814.077-.694.25-.805.865-1.151.405-.227 1.106-.226 1.6-.15"/>
                <path fill="#F5D2B1" d="M13.927 323.634a56.382 56.382 0 0 0-.536 4.43c-.009.104-.03.227-.124.272a.31.31 0 0 1-.167.014l-.288-.03c-.043-.004-.09-.01-.122-.04-.037-.036-.04-.093-.04-.144-.037-1.966-.812-3.851-.966-5.812-.077-.982.003-1.97.083-2.952.01-.106 1.417.267 1.54.313.196.075.55.174.694.33.137.148.145.431.17.627.128 1-.079 2.008-.244 2.992M8.559 325.253c-.196.421-.4 1.26-.566 1.694-.07.181-.139.373-.287.5-.149.125-.405.149-.521-.007-.077-.102-.07-.242-.059-.37.203-2.337.623-12.533 1.155-14.818-.025.104 1.214 6.856 1.34 6.89.329.088 1.01.037.982.467-.031.471-.58 2.113-.746 2.555a44.225 44.225 0 0 1-1.298 3.089"/>
            </g>
            <g transform="translate(11.589 319.127)">
                <mask id="bD" fill="#fff">
                    <use xlink:href="#bC"/>
                </mask>
                <path fill="#EAEAEF" d="M.078 6.621c.024.187-.28.208-.405.349a.456.456 0 0 0-.085.194 10.392 10.392 0 0 0-.241 3.892c.132 1.031.443 2.082 1.154 2.844.223.238.492.45.808.533.317.085.687.022.91-.218.114-.123.182-.281.246-.436.27-.646.528-1.31.588-2.006.048-.548-.028-1.098-.048-1.647-.018-.516.012-1.03.019-1.547.006-.427.067-1.008-.095-1.415-.16-.406-.737-.326-1.105-.364L.078 6.621" mask="url(#bD)"/>
            </g>
            <g transform="translate(6.904 319.618)">
                <mask id="bF" fill="#fff">
                    <use xlink:href="#bE"/>
                </mask>
                <path fill="#EAEAEF" d="M.38 5.636C.317 5.617.247 5.598.183 5.62c-.06.02-.103.072-.14.123-.335.45-.531.987-.689 1.525a13.25 13.25 0 0 0-.437 2.11c-.059.472-.09 1.383.062 1.834.158.473.502.438.86.786.172.169.373.342.615.347.21.005.4-.12.555-.259 1.202-1.071.534-.115 1.289-2.592.153-.502.32-1 .5-1.494.117-.324.568-1.035.428-1.372-.143-.344-.906-.417-1.216-.509-.543-.16-1.086-.322-1.628-.483" mask="url(#bF)"/>
            </g>
            <g>
                <path fill="#C69B93" d="M13.392 292.467c-.247.384-.494.769-.77 1.128-.468.606-.945 1.135-1.115 1.925-.074.345-.048.725.148 1.02.155.234.448.401.72.327.207-.057.354-.235.481-.407.731-.994 1.239-2.13 1.741-3.255.356-.797.68-1.322-.125-1.835a.34.34 0 0 0-.162-.066c-.108-.004-.19.091-.254.178-.235.317-.45.651-.664.985"/>
                <path fill="#F5D2B1" d="M18.668 290.935c.127-.177.296-.322.419-.501.077-.112.137-.239.24-.329.102-.09.267-.13.373-.044.133.108.084.317.025.477-.12.325-.233.665-.202 1.01.011.123.04.245.044.369.007.298-.138.576-.28.84a.518.518 0 0 1-.121.168c-.555.441-.843-.11-.833-.575.01-.483.045-1.008.335-1.415M14.831 290.361c.203-.35.251-.782.497-1.104.053-.07.14-.139.22-.103l.124 1.386c.015.169.03.343-.02.505-.049.162-.156.298-.26.43l-.313.394c-.017.022-.037.046-.065.05-.024.002-.046-.01-.066-.02-.266-.151-.645-.32-.643-.648.002-.317.378-.633.526-.89"/>
                <path fill="#21160A" d="M9.076 299.085c-.758 1.807-1.14 4.037-1.253 4.984-.4 3.336-.8 17.259-1.104 20.604-.023.245 9.002-.473 9.84-.407-.402-2.497-.803-15.582-1.205-18.079-.343-2.13-.14-4.286-.52-6.393-.169-.932-.568-1.851-1.276-2.485-2.148-1.924-3.581-.374-4.482 1.776"/>
                <path fill="#C69B93" d="M17.603 295.6c.236-.663.275-1.378.29-2.08.01-.455.023-.945.3-1.307.276-.362.927-.459 1.157-.066.112.191.09.43.064.65l-.348 3.002c-.09.765-.183 1.546-.521 2.238-.316.646-.827 1.175-1.329 1.692-.424.436-1.463 1.683-2.164 1.61-.93-.098-.185-1.49.106-1.981.76-1.282 1.936-2.323 2.445-3.758"/>
                <path fill="#516660" d="M15.083 298.98l.793-1.757c.146-.322.313-.667.62-.801.426-.185.943.112 1.348.274.305.12.593.303.813.566 1.28 1.527-2.094 6.31-2.884 7.551-.125.197-.264.401-.472.483-.41.16-.859-.23-1.112-.641-.588-.955-.627-2.004-.42-3.034.232-1.146.884-1.687 1.314-2.64"/>
                <path fill="#492317" d="M8.963 297.873c.45-1.242.547-2.615 1.189-3.772.114-.205.248-.405.435-.547.18-.137.397-.213.613-.282.686-.217 1.445-.38 2.114-.112.922.37 1.35 1.41 1.635 2.358.192.64.365 1.302.303 1.967-.044.475-.207.934-.42 1.362-.357.717-.85 1.358-1.339 1.993l-1.56 2.024c-.343.444-.71.907-1.233 1.113-.276.109-.612.13-.854-.042-.128-.09-.217-.224-.3-.356-.586-.922-1.17-1.958-1.484-3.009-.264-.882.601-1.871.901-2.697"/>
                <path fill="#C69B93" d="M20.753 287.797c-.472-.276-1.583-.367-1.688-.384-.626-.103-1.213-.122-1.86-.13-.728-.008-1.495-.007-2.147.273-.008.024-.018.048-.022.073-.097.63 1.297 1.263 3.112 1.413 1.695.14 3.158-.189 3.423-.747-.211-.26-.818-.498-.818-.498"/>
                <path fill="#FFFDFF" d="M17.762 288.108c-.054-.018-.07-.076-.063-.125.007-.048.028-.097.018-.145-.012-.054-.064-.098-.064-.153 0-.054.048-.1.063-.153.023-.079-.03-.162-.002-.24.016-.046.06-.083.108-.11.135-.077.311-.085.47-.064.16.022.312.07.47.095.079.012.17.025.207.082.038.06 0 .13-.023.195-.038.11-.024.239.075.315.048.037.113.058.164.093.11.076.144.217.079.325-.066.109-.225.173-.367.15"/>
                <path fill="#E8BE91" d="M23.811 279.482a4.897 4.897 0 0 1-.137 2.82c-.197.562-1.215 2.649-1.51 3.182-.452.816.16-.246-.292.57-.274.494-.527.929-.84 1.377-.086.123-.175.247-.272.374 0 0 .602.235.812.493.01.013.773-1.115.93-1.32.302-.393 1.159-2.205 1.476-2.89.512-1.107.569-2.338.306-3.486a3.235 3.235 0 0 0-.473-1.12"/>
                <path fill="#CAD6E3" d="M22.444 289.958a1.28 1.28 0 0 0 .684-.56c.122-.205.19-.448.21-.742.017-.248.008-.491 0-.727-.013-.341-.024-.664.036-1 .123-.69.268-1.253.454-1.773l.036-.1c.166-.459.338-.934.288-1.41-.035-.336-.179-.638-.317-.93-.072-.15-.146-.305-.201-.46l-.25.09c.06.166.136.327.21.483.136.284.263.553.294.844.043.416-.118.863-.274 1.294l-.036.1c-.192.535-.34 1.111-.466 1.814-.065.365-.052.717-.04 1.058.008.228.017.465.001.699a1.379 1.379 0 0 1-.174.626c-.123.209-.32.37-.54.443l.085.251z"/>
                <path fill="#F7E0C4" d="M23.326 278.794c-.336-.257-.808-.374-1.276-.43-.647-.076-1.441.147-2.03-.008-.503-.132-.953-.396-1.45-.518-.429-.105-.98-.003-1.41.097-.309.072-.615.166-.891.303-.906.45-1.62 1.27-1.676 2.102-.187 2.802-.587 5.041.448 7.453.436-.511 1.495-.443 2.217-.442.638 0 1.22.012 1.837.104.104.016 1.202.091 1.665.35.473-.472 1.95-2.617 2.352-3.602.22-.54.42-1.183.624-1.725a4.594 4.594 0 0 0 .173-2.718c-.094-.362-.257-.716-.583-.966"/>
                <path fill="#663531" d="M17.939 287.979c.348.108.78.267 1.026.36.112.04.165.145.124.242-.043.1-.171.16-.294.133-.181-.038-.424-.09-.527-.116l-.542-.133c-.131-.032-.2-.149-.152-.256l.049-.107c.047-.106.19-.163.316-.123"/>
                <path fill="#E1846A" d="M2.635 242.825c.438-.192 1.413-.158 1.506-.163.554-.026 1.067.017 1.63.077.634.066 1.3.146 1.839.455.004.022.01.044.011.066.02.558-1.256.966-2.85.912-1.488-.05-2.726-.485-2.899-.997.21-.205.763-.35.763-.35"/>
                <path fill="#FFFDFF" d="M5.202 243.399c.05-.01.069-.059.068-.102-.001-.043-.014-.087 0-.128.016-.045.065-.079.07-.126.007-.047-.03-.092-.039-.14-.011-.07.044-.138.027-.208-.01-.042-.043-.079-.082-.108a.674.674 0 0 0-.403-.102c-.14.002-.278.029-.418.034-.07.003-.15.005-.188.051-.039.047-.013.114 0 .172.022.099-.004.21-.097.265-.047.028-.105.04-.153.065a.212.212 0 0 0-.102.275c.046.1.178.173.304.167"/>
                <g transform="translate(0 235.256)">
                    <mask id="bH" fill="#fff">
                        <use xlink:href="#bG"/>
                    </mask>
                    <path fill="#E8BE91" d="M.83.03L.78.165a4.289 4.289 0 0 0-.12 2.331c.113.508.784 2.425.986 2.919.308.755-.114-.23.195.525.186.458.362.86.588 1.283.063.116.127.232.198.352 0 0-.548.143-.756.347-.01.01-.558-1.048-.673-1.243-.222-.372-.78-2.034-.986-2.663-.331-1.014-.255-2.09.092-3.06C.422.627.59.3.83.03" mask="url(#bH)"/>
                </g>
                <path fill="#CAD6E3" d="M1.393 243.9l.09-.213a.885.885 0 0 1-.443-.42 1.203 1.203 0 0 1-.111-.559 5.84 5.84 0 0 1 .046-.61c.032-.297.066-.603.033-.926a9.686 9.686 0 0 0-.29-1.613l-.025-.09c-.108-.386-.22-.786-.156-1.147.046-.252.174-.478.31-.718.075-.131.153-.267.216-.409l-.213-.094a4.524 4.524 0 0 1-.205.39c-.14.245-.285.5-.337.79-.074.413.045.839.16 1.25l.026.09c.129.465.219.966.282 1.575.031.298 0 .58-.033.877a6.037 6.037 0 0 0-.047.634 1.44 1.44 0 0 0 .136.661c.118.24.323.434.56.533"/>
                <path fill="#F7E0C4" d="M1.323 234.737c.318-.19.74-.243 1.153-.244.57 0 1.238.274 1.765.2.451-.064.87-.249 1.314-.304.384-.048.853.097 1.216.228.261.094.517.207.744.354.741.483 1.278 1.269 1.241 1.998-.126 2.454-.008 4.441-1.156 6.433-.326-.489-1.254-.537-1.881-.61-.556-.065-1.062-.113-1.608-.096-.092.003-1.055-.043-1.484.135-.362-.458-1.426-2.473-1.674-3.37-.136-.491-.244-1.071-.365-1.563a4.017 4.017 0 0 1 .129-2.38c.118-.305.296-.597.606-.781"/>
                <path fill="#663531" d="M5.062 243.269c-.313.059-.706.153-.93.208-.1.025-.157.11-.132.198.027.092.133.156.243.146.16-.015.377-.035.47-.047l.484-.06c.117-.015.19-.11.158-.208l-.03-.098c-.031-.097-.15-.16-.263-.14"/>
            </g>
        </g>
    </g>
</svg>
