<svg xmlns="http://www.w3.org/2000/svg" width="541" height="800" viewBox="0 0 541 800">
    <path fill="#FFF" fill-rule="evenodd" d="M0 0v67.025C27.707 51.81 57.915 46.606 86.897 54.542c28.736 7.87 56.228 28.272 85.432 27.034 14.491-.615 28.678-6.594 43.157-7.674 20.217-1.51 40.638 6.547 60.588 1.429 20.189-5.179 37.95-23.386 57.974-29.838 26.25-8.458 54.175 4.542 75.91 28.065 21.734 23.521 37.97 56.666 51.402 91.341 8.698 22.457 16.472 46.213 19.371 71.782 5.335 47.047-6.226 94.145-12.371 140.972-1.975 15.046-3.377 30.776-.664 45.565 4.082 22.25 16.641 38.5 24.248 58.587 6.42 16.95 9.197 36.336 11.89 55.381L541 800V0H0z"/>
</svg>
