<svg xmlns="http://www.w3.org/2000/svg" xmlns:xlink="http://www.w3.org/1999/xlink" width="542" height="802" viewBox="0 0 542 802">
    <defs>
        <path id="a" d="M0 0h541.11v801.298H0z"/>
    </defs>
    <g fill="none" fill-rule="evenodd">
        <mask id="b" fill="#fff">
            <use xlink:href="#a"/>
        </mask>
        <path fill="#FFF" d="M0 0v57.557c26.36-11.535 54.673-15.118 81.916-8.48 29.058 7.08 56.858 25.439 86.39 24.325 14.654-.553 29-5.933 43.64-6.906 20.445-1.357 41.094 5.892 61.27 1.286 20.413-4.66 38.373-21.042 58.623-26.847 26.545-7.61 54.781 4.088 76.76 25.252 21.978 21.165 38.397 50.988 51.978 82.19 8.796 20.205 16.658 41.581 19.588 64.588 5.395 42.332-6.296 84.712-12.51 126.845-2.625 17.805-3.678 35.446 2.838 52.742 1.269 3.366 2.766 6.665 3.968 10.05 3.775 10.64 6.755 22.272 8.54 33.313 4.512 27.914-4.67 57.341-24.744 79.294-25.258 27.625-64.708 41.964-94.002 66.296-17.439 14.486-31.157 32.423-50.214 45.228-20.937 14.068-46.833 20.954-72.33 26.73C162.767 671.338 81.487 681.178 0 682.752v118.545h541.11V0H0z" mask="url(#b)"/>
    </g>
</svg>
