<svg xmlns="http://www.w3.org/2000/svg" xmlns:xlink="http://www.w3.org/1999/xlink" width="320" height="211" viewBox="0 0 320 211">
    <defs>
        <path id="a" d="M0 0h319.736v210.992H0z"/>
    </defs>
    <g fill="none" fill-rule="evenodd">
        <mask id="b" fill="#fff">
            <use xlink:href="#a"/>
        </mask>
        <path fill="#FFF" d="M319.736 210.992V0c-1.56 4.205-2.596 8.632-4.572 12.664-5.274 10.76-16.624 17.348-28.155 20.638-11.53 3.29-23.643 3.9-35.399 6.264a120.563 120.563 0 0 0-38.16 14.773c-6.147 3.688-12.214 8.025-19.294 9.162-5.683.912-11.458-.34-17.138-1.271-23.45-3.842-47.787-2.158-70.481 4.877-11.66 3.615-23.002 8.643-35.113 10.175-10.773 1.363-21.778-.1-32.512 1.546-12.555 1.925-24.042 7.977-35.257 13.936L0 94.706v116.286h319.736z" mask="url(#b)"/>
    </g>
</svg>
