<svg xmlns="http://www.w3.org/2000/svg" xmlns:xlink="http://www.w3.org/1999/xlink" width="1024" height="200" viewBox="0 0 1024 200">
    <defs>
        <path id="a" d="M0 0h1024v199.606H0z"/>
    </defs>
    <g fill="none" fill-rule="evenodd">
        <mask id="b" fill="#fff">
            <use xlink:href="#a"/>
        </mask>
        <path fill="#FFF" d="M1020.056.376c-24.243 4.015-49.704 8.564-68.742 24.25-6.854 5.645-12.625 12.562-19.68 17.949-6.892 5.264-14.827 8.929-22.703 12.524-22.96 10.478-46.142 20.78-67.22 34.721-11.848 7.837-22.997 16.802-35.43 23.654-20.403 11.244-44.81 18.457-67.387 23.773-10.816 2.546-18.251-.367-29.471-.124-11.207.243-22.268 3.631-33.078 6.292-42.415 10.44-86.387 10.97-129.783 9.489-17.87-.61-35.862 1.12-53.305-2.028-18.457-3.332-37.893-5.557-55.443 2.82-20.298 9.689-34.16 31.887-56.127 36.56a1174129084199282000 1174129084199282000 0 0 1-245.86-21.327c-13.607 1.805-26.68 6.476-40.174 8.997C64.042 183.83 31.58 177.76 0 171.7v27.906h1024V.004c-1.305-.035-2.662.16-3.944.372" mask="url(#b)"/>
    </g>
</svg>
