<svg xmlns="http://www.w3.org/2000/svg" xmlns:xlink="http://www.w3.org/1999/xlink" width="1024" height="100" viewBox="0 0 1024 100">
    <defs>
        <path id="a" d="M0 0h1024v100H0z"/>
    </defs>
    <g fill="none" fill-rule="evenodd">
        <mask id="b" fill="#fff">
            <use xlink:href="#a"/>
        </mask>
        <path fill="#FFF" d="M1024 75.102C989.262 71.509 959 61 928.07 52.08c-30.932-8.92-65.798-16.616-100.796-13.776-16.038 1.301-31.185 4.769-47.219 6.085-48.639 3.993-94.796-12.057-143.75-14.839-38.46-2.186-77.038 3.971-111.915 12.62-17.77 4.407-35.232 9.533-54.553 11.55-6.791.708-13.832 1.036-20.164 2.489-6.927 1.589-12.466 4.398-18.393 6.838-16.367 6.74-38.883 10.908-58.412 7.013-22.447-4.477-36.056-18.43-59.96-19.851-10.139-.603-20.152 1.266-29.69 3.14C190.347 71.587 98.53 93.393 0 100V0h1024v75.102z" mask="url(#b)"/>
    </g>
</svg>
