<svg xmlns="http://www.w3.org/2000/svg" xmlns:xlink="http://www.w3.org/1999/xlink" width="1024" height="200" viewBox="0 0 1024 200">
    <defs>
        <path id="a" d="M0 0h1023.976v199.79H0z"/>
    </defs>
    <g fill="none" fill-rule="evenodd">
        <mask id="b" fill="#fff">
            <use xlink:href="#a"/>
        </mask>
        <path fill="#FFF" d="M989.563 118.02c-10.319 8.389-18.496 18.464-31.21 24.836-28.07 14.068-66.562 5.327-99.464 11.559-18.172 3.442-35.323 11.576-54.028 10.47-18.222-1.08-33.233-10.69-50.503-15.095-47.978-12.237-97.481 17.297-148.266 17.113-16.616-.06-32.863-3.335-48.88-6.586-40.775-8.275-81.673-16.582-120.743-28.5-24.068-7.342-47.95-16.153-73.883-18.03-10.342-.75-20.917-.382-30.956-2.355-11.514-2.263-21.485-7.431-31.543-12.13-27.438-12.82-57.37-22.752-88.6-29.402-6.969-1.484-14.15-2.854-20.155-5.845-6.645-3.31-11.286-8.316-16.52-12.789-18.555-15.857-46.408-25.628-74.855-26.259-24.143-.535-50.65 4.789-70.98-4.795C18 15.036 9.882 5.89 0 0v199.79h1023.976v-95.357c-12.977-.109-25.429 6.284-34.413 13.587" mask="url(#b)"/>
    </g>
</svg>
