<svg xmlns="http://www.w3.org/2000/svg" xmlns:xlink="http://www.w3.org/1999/xlink" width="834" height="896" viewBox="0 0 834 896">
    <defs>
        <path id="a" d="M.032.33H10.85v34.544H.03z"/>
        <path id="c" d="M.33.554C.7 1.99 1.072 3.431 1.664 4.79c1.181 2.71 3.2 5.007 4.219 7.782.026.072.058.151.127.184.059.028.128.013.192-.002l.42-.1a.46.46 0 0 0 .228-.1c.11-.112.08-.296.041-.448-.548-2.169-1.048-4.351-1.425-6.557-.252-1.479-.456-3.01-1.128-4.37C4.207.911 4.055.513 3.79.371 3.51.22 2.964.254 2.651.244h-.014C2.372.244.29.402.33.554"/>
        <path id="e" d="M.323 10.767c-.006.193-.005.404.118.55.187.224.567.166.777-.035.21-.203.295-.497.383-.776.21-.665.475-1.311.73-1.96a66.239 66.239 0 0 0 1.66-4.752c.208-.679.658-1.592.662-2.302C4.656.844 3.648.98 3.15.877 2.96.837 1.084.382 1.112.223.521 3.701.419 7.241.322 10.767"/>
        <path id="g" d="M20.08.519c-3.489.643-7.063.818-10.598.514-.166-.015-.341-.029-.491.044-.166.081-.267.252-.36.41A16.137 16.137 0 0 1 .25 8.42c.54.938.616 2.064.673 3.145.105 2.024.183 4.05.232 6.078a26.92 26.92 0 0 1 8.867 3.186c.226.13.455.266.71.326.264.063.54.041.812.02a94.718 94.718 0 0 1 12.251-.155c1.651-3.37 5.04-5.82 8.747-6.324a14.717 14.717 0 0 1 .05-9.03c-1.703-.181-3.314-.822-4.787-1.68-1.333-.776-2.558-1.724-3.74-2.713-.42-.352-1.005-1.111-1.55-1.23a1.233 1.233 0 0 0-.264-.026c-.662 0-1.59.394-2.172.502"/>
        <path id="i" d="M.217.193h8.711v6.285H.218z"/>
        <path id="k" d="M0 .28h11.931v12.669H0z"/>
        <path id="m" d="M.098.115h2.29v3.011H.097z"/>
        <path id="o" d="M0 .177h13.73v21.628H0z"/>
        <path id="q" d="M.21.108h8.13v7.148H.21z"/>
    </defs>
    <g fill="none" fill-rule="evenodd">
        <path fill="#665146" d="M210.115 171.424c.255.137.518.338.554.626.037.291-.185.565-.453.684-.268.118-.57.117-.863.112-1.464-.021-2.927-.06-4.39-.115-.404-.016-.814-.034-1.197-.165-.22-.077-.441-.205-.541-.417-.06-.127-.07-.271-.078-.412-.088-1.581-.185-3.4.183-4.945.652-.13 1.687-.086 1.957.63.237.627-.306 1.425-.007 2.045.664 1.379 3.62 1.3 4.835 1.957"/>
        <path fill="#847062" d="M199.206 151.83c-.015.982-.036 1.97-.218 2.936s-.522 1.895-.884 2.809c-1.257 3.177-2.8 6.29-3.345 9.665.597.264 1.29.53 1.876.241.451-.222.698-.71.913-1.167l1.657-3.516c.726-1.54 1.451-3.08 2.112-4.65.408-.97.794-1.958.976-2.996.17-.961.16-1.944.167-2.921.025-2.94.492-5.888.497-8.809-1.278-.476-3.27-.44-3.68 1.153-.27 1.049-.045 2.366-.044 3.443 0 1.27-.008 2.54-.027 3.811"/>
        <path fill="#AA8E79" d="M201.499 150.67c-.024 1.354-.054 2.71.026 4.061.078 1.308.26 2.608.441 3.906l.632 4.525.585 4.182c.024.173.056.361.185.479.122.11.3.128.465.135a7.286 7.286 0 0 0 1.735-.137c.182-.036.373-.086.496-.224.128-.145.152-.351.17-.543.732-7.731 1.009-15.505.831-23.27-.003-.13-.013-.279-.114-.363-.079-.066-.19-.072-.292-.077-1.876-.079-3.488-.662-5.247-1.21-.372 1.218.02 2.152.128 3.345.153 1.699-.011 3.486-.041 5.19"/>
        <path fill="#1F9995" d="M202.299 127.746c-1.764.804-3.664 1.737-4.492 3.494-.332.703-.46 1.485-.536 2.26a18.385 18.385 0 0 0 1.798 9.843c.136.274.288.556.54.727.284.191.644.211.985.224 2.1.077 4.201.114 6.302.11.127 0 .259-.002.371-.06.257-.135.289-.484.288-.774l-.017-4.215c-.003-.852-.008-1.718-.25-2.534-.382-1.283-1.306-2.316-2.11-3.385a21.74 21.74 0 0 1-2.63-4.557"/>
        <path fill="#067070" d="M205.722 128.857c1.3 1.533 2.585 3.112 3.447 4.93.5 1.056.851 2.282.463 3.384-.058.165-.141.334-.292.421-.132.076-.294.075-.445.06-1.331-.127-2.41-1.1-3.35-2.054-1.483-1.507-3.87-3.916-4.067-6.162-.087-.984.482-2.541 1.61-2.459 1.097.08 1.975 1.104 2.634 1.88"/>
        <path fill="#E57055" d="M197.387 121.833c1.163-1.767 1.827-3.869 3.252-5.43.253-.276.535-.538.877-.69.329-.146.694-.182 1.052-.208 1.142-.082 2.375-.05 3.305.618 1.286.922 1.555 2.703 1.64 4.286.056 1.069.074 2.165-.27 3.177-.247.725-.672 1.377-1.161 1.965-.82.984-1.822 1.796-2.816 2.602l-3.17 2.57c-.694.562-1.436 1.146-2.32 1.27-.467.066-.993-.027-1.303-.385-.164-.189-.25-.431-.33-.668-.558-1.656-1.071-3.488-1.161-5.243-.076-1.473 1.632-2.69 2.405-3.864"/>
        <path fill="#665146" d="M197.093 168.935c.475.422 1.107.609 1.717.784l1.562.449c.296.084.598.173.846.356.247.183.431.485.39.79-.044.322-.329.568-.637.665-.309.097-.64.072-.963.043a48.662 48.662 0 0 1-4.249-.567c-.472-.084-1.004-.218-1.233-.641-.133-.246-.132-.541-.124-.821a33.47 33.47 0 0 1 .27-3.397c-.015.115 1.454.63 1.634.835.387.44.304 1.075.787 1.504"/>
        <path fill="#846855" d="M224.797 168.423a25.862 25.862 0 0 0 .043 3.53c.014.172.028.354-.044.512-.073.157-.266.273-.422.198-.118-.057-.17-.196-.212-.321l-.308-.945c-.027.31-.214.59-.463.777-.248.185-.551.285-.857.336-.294.05-.624.05-.86-.134-.235-.184-.286-.609-.031-.765.058-.035.125-.054.182-.09.134-.087.189-.252.231-.405.234-.833.396-1.686.487-2.545.007-.064.017-.134.066-.175.04-.035.097-.038.15-.041l1.964-.096c.03.208.037.419.022.628"/>
        <path fill="#C1ADA3" d="M224.866 168.626c-.533.014-1.067.015-1.6.002-.235-.005-.512-.036-.633-.24a.72.72 0 0 1-.075-.292c-.333-3.055-.667-6.127-.509-9.196.016-.299.063-.645.318-.799.135-.081.3-.089.458-.084.824.023 1.84.164 1.873 1.085.039 1.05.037 2.103.056 3.154l.112 6.37"/>
        <path fill="#D6BEAE" d="M222.808 168.261c-.003.043-.007.09-.037.121-.039.04-.101.04-.157.035a23.953 23.953 0 0 1-1.642-.187c-.132-.02-.271-.045-.367-.137-.104-.1-.13-.257-.148-.4-.237-1.896-.093-3.815.05-5.72l.348-4.61c.634.125 2.317.16 2.62.728.334.626-.167 2.63-.215 3.362l-.452 6.808"/>
        <path fill="#E0B9A4" d="M225.592 119.41c-.308-.94-.727-1.906-1.534-2.473-.28-.197-.627-.34-.959-.263-.342.08-.589.372-.792.66-.544.77-.97 1.694-.86 2.633.124 1.065.906 1.933 1.75 2.591.206.161.43.333.503.585.06.206.007.446.123.627.085.135.243.202.392.256.95.345 2.067.573 2.085-.77.019-1.296-.308-2.623-.708-3.846"/>
        <path fill="#A59D38" d="M223.24 123.501l-.19 1.645a.22.22 0 0 0 .007.113c.031.075.128.09.209.095.981.049 1.951-.143 2.918-.284.756-.11.965-.32 1.142-1.091-.73.115-1.364-.04-2.066-.25-.184-.056-1.967-.563-2.02-.228"/>
        <g transform="translate(218.568 124.272)">
            <mask id="b" fill="#fff">
                <use xlink:href="#a"/>
            </mask>
            <path fill="#BCAB64" d="M9.958 1.683c.403.56.538 1.266.634 1.95 1.136 8.123-1.839 16.268-1.797 24.47.011 2.165.063 4.718-1.67 6.007-1.205.897-2.85.812-4.345.687-.669-.055-1.46-.192-1.738-.805-.091-.2-.11-.423-.128-.641-.66-8.024-.95-16.079-.869-24.13.029-2.84.72-6.843 3.573-8.034 1.963-.82 4.817-1.626 6.34.496" mask="url(#b)"/>
        </g>
        <path fill="#2C0B2A" d="M223.582 116.05a2.257 2.257 0 0 1 1.86.224c.337.208.612.502.877.797.799.891 1.562 1.866 1.889 3.019.36 1.27.154 2.634-.188 3.911a.716.716 0 0 1-.12.28c-.135.161-.375.174-.584.164a6.138 6.138 0 0 1-1.232-.19c-.07-.017-.145-.041-.186-.1-.045-.065-.035-.153-.022-.232.066-.405.155-.808.187-1.217.108-1.408-.464-2.769-1.025-4.064a1.04 1.04 0 0 0-.179.454 8.62 8.62 0 0 0-2.25-.875c-1.552-.365.19-1.916.973-2.17"/>
        <path fill="#99765E" d="M222.55 168.138c.047.045.08.117.098.232.12.825-.054 1.804-.078 2.64l-.034 1.162c-.006.172-.013.353-.101.501-.088.148-.287.244-.437.161-.186-.102-.17-.368-.153-.58.017-.212-.048-.494-.26-.507-.544.672-1.642.794-2.32.26a.849.849 0 0 1-.294-.375c-.052-.152-.03-.338.086-.45.185-.176.5-.097.722-.225.193-.112.267-.35.325-.566l.67-2.505c-.011.043 1.072.191 1.17.197.259.015.48-.062.606.055"/>
        <path fill="#D6BEAE" d="M220.883 145.474a.372.372 0 0 0 .027.156c.033.066.101.108.167.143.217.118.445.215.681.288.182.056.373.098.562.08.36-.036.67-.293.851-.607.181-.314.25-.68.292-1.04a7.657 7.657 0 0 0-.023-1.911.16.16 0 0 0-.022-.072c-.025-.037-.073-.046-.117-.053-.292-.046-.857-.25-1.142-.142-.285.107-.58.684-.717.932a4.528 4.528 0 0 0-.56 2.226"/>
        <path fill="#A59D38" d="M223.984 131.195c.076-.666.132-1.357.456-1.943.324-.585 1.004-1.036 1.648-.86.5.138.85.617.978 1.122.129.504.075 1.035.015 1.552a70.07 70.07 0 0 1-2.468 12.001c-.092.31-.19.664-.508.768-.412.135-.988.073-1.411.026-.597-.066-.628-.387-.713-.912a14.612 14.612 0 0 1-.188-1.725c-.048-1.156.112-2.31.557-3.382.869-2.097 1.379-4.397 1.634-6.647"/>
        <path fill="#99765E" d="M221.07 143.184c-.02.048-.04.1-.028.15.021.095.133.132.227.153.483.114.954.283 1.4.503.35.172.7.38 1.088.4a.46.46 0 0 0 .255-.046c.1-.058.153-.17.201-.274l.238-.517a.239.239 0 0 0 .03-.124c-.008-.066-.068-.11-.123-.146a12.977 12.977 0 0 0-1.978-1.065c-.222-.097-.639-.377-.835-.185-.111.109-.171.413-.23.558l-.245.593"/>
        <path fill="#F5D2B1" d="M174.27 135.557c.376 2.205.876 4.388 1.424 6.557.039.152.07.336-.04.447-.06.06-.146.082-.228.101l-.42.1c-.064.015-.133.03-.193.001-.069-.032-.1-.111-.127-.183-1.019-2.775-3.038-5.073-4.219-7.782-.591-1.358-.964-2.8-1.334-4.235-.04-.155 2.125-.317 2.32-.31.315.01.86-.024 1.142.127.263.143.415.541.547.806.672 1.36.876 2.892 1.128 4.371M163.737 138.217c-.255.65-.52 1.295-.73 1.96-.088.279-.174.573-.383.776-.21.202-.589.26-.776.036-.123-.147-.124-.358-.12-.55.097-3.527.2-7.067.79-10.545-.027.16 1.848.614 2.039.654.497.103 1.505-.032 1.501.615-.003.71-.453 1.624-.662 2.303a66.953 66.953 0 0 1-1.659 4.75"/>
        <g transform="translate(168.803 130.009)">
            <mask id="d" fill="#fff">
                <use xlink:href="#c"/>
            </mask>
            <path fill="#2C0B2A" d="M1.182 3.474c.126.254-.29.432-.398.694a.686.686 0 0 0-.025.318c.166 1.96.704 3.887 1.576 5.648.693 1.399 1.647 2.74 3.023 3.472.431.23.913.397 1.4.361.488-.035.978-.307 1.173-.756.1-.232.118-.49.133-.741.06-1.05.098-2.12-.16-3.14-.2-.8-.578-1.544-.877-2.314-.28-.724-.49-1.47-.734-2.206-.203-.61-.402-1.466-.83-1.964-.426-.498-1.199-.102-1.735.026l-2.546.602" mask="url(#d)"/>
        </g>
        <g transform="translate(161.406 129.671)">
            <mask id="f" fill="#fff">
                <use xlink:href="#e"/>
            </mask>
            <path fill="#2C0B2A" d="M.11 3.124c-.097-.023-.203-.046-.296-.007-.088.035-.147.117-.198.197-.458.706-.703 1.529-.89 2.35a20.095 20.095 0 0 0-.465 3.205c-.046.715-.049 1.453.216 2.118.277.695.823 1.244 1.386 1.736.271.238.586.48.947.467.312-.012.583-.215.803-.438C2.643 11.71 2.96 10.176 3.3 8.747c.184-.767.388-1.53.612-2.286.147-.498.756-1.604.517-2.098-.243-.503-1.385-.546-1.853-.657L.11 3.124" mask="url(#f)"/>
        </g>
        <g>
            <path fill="#2C0B2A" d="M179.116 142.184c.05.002.103.006.137.04.066.064.016.174-.042.244-.312.373-.804.536-1.276.648-.646.153-1.306.245-1.97.275a.903.903 0 0 0-.084.53c.015.105.047.218-.005.31a.278.278 0 0 1-.102.097.581.581 0 0 1-.78-.203c-.073-.128-.092-.278-.108-.424a47.07 47.07 0 0 1-.13-1.264c-.056-.621 3.892-.274 4.36-.253M165.66 141.656c.177.057.395.176.36.359-.03.159-.227.21-.387.228a13.01 13.01 0 0 1-3.17-.052c-.05-.007-.107-.013-.15.014-.045.028-.065.083-.075.135-.044.211-.026.471-.201.595-.17.119-.42.012-.528-.165-.106-.178-.108-.398-.104-.605.016-.823-.043-1.732 1.029-1.523 1.085.21 2.172.68 3.226 1.014"/>
            <path fill="#702F2F" d="M177.055 118.217c.372.705.77 1.43.822 2.227.052.797-.354 1.688-1.119 1.908-1.285-1.45-2.299-3.115-3.305-4.771l.602 9.43c.07 1.086.139 2.179.012 3.26-.02.176-.054.367-.183.489-.146.14-.369.148-.57.149-2.201.008-4.402.015-6.602.024-.962.003-1.927.006-2.88-.123a10.479 10.479 0 0 1-2.756-.765c-.283-.122-.577-.272-.732-.538-.15-.258-.142-.576-.13-.875.245-5.754.494-11.547 1.773-17.163 3.421.604 6.936.673 10.379.206.462-.063 1.271-.358 1.696-.047.472.346.677 1.575.893 2.099a51.61 51.61 0 0 0 2.1 4.49"/>
            <path fill="#F5D2B1" d="M178.93 122.039c.28.272.562.547.771.877.347.547.471 1.208.51 1.855.003.04.004.082-.018.115-.023.034-.065.048-.104.058-.543.145-1.132-.064-1.573-.413-.442-.349-.765-.824-1.08-1.29l-.542-.803c-.334-.496.359-.951.799-1.107.541-.192.88.36 1.237.708"/>
            <path fill="#A1B1C9" d="M185.592 96.869a14.717 14.717 0 0 0-.049 9.03c-3.707.504-7.096 2.954-8.747 6.323a94.66 94.66 0 0 0-12.25.155c-.272.021-.549.043-.814-.02-.254-.06-.482-.196-.71-.326a26.94 26.94 0 0 0-8.866-3.186c-.05-2.027-.127-4.053-.232-6.078-.057-1.081-.134-2.206-.672-3.145a16.135 16.135 0 0 0 8.378-6.932c.094-.16.195-.33.36-.41.15-.073.326-.06.493-.045 3.533.304 7.108.129 10.597-.514.664-.123 1.78-.62 2.436-.477.545.12 1.13.879 1.55 1.23 1.181.99 2.407 1.938 3.74 2.714 1.473.858 3.084 1.499 4.786 1.68"/>
        </g>
        <g transform="translate(153 91.202)">
            <mask id="h" fill="#fff">
                <use xlink:href="#g"/>
            </mask>
            <path fill="#2C0B2A" d="M-3.03 18.095c5.466-1.723 10.336-4.46 14.962-7.818 1.082-.785 2.127-1.53 3.098-2.348a72.533 72.533 0 0 0-16.342.844c-.64.106-.694-.906-.06-1.01a73.243 73.243 0 0 1 16.242-.85C13.056 4.72 11.146 2.596 9.327.433c-.42-.497.425-1.053.84-.56 1.962 2.333 4.062 4.624 6.01 7.015a13.983 13.983 0 0 0 1.806-2.166c1.354-2.018 2.895-3.833 4.701-5.46.479-.43 1.237.238.754.673-2.008 1.807-3.538 3.814-5.07 6.027-.282.407-.594.779-.919 1.138 2.797.452 5.245 1.207 7.731 2.79 2.9 1.848 5.725 3.81 8.483 5.865.522.389-.152 1.142-.67.757a138.086 138.086 0 0 0-8.27-5.719c-2.43-1.548-4.855-2.283-7.599-2.72.73.939 1.43 1.897 2.082 2.882 1.25 1.888 2.318 3.894 3.368 5.899.955 1.822 1.781 3.642 1.852 5.73.022.65-.985.711-1.007.058-.082-2.43-1.286-4.498-2.41-6.59-1.021-1.904-2.078-3.797-3.343-5.552a57.294 57.294 0 0 0-1.283-1.703c-.413 2.62-2.327 4.751-3.525 7.073-1.71 3.314-2.882 6.865-3.977 10.421-.19.617-1.18.414-.987-.21.941-3.06 1.934-6.113 3.267-9.027a36.326 36.326 0 0 1 2.292-4.247c.757-1.202 1.57-2.39 1.878-3.767-.919.72-1.887 1.389-2.84 2.08-4.698 3.41-9.647 6.184-15.195 7.933-.62.195-.946-.763-.325-.958" mask="url(#h)"/>
        </g>
        <g>
            <path fill="#2F3531" d="M22.104 453.735c2.47 3.007 2.706 6.893.527 8.679-2.18 1.786-5.95.795-8.42-2.213-2.47-3.008-2.707-6.894-.528-8.68 2.18-1.785 5.95-.794 8.42 2.214"/>
            <path fill="#50514C" d="M3.76 460.338c.245.695.303 1.437.42 2.164.365 2.236 1.413 4.473 3.308 5.719 1.407-.9 3.015-1.436 4.466-2.262 1.969-1.12 3.617-2.758 5.641-3.774 1.046-.524 2.174-.874 3.203-1.43-.575-.356-.953-.947-1.364-1.484-.927-1.21-2.095-2.213-3.254-3.205-.076-.065-.154-.132-.25-.156-.104-.027-.214 0-.318.026-4.015 1.032-7.75 3.077-11.842 3.743.03.284-.103.39-.01.66"/>
            <path fill="#EAD4C7" d="M7.925 459.447c-.022.116-.051.243-.147.311-.094.067-.222.054-.337.037l-3.206-.452c.406-.707.814-1.422 1.061-2.198.315-.992.354-2.046.426-3.083.101-1.464-.052-4.33.779-5.574.72-1.08 2.347-.313 2.791.7.52 1.187.029 2.796-.195 3.992l-1.172 6.267M23.695 431.63c.43.773 1 1.469 1.372 2.272.374.803.526 1.782.096 2.557-.104.186-.244.36-.43.465-.525.295-1.18-.048-1.624-.454-.658-.603-1.156-1.358-1.62-2.12-.396-.647-.78-1.326-.896-2.076-.144-.933.141-1.873.424-2.774.193-.618 1.278-3.882 1.825-2.462.229.596-.064 1.762.075 2.46.148.745.409 1.468.778 2.131M12.815 451.479c-.19 1.54-.353 3.083-.43 4.633-.067 1.318 1.253 1.141 2.19.816.146-.05.293-.113.398-.225.243-.26.16-.59.204-.901.067-.465.244-.934.346-1.395a29.328 29.328 0 0 0 .669-5.06c.035-.797-.12-.805-.863-.966-.693-.15-1.66-.367-2.07.403-.13.242-.166.52-.202.791-.082.634-.164 1.269-.242 1.904"/>
            <path fill="#A098A3" d="M17.718 439.197a88.483 88.483 0 0 0-1.3 10.141 21.933 21.933 0 0 1-3.253-.142c-.32-2.413-.75-4.81-1.29-7.184l-1.37 8.027a29.698 29.698 0 0 1-4.797-.752c-.37-.09-.206-6.2-.205-6.84 0-1.28-.664-5.466 1.417-4.67 1.823.697 3.203 1.724 5.232 1.994 1.866.25 3.794.071 5.566-.574"/>
            <path fill="#71BCBA" d="M16.406 418.469a7.635 7.635 0 0 0-5.182 2.895c-1.236 1.605-1.77 3.626-2.276 5.587L5.91 438.73c1.545-.034 3 .648 4.477 1.096 2.804.85 5.856.865 8.668.04.122-.036.248-.076.338-.165.145-.144.154-.371.157-.576a28.963 28.963 0 0 1 2.23-10.724c.108-.256.24-.533.495-.644.324-.139.746.04 1.028-.173.138-.103.203-.278.242-.446.159-.693-.013-1.415-.189-2.105-.353-1.388-.737-2.799-1.524-3.996-.787-1.198-2.057-2.168-3.49-2.234-.727-.034-1.212-.41-1.936-.334"/>
            <path fill="#EAD4C7" d="M8.463 431.479c-.405 2.21.227 4.54 1.481 6.406 1.254 1.865 3.09 3.292 5.098 4.305.32.161.695.315 1.025.177.34-.143.495-.562.444-.927-.05-.365-.262-.686-.48-.983-.8-1.09-1.764-2.05-2.551-3.149-.787-1.098-1.404-2.39-1.361-3.739.055-1.748 1.196-3.323 1.256-5.07-.854-.284-3.058-1.358-3.87-.705-.678.545-.89 2.85-1.042 3.685"/>
            <g transform="translate(15.304 411.154)">
                <mask id="j" fill="#fff">
                    <use xlink:href="#i"/>
                </mask>
                <path fill="#823226" d="M4.823.208C3.43.104 2.028.56.867 1.336c-.163.11-.326.229-.434.394-.132.201-.167.45-.187.69a7.885 7.885 0 0 0 .532 3.587c.082.205.207.435.427.467.135.02.266-.043.388-.106.592-.302 1.19-.617 1.843-.741 1.518-.289 4.535.687 5.33-1.268.9-2.214-2.161-4.018-3.943-4.15" mask="url(#j)"/>
            </g>
            <path fill="#F4D5C6" d="M17.288 414.045c-.168-.005-.347-.007-.49.08-.374.231-.207.79-.148 1.225.093.685-.213 1.354-.337 2.035-.257 1.428.308 2.896 1.146 4.082.134.188.284.38.495.474.157.07.335.08.507.07 1.316-.081 2.38-1.492 2.095-2.778 1.62-.371 2.971-1.724 3.339-3.343.024-.107.04-.23-.029-.316-.067-.084-.19-.094-.298-.095-1.059-.013-3.469.715-4.22-.18-.224-.264-.047-.757-.305-1.012-.396-.391-1.24-.227-1.755-.242"/>
            <path fill="#2A4A3B" d="M20.766 436.54a40.75 40.75 0 0 0-5.053 2.816c-.335.22-.992.506-1.025.932-.017.225.177.584.232.809.074.306.134.616.177.927.842-.13 1.608-.543 2.371-.922 1.833-.91 3.742-1.656 5.637-2.43.753-.309 1.51-.624 2.178-1.086.663-.458.018-1.754-.224-2.36-.035-.086-.074-.177-.152-.227-.118-.077-.275-.033-.408.013a40.768 40.768 0 0 0-3.733 1.527"/>
            <path fill="#A098A3" d="M13.778 456.709c.357.046.746-.02 1.018-.255.69 1.104 2.148 1.583 2.736 2.744.141.28.217.638.034.892-.194.27-.578.3-.91.283a7.854 7.854 0 0 1-3.953-1.312c-.416-.28-.824-.624-.991-1.096-.168-.472-.002-1.092.463-1.278.206-.083.545-.232.76-.226.265.006.566.212.843.248"/>
            <path fill="#5699BA" d="M16.323 452.702c-.091.334-.184.667-.279 1-.613 2.145-1.326 4.27-1.705 6.468a8.38 8.38 0 0 0 2.959-.005c.089-2.432.542-4.834.963-7.23.802-4.571 1.49-9.161 2.06-13.766-.898.34-1.63.376-1.845 1.387-.159.755-.21 1.634-.21 2.405a73.77 73.77 0 0 1-1.943 9.74"/>
            <g transform="translate(0 458.396)">
                <mask id="l" fill="#fff">
                    <use xlink:href="#k"/>
                </mask>
                <path fill="#2F3531" d="M9.912 3.381c2.47 3.008 2.707 6.894.528 8.68-2.18 1.785-5.95.794-8.42-2.213-2.472-3.008-2.708-6.894-.528-8.68C3.672-.618 7.44.373 9.912 3.381" mask="url(#l)"/>
            </g>
            <path fill="#007CAD" d="M8.423 462.997c1.54 1.873 1.686 4.293.329 5.405s-3.705.495-5.244-1.378c-1.54-1.874-1.686-4.294-.329-5.406 1.358-1.112 3.705-.495 5.244 1.379"/>
            <path fill="#2F3531" d="M6.307 464.16c.65.79.711 1.812.138 2.281-.572.47-1.563.21-2.212-.581-.65-.79-.711-1.812-.138-2.28.572-.47 1.563-.21 2.212.58"/>
            <g>
                <path fill="#D0CBCA" d="M34.845 460.494c5.6-.303 11.224-.144 16.797.473-1.505 3.403-1.478 7.256-2.225 10.9-.014.069-.031.14-.082.19a.35.35 0 0 1-.17.073l-1.979.473c-1.45.346-2.91.693-4.396.818-1.487.125-3.016.02-4.409-.515-.367-.141-.737-.322-.979-.632-.245-.313-.33-.72-.399-1.112-.253-1.462-.368-3.016-1.092-4.343-.23-.422-.612-.788-.743-1.256-.195-.69-.064-1.529-.093-2.24a35.3 35.3 0 0 0-.23-2.829"/>
                <path fill="#FFCCA6" d="M40.668 494.06c.07 3.092.141 6.194-.168 9.271l1.353.016c.154.002.324-.001.436-.105.099-.09.127-.232.15-.364.712-4.19 1.35-8.39 1.917-12.601.088-.653.174-1.312.118-1.97.008.084-1.046.473-1.163.492-.307.05-.627-.01-.872-.214-.196-.161-.34-.374-.514-.558a2.374 2.374 0 0 0-1.42-.72c-.077 1.281-.132 2.576-.095 3.86.028.962.235 1.907.258 2.894M35.235 488.601v.37c0 3.858.444 7.683.175 11.531-.057.803-.184 1.599-.262 2.4a18.947 18.947 0 0 0-.008 3.539c.014.143.031.293.117.408.124.164.348.206.55.236.496.073 1.117.09 1.365-.344.104-.183.11-.403.113-.614l.024-1.693c.014-1.03.029-2.062.183-3.08.113-.742.299-1.472.373-2.218.083-.837.024-1.682.076-2.52.062-.967.27-1.917.44-2.87a35.79 35.79 0 0 0 .547-5.493c-1.18.285-2.482.255-3.693.348"/>
                <path fill="#65677E" d="M34.521 489.172l4.317.12c.09-1.009.35-2.001.762-2.926.187.8.268 1.625.243 2.446l4.252-.062c.218-.003.448-.01.632-.128.223-.143.32-.417.385-.674.221-.876.23-1.79.239-2.693.018-1.913.028-3.87-.606-5.676-.147-.419-6.488 1.017-7.17 1.08-.646.058-2.391-.32-2.683.397-.182.452-.004 1.306-.007 1.795a61.184 61.184 0 0 1-.364 6.321"/>
                <path fill="#FFCCA6" d="M46.572 465.637l1.397-.007c.074 0 .154.002.212.048.078.063.082.178.08.278a9.589 9.589 0 0 0 .674 3.651c.486 1.223 1.239 2.419 1.163 3.732-.012.197-.044.399-.148.567-.204.335-.626.456-1.012.522a8.35 8.35 0 0 1-1.934.102c-.155-.01-.321-.029-.438-.131-.146-.13-.165-.347-.174-.543-.116-2.56-.143-5.124-.08-7.686a.658.658 0 0 1 .032-.23c.127-.316.588-.255.907-.137M33.636 465.871c-.095-.003-.2-.003-.275.056-.074.057-.1.156-.12.248-.323 1.484-.423 3.008-.438 4.526-.01.965.019 1.955.378 2.85.124.31.316.63.634.73.277.087.589-.022.8-.221.211-.199.334-.474.414-.752.143-.498.162-1.022.176-1.54.033-1.267.04-2.534.022-3.8-.006-.438.172-1.51-.049-1.874-.216-.356-1.13-.209-1.542-.223M37.89 461.61c.089.237.205.463.29.701a2.9 2.9 0 0 1 .168.956c.861-.047 1.727-.02 2.583.084.059.006.12.014.175-.005a.356.356 0 0 0 .137-.103c.26-.281.42-.646.5-1.02.082-.376.09-.763.08-1.147a1.406 1.406 0 0 0-.06-.43c-.08-.22-.258-.39-.452-.523-.287-.197-.613-.329-.938-.452a32.984 32.984 0 0 0-2.188-.745c-.197-.06-.39-.123-.492.103-.098.219-.06.53-.062.763-.002.292.006.586.04.877.037.32.105.638.219.94"/>
                <path fill="#F6F6F6" d="M37.746 464.795c-.383.361-.904.538-1.42.643a6.57 6.57 0 0 1-1.932.098c.352 2.304.548 4.632.588 6.963.006.355.006.723-.135 1.049-.07.163-.176.312-.225.483-.062.217-.03.447 0 .67.255 1.906.326 3.836.21 5.754-.01.18-.021.368.047.534.047.111.125.205.203.297l1.484 1.765c.32.38.647.766 1.066 1.033.962.615 2.216.49 3.323.207.475-.122.947-.27 1.382-.497 1.267-.662 2.093-1.917 2.862-3.12.173-.27.35-.55.404-.867.055-.325-.025-.654-.082-.978-.13-.747-.137-1.511-.132-2.27.009-1.677.067-3.355.175-5.028.044-.698.098-1.397.229-2.083.273-1.433.886-2.842.719-4.291-.835-.102-1.545-.666-2.09-1.307-.214-.253-.431-.536-.749-.634-.286-.088-.594-.006-.887.059-1.616.355-2.987-.001-4.517-.462-.096.281.062.678-.001 1.006-.07.368-.25.717-.522.976"/>
                <path fill="#502C29" d="M38.549 455.581a3.173 3.173 0 0 0-1.326 1.846c-.1.388-.123.807.01 1.185.186.53.645.91 1.085 1.26.612.487 1.274.993 2.054 1.062.486.042.969-.09 1.438-.222.338-.095.684-.194.968-.399.279-.2.48-.491.643-.794.382-.713.572-1.594.237-2.332-.194-.43-.546-.768-.911-1.067-1.184-.968-2.837-1.427-4.198-.539"/>
                <path fill="#9B861C" d="M42.638 456.91c-.452-.153-.968.042-1.303.382-.335.34-.517.8-.646 1.259-.026.091-.041.21.038.263.04.028.095.028.145.025.913-.058 1.772-.539 2.687-.519.318.007.676.064.922-.139.259-.212.252-.635.064-.912-.188-.278-.506-.437-.82-.551-.257-.094-.525-.166-.798-.165-.396.002-.777.159-1.11.373"/>
                <path fill="#592725" d="M43.113 457.082c.406-.056.858-.046 1.175.213.242.198.363.506.458.804.22.682.363 1.404.277 2.116-.14 1.154-.856 2.146-1.277 3.23-.402 1.037-.541 2.176-1.082 3.147-.122.218-.289.444-.535.489a.606.606 0 0 1-.414-.09c-.452-.273-.53-.885-.55-1.411-.041-1.011-.052-2.025.03-3.034.041-.507.105-1.013.104-1.521-.001-.66-.112-1.314-.204-1.967-.027-.194-.053-.392-.02-.586.167-.979 1.189-1.273 2.038-1.39"/>
                <path fill="#757787" d="M45.365 471.412c0 .11.004.228.07.315.085.11.24.134.378.142.296.017.594.003.887-.043.116-.018.24-.046.32-.132a.536.536 0 0 0 .11-.248c.153-.633.174-1.29.194-1.941.04-1.318.081-2.635.123-3.953.003-.105.004-.22-.059-.304a.441.441 0 0 0-.19-.132c-.4-.174-1.114-.458-1.308.013-.103.248.017.796.004 1.077-.015.344-.047.687-.085 1.029-.153 1.391-.442 2.772-.444 4.177"/>
                <path fill="#324763" d="M47.056 470.1c.715.526.834 1.528.893 2.413l.114 1.73c.064.975.127 1.968-.098 2.92s-.786 1.874-1.67 2.295c-.118.057-.25.105-.38.077-.29-.062-.369-.432-.387-.728l-.334-5.431c-.055-.896-.12-1.792-.164-2.688-.031-.626.042-.568.656-.567.457 0 .914-.007 1.37-.022"/>
                <path fill="#73707E" d="M40.428 504.72c-.004.026-.006.055.011.075.017.02.046.024.072.025.503.037 1.05.062 1.464-.225a.418.418 0 0 0 .132-.133.497.497 0 0 0 .047-.154c.082-.443.12-.894.112-1.345-.274.11-.563.184-.855.22-.174.021-.632-.059-.759.04-.248.192-.19 1.195-.224 1.497"/>
                <g transform="translate(34.783 506.333)">
                    <mask id="n" fill="#fff">
                        <use xlink:href="#m"/>
                    </mask>
                    <path fill="#73707E" d="M.292 2.746a.58.58 0 0 0 .124.232c.1.1.251.121.392.132.338.026.679.021 1.016-.013.107-.011.22-.028.301-.099a.49.49 0 0 0 .129-.235c.103-.345.117-.71.13-1.069.007-.232.014-.473-.083-.684-.147-.32-.497-.495-.834-.6C1.21.33.86.144.603.117.279.083.25.45.19.715c-.15.67-.119 1.38.1 2.03" mask="url(#n)"/>
                </g>
                <path fill="#1C1925" d="M41.915 504.57c.197.078.354.23.502.383.65.673 1.248 1.517 1.187 2.45-.006.103-.025.214-.096.29a.45.45 0 0 1-.226.11c-.764.19-1.602-.137-2.133-.718-.485-.53-.84-1.38-.807-2.11.031-.669 1.122-.582 1.573-.405"/>
                <path fill="#DDD4D9" d="M59.968 471.104c-.474.366-.779.982-.665 1.57.016.082.04.164.086.235a.61.61 0 0 0 .255.212c.251.122.54.128.82.131.958.012 1.917.023 2.869-.079.163-.017.333-.041.466-.137.23-.166.274-.486.298-.769.013-.155.023-.324-.066-.451-.069-.097-.182-.15-.29-.2-1.254-.572-2.478-1.512-3.773-.512"/>
                <path fill="#EDE2E8" d="M61.215 472.466c-.52.274-.97.866-.768 1.418.174.474.726.673 1.215.799.52.133 1.044.248 1.572.345.996.183 2.059.296 2.995-.09.31-.129.627-.348.688-.679a.822.822 0 0 0-.086-.497c-.258-.533-.85-.805-1.396-1.036-.44-.185-.88-.37-1.32-.557-1.07-.45-1.883-.239-2.9.297"/>
                <path fill="#100E13" d="M59.59 458.794c.132 1.902.305 3.805.693 5.671.363 1.75.918 3.484.896 5.27-.005.465-.046.954.155 1.373a1.33 1.33 0 0 0 1.438.703c-.428.843.222 1.92 1.104 2.264.881.344 1.876.152 2.785-.111.072-.022.148-.045.197-.102.061-.073.06-.179.056-.274-.134-2.977-.3-5.972.08-8.929.1-.784.24-1.567.24-2.358 0-.754-.126-1.502-.202-2.253-.327-3.251.281-6.542-.037-9.794-.038-.394-3.705.075-4.06.15-.931.197-2.342.467-3.054 1.174-.682.677-.516 1.814-.501 2.682a85.75 85.75 0 0 0 .21 4.534"/>
                <path fill="#C6B1A1" d="M55.46 440.071c-.117-.008-.243-.012-.342.05-.098.063-.148.176-.18.287-.122.438-.012.918.216 1.313.227.395.563.716.913 1.009.135.113.276.224.44.29.232.097.493.096.743.065a3.23 3.23 0 0 0 1.061-.326c.184-.093.365-.21.474-.385.443-.7.009-1.617-.689-1.934-.718-.328-1.857-.31-2.636-.369"/>
                <path fill="#879069" d="M62.041 433.967c.432-.084.883-.134 1.306-.015.298.084.567.248.822.424a8.547 8.547 0 0 1 3.517 5.484c.167.95.17 1.92.172 2.886l.017 6.92c0 .178 0 .364-.089.518-.154.27-.507.342-.818.365-.875.065-1.757-.035-2.631.035-1.712.137-3.306.916-4.995 1.231-.098.019-.202.035-.294-.003-.105-.042-.172-.143-.23-.24a7.889 7.889 0 0 1-1.067-3.157c-.072-.641-.058-1.32.246-1.89.183-.343.46-.624.708-.923a6.93 6.93 0 0 0 1.444-5.723c-.059-.288-.141-.582-.33-.808-.146-.173-.345-.293-.514-.445-.86-.768-1.154-2.047-.416-2.938.777-.94 1.975-1.49 3.152-1.72"/>
                <path fill="#D5DAE4" d="M62.26 437.858c.001-.206-.001-.421-.101-.6-.076-.134-.198-.233-.32-.326-.518-.396-1.099-.743-1.744-.842-.645-.1-1.365.092-1.763.61-.364.474-.398 1.114-.46 1.709a12.908 12.908 0 0 1-.724 3.128c1.434.357 2.88.667 4.333.929.14.025.291.047.416-.02.51-.275.358-1.42.359-1.862l.005-2.726"/>
                <path fill="#FBE0C7" d="M61.356 432.351c-.097.541-.437 1.002-.768 1.441-.556.74-1.267 1.556-2.192 1.506-.472-.026-.897-.283-1.3-.533-.693-.43-1.407-.88-1.861-1.558-.118-.176-.22-.39-.164-.594.042-.156.169-.275.292-.381 1.109-.97 2.413-1.887 3.79-2.437 1.318-.528 2.414 1.387 2.203 2.556"/>
                <path fill="#51604D" d="M60.495 433.544c.222-.272.472-.537.793-.681.293-.133.624-.154.947-.157.512-.005 1.03.033 1.52.183.343.106.722.345.713.704-.007.298-.278.512-.523.681-.448.31-.896.62-1.344.928-.528.365-1.06.733-1.652.984-.558.237-1.984.697-1.795-.3.154-.813.829-1.716 1.34-2.342"/>
                <path fill="#E2CCBA" d="M57.466 442.239c-.323.222-.82.246-1.071-.056-.091-.11-.14-.248-.192-.38a5.1 5.1 0 0 0-.514-.977.66.66 0 0 0-.16-.181c-.183-.125-.441-.049-.608.095-.3.258-.398.69-.35 1.081.047.392.22.755.391 1.11l1.198 2.497c.294.611.734 1.318 1.413 1.297.515-.015.901-.457 1.22-.862.86-1.098 1.745-2.243 2.056-3.603-.724-.246-1.45-.493-2.184-.705-.785-.226-.615.282-1.199.684"/>
                <path fill="#282123" d="M54.529 433.571c-.135 0-.275 0-.396-.062-.231-.118-.304-.41-.34-.667-.182-1.315-.062-2.651.06-3.973.037-.411.109-.88.458-1.1.17-.108.376-.134.576-.15a9.235 9.235 0 0 1 6.43 1.926c.428.337.84.734 1.022 1.246.182.514.07 1.166-.385 1.466a.648.648 0 0 1-.371.12c-.283-.011-.491-.256-.734-.402-.309-.186-.685-.211-1.046-.216-1.181-.017-2.495.203-3.225 1.13-.207.264-.375.592-.714.68-.389.1-.933.002-1.335.002"/>
                <path fill="#BF5275" d="M64.133 433.972c-.206-.032-.45.124-.426.33.014.109.094.196.17.274.984 1.01 2.082 1.965 2.695 3.235.47.973.62 2.063.764 3.134l.703 5.208c.089.659.178 1.32.168 1.986-.009.538-.082 1.074-.128 1.611-.083.952-.079 1.91-.075 2.865l.029 7.653c0 .313.007.643.17.91.162.268.542.429.799.25l.018-.306c-.152.255.019.604.278.75.26.146.573.145.87.14l1.712-.032c.018-1.005-.468-1.939-.79-2.891-.44-1.308-.579-2.694-.742-4.065-.337-2.834-.79-5.654-1.244-8.473l-.931-5.778c-.206-1.28-.418-2.58-.954-3.762-.312-.688-.745-1.336-1.303-1.85-.375-.344-1.278-1.111-1.783-1.19"/>
            </g>
        </g>
        <g>
            <path fill="#252C2C" d="M193.491 872.28c.022.31.08.674.359.814.099.05.212.063.323.07.722.054 1.481-.046 2.087-.442.32-.21.61-.602.45-.949-.124-.267-.452-.365-.662-.572-.312-.308-.32-.8-.297-1.236a28.35 28.35 0 0 1 .539-4.226c.017-.085.029-.19-.039-.245-.04-.034-.098-.036-.152-.038-.528-.011-1.856-.291-2.299-.03-.485.288-.336 1.457-.36 1.985-.077 1.631.051 3.242.051 4.87"/>
            <path fill="#F2CCB8" d="M195.495 836.56c-.608.824-1.044 1.759-1.475 2.686-1.69 3.63-3.386 7.273-4.552 11.102.392.33.968.37 1.455.214.486-.158.898-.486 1.268-.84a9.124 9.124 0 0 0 1.928-2.654c-.113 2.024-.84 3.956-1.292 5.932-.55 2.402-.692 4.876-.833 7.336l-.189 3.298c-.047.82-.056 1.746.523 2.33.557.564 1.444.59 2.237.58l2.471-.032c.536-.007 1.082-.016 1.588-.191.669-.233 1.205-.736 1.676-1.264 2.115-2.37 3.288-5.427 4.098-8.494.387-1.47.702-2.96.862-4.47.14-1.314.161-2.636.183-3.956l.167-10.185c.01-.626.012-1.286-.297-1.832-.776-1.371-3.436-1.78-4.88-1.935-1.92-.208-3.824.864-4.938 2.375"/>
            <path fill="#1C1E1D" d="M229.23 881.102c.007.118.014.242-.032.35a.656.656 0 0 1-.235.26c-.568.41-1.304.526-1.886.915-.122.081-.248.235-.166.356.048.07.143.086.228.095 1.32.14 2.655.127 3.971-.04.068-.009.14-.02.19-.064.073-.064.079-.174.08-.271l.023-5.804c0 .277-2.113.174-2.342.747-.167.415.029 1.164.056 1.6l.114 1.856zM233.98 881.263c.032.142.06.308-.036.418-.06.067-.151.093-.238.116l-.907.243c-.212.057-.473.177-.458.396.016.243.342.306.586.297a36.538 36.538 0 0 0 2.52-.172.356.356 0 0 0 .153-.039c.109-.067.114-.22.105-.347l-.401-6.366c-.424.092-1.204.223-1.499.575-.24.286-.172.778-.181 1.128-.035 1.26.081 2.521.356 3.751"/>
            <path fill="#AAB0B3" d="M236.435 860.453c.428.466 1.278.053 1.467-.55.188-.602-.035-1.245-.184-1.859-.582-2.395-.023-4.923-.325-7.37-.25-2.022-1.08-3.921-1.9-5.788l-1.83-4.168c-.08-.18-.176-.378-.36-.448-.182-.069-.383.011-.562.087a17.835 17.835 0 0 1-6.741 1.42c-.172.002-.365.01-.483.134-.114.12-.116.306-.11.472.369 11.341.826 22.68 1.371 34.014.008.156.017.317.093.454.1.182.3.285.493.364 1.563.636 3.332.34 4.992.035 1.214-.224 3.348-.182 4.197-1.234.744-.92.485-2.743.495-3.817a96.37 96.37 0 0 0-.127-5.882c-.058-1.126.266-5.04-.486-5.864"/>
            <path fill="#FFE8DC" d="M226.999 836.274c.066.264.142.535.315.745.255.31.672.43 1.067.507a9.646 9.646 0 0 0 3.682.007c.082-.016.17-.036.228-.097a.387.387 0 0 0 .079-.172c.322-1.225-.176-2.566-1.052-3.484-.876-.917-2.08-1.46-3.307-1.79-.342-.092-1.083-.31-1.4-.055-.272.22-.137.766-.118 1.065.07 1.104.239 2.201.506 3.274"/>
            <path fill="#0F1D19" d="M226.588 830.003c.114-.503.236-1.024.554-1.43.32-.409.812-.659 1.32-.775.506-.117 1.033-.112 1.553-.091.566.022 1.156.071 1.638.366.342.209.604.528.81.87.775 1.292.795 2.88.792 4.385-.002 1.065-.014 2.177-.508 3.12-.149.285-.346.554-.618.725-.272.172-.63.23-.92.094-.275-.129-.45-.405-.569-.683-.244-.567-.323-1.189-.467-1.789-.145-.6-.376-1.21-.844-1.614-.409-.352-.949-.504-1.47-.646-.435-.12-1.127-.131-1.344-.567-.274-.55-.067-1.407.073-1.965"/>
            <path fill="#B92D00" d="M226.303 836.31c-.209-.013-.424-.025-.62.046-.509.185-.663.818-.722 1.355a20.482 20.482 0 0 0-.12 2.065c-.005.788.091 1.687.728 2.153.432.315 1.006.344 1.542.328 1.723-.053 3.415-.444 5.094-.834.298-.069.605-.142.853-.32.525-.381.632-1.106.694-1.751.044-.455.088-.918 0-1.367-.088-.449-.328-.89-.728-1.113-.366-.204-.808-.201-1.227-.212-1.053-.03-2.07-.242-3.115-.346-.329-.033-.605.051-.928.073-.475.032-.977-.047-1.451-.077"/>
            <path fill="#81574B" d="M198.627 895.318c.004.102.014.217.093.283.057.047.136.056.21.061.828.07 1.662.084 2.494.043.384-.02.78-.054 1.121-.23.341-.178.617-.534.586-.917-.004-.046-.014-.096-.048-.129-.035-.033-.085-.04-.133-.043-.687-.055-1.402.22-2.055 0-.084-.028-.17-.068-.219-.143-.048-.074-.05-.167-.049-.255.007-1.426.09-2.852.246-4.27-.56-.051-1.478-.161-2.006.07-.654.288-.436.624-.405 1.382l.165 4.148M204.151 893.6c-.018.648-.254 1.298-.117 1.932.014.064.035.132.087.171.048.037.114.041.176.043.612.024 1.235.04 1.829-.114.593-.154 1.163-.504 1.444-1.048.054-.103.095-.233.035-.333-.039-.064-.11-.1-.179-.129a2.624 2.624 0 0 0-1.509-.165c-.122.023-.25.054-.366.01-.215-.084-.255-.366-.26-.597l-.078-3.145c-2.138.087-1.023 2.004-1.062 3.374"/>
            <path fill="#0B2540" d="M198.673 866.007l-1.884 15.165c-.21 1.697-.422 3.4-.405 5.111.01 1.19.133 2.38.363 3.549.055.278.124.572.327.772.175.172.423.247.663.301 1.227.277 2.504.168 3.758.059 1.02-.09 2.04-.18 3.06-.268.526-.046 1.08-.102 1.513-.406.49-.343.727-.934.94-1.492l1.823-4.783c.687-1.802 1.377-3.616 1.747-5.508a2.82 2.82 0 0 0-.149 1.888c.767.126 1.483-.53 1.72-1.268.237-.739.125-1.536.048-2.308-.28-2.831-.044-5.684-.025-8.529.02-2.844-.194-5.754-1.314-8.37-.151-.355-.328-.714-.627-.959-.223-.183-.5-.29-.772-.387-2.299-.827-5.003-1.543-7.47-1.379-1.643.11-2.6 2.018-2.91 3.428-.164.742.04 1.358.029 2.094-.018 1.082-.3 2.213-.435 3.29"/>
            <path fill="#BD640F" d="M208.172 846.596a4.989 4.989 0 0 0-4.125 1.91c-.502.653-.83 1.421-1.128 2.188a40.665 40.665 0 0 0-2.746 13.504c-.016.543 0 1.143.365 1.544.208.229.503.359.799.45 1.416.44 3.05.097 4.168-.877 1.2-1.047 1.73-2.642 2.25-4.146a83.885 83.885 0 0 1 3.288-8.095c.243-.52.495-1.048.566-1.616.095-.756-.138-1.513-.42-2.22-.654-1.635-1.127-2.55-3.017-2.642"/>
            <path fill="#999" d="M193.538 849.36c-.301.029-.62.066-.857.254-.248.195-.357.513-.45.814a46.673 46.673 0 0 0-.883 3.253c-.087.376-.146.836.145 1.09.123.108.287.155.444.198.707.194 1.424.39 2.156.387.733-.002 1.496-.23 1.994-.766.295-.32.478-.723.64-1.126a15.82 15.82 0 0 0 .934-3.365c.255-1.584-3.27-.82-4.123-.74"/>
            <path fill="#B1B8BA" d="M202.897 836.778c-1.128 1.836-1.846 3.886-2.691 5.867-1.02 2.389-2.233 4.69-3.444 6.988l.54.247a55.773 55.773 0 0 0 7.694-14.102c.122-.328.24-.692.115-1.018-.517-1.346-1.981 1.639-2.214 2.018"/>
            <path fill="#604B47" d="M189.107 852.558c.169.598.741 1.06 1.363 1.099a1.557 1.557 0 0 0 1.491-.918c.147-.345.16-.73.171-1.106l.019-.657c.005-.153.008-.31-.047-.452-.091-.233-.329-.383-.574-.437-1.44-.317-2.95.895-2.423 2.47M201.519 827.886c-.587.204-1.186.426-1.646.843-.869.79-1.039 2.067-1.155 3.234l-.236 2.366c-.019.194-.034.404.071.568.082.127.222.202.362.258 1.073.43 2.437-.11 2.921-1.157.063-.135.112-.277.2-.397.131-.18.333-.292.519-.414a4.253 4.253 0 0 0 1.817-2.678c.153-.758.175-2.165-.417-2.778-.599-.62-1.753-.081-2.436.155"/>
            <path fill="#151D10" d="M202.576 824.807c-1.102-.767-2.535-.887-3.873-.767-.407.036-.82.094-1.186.27-.4.19-.722.508-1.011.842-1.844 2.128-2.564 5.175-1.864 7.9.066.258.154.53.361.698.173.14.402.188.622.216a4.945 4.945 0 0 0 2.42-.303c.24-.095.478-.212.655-.4.53-.557.328-1.45.443-2.21.148-.98.887-1.805 1.776-2.25.895-.448 2.743-.124 2.972-1.183.227-1.048-.482-2.234-1.315-2.813"/>
        </g>
        <g>
            <path fill="#595E5F" d="M808.547 53.457c.756.618 1.78.797 2.756.823.15.004.307.004.44-.064.173-.086.277-.27.32-.457.126-.546-.19-1.092-.542-1.529a7.5 7.5 0 0 0-1.99-1.727c-.34-.202-.705-.38-1.098-.42-.437-.046-.87.083-1.291.21-.135.04-.277.087-.365.196-.176.22.502 1.155.635 1.411.298.573.628 1.143 1.135 1.557M815.104 48.762c.223.208.48.376.75.519.643.34 1.393.538 2.106.39.197-.04.399-.114.531-.265.206-.236.186-.607.034-.88s-.41-.47-.665-.65a15.115 15.115 0 0 0-1.616-.992 3.132 3.132 0 0 0-.664-.282c-.483-.127-1.166-.09-1.611.126.16.717.595 1.529 1.135 2.034"/>
            <path fill="#00596F" d="M806.375 37.713c-.13 2.054-.408 4.1-.415 6.158-.003 1 .059 2 .12 2.997l.188 3.089c.017.27.035.546.139.795.208.498.732.806 1.264.9.531.096 1.076.011 1.61-.073.191-.03.403-.072.518-.228.08-.109.096-.25.105-.384.074-1.117-.14-2.23-.186-3.349-.029-.723.012-1.447.057-2.17.242-3.917.584-7.829 1.025-11.728.038-.338.222-.785.552-.704 1.159 2.123 1.568 4.573 1.738 6.985.17 2.412.117 4.842.436 7.24.067.509 1.897.326 2.35.322.201-.001.419-.013.572-.143.177-.151.21-.41.216-.642.027-.906-.132-1.806-.211-2.71-.08-.913-.08-1.83-.08-2.748l.01-10.707c.002-.775.002-1.551-.07-2.323a46.967 46.967 0 0 1-4.224.915c-1.318.215-2.706.453-4.018.07-.598-.175-1.184-.506-1.8-.422-.456 1.451-.032 2.572.085 4.016.13 1.612.122 3.232.02 4.844"/>
            <path fill="#FFC39D" d="M811.638 3.297c-.477.03-.96.05-1.416.19-.457.14-.893.414-1.119.834-.196.366-.214.798-.227 1.213l-.052 1.584c-.052 1.588-.101 3.2.281 4.741.097.388.225.78.472 1.094.308.392.771.63 1.237.808.77.295 1.715.437 2.361-.074.374-.296.577-.767.641-1.24.065-.472.004-.952-.067-1.423-.073-.488-.158-.98-.35-1.433-.192-.454-.501-.874-.933-1.112-.063-.034-.132-.069-.168-.131-.062-.105.002-.247.105-.313.102-.066.23-.076.351-.084.734-.05 1.492-.128 2.132-.488.154-.087.304-.193.396-.344.094-.155.119-.342.135-.523a7.56 7.56 0 0 0-.037-1.66c-.047-.36-.094-1.234-.37-1.494-.292-.276-1.217-.223-1.592-.227-.595-.008-1.188.045-1.78.082"/>
            <g transform="translate(804 8.607)">
                <mask id="p" fill="#fff">
                    <use xlink:href="#o"/>
                </mask>
                <path fill="#E2938D" d="M3.028 10.892c-.132-.181-.39-.204-.615-.21-.556-.017-2.1.217-2.326-.338-.15-.368-.059-1.011-.065-1.407-.009-.473-.004-.945.014-1.417.027-.733.088-1.475.331-2.168.3-.855.865-1.593 1.485-2.254a13.994 13.994 0 0 1 2.642-2.2c.168-.109.371-.217.558-.146.188.073.266.293.323.487.18.615.39 1.254.848 1.702.7.68 1.933.71 2.664.062.73-.647.849-1.874.256-2.65.72-.444 1.727.026 2.366.581 1.371 1.189 2.017 3.035 2.174 4.842.157 1.807-.116 3.62-.285 5.426a46.986 46.986 0 0 0-.108 7.322c.02.306.038.632-.105.903-.102.193-.274.337-.447.47a9.333 9.333 0 0 1-6.547 1.864c-.902-.091-1.784-.314-2.662-.536l-1.761-.445a.632.632 0 0 1-.273-.117c-.12-.106-.142-.281-.155-.44a94.621 94.621 0 0 1-.156-2.267l-.18-2.96c-.018-.29-.24-1.254-.087-1.487.13-.196 1.008-.271 1.257-.346.16-.049.321-.101.46-.195.252-.17.401-.462.463-.76.063-.297.047-.605.032-.909-.007-.14-.017-.29-.1-.407" mask="url(#p)"/>
            </g>
            <path fill="#EAC3A0" d="M818.498 27.32c-.339.013-.69.028-.994.179-.303.15-.549.475-.495.81.062.383.465.608.837.721.686.21 1.413.234 2.13.258.117.003.24.006.342-.05.128-.07.195-.214.24-.353.115-.345.3-1.39-.076-1.632-.151-.097-.746.023-.93.03l-1.054.038"/>
            <path fill="#FFD3A4" d="M823.933 10.085c-.055.746-.109 1.492-.08 2.239.028.72.162 1.496.683 1.995.234.225.53.375.831.497a5.947 5.947 0 0 0 3.625.261c.292-.071.593-.175.79-.402.246-.284.271-.696.246-1.07a5.413 5.413 0 0 0-1.843-3.678 5.41 5.41 0 0 0-2.69-1.235c-.349-.054-.912-.184-1.208.067-.319.272-.327.954-.354 1.326"/>
            <path fill="#303C3E" d="M820.101 58.094c-.198.024-.431.075-.506.26-.04.1-.02.213.008.317.197.703.781 1.245 1.438 1.564.657.319 1.388.445 2.107.568.455.078.934.154 1.37 0 .39-.139.697-.448.949-.778.164-.215.316-.451.369-.718.053-.266-.01-.568-.216-.745-.363-.312-1.046-.218-1.488-.294-.403-.07-.784-.219-1.183-.3-.921-.188-1.925.015-2.848.126M827.106 53.54c-.09.01-.186.026-.252.09-.072.068-.088.176-.096.276-.037.442.003.924.286 1.267.163.196.39.328.62.44a6.483 6.483 0 0 0 2.73.667c.53.01 1.08-.05 1.533-.327.452-.276.777-.81.676-1.33a.502.502 0 0 0-.154-.299.648.648 0 0 0-.258-.108c-.716-.183-1.411-.509-2.123-.655-.949-.194-2.008-.145-2.962-.022"/>
            <path fill="#746F70" d="M822.069 56.12c.028.921.06 1.848-.08 2.758 1.291.024 2.58.151 3.849.38.542-1.723.447-3.571.418-5.378-.066-4.071.23-8.149.882-12.168.085-.529.324-1.19.86-1.195.86 2.808.76 5.803.815 8.738.035 1.793.13 3.584.288 5.37l2.943.21c.199.015.413.025.58-.084.224-.149.272-.453.29-.721.06-.913.014-1.83-.024-2.745a141.156 141.156 0 0 1-.077-9.326c.062-2.484.182-5.018-.512-7.404-1.1.987-2.625 1.363-4.1 1.458-1.476.096-2.96-.054-4.435.045-.384.026-1.421-.166-1.716.07-.355.281-.15 1.386-.151 1.798-.004 1.47-.008 2.938-.007 4.407.002 2.96.017 5.92.065 8.878.026 1.637.062 3.274.112 4.91"/>
            <path fill="#EAC3A0" d="M826.693 14.85c.011-.037.024-.076.054-.101.04-.033.095-.033.146-.03l1.587.066c.41.016.847.026 1.195-.189l.006 1.17c0 .04 0 .083-.025.114-.03.039-.084.046-.132.05-1.065.09-2.112 0-3.173.14.018-.39.223-.836.342-1.22"/>
            <path fill="#FFD3A4" d="M820.08 28.796c-.228 2.278.156 4.593-.175 6.857-.061.418-.13.897.146 1.216.303.352.897.302 1.263.015.366-.287.558-.737.724-1.171.826-2.162 1.38-4.42 1.785-6.698.288-1.615.665-3.375.636-5.016-.98-.125-2.296-.256-3.041.543-.953 1.024-1.205 2.93-1.337 4.254"/>
            <path fill="#238780" d="M829.861 15.29c.235.034.439.176.624.323 1.507 1.196 2.437 3.005 2.88 4.876.444 1.87.44 3.817.356 5.738a71.911 71.911 0 0 1-.986 9.15c-.032.188-.07.385-.19.534-.117.143-.294.22-.465.289a14.863 14.863 0 0 1-9.497.502c-.316-.09-.65-.203-.852-.462-.169-.218-.217-.504-.245-.778-.131-1.327.113-2.66.356-3.97.144-.777.29-1.561.6-2.288.34-.798.866-1.504 1.252-2.28 1.176-2.367.95-5.216.114-7.722-.545-1.639.366-2.505 1.82-3.178.503-.232.992-.284 1.537-.336.787-.076 1.947-.507 2.696-.398"/>
            <path fill="#426662" d="M822.79 17.85c-.244.134-.494.276-.66.5-.152.202-.22.453-.286.698-.229.862-.45 1.725-.663 2.59-.156.635-.308 1.291-.2 1.936.02.113.05.23.133.31.076.072.183.1.285.124 1.288.308 2.6.514 3.921.615.176.013-.3-4.622-.375-5.022-.101-.54-.15-1.477-.54-1.913-.455-.507-1.123-.107-1.615.162"/>
            <path fill="#764A39" d="M824.047 7.956c-.232.21-.443.463-.517.766-.074.304.022.666.29.828.232.141.534.108.776.229.443.22.5.817.498 1.311l-.006 1.278a2.55 2.55 0 0 1 1.017-.891c.405.36.336 1.005.18 1.524-.154.518-.36 1.088-.13 1.579.032.07.074.137.13.188.133.12.323.142.501.156.673.053 1.349.062 2.022.03.995-.049 2.108-.262 2.663-1.088.333-.497.395-1.122.417-1.72.026-.73.005-1.464-.063-2.192-.042-.447-.104-.902-.307-1.303-.26-.512-.734-.892-1.256-1.132-.523-.239-1.095-.348-1.664-.426-1.703-.233-3.207-.356-4.551.863"/>
            <path fill="#FFC39D" d="M804.833 22.073c.384 1.19 1.19 2.215 2.158 3.009.967.793 2.094 1.37 3.248 1.856a25.785 25.785 0 0 0 5.884 1.69c.44.072.9.13 1.327.002.6-.182 1.06-.756 1.107-1.381.015-.199-.012-.407-.121-.573-.266-.404-.851-.384-1.334-.353a9.695 9.695 0 0 1-6.23-1.804 9.68 9.68 0 0 1-3.662-5.35c-.441-.006-2.783-.278-2.967.046-.102.181.232 1.163.271 1.403.082.49.165.981.319 1.455"/>
            <g transform="translate(807.14 .24)">
                <mask id="r" fill="#fff">
                    <use xlink:href="#q"/>
                </mask>
                <path fill="#6A4D4B" d="M8.1 3.521c-.233.066-.5.018-.73-.073-.29-.113-.554-.287-.85-.38-.599-.19-1.246-.032-1.854.127-.212.056-.432.115-.606.25-.408.318-.19 1.095-.175 1.545-.258.06-.526.08-.79.06a.887.887 0 0 0-.71-.897.516.516 0 0 0-.378.063c-.162.11-.207.34-.158.53.049.19.171.35.292.506.08.105.2.221.324.173a62.68 62.68 0 0 0-.014 1.718c.001.343-1.303-.197-1.412-.294C.615 6.472.38 5.827.276 5.285.084 4.259.318 3.168.88 2.288 1.441 1.408 2.318.742 3.302.395c.4-.14.816-.231 1.238-.269a4.057 4.057 0 0 1 1.59.156c1.382.443 1.874 1.675 2.198 2.985.01.044.02.094-.003.133a.156.156 0 0 1-.057.05.704.704 0 0 1-.168.071" mask="url(#r)"/>
            </g>
        </g>
    </g>
</svg>
