<svg xmlns="http://www.w3.org/2000/svg" xmlns:xlink="http://www.w3.org/1999/xlink" width="857" height="962" viewBox="0 0 857 962">
    <defs>
        <path id="a" d="M.026.27h3.197v3.496H.026z"/>
        <path id="c" d="M.03.158h6.081v4.295H.031z"/>
        <path id="e" d="M0 .105h25.986V10.17H0z"/>
        <path id="g" d="M0 202.97h251.851V0H0z"/>
        <path id="i" d="M.185.255h4.206v5.41H.185z"/>
        <path id="k" d="M.183.29H7.81V20.52H.183z"/>
        <path id="m" d="M0 51.71h33.994V.293H0z"/>
        <path id="o" d="M.259.107h13.405v15.928H.26z"/>
        <path id="q" d="M.226.22H6.59v7.594H.226z"/>
        <path id="s" d="M.253.125h10.545v17.321H.253z"/>
        <path id="u" d="M.231.232h12.74v28.236H.231z"/>
        <path id="w" d="M.176.27h11.266v15.618H.176z"/>
        <path id="y" d="M1.427.16c-.125.047-.29.046-.456.045C.73.203.487.202.355.345c-.21.228-.224.667-.262.97-.197 1.55.122 4.09.376 5.615.38 2.274.63 4.567.827 6.864.014.162.047.351.192.422.078.037.17.03.256.02l.445-.045c.067-.007.14-.016.189-.064.056-.055.06-.142.062-.222.056-3.046 1.252-5.967 1.49-9.005.118-1.523-.006-3.052-.13-4.574C3.79.204 2.597.132 1.902.132c-.244 0-.426.009-.475.027"/>
        <path id="A" d="M1.682.961c-.507.137-1.557.059-1.514.724.047.73.567 1.643.823 2.328A67.207 67.207 0 0 0 2.994 8.8c.302.652.615 1.953.872 2.625.108.28.215.578.443.774.229.195.625.23.804-.01.119-.16.107-.376.09-.573C4.89 7.994 4.57 3.706 3.749.165c.037.162-1.872.744-2.067.796"/>
        <path id="C" d="M.284.118h20.943V16.22H.284z"/>
    </defs>
    <g fill="none" fill-rule="evenodd">
        <path fill="#2D1311" d="M131.746 1.758c4.827-.36 9.94.816 13.84 3.18.633.383 1.153 1.018 1.304 1.756.22 1.086-.548 2.128-1.392 2.821-2.698 2.214-6.384 2.55-9.827 2.57-2.72.014-5.479-.118-8.07-.96-1.915-.62-7.866-3.51-5.684-6.292 1.916-2.442 7.068-2.87 9.83-3.075"/>
        <path fill="#88604C" d="M135.59 47.584c.187-2.52.697-5.004 1.206-7.48-.422-.258-.981-.02-1.341.32s-.633.781-1.056 1.038c-.226.138-.497.223-.66.432-.128.161-.171.372-.21.575-.492 2.556-1.003 5.225-.472 7.818.182.893.84 2.326 1.773 1.125.75-.965.674-2.678.76-3.828"/>
        <g transform="translate(133.711 58.076)">
            <mask id="b" fill="#fff">
                <use xlink:href="#a"/>
            </mask>
            <path fill="#31201D" d="M.7.39a.408.408 0 0 0-.222.008C.402.431.353.505.314.578c-.213.4-.247.87-.276 1.324-.023.36-.036.756.185 1.04.124.16.308.261.486.358.342.187.693.377 1.077.444.385.067.816-.01 1.086-.293.218-.23.3-.558.332-.874.055-.55.017-1.792-.496-2.17C2.244.065 1.308.485.7.391" mask="url(#b)"/>
        </g>
        <path fill="#88604C" d="M133.378 16.5a5.307 5.307 0 0 1-1.365 1.721c.385 1.301 1.59 2.317 2.933 2.473.473.055 1.01-.014 1.317-.379.144-.17.221-.387.293-.598.163-.485.446-1.182.247-1.69-.177-.452-.444-.702-.501-1.228-.229-.028-2.936-.275-2.924-.299"/>
        <path fill="#B78865" d="M135.219 52.97c-.133-1.133-.118-2.278-.135-3.418a59.285 59.285 0 0 0-.328-5.396c-.03-.286-.074-.597-.28-.798-.226-.22-.572-.238-.886-.244-.86-.017-1.904.071-2.29.842-.217.433-.141.95-.059 1.427a151.017 151.017 0 0 0 2.81 12.871c.443 1.673 1.977 2.718 2.017.279.03-1.878-.632-3.711-.85-5.563"/>
        <path fill="#21160A" d="M137.486 16.086a3.05 3.05 0 0 1-1.65 1.465c-.705.259-1.509.24-2.201-.052-.405-.17-.776-.437-1.026-.798-.25-.361-.369-.823-.274-1.253.034-.153 2.704.001 2.973.014.495.022.99.054 1.484.097.507.044 1-.075.694.527"/>
        <path fill="#284254" d="M134.835 43.863a26.923 26.923 0 0 0 4.623-10.904c.044-.244.077-.52-.072-.716-.167-.22-.483-.24-.758-.237-3.263.036-6.564.8-9.759.13.111 2.742.44 5.474.983 8.163.179.888.387 1.788.843 2.57.844 1.447 2.908 2.706 4.14.994"/>
        <path fill="#618466" d="M140.242 30.034c.04.84-.006 1.747-.516 2.415-.551.723-1.504.986-2.395 1.162a27.907 27.907 0 0 1-4.528.513c-.745.023-1.506.015-2.218-.21-.712-.224-1.378-.694-1.682-1.377-.366-.822-.17-1.775.731-1.803 1.12-.036 2.328.382 3.487.373 2.408-.018 4.787-.517 7.12-1.073"/>
        <path fill="#B78865" d="M139.753 15.14l2.1.024a10.235 10.235 0 0 1-1.127 5.592c-.324.619-.717 1.217-.865 1.9-.097.449-.082.918-.196 1.363-.113.446-.403.893-.85.995-.358.083-.739-.082-1.004-.338-.266-.255-.438-.591-.598-.923-.326-.676-.63-1.385-.654-2.135-.088-2.717 2.653-4.005 3.194-6.477"/>
        <path fill="#D8D5D4" d="M139.622 24.358a1.56 1.56 0 0 1-1.963-1.162c-.355-1.623-.175-3.404-.252-5.097-.01-.246-.144-.582-.38-.511-.082.025-.14.096-.186.167-.462.71-.34 1.795-1.041 2.269-.634.427-1.503.034-2.06-.488-.558-.523-1.03-1.197-1.754-1.441a.54.54 0 0 0-.266-.036c-.385.069-.32.64-.17 1.003.65 1.586.956 3.314.889 5.029-.028.71-.301 1.604-1.008 1.653-.52.036-1.444.148-1.5-.063-.054-.201-.186.367-.213.573l-.504 3.837c-.038.29-.069.613.103.85.174.242.496.311.789.363 2.91.513 6.006 1.008 8.737-.122.412-.17 1.164-.487 1.346-.94.187-.469-.13-1.21-.212-1.702a26.866 26.866 0 0 1-.355-4.182"/>
        <path fill="#B78865" d="M129.224 16.802c-.627-.754-1.104-1.632-1.797-2.325-1.003-1.003-2.39-1.54-3.783-1.796a.667.667 0 0 0-.25-.012c-.397.082-.321.678-.127 1.035.968 1.78 2.407 3.25 3.593 4.894a20.135 20.135 0 0 1 2.885 5.769c.23.734.493 1.573 1.195 1.882.5.22 1.105.085 1.543-.24.438-.326.727-.817.925-1.327.66-1.707.274-3.636-.784-5.088-.912-1.252-2.422-1.615-3.4-2.792"/>
        <path fill="#E0A16C" d="M134.75 8.572c.128.231-.041.524-.345.598-.08.019-.174.03-.22.083-.124.15.295.34.177.493-.032.04-.094.06-.152.075-1.147.305-2.544.026-3.4-.678-.287-.238-.518-.518-.848-.719-.38-.231-.926-.402-.995-.766-.047-.245.156-.464.349-.654.5-.494.67-.936 1.433-.518.452.248.675.666 1.006.99.326.321.658.57 1.16.732.313.102 1.698.115 1.836.364M131.092 11.274c.337-.257.309-.8-.148-.935-.473-.141-1.152.182-1.423-.15-.09-.11-.077-.248-.12-.372-.098-.282-.483-.467-.858-.5-.374-.034-.742.05-1.097.132-.197-.101-.094-.344.09-.449.184-.104.429-.156.552-.304.28-.334-.325-.75-.85-.776-.525-.025-1.075.121-1.56-.048-.19-.166.024-.41.247-.535.223-.126.497-.295.415-.504-.07-.179-.351-.242-.581-.303-.23-.061-.49-.22-.413-.392.032-.072.115-.12.173-.18.241-.25-.138-.685-.535-.616.259-.38.199-.884-.148-1.24-.347-.357-.962-.548-1.517-.47-.161.022-.323.068-.433.16-.37.305.052.803.47 1.093-.481.09-.721.59-.44.917.148.172.42.363.287.534-.166.214-.702.014-.889.217-.066.07-.06.168-.05.258l.155 1.464c.01.094.021.193.09.274.176.211.586.167.883.27.507.174.565.702.87 1.061.449.53 1.374.632 2.17.767.554.093 1.096.228 1.623.394.953.302 2.114.933 3.037.233"/>
        <path fill="#E0A16C" d="M129.371 5.335c.322.204.739.42 1.108.297a.613.613 0 0 0 .4-.453c.244-1.043-1.55-1.9-1.447-2.96.047-.492.51-.947.352-1.431-.315-.152-.69.056-.941.251l-.932.72c-.353-.149-.177-.726-.573-.751a.406.406 0 0 0-.218.056c-.364.202-.315.623-.395.967-.093.396-.395.735-.597 1.103a2.4 2.4 0 0 0-.29.919 2.038 2.038 0 0 0 .601 1.675c.48.471 1.281.767 2.029.668.058-.007.12-.019.158-.053.036-.032.044-.078.047-.12.02-.275-.099-.558-.324-.777-.202-.197-1.58-1.216-.728-1.434.188-.048 1.437 1.125 1.75 1.323"/>
        <g transform="translate(131.4 .132)">
            <mask id="d" fill="#fff">
                <use xlink:href="#c"/>
            </mask>
            <path fill="#E0A16C" d="M5.198 3.058c.3.081.686.07.846-.131.162-.206.002-.476-.16-.69-.332-.444-.68-.888-1.135-1.263C4.294.6 3.716.294 3.07.192 1.837-.001.572.649.182 1.552c-.39.903.011 1.962.847 2.702.15.134.408.267.58.16.106-.067.11-.19.1-.298-.052-.644-.213-1.321.109-1.906.091-.167.342-.34.533-.224.12.072.116.208.102.322l-.074.57c-.053.403-.02.923.472 1.086.335.11.73-.03.926-.255.197-.226.236-.514.237-.79.002-.25-.033-.494.071-.721.273.362.563.712 1.114.86" mask="url(#d)"/>
        </g>
        <path fill="#E0A16C" d="M142.28 11.958c-.053.363-.397.576-.759.694a.982.982 0 0 1-.496.053c-.332-.064-.622-.358-.954-.443-.197-.05-.385-.02-.572-.01-.974.059-2.108-.421-2.854-1.206-.162-.172-.309-.439-.153-.545l-.833-.524a.634.634 0 0 1-.15-.118.353.353 0 0 1-.074-.248.5.5 0 0 1 .488-.492c.285-.01.637.232.684.503.165-.142.056-.444.163-.63.143-.25.7-.105.816.213.078.217-.034.411-.01.627.037.325.44.656.786.645.449-.013.625-.483 1.047-.565 1.368-.262.696 1.4 1.158 1.652.159.087 1.93-1.103 1.712.394M140.293 8.16c-.28.363-.655.72-1.192.82-.536.1-1.228-.194-1.224-.622.001-.195.137-.368.27-.53l.911-1.12c-.459-.12-.786.297-1.049.597-.345.395-.882.683-1.484.807-.387.079-.932.023-1.03-.282-.106-.324.386-.53.74-.706.386-.192.69-.476.862-.804-1.193.198-1.99 1.232-3.222 1.207-.154-.002-.329-.033-.414-.134-.06-.071-.06-.16-.05-.243.058-.433.393-.831.88-1.043-.445-.05-.89-.1-1.334-.148-.13-.015-.278-.04-.34-.128-.083-.118.047-.253.19-.321.682-.328 1.68-.028 2.357-.361.597-.293.74-.984 1.387-1.208.303-.104.657-.082.994-.058.604.044 1.24.097 1.742.373.427.235.6.597.561.977-.068.662-.422.336.259.872.8.63.775 1.287.186 2.055M142.08 4.42c.209.089.494.08.644-.056.319-.285-.118-.882.314-1.06.086-.036.205-.052.234-.124.038-.096-.114-.17-.233-.217a1.559 1.559 0 0 1-.702-.526c-.137-.192-.207-.408-.357-.594-.324-.4-.945-.581-1.52-.736-.204-.055-.414-.11-.628-.107-.397.006-.726.21-1.024.404-.354.232-.723.479-.874.82-.157.357-.05.754.059 1.13.023.079.049.162.12.223.15.126.42.093.593-.001.175-.094.301-.235.482-.32l.552.568c.12.123.244.25.413.332.849.414.562-.531.995-.587.535-.068.49.666.931.852M144.048 9.085c.164-.025.335-.04.487-.094.252-.088.421-.27.626-.413.205-.143.505-.252.763-.156.21.078.316.274.306.45-.01.177-.115.34-.227.49-.237.321-.516.622-.831.898-.141.123-.293.243-.488.31-.175.061-.372.075-.566.086-.354.02-.722.029-1.059-.07-1.569-.458.195-1.377.989-1.5M145.86 6.843c.09.36-.045.742-.355 1.008-.186.157-.424.272-.66.385-.837.4-2.117 1.089-3.195.867-.753-.154-1.038-.553-.482-.898.509-.317 1.405-.302 1.974-.597.436-.226.718-.58 1.225-.73.141-.041 1.458-.175 1.493-.035"/>
        <path fill="#E0A16C" d="M141.353 5.977c-.357.142-.598.45-.557.764.04.314.387.606.794.638.625.05 1.047-.433 1.582-.668.315-.139.683-.192 1.025-.289.342-.097.681-.259.807-.522.131-.277-.018-.61-.306-.818-.288-.208-.69-.3-1.077-.306-.533-.007-1.07.137-1.589.023-.286-.063-.542-.202-.833-.25-.29-.05-.655.04-.7.263-.029.133.068.265.16.383.47.602.94.886 1.831.787a1.649 1.649 0 0 0-1.137-.005"/>
        <g transform="translate(121 5.636)">
            <mask id="f" fill="#fff">
                <use xlink:href="#e"/>
            </mask>
            <path fill="#7B5932" d="M14.923 5.073c-2.686.386-5.447.481-8.066-.23C4.24 4.132 1.761 2.543.3.105c-.488.898-.282 2.023-.062 3.03C.59 4.751.997 6.47 2.13 7.59c.738.73 1.708 1.122 2.673 1.421 3.698 1.146 7.616 1.156 11.474 1.158 1.387 0 2.794-.002 4.132-.411 1.664-.51 3.128-1.693 4.123-3.214.583-.891 2.195-5.555 1.057-4.713-1.889 1.4-4.008 2.18-5.038 2.418-2.737.634-3.615.534-5.628.824" mask="url(#f)"/>
        </g>
        <g transform="translate(45 208)">
            <path fill="#A36B58" d="M135.776 130.837c-.132.111-.27.226-.438.265a1.106 1.106 0 0 1-.32.012l-3.184-.189c.87 1.395 2.355 2.264 3.782 3.078l1.313-1.094c.475-.397.953-.797 1.354-1.27.221-.26.418-.543.613-.824l2.037-2.931c.3-.433 1.018-1.66.404-2.141-.451-.354-1.402 1.096-1.707 1.423a46.172 46.172 0 0 1-3.854 3.671"/>
            <path fill="#151317" d="M136.634 159.071l-.997 1.056c-.155.164-.31.328-.458.497-.219.249-.424.508-.628.767l-1.13 1.432c-.082.104-.954-.278-.954-.278s1.625-1.691 2.682-2.909c.458-.529.89-1.08 1.385-1.58.494-.497 1.048-.94 1.57-1.41a16.93 16.93 0 0 0 3.06-3.663c.067-.108.42.462.432.515.07.296-.038.397-.206.598-.455.547-1.045 1.054-1.543 1.578-1.073 1.13-2.143 2.264-3.213 3.397"/>
            <path fill="#12130F" d="M145.448 158.775c.035-.026.073-.057.08-.1.01-.063-.048-.114-.101-.151l-.294-.207-.965.852a4.5 4.5 0 0 1-.609.478c-.191.117-.399.206-.594.316-.223.127-.43.281-.614.46-.039.037-.078.079-.089.132-.014.07.027.139.072.194.094.115.22.209.364.24.412.09.979-.737 1.265-.995.477-.428.972-.835 1.485-1.22"/>
            <path fill="#8D9FB5" d="M145.28 158.57c.034-.025.072-.056.079-.099.01-.063-.048-.114-.1-.151l-.294-.206-.966.85a4.474 4.474 0 0 1-.609.478c-.191.118-.399.207-.594.317-.223.127-.43.281-.614.46-.039.037-.078.079-.089.132-.014.07.027.139.073.194a.669.669 0 0 0 .363.24c.413.09.979-.737 1.265-.995.477-.428.972-.835 1.485-1.22"/>
            <path fill="#151317" d="M148.45 165.337l-.851-.418c-.583-.286-1.166-.573-1.74-.875a34.527 34.527 0 0 1-3.242-1.943l.25-.416 3.953 1.902c.592.284 1.188.572 1.72.955.327.236.634.607.449 1.019-.188-.047-.365-.139-.54-.224M141.415 162.21l-8.931 1.195.429-.564 8.676-1.543z"/>
            <path fill="#8D9FB5" d="M141.415 161.705l-8.502 1.136-.158-.568 8.834-1.48z"/>
            <path fill="#12130F" d="M141.077 162.273c.004.02.01.038.018.054.077.152.353.199.5.223.37.06.76.073 1.122-.037.103-.032.32-.077.392-.164.113-.136.053-.463.089-.638a1.006 1.006 0 0 0-.08-.681c-.207-.401-.789-.456-1.193-.408-.241.028-.719.17-.824.377-.134.264-.056.648-.03.929.007.095-.016.242.006.345"/>
            <path fill="#181C1E" d="M151.174 117.81c.256-.893.471-1.819.403-2.749-.067-.93-.46-1.874-1.193-2.383-.605-.418-1.359-.497-2.08-.503-.586-.005-1.298.12-1.512.702a.582.582 0 0 0-.038.264c.04.356.45.485.776.57.35.093.697.23.975.473.5.44.7 1.145.875 1.809.138.526.278 1.058.289 1.604.006.314-.03.63.018.94.25 1.638 1.288-.036 1.487-.728"/>
            <path fill="#0B0C0C" d="M147.774 112.337c.908-.182 1.9.132 2.538.804.941.99 1.02 2.498.988 3.864-.013.538-.036 1.084-.205 1.594-.36 1.093-1.429 1.913-2.576 1.98-1.148.066-2.303-.626-2.787-1.67-.048-.103-.093-.213-.18-.286-.236-.2-.583-.015-.876.085-.316.108-.658.104-.992.1l-2.597-.041c-.076-.001-.159-.005-.215-.056-.048-.043-.065-.11-.074-.174-.052-.34.035-.687.02-1.032-.016-.344-.185-.73-.52-.81-.299-.07-.585.127-.856.271-.59.317-1.295.41-1.948.26-.4-.092-.787-.273-1.198-.26-.93.032-1.728 1.048-2.62.779-.014.361-.414.653-.763.557a55.644 55.644 0 0 1-.087-4.637 7.314 7.314 0 0 0 2.685-1.537c.23-.207.462-.438.764-.508.39-.09.783.112 1.14.297a18.294 18.294 0 0 0 5.704 1.843c.656.098 2.124.476 2.692.105.294-.192.49-.739.802-.984.338-.268.738-.46 1.16-.544"/>
            <path fill="#333946" d="M149.762 117.805c-.172.427-.488.842-.938.935-.46.096-.936-.184-1.193-.577-.583-.888-.624-3.544.833-3.734 1.493-.194 1.66 2.476 1.298 3.376"/>
            <path fill="#1C201E" d="M143.89 110.751c-.664-.411-1.501-.378-2.281-.331-.713.042-1.436.086-2.114.314-.156.052-.314.118-.426.24a1.051 1.051 0 0 0-.199.38 7.58 7.58 0 0 0-.31 1.188c-.03.166-.053.338-.011.5.034.132.109.25.19.358.61.81 1.573 1.199 2.526 1.437.767.192 2.204.669 2.951.308.665-.321.679-1.24.785-1.872.18-1.055-.132-1.917-1.11-2.522"/>
            <path fill="#333946" d="M145.95 110.73c-.476.386-1.135.434-1.748.444a26.762 26.762 0 0 1-5.76-.532l.65-.372c.09-.05.179-.102.277-.13.139-.04.287-.03.43-.022 1.17.061 2.34.01 3.505-.065.436-.028.8-.027 1.244.087.154.04 1.392.597 1.401.59"/>
            <path fill="#0B0C0C" d="M139.225 117.259c-.142.45-.174.927-.205 1.398l-.036.56c-.02.301-.033.629.139.878.236.34.71.39 1.124.409.341.015.733.01.957-.249.127-.148.17-.348.205-.54.086-.49.141-.986.164-1.482.023-.5.005-1.031-.26-1.455-.725-1.158-1.764-.556-2.088.48M137.254 119.26l1.72-1.973-.176-.153-1.267 1.452c.04-.693.05-1.395.035-2.089l-.233.005c.018.802 0 1.613-.055 2.412l-.024.346z"/>
            <path fill="#0B0C0C" d="M135.199 119.994c-.105.084-.212.176-.26.301-.04.1-.037.21-.034.318l.02.74c1.031.155 2.072.248 3.114.28.206.006.42.008.608-.079.398-.184.522-.68.6-1.112.035-.195.069-.403-.004-.588-.726-1.843-3.05-.663-4.044.14M137.018 111.72l.234-.009a23.695 23.695 0 0 1 .038-2.415c1.117-.125 2.261-.021 3.37.081.684.063 1.39.128 2.089.139a1.719 1.719 0 0 0-.117.746l.233-.015a1.505 1.505 0 0 1 .168-.792l.09-.17-.193-.001c-.748-.002-1.511-.072-2.25-.14-1.152-.105-2.344-.215-3.514-.069l-.095.012-.007.096a23.97 23.97 0 0 0-.046 2.536"/>
            <path fill="#333946" d="M142.383 110.092l.699-.023c-.028-.86-.02-1.735.025-2.599l-.7-.035a31.908 31.908 0 0 0-.024 2.657"/>
            <path fill="#0B0C0C" d="M135.739 110.711c-.237-.033-.484-.067-.715-.024-.34.062-.638.303-.78.616l2.926.48c-.003-.063-.004-.127-.006-.19-.006-.27-.012-.55-.184-.694-.154-.128-.58-.148-.89-.163a4.235 4.235 0 0 1-.351-.025zm-1.804.778l.038-.127c.136-.455.542-.82 1.009-.905.27-.05.545-.011.789.023.085.012.201.017.33.023.381.019.814.039 1.028.216.254.212.261.56.269.869.002.114.004.222.018.317l.023.159-3.504-.575z"/>
            <path fill="#151317" d="M141.254 161.266c0-.23.356-.417.795-.417.438 0 .794.187.794.417 0 .231-.356.418-.794.418-.44 0-.795-.187-.795-.418"/>
            <path fill="#0B0C0C" d="M142.95 122.263c.004.29.066.573.094.86.027.29.019.582.01.873l-.045 1.565c-.005.18-.011.36-.055.535-.126.49-.585.874-1.089.91a1.23 1.23 0 0 1-.324-.982c.026-.204.103-.409.062-.611-.038-.192-.176-.347-.253-.526-.216-.501.066-1.072.04-1.617-.018-.335-.153-.655-.184-.99-.031-.339.046-.678.122-1.01.197-.862.313-2.062 1.45-1.214.746.555.157 1.451.171 2.207"/>
            <path fill="#333946" d="M144.46 116.902c-.003-.084-.007-.175-.06-.24-.061-.072-.163-.087-.256-.097a25.703 25.703 0 0 0-2.282-.15c-.248-.005-.517 0-.708.158-.207.169-.257.46-.29.726a24.663 24.663 0 0 0-.176 3.225c.805.052 2.918.522 3.583-.081.638-.578.204-2.754.188-3.541"/>
            <path fill="#CAD6E3" d="M142.893 126.31v8.115c-.441 0-.877-.003-1.283-.175v-7.883c-.05 0-.098-.005-.147-.01.43-.317 1-.364 1.43-.047M142.893 141.524v11.64c-.441 0-.877-.004-1.283-.251v-11.308c-.05 0-.098-.006-.147-.013.43-.456 1-.524 1.43-.068"/>
            <path fill="#1B0F11" d="M142.893 133.958v8.115c-.441 0-.877-.003-1.283-.176v-7.883c-.05 0-.098-.004-.147-.01.43-.316 1-.364 1.43-.046"/>
            <path fill="#12130F" d="M149.476 164.782c-2.513-3.773-4.872-7.957-6.96-11.982-.314-.054-.636-.044-.927.088 1.819 2.794 3.709 5.853 5.232 8.819.7 1.365 1.379 2.76 2.365 3.935.172-.313.118-.547.29-.86"/>
            <path fill="#CAD6E3" d="M150.17 164.879s-5.18-8.354-7.22-12.31c-.308-.054-.683.02-.967.15a95.842 95.842 0 0 1 4.903 8.501c.685 1.342 2.312 3.869 2.312 3.869l.973-.21zM136.284 159.071l-.997 1.056c-.155.164-.31.328-.458.497-.219.249-.424.508-.629.767l-1.128 1.432c-.082.104-.17.49-.298.537-.098.036-.657-.815-.657-.815s1.625-1.691 2.682-2.909c.459-.529.89-1.08 1.385-1.58.494-.497 1.048-.94 1.57-1.41a16.948 16.948 0 0 0 3.06-3.663c.068-.108.42.462.432.515.07.296-.038.397-.206.598-.455.547-1.045 1.054-1.543 1.578-1.073 1.13-2.143 2.264-3.213 3.397"/>
            <path fill="#12130F" d="M150.106 165.335a.475.475 0 0 1-.1.238.533.533 0 0 1-.098.077.487.487 0 0 1-.118.066.483.483 0 0 1-.148.015h-.264c-.096 0-.203-.004-.27-.072-.067-.068-.071-.177-.044-.268.027-.09.08-.172.113-.26.006-.017.012-.033.024-.045a.096.096 0 0 1 .028-.016c.216-.093.453-.101.68-.146.128-.025.179-.083.226.03.038.095-.01.284-.029.38"/>
            <path fill="#CAD6E3" d="M142.698 153.674v5.76c0 .536.074 1.134 0 1.666-.017.122.016.12-.098.203-.22.162-.676.128-.924.072a.428.428 0 0 1-.171-.07c-.231-.176-.09-1.078-.09-1.324v-2.294-3.96c-.05 0-.098-.004-.147-.008.43-.298 1-.343 1.43-.045"/>
            <path fill="#151317" d="M132.156 148.037c-.052.003-.111.01-.138.053a.156.156 0 0 0-.015.078l-.023.88c-.005.202-.01.408.034.606.045.198.143.391.309.508.196.139.451.152.69.151.1 0 .202-.003.293-.043.138-.06.227-.195.287-.333.129-.292.154-.613.153-.93-.001-.238.034-.57-.058-.799-.094-.236-.283-.219-.51-.211-.34.012-.682.027-1.022.04"/>
            <path fill="#12130F" d="M140.715 153.164a1.285 1.285 0 1 1 2.57-.001 1.285 1.285 0 0 1-2.57.001"/>
            <path fill="#151317" d="M132.185 162.514c-.013-.004-.026-.008-.038-.004-.015.005-.024.02-.03.035-.101.219-.18.448-.232.683.187.114.399.187.616.214.103.012.22.01.295-.06a.363.363 0 0 0 .085-.137c.082-.203.364-.293.19-.422-.178-.132-.677-.237-.886-.31"/>
            <path fill="#CAD6E3" d="M126.016 163.709c-.588-.505-.962-1.212-1.485-1.784-.023-.024-.047-.05-.08-.057-.038-.01-.077.01-.11.03-.283.177-.366.57-.28.894.085.324.301.595.512.855l.43.53c.151.188.304.376.484.536.695.615 1.69.723 2.614.802.85.073 1.537-.658.441-.922-.929-.224-1.75-.219-2.526-.884"/>
            <path fill="#FFF" d="M128.09 164.843c.296-.004.592-.008.887-.01-.02-.279-.217-.519-.455-.664-.237-.144-.514-.209-.784-.272-.202.303-.083.769.238.939"/>
            <path fill="#0F1110" d="M128.159 164.732c-.013.08-.04.164-.105.211-.059.044-.137.048-.21.047-.622-.015-1.18-.365-1.702-.704-.235-.152-.472-.307-.666-.51a3.611 3.611 0 0 1-.384-.513c-.18-.271-.358-.543-.537-.814-.079-.119-.16-.249-.152-.39.012-.204.208-.354.407-.397.524-.113 1 .303 1.375.686.534.547 2.062 1.544 1.974 2.384"/>
            <path fill="#8D9FB5" d="M137.615 151.67c.525.694 1.147 1.55.8 2.348-.187.428-.608.695-.965.996-.61.513-1.07 1.176-1.595 1.775-.61.696-1.31 1.308-2.006 1.917l-2.448 2.141c-1.258 1.1-2.519 2.203-3.883 3.169-.129.091-.268.184-.426.193-.256.014-.464-.195-.635-.387l-1.553-1.744c-.08-.09-.164-.188-.185-.307-.04-.225.151-.417.325-.564l3.906-3.324c.547-.465 1.095-.931 1.585-1.455.811-.867 1.453-1.879 2.032-2.916a31.99 31.99 0 0 0 1.219-2.42c.323-.717.556-2.06 1.097-2.614.74-.758.935.129 1.246.768.415.854.914 1.668 1.486 2.424"/>
            <path fill="#FFF" d="M137.22 170.629c.462.19.502.89.187 1.28-.314.389-.835.536-1.325.633a13.61 13.61 0 0 1-4.194.176c-.208-.023-.42-.054-.6-.16-.18-.106-.32-.308-.293-.515.047-.352.484-.477.835-.525 1.061-.145 2.083-.348 3.098-.692.663-.224 1.61-.48 2.291-.197"/>
            <path fill="#CAD6E3" d="M137.486 172.193c-.237.254-.59.39-.929.495-1.643.515-3.42.643-5.157.523-.394-.027-.896-.166-.9-.514-.003-.19.17-.354.368-.427.198-.073.42-.075.635-.075.722-.001 1.442.062 2.164.04.358-.01.717-.038 1.068-.111.348-.072.69-.055 1.03-.15.228-.062.456-.126.683-.189.174-.048.35-.096.518-.161.187-.071.382-.164.578-.124.073.015.147.055.176.123.023.057.012.121-.006.179a1.006 1.006 0 0 1-.228.391"/>
            <path fill="#0F1110" d="M135.443 170.44c.083-.007.17-.015.247.025.098.05.16.164.214.272.229.453.146.782.141 1.267 0 .165-2.3.574-2.54.592-.641.046-1.313-.095-1.83-.54-.042-.036-.086-.09-.068-.146a.14.14 0 0 1 .046-.059c.502-.434 1.031-1.049 1.653-1.23.66-.194 1.46-.117 2.137-.18"/>
            <path fill="#8295A8" d="M129.35 150.42c.151.163.317.322.398.53.072.183.07.386.069.583l-.078 6.91c-.008.699-.016 1.4-.118 2.092-.136.923-.436 1.814-.586 2.735-.155.942-.152 1.902-.148 2.856 0 1.07.008 2.14.012 3.21.003.973-.57 3.801 1.206 3.636.609-.057 1.496-.595 2.084-.82.787-.301 1.56-.687 2.073-1.38.083-.113.16-.237.171-.377.03-.395-.434-.607-.733-.867-.47-.408-.585-1.08-.672-1.698l-.304-2.176c-.12-.866-.242-1.737-.218-2.611.017-.65.116-1.296.237-1.935.471-2.472 1.293-4.856 1.965-7.276.322-1.162.71-2.38.726-3.583.018-1.354.136-2.714.204-4.067-1.16.1-2.335.026-3.473-.22-.48-.103-.959-.238-1.45-.261-.427-.021-.866.04-1.272-.09-.249-.08-.475-.231-.734-.27-.446-.07-.861.497-.964.896-.121.476.048 1.038.193 1.488.294.91.75 1.985 1.412 2.695"/>
            <path fill="#B67B63" d="M142.163 127.864a.879.879 0 0 1 .477.097c.932.499-2.027 6.316-2.44 6.953-1.434 2.21-3.949 1.661-6.375 1.395-.2-.022-.455-.109-.447-.31.004-.091.069-.168.129-.237.53-.613 1.058-2.204 1.707-2.589.94-.558 2.349.169 3.416-.305 1.187-.528 1.681-1.92 2.036-3.172.138-.487.283-.992.616-1.374.221-.255.553-.436.881-.458"/>
            <path fill="#090A0B" d="M133.359 131.92c.71.462 1.477.836 2.277 1.11-.52 1.155-1.063 2.344-1.991 3.205.42.098.85.157 1.281.176-.615.508-.616 1.441-.499 2.23.124.833.323 1.664.698 2.417.199.4.448.781.558 1.214.114.446.072.915.029 1.374-.01.113-.024.232-.093.321a.576.576 0 0 1-.254.16 6.895 6.895 0 0 1-1.343.384c-1.516.27-3.065.017-4.532-.394-.301-.085-.806-.143-1.06-.325-.293-.211-.201-.384-.223-.768-.08-1.444-.602-2.862-.915-4.267l-.993-4.453c-.094-.426-.19-.856-.177-1.291.013-.435.146-.883.452-1.194.392-.398.986-.502 1.541-.564 1.809-.2 3.673-.359 5.244.665"/>
            <path fill="#B67B63" d="M134.296 126.395c.092.15.059.336-.057.469a.805.805 0 0 0-.154.262c-.102.291-.03.613-.062.92-.05.48-.367.907-.778 1.156-.41.25-.906.336-1.386.312a.443.443 0 0 1-.217-.052c-.075-.048-.117-.133-.154-.214-.4-.865-.78-1.78-.74-2.733.017-.42.117-.833.24-1.235.121-.392.268-.784.517-1.11.25-.327.755-.802 1.166-.908.477-.122.575.484.723.88.071.19.54 1.662.902 2.253"/>
            <path fill="#090A0B" d="M134.098 126.072c-.06.214-.186.403-.37.49a.48.48 0 0 1-.154.046c-.217.023-.419-.146-.506-.347-.237-.553.087-.695-.654-.698-.137 0-1.418.127-1.436.09a.476.476 0 0 1-.003-.41 19.937 19.937 0 0 1 2.362-.175c.341-.003.598.042.737.368a.993.993 0 0 1 .024.636M128.09 145.89c.649.053 1.267.198 1.9.302 1.193.196 2.436.247 3.669.296.38.016.76.031 1.14.021.39-.01.658.06.82-.273.122-.249.126-.716.066-.981-.096-.422-.246-.318-.691-.294-.794.043-1.584.144-2.38.13-.919-.017-1.81-.184-2.707-.306-.303-.04-1.523-.279-1.68-.089-.112.136-.053.404-.069.555l-.069.64"/>
            <path fill="#1C201E" d="M128.126 144.698v.043c.563-.119 1.305.171 1.868.26 1.25.196 2.553.246 3.845.296.398.015.797.03 1.196.021.178-.005.395.1.52-.083.065-.097.077-.219.086-.335l.082-1.005c.003-.045.004-.099-.031-.128-.026-.022-.062-.022-.096-.022-.95.003-1.896.17-2.852.154-.963-.016-1.896-.183-2.837-.305-.427-.055-.862-.162-1.295-.159-.715.005-.495.683-.486 1.263"/>
            <path fill="#151317" d="M132.61 150.013c.064-.003.132-.008.181-.048.048-.039.068-.102.085-.162l.577-2c.11-.383.22-.764.325-1.148.032-.116.128-.358.08-.477-.063-.157-.298-.103-.473-.114-.266-.017-.532-.04-.797-.07-.237-.027-.386-.12-.5.085-.134.242-.183.59-.269.855-.168.515-.364 1.028-.506 1.551-.09.336-.11.72-.018 1.059.158.582.784.49 1.316.469"/>
            <path fill="#CAD6E3" d="M132.138 148.024l-.416-.185c-.078.248-.12.518-.124.79 0-.012 1.187.329 1.29.337.037-.115.067-.232.093-.353l.081-.38c-.312-.073-.616-.078-.924-.21"/>
            <path fill="#151317" d="M131.221 147.074l-.562 1.708c-.669-.373-1.476-.386-2.199-.638a.277.277 0 0 1-.13-.076c-.048-.06-.04-.144-.046-.22-.027-.329-.342-.612-.272-.934.02-.088.068-.167.112-.246.274-.484.45-1.023.514-1.575a7.352 7.352 0 0 1 1.855.503c.225.094.786.194.927.407.163.247-.117.823-.199 1.07"/>
            <path fill="#492317" d="M131.514 127.41c-.027-.308-.045-.63.07-.918.14-.349.456-.594.659-.91.344-.537.338-1.218.32-1.856-.003-.131-.01-.275-.1-.372a.47.47 0 0 0-.234-.122c-.48-.127-1.006-.014-1.47-.19-.367-.139-.655-.446-1.028-.565a1.433 1.433 0 0 0-.837.014c-.7.208-1.237.8-1.551 1.46-.315.661-.438 1.394-.558 2.116l-.04.243c-.251 1.512-.503 3.031-.533 4.564-.014.757.025 1.515.083 2.27.021.274 4.202.03 4.604-.03.484-.072 1.598-.098 1.618-.696.01-.328-.239-.799-.325-1.122a22.554 22.554 0 0 1-.678-3.885"/>
            <path fill="#38130B" d="M131.66 122.14l1.098-.019a.72.72 0 0 1 .28.034c.2.08.284.337.228.544-.057.208-.22.37-.398.49-.4.272-.895.382-1.378.37-.424-.012-1.891-.155-1.715-.795.175-.637 1.4-.617 1.884-.625"/>
            <path fill="#663531" d="M166.434 108.727c.035-.565.07-1.13.166-1.688.155-.894.47-1.775.422-2.682-.01-.218-.04-.45.057-.645.187-.374.7-.4 1.117-.374.373.024.755.05 1.093.208.75.35 1.09 1.266 1.038 2.092-.05.826-.408 1.596-.71 2.366a19.226 19.226 0 0 0-.982 3.379c-.03.152-.062.315-.168.427-.13.139-.338.167-.528.172-2.17.067-1.603-1.653-1.505-3.255"/>
            <path fill="#C69B93" d="M166.397 111.426l1.719.124c.068.006.146.016.183.074.028.044.022.1.015.152l-.276 2.042c-.057.426-2.017.287-2.281-.075-.472-.647.45-1.674.64-2.317"/>
            <path fill="#170D0A" d="M165.435 113.839a4.442 4.442 0 0 0-.392 1.034c-.054.222-.09.457-.03.677.092.327.377.557.646.765l1.17.9c.295.228.595.458.94.6.344.144.744.191 1.088.048.343-.145.606-.511.554-.88-.036-.256-.205-.468-.352-.68a5.112 5.112 0 0 1-.9-2.554c-.025-.362-2.44-.443-2.724.09"/>
            <path fill="#663531" d="M158.316 110.09l.032 1.932c.002.093.007.196.072.264.054.057.137.073.215.087l.661.119c.113.02.232.04.34.005.12-.037.21-.133.292-.226.76-.867 1.33-1.879 1.791-2.931.407-.93 1.11-2.263 1.17-3.283.036-.634-.407-.644-.982-.839-.41-.14-.836-.293-1.27-.33-.834-.07-1.369.313-1.74 1.048-.64 1.272-.597 2.77-.581 4.153"/>
            <path fill="#070706" d="M165.356 68.723c0-.2.04-.396.08-.59l.205-.982c.093-.449.191-.91.414-1.286.373-.632 1.053-.925 1.695-.893.642.033 1.253.348 1.81.734.375.259.743.563.98.999.384.71.338 1.694-.045 2.405a2.402 2.402 0 0 1-1.758 1.25c-.905.128-3.38-.031-3.381-1.637"/>
            <path fill="#703E34" d="M166.523 70.825l.022-.024a4.93 4.93 0 0 0 2.212.31c.08-.007.162-.015.236.014.172.068.206.29.231.474.152 1.115 1.47 1.84 1.462 2.694-.008.96-1.257 1.79-2.062 1.986-1.303.317-3.79-.203-4.138-1.744-.275-1.223 1.275-2.852 2.037-3.71"/>
            <path fill="#663531" d="M171.069 88.1c-.104.241-.191.528-.063.758.129.229.564.233.595-.029.035.357.52.506.846.361.328-.144.54-.46.77-.733.597-.702 1.377-1.128 2.065-1.698.73-.603 1.302-1.577 1.819-2.362.18-.272.36-.577.324-.9-.02-.196-.12-.374-.22-.545a31.51 31.51 0 0 0-1.937-2.951 7.562 7.562 0 0 0-1.944 1.716l1.236 1.879c-1.326 1.401-2.715 2.7-3.491 4.504M161.3 85.406c.214.264.439.535.524.863.086.328-.013.733-.316.886-.431.219-.908-.172-1.24-.524a44.593 44.593 0 0 0-4.166-3.908c-.396-.327-.823-.685-.937-1.186-.173-.76.454-1.475 1.122-1.878.087-.053.186-.105.286-.088.081.013.148.069.21.123 1.879 1.667 2.962 3.78 4.518 5.712"/>
            <path fill="#170D0A" d="M170.296 94.049c.557-.236 1.058-.593 1.623-.81.208.216.222.548.221.848a52.104 52.104 0 0 1-.864 9.324c-.05.26-.107.538-.292.728-.248.254-.643.277-.998.269-1.298-.033-2.789-.429-3.31-1.62-.159-.362-.207-.762-.248-1.156-.201-1.92-.592-4.359-.15-6.261.157-.678.5-.907 1.176-.951.99-.064 1.896.029 2.842-.371"/>
            <path fill="#170D0A" d="M159.872 103.35c-.12.328-.261.672-.2 1.017.07.4.398.703.736.928a4.679 4.679 0 0 0 3.823.595c.505-.144 1.001-.388 1.33-.8.579-.725.498-1.752.54-2.68.091-1.99.87-3.873 1.532-5.752.341-.97.653-2.047.276-3.003-.215-.546-.632-.983-1.039-1.406l-1.474-1.53c-.139-.145-.287-.295-.48-.351-.19-.055-.392-.01-.584.035-.745.177-1.536.387-2.045.958-1.097 1.23-1.457 3.542-1.537 5.15-.058 1.18-.093 2.362-.204 3.538a16.886 16.886 0 0 1-.237 1.708c-.096.482-.437 1.118-.437 1.592"/>
            <path fill="#C69B93" d="M164.86 74.15c.192.658.799 1.128 1.45 1.336.652.207 1.351.193 2.034.167.724-.028 1.54-.113 1.983-.686.253-.327.34-.77.635-1.057.52-.507 1.435-.275 1.945.242s.757 1.23 1.121 1.858c.435.748 1.055 1.406 1.303 2.235.09.297.129.61.252.893.318.73.892 1.139.764 2.005-.108.727-.565 1.34-1.105 1.814-.349.306-.923.729-1.424.646-.523-.088-.711-.677-.985-1.11.236 3.167.467 6.39-.229 9.49-.059.263-.126.529-.265.76-.326.544-.97.793-1.568 1.003-1.342.474-2.79.952-4.159.567-.817-.23-1.517-.747-2.237-1.198a15.807 15.807 0 0 0-3.345-1.583 59.2 59.2 0 0 0-.538-11.226c-.85.088-1.223 1.106-1.892 1.636-.112.088-.242.166-.384.165-.133-.001-.255-.07-.368-.14-.767-.475-2.135-1.368-2.095-2.327.046-1.075 1.061-2.283 1.787-2.987.895-.87 1.967-1.532 3.047-2.158 1.523-.884 3.213-1.741 4.85-2.329.103.244-.082.416-.239.625-.302.402-.487.848-.338 1.36"/>
            <path fill="#151317" d="M165.058 80.858c-.009.24.047.531.304.622.171.059.375-.001.504-.115a.826.826 0 0 0 .238-.424c.076-.28.079-.573.01-.855-.065-.27-.327-.67-.7-.467-.325.178-.344.948-.356 1.239M169.74 82.531c-.009.24.047.532.305.622.17.06.374 0 .504-.114a.827.827 0 0 0 .237-.424c.076-.28.08-.574.011-.855-.065-.27-.328-.67-.7-.467-.325.178-.345.947-.356 1.238"/>
            <path stroke="#151317" stroke-width=".594" d="M170.357 81.36a38.092 38.092 0 0 1 .014-6.695M165.688 79.723l-.684-6.073c-.065-.569-.058-1.267.511-1.557M170.338 81.289a87.269 87.269 0 0 1-5.054-5.637"/>
            <path fill="#663531" d="M169.806 67.76c-.384-.002-.754.03-1.112-.077-.487-.145-.773-.518-1.349-.43-.192.03-.374.11-.54.208-.642.383-1.057 1.052-1.239 1.754-.062.24.639 2.814.834 3.016.489.506 1.05.948 1.665 1.31.725.429 1.173.496 1.728-.19.3-.37.593-.756.755-1.196.173-.474.187-.984.198-1.485l.056-2.454c-.203-.026-.306-.246-.476-.356-.149-.095-.34-.1-.52-.1"/>
            <path fill="#C69B93" d="M158.175 111.984l1.719.124c.068.006.146.016.183.074.028.044.022.1.015.152l-.276 2.042c-.058.426-2.017.287-2.282-.075-.472-.647.451-1.674.64-2.317"/>
            <path fill="#170D0A" d="M157.172 113.839a4.442 4.442 0 0 0-.393 1.034c-.054.222-.09.457-.029.677.091.327.376.557.645.765l1.17.9c.296.228.596.458.94.6.344.144.744.191 1.088.048.344-.145.606-.511.554-.88-.036-.256-.204-.468-.352-.68a5.115 5.115 0 0 1-.9-2.554c-.025-.362-2.44-.443-2.723.09"/>
            <path fill="#141311" d="M160.764 92.077c.01.114.027.228.01.34-.027.17-.129.315-.217.461-.372.616-.53 1.334-.683 2.037l.727.327c.191.086.391.174.6.162.48-.028.763-.538.954-.98l.907-2.102a1.14 1.14 0 0 0 .114-.385c.011-.226-.117-.443-.289-.592-.902-.785-2.263-.77-2.123.732"/>
            <path fill="#6A131A" d="M161.599 93.847a5.9 5.9 0 0 1-1.092-.233l-.036.436c.205.034.404.099.589.194.072.037.153.08.23.055.156-.048.143-.3.284-.382"/>
            <path stroke="#141311" stroke-width=".594" d="M162.574 91.545l.539-1.465c.219-.594.44-1.194.78-1.728"/>
            <path fill="#6C7A75" d="M14.45 6.899a3.091 3.091 0 0 1-2.234.139c-.07-.023-.15-.048-.215-.013-.053.028-.08.088-.104.144-.295.706-.55 1.43-.764 2.165-.015.05-.028.11.004.15.023.03.062.04.099.05.525.116 1.059.06 1.591.052.297-.005.978.169 1.234.006.322-.204.245-.732.269-1.06.014-.188-.003-1.576.12-1.633"/>
            <path fill="#1E231C" d="M13.37 48.815c-.017.14-.038.288-.133.39-.108.117-.28.14-.439.154-1.676.154-3.363.1-5.045.047-.433-.014-.89-.034-1.256-.265-.364-.229-.587-.748-.343-1.103.18-.26.525-.334.835-.398a12.581 12.581 0 0 0 3.583-1.335c.202-.114.403-.233.622-.308.543-.187 1.75-.267 2.206.2.522.535.047 1.97-.03 2.618"/>
            <path fill="#190C0A" d="M4.128 9.246c.663.798 1.39 1.638 2.391 1.913.442.121.908.122 1.366.112.735-.015 1.47-.054 2.202-.116.603-.051 1.318-.2 1.538-.764.085-.217.076-.458.065-.69-.005-.13-.016-.272-.102-.369-.1-.111-.265-.127-.415-.134-2.286-.106-3.68-.81-5.63-1.897-.575-.321-1.48-.632-2.14-.384-1.275.48.23 1.733.725 2.329"/>
            <path fill="#6C7A75" d="M4.274 7.263c.141-.402-.169-.82-.505-1.082-.22-.172-.472-.32-.75-.351-.279-.031-.587.08-.724.325-.162.29-.04.664.16.931s.47.479.649.76c.05.08.1.17.186.209.11.05.24 0 .344-.062.238-.14.44-.34.585-.576"/>
            <path fill="#8D9FB5" d="M13.323 44.814c-.002.468-.016.963-.259 1.364-.242.401-.799.652-1.196.403-.383-.24-.423-.773-.427-1.226-.058-6.545-1.411-13.07-.91-19.596-.039.498 2.88.362 3.16.92.225.45-.104 1.348-.165 1.816-.097.751-.17 1.505-.225 2.26-.215 2.98-.135 5.972-.058 8.955.044 1.701.089 3.402.08 5.104"/>
            <path fill="#8295A8" d="M12.216 45.957c-.026.426-.06.851-.099 1.276-.019.206-.043.423-.165.589-.196.266-.57.312-.9.336-.898.064-2.001.021-2.423-.774-.124-.233-.165-.498-.205-.758l-.543-3.566c-.946-6.219-1.895-12.53-1.13-18.775l2.555.798c.684.213 1.87.34 2.44.765.832.62.134 3.15.106 4.158-.095 3.422.22 6.837.367 10.253.081 1.906-.003 3.794-.003 5.698"/>
            <path fill="#2E362B" d="M11.867 51.755l-8.233-.14a.593.593 0 0 1-.275-.049c-.11-.06-.17-.183-.193-.305-.068-.365.147-.735.441-.962.294-.226.656-.34 1.007-.462a16.315 16.315 0 0 0 2.917-1.353c.293-.173.586-.358.916-.443.25-.065.513-.069.772-.072.564-.009 2.66-.373 2.941.218.174.364-.086 1.273-.123 1.674l-.17 1.894"/>
            <path fill="#A88E7C" d="M10.38 5.884c-.161-.484-.163-1.005-.135-1.513.033-.598.107-1.194.219-1.783.056-.295.135-.61.363-.806.241-.208.587-.228.906-.238.635-.019 1.308-.03 1.859.287.574.33.915.972 1.026 1.625.112.652.023 1.322-.089 1.974-.173 1.01-.195 2.674-1.598 2.448-1.062-.17-2.206-.951-2.552-1.994"/>
            <path fill="#663531" d="M10.924.819c.099-.2.202-.406.37-.552.286-.247.697-.272 1.074-.266 1.518.025 3.206.497 3.943 1.826.483.871.45 1.96.112 2.897-.337.937-.948 1.75-1.591 2.51-.107.126-.225.257-.385.296-.186.045-.376-.049-.538-.153a3.404 3.404 0 0 1-1.112-1.181c-.18-.32-.308-.668-.52-.966-.513-.716-1.433-1.146-1.809-1.972-.356-.782.11-1.736.456-2.44"/>
            <path fill="#190C0A" d="M10.17 9.181a16.796 16.796 0 0 1 2.768-.201c1.048.01 2.2.17 2.899.953.786.881.711 2.21.575 3.383a127.44 127.44 0 0 1-2.092 12.499c-.058.265-.13.553-.344.721-.205.16-.486.169-.745.178-1.324.047-2.654.295-3.964.104-1.31-.19-2.658-.96-3.02-2.235-.141-.495-.122-1.02-.101-1.533l.17-4.287c.06-1.483.121-2.982.517-4.413.197-.71.511-1.393.68-2.11.112-.48 0-.934.08-1.394.203-1.162 1.57-1.507 2.577-1.665"/>
            <mask id="h" fill="#fff">
                <use xlink:href="#g"/>
            </mask>
            <path fill="#090D01" d="M.926 6.292H2.9V2.34H.926z" mask="url(#h)"/>
            <path fill="#6C7A75" d="M1.802 6.403a.883.883 0 0 0-.326-.396c-.218-.131-.507-.106-.73.018-.223.124-.387.333-.509.557-.25.46-.332 1.04-.1 1.51.148.297.752.84 1.103.556a.817.817 0 0 0 .195-.281c.148-.296.362-.604.476-.908.119-.314.027-.764-.11-1.056" mask="url(#h)"/>
            <path fill="#190C0A" d="M2.75 8.15c-.325-.582-.797-1.246-1.46-1.189C.68 7.013.304 7.687.259 8.3c-.093 1.296.767 2.448 1.61 3.437 1.098 1.288 2.392 2.614 4.07 2.828.812.104 1.631-.069 2.426-.265.356-.087.727-.189.994-.44.268-.25.385-.7.159-.99-.25-.316-.728-.275-1.13-.272-1.05.01-2.061-.452-2.892-1.095-1.19-.92-2.022-2.059-2.746-3.354" mask="url(#h)"/>
            <path stroke="#141614" stroke-width=".594" d="M183.4 108.644c-.034 1.072-.023 2.156.221 3.2.162.69.422 1.351.682 2.01.144.366.29.734.5 1.066.4.63 1.01-1.242 1.606-.793" mask="url(#h)"/>
            <path fill="#4F301F" d="M189.349 117.81c.042-.157.086-.327.025-.479-.072-.182-.27-.276-.456-.34a4.095 4.095 0 0 0-.834-.193c-.096-.011-.2-.018-.283.032a.451.451 0 0 0-.15.183c-.733 1.352-.887 2.933-1.026 4.466l-.117 1.287c-.042.462-.084.934.03 1.384.114.45.414.88.856 1.02 1.676.53 1.234-1.917 1.265-2.756.056-1.554.287-3.102.69-4.604" mask="url(#h)"/>
            <path fill="#190C0A" d="M188.892 124.148a2.016 2.016 0 0 1-1.458.572c-.2-.006-.418-.039-.586.07-.146.095-.214.272-.258.44-.19.721-.127 1.482-.06 2.225.016.188.042.394.182.52.09.08.21.113.327.142 2.063.511 4.202.71 6.323.586.156-.01.332-.031.423-.158.057-.08.067-.183.074-.28.06-.804.236-1.069-.506-1.295-.604-.183-1.212-.178-1.813-.437-.365-.157-3.029-1.837-2.648-2.385" mask="url(#h)"/>
            <path fill="#613927" d="M187.022 122.672a48.279 48.279 0 0 1 1.992-6.673 8.749 8.749 0 0 0-1.951-.444c-.516-.055-1.068-.056-1.513.24-.637.423-.864 1.311-1.008 2.12a36.56 36.56 0 0 0-.428 9.684c.018.206.052.437.204.556.203.158.48.024.69-.12.62-.428 1.454-.93 1.622-1.75.237-1.149.129-2.422.392-3.613" mask="url(#h)"/>
            <path fill="#0B0C0C" d="M192.148 105.966c.374-.048.751.029 1.12.108.196 1.152.392 2.309.407 3.477.008.6-.032 1.198-.06 1.797-.12 2.473-.05.286.207 2.749.06.573.103 1.23-.301 1.64-.336.34-.861.38-1.338.4l-2.033.085c-.539-3.832-.775-3.037-.704-6.907.027-1.48 1.088-3.142 2.702-3.35" mask="url(#h)"/>
            <path fill="#0B0C0C" d="M191.196 112.114c.041 1.624.082.917-.062 2.536-.082.915-.222-.51-.275.407-.046.782-.028 1.566-.01 2.349-2.145.415-4.146.382-6.269.172.129-1.463.727-.401.809-1.875.088-1.593.146-.854.175-2.45.006-.319.01-.64-.036-.956-.052-.349-.167-.685-.261-1.025-.3-1.08-.405-2.203-.508-3.319-.031-.337-.062-.68.008-1.01.144-.688.705-1.254.754-1.955.955.137 1.825.6 2.716.97.623.258 1.289.479 1.969.496.198.005.692-.14.826-.007.137.136.042.862.046 1.057l.118 4.61" mask="url(#h)"/>
            <path fill="#190C0A" d="M183.098 129.83c-.015.25-.021.526.137.72.12.147.311.214.493.272a21.36 21.36 0 0 0 6.596.996c.468-.004 1.016-.067 1.255-.47.204-.344.075-.807-.192-1.104-.267-.298-.642-.47-1.005-.639-1.288-.603-2.65-1.392-3.124-2.734-.06-.168-.115-.356-.264-.451-.176-.111-.416-.045-.576.087-.16.131-.266.316-.395.479-.696.879-1.281.487-2.147.612-.938.136-.735 1.477-.778 2.233" mask="url(#h)"/>
            <path fill="#4F301F" d="M195.092 95.433c.104-.228.156-.48.295-.689.28-.418.826-.548 1.322-.632a.99.99 0 0 1 .103.587c-.195-.03-.387.102-.486.272-.1.171-.128.373-.154.569-.067.507.316.818.355 1.326a.329.329 0 0 1-.022.173.36.36 0 0 1-.115.12 4.793 4.793 0 0 1-1.293.648l-.793.25c-.33.105-.716.203-1.002.007-.486-.332-.297-1.323.16-1.61.248-.157.61-.118.882-.257.323-.164.597-.432.748-.764" mask="url(#h)"/>
            <path fill="#CAD6E3" d="M184.228 109.834c-.247-.197-.428-.46-.606-.721-.229-.334-.462-.68-.548-1.075-.027-.124-.037-.26.025-.37.06-.11.181-.173.302-.207.915-.264 1.649.699 2.039 1.389.503.888-.397 1.633-1.212.984" mask="url(#h)"/>
            <path fill="#5E8C6B" d="M184.288 101.597c.058.857.023 1.72-.104 2.57-.018.123-.038.249-.017.371.024.14.099.263.172.383.469.767.97 1.567 1.753 2.008.469.264 1.006.38 1.494.605.391.18.748.429 1.143.601.394.173.85.264 1.254.113.775-.291.978-1.267 1.419-1.969.058-.093.126-.186.226-.231.143-.066.308-.017.464.008.672.107 1.356-.276 1.753-.83.397-.553.547-1.248.593-1.928.172-2.55-.992-5.022-1.024-7.578-.01-.75.073-1.53-.214-2.221-.074-.18-.173-.35-.234-.534-.087-.26-.097-.54-.118-.814-.041-.54-.131-1.073-.221-1.606-.107-.634-.243-1.32-.726-1.742-.642-.562-1.605-.43-2.456-.485-.878-.055-1.725-.341-2.6-.431a1.27 1.27 0 0 0-.326-.002c-.373.06-.63.397-.833.717a14.143 14.143 0 0 0-2.05 5.487c-.325 2.179.355 4.358.347 6.562-.001.37.006.727.305.946" mask="url(#h)"/>
            <path fill="#613927" d="M188.887 99.78c.388.081.786.109 1.182.136l3.27.23c.626.044 1.311.115 1.748.564.171.176.293.418.26.661-.029.207-.163.382-.293.546l-.707.892c-.113.142-.249.296-.43.3-.144.002-.269-.094-.383-.183-.758-.585-1.665-1.021-2.622-1.057-.461-.017-.92.058-1.38.104-1.75.175-3.51-.082-5.25-.338-.324-.047-.674-.109-.892-.353-.214-.24-.24-.59-.253-.911-.039-.912-.068-1.874.359-2.68.214-.407.993-.516 1.401-.502.193.006 1.458.226 1.428.528-.039.388-.23.837-.225 1.217.005.405.239.296.607.327.749.063 1.45.367 2.18.519" mask="url(#h)"/>
            <path fill="#516660" d="M187.843 95.643c.265-.563.532-1.131.668-1.739.135-.607.13-1.265-.137-1.826-.268-.562-.83-1.004-1.451-1.016-.584-.011-1.109.336-1.568.695-.25.197-.497.403-.699.65-.516.63-.7 1.461-.853 2.261a60.783 60.783 0 0 0-.541 3.355c.021-.16 1.352-.09 1.498-.075.525.057 1.008.351 1.507.414.471.059.607-.665.791-1.056l.785-1.663" mask="url(#h)"/>
            <path fill="#1C201E" d="M183.546 104.995c-.475.284-.603.91-.623 1.464-.02.568.024 1.139.132 1.697.53-.09 1.098.088 1.483.463.274.267.49.644.864.722.038.008.08.012.114-.007.038-.023.055-.069.068-.111.214-.697.16-1.454-.028-2.158-.236-.883-.71-2.847-2.01-2.07" mask="url(#h)"/>
            <path stroke="#141614" stroke-width=".714" d="M194.025 127.344c.621-11.336 1.242-18.001 1.864-29.336l1.095-19.99c.193-3.52.393-7.078 1.41-10.452" mask="url(#h)"/>
            <path fill="#613927" d="M196.838 94.71c.318-.077.649.141.805.428.157.287.178.628.187.955.007.288-.003.606-.199.818-.14.151-.348.216-.55.255-.11.02-.224.035-.336.025-.447-.038-.788-.471-.842-.917-.08-.672.252-1.397.935-1.564" mask="url(#h)"/>
            <path fill="#8295A8" d="M202.103 68.484c-.938.99-2.744.357-3.875.22-1.724-.208-3.476.285-5.223.197-1.447-.073-1.696-1.19-.345-2.092.37-.246.762-.47 1.192-.58.675-.173 1.385-.056 2.077.028 1.735.21 3.435.147 5.17.003.877-.073.965-.322 1.319.411.237.49.042 1.436-.315 1.813" mask="url(#h)"/>
            <path fill="#CAD6E3" d="M201.76 64.545c-.14-.085-.315-.078-.478-.068l-7.923.486c-.528.032-1.09.077-1.51.399-.736.563-.697 1.664-.587 2.585.012.105.03.22.108.292.092.083.233.075.357.062l7.052-.743c.553-.058 1.11-.117 1.648-.259.905-.238 3.036-1.708 1.333-2.754" mask="url(#h)"/>
            <path fill="#613927" d="M187.578 88.925c.268.17.558.301.846.386l1.379.409c.111.033.237.064.337.007a.435.435 0 0 0 .147-.173 53.92 53.92 0 0 0 2.028-3.84c-.577-.087-1.062-.461-1.576-.736-.515-.276-1.169-.45-1.663-.14-.636.402-.765 1.317-1.172 1.904-.13.187-.246.655-.408.78-.156.123-.663.053-.884.127-.027.009-.055.02-.07.044-.02.034-.005.078.012.114.21.457.587.84 1.024 1.118" mask="url(#h)"/>
            <path fill="#613927" d="M188.995 82.314c-.004-.181.226-.259.406-.279a20.338 20.338 0 0 1 3.415-.1c.108.006.218.014.32.05.162.058.29.185.394.323.606.803.49 1.929.245 2.905-.197.79-.47 1.584-.983 2.216-.513.633-1.308 1.084-2.118 1.006a1.39 1.39 0 0 1-.69-.242c-.246-.178-.403-.451-.534-.725-.57-1.2-1.08-3.359-.034-4.44a5.827 5.827 0 0 1 1.155-.922" mask="url(#h)"/>
            <path fill="#210B0C" d="M189.547 84.992c.095.203.186.452.061.638-.106.158-.32.192-.503.244-.73.206-1.23.872-1.58 1.547-.027.053-.063.113-.123.117-.087.007-.128-.108-.121-.195.012-.166.09-.319.134-.479.137-.493-.043-1.02-.286-1.47-.242-.451-.55-.874-.7-1.364-.148-.49-.096-1.088.293-1.42.248-.211.584-.277.904-.336.303-.056.607-.112.915-.126.689-.032 1.374.146 2.062.113-.361.498-.699 1.035-1.103 1.5-.139.159-.395.32-.348.558.04.208.3.47.395.673" mask="url(#h)"/>
            <path fill="#141311" d="M186.756 83.585c-.217-.616.227-1.249.897-1.214.25.012.492.138.647.335.077.098.132.211.184.324.224.49.699 1.555-.028 1.895-.413.194-.855-.185-1.155-.529-.216-.247-.436-.502-.545-.811" mask="url(#h)"/>
            <path stroke="#141311" stroke-width=".594" d="M188.623 84.768c.345.69.583 1.433.703 2.196.058.362.087.74-.024 1.09-.018.059-.044.12-.094.155a.297.297 0 0 1-.159.04c-.523.025-1.04-.127-1.563-.147-.524-.02-1.113.139-1.37.597M192.656 84.34l-3.11.651" mask="url(#h)"/>
            <path fill="#1C201E" d="M192.431 85.205c.127.075.272.122.423.155.148.033.304.051.464.04.416-.032.858-.296 1.05-.679.194-.383.086-.858-.27-1.011a1.351 1.351 0 0 0-.312-.078l-.446-.075c-.416-.07-1.094-.194-1.302.342-.19.493-.012 1.066.393 1.306" mask="url(#h)"/>
            <path fill="#1C1413" d="M196.173 82.519c.044.291-.269.5-.541.614-2.669 1.115-5.755.816-8.472-.174-.362-.132-.767-.33-.852-.705-.035-.157-.006-.32.034-.475.318-1.217 1.418-2.188 2.663-2.351a4.121 4.121 0 0 1 1.41.083c1.544.338 1.779 1.136 2.666 2.18.496.585.475.532 1.295.686.169.032 1.783.055 1.797.142" mask="url(#h)"/>
            <path fill="#B0BAE7" d="M188.468 81.615c.244-.378.582-.686.942-.954.331-.246.688-.466 1.08-.589.394-.122.829-.143 1.214.003-.475-.485-1.288-.486-1.894-.18-.605.307-1.047.856-1.452 1.4-.261.35-.524.726-.57 1.159a.558.558 0 0 0 .057.35c.273.445.277-.22.301-.374.046-.29.164-.57.322-.815" mask="url(#h)"/>
            <path stroke="#1C201E" stroke-width=".594" d="M190.608 83.662l-1.23 1.107" mask="url(#h)"/>
            <path fill="#DEC290" d="M226.596 180.555c.474.087.965-.114 1.333-.425.448-.378 2.058-2.304.861-2.43-1.099-.116-1.896 2.122-2.194 2.855" mask="url(#h)"/>
            <path fill="#090A0B" d="M242.054 194.995c.004.192.017.406.156.537.249.235.67.01.842-.285.172-.295.236-.66.481-.897.29-.28.79-.34.956-.708.127-.282-.01-.605-.146-.883-.179-.364-.403-.767-.796-.865-2.019-.502-1.515 1.97-1.493 3.1M233.85 199.727c-.475.39-1.09.558-1.692.685-.485.102-.99.19-1.402.468-.411.277-.701.806-.536 1.274.213.598.976.748 1.609.78 2.122.11 4.256-.033 6.344-.426.06-.012.125-.026.167-.071.047-.053.049-.132.048-.203l-.076-5.74c-.008-.587-.04-1.236-.448-1.656-.88-.908-2.563-.004-2.977.988-.556 1.33.324 2.782-1.038 3.9" mask="url(#h)"/>
            <path fill="#170D0A" d="M237.308 188.95c-.347.866-.677 1.91-.148 2.678.232.336.6.562.82.904.16.248.234.539.31.823a22.59 22.59 0 0 0 1.898 4.797 12.86 12.86 0 0 0-7.058 1.696l-.075-13.398c-.003-.565-.006-1.138.14-1.683.326-1.215 1.412-2.166 2.642-2.422 1.003-.21 3.429.048 3.508 1.4.042.71-.704 1.865-.963 2.513l-1.074 2.691M243.824 180.199l-3.127.511c-.087.015-.183.034-.24.102-.054.067-.055.16-.054.247l.12 9.432c.008.665.038 1.392.476 1.892.259.294.63.47 1.008.573 1.02.28 2.496.072 3.256-.741.74-.793.259-2.185.14-3.174a79.152 79.152 0 0 0-1.579-8.842" mask="url(#h)"/>
            <path fill="#FFF" d="M233.968 161.828l.04-.889a63.207 63.207 0 0 1 3.076-1.874l.371 1.38a8.727 8.727 0 0 0-3.21 1.67" mask="url(#h)"/>
            <path fill="#492317" d="M243.846 169.608c.263-.107.547-.24.662-.5.08-.18.061-.386.04-.582l-.46-4.363c-.092-.876-.194-1.782-.642-2.54-.618-1.045-1.828-1.643-3.036-1.76-1.209-.117-2.42.19-3.558.614-1.426.53-2.82 1.279-3.778 2.462-.118.146-.232.304-.27.488-.093.47.32.866.548 1.287.424.79.19 1.758.28 2.65.055.545.234 1.07.413 1.587.215.625.51 2.458 1.088 2.761.547.287 2.36-.291 2.955-.404.598-.114 5.758-1.14 5.758-1.7M244.886 180.14c.029.247.056.492.082.733.065.61.123 1.26-.156 1.806-.507.996-1.815 1.168-2.904 1.42-.834.192-1.64.5-2.477.681-1.984.43-4.044.13-6.051-.17-.16-.023-.34-.06-.429-.196-.094-.145-.041-.336.015-.5.45-1.325 1.122-2.733 1.355-4.11.22-1.291.223-2.7.355-4.015.12-1.192-.08-2.513.11-3.653 3.13.094 5.891-.019 8.658-1.74-.043 1.626.123 2.875.477 4.412.459 1.665.758 3.576.965 5.331" mask="url(#h)"/>
            <path fill="#CAD6E3" d="M234.596 178.355c-.03-.021-.559.304-.613.346-.14.109-.056.334.01.474.065.136.216.261.315.375.236.27.474.538.717.802.48.522.98 1.027 1.513 1.495.855.75 1.795 1.398 2.731 2.045l2.483 1.712c.87.6 1.742 1.202 2.66 1.729.662.38 1.347.72 2.005 1.109 1.757 1.036 3.419 2.583 5.434 3.096-.777-1.246-3.003-2.407-4.216-3.338a993.59 993.59 0 0 0-13.04-9.845" mask="url(#h)"/>
            <path fill="#1E1813" d="M233.88 179.042c-.34-.521-.866-1.425-1.206-1.946-.072-.11-.147-.235-.124-.364.031-.176.24-.274.417-.247.176.026.326.14.466.252.427.337 1.168 1.653 1.216 1.666" mask="url(#h)"/>
            <path fill="#170D0A" d="M236.853 171.204l5.859-1.812c.36-.109.557-.183.865-.42.174.193.157.487.128.745-.04.37-.083.74-.176 1.1-.042.16-.096.323-.212.441-.089.091-.206.148-.32.204-.555.275-1.122.48-1.69.688-.653.24-1.358.278-2.052.315l-3.314.175c-.471.025-1.503-.236-1.13-.96.167-.322 1.676-.363 2.042-.476" mask="url(#h)"/>
            <path fill="#EAEAEA" d="M243.447 169.342c-.186-.8-.332-1.613-.36-2.51-.028-.866-.01-1.732.002-2.598.007-.5.278-2.008 0-2.41.456.658 1.168 1.089 1.713 1.676 1.219 1.314 1.606 3.387 2.29 5.006.978 2.31.517 4.947.04 7.41-.066.344-.179.745-.508.863-2.457.879-2.278-3.697-2.517-4.783-.204-.928-.457-1.783-.66-2.654M226.456 177.12c.882-.684 1.224-1.832 1.646-2.865 1.304-3.193 3.796-5.929 4.353-9.333.077-.47.136-.99.486-1.312.484-.447 1.282-.279 1.822.097 1.075.748 1.57 2.124 1.579 3.433.01 1.31-.396 2.583-.797 3.83l-.727 2.257c-.404 1.255-.815 2.525-1.517 3.64-.807 1.28-1.749 2.397-3.332 2.202-.355-.044-3.92-1.634-3.513-1.95M236.329 161.64c.077-.02.156-.037.234-.054.786-.167 1.423-1.756.229-1.77-.285-.002-3.118.44-3.119.618l-.006 1.49c-.001.269.019.582.24.737.04.029 1.05-.557 1.173-.609a6.992 6.992 0 0 1 1.24-.382c.42-.092.817-.329 1.222-.486.472-.184.953-.341 1.442-.472.365-.097.742-.183 1.06-.39-1.185-.075-2.29-.628-3.467-.788" mask="url(#h)"/>
            <path fill="#210B0C" d="M239.92 155.103l.024.062c.469 1.176 1.3 2.66 2.327 3.419 1.19.878 2.488 1.643 3.462 2.755.974 1.113 1.581 2.7 1.072 4.09l-.635-1.356c.289.688.29 1.493 0 2.181a25.897 25.897 0 0 0-1.785-3.064c-.398-.585-.827-1.162-1.386-1.595-.87-.673-1.982-.942-3.068-1.116-1.215-.193-2.467-.288-3.694-.143-.95.113-2.049.73-2.613-.3-.706-1.289-.064-3.359.367-4.638.216-.64.463-1.466.996-1.89.855-.679 2.297-.879 3.347-.812a.97.97 0 0 1 .312.056.89.89 0 0 1 .34.287c.472.593.658 1.355.934 2.064" mask="url(#h)"/>
            <path fill="#6A131A" d="M235.568 154.707c-.587.126-1.194.28-1.655.665-.461.386-.727 1.073-.452 1.608.263.512 6.393-.694 6.55-1.415.367-1.698-3.83-.99-4.443-.858" mask="url(#h)"/>
        </g>
        <g transform="translate(157 535)">
            <path fill="#21160A" d="M10.175 49.206c-.041.436-.13.868-.262 1.285-.044.136-.096.276-.201.371-.142.128-.35.147-.54.15a6.323 6.323 0 0 1-2.02-.29c-.16-.052-.335-.123-.406-.277-.045-.098-.037-.211-.03-.319.043-.544.12-1.154.55-1.488.292-.228.684-.27 1.053-.304.506-.047 1.108-.053 1.41.356"/>
            <path fill="#D1B3AF" d="M9.84 47.922c-.009.434-.052.873-.128 1.304-.025.14-.056.286-.128.397-.097.148-.246.2-.385.235-.494.125-.997.14-1.48.045-.119-.023-.25-.065-.308-.204a.805.805 0 0 1-.037-.308c.005-.541.03-1.152.326-1.55.202-.272.484-.378.75-.472.365-.128.801-.233 1.04.12"/>
            <path fill="#21160A" d="M5.009 49a6.146 6.146 0 0 1-.45 1.232c-.064.128-.136.259-.254.337-.16.105-.367.093-.556.068a6.316 6.316 0 0 1-1.954-.588c-.151-.074-.314-.171-.361-.334-.03-.104-.006-.214.018-.32.123-.531.289-1.123.763-1.39.324-.181.717-.165 1.088-.144.506.03 1.102.113 1.34.563"/>
            <path fill="#D1B3AF" d="M4.938 48.199a8.51 8.51 0 0 1-.475 1.221c-.061.128-.13.26-.229.348-.133.116-.291.126-.434.123a3.38 3.38 0 0 1-1.437-.356c-.109-.055-.224-.13-.242-.28a.808.808 0 0 1 .047-.307c.15-.52.338-1.1.73-1.405.268-.207.568-.233.85-.251.385-.026.834-.009.969.395"/>
            <path fill="#301E22" d="M1.782 48.349c.043.016.086.032.129.046 2.857 1 5.972.807 8.99.602.366-.025.759-.06 1.037-.3.416-.356.398-.995.345-1.542-.834-8.651-1.673-17.303-2.517-25.953 0-.282-6.156-1.13-6.783-.7-1.652 1.128-1.042 6.362-1.147 8.24L.826 46.805c-.017.313-.031.644.114.921.167.317.503.494.842.623"/>
            <path fill="#E1846A" d="M10.87 17.395c-.142-1.132-.308-2.258-.403-3.34-.07-.799-.194-1.699-.84-2.174-.819-.602-2.602-.372-3.567-.52-1.2-.183-2.18-.412-3.18.478C1.59 12.986.694 14.56.295 16.234c-.13.55-.498 1.83-.15 2.33.204.29 2.453.21 2.457.312.044 1.075-.265-.385-.456.674.037-.263 5.99.373 6.498.391 1.628.057 2.388 3.279 2.473 1.509.063-1.31-.075-2.686-.247-4.055"/>
            <path fill="#F7E0C4" d="M.43 24.62c-.004.67 0 1.37.303 1.969.302.598 1.006 1.05 1.641.837l.359-6.968c.05-.97-.782-4.886-2.169-2.72-.44.686-.11 2.442-.115 3.242L.43 24.62M12.732 8.51c.052-.58.057-1.185-.092-1.753a1.585 1.585 0 0 0-.198-.481c-.045-.067-.101-.131-.178-.154-.093-.029-.197.013-.268.08-.082.077-.115.192-.201.263-.101.084-.193.099-.23.242-.071.265.035.684.025.967a7.86 7.86 0 0 1-1.027 3.586c-.219.381-.47.7-.755 1.024-.261.298-.429.714-.605 1.07-.642 1.302-1.355 3.063-.497 4.434.14.224.317.424.516.598 1.347 1.179 1.088-1.011 1.322-2.142.252-1.21.78-2.365 1.207-3.519.243-.66.478-1.324.667-2.002.204-.733.246-1.456.314-2.213"/>
            <path fill="#21160A" d="M29.441 48.507c.08.431.112.87.097 1.309-.005.142-.016.29-.092.411-.102.162-.296.236-.479.293-.653.199-1.339.291-2.021.271-.169-.004-.357-.025-.466-.154-.07-.082-.094-.193-.116-.299-.107-.535-.2-1.142.123-1.581.22-.3.585-.448.93-.582.474-.183 1.052-.354 1.453-.042M24.415 49.722c.014.438-.019.878-.098 1.309-.026.14-.06.286-.153.393-.124.145-.327.19-.516.218-.676.1-1.367.089-2.04-.032-.166-.03-.349-.079-.438-.222-.057-.092-.064-.205-.07-.313-.026-.545-.028-1.16.356-1.546.262-.263.645-.355 1.007-.436.496-.11 1.092-.193 1.443.175"/>
            <path fill="#F7E0C4" d="M24.128 48.97a8.505 8.505 0 0 1-.124 1.305c-.024.14-.054.287-.126.397-.097.15-.245.202-.384.237a3.373 3.373 0 0 1-1.48.05c-.119-.022-.25-.063-.309-.203-.038-.088-.038-.2-.038-.307.003-.541.026-1.152.32-1.552.201-.272.483-.379.749-.474.364-.13.8-.236 1.04.116"/>
            <path fill="#D1B3AF" d="M29.71 47.35c-.01.26-.031.546-.214.731-.188.19-.483.208-.75.215l-2.509.065a85.485 85.485 0 0 0-1.268-19.575c.43 6.826.86 13.694.088 20.49l-4.182-.143c1.395-4.728.427-9.778.066-14.695-.297-4.052-.171-8.124.093-12.178.023-.357.058-.74.289-1.011.215-.253.555-.354.874-.443 2.035-.564 4.916-1.358 6.885-.16 1.869 1.136.975 5.889.976 7.953a486.005 486.005 0 0 1-.348 18.751"/>
            <path fill="#F7E0C4" d="M29.046 47.806c.057.432.081.871.071 1.31-.003.141-.011.29-.066.41-.073.162-.213.237-.344.292a3.38 3.38 0 0 1-1.456.27c-.122-.005-.257-.026-.336-.155a.81.81 0 0 1-.083-.299c-.078-.535-.145-1.142.087-1.581.158-.3.42-.447.67-.58.34-.183.756-.353 1.046-.041M19.808 26.884c-.038.4-.073.806.007 1.199s.292.777.642.972l.469-2.425c.066-.34.186-1.579-.51-1.306-.537.21-.565 1.096-.608 1.56"/>
            <path fill="#057158" d="M23.81 21.42c-.283-.04-.58-.089-.802-.253-.4-.297-.406-.835-.378-1.297.017-.29.036-.587.157-.855.223-.495.752-.814 1.273-1.068.763-.374 1.567-.692 2.404-.857.859-.17 1.67-.275 2.085.594.46.962.93 1.954 1.365 2.93.29.653.087 1.043-.607 1.226-1.713.451-3.787-.179-5.496-.42"/>
            <path fill="#F7E0C4" d="M31.19 9.543a3.05 3.05 0 0 0-.177-.601c-.18-.4-.535-.768-.95-1.011-.316.209 0 .758-.053 1.14-.018.133-.083.245-.13.367-.194.506-.058 1.138.086 1.74.105.438.232.91.6 1.276.743.742 1.157.275 1.212-.238.078-.718-.419-1.904-.588-2.673M12.226 5.254a2.2 2.2 0 0 0-.123-.44c-.125-.291-.38-.558-.68-.732-.231.156-.007.556-.05.838-.014.098-.063.181-.097.27-.147.375-.055.837.043 1.278.071.32.16.666.422.931.533.538.838.19.884-.188.064-.528-.284-1.394-.4-1.957"/>
            <g transform="translate(29.603 10.58)">
                <mask id="j" fill="#fff">
                    <use xlink:href="#i"/>
                </mask>
                <path fill="#065E47" d="M2.022.293c.172-.036.364-.07.515.02a.684.684 0 0 1 .2.218A11.21 11.21 0 0 1 4.242 3.68c.113.39.202.802.112 1.196-.09.395-.408.763-.811.788-.383.024-.713-.249-.999-.506-.627-.564-1.263-1.138-1.718-1.85C.495 2.79-.03 1.675.28 1.043.58.425 1.417.422 2.022.293" mask="url(#j)"/>
            </g>
            <path fill="#E2BEBA" d="M23.84 5.061l-1.452-.077c-.045-.003-.095-.003-.129.027-.026.023-.035.06-.042.096-.11.595.145 1.192.402 1.74.371.794.443 1.383.409 2.238-.006.142-.005.297.086.405a.497.497 0 0 0 .2.129c1.534.616 1.9-.767 2.198-1.817.405-1.431 1.853-1.99 1.813-3.699-.011-.474-.22-1.04-.69-1.107l-.151 1.111c-.015.104-.033.217-.107.291-.087.087-.222.095-.34.128-.47.13-.463.669-.8.838-.172.085-.638-.022-.847 0-.261.03-.52.087-.769.172a.431.431 0 0 0-.207.121c-.063.08-.067.192-.067.294 0 .6-.08 1.07-.17 1.637-.053.329-.092.66-.119.992"/>
            <path fill="#065E47" d="M23.175 21.923a37.814 37.814 0 0 1-.106 4.055c-.02.234-.049.488-.212.657-.2.207-.522.214-.809.206-.423-.01-.869-.028-1.232-.246-.515-.31-.733-.932-1.096-1.41a2.61 2.61 0 0 0-.669-.617 13.13 13.13 0 0 1 1.142-1.742c.263-.332.563-.663.964-.796.178-.059.366-.076.551-.092.419-.036 1.049.021 1.467-.015"/>
            <path fill="#057158" d="M33.726 15.877c.073-.199.134-.416.074-.62-.045-.151-.153-.275-.257-.394L28.67 9.324c-.44-.5-.903-1.017-1.52-1.27-.566-.23-1.199-.212-1.81-.19-.992.036-1.997.074-2.946.364-.95.29-1.852.866-2.325 1.741-.357.663-.44 1.435-.516 2.185l-1.066 10.457c-.034.33-.067.666-.01.994.208 1.218 1.507 1.875 2.648 2.345.25.102.541.204.78.077.155-.083.25-.245.33-.402.914-1.785 1.038-3.86 1.067-5.867.004-.34.01-.693.154-1.001.265-.567.912-.826 1.5-1.035.965-.341 1.963-.688 2.984-.62 1.298.085 1.99 1.636 3.056 1.633 1.174-.004 2.388-1.925 2.73-2.858"/>
            <path fill="#301E22" d="M24.008 6.687c.323.011.643-.012.951-.106 1.298-.393 2.451-2.06 2.505-3.393.02-.5-.117-.994-.314-1.453-.094-.221-.207-.443-.393-.594-.271-.222-.644-.256-.993-.276A37.254 37.254 0 0 0 23.667.8c-.486 0-.997.014-1.421.253-.471.266-.764.777-.89 1.304-.124.527-.102 1.077-.08 1.618.032.77.36 2.039 1.104 2.43.203.107.435.142.662.175.319.047.644.094.966.106"/>
            <path fill="#F7E0C4" d="M5.536 7.248c-.484.015-.97.03-1.453.047-.045.001-.095.005-.126.037-.025.027-.03.064-.034.1-.058.603.246 1.175.549 1.7.437.758.56 1.34.597 2.194.007.142.021.297.121.397a.492.492 0 0 0 .21.11c1.582.483 1.829-.926 2.035-1.998.282-1.46 1.677-2.141 1.491-3.84-.051-.472-.307-1.019-.78-1.045l-.057 1.12c-.006.106-.014.219-.082.3-.079.093-.213.113-.328.156-.457.17-.404.706-.726.903-.164.1-.637.033-.843.074-.258.05-.51.13-.751.236a.43.43 0 0 0-.196.139c-.057.085-.05.196-.042.298.05.598.01 1.073-.03 1.645-.025.333-.036.666-.034.999"/>
            <path fill="#301E22" d="M5.842 8.853a2.9 2.9 0 0 0 .939-.187c1.26-.503 2.267-2.263 2.206-3.595-.022-.5-.201-.98-.436-1.422-.113-.211-.245-.422-.443-.557-.289-.198-.663-.2-1.012-.19-.699.019-1.398.057-2.095.116-.485.04-.992.099-1.395.374-.446.304-.695.84-.774 1.375-.08.536-.011 1.081.057 1.619.097.765.532 2 1.307 2.326.211.09.445.104.675.118.321.02.65.039.971.023"/>
            <path fill="#3F292F" d="M7.246 3.43a1.5 1.5 0 0 1-1.081.76c-.464.064-.922-.106-1.358-.274l-.626-.242c-.158-.06-.326-.13-.418-.273-.593-.927.654-2.42 1.617-2.322 1.185.122 2.634.954 1.866 2.35"/>
            <g transform="translate(20.517 .003)">
                <mask id="l" fill="#fff">
                    <use xlink:href="#k"/>
                </mask>
                <path fill="#301E22" d="M.95 2.042C.176 3.257.156 4.792.194 6.234c.126 4.79.62 9.57 1.477 14.285l3.85-.092c.22-.005.456-.017.623-.16.204-.176.223-.48.227-.75.035-2.97-.056-5.968.53-8.88.326-1.615.86-3.203.908-4.85C7.853 4.291 7.19 1.67 5.858.74 4.356-.31 1.853.626.95 2.042" mask="url(#l)"/>
            </g>
            <mask id="n" fill="#fff">
                <use xlink:href="#m"/>
            </mask>
            <path fill="#090D01" d="M9.45 7.134h2.18V2.767H9.45z" mask="url(#n)"/>
            <path fill="#F7E0C4" d="M11.437 5.928l-.616-.262c-.151-.065-.326-.16-.34-.324a.461.461 0 0 1 .065-.228.197.197 0 0 1 .05-.073c.051-.038.123-.017.182.006l.543.208c.127.049.221.043.353.082.107.032.222.07.285.163.054.08.056.185.055.282 0 .07-.006.15-.063.19a.19.19 0 0 1-.109.026.984.984 0 0 1-.405-.07" mask="url(#n)"/>
            <path fill="#E1846A" d="M10.625 16.248c.474 3.09.594 6.234.356 9.35a7.822 7.822 0 0 0-3.223.383l-2.322-4.932-.88 4.91A13.536 13.536 0 0 0 .7 25.433a20.455 20.455 0 0 1 1.16-7.997" mask="url(#n)"/>
            <path fill="#D1B3AF" d="M8.46 15.587c-.084.403-.168.822-.04 1.2.13.38.532.71 1.037.688.502-.023.92-.367 1.237-.703 1.455-1.54 2.139-3.504 1.848-5.304-1.12.009-2.618-.071-3.35.728-.625.683-.562 2.572-.732 3.39M.133 19.21c.818.106 1.646.138 2.47.094.108-.005.224-.016.304-.09.082-.075.101-.195.115-.305.16-1.22 1.812-6.753-.71-6.544-1.76.146-2.672 6.781-2.18 6.845" mask="url(#n)"/>
        </g>
        <g>
            <path fill="#516660" d="M349.86 766.092c-.035.91-.196 1.968-.992 2.417-.36.204-.79.238-1.205.26-.619.033-1.238.048-1.858.044-.418-.002-.891-.038-1.155-.36-.232-.285-.216-.693-.173-1.058a13.946 13.946 0 0 1 4.316-8.495c.353-.327 1.38-1.13 1.83-.503.302.42-.265 1.51-.363 1.942-.421 1.885-.325 3.836-.4 5.753"/>
            <path fill="#B78865" d="M352.544 727.394c-.11.23-.136.505-.16.772-.063.73-.126 1.468-.035 2.198s.356 1.463.838 1.93c.586.566 1.461.638 2.08.17.25-.189.455-.45.628-.736.564-.929 1.707-4.563.641-5.473-.747-.638-3.593.317-3.992 1.139"/>
            <path fill="#516660" d="M358.776 768.43a8.537 8.537 0 0 0-5.02.433c.225-1.361-.82-2.587-1.115-3.934-.118-.541-.115-1.105-.26-1.638-.132-.48-.379-.92-.563-1.382a5.587 5.587 0 0 1-.38-2.47c.012-.17.035-.349.13-.492.11-.165.3-.258.484-.335 1.02-.427 2.126-.595 3.22-.76l1.87-.28c.367-.056.764-.106 1.09.072.49.27.592.917.638 1.474l.708 8.59c.066.8.026 2.843-1.283 2.461.157-.154.937-1.64.481-1.74"/>
            <path fill="#21160A" d="M355.045 769.901c-.358-.176-.696-.412-.924-.739-.228-.327-.334-.752-.217-1.132.164-.532.697-.85 1.193-1.104.412-.213.836-.42 1.295-.49.647-.097 1.318.094 1.865.452.889.581 1.872 2.472.554 3.187-.388.21-1.01.135-1.437.176-.81.075-1.587.014-2.33-.35"/>
            <g transform="translate(349.111 744.165)">
                <mask id="p" fill="#fff">
                    <use xlink:href="#o"/>
                </mask>
                <path fill="#C69B93" d="M10.377 3.57c-.044.837-.086 1.689.12 2.5.166.654.486 1.256.803 1.851l2.168 4.07c.117.22.237.463.183.704-.049.216-.228.38-.421.488-.719.403-1.608.213-2.43.251-1.705.079-3.17 1.152-4.702 1.9-1.532.747-3.551 1.118-4.808-.031C.473 14.555.23 13.36.262 12.256c.084-2.832 1.644-5.382 3.155-7.782.784-1.243 1.596-2.518 2.784-3.386C7.03.483 8.752-.267 9.775.319c1.11.636.657 2.171.602 3.25" mask="url(#p)"/>
            </g>
            <path fill="#21160A" d="M346.654 739.165l2.62-4.584c.244-.424.494-.858.866-1.177 1.2-1.029 3.05-.47 4.59-.831 1.456-.342 2.751-1.54 4.229-1.311.961.148 1.742.905 2.16 1.781.419.875.53 1.862.602 2.829.111 1.505.14 3.03-.15 4.51a10.798 10.798 0 0 1-4.118 6.524c-1.475 1.095-3.363 1.976-3.899 3.73-.216.706-.172 1.47-.369 2.182s-.774 1.425-1.514 1.384c-.494-.027-.9-.378-1.266-.71-.534-.486-1.073-.978-1.491-1.567-.65-.918-.97-2.02-1.278-3.1-.789-2.754-3.214-7.072-.982-9.66"/>
            <g transform="translate(351.611 725.057)">
                <mask id="r" fill="#fff">
                    <use xlink:href="#q"/>
                </mask>
                <path fill="#3E2B2F" d="M6.558 3.394c.029.473.056.95-.01 1.42A3.737 3.737 0 0 1 4.75 7.471c-.286.167-.599.298-.929.333-.53.055-1.059-.141-1.515-.417C1.265 6.76.5 5.685.287 4.492.074 3.299.43 2.01 1.254 1.12c.28-.302.612-.56.993-.716.918-.376 1.968-.115 2.896.238 1.099.417 1.347 1.582 1.415 2.752" mask="url(#r)"/>
            </g>
            <path fill="#492317" d="M356.545 771.519c-.343-.458-.695-.931-.838-1.485a3.32 3.32 0 0 1-.086-.866c.003-.296.026-.598.14-.871.114-.274.33-.518.614-.604.296-.089.624.006.88.178.256.173.455.416.65.656.117.144.234.289.326.45.262.461.288 1.025.183 1.545-.078.39-.337 1.52-.716 1.729-.442.244-.92-.423-1.153-.732"/>
            <path fill="#D69C36" d="M355.502 731.74c-.347.041-.757.129-.886.453-.11.277.074.61.347.73.273.12.599.062.86-.081.262-.143.472-.362.679-.577-.102-.416-.605-.681-1.007-.532"/>
            <path fill="#3E2B2F" d="M354.74 732.67a.845.845 0 0 0-.06.34c-.012.363-.025.734.072 1.085.096.351.318.687.655.828.196.083.415.094.628.088.366-.01.742-.07 1.053-.263.507-.314.759-.985.584-1.554-.334-1.085-2.312-1.805-2.932-.525"/>
            <path fill="#CAD6E3" d="M343.32 778.059c.499-.141 1.017-.307 1.382-.674.486-.488.602-1.237.547-1.923-.055-.686-.253-1.355-.292-2.041-.077-1.361.472-2.675.641-4.027.157-1.248-.013-2.51-.182-3.755l-.796-5.863c-.033-.246-.075-.509-.246-.689-.331-.347-.908-.185-1.351.001l-3.13 1.315c-.378.16-.778.336-1.005.676-.197.296-.23.67-.23 1.024-.003 1.653.57 3.245.897 4.866.487 2.405.43 4.869.628 7.304.072.884.001 2.684.521 3.43.563.805 1.81.584 2.616.356"/>
            <path fill="#E1846A" d="M341.223 774.47c-.04.638-.01 1.372.507 1.765.51.387 1.254.258 1.895.11l1.63-.376c.01-.17.008-.34-.006-.507-.055-.686-.253-1.355-.292-2.041a6.085 6.085 0 0 1 .109-1.418c-.696.332-2.549.912-2.907.927-1.881.081-.875.535-.936 1.54"/>
            <g transform="translate(330.778 761.334)">
                <mask id="t" fill="#fff">
                    <use xlink:href="#s"/>
                </mask>
                <path fill="#DCE1E5" d="M10.791 16.06c-.517.378-1.232.047-1.805-.24-.573-.288-1.392-.47-1.755.056-.12.175-.156.392-.226.593-.294.85-1.538 1.33-2.144.665-.39-.428-.362-1.103-.7-1.57-.396-.547-1.149-.654-1.806-.809-.658-.154-1.403-.534-1.452-1.205-.473-.184-.685-.756-.646-1.26.04-.505.269-.971.43-1.45.707-2.092.136-4.44.781-6.551C2.102 2.215 3.97.569 6.111.196c3.596-.627 3.536 3.056 3.943 5.606.54 3.39.788 6.826.737 10.258" mask="url(#t)"/>
            </g>
            <path fill="#B78865" d="M340.107 738.524c-.111.23-.137.505-.16.772-.064.73-.127 1.468-.036 2.198.092.73.356 1.464.838 1.93.587.566 1.462.638 2.081.17.249-.188.454-.45.628-.736.563-.929 1.706-4.563.64-5.473-.746-.637-3.592.317-3.991 1.14"/>
            <path fill="#FFF" d="M345.373 761.203c.81-.975 1.046-2.289 1.253-3.538l.86-5.19c.123-.742.246-1.484.297-2.233.105-1.559-.106-3.119-.316-4.666-.058-.43-.12-.87-.336-1.247-.508-.887-1.661-1.124-2.676-1.272-1.868-.27-4.046-.445-5.368.898-.693.703-.993 1.688-1.439 2.566-.47.927-1.127 1.78-1.358 2.792-.15.66-.11 1.346-.067 2.021.116 1.865.232 3.732.466 5.586.213 1.694.745 5.342 2.67 6.072 1.638.622 4.94-.498 6.014-1.789"/>
            <path fill="#E1846A" d="M345.242 765.052c-.324.07-.326.048-.651.11-.465.091-.89-.368-.948-.836-.058-.468.139-.927.324-1.361 2.179-5.104 3.411-10.65 3.215-16.194-.041-1.176-.274-2.551-1.325-3.087-.291-.148-.625-.216-.886-.413-.26-.197-.413-.604-.197-.848.09-.1.221-.15.351-.184.869-.223 1.765.19 2.542.636a23.426 23.426 0 0 1 5.123 3.966c.182.187.37.393.41.65.055.348-.17.67-.383.95l-1.091 1.43c-.055 2.732-.116 5.502-.894 8.122-.577 1.946-1.546 3.793-1.8 5.807-.027.217-.06.46-.231.594-.11.087-.257.11-.396.129a27.89 27.89 0 0 1-1.884.19c-.18.012-.344-.107-.523-.086-.28.032-.458.322-.756.425"/>
            <path fill="#3E2B2F" d="M339.809 740.181a3.642 3.642 0 0 1 .475-2.79 3.663 3.663 0 0 1 2.35-1.59c.63-.123 1.324-.063 1.844.313.71.514.923 1.462 1.042 2.328.092.671.159 1.346.162 2.023.004.6-.052 1.23-.386 1.727-.777 1.157-2.343.985-3.508.68-1.15-.302-1.716-1.592-1.98-2.69"/>
            <path fill="#5E8C6B" d="M343.483 742.433c-.331-.11-.74-.207-.995.03-.218.204-.196.583-.001.808.194.226.513.312.811.295.298-.017.582-.124.861-.23.088-.418-.252-.874-.68-.912"/>
            <path fill="#3E2B2F" d="M342.691 745.53c.445.37.955.66 1.5.855.02-.488.184-.958.258-1.44.146-.94-.55-2.3-1.705-2.01-1.417.355-.815 1.962-.053 2.595"/>
            <path fill="#B78865" d="M338.114 742.281a1.327 1.327 0 0 0-1.37.166c-.144.117-.26.262-.375.406l-2.276 2.845c-.355.444-.732.957-.662 1.522.04.322.291.651.616.637a.707.707 0 0 0 .262-.072c.894-.413 1.077-1.591 1.701-2.352.665-.811 1.627-.888 2.48-1.37.84-.473.42-1.406-.376-1.782"/>
            <path fill="#E1846A" d="M340.155 747.475c.232 2.068.465 4.145.414 6.226-.04 1.688-.268 3.367-.543 5.033-.158.964-.333 1.925-.467 2.893-.26 1.883-.36 3.784-.46 5.682l-3.65.215c-.259.015-.53.028-.765-.078-.236-.105-.422-.372-.345-.618.141.902-.608 1.749-1.47 2.051-.865.302-1.81.198-2.72.106a76.465 76.465 0 0 0-7.149-.384c.663-1.828-.053-3.936.61-5.764.224-.62.597-1.174.878-1.77.532-1.128.725-2.382 1.1-3.572.415-1.315 1.051-2.55 1.49-3.858.365-1.085.592-2.213.976-3.292.384-1.078.95-2.13 1.847-2.843 1.976-1.569 4.982-1.109 7.076-2.518.574-.387 1.054-.899 1.61-1.313.197-.147 1.009-.753 1.257-.55.157.13-.058.873-.058 1.058-.005 1.08.248 2.221.369 3.296M341.228 770.2c-1.008.173-1.662 1.113-2.542 1.623-.458.265-.977.412-1.49.556-.202.057-.41.114-.62.108-.75-.024-1.302-.831-2.052-.812-.567.015-1.009.5-1.56.626-.492.111-.996-.074-1.45-.293-.016.056-.03.111-.049.166-.087.258-.192.512-.278.77.252.378.82.513 1.301.445.548-.077 1.055-.336 1.602-.415.446-.066.91-.006 1.323.168.164.07.322.157.494.203.217.057.45.046.661.121.282.1.491.344.773.445.483.174 1-.106 1.465-.322a6.337 6.337 0 0 1 2.662-.58 59.019 59.019 0 0 0-.232-2.81l-.008.001"/>
        </g>
        <g>
            <path fill="#EAEAEF" d="M37.727 901.49c-.01.545-.07 1.173-.52 1.479-.21.142-.469.185-.72.225-.672.106-1.36.212-2.031.1-.672-.11-1.34-.48-1.63-1.095-.208-.437-.206-.94-.199-1.423.017-1.246.034-2.492.09-3.737.01-.227.025-.465.144-.66.273-.447.96-.504 1.43-.53.172-.01.344-.007.516-.004l.538.01c.468.007.938.016 1.4.098.272.05.56.134.772.32.182.157.21.395.262.621.348 1.505-.025 3.08-.052 4.597"/>
            <path fill="#E0A16C" d="M36.708 898.363c.432-.036.895-.077 1.272.136l-.248 2.875c-.048.559-.119 1.166-.514 1.563-.436.437-1.119.476-1.735.488l-.892.019c-.6.012-1.312-.032-1.632-.54-.17-.271-.178-.61-.182-.929-.008-.667-.409-3.14.173-3.526.317-.21 1.403.01 1.798.006.653-.006 1.309-.092 1.96-.092"/>
            <path fill="#A88E7C" d="M36.358 896.193c.205.02.416.047.585.12.169.074.285.204.228.325-.091.194-.517.231-.854.23h-1.222c-.196 0-.4.015-.595-.001-.127-.01-1.312-.261-.944-.556a.868.868 0 0 1 .306-.181.83.83 0 0 1 .212-.02c.77-.004 1.517.006 2.284.083"/>
            <path fill="#EAEAEF" d="M38.905 902.247c.21-.2.205-.531.193-.821-.036-.88.017-1.764.156-2.633.046-.288.102-.58.07-.869-.032-.29-.168-.584-.42-.729-.366-.21-.847-.038-1.145.259-.029.028-.058.06-.064.1-.013.074.06.14.133.156.074.018.151.004.227.01.2.017.364.178.442.363.078.184.086.39.089.59.011.81-.038 1.62-.146 2.423-.092.673-1.053.352-.911.885.121.456 1.087.54 1.376.266"/>
            <path fill="#DDB294" d="M40.36 898.757c1.431.616 2.786 3.038.537 3.367-.658.097-1.32-.184-1.855-.58-.645-.48-1.188-1.3-.909-2.052.259-.696 1.132-.995 1.86-.85.121.023.244.062.366.115"/>
            <path fill="#FFF" d="M35.363 899.018c-.164.206-.177.49-.183.752-.012.504-.351 2.578.326 2.635.183-1.077.022-2.314-.143-3.387M34.007 899.018c-.164.206-.177.49-.183.752-.011.504-.351 2.578.326 2.635.183-1.077.022-2.314-.143-3.387M36.636 899.049c-.164.206-.177.49-.183.753-.011.503-.351 2.577.326 2.634.183-1.077.022-2.314-.143-3.387"/>
            <path fill="#665146" d="M46.935 938.619c-.242.13-.493.32-.527.593-.036.276.176.535.431.647.255.112.542.111.82.107 1.393-.02 2.784-.057 4.176-.11.384-.014.775-.031 1.138-.156.21-.073.42-.193.515-.394a1.04 1.04 0 0 0 .074-.39c.084-1.498.177-3.22-.175-4.683-.62-.123-1.603-.08-1.86.597-.226.594.29 1.35.007 1.936-.633 1.305-3.443 1.231-4.6 1.853M59.32 936.263c-.452.4-1.053.576-1.633.742l-1.486.425c-.28.08-.569.164-.804.337-.235.174-.41.459-.37.748.041.304.311.538.605.63.293.091.609.067.915.04a46.512 46.512 0 0 0 4.042-.536c.449-.08.955-.207 1.173-.608.126-.233.125-.512.118-.777a31.46 31.46 0 0 0-.259-3.216c.015.11-1.381.596-1.552.79-.369.418-.29 1.019-.75 1.425"/>
            <g transform="translate(49.888 908.053)">
                <mask id="v" fill="#fff">
                    <use xlink:href="#u"/>
                </mask>
                <path fill="#21160A" d="M.355 8.61C.39 7.308.211 6 .233 4.696c.01-.568-.072-1.18.315-1.616.529-.596 1.223-.99 1.716-1.655.193-.261.373-.54.628-.742C3.33.336 3.918.266 4.474.242c1.138-.046 2.28.053 3.393.293.16.034.329.077.437.2.105.117.13.283.15.44.44 3.414.534 6.882 1.283 10.243.19.852.422 1.697.513 2.565.042.396.053.796.124 1.188.299 1.664 1.619 6.235 1.769 7.92.035.392.005.796.12 1.172.086.284.25.536.377.804.279.584.386 1.25.305 1.892-.017.133-.047.274-.147.363-.119.105-.297.101-.456.092-1.142-.071-2.125-.128-3.241.094-1.124.223-2.221.559-3.313.9-1.5.47-5.115-1.945-5.172-2.834C.324 20.992.237 13.201.356 8.611" mask="url(#v)"/>
            </g>
            <path fill="#E0A16C" d="M58.698 899.922c.36 1.192.43 2.448.499 3.691l.42 7.65c-2.996.016-5.982.168-8.981.162-.12 0-.246-.001-.353-.057-.244-.127-.274-.457-.273-.733l.015-3.99c.007-1.869-.104-3.701-.114-5.573l-5.079.762c-1.286.193-2.734.348-3.764-.446-.075-.058-.15-.126-.177-.217-.052-.183.111-.353.266-.464.849-.606 1.898-.84 2.905-1.11a33.127 33.127 0 0 0 8.093-3.364c.709-.412 1.48-.868 2.29-.75.443.066.842.298 1.213.547 1.516 1.02 2.514 2.148 3.04 3.892"/>
            <path fill="#CEA182" d="M53.36 896.186c.882.299 1.96.456 2.655-.162.558-.495.665-1.353.457-2.07-.207-.716-.672-1.325-1.128-1.915-.106-.138-.219-.28-.378-.347a.901.901 0 0 0-.406-.044c-1.022.065-1.517.213-1.666 1.103-.164.977.333 2.447.467 3.435"/>
            <path fill="#DDB294" d="M54.614 891.967c.17-.52.172-1.08.142-1.627a14.702 14.702 0 0 0-.232-1.918c-.06-.317-.143-.656-.384-.867-.257-.223-.624-.245-.961-.255-.674-.022-1.387-.033-1.972.308-.608.355-.97 1.046-1.089 1.748-.118.701-.023 1.421.095 2.124.184 1.086.207 2.876 1.695 2.633 1.126-.184 2.34-1.024 2.706-2.146"/>
            <g transform="translate(50.528 885.049)">
                <mask id="x" fill="#fff">
                    <use xlink:href="#w"/>
                </mask>
                <path fill="#823725" d="M9.152 6.297c-1.105-1.672-1.738-3.663-3.093-5.14-.24-.262-.509-.51-.834-.654-.313-.138-.66-.173-1-.197C3.127.228 1.602.203.837 1.094c-.748.87-.903 2.793-.256 3.724.328.471.831.783 1.264 1.158 2.718 2.359 2.49 7.008 5.317 9.234.505.397 1.12.702 1.76.676 2.117-.084 2.438-4.414 2.517-5.93.072-1.395-1.553-2.547-2.288-3.659" mask="url(#x)"/>
            </g>
            <path fill="#6C7A75" d="M2.525 898.717a3.513 3.513 0 0 0 2.533.157c.08-.026.169-.054.243-.015.06.032.091.1.118.163.335.8.624 1.619.867 2.451.016.057.03.124-.006.17-.026.034-.07.046-.11.055-.596.133-1.202.07-1.806.06-.336-.006-1.11.191-1.4.007-.364-.23-.277-.828-.304-1.2-.016-.213.003-1.784-.135-1.848"/>
            <path fill="#1E231C" d="M4.723 945.765c.013.114.03.237.109.321.09.096.231.115.362.126 1.381.127 2.772.083 4.159.04.357-.012.733-.029 1.036-.218.3-.189.483-.617.283-.908-.149-.215-.434-.275-.69-.328A10.372 10.372 0 0 1 7.03 943.7c-.167-.093-.332-.19-.513-.253-.447-.153-1.442-.22-1.819.165-.43.44-.038 1.62.026 2.154"/>
            <path fill="#CC715C" d="M3.802 941.624c.003.531.018 1.09.293 1.545.275.454.906.737 1.357.456.434-.272.48-.876.484-1.388.066-7.407 1.6-14.79 1.033-22.176.043.563-3.267.41-3.584 1.041-.256.51.118 1.526.187 2.056.11.85.193 1.703.254 2.557.245 3.373.154 6.757.067 10.134-.05 1.924-.1 3.85-.091 5.775"/>
            <path fill="#E1846A" d="M5.057 942.918c.03.482.068.964.112 1.445.021.232.049.478.188.665.222.302.646.355 1.02.381 1.019.072 2.27.024 2.749-.876.139-.263.186-.564.231-.858l.616-4.035c1.073-7.038 2.15-14.181 1.281-21.247l-2.898.902c-.775.242-2.12.385-2.766.866-.943.702-.151 3.566-.12 4.706.108 3.873-.25 7.737-.416 11.603-.092 2.157.003 4.294.003 6.448"/>
            <path fill="#2E362B" d="M5.962 948.184l6.787-.115a.487.487 0 0 0 .227-.04c.09-.05.14-.151.158-.252.057-.3-.12-.604-.363-.79-.243-.187-.541-.281-.83-.381a13.505 13.505 0 0 1-2.405-1.114c-.242-.142-.483-.294-.755-.363a2.698 2.698 0 0 0-.636-.06c-.465-.007-2.193-.307-2.426.18-.142.298.072 1.046.102 1.376l.14 1.559"/>
            <path fill="#A88E7C" d="M7.14 897.568c.182-.547.184-1.136.152-1.711a15.287 15.287 0 0 0-.248-2.018c-.064-.335-.153-.69-.411-.912-.274-.236-.667-.258-1.028-.27-.72-.022-1.483-.034-2.108.325-.65.372-1.038 1.1-1.164 1.838-.127.74-.026 1.497.101 2.235.197 1.143.22 3.026 1.812 2.77 1.205-.193 2.502-1.077 2.894-2.257"/>
            <path fill="#663531" d="M6.563 891.812c-.164-.269-.333-.49-.461-.6-.324-.28-.79-.308-1.217-.301-1.721.028-3.636.562-4.472 2.066-.547.986-.51 2.217-.127 3.278.253.722 1.413 3.18 2.33 3.21 1.303.04.803-2.96.801-3.738 0-.217.001-.442.095-.637.175-.368.61-.518 1.004-.62.717-.184 2.331-.118 2.6-.891.136-.39-.199-1.188-.553-1.767"/>
            <path fill="#21160A" d="M7.378 901.3a19.057 19.057 0 0 0-3.14-.228c-1.189.012-2.496.193-3.287 1.079-.89.997-.807 2.501-.652 3.829.555 4.75 1.347 9.472 2.371 14.144.067.3.149.626.392.816.232.181.55.19.845.201 1.5.054 3.008.334 4.495.118 1.486-.216 3.014-1.086 3.425-2.53.159-.56.137-1.153.114-1.734l-.194-4.852c-.067-1.678-.137-3.375-.586-4.993-.223-.804-.58-1.577-.77-2.388-.127-.543-.001-1.058-.092-1.578-.23-1.316-1.78-1.705-2.921-1.884"/>
            <path fill="#21160A" d="M18.474 900.867c.333-.17.687-.342 1.06-.327.375.014.767.284.78.657.01.312-.228.569-.453.785-1.317 1.264-9.99 9.099-11.496 6.974-1.71-2.414 8.507-7.27 10.11-8.089"/>
            <path fill="#EAEAEF" d="M23.934 901.236c.01.544.069 1.173.519 1.478.21.143.47.186.72.225.673.106 1.36.213 2.032.101.672-.111 1.339-.48 1.63-1.095.208-.437.205-.94.198-1.424a119.368 119.368 0 0 0-.09-3.737c-.01-.227-.025-.465-.143-.659-.274-.447-.961-.505-1.43-.53-.172-.01-.344-.007-.517-.004l-.537.009c-.468.008-.939.016-1.4.1-.272.048-.56.133-.773.318-.18.158-.21.396-.262.622-.348 1.504.026 3.079.053 4.596"/>
            <path fill="#E0A16C" d="M24.953 898.109c-.432-.037-.895-.078-1.273.135l.249 2.876c.048.558.118 1.165.514 1.562.435.437 1.118.476 1.735.489l.892.018c.6.012 1.312-.032 1.631-.54.17-.271.18-.608.183-.928.008-.668.408-3.141-.173-3.527-.318-.21-1.403.01-1.799.007-.653-.006-1.308-.092-1.959-.092"/>
            <path fill="#A88E7C" d="M25.303 895.938c-.206.02-.417.048-.585.121-.169.073-.285.204-.229.324.092.194.518.232.855.231l1.222-.001c.196 0 .399.016.594 0 .128-.012 1.313-.262.944-.556a.873.873 0 0 0-.305-.182.828.828 0 0 0-.212-.02c-.77-.003-1.518.007-2.284.083"/>
            <path fill="#EAEAEF" d="M22.756 901.993c-.211-.2-.205-.532-.193-.822.035-.88-.017-1.764-.157-2.633-.046-.288-.102-.579-.07-.868.033-.29.169-.584.421-.73.365-.209.847-.037 1.145.26.029.028.057.06.064.1.012.074-.06.139-.134.156-.073.017-.15.003-.226.01-.2.017-.364.178-.442.362-.078.184-.086.39-.089.59-.011.81.037 1.621.146 2.424.091.672 1.053.352.911.885-.121.456-1.088.54-1.376.266"/>
            <path fill="#A88E7C" d="M21.302 898.502c-1.433.616-2.787 3.038-.539 3.368.658.097 1.321-.185 1.855-.581.646-.48 1.19-1.299.91-2.052-.26-.695-1.132-.994-1.86-.85a1.825 1.825 0 0 0-.366.115"/>
            <path fill="#FFF" d="M26.298 898.763c.164.207.177.49.183.753.011.504.351 2.578-.327 2.635-.182-1.077-.021-2.314.144-3.388M27.654 898.763c.163.207.177.49.183.753.011.504.35 2.578-.327 2.635-.182-1.077-.021-2.314.144-3.388M25.025 898.794c.163.207.177.49.182.753.012.504.352 2.577-.326 2.635-.182-1.077-.022-2.314.144-3.388"/>
            <path fill="#EAEAEF" d="M27.763 907.448c.01.544.07 1.173.52 1.478.209.143.469.186.72.225.672.106 1.359.213 2.031.1.672-.11 1.34-.48 1.63-1.094.208-.437.206-.94.199-1.424a119.325 119.325 0 0 0-.09-3.737c-.01-.227-.026-.465-.144-.66-.183-.3-.558-.412-.902-.486-1.074-.234-3.098-.824-3.77.337-.697 1.208-.218 3.914-.194 5.261"/>
            <path fill="#E0A16C" d="M28.782 904.32c-.432-.036-.895-.077-1.273.136l.25 2.875c.047.559.117 1.166.513 1.563.436.437 1.118.476 1.735.489l.892.018c.6.012 1.312-.032 1.632-.54.17-.271.179-.609.182-.928.008-.668.409-3.141-.173-3.527-.318-.21-1.403.01-1.798.006-.654-.006-1.309-.091-1.96-.091"/>
            <path fill="#B1B1B2" d="M30.5 904.401l-.127 3.853c-.005.154-.013.32-.067.435-.524 1.11-.615-3.511-.618-3.666-.009-.437-.014-.905.107-1.276.31-.95.73-.154.704.654"/>
            <path fill="#FFF" d="M28.722 904.65c.164.207.177.49.182.753.012.504.352 2.578-.326 2.635-.182-1.077-.022-2.314.144-3.387M31.708 904.65c.164.207.177.49.183.753.012.504.351 2.578-.326 2.635-.183-1.077-.022-2.314.143-3.387"/>
            <path fill="#C69B93" d="M19.058 920.675c-.473 1.148-.948 2.305-1.193 3.522-.242 1.199-.256 2.432-.445 3.639-.22 1.405-.674 2.763-.918 4.164-.303 1.742-.276 3.523-.249 5.29.893.172 1.983.277 2.55-.432.262-.33.342-.763.41-1.178a80.997 80.997 0 0 0 1.061-13.134"/>
            <path fill="#353535" d="M27.87 956.27c-.335.126-1.262.88-.925 1.226 1.04 1.067 2.471 2.082 3.983 2.297.415.059.902.014 1.155-.32.27-.357.151-.861.02-1.289-.316-1.035-.61-1.154-1.643-1.504-.678-.23-1.862-.669-2.59-.41M19.36 957.946c-.353.062-1.404.631-1.138 1.033.824 1.242 2.041 1.852 3.487 2.345.397.135.883.181 1.194-.1.332-.3.309-.818.26-1.262-.118-1.076-.385-1.248-1.334-1.783-.624-.352-1.706-.352-2.469-.233"/>
            <path fill="#F5D2B1" d="M20.616 952.045c.38 2.274.63 4.567.828 6.864.013.161.045.35.191.422.078.037.17.03.256.02l.445-.045c.068-.007.14-.016.189-.064.056-.055.06-.143.062-.222.057-3.046 1.253-5.967 1.49-9.005.118-1.522-.006-3.052-.13-4.575-.013-.164-2.184.414-2.373.487-.304.116-.848.268-1.072.511-.21.228-.224.667-.262.97-.197 1.551.122 3.112.376 4.637M28.897 954.553c.303.652.616 1.953.873 2.625.107.28.214.578.443.774.229.195.624.23.804-.01.119-.16.107-.376.09-.574-.313-3.62-.96-19.419-1.78-22.96.037.162-1.874 10.624-2.068 10.676-.508.136-1.557.058-1.514.724.047.73.893 3.274 1.15 3.959a68.343 68.343 0 0 0 2.002 4.786"/>
            <g transform="translate(20.147 945.115)">
                <mask id="z" fill="#fff">
                    <use xlink:href="#y"/>
                </mask>
                <path fill="#EAEAEF" d="M3.956 10.206c-.037.29.43.321.624.54a.703.703 0 0 1 .131.301c.502 1.963.628 4.021.372 6.03-.204 1.597-.683 3.226-1.78 4.406-.344.37-.758.696-1.247.827-.488.131-1.06.033-1.402-.338-.177-.191-.28-.436-.38-.676-.416-1.001-.814-2.03-.908-3.109-.074-.848.043-1.7.074-2.551.03-.8-.018-1.598-.029-2.396-.008-.662-.103-1.563.146-2.193.248-.63 1.138-.506 1.706-.564l2.693-.277" mask="url(#z)"/>
            </g>
            <g transform="translate(25.904 945.754)">
                <mask id="B" fill="#fff">
                    <use xlink:href="#A"/>
                </mask>
                <path fill="#EAEAEF" d="M4.959 8.8c.1-.03.207-.06.305-.026.094.031.16.112.218.191.515.699.818 1.53 1.062 2.363.312 1.07.538 2.164.674 3.27.09.73.139 2.143-.095 2.842-.244.732-.775.678-1.326 1.218-.267.261-.577.53-.95.537-.323.008-.616-.185-.856-.401-1.854-1.66-.823-.179-1.988-4.017a45.93 45.93 0 0 0-.77-2.314c-.182-.503-.878-1.604-.662-2.126.221-.533 1.398-.647 1.875-.788L4.96 8.8" mask="url(#B)"/>
            </g>
            <g>
                <path fill="#C69B93" d="M29.663 910.812c-.151.69-.302 1.38-.394 2.075-.154 1.175-.211 2.275-.89 3.326-.298.459-.742.848-1.278.958-.426.087-.93-.046-1.145-.424-.164-.288-.13-.643-.08-.971.29-1.886.979-3.684 1.663-5.465.484-1.262.705-2.19 2.146-1.876.088.019.182.04.249.102.122.113.108.307.082.472a28.43 28.43 0 0 1-.353 1.803"/>
                <path fill="#F5D2B1" d="M30.906 907.268c.037-.49-.02-1.005-.054-1.422-.03-.37-.15-.842-.521-.88-.158-.016-.31.061-.44.153-.682.485-1.427 2.427-1.033 3.22.37.745 1.075.699 1.604.134.294-.314.41-.749.444-1.205"/>
                <path fill="#1F9995" d="M28.1 914.007c1.168 2.8 1.756 6.255 1.932 7.724.617 5.167 1.234 26.74 1.703 31.923.035.38-13.885-.732-15.177-.63.62-3.87 1.238-24.143 1.858-28.013.53-3.3.215-6.641.802-9.905.26-1.445.876-2.869 1.967-3.85 3.313-2.982 5.525-.58 6.915 2.751"/>
                <path fill="#492317" d="M28.363 909.859c.116-3-.032-6.282-2.58-7.094-1.059-.338-2.23-.588-3.26-.174-4.135 1.664-3.823 7.911-3.86 11.46-.055 5.411.248 10.895 1.856 16.097 3.435.09 6.876-.054 10.292-.429-.616.068-2.406-14.42-2.54-15.77-.102-1.02.032-2.516.092-4.09"/>
                <path fill="#A88E7C" d="M29.16 902.106c-.205.02-.416.048-.585.12-.169.074-.285.205-.229.325.092.194.518.231.855.231l1.222-.001c.196 0 .4.015.595-.001.128-.011 1.312-.261.944-.556a.873.873 0 0 0-.306-.182.828.828 0 0 0-.212-.02c-.77-.003-1.517.007-2.284.084"/>
                <path fill="#CAD6E3" d="M30.878 941.03c.082.013.128.023.128.03.072 1.067.287 2.236.198 3.293a48.87 48.87 0 0 0-2.536-.263c-2.387-.17-4.782-.168-7.172-.275a57.507 57.507 0 0 1-2.299-.138c-.464-.04-1.46-.363-1.867-.032.084-.964.088-1.934.013-2.899 1.315.22 2.398-.126 3.692-.242 1.342-.12 2.694-.03 4.036.047.362.021 4.975.354 5.807.48M30.878 946.248c.082.013.128.023.128.031.072 1.066.287 2.235.198 3.293a48.87 48.87 0 0 0-2.536-.264c-2.387-.169-4.782-.168-7.172-.274a57.508 57.508 0 0 1-2.299-.138c-.464-.04-1.46-.363-1.867-.033.084-.963.088-1.934.013-2.898 1.315.22 2.398-.127 3.692-.242 1.342-.12 2.694-.031 4.036.047.362.02 4.975.354 5.807.478"/>
            </g>
        </g>
        <g>
            <path fill="#F5D7CC" d="M851.823 388.209c.016.098.03.206-.023.29-.057.09-.171.122-.276.144a6.713 6.713 0 0 1-1.958.122c-.004-.987-.008-1.981-.2-2.95-.16-.818-.452-1.604-.744-2.386l-.808-2.173c.021.058 2.432.057 2.695.106.838.156.729.531.76 1.328.072 1.848.257 3.693.554 5.519M839.619 386.587c-.075.021-.156.042-.229.013-.065-.026-.108-.086-.147-.144l-.35-.516c-.04-.06-.082-.126-.075-.197.008-.086.084-.148.153-.2.956-.717 1.964-1.505 2.473-2.615.227-.495.135-2.302.696-2.355.54-.052 1.152 1.123 1.308 1.495.407.972.13 2.023-.545 2.822-.813.962-2.112 1.363-3.284 1.697"/>
            <g transform="translate(835.595 345.406)">
                <mask id="D" fill="#fff">
                    <use xlink:href="#C"/>
                </mask>
                <path fill="#F5D7CC" d="M4.843 5.82a27.367 27.367 0 0 0-4.56 10.272c2.296.128 4.613.256 6.879-.126.857-.144 1.766-.4 2.302-1.08.536-.679.431-1.886-.38-2.192a7.902 7.902 0 0 1-5.332 1.352 10.96 10.96 0 0 1 1.594-2.184c.216-.23.451-.457.749-.562.345-.122.724-.064 1.09-.061 2.029.016 3.626-1.63 4.971-3.139.225-.252.47-.516.797-.604.39-.105.793.064 1.17.21 1.507.583 3.142.838 4.757.74.574-.034 1.169-.12 1.649-.434s.815-.911.66-1.462c-.1-.356-.376-.631-.642-.889L15.589.855c-.461-.447-1.1-.93-1.683-.659-.465.215-.61.837-.454 1.322.157.484.534.861.899 1.219l2.433 2.383-7.17-.533c-.102-.008-.217-.022-.277-.104-.047-.065-.044-.152-.048-.232-.032-.628-.628-1.111-1.249-1.235C6 2.61 5.826 4.46 4.843 5.82" mask="url(#D)"/>
            </g>
            <path fill="#2A3755" d="M842.844 354.84c.308 1.396.078 2.953-.258 4.343l1.612-.722c.122-.055.253-.11.385-.088.125.02.227.11.31.206.563.664.372 1.374-.27 1.964-.642.59-1.568.77-2.443.765-.949 6.747-2.475 13.693-4.515 20.196 1.189.092 2.35.384 3.519.62 3.6.725 7.404.91 10.898-.219.138-.044.283-.097.369-.212.076-.102.09-.236.103-.362.352-3.65.7-7.38-.168-10.945-.345-1.417-.881-2.798-1.023-4.249-.095-.964-.015-1.953-.269-2.888-.269-.99-.894-1.853-1.21-2.83-.378-1.166-.294-2.43-.107-3.64.132-.856.31-1.747.047-2.573-.136-.43-.386-.815-.65-1.182-.68-.95-1.471-1.82-2.354-2.59-.423-.368-1.141-.688-1.473-.236-.327.444.167 1.005.511 1.437.387.484.612 1.092.635 1.71.006.166-.01.35-.126.47-.117.121-.3.143-.47.158l-.79.07c-.168.015-.349.027-.496-.056-.168-.093-.25-.285-.328-.46a5.883 5.883 0 0 0-2.132-2.493c-.331-.216-.711-.405-1.105-.366-1.615.16.035 1.344.418 1.694.709.648 1.176 1.549 1.38 2.478"/>
            <path fill="#FCE5DE" d="M842.568 343.267c.808.776 1.629 1.57 2.156 2.556.223.416.392.873.39 1.345-.002.47-.198.958-.586 1.23-.578.405-1.367.238-2.05.055l-2.803-.753a.6.6 0 0 1-.252-.111c-.108-.097-.13-.256-.144-.4a14.81 14.81 0 0 1 .076-3.321c.074-.545.287-1.79.952-1.972.74-.203 1.804.932 2.26 1.371"/>
            <path fill="#010B0E" d="M837.344 342.545c-.41.506-.68 1.11-.91 1.718-.232.611-.432 1.24-.486 1.891-.036.427 0 .883.247 1.234.25.356.672.545 1.078.71.614.248 1.237.477 1.867.685.168.055.355.11.517.037.115-.05.195-.156.259-.264.517-.873.246-1.928.29-2.882.044-.983.754-1.76.797-2.71.033-.73-.443-1.19-1.125-1.373-.983-.262-1.918.195-2.534.954"/>
            <path fill="#010B0E" d="M837.894 352.788c.31-.153.573-.384.82-.625.463-.455.895-.985 1.025-1.62.057-.276.053-.56.023-.84-.05-.47-.184-.95-.495-1.308-.31-.36-.827-.57-1.279-.42-.643.213-.867.974-1.145 1.588a4.6 4.6 0 0 1-1.582 1.887c-.12.084-.26.185-.26.331-.001.104.07.193.139.271.315.363.59.854 1.055.985.506.142 1.238-.058 1.7-.249"/>
            <path fill="#20843A" d="M839.033 349.127a3.854 3.854 0 0 1-1.365-.48c-.196-.115-.406-.331-.304-.533.774-.153 1.564.096 2.313.342.081.026.168.057.22.123.131.164-.038.413-.237.48-.2.066-.422.035-.622.099"/>
            <path fill="#491F08" d="M845.017 346.074l1.395-.474a.798.798 0 0 1 .339-.062c.254.028.411.278.611.437.427.338 1.042.247 1.575.129a39.629 39.629 0 0 0 5.83-1.781 30.129 30.129 0 0 0-.92-3.323l-6.175 1.09c-.476.084-.98.181-1.34.502-.36.321-.488.948-.131 1.272l-1.563.932c-.005.126.328 1.296.38 1.278"/>
            <path fill="#010B0E" d="M839.676 387.476c.043.107.096.22.197.277.084.048.188.047.285.044l.68-.018c.34-.01.727.002.945.26.053.063.093.144.079.225-.019.099-.111.165-.2.212-.394.208-.853.243-1.299.275l-1.075.077c-.129.01-.266.017-.382-.042a.705.705 0 0 1-.223-.224c-.495-.673-2.08-2.088-.822-2.733 1.13-.578 1.509.896 1.815 1.647M851.373 388.68c.62-.08 1.236-.278 1.725-.663.198-.156.407-.352.659-.33a.508.508 0 0 1 .338.19c.251.305.15.788-.122 1.076-.27.288-.663.426-1.043.54-1.109.335-2.269.562-3.423.461-.271-.022.002-1.047.192-1.171.356-.233 1.254-.048 1.674-.103"/>
        </g>
    </g>
</svg>
