<svg xmlns="http://www.w3.org/2000/svg" xmlns:xlink="http://www.w3.org/1999/xlink" width="19" height="73" viewBox="0 0 19 73">
    <defs>
        <path id="a" d="M.172.138H2.32v6.335H.172z"/>
        <path id="c" d="M0 .233h18.984v34.33H0z"/>
    </defs>
    <g fill="none" fill-rule="evenodd">
        <path fill="#E5D6D6" d="M8.921 15.574c.232-.15.445-.312.602-.503.396-.485.694-1.332.925-1.914.595-1.493.673-3.137.648-4.743-.656-.077-1.267.307-1.814.675a731.221 731.221 0 0 0-3.034 2.05c-.72.49-1.462 1.004-1.914 1.747-.368.604-.515 1.313-.627 2.01a27.158 27.158 0 0 0-.323 5.593c.727-.07 1.453-.148 2.178-.238.423-.05 1.391.008 1.73-.251.743-.572.454-2.615.418-3.404a.414.414 0 0 1 .023-.195.414.414 0 0 1 .121-.136c.304-.251.708-.458 1.067-.691"/>
        <path fill="#682929" d="M8.83 13.642c-.138.375-.34.732-.398 1.129-.048.333.01.68-.081 1.004-.17.603-.803.96-1.415 1.098-.613.138-1.257.125-1.856.316-.203.065-.403.154-.617.16-.406.011-.76-.279-1.011-.597-.159-.2-.3-.433-.3-.688 0-.536.575-.861 1.062-1.09 1.686-.792 3.342-1.88 4.19-3.534.15-.292.29-.671.613-.775.237.89.132 2.115-.186 2.977"/>
        <path fill="#AA5377" d="M4.316 72.233a.664.664 0 0 0 .024.29c.052.13.183.215.315.265.556.21 1.188-.057 1.643-.438.455-.382.807-.877 1.274-1.243.694-.545 1.586-.767 2.347-1.214.762-.447 1.432-1.3 1.188-2.145a.43.43 0 0 0-.118-.214.458.458 0 0 0-.218-.09c-.45-.09-.917-.03-1.373.03l-2.28.3c-.766.1-2.152.176-2.57.92-.426.76-.176 2.658-.232 3.54"/>
        <path fill="#894966" d="M.504 63.247a3.21 3.21 0 0 0 2.272-.232c.358-.181.678-.429.995-.675L5 61.386c.105-.08.214-.168.268-.289a.808.808 0 0 0 .045-.33l-.002-1.797c0-.093-.003-.194-.065-.265-.05-.058-.13-.082-.206-.098-.832-.174-1.659.254-2.401.667-.597.333-1.692.674-2.013 1.318-.118.236-.105 2.66-.123 2.655"/>
        <path fill="#4688AE" d="M.31 60.132c-.033.288-.044.633.188.81.127.097.296.115.455.129.844.074 1.765.13 2.463-.348.707-.485.981-1.38 1.192-2.21a68.243 68.243 0 0 0 2.076-18.308c-.006-.271-.02-.56-.18-.78-.156-.217-.422-.322-.677-.404-.64-.203-2.01-.658-2.66-.29-.657.373-.564 1.446-.638 2.088l-.744 6.474L.31 60.132"/>
        <path fill="#58A1B8" d="M4.278 68.624c.74.051 1.484.032 2.22-.056.16-.019.331-.047.449-.157.11-.101.15-.255.187-.4 1.855-7.309 3.718-14.667 4.23-22.189.02-.272.035-.554-.057-.811-.087-.243-.262-.442-.436-.632-1.424-1.556-3.163-3.219-5.051-4.205-2.367-1.235-1.819 3.173-1.87 4.53a233.832 233.832 0 0 0 .328 23.92"/>
        <path fill="#2C2E33" d="M10.97 5.606c1.188.53 1.316 2.263.659 3.382-.658 1.119-1.817 1.828-2.8 2.68-1.151 1-2.082 2.224-3.159 3.304-1.076 1.08-2.364 2.042-3.868 2.31-.534.095-1.187.048-1.473-.411-.131-.21-.156-.469-.176-.716-.069-.842-.117-1.713.164-2.51.322-.915 1.04-1.628 1.735-2.307C4.15 9.29 7.517 4.746 10.97 5.606"/>
        <g transform="matrix(-1 0 0 1 18.224 .248)">
            <mask id="b" fill="#fff">
                <use xlink:href="#a"/>
            </mask>
            <path fill="#E5D6D6" d="M2.067 1.945c-.046-.397-.106-.803-.299-1.155C1.576.44 1.224.15.822.138.7.135.57.163.485.251.389.35.379.505.375.644L.171 6.46c0 .014 1.353.03 1.49-.032.549-.248.409-.159.552-.782.254-1.103-.016-2.59-.147-3.7" mask="url(#b)"/>
        </g>
        <g transform="matrix(-1 0 0 1 19 6.042)">
            <mask id="d" fill="#fff">
                <use xlink:href="#c"/>
            </mask>
            <path fill="#C88688" d="M11.516 13.027c1.097-1.294 3.198-1.596 4.617-.662 1.636 1.076 2.07 3.243 2.294 5.182a84.223 84.223 0 0 1 .382 15.095c-.014.214-.034.444-.173.608-.14.166-.365.225-.576.276l-3.62.868c-.526.126-1.083.252-1.6.094-.763-.233-1.21-.998-1.583-1.7-1.381-2.602-2.793-5.302-2.996-8.239-.17-2.457.483-5.124-.744-7.262-.788-1.373-2.207-2.24-3.391-3.293C.393 10.674-1.008 4.994.757.33L3.486.233c-.077 2.169-.043 4.375.57 6.458.612 2.083 1.866 4.053 3.755 5.136 1.888 1.082 4.453 1.106 6.14-.268" mask="url(#d)"/>
        </g>
        <path fill="#41434F" d="M6.298 6.23c.16.074.26.232.353.38.465.75.95 1.593.783 2.459-.113.584-.512 1.073-.944 1.484a7.942 7.942 0 0 1-4.667 2.132c-.305.03-.64.033-.881-.155-.23-.18-.313-.488-.354-.776-.22-1.55.46-3.124 1.61-4.159.953-.855 2.734-2.001 4.1-1.365"/>
        <path fill="#2C2E33" d="M14.1 43.981c.06.586.104 1.229-.232 1.714-.472.682-1.455.734-2.282.644a14.136 14.136 0 0 1-3.36-.793c-.24-.088-.487-.19-.656-.381-.174-.197-.242-.463-.305-.718-.75-3.038-2.359-7.717-1.107-10.794.849-2.087 4.843-1.763 6.643-1.698.882 3.837.907 8.101 1.3 12.026"/>
        <path fill="#41434F" d="M4.396 24.796c-.74-1.627-1.528-3.335-1.383-5.116.021-.26.061-.529-.026-.775s-.355-.453-.603-.367c-.129.044-.221.155-.307.26L.712 20.476c-.161.198-.328.408-.362.66-.033.247.066.49.164.718l4.805 11.294c.33.776 1.274 3.604 2.409 1.968.824-1.188-.306-3.147-.74-4.237a139.448 139.448 0 0 0-2.592-6.083"/>
    </g>
</svg>
