<svg xmlns="http://www.w3.org/2000/svg" xmlns:xlink="http://www.w3.org/1999/xlink" width="158" height="127" viewBox="0 0 158 127">
    <defs>
        <path id="a" d="M.375.264C-.13.692.034 1.755.171 2.308c.12.486.39.963.835 1.219.165.094.347.155.51.254.162.1.309.25.335.439.034.247-.144.47-.325.642-.182.17-.39.343-.446.586-.094.407.287.773.674.93.498.203 1.082.218 1.565-.02.481-.237.836-.744.834-1.281 0-.172-.036-.342-.06-.513-.13-.915.062-1.841.13-2.764.032-.451-.02-1.003-.425-1.204a.673.673 0 0 0-.662.055C2.96.77 2.861.995 2.63.784 2.541.702 2.482.59 2.387.516 2.052.253 1.551.022 1.082.022.826.022.58.092.375.264"/>
        <path id="c" d="M.601.32c.473 1.577.67 3.237.58 4.881-.012.22-.037.46-.188.62-.259.276-.816.255-.9.623-.07.31.294.536.604.603.596.128 1.215.067 1.822.004.154-.015.323-.038.428-.153.09-.1.109-.244.121-.379.15-1.602.102-3.222-.136-4.814-.061-.413-.022-1.049-.394-1.32-.123-.09-.882-.18-1.413-.18-.314 0-.55.031-.524.115z"/>
        <path id="e" d="M.69.192c.367 1.732.616 3.49.743 5.257a1.3 1.3 0 0 0-1.115.197.36.36 0 0 0-.13.146c-.05.125.03.262.115.365a1.98 1.98 0 0 0 2.138.575c.148-.053.295-.13.386-.26.096-.137.114-.312.128-.48.117-1.347.189-2.698.218-4.05.005-.234.113-.756.01-.962C3.08.77 2.69.678 2.477.597 2.314.535.707.192.69.192z"/>
        <path id="g" d="M4.334.106a24.857 24.857 0 0 0-3.85.59C.412.711.336.73.284.783c-.07.07-.077.18-.08.279-.058 2.283.226 4.56.51 6.826.047.382.097.768.24 1.125.136.335.352.632.499.963.202.453.27.958.48 1.407a.48.48 0 0 0 .144.198c.089.063.205.065.314.065l2.21.006c.314 0 .63.001.938-.056.425-.079.822-.265 1.237-.384 1.162-.333 2.514-.164 3.476-.896.255-.194.476-.46.524-.777.04-.256-.037-.514-.115-.76-.388-1.233-.847-2.445-1.148-3.702a11.358 11.358 0 0 1-.288-1.762c-.045-.567.067-1.13.038-1.688C9.22.78 7.486.358 6.784.203A6.705 6.705 0 0 0 5.349.064c-.338 0-.678.018-1.015.042"/>
        <path id="i" d="M4.334.106a24.857 24.857 0 0 0-3.85.59C.412.711.336.73.284.783c-.07.07-.077.18-.08.279-.058 2.283.226 4.56.51 6.826.047.382.097.768.24 1.125.136.335.352.632.499.963.202.453.27.958.48 1.407a.48.48 0 0 0 .144.198c.089.063.205.065.314.065l2.21.006c.314 0 .63.001.938-.056.425-.079.822-.265 1.237-.384 1.162-.333 2.514-.164 3.476-.896.255-.194.476-.46.524-.777.04-.256-.037-.514-.115-.76-.388-1.233-.847-2.445-1.148-3.702a11.358 11.358 0 0 1-.288-1.762c-.045-.567.067-1.13.038-1.688C9.22.78 7.486.358 6.784.203A6.705 6.705 0 0 0 5.349.064c-.338 0-.678.018-1.015.042"/>
        <path id="k" d="M4.334.106a24.857 24.857 0 0 0-3.85.59C.412.711.336.73.284.783c-.07.07-.077.18-.08.279-.058 2.283.226 4.56.51 6.826.047.382.097.768.24 1.125.136.335.352.632.499.963.202.453.27.958.48 1.407a.48.48 0 0 0 .144.198c.089.063.205.065.314.065l2.21.006c.314 0 .63.001.938-.056.425-.079.822-.265 1.237-.384 1.162-.333 2.514-.164 3.476-.896.255-.194.476-.46.524-.777.04-.256-.037-.514-.115-.76-.388-1.233-.847-2.445-1.148-3.702a11.358 11.358 0 0 1-.288-1.762c-.045-.567.067-1.13.038-1.688C9.22.78 7.486.358 6.784.203A6.705 6.705 0 0 0 5.349.064c-.338 0-.678.018-1.015.042"/>
        <path id="m" d="M4.334.106a24.857 24.857 0 0 0-3.85.59C.412.711.336.73.284.783c-.07.07-.077.18-.08.279-.058 2.283.226 4.56.51 6.826.047.382.097.768.24 1.125.136.335.352.632.499.963.202.453.27.958.48 1.407a.48.48 0 0 0 .144.198c.089.063.205.065.314.065l2.21.006c.314 0 .63.001.938-.056.425-.079.822-.265 1.237-.384 1.162-.333 2.514-.164 3.476-.896.255-.194.476-.46.524-.777.04-.256-.037-.514-.115-.76-.388-1.233-.847-2.445-1.148-3.702a11.358 11.358 0 0 1-.288-1.762c-.045-.567.067-1.13.038-1.688C9.22.78 7.486.358 6.784.203A6.705 6.705 0 0 0 5.349.064c-.338 0-.678.018-1.015.042"/>
        <path id="o" d="M4.334.106a24.857 24.857 0 0 0-3.85.59C.412.711.336.73.284.783c-.07.07-.077.18-.08.279-.058 2.283.226 4.56.51 6.826.047.382.097.768.24 1.125.136.335.352.632.499.963.202.453.27.958.48 1.407a.48.48 0 0 0 .144.198c.089.063.205.065.314.065l2.21.006c.314 0 .63.001.938-.056.425-.079.822-.265 1.237-.384 1.162-.333 2.514-.164 3.476-.896.255-.194.476-.46.524-.777.04-.256-.037-.514-.115-.76-.388-1.233-.847-2.445-1.148-3.702a11.358 11.358 0 0 1-.288-1.762c-.045-.567.067-1.13.038-1.688C9.22.78 7.486.358 6.784.203A6.705 6.705 0 0 0 5.349.064c-.338 0-.678.018-1.015.042"/>
        <path id="q" d="M4.334.106a24.857 24.857 0 0 0-3.85.59C.412.711.336.73.284.783c-.07.07-.077.18-.08.279-.058 2.283.226 4.56.51 6.826.047.382.097.768.24 1.125.136.335.352.632.499.963.202.453.27.958.48 1.407a.48.48 0 0 0 .144.198c.089.063.205.065.314.065l2.21.006c.314 0 .63.001.938-.056.425-.079.822-.265 1.237-.384 1.162-.333 2.514-.164 3.476-.896.255-.194.476-.46.524-.777.04-.256-.037-.514-.115-.76-.388-1.233-.847-2.445-1.148-3.702a11.358 11.358 0 0 1-.288-1.762c-.045-.567.067-1.13.038-1.688C9.22.78 7.486.358 6.784.203A6.705 6.705 0 0 0 5.349.064c-.338 0-.678.018-1.015.042"/>
        <path id="s" d="M.186.1h2.925v2.532H.186z"/>
    </defs>
    <g fill="none" fill-rule="evenodd">
        <path fill="#403542" d="M138.299 19.178a1.1 1.1 0 0 0-1.007.625c-.159.345-.147.789-.438 1.033-.124.105-.286.153-.442.202-.693.217-1.367.5-2.008.843-.133.071-.271.152-.342.285-.058.11-.062.238-.064.362l-.096 4.863c-.006.304-.005.63.168.88.162.232.446.35.726.39.285.04.58.008.85-.091.285-.105.538-.282.787-.457l3.25-2.278c.193-.135.394-.279.5-.49.116-.233.097-.507.075-.767l-.298-3.56c-.067-.804-.746-1.814-1.661-1.84"/>
        <path fill="#5D5B5E" d="M138.207 35.289c.005.366.019.73.044 1.093.007.106.02.223.1.295.075.07.19.075.292.076l2.018.027c.081.001.167.001.236-.041.082-.05.122-.147.152-.239.193-.588.228-1.216.26-1.834.085-1.563.163-3.127.244-4.69.08-1.539.535-3.017.99-4.48.51 3.704.567 7.554.621 11.29.003.186.01.386.123.533.122.16.335.216.532.26.429.093.898.172 1.289-.027.61-.31.734-1.11.784-1.793l1.02-14.12c-.021.284-5.151-.28-5.622-.356-.61-.097-1.654-.557-2.187-.1-.495.426-.339 1.582-.364 2.14l-.3 6.659c-.078 1.752-.256 3.542-.232 5.307"/>
        <path fill="#164051" d="M138.987 8.142c-1.262 1.289-1.266 2.992-1.223 4.58l.179 6.619.784-.023c.177-.9-.036-1.82-.175-2.73-.237-1.548-.245-3.116.059-4.652.15-.761.378-1.515.696-2.247.322-.743.891-1.407 1.237-2.133.507-1.065-1.282.305-1.557.586"/>
        <path fill="#1F5672" d="M142.922 6.948c.505-.001 1.017-.001 1.5.146.47.144.889.422 1.282.719.307.233.612.49.792.831.177.335.218.723.256 1.101.318 3.126.635 6.283.263 9.402-.031.26-.067.521-.068.783-.003.512.126 1.027.044 1.533a.419.419 0 0 1-.092.226c-.078.082-.201.096-.313.104a39.78 39.78 0 0 1-6.851-.077.606.606 0 0 1-.267-.069c-.1-.061-.154-.174-.202-.28-1.06-2.368-1.262-5.037-1.106-7.626.033-.55.082-1.1.19-1.641a7.574 7.574 0 0 1 .517-1.613c.22-.493.494-.96.711-1.453.118-.267.225-.54.292-.824.04-.168.014-.446.105-.592.469-.748 2.209-.667 2.947-.67"/>
        <path fill="#F6FFFF" d="M140.336 7.844c.051-.253.146-.494.316-.686.124-.139.742-.103.928-.126.373-.045.747-.091 1.122-.112a9.058 9.058 0 0 1 1.228.03c.099.009.21.026.265.11a.248.248 0 0 1 .032.146.956.956 0 0 1-.108.35c-.213.466-.41.94-.68 1.371-.14.225-.258.465-.387.696-.092.166-.382.51-.388.696l-1.76 3.16c-.025.045-.057.072-.103.075-.122-.44-.197-.885-.26-1.337-.058-.42.003-.832-.02-1.258-.05-.906-.285-1.799-.235-2.71.008-.135.023-.272.05-.405"/>
        <path fill="#475258" d="M137.752 37.836c.007.072.02.148.067.204.055.066.142.093.225.115.446.123.908.22 1.37.184.46-.036.927-.221 1.22-.58.383-.471.454-1.232.362-1.808-1.243-.132-3.195.388-3.244 1.885M141.976 38.56c-.036.136-.058.287.004.413.088.18.308.245.504.28.268.05.544.077.812.03.286-.05.55-.182.802-.327.495-.284.977-.647 1.215-1.166.155-.34.193-.72.23-1.091-.077.783.836-.73-2.124.36-.68.25-1.253.786-1.443 1.501"/>
        <path fill="#000E0A" d="M136.847 11.275c-.052-.057-.106-.12-.18-.142-.095-.028-.195.017-.283.061l-.884.441 1.186.932c.025.02.05.04.08.048.06.015.12-.017.173-.049.197-.118.741-.336.673-.608-.056-.223-.602-.502-.765-.683"/>
        <path fill="#E0C3AD" d="M137.578 19.091c-.136.217-.168.483-.176.739a.752.752 0 0 0 .031.286.542.542 0 0 0 .133.194c.312.307.887.28 1.169-.055.282-.336.21-.907-.145-1.162-.358-.258-.703-.493-1.012-.002M136.971 11.948a.837.837 0 0 0-.352.033c-.227.087-.349.334-.415.568-.06.21-.093.428-.098.647-.002.069 0 .14.031.201.039.075.114.121.188.162a5.11 5.11 0 0 0 2.657.645c.062-.47.196-1.337-.159-1.702-.384-.397-1.335-.521-1.852-.554"/>
        <path fill="#164051" d="M144.943 10.312l-.51 1.928c-.054.202-.11.41-.236.578-.277.37-.8.437-1.263.453a15.958 15.958 0 0 1-4.211-.423c-.05.4-.075.804-.077 1.207 0 .105.003.217.062.303.065.096.183.138.293.175l2.74.914c.305.101.61.203.927.259 1.296.227 2.641-.371 3.56-1.314.378-.388.699-.835.915-1.332.271-.622.368-1.3.405-1.974.032-.606.17-1.451-.196-1.973-.324-.462-.806-.64-1.324-.407-.671.301-.91.944-1.085 1.606"/>
        <path fill="#E0C3AD" d="M140.476 6.028c.165.095.348.155.51.254.163.1.31.25.336.439.034.247-.144.47-.325.642-.182.17-.39.343-.446.586-.095.407.287.773.674.93.497.203 1.082.218 1.564-.02.482-.237.837-.744.835-1.281-.001-.172-.036-.342-.06-.512-.13-.916.061-1.842.13-2.765.032-.451-.02-1.002-.426-1.204a.673.673 0 0 0-.662.055c-.175.119-.275.344-.505.133-.09-.082-.148-.194-.243-.268-.519-.407-1.437-.74-2.013-.252-.505.428-.34 1.491-.203 2.044.12.486.389.963.834 1.219"/>
        <path fill="#573E3D" d="M139.668 1.076c.679-.693 1.747-1.016 2.667-.71.243.08.47.2.684.342.73.484 1.292 1.23 1.515 2.079.224.848.1 1.789-.367 2.53-.114.181-.255.356-.45.442-.196.086-.455.056-.58-.117-.174-.24-.013-.565.092-.841.08-.21.125-.432.134-.657a.568.568 0 0 0-.034-.25.343.343 0 0 0-.461-.156.343.343 0 0 0-.111.475c-.154.086-.38.158-.48.012-.038-.057-.04-.131-.047-.2a1.251 1.251 0 0 0-.655-.972 1.25 1.25 0 0 0-1.17.02c-.261.147-.463.385-.732.515-.174.084-.778.26-.914.093-.125-.153.03-.783.066-.963.124-.61.405-1.194.843-1.642"/>
        <g transform="translate(139.47 2.501)">
            <mask id="b" fill="#fff">
                <use xlink:href="#a"/>
            </mask>
            <path fill="#E8CBB8" d="M1.421 3.848c.328.059.66.095.993.109.358.014.729 0 1.053-.153.19-.09.359-.225.486-.392.107-.14.185-.3.26-.458.287-.605.553-1.227.677-1.886C4.123.748 3.496.176 2.828-.319 2.16-.813 1.388-1.25.557-1.225c-.194.006-.39.039-.568.117-.2.088-.372.232-.512.4-.17.206-.294.448-.397.694a5.506 5.506 0 0 0-.396 1.54c-.026.244-.035.492.017.73.084.385.318.716.558 1.027.251.325.525.65.893.832.327.161.716.193 1.065.089a.674.674 0 0 1 .126-.309c.022-.028.042-.053.078-.047" mask="url(#b)"/>
        </g>
        <g>
            <path fill="#332F1D" d="M28.498 56.26c.003.196.032.38.097.538.197.482.98.629 1.434.645a.438.438 0 0 0 .227-.035c.063-.035.107-.097.158-.148.234-.231.61-.213.933-.16.464.077.924.194 1.394.193.47-.001.964-.138 1.277-.489.17-.19.27-.492.116-.695-.126-.167-.36-.191-.564-.238-.513-.119-.939-.447-1.383-.712-.474-.282-.936-.344-1.463-.475a6.419 6.419 0 0 0-1.463-.19c-.091-.001-.187 0-.264.05a.456.456 0 0 0-.15.206c-.179.392-.357.99-.349 1.51"/>
            <path fill="#9AAFC1" d="M29.482 51.375c-.244.69-.556 1.391-.503 2.122.034.464.2.99-.092 1.354-.102.127-.251.215-.336.355-.16.266-.022.63.223.821.245.191.565.25.871.3.492.078 1.008.146 1.48-.015.47-.162.877-.626.802-1.119-.031-.201-.136-.386-.161-.588-.028-.234.054-.465.133-.687 1.282-3.565 2.394-6.96 2.051-10.777-.03-.346-.065-.705-.235-1.008-.183-.325-.5-.55-.821-.74a7.559 7.559 0 0 0-2.26-.881c-.161-.035-.34-.061-.483.023-.155.093-.214.287-.25.464a5.259 5.259 0 0 0-.078 1.566c.057.556.2 1.098.297 1.648.412 2.342.15 4.932-.638 7.162"/>
            <path fill="#E0CDBD" d="M28.015 44.86c.22.084.476-.049.613-.242.472-.67.716-2.473-.588-1.983-.322.121-.706.403-.732.778-.022.322.381 1.32.707 1.446"/>
            <path fill="#4F4621" d="M31.907 56.724c.218.562.886.777 1.47.922l2.64.656c.494.122 1.035.241 1.494.021.083-.04.17-.102.181-.194a.282.282 0 0 0-.029-.141c-.197-.47-.67-.755-1.114-1.006l-1.301-.738c-.258-.147-.528-.304-.68-.56-.075-.128-.116-.274-.18-.41-.26-.555-1.187-1.058-1.769-.676-.518.339-.933 1.558-.712 2.126"/>
            <path fill="#A6C3DD" d="M29.212 42.031l1.607 2.237c.353.49.709.986.952 1.54.51 1.154.495 2.462.471 3.724l-.057 3.068c-.018.949-.04 1.924-.41 2.799a6.698 6.698 0 0 0 2.448.32c.23-.013.482-.048.638-.218.114-.123.155-.295.184-.46.257-1.42-.018-2.886.15-4.319.072-.618.226-1.225.304-1.843.162-1.281-.006-2.58-.175-3.86l-.508-3.87c-.084-.636-.189-1.319-.633-1.782-.334-.346-.808-.513-1.264-.668-.788-.269-1.594-.54-2.428-.542-.76-.002-1.919.31-2.236 1.098-.369.916.46 2.084.957 2.776"/>
            <path fill="#E0CDBD" d="M32.215 24.36c-.464.923-1.768 1.28-2.028 2.28-.03.116-.043.244.008.352a.6.6 0 0 0 .131.165 4.612 4.612 0 0 0 3.22 1.3c.21-.002.452-.036.565-.213.1-.155.059-.36-.014-.53-.072-.17-.174-.332-.19-.516-.02-.236.104-.458.164-.687.108-.413-.003-.868-.254-1.212-.252-.344-.633-.581-1.043-.699"/>
            <path fill="#EFDCCA" d="M31.54 23.943a.412.412 0 0 0-.223.515c.054.137.18.232.256.358.136.222.11.514.241.739.068.117.174.206.277.292l.912.765c.171.144.346.29.551.378.206.088.45.112.65.01.168-.086.283-.248.39-.404.113-.164.227-.328.336-.495.35-.532.664-1.095.836-1.708.172-.613.194-1.282-.034-1.877a.786.786 0 0 0-.209-.332.944.944 0 0 0-.34-.158c-.435-.134-.905-.27-1.337-.125-.304.102-.548.33-.77.562-.312.329-.61.688-.8 1.103-.052.117-.113.5-.228.53-.126.033-.287-.24-.509-.153"/>
            <path fill="#D6C8A3" d="M33.605 24.583c.125-.029.24-.088.353-.146.677-.347 1.37-.707 1.877-1.275.175-.195.33-.426.356-.687.044-.425-.254-.801-.535-1.124-.405-.468-.814-.939-1.308-1.31-.155-.117-.325-.225-.517-.254-.163-.024-.328.01-.489.046-.737.162-1.52.348-2.042.891-.594.617-1.534 2.533-.945 3.35.277.385.788.493 1.233.504.6.015 1.44.14 2.017.005"/>
            <path fill="#594E1F" d="M34.412 39.81c.127.02.268.037.375-.035.103-.067.144-.195.177-.314a26.66 26.66 0 0 0 .905-9.54c-.053-.614-.136-1.25-.465-1.77-.178-.28-.755-.87-1.15-.754-.293.086-.48.577-.845.718-.472.18-.516.202-.716.73a19.77 19.77 0 0 0-1.287 7.268c.012.903-.093 2.297.598 3.006.54.553 1.7.578 2.408.691"/>
            <path fill="#21160A" d="M30.08 25.766c.05-.05.1-.1.159-.131.195-.104.416.047.51.254.094.207.102.456.138.69.174 1.119 1.21 1.947 2.184 1.604.123-.043.245-.102.37-.105.395-.009.59.507.673.944.508 2.64.322 5.466-.23 8.186a31.688 31.688 0 0 1-.453 1.93c-.095.35-.23.745-.526.885-.274.13-.565-.017-.821-.15a9.05 9.05 0 0 0-4.185-1.023c-.36-.317-.411-.93-.332-1.47.08-.538.261-1.068.269-1.61.009-.682-.26-1.3-.404-1.95-.168-.757-.163-1.555-.175-2.344-.01-.641-.271-1.547-.174-2.157.1-.633.987-1.372 1.382-1.818a46.2 46.2 0 0 1 1.616-1.735"/>
            <path fill="#594E1F" d="M32.298 31.491c.078.875-.395 1.688-.723 2.503-.234.582-.398 1.19-.561 1.796l-1.709 6.33c-.112.419-.23.848-.49 1.195-.26.346-.697.596-1.121.505a.45.45 0 0 1-.266-.146c-.071-.091-.084-.213-.094-.328l-.28-3.267c-.076-.878-.15-1.769.009-2.635.076-.412.204-.814.26-1.23.186-1.383-.443-2.745-.5-4.14a5.113 5.113 0 0 1 .782-2.917c.174-.276.512-.477.824-.57.476-.141.962-.264 1.458-.274a3.295 3.295 0 0 1 1.964.61c.15.107.295.23.39.389.113.188.15.411.184.629.076.485-.053 1.61-.127 1.55"/>
            <path fill="#EFDCCA" d="M32.03 24.679c.106-.094-.06-.434-.155-.539-.096-.105-.237-.152-.373-.195-.052-.016-.11-.032-.158-.01-.044.02-.07.065-.09.107-.195.422-.06.914.075 1.357.024.078.06.167.138.186a.206.206 0 0 0 .124-.02.774.774 0 0 0 .438-.886"/>
            <path fill="#49312D" d="M22.563 79.675c-.11-.033-2.733-.841-5.44-3.77-4.5-4.873-5.592-11.724-5.716-16.614l.5-.013c.423 16.625 10.695 19.886 10.799 19.917l-.143.48z"/>
            <path fill="#DC5A00" d="M14.084 76.519c-.431-.431-.708-.989-.976-1.535-.227.364-.437.762-.444 1.192-.009.52.292 1.012.7 1.336.408.324.913.501 1.42.625.09 0 .391-.423.46-.497.106-.114.4-.331.396-.49-.254-.08-.547-.027-.82-.136a2.245 2.245 0 0 1-.736-.495M16.023 81.062c-.041.184-.082.37-.08.559.006.406.211.78.426 1.126.063.1.13.203.222.278.093.074.22.118.334.084.202-.06.27-.325.215-.529-.056-.203-.194-.373-.28-.566-.228-.518-.041-1.134.284-1.597.042-.06.09-.128.079-.202-.016-.109-.144-.158-.253-.178-.225-.041-.617-.14-.741.09-.134.245-.146.66-.206.935"/>
            <path fill="#FE8100" d="M24.578 80.691c-.077.362-.154.726-.302 1.066-.11.254-.258.49-.347.752-.097.285-.12.59-.137.89a24.96 24.96 0 0 0-.022 2.376c.011.279.043.592.26.768.1.081.228.123.324.207.097.085.148.25.055.339-.324.09-.67.1-1 .03-.073-.015-.151-.038-.197-.098-.041-.054-.047-.127-.05-.195a88.789 88.789 0 0 1-.128-3.52h-.723a18.573 18.573 0 0 1-.205 3.419c-.035.223-.073.45-.037.673.036.223.162.445.37.533.061.026.131.041.179.089.076.077.06.212-.008.295a.555.555 0 0 1-.278.158c-.19.059-.389.09-.588.094a.385.385 0 0 1-.218-.044c-.104-.067-.127-.205-.14-.328-.146-1.387-.105-2.796-.363-4.167a1.83 1.83 0 0 0-.163-.53c-.13-.244-.352-.423-.575-.587-.939-.692-1.976-1.238-3.01-1.781-.182-.096-.365-.193-.564-.25-.468-.133-.977-.032-1.421.167a.823.823 0 0 0-.306.204c-.1.12-.133.28-.163.432-.089.447-.174.927.01 1.344.085.194.224.361.307.556.083.196.096.446-.053.598-.184.189-.524.113-.7-.084-.175-.196-.229-.47-.276-.729-.121-.655-.242-1.327-.124-1.983.141-.788.619-1.498.685-2.296.022-.271-.004-.544.028-.814.078-.66.556-1.279 1.2-1.44.534-.134 1.096.041 1.593.276 1.172.553 2.155 1.427 3.217 2.17.25.175.51.345.803.435.292.09.624.091.888-.063.174-.1.306-.259.459-.389a1.73 1.73 0 0 1 1.41-.378c.915.168.438 1.206.31 1.805"/>
            <path fill="#BA3613" d="M22.341 79.872c.066.132.168.243.272.349.511.522 1.12.975 1.826 1.168.088.024.214.022.232-.068.008-.042-.017-.084-.046-.117-.124-.136-.322-.168-.493-.235-.45-.176-.75-.602-1.037-.967-.226-.288-.384-.55-.792-.554-.064.128-.024.3.038.424"/>
            <path fill="#E8DDCC" d="M11.696 56.687c.093.413.203.826.398 1.202.127.245.295.5.246.772-.037.206-.195.37-.368.488a.728.728 0 0 1-.315.135c-.232.028-.455-.125-.578-.323-.124-.198-.168-.434-.21-.663l-.56-3.062a11.59 11.59 0 0 0-.284-1.28c-.13-.43-.31-.845-.422-1.28-.22-.854-.168-1.76.012-2.623.01-.05.025-.106.066-.137.037-.029.088-.03.135-.03.3.004.844.043 1.003.342.203.378.168 1.08.218 1.505.122 1.053.207 2.11.348 3.16.08.602.178 1.202.311 1.794M4.673 46.394c-.034.177-.074.358-.056.537.018.193.101.373.183.549.127.274.256.55.433.796.177.245.406.461.687.574.18.072.373.1.564.122.167.019.339.034.502-.008.33-.083.56-.375.763-.648.147-.2.251-.385.227-.641a2.486 2.486 0 0 0-.123-.573 1.229 1.229 0 0 0-.12-.262c-.124-.196-.324-.33-.49-.492-.28-.272-.198-.644-.512-.865-.564-.397-.929-1.07-1.566-1.336-.49-.206-.315.533-.324.788-.018.49-.074.978-.168 1.459M.092 57.901c.037.347.087.695.218 1.018.127.312.326.587.523.86l1.429 1.975c.078.108.199.23.322.179.112-.047.125-.198.12-.32-.03-.743-.066-1.507-.373-2.184-.134-.295-.317-.567-.444-.865-.367-.862-.235-1.845-.096-2.771.108-.72.217-1.444.437-2.138.066-.206.14-.432.061-.633a.733.733 0 0 0-.207-.266c-.187-.165-.413-.299-.661-.328-.322-.037-.912.116-1.08.42-.23.412-.21 1.186-.257 1.652A16.447 16.447 0 0 0 .092 57.9"/>
            <path fill="#49312D" d="M3.143 74.525c.12.122.241.248.308.405.058.137.07.29.065.44-.003.083-.014.172-.066.236a.372.372 0 0 1-.163.102c-.617.233-1.334.001-1.835-.427-.5-.427-.825-1.022-1.114-1.615.508-.062 1.26-.27 1.758-.106.41.134.76.67 1.047.965M11.702 74.268c.176.187.355.377.478.602.087.159.144.333.17.512a.314.314 0 0 1-.01.16c-.035.088-.133.132-.225.158-.447.126-.929.055-1.374-.08-.234-.07-.47-.161-.654-.322-.16-.139-.273-.322-.379-.505-.303-.523-.564-1.07-.825-1.615.07.148 1.335-.181 1.57-.12.231.059.397.308.552.472l.697.738"/>
            <path fill="#28454C" d="M1.056 68.381c-.031.566-.049 1.135-.168 1.689-.114.525-.317 1.025-.474 1.538a8.91 8.91 0 0 0-.377 2.135c.794.045 1.59.053 2.383.024.074-.002.152-.007.209-.054.067-.056.08-.153.09-.24.385-3.612 1.85-7.008 3.297-10.34 1.217 1.376 1.584 3.295 1.753 5.124.169 1.829.198 3.716.909 5.41.755-.175 1.51-.35 2.266-.523a.404.404 0 0 0 .197-.086c.104-.102.067-.274.024-.413a25.905 25.905 0 0 1-1.14-7.214c-.028-1.859.141-3.745-.269-5.558-.017-.075-.04-.157-.103-.2-.06-.041-.14-.036-.212-.029-1.23.121-2.468.243-3.646.611-.84.262-1.634.646-2.47.916-.27.087-.845.107-1.064.292-.265.225-.292.786-.367 1.107a33.362 33.362 0 0 0-.838 5.811"/>
            <path fill="#7FB0BF" d="M.105 52.906a3.779 3.779 0 0 1 1.885.292c.02 2.931.15 5.862.39 8.783 1.096-.058 2.197.213 3.287.084 1.496-.178 2.792-1.082 4.02-1.957.094-.068.191-.139.246-.24.073-.136.057-.3.041-.453a31.702 31.702 0 0 1-.145-4.834c.065-1.39.221-2.79.035-4.17.328-.162.692-.251 1.058-.261-.297-1.757-1.74-3.264-3.483-3.634.145.363.291.737.293 1.128.002.39-.174.808-.525.98-.336.164-.754.064-1.058-.153-.305-.217-.521-.535-.73-.845-.175-.258-.459-.928-.775-1.014-.282-.077-.764.329-.983.475A8.093 8.093 0 0 0 1.9 48.69a8.283 8.283 0 0 0-1.213 2c-.077.18-.63 2.221-.583 2.216"/>
            <path fill="#F4E6D3" d="M8.976 43.538c.002-.238-.014-.515-.207-.654a.658.658 0 0 0-.238-.095c-.419-.1-.853-.107-1.283-.114-.13-.002-.267-.003-.384.055-.175.086-.264.28-.341.458l-.27.629c-.043.098-.111.214-.219.207-.18-.157-.094-.449-.155-.68a.525.525 0 0 0-.32-.35.525.525 0 0 0-.472.06.676.676 0 0 0-.26.443c-.03.173-.012.351.014.525.074.494.21.98.406 1.44.08.188.18.384.362.478a.97.97 0 0 0 .36.08c.407.038.826.074 1.217-.045.309-.094.58-.28.847-.464.288-.198.577-.397.827-.642.116-.112.223-.236.292-.382.073-.157.097-.335.092-.509a1.616 1.616 0 0 0-.448-1.06"/>
            <path fill="#75503C" d="M9.217 43.212c.083-.843-.192-1.75-.845-2.29-.338-.28-.756-.449-1.18-.565a2.409 2.409 0 0 0-.594-.1 1.987 1.987 0 0 0-.57.084 2.942 2.942 0 0 0-.772.344c-.221.14-.423.309-.624.477-.187.157-.379.319-.506.528a2.084 2.084 0 0 0-.202.51c-.164.565-.29 1.162-.18 1.74.083.446.3.854.517 1.252.11.201.235.414.444.507a.2.2 0 0 0 .118.02c.074-.015.116-.092.141-.163.167-.47.007-.983-.063-1.477-.027-.193-.039-.396.033-.577.072-.18.249-.333.443-.32.124.008.24.086.296.197.066.131.046.287.05.434.004.148.051.317.187.373.136.057.296-.034.375-.157.08-.124.104-.274.146-.415.07-.239.196-.46.363-.643a.32.32 0 0 1 .11-.087.36.36 0 0 1 .145-.016l1.608.043c.043.145.142.673.282.743.189.094.267-.327.278-.442"/>
            <path fill="#FF6F00" d="M26.399 78.477c-.079-.242-.143-.497-.292-.704-.263-.365-.74-.509-1.188-.55-.313-.029-.637-.018-.93.097-.423.166-.744.54-.92.96-.175.42-.22.884-.21 1.34.005.238.029.489.164.685.053.077.14.15.231.13.098-.018.148-.124.184-.216l.235-.607c.07-.18.157-.378.337-.446.139-.053.3-.01.421.076.122.085.213.206.302.325l.514.692c.17.23.343.462.562.645.22.183.494.316.78.312.285-.004.578-.167.682-.433.154-.39.036-.716-.216-1.003-.312-.357-.51-.856-.656-1.303"/>
            <path fill="#36414B" d="M27.026 80.122c-.041-.003-.086-.005-.12.018-.04.029-.052.083-.06.133a1.196 1.196 0 0 0-.022.328c.013.11.06.219.149.284.088.065.223.073.305 0 .065-.059.085-.151.098-.238.053-.364.015-.496-.35-.525"/>
            <path fill="#DC5A00" d="M23.588 77.432c-.167.117-.285.292-.385.47-.265.477-.428 1.005-.568 1.533-.059.22-.111.464-.004.664.127.236.42.314.683.37.16.033.344.061.47-.043a.533.533 0 0 0 .143-.246 8.476 8.476 0 0 0 .441-2.02c.047-.505-.176-1.148-.78-.728"/>
            <path fill="#DBBBAF" d="M103.978 112.224c-.013.134-.031.278-.122.378-.104.115-.273.138-.428.154-.606.062-1.225.124-1.821-.005-.31-.066-.674-.293-.604-.602.084-.368.641-.348.9-.623.15-.16.176-.4.188-.62a14.29 14.29 0 0 0-.58-4.882c-.068-.225 1.742-.077 1.936.065.373.272.333.907.395 1.32.238 1.592.285 3.212.136 4.815M100.109 112.198c-.014.167-.033.343-.129.48-.09.13-.237.206-.385.26a1.98 1.98 0 0 1-2.138-.576c-.086-.102-.165-.24-.115-.365a.358.358 0 0 1 .13-.146c.315-.231.74-.306 1.115-.197a38.911 38.911 0 0 0-.743-5.257c-.001-.004 1.623.343 1.787.405.212.08.603.174.706.383.102.206-.006.729-.01.962a62.691 62.691 0 0 1-.218 4.05"/>
        </g>
        <g transform="translate(100.91 105.704)">
            <mask id="d" fill="#fff">
                <use xlink:href="#c"/>
            </mask>
            <path fill="#0C0E0D" d="M-3.833 3.47l8.3-1.031.58 6.068-10.62-.622z" mask="url(#d)"/>
        </g>
        <g transform="translate(97.154 106.205)">
            <mask id="f" fill="#fff">
                <use xlink:href="#e"/>
            </mask>
            <path fill="#0C0E0D" d="M-.077 2.97l8.3-1.032.58 6.068-10.62-.622z" mask="url(#f)"/>
        </g>
        <path fill="#F3F4F6" d="M104.163 101.264c.3 1.257.76 2.468 1.148 3.7.078.248.154.505.115.761-.049.317-.269.584-.524.778-.963.731-2.314.563-3.476.896-.415.119-.812.305-1.237.384-.308.057-.624.056-.938.055l-2.21-.005c-.11 0-.225-.003-.314-.065a.484.484 0 0 1-.144-.198c-.21-.45-.279-.954-.48-1.408-.147-.33-.363-.628-.498-.963-.145-.356-.194-.743-.242-1.124-.283-2.267-.567-4.543-.508-6.826.002-.1.01-.209.079-.28.052-.052.128-.071.2-.088a24.828 24.828 0 0 1 3.85-.589c.818-.06 1.648-.078 2.45.097.702.154 2.435.576 2.479 1.425.029.557-.083 1.12-.039 1.687.046.594.15 1.183.29 1.763"/>
        <g>
            <g transform="translate(94.65 96.186)">
                <mask id="h" fill="#fff">
                    <use xlink:href="#g"/>
                </mask>
                <path fill="#0C0E0D" d="M12.029 9.167c-1.432-.37-2.544.006-3.834.607-1.005.469-2.016.701-3.114.834-1.226.15-2.457.277-3.686.403-.89.092-1.69.137-2.42-.443-.346-.276.09-.807.438-.53.917.73 2.718.202 3.791.085C4.331 10 5.491 9.937 6.59 9.644c1.03-.274 1.917-.896 2.944-1.174.873-.236 1.733-.207 2.605.018.425.11.319.789-.11.679" mask="url(#h)"/>
            </g>
            <g transform="translate(94.65 96.186)">
                <mask id="j" fill="#fff">
                    <use xlink:href="#i"/>
                </mask>
                <path fill="#0C0E0D" d="M-1.126 8.539c2.38.54 4.66-.463 7.003-.75 1.137-.14 1.994-.678 3.078-.93 1.136-.265 2.37-.202 3.53-.252.441-.02.517.664.075.683-1.228.054-2.639-.064-3.813.341-.59.204-1.099.54-1.713.685-.484.115-.985.137-1.476.206-2.286.321-4.464 1.225-6.794.695-.43-.097-.322-.777.11-.678" mask="url(#j)"/>
            </g>
            <g transform="translate(94.65 96.186)">
                <mask id="l" fill="#fff">
                    <use xlink:href="#k"/>
                </mask>
                <path fill="#0C0E0D" d="M11.715 5.98c-2.352-.58-4.54.396-6.782.925-1.875.444-3.801.36-5.661-.11-.426-.107-.32-.787.11-.678 2.351.593 4.531.425 6.822-.313 1.752-.565 3.807-.95 5.621-.503.427.105.32.785-.11.679" mask="url(#l)"/>
            </g>
            <g transform="translate(94.65 96.186)">
                <mask id="n" fill="#fff">
                    <use xlink:href="#m"/>
                </mask>
                <path fill="#0C0E0D" d="M-.801 4.83c2.123.32 3.944-.236 6.032-.465 1.97-.214 4.082.137 5.994-.428.422-.125.671.516.247.642-1.987.587-4.124.247-6.168.47-1.095.12-2.156.386-3.242.55-1.011.154-1.968.06-2.973-.091-.438-.066-.328-.745.11-.679" mask="url(#n)"/>
            </g>
            <g transform="translate(94.65 96.186)">
                <mask id="p" fill="#fff">
                    <use xlink:href="#o"/>
                </mask>
                <path fill="#0C0E0D" d="M10.947 3.78c-1.158-.362-2.434.01-3.634-.114-1.187-.122-2.342-.573-3.537-.329-2.186.448-4.087.13-6.143-.72-.409-.17-.123-.795.286-.626 1.187.491 2.414.881 3.706.921 1.103.034 2.14-.433 3.231-.345 1.164.094 2.27.484 3.452.464 1.02-.017 1.933-.186 2.926.124.42.132.131.756-.287.625" mask="url(#p)"/>
            </g>
            <g transform="translate(94.65 96.186)">
                <mask id="r" fill="#fff">
                    <use xlink:href="#q"/>
                </mask>
                <path fill="#0C0E0D" d="M11.018 1.173c-.975.288-1.95.628-2.949.823-1.026.2-2.072.09-3.107.032C2.679 1.9.396 1.83-1.805 1.151c-.42-.13-.13-.754.287-.625 2 .616 4.088.684 6.161.8 1.047.058 2.126.192 3.166.023C8.813 1.185 9.797.819 10.77.53c.423-.125.672.516.248.642" mask="url(#r)"/>
            </g>
        </g>
        <g>
            <path fill="#DBBBAF" d="M92.693 85.234c-.232-.293-.668-.42-1.005-.26-.235.112-.396.337-.524.564a2.057 2.057 0 0 0-.27.732c-.034.26.012.537.17.747.157.211.408.333.661.405.104.03.214.052.317.024.147-.04.25-.172.333-.3.362-.545.808-1.295.318-1.912"/>
            <path fill="#192423" d="M89.285 92.916c-.524.413-1.151.92-1.063 1.582l-.348-.084c-.01.294-.103.584-.265.829-.225-.222-.557.249-.868.193-.1-.018-.18-.09-.254-.16-.194-.185-.389-.38-.5-.624-.112-.245-.126-.55.031-.768.157-.218.51-.29.702-.103.084-.27.072-.568-.033-.83l.733.105a.647.647 0 0 0-.116-.453c.358.161.79.062 1.118-.154.328-.216.573-.534.811-.846.443-.58.876-1.396 1.427-1.869.375-.321.808-.088.829.415.044 1.062-1.477 2.193-2.204 2.767"/>
            <path fill="#9D4A3A" d="M92.115 86.211c.237-.042.482-.07.695-.18.291-.153.486-.44.642-.73.376-.692.624-1.486 1.212-2.01.439-.39 1.032-.584 1.62-.588.853-.004 1.713.408 2.193 1.114.48.707.537 1.695.09 2.422-.51.825-1.503 1.185-2.277 1.767-.613.46-1.094 1.07-1.64 1.607-.548.537-1.201 1.02-1.96 1.125a2.29 2.29 0 0 1-2.128-.917c-1.105-1.543-.196-3.298 1.553-3.61"/>
            <path fill="#1F2321" d="M73.038 116.325l1.173 1.158c-.193.187-.388.371-.636.456a.554.554 0 0 1-.273.031.59.59 0 0 1-.212-.09 1.039 1.039 0 0 1-.448-.582.826.826 0 0 1 .125-.715c.076-.099.175-.177.271-.258m-4.118-5.649c.029.902.46 1.75 1.013 2.462.4.517.867.978 1.332 1.436l1.312 1.296c-.288.44-.457.958-.483 1.483-.014.27.015.557.176.773.186.25.51.355.82.39.477.054.979-.032 1.382-.293.05-.032.137-.129.233-.254.434.425.88.84 1.389 1.168.68.438 1.457.711 2.25.872 1.078.218 2.368.158 3.049-.705.416-.528.504-1.238.527-1.91.731.2 1.557.391 2.211.008.667-.391.905-1.251.883-2.023a4.555 4.555 0 0 0-1.36-3.094c-.399-.389-.866-.7-1.33-1.007l-3.876-2.575c-.999-.663-2.006-1.331-3.122-1.77-1.055-.416-3.727-1.139-4.222.406-.125.39-.09.814.01 1.21.185.73.594 1.399 1.15 1.904a4.359 4.359 0 0 0-2.38-.648c-.332.008-.709.085-.874.372-.085.149-.096.328-.09.499"/>
            <path fill="#001F6A" d="M71.937 107.707c.034-.157.088-.317.2-.43.176-.177.449-.203.697-.196 1.788.049 3.295 1.258 4.85 2.143 1.09.622 2.258 1.101 3.341 1.736 1.084.635 2.104 1.454 2.697 2.562.29.543.471 1.166.382 1.776-.089.61-.488 1.195-1.072 1.389-.728.242-1.5-.147-2.167-.526-2.05-1.167-4.123-2.398-5.725-4.159-1.186-1.303-3.67-2.15-3.203-4.295M76.368 113.594c.568.488 1.098 1.021 1.709 1.454.672.475 1.447.833 1.983 1.458.536.626.737 1.66.15 2.239-.39.385-.999.445-1.542.379-1.92-.235-3.427-1.696-4.78-3.078-1.107-1.131-2.217-2.265-3.18-3.52-.27-.35-1.23-1.497-.81-1.924.38-.388 1.778.294 2.176.444a14.442 14.442 0 0 1 4.294 2.548"/>
            <path fill="#DBBBAF" d="M99.42 79.972c.521.532.516 1.368.77 2.067.077.21.18.418.185.642.005.288-.156.55-.317.79-.192.289-.396.577-.668.793-.272.215-.625.352-.967.293-.342-.058-.652-.349-.663-.695-.005-.16.049-.318.026-.475-.04-.27-.284-.45-.486-.634-.638-.58-1.28-1.995-.834-2.857.435-.838 2.416-.473 2.955.076"/>
            <path fill="#091B10" d="M95.937 79.33c.234-.894.808-1.656 1.407-2.359.37-.434.774-.869 1.304-1.079.58-.229 1.239-.157 1.836.025.76.23 1.457.627 2.132 1.044.48.297.957.61 1.35 1.014.912.94 1.29 2.308 1.228 3.616-.062 1.308-.523 2.566-1.099 3.741-.102.207-.216.422-.41.547-.293.189-.676.118-1.016.041-.44-.1-.888-.202-1.29-.41-.402-.206-.761-.534-.91-.961-.134-.381-.09-.798-.069-1.202.038-.747-.017-1.515-.313-2.2-.296-.687-.864-1.285-1.586-1.478-.663-.177-1.203.061-1.715.457-.636.492-1.03-.102-.849-.796"/>
            <path fill="#B8C3CB" d="M104.136 84.447c.6 4.442.57 8.969-.09 13.402a21.806 21.806 0 0 0-5.01-.183c-1.297.102-2.588.32-3.89.32-.089 0-.184-.002-.259-.051-.123-.081-.142-.251-.148-.399-.08-2.276.312-4.54.704-6.785.081-.466.165-.939.375-1.362.187-.378.467-.701.678-1.066.194-.336.326-.703.479-1.06.196-.456.426-.896.656-1.336l.794-1.519c.443-.848 1.005-1.788 1.943-1.972.563-.11 1.14.087 1.655.34.515.254 1.007.569 1.56.718"/>
            <path fill="#DBBBAF" d="M89.863 91.817a.619.619 0 0 0-.243.096c-.156.115-.2.325-.234.515l-.074.424a.625.625 0 0 0-.01.253c.027.11.11.196.194.272.324.29.716.502 1.135.617.776.212 1.298-.528 1.073-1.264-.208-.683-1.205-1.045-1.841-.913"/>
            <path fill="#8FA0AA" d="M100.65 85.387c-.139-.065-.293-.122-.442-.086-.152.038-.263.165-.363.286l-4.175 5.008c-.25.3-.502.601-.808.842a2.849 2.849 0 0 1-2.664.438c-.307.142-.626.293-.829.563-.32.427-.252 1.056.047 1.497.299.44.783.721 1.276.92.425.172.871.294 1.327.327.774.054 1.544-.152 2.265-.437a10.584 10.584 0 0 0 5.53-5.108c.286-.579.522-1.202.52-1.847-.005-1.032-.783-1.98-1.685-2.403"/>
            <path fill="#192423" d="M91.766 85.54l.458-.02-.331-7.142-.458.021z"/>
            <path fill="#E8D97C" d="M78.86 112.536c0 .105-.151.19-.337.19-.187 0-.338-.085-.338-.19s.151-.19.338-.19c.186 0 .337.085.337.19"/>
            <path fill="#D3B372" d="M80.308 112.536c0 .121-.17.22-.38.22-.209 0-.379-.099-.379-.22s.17-.22.38-.22.38.099.38.22"/>
            <path fill="#E8D97C" d="M81.325 112.974c0 .121-.17.22-.38.22-.209 0-.379-.099-.379-.22 0-.12.17-.219.38-.219s.379.098.379.22M80.977 112.518c.015.12-.142.238-.35.263-.208.025-.389-.052-.403-.172-.015-.12.142-.238.35-.263.208-.026.389.052.403.172"/>
            <path fill="#E5C57C" d="M80.578 112.963c-.027.118-.215.174-.42.126-.203-.048-.346-.183-.318-.3.028-.118.216-.175.42-.127.204.049.346.183.318.301"/>
            <path fill="#D3B372" d="M80.52 113.353c-.027.118-.215.174-.419.126-.204-.048-.347-.183-.319-.3.028-.118.216-.175.42-.127.204.049.347.183.319.301"/>
            <path fill="#E8D97C" d="M80.21 113.266c0 .12-.17.22-.38.22s-.38-.1-.38-.22c0-.121.17-.22.38-.22s.38.099.38.22"/>
            <path fill="#E8D97C" d="M79.953 112.963c-.027.118-.215.174-.42.126-.203-.048-.346-.183-.318-.3.028-.118.215-.175.42-.127.204.049.346.183.318.301"/>
            <path fill="#AD811E" d="M132.772 111.614c.318-.078.577.308.905.328.086.005.2.002.224.085a2.478 2.478 0 0 1-1.138.082l.05-.392"/>
            <path fill="#8F929B" d="M129.19 114.519l-.21 1.17.035.006-.275.104.064.169.276-.105-.034.165.176.036.044-.212.11.143.142-.11-.168-.219.194-1.083zM130.587 115.805l-.148-.066-.234-1.492-.355.055.233 1.489-.153.2.143.11.125-.164.023.192.178-.021-.024-.2.14.061z"/>
            <path fill="#D9DBE8" d="M132.055 112.104a2.79 2.79 0 0 0-.163-.28.337.337 0 0 0-.095-.11c-.117-.074-.265.014-.378.095a4.214 4.214 0 0 1-1.392.645c-.502.13-.996.084-1.5.165-.466.076-.923.342-1.121.771-.198.428-.061 1.015.36 1.23.197.101.427.113.65.123l1.453.067c.449.02.907-.029 1.321-.21.356-.154.498-.487.617-.837l.213-.63c.086-.251.172-.516.123-.776a.997.997 0 0 0-.088-.253"/>
            <path fill="#C2C4CC" d="M125.752 113.21c-.044 0-.09 0-.126.025-.038.027-.054.076-.065.122a2.54 2.54 0 0 0-.06.863c.008.07.02.144.06.202.06.086.168.12.27.144a2.99 2.99 0 0 0 2.26-.392.479.479 0 0 0 .186-.18.518.518 0 0 0 .038-.186c.055-.695-.223-.572-.854-.579l-1.71-.02M132.03 110.949c-.287.14-.419.474-.649.697-.163.157-.373.256-.577.354-.051.024-.106.052-.13.103-.044.088.021.189.083.265l.851 1.04c.055.068.12.14.206.145.14.008.218-.156.258-.29l.177-.604c.033-.113.072-.234.169-.301.142-.098.347-.037.497-.12.114-.064.17-.196.202-.323.17-.68-.329-1.338-1.087-.966"/>
            <path fill="#AD811E" d="M149.618 121.933c-.297-.14-.626.188-.952.143-.085-.012-.197-.038-.236.04.336.185.716.29 1.099.304l.029-.394"/>
            <path fill="#8F929B" d="M152.557 125.488l-.025 1.188h-.035l.248.156-.095.152-.25-.157.001.168-.18.001-.001-.216-.136.118-.118-.136.208-.181.023-1.1zM150.934 126.472l.158-.035.524-1.416.337.124-.522 1.414.11.226-.161.079-.09-.185-.06.184-.171-.057.062-.19-.149.032z"/>
            <path fill="#D9DBE8" d="M150.224 122.555c.065-.086.14-.165.215-.243a.34.34 0 0 1 .115-.088c.13-.05.257.066.352.167.352.375.774.683 1.237.908.467.225.96.277 1.438.457.442.166.837.517.948.976.11.46-.14 1.008-.595 1.136-.214.06-.442.027-.662-.008l-1.438-.221c-.444-.069-.883-.207-1.254-.466-.318-.222-.392-.576-.44-.943l-.085-.66c-.034-.263-.066-.54.033-.785a.998.998 0 0 1 .136-.23"/>
            <path fill="#C2C4CC" d="M156.186 124.882c.042.008.088.018.118.05.032.034.037.086.04.133.012.29-.027.58-.112.857a.424.424 0 0 1-.098.187c-.076.072-.19.084-.294.087a2.992 2.992 0 0 1-2.137-.83.48.48 0 0 1-.147-.213.519.519 0 0 1-.001-.19c.083-.692.331-.516.951-.399l1.68.318M150.477 121.427c.253.195.317.548.498.812.13.186.315.324.497.46.044.035.092.073.107.128.026.094-.059.18-.135.243l-1.04.852c-.066.055-.144.113-.23.101-.138-.02-.182-.196-.195-.336l-.054-.627c-.01-.117-.025-.243-.106-.328-.12-.124-.333-.104-.464-.216-.1-.085-.128-.225-.134-.355-.033-.702.586-1.248 1.256-.734"/>
            <path fill="#8F929B" d="M153.946 118.81l-.03 1.19-.036-.001.248.157-.097.152-.249-.158v.168h-.18v-.217l-.136.118-.117-.137.209-.18.028-1.1zM152.318 119.788l.159-.035.53-1.414.337.127-.53 1.41.11.227-.162.079-.09-.185-.06.183-.171-.057.064-.191-.15.032z"/>
            <path fill="#D9DBE8" d="M151.626 115.867c.066-.085.142-.164.217-.241a.333.333 0 0 1 .115-.089c.13-.049.257.068.351.17.35.376.771.687 1.233.913.466.228.959.282 1.436.464.441.168.835.521.943.981.108.46-.145 1.007-.6 1.133-.215.059-.442.024-.662-.01l-1.437-.23c-.443-.07-.882-.21-1.252-.47-.317-.224-.389-.578-.435-.946l-.082-.66c-.032-.264-.063-.54.037-.785a.988.988 0 0 1 .136-.23"/>
            <g transform="translate(154.494 117.728)">
                <mask id="t" fill="#fff">
                    <use xlink:href="#s"/>
                </mask>
                <path fill="#C2C4CC" d="M2.586.937c.198.224.361.478.478.753a.438.438 0 0 1 .047.195c-.011.166-.182.268-.332.34l-.655.314a.805.805 0 0 1-.267.09c-.178.017-.348-.087-.463-.222-.116-.135-.19-.3-.274-.457a3.23 3.23 0 0 0-.486-.67C.505 1.145.362 1.016.27.85.178.687.148.472.251.315.366.139.601.093.81.1c.35.015.53.013.791.236l-.26-.222a2.84 2.84 0 0 1 1.245.822" mask="url(#t)"/>
            </g>
            <path fill="#C2C4CC" d="M151.884 114.74c.254.197.315.55.495.814.128.188.314.326.494.464.045.034.093.073.107.127.025.095-.06.18-.136.243l-1.043.847c-.067.055-.145.112-.23.1-.14-.02-.183-.197-.194-.336l-.052-.628c-.01-.117-.024-.244-.105-.328-.12-.125-.332-.106-.463-.22-.098-.084-.127-.225-.132-.355-.03-.701.592-1.245 1.26-.728"/>
            <path fill="#AD811E" d="M150.727 115.345l-.414.002c-.027.052-.012.117.022.164a.48.48 0 0 0 .13.114l.14.094c.023.016.049.032.077.032.036-.001.067-.032.079-.067a.274.274 0 0 0 .007-.108l-.01-.163"/>
        </g>
    </g>
</svg>
