<svg xmlns="http://www.w3.org/2000/svg" xmlns:xlink="http://www.w3.org/1999/xlink" width="31" height="44" viewBox="0 0 31 44">
    <defs>
        <path id="a" d="M.042.058h2.795v3.739H.042z"/>
        <path id="c" d="M0 .166h3.526v4.35H0z"/>
    </defs>
    <g fill="none" fill-rule="evenodd">
        <path fill="#D1B3AF" d="M7.394 40.298c0 .033 0 .07.02.096.027.033.075.036.118.036.422.002.845-.01 1.267-.038.102-.007.21-.017.29-.082.085-.07.115-.188.138-.298.301-1.44.314-2.925.325-4.397l.027-3.566c-.492.056-1.781-.026-2.05.392-.294.459-.039 2.03-.048 2.596l-.087 5.26z"/>
        <path fill="#D1B3AF" d="M2.091 36.81c-.073.118-.144.254-.113.39.026.109.112.19.194.266.376.344.836.714 1.334.613.226-.046.42-.185.598-.333.448-.374.825-.826 1.195-1.28.743-.913 1.487-1.835 2.167-2.797.335-.475.514-.814-.039-1.227-.32-.24-.684-.28-1.054-.136-.824.324-1.505 1.578-2.155 2.192-.76.72-1.567 1.412-2.127 2.313M8.371 2.584c.295-.702.677-1.418 1.33-1.802.226-.133.5-.221.75-.14.256.084.426.324.563.558.367.627.634 1.364.49 2.079-.162.81-.816 1.426-1.502 1.878-.168.11-.351.228-.422.417-.059.155-.034.342-.134.474-.074.097-.198.139-.316.17-.749.205-1.616.308-1.545-.725.068-.996.402-1.996.786-2.91"/>
        <path fill="#0F4737" d="M9.909 5.878l.04 1.277c.001.029.002.06-.012.086-.029.056-.104.062-.166.06-.753-.026-1.483-.235-2.212-.406-.571-.134-.718-.308-.804-.912.55.135 1.045.057 1.595-.06.144-.03 1.54-.305 1.559-.045"/>
        <path fill="#2C9174" d="M5.712 7.424c-.344.405-.492.938-.608 1.457C3.718 15.05 5.474 21.5 4.92 27.8c-.146 1.662-.348 3.62.895 4.723.865.766 2.127.807 3.278.807.515 0 1.128-.054 1.38-.506.082-.148.111-.319.14-.485a203.478 203.478 0 0 0 2.197-18.484c.159-2.184-.115-5.305-2.22-6.403-1.45-.756-3.58-1.56-4.88-.027"/>
        <path fill="#0F4737" d="M4.402 13.015c-.107 1.22-.185 2.443-.263 3.666-.015.235-.027.482.072.696.193.413.708.533 1.152.621a16.848 16.848 0 0 1 5.858 2.38c.31.202.624.418.985.498.36.08.787-.01.994-.318.183-.272.15-.647 0-.94-.149-.292-.396-.519-.64-.737a49.062 49.062 0 0 0-4.682-3.693c-.217-.15-.44-.303-.602-.512-.669-.861-.125-2.156.01-3.107.122-.864.398-1.764.473-2.625.057-.649-.369-1.737-1.155-1.483-.793.255-1.374 1.668-1.619 2.374-.354 1.02-.488 2.108-.583 3.18"/>
        <path fill="#F28E66" d="M23.084 29.277c-2.647.172-5.29.404-7.927.696.19 1.014-.07 2.204.606 2.98.408.467 1.052.638 1.662.735 1.443.232 2.914.192 4.375.138 2.168-.08 4.349-.19 6.465-.675.443-.101.895-.225 1.256-.503.3-.23.519-.553.668-.901.417-.978.292-2.102.039-3.136-.223-.908-.543-1.804-1.065-2.577-.648-.964-1.575-1.696-2.489-2.408-.631-.492-1.272-.986-2.002-1.309-.515-.228-1.093-.374-1.659-.339-.672.043-.47.495-.373 1.013a27.416 27.416 0 0 1 .444 6.286"/>
        <path fill="#1E272E" d="M30.247 41.417c-.04.802-1.02 1.005-1.675.769-.617-.222-.74-1.101-.72-1.69.016-.484.218-.685.706-.732.364-.035.75.067 1.093.177a.353.353 0 0 0 .079.015c.402.322.543.937.517 1.461m-8.674-1.146c.115 1.005-.498 2.083-1.634 1.972-2.267-.222-1.967-3.695-.053-3.625a.306.306 0 0 0 .162.013c.074.01.152.027.23.047.676.257 1.205.81 1.295 1.593m7.804-1.181a.318.318 0 0 0-.23.048c-.415-.06-.845-.052-1.196.083-.01-.012-.02-.025-.033-.037-2.863-2.727-5.095-6.17-7.474-9.319-2.24-2.961-4.4-6.031-7.147-8.546-.317-.29-.75.219-.432.509 2.91 2.663 5.175 5.96 7.546 9.098.871 1.154 1.723 2.342 2.597 3.514a75.134 75.134 0 0 0-3.117 3.448c-.034-.005-.067-.012-.101-.016a.33.33 0 0 0-.318.145c-.837.149-1.547.746-1.769 1.695-.332 1.42.42 2.842 1.873 3.15 1.41.298 2.542-.676 2.662-2.096.095-1.11-.49-2.068-1.385-2.56a.295.295 0 0 0-.134-.088c-.038-.013-.077-.022-.116-.033H20.6a74.76 74.76 0 0 1 2.812-3.104c1.239 1.64 2.535 3.234 4.004 4.644-.12.17-.2.387-.222.665-.073.963.198 2.346 1.296 2.572.984.202 2.223-.029 2.403-1.184.168-1.078-.351-2.41-1.517-2.588"/>
        <path fill="#C0C2C1" d="M12.655 21.692c.12.178.251.353.426.475.05.034.105.065.165.068a.296.296 0 0 0 .198-.082c.205-.174.27-.473.23-.74-.042-.268-.17-.512-.298-.75-.033-.063-.07-.13-.134-.161a.335.335 0 0 0-.155-.024c-.163.002-.327.011-.482.063-.663.22-.213.759.05 1.151"/>
        <path fill="#2C0B2A" d="M10.121.132a1.725 1.725 0 0 0-1.436.052c-.27.139-.5.346-.72.556-.668.633-1.314 1.332-1.637 2.198-.356.953-.286 2.014-.105 3.017.013.078.03.158.074.222.092.133.275.159.436.164.32.011.64-.011.954-.066.054-.01.113-.022.148-.065.04-.047.037-.115.032-.177-.025-.315-.067-.63-.066-.948.007-1.088.531-2.097 1.042-3.055a.804.804 0 0 1 .108.36 6.58 6.58 0 0 1 1.776-.528c1.21-.18-.024-1.484-.606-1.73"/>
        <g transform="translate(7.307 40.083)">
            <mask id="b" fill="#fff">
                <use xlink:href="#a"/>
            </mask>
            <path fill="#0E0805" d="M.292.137C.252.168.222.221.202.31.057.934.128 1.699.094 2.342l-.048.896c-.007.132-.013.271.045.39.058.12.204.207.324.152.148-.066.154-.271.154-.435 0-.164.068-.376.23-.373.374.55 1.205.716 1.758.35a.653.653 0 0 0 .248-.27c.05-.114.045-.258-.037-.351-.13-.148-.376-.107-.537-.22-.14-.099-.182-.286-.213-.456L1.665.058C1.67.09.833.135.758.133.559.128.395.055.292.137" mask="url(#b)"/>
        </g>
        <g transform="translate(0 36.956)">
            <mask id="d" fill="#fff">
                <use xlink:href="#c"/>
            </mask>
            <path fill="#16100D" d="M1.526.74A60.547 60.547 0 0 0 0 2.913c.038.226.34.305.551.222.211-.084.365-.267.551-.398.054.414.166.83.405 1.171.238.341.62.597 1.034.606.1.002.214-.017.271-.1.088-.126-.009-.292-.075-.431-.15-.312-.139-.684-.03-1.012.108-.329.305-.62.519-.89.158-.2.337-.43.294-.681-.049-.286-.35-.438-.6-.583a3.082 3.082 0 0 1-.414-.291C2.415.45 2.248.203 2.145.172 1.93.108 1.649.574 1.526.74" mask="url(#d)"/>
        </g>
    </g>
</svg>
