<svg xmlns="http://www.w3.org/2000/svg" xmlns:xlink="http://www.w3.org/1999/xlink" width="61" height="124" viewBox="0 0 61 124">
    <defs>
        <path id="a" d="M.188.297h7.797v10.468H.188z"/>
    </defs>
    <g fill="none" fill-rule="evenodd">
        <path fill="#DDA37C" d="M9.37 67.458c-.661-.215-1.38.18-1.842.696-.463.518-.769 1.16-1.232 1.677-.079.087-.165.178-.183.293-.017.108.03.215.067.318.286.784.027 1.647.304 2.452.135.393.363.748.616 1.078.744.97 1.745 1.77 2.914 2.132"/>
        <path fill="#823725" d="M21.201 123.203c.456.355 1.124.339 1.642.082.518-.256.907-.714 1.224-1.196.318-.48.58-1 .929-1.459.28-.369.616-.698.846-1.1.4-.699.447-1.546.778-2.28.138-.307.329-.648.194-.956-.097-.223-.34-.347-.577-.412-.215-.059-.458-.082-.653.027-.124.07-.216.184-.302.297-.894 1.174-1.6 2.473-2.392 3.713a17.086 17.086 0 0 1-1.292 1.798c-.398.475-1.118.924-.397 1.486"/>
        <path fill="#D1A384" d="M22.261 115.129c.465.134.69.692.626 1.169-.063.478-.338.896-.584 1.31-.58.978-1.034 2.024-1.486 3.067-.187.431-.375.928-.179 1.355.22.48.858.647 1.362.493.504-.154.896-.548 1.234-.951 1.042-1.242 1.79-2.697 2.53-4.139.254-.497.514-1.08.291-1.592-.135-.31-.42-.524-.695-.722-.553-.402-1.129-.813-1.8-.947"/>
        <path fill="#823725" d="M21.514 122.918l-.356-.423c.054-.045.07-.204.076-.273.089-.917-.022-1.554-.35-2.003l.448-.324c.541.741.518 1.714.453 2.38-.015.16-.044.453-.27.643"/>
        <path fill="#823725" d="M21.768 122.16l-.395-.386c.116-.12.218-.257.326-.403.106-.145.217-.296.349-.435.365-.384.824-.555 1.225-.46.043.01.085.024.126.037.048.015.107.035.13.031l.04-.007c.09-.017.3-.059.45.111l-.417.363c.046.052.104.06.121.06-.014 0-.03.004-.045.007a1.04 1.04 0 0 1-.08.014.826.826 0 0 1-.368-.054c-.029-.009-.057-.019-.086-.025-.245-.06-.519.118-.695.302a4.035 4.035 0 0 0-.304.382c-.114.155-.233.316-.377.463M1.625 122.106c-.002.576.42 1.094.94 1.345.52.252 1.12.278 1.697.234.576-.045 1.148-.155 1.726-.16.464-.006.931.057 1.39-.007.8-.111 1.5-.594 2.286-.782.327-.078.714-.137.876-.431.118-.214.066-.482-.026-.708-.085-.206-.216-.411-.421-.499-.131-.056-.278-.057-.42-.056-1.48.013-2.941.252-4.41.386-.737.067-1.477.11-2.217.082-.62-.024-1.417-.317-1.42.596"/>
        <path fill="#D1A384" d="M8.678 118c.178.449-.127.968-.544 1.21-.418.242-.918.282-1.397.341-1.13.14-2.238.423-3.342.705-.457.116-.965.272-1.185.688-.245.466.012 1.072.443 1.376.431.304.983.371 1.51.391 1.623.062 3.234-.239 4.83-.538.55-.104 1.171-.255 1.442-.745.163-.296.158-.652.148-.99-.02-.681-.047-1.388-.35-1.998"/>
        <path fill="#9CBD9C" d="M.847 116.661c-.12.551-.24 1.145-.016 1.663.345.793 1.32 1.059 2.171 1.228 3.8.757 7.726 1.515 11.52.728 2.767-.575 5.516-1.964 8.28-1.375.498.105 1.003.276 1.505.193.435-.072.813-.326 1.177-.574l3.862-2.631c.272-.186.57-.409.618-.735.028-.194-.04-.387-.108-.571-.93-2.5-2.257-4.851-3.917-6.94-2.24-2.82-5.22-5.466-5.566-9.046-.13-1.334.102-2.81-.668-3.909-.45-.64-1.167-1.032-1.858-1.4l-3.816-2.036c-.446-.238-.903-.479-1.402-.554-.486-.074-.982.015-1.459.134-2.039.51-3.92 1.613-5.385 3.113-1.885 1.93-1.902 3.599-2.196 6.18a164.015 164.015 0 0 1-2.742 16.532"/>
        <path fill="#1F9995" d="M.056 92.85c.144.883.583 1.686 1.015 2.47.078.142.16.289.286.392.314.26.777.173 1.18.237.948.15 1.507 1.11 1.953 1.957.82 1.56 1.707 3.084 2.595 4.608l4.087 7.018 3.083 5.293c.36.617 1.003 1.332 1.648 1.023.399-.192.528-.68.712-1.082.315-.69.886-1.224 1.335-1.836 1.129-1.54 1.448-3.556 1.25-5.454-.197-1.898-.867-3.711-1.563-5.488-.101-.257-.204-.518-.37-.74-.172-.228-.402-.406-.624-.586-1.929-1.567-3.455-3.605-5.507-5.008-.695-.474-1.442-.87-2.123-1.362-1.305-.943-2.353-2.225-3.741-3.04-1.924-1.13-5.78-1.854-5.216 1.599"/>
        <path fill="#067070" d="M.474 88.587c-.067.584-.096 1.2.146 1.737.516 1.148 1.962 1.448 3.129 1.929.884.365 1.694.91 2.364 1.59.609.618 1.098 1.341 1.662 2 .6.701 1.282 1.327 1.962 1.951l2.505 2.299c1.73 1.588 3.606 3.248 5.93 3.608 1.161-1.477.946-3.67.03-5.309-.916-1.639-2.4-2.869-3.789-4.136a54.035 54.035 0 0 1-6.938-7.668c-.157-.21-.318-.428-.54-.567-.244-.152-.537-.196-.821-.237-1.18-.17-2.985-.786-4.176-.446-1.281.364-1.333 2.158-1.464 3.25"/>
        <path fill="#492317" d="M6.002 70.408c-.573-.636-1.174-1.425-.794-2.098.396-.7 1.589-.818 2.596-.845l1.352-.037c.5-.014 1.028-.023 1.48.168.491.206.795.607 1.023 1 .81 1.389 1.025 2.926.898 4.403-.103 1.206-.089 3.487-2.21 2.131-1.732-1.107-3.062-3.301-4.345-4.722"/>
        <path fill="#9CBD9C" d="M17.771 73.5c.211.507.3 1.055.387 1.597.4 2.479.797 4.957 1.196 7.435.168 1.048.337 2.111.21 3.165-.127 1.053-.59 2.113-1.459 2.725.547-3.178-.717-6.37-2.13-9.27-.182-.372-.369-.746-.637-1.061-.854-1.004-2.423-1.289-3.066-2.438-.501-.896-.242-2.067.387-2.878.531-.685 1.8-1.8 2.745-1.688.976.116 2.022 1.585 2.367 2.413"/>
        <path fill="#067070" d="M9.487 72.366a57.204 57.204 0 0 1-2.197-6.3 7.02 7.02 0 0 1 5.55.344 6.985 6.985 0 0 1 3.497 4.31c.078.286.138.583.102.878-.055.44-.316.824-.576 1.183-1.022 1.41-2.275 2.845-3.933 3.509-1.221.489-1.23.145-1.429-.965-.184-1.031-.614-1.998-1.014-2.959"/>
        <path fill="#CAD6E3" d="M10.921 75.586c-.474-1.485-1.389-2.818-2.187-4.184-.798-1.367-1.503-2.85-1.488-4.383.003-.3.05-.628.29-.816.414-.327 1.062-.017 1.478.336 1.293 1.1 2.103 2.625 2.56 4.19.373 1.277.548 2.605.645 3.914.026.346.162.861-.132 1.13-.304.277-1.033.23-1.166-.187M11.022 93.842c-1.82-1.614-3.45-3.456-5.45-4.843-1.4-.972-3.04-1.786-3.837-3.29-.266-.503-.416-1.13-.145-1.631.384-.712 1.381-.811 1.965-1.373.575-.554.704-1.518 1.402-1.908.383-.215.848-.199 1.287-.177.78.038 1.6.089 2.261.504.433.273.761.68 1.08 1.079l1.55 1.942c1.728 2.163 3.514 4.455 3.968 7.183.196 1.178.146 2.885-.72 3.827-.963 1.046-2.533-.579-3.36-1.313"/>
        <path fill="#1F9995" d="M4.944 77.829c.24-.327.562-.584.88-.837l1.124-.895c.767-.61 1.585-1.244 2.557-1.376.738-.1 1.482.104 2.187.342 1.305.442 2.591 1.028 3.6 1.964 2.157 2 2.66 5.163 3.04 8.076l1.224 9.418c.08.617.155 1.275-.112 1.837-.118.249-.296.463-.431.702-.695 1.234-.246 3.09-1.409 3.902-.123-.888-.73-1.62-1.314-2.302-.885-1.032-1.77-2.065-2.697-3.06-.47-.503-.959-1.008-1.265-1.625-.924-1.857.028-4.163-.622-6.132-.256-.775-.745-1.45-1.08-2.194-.397-.88-.58-1.909-1.18-2.686-.719-.928-1.821-1.078-2.916-1.243-.692-.104-1.636-.09-2.045-.766-.486-.803-.05-2.436.459-3.125"/>
        <path stroke="#823725" stroke-width=".584" d="M2.101 121.909c.164.035.327-.054.47-.144.644-.405 1.28-.928 1.493-1.657M2.831 121.64c.359.043.723-.014 1.083.021.359.036.742.195.89.524.05.11.073.239.159.325.06.061.158.117.142.202"/>
        <path fill="#4F332F" d="M55.566 58.895c.209-.097.398-.23.607-.327.505-.23 1.082-.222 1.637-.21.814.019 1.715.072 2.292.646.451.45.593 1.12.641 1.755.044.577.017 1.195-.31 1.672-.421.618-1.336.835-1.992.475-.364-.2-.653-.552-1.059-.641-.255-.056-.518 0-.775.047-.892.159-1.825.182-2.69-.083-.866-.265-1.66-.843-2.052-1.658-.44-.916-.145-2.034.951-1.982.997.048 1.654.817 2.75.306"/>
        <path fill="#21160A" d="M59.242 58.836c.12.485-.29.976-.77 1.121-.48.146-.996.037-1.481-.09-.355-.093-.729-.208-.966-.488-.144-.17-.222-.385-.283-.6-.234-.819-.23-1.767.281-2.45 1.7-2.27 2.914 1.268 3.22 2.507"/>
        <path fill="#8C7A6F" d="M56.83 41.03c-.045 3.274 1.87 6.314 1.963 9.587.05 1.77-.422 3.628.268 5.259.215.508.511 1.166.101 1.535-.144.13-.341.178-.53.22a21.282 21.282 0 0 1-4.287.483c-.415.005-.89-.03-1.144-.358-.142-.183-.183-.422-.22-.652a225.054 225.054 0 0 1-1.962-16.013c-.193-2.236-.243-4.783 1.355-6.361 1.02-1.009 3.922-1.821 5.01-.439 1.095 1.391-.532 5.09-.554 6.74"/>
        <path fill="#4F332F" d="M49.72 59.677c-.319.768-1.212 1.126-2.038 1.24-.826.116-1.692.077-2.459.405-.458.196-.857.515-1.32.696-.713.28-1.556.2-2.203-.207-.166-.104-.326-.238-.395-.421a.859.859 0 0 1-.033-.386c.093-.945.867-1.683 1.686-2.167.955-.563 1.902-.976 2.764-1.684.528-.434 1.103-1.153 1.86-1.153 1.382-.002 2.622 2.506 2.137 3.677"/>
        <path fill="#21160A" d="M45.458 55.042c.115.446.003.914-.052 1.372-.055.457-.034.971.282 1.307.39.415 1.06.387 1.606.22.444-.137.883-.358 1.156-.732.555-.762.244-1.82-.086-2.702-.094-.25-.192-.508-.376-.703-.255-.272-.635-.381-.995-.48-.22-.06-.448-.12-.673-.085-.41.064-.714.443-.818.844-.104.402-.05.825.006 1.235"/>
        <path fill="#A89688" d="M47.451 37.315l-.809 4.732c-.062.36-.125.726-.27 1.062-.157.36-.402.673-.589 1.018-.707 1.302-.52 2.88-.631 4.356-.115 1.51-.553 3.137-1.38 4.423-.453.705-1.01 1.377-1.3 2.171-.2.546-.644 1.791-.084 2.224.64.495 2.915-.053 3.644-.205 1.502-.312 3.03-.897 4.524-.55.33.077.687.197.997.058.372-.168.5-.648.432-1.05-.068-.4-.28-.762-.407-1.149-.43-1.302.271-2.059.795-3.115.617-1.246.84-2.875 1.06-4.234.531-3.26.521-6.586.355-9.876-.052-1.045-.133-2.138-.69-3.025a3.227 3.227 0 0 0-2.482-1.479c-3.187-.206-2.793 2.463-3.165 4.639"/>
        <path fill="#B78865" d="M52.981 41.069c.486.645.26 1.697-.447 2.088-.257.141-.552.2-.844.225-.266.022-.539.016-.792-.067-.634-.208-1.04-.916-.954-1.576.086-.66.618-1.223 1.259-1.407.64-.184 1.36-.01 1.887.398"/>
        <path fill="#B8BC9C" d="M57.602 13.294c.81 2.415 1.456 4.93 1.36 7.474-.055 1.484-.361 2.947-.574 4.417a35.05 35.05 0 0 0-.322 6.64c.032.688.084 1.389-.072 2.061-.156.672-.56 1.328-1.196 1.6-.418.178-.89.175-1.344.16a34.12 34.12 0 0 1-4.469-.445c-1.529-.254-3.134-.665-4.199-1.789-1.555-1.641-1.447-4.193-1.242-6.441l.152-1.665c.386-4.228.816-8.6 2.907-12.298 1.079-1.908 2.756-3.673 4.934-4.261 2.538-.685 3.41 2.596 4.065 4.547"/>
        <path fill="#575939" d="M56.074 23.766c.42-1.339.844-2.695.923-4.097.08-1.4-.219-2.875-1.108-3.963-.89-1.088-2.444-1.69-3.768-1.214-1.32.476-2.095 1.827-2.597 3.133-.995 2.594-1.336 5.568-.241 8.121.297.693.692 1.34.99 2.033.816 1.903.851 4.052.618 6.11-.234 2.056-.721 4.08-.907 6.142-.04.446-.056.933.204 1.298.513.719 1.625.469 2.447.143.272.303.832-.097.87-.502.038-.405-.065-.882.227-1.166.118-.114.282-.171.41-.275.243-.197.322-.528.387-.835l1.008-4.775c.329-1.559.66-3.159.42-4.733-.147-.963-.504-1.889-.59-2.858-.086-.97-.1-2.015.707-2.562"/>
        <path fill="#B78865" d="M45.906 5.653c-.03.072-.057.146-.078.221-.143.523.179 1.014.263 1.524.046.283.04.585.106.86.129.532.51.881.906 1.109.613.35 1.299.486 1.982.564.976.112 2.005.104 2.933-.428.929-.53 1.726-1.704 1.72-2.961-.001-.63-.197-1.212-.399-1.768-.18-.497-.37-.995-.655-1.4-.625-.887-1.609-1.2-2.54-1.475-.905-.268-2.154-.59-2.898.455-.544.764-.53 1.838-.984 2.64-.123.218-.26.43-.356.659"/>
        <path fill="#492317" d="M46.53 4.875c-.294-.783-.46-1.71-.083-2.47.289-.581.854-.961 1.441-1.14.587-.179 1.202-.182 1.808-.184 1.497-.006 3.09.02 4.32.907 1.153.834 1.798 2.404 1.605 3.908-.136 1.06-.644 2.029-1.18 2.94-.222.375-.468.764-.837.962-.309.166-.667.176-1.007.15-2.603-.2-5.116-2.54-6.067-5.073"/>
        <path fill="#998636" d="M51.533 9.804c-.203.41-.637.64-1.011.901-1.949 1.36-2.593 3.898-3.097 6.216-.24 1.109-.483 2.234-.418 3.366.02.356.07.717-.01 1.064-.081.347-.333.684-.686.737-.312.046-.621-.144-.805-.4-.411-.575-.28-1.358-.133-2.048l.896-4.19c.149-.698.3-1.402.58-2.06.303-.706.75-1.342 1.084-2.035.484-1 .879-2.749 2.057-3.219.968-.386 2.056.637 1.543 1.668"/>
        <g transform="translate(47.856 .039)">
            <mask id="b" fill="#fff">
                <use xlink:href="#a"/>
            </mask>
            <path fill="#EAD063" d="M.272 1.667C.188 1.394.118 1.06.314.852.42.74.578.697.727.659c.792-.2 1.6-.396 2.415-.357 1.378.066 2.627.783 3.814 1.482.258.15.52.307.71.536.637.769.2 1.916-.258 2.803L5.788 8.26c-.509.986-1.12 2.062-2.18 2.4-.596.19-1.258.106-1.831-.147-1.475-.649-.342-2.222-.334-3.397.011-1.87-.626-3.685-1.171-5.45" mask="url(#b)"/>
        </g>
    </g>
</svg>
