<svg xmlns="http://www.w3.org/2000/svg" xmlns:xlink="http://www.w3.org/1999/xlink" width="13" height="48" viewBox="0 0 13 48">
    <defs>
        <path id="a" d="M.118.09h1.469v4.166H.117z"/>
        <path id="c" d="M0 .153h12.99v22.573H0z"/>
    </defs>
    <g fill="none" fill-rule="evenodd">
        <path fill="#E5D6D6" d="M6.104 10.24a1.76 1.76 0 0 0 .411-.33c.272-.319.476-.876.634-1.259.406-.981.46-2.063.443-3.119-.449-.05-.867.202-1.241.444-.693.448-1.385.897-2.076 1.349-.493.321-1 .66-1.31 1.148-.251.397-.352.864-.429 1.322a17.172 17.172 0 0 0-.22 3.677c.497-.046.994-.097 1.49-.156.289-.034.951.005 1.183-.166.509-.375.311-1.719.286-2.237a.262.262 0 0 1 .016-.129.276.276 0 0 1 .083-.09c.208-.164.484-.3.73-.454"/>
        <path fill="#682929" d="M6.042 8.97c-.095.247-.233.482-.272.742-.033.22.006.448-.056.66-.116.397-.55.632-.969.722-.419.091-.86.083-1.269.209-.14.042-.276.1-.422.104-.278.008-.52-.183-.692-.392-.109-.131-.205-.285-.205-.452 0-.353.393-.567.726-.717C4.037 9.326 5.17 8.61 5.75 7.522c.103-.192.199-.441.42-.51.162.585.09 1.391-.128 1.958"/>
        <path fill="#AA5377" d="M2.953 47.496a.42.42 0 0 0 .017.19c.035.086.124.142.215.174.38.139.813-.037 1.124-.288.311-.25.552-.576.872-.817.475-.358 1.085-.504 1.606-.798.52-.294.98-.854.813-1.41a.28.28 0 0 0-.081-.141.32.32 0 0 0-.15-.059c-.308-.06-.627-.02-.939.02-.52.065-1.04.13-1.56.197-.524.066-1.472.115-1.758.605-.292.5-.12 1.748-.159 2.327"/>
        <path fill="#894966" d="M.345 41.587c.514.134 1.08.079 1.554-.153.245-.119.464-.282.681-.443.28-.21.561-.418.842-.627a.544.544 0 0 0 .183-.19.512.512 0 0 0 .031-.217l-.002-1.182c0-.061-.002-.128-.044-.174-.034-.039-.089-.055-.14-.065-.57-.114-1.136.167-1.644.439-.408.219-1.157.443-1.377.866-.08.156-.072 1.749-.084 1.746"/>
        <path fill="#4688AE" d="M.212 39.539c-.022.19-.03.416.129.532.087.064.202.076.311.085.577.05 1.207.086 1.685-.228.484-.32.672-.908.816-1.454a43.206 43.206 0 0 0 1.42-12.038c-.004-.178-.013-.369-.122-.513-.108-.143-.29-.212-.464-.265-.438-.134-1.376-.433-1.82-.19-.45.245-.386.95-.437 1.372l-.508 4.257-1.01 8.442"/>
        <path fill="#58A1B8" d="M2.927 45.123c.506.033 1.016.02 1.52-.037.109-.013.226-.03.306-.103.075-.067.103-.168.129-.263 1.268-4.806 2.543-9.644 2.894-14.59.012-.18.023-.365-.04-.534-.06-.16-.179-.29-.298-.415-.974-1.023-2.164-2.117-3.456-2.765-1.62-.812-1.244 2.086-1.279 2.978a147.762 147.762 0 0 0 .224 15.729"/>
        <path fill="#2C2E33" d="M7.506 3.686c.813.349.9 1.488.45 2.224-.45.735-1.243 1.202-1.915 1.762-.788.657-1.425 1.463-2.161 2.172-.737.71-1.618 1.343-2.647 1.52-.366.062-.812.03-1.008-.27-.09-.14-.107-.309-.12-.471-.047-.554-.08-1.127.112-1.651.22-.602.711-1.07 1.187-1.517 1.435-1.347 3.74-4.334 6.102-3.769"/>
        <g transform="matrix(-1 0 0 1 12.47 .163)">
            <mask id="b" fill="#fff">
                <use xlink:href="#a"/>
            </mask>
            <path fill="#E5D6D6" d="M1.415 1.279c-.033-.261-.073-.528-.205-.76C1.078.29.837.099.563.092.479.089.389.107.332.165.266.23.259.332.256.423L.118 4.247c0 .01.926.02 1.02-.02.375-.163.279-.105.377-.515.174-.725-.01-1.703-.1-2.433" mask="url(#b)"/>
        </g>
        <g transform="matrix(-1 0 0 1 13 3.973)">
            <mask id="d" fill="#fff">
                <use xlink:href="#c"/>
            </mask>
            <path fill="#C88688" d="M7.88 8.566c.75-.851 2.188-1.05 3.158-.436 1.12.708 1.417 2.133 1.57 3.408.396 3.292.484 6.618.262 9.925-.01.141-.024.292-.119.4-.096.11-.25.148-.394.181l-2.477.571c-.36.083-.741.166-1.095.062-.522-.153-.828-.656-1.083-1.118-.945-1.71-1.91-3.486-2.05-5.417-.116-1.616.33-3.37-.509-4.775-.539-.903-1.51-1.473-2.32-2.165C.269 7.019-.689 3.284.518.216L2.385.153c-.053 1.426-.029 2.877.39 4.247.419 1.369 1.277 2.665 2.57 3.377 1.291.711 3.046.727 4.2-.176" mask="url(#d)"/>
        </g>
        <path fill="#41434F" d="M4.309 4.097c.109.048.178.152.241.25.319.492.65 1.047.536 1.616-.077.384-.35.706-.645.976A5.535 5.535 0 0 1 1.247 8.34c-.208.02-.438.021-.603-.102-.157-.118-.214-.32-.242-.51-.15-1.02.315-2.055 1.102-2.735.652-.562 1.87-1.316 2.805-.897"/>
        <path fill="#2C2E33" d="M9.648 28.919c.04.386.07.808-.16 1.127-.322.448-.995.483-1.56.423a10.001 10.001 0 0 1-2.3-.52c-.164-.059-.333-.126-.448-.252-.12-.13-.166-.304-.21-.471-.513-1.998-1.613-5.074-.757-7.098.58-1.372 3.314-1.16 4.545-1.116.604 2.522.622 5.326.89 7.907"/>
        <path fill="#41434F" d="M3.008 16.304c-.506-1.07-1.046-2.193-.947-3.364.015-.17.042-.348-.017-.51-.06-.16-.243-.297-.413-.24a.502.502 0 0 0-.21.17l-.934 1.104c-.11.13-.224.268-.248.434-.022.162.046.321.112.472l3.288 7.426c.226.51.872 2.37 1.648 1.294.565-.781-.209-2.07-.506-2.786a89.804 89.804 0 0 0-1.773-4"/>
    </g>
</svg>
