<svg xmlns="http://www.w3.org/2000/svg" xmlns:xlink="http://www.w3.org/1999/xlink" width="17" height="46" viewBox="0 0 17 46">
    <defs>
        <path id="a" d="M.17.25h9.164v9.43H.17z"/>
        <path id="c" d="M.197.046h5.204v5.49H.197z"/>
    </defs>
    <g fill="none" fill-rule="evenodd">
        <path fill="#E0BCB3" d="M13.683 39.112c-.035 1.394-.235 2.778-.435 4.158-.023.154-.048.315-.144.437-.137.176-.378.221-.597.254-.113-.639-.058-1.294-.09-1.943-.036-.697-.172-1.385-.298-2.072a71.663 71.663 0 0 1-1.028-8.345c.007.1 2.064-.293 2.23-.16.227.18.085.76.082 1.008-.006.453.005.905.025 1.357.078 1.77.3 3.533.255 5.306"/>
        <path fill="#EAC3B7" d="M11.389 43.745c-.01.12-.021.246-.086.348-.176.28-.625.226-.851.468-.143.153-.158.383-.23.58-.073.198-.285.39-.47.294.544-1.324.54-2.803.516-4.235-.05-3.07-.156-6.142-.504-9.192l1.326.148c.429.05.523.027.575.452.109.884.042 1.831.044 2.721a102.428 102.428 0 0 1-.32 8.416"/>
        <g transform="matrix(-1 0 0 1 9.623 18.095)">
            <mask id="b" fill="#fff">
                <use xlink:href="#a"/>
            </mask>
            <path fill="#008C98" d="M8.39.766c.067.013.138.03.183.08.054.058.058.146.06.225.023.749.157 1.493.397 2.201.108.316.237.629.283.96.039.276.017.557-.004.835l-.069.905a.577.577 0 0 1-.046.22.559.559 0 0 1-.192.189 20.342 20.342 0 0 1-7.664 3.285c-.074.014-.158.027-.22-.016-.057-.04-.078-.112-.095-.179A39.87 39.87 0 0 1 .409 6.68c-.131-.716-.242-1.44-.24-2.167.001-.314.027-.639.176-.913.143-.261.385-.45.623-.627 1.26-.937 2.611-1.74 3.988-2.49.234-.128.529-.288.802-.213.235.064.405.16.662.19.66.075 1.318.178 1.97.307" mask="url(#b)"/>
        </g>
        <path fill="#EFEFEF" d="M3.845 17.578a8.878 8.878 0 0 0-.963 3.424c-.02.278-.024.57.099.821.144.295.442.48.741.611.681.3 1.432.39 2.172.453.992.084 1.99.121 2.986.11a.37.37 0 0 0 .2-.039c.063-.04.097-.114.122-.185.103-.29.126-.603.145-.91.064-1.048.094-2.098.123-3.146.011-.403.022-.808-.042-1.206-.042-.258-.777-.07-.988-.063l-1.56.044-1.53.043c-.17.005-1.448-.067-1.505.043"/>
        <path fill="#EAC3B7" d="M12.92 7.674c.02-.456.01-.913-.029-1.368-.017-.205-.043-.415-.14-.596-.113-.207-.31-.352-.505-.482-.278-.183-.6-.353-.926-.294a1.143 1.143 0 0 0-.422.188c-.211.142-.124.345-.135.56a1.09 1.09 0 0 1-.294.694c-.034.035-.07.07-.089.115a.317.317 0 0 0-.016.088c-.037.412.006.83.123 1.226.002.004.116.055.131.072.04.042.063.097.063.155.318.036.665-.01.985-.024.346-.015.691-.034 1.037-.048.137-.005.278-.011.4-.073"/>
        <path fill="#EFB9AF" d="M8.284 3.898c-.034.51.044 1.033.267 1.492.057.119.126.234.219.326.11.11.252.184.39.254.185.094.348.187.549.227.187.037.253.17.417.257.135.07.304.035.432-.048.127-.083.223-.206.318-.326.27-.338.564-.659.876-.96.295-.283.208-.516.166-.89-.04-.346-.138-.693-.357-.97-.31-.39-.81-.576-1.3-.657-.312-.051-.627-.068-.941-.099-.176-.018-.42-.087-.59-.006-.186.089-.233.347-.286.527-.083.285-.14.577-.16.873"/>
        <path fill="#332E4E" d="M13.248 5.085c.242.102.45.276.625.473.13.146.246.306.33.484.1.215.152.45.197.685.155.798.252 1.607.349 2.415l-.988-.035c-.055-.002-.114-.005-.159-.039a.274.274 0 0 1-.076-.125l-.804-2.094c-.09-.237-.182-.476-.218-.728-.027-.19-.02-.382-.018-.574.002-.118-.047-.348.019-.451.134-.207.566-.085.743-.011"/>
        <path fill="#EAC3B7" d="M16.923 10.886l.072 3.633c.012.559.02 1.137-.197 1.651-.216.515-.72.95-1.271.899-.181-.018-.368-.096-.464-.252a.834.834 0 0 1-.094-.346 10.16 10.16 0 0 1 .716-5.053c.114-.272.24-.539.353-.812.06-.146.185-.782.31-.848.484-.255.57.863.575 1.128M7.24 12.485c.003.657.006 1.315-.077 1.966-.033.258-.08.518-.195.752-.149.305-.402.544-.65.775l-1.405 1.314c-.117.11-.236.303-.116.408.05.044.12.048.186.049.85.018 1.702-.047 2.54-.193.313-.054.657-.141.829-.41.069-.109.102-.236.132-.362.506-2.045.77-4.152.784-6.26 0-.137 0-.277-.044-.406-.136-.393-1.515-1.034-1.908-.741-.239.178-.084 1.137-.083 1.429l.007 1.68"/>
        <path fill="#BEC7D3" d="M15.877 22.46c.093 2.897-.153 5.793-.4 8.68-1.74.628-3.483 1.245-5.231 1.85a.793.793 0 0 1-.336.064c-.195-.02-.345-.18-.465-.337-.756-.985-1.098-2.229-1.293-3.458-.28-1.782-.284-3.595-.287-5.4a9990.05 9990.05 0 0 0-.005-3.097c0-.635 0-1.278.162-1.891.247-.93.845-1.716 1.43-2.476.074-.096.155-.197.27-.231.138-.04.282.025.411.086.808.38 1.673.636 2.555.763.647.092 1.56-.106 2.058.387 1.073 1.064 1.086 3.672 1.13 5.06"/>
        <path fill="#C5CFDD" d="M14.474 7.96l1.565.846c.253.137.528.3.619.575.07.213.011.444-.043.662a20.032 20.032 0 0 0-.603 4.71c-.008 1.01-.033 2.213-.875 2.757-.422.274-.952.3-1.454.283a11.358 11.358 0 0 1-3.702-.748c-.179-.068-.359-.144-.502-.272-.165-.148-.268-.355-.349-.563-.584-1.51-.222-3.21-.413-4.82-.093-.775-.468-1.676-1.234-1.777.117-.442.443-.823.859-1.005.275-.12.585-.157.842-.313.207-.125.367-.32.58-.432.191-.1.41-.126.624-.151 1.493-.174 2.704-.5 4.086.247"/>
        <g transform="matrix(-1 0 0 1 13.472 .278)">
            <mask id="d" fill="#fff">
                <use xlink:href="#c"/>
            </mask>
            <path fill="#332E4E" d="M5.328 2.375A1.856 1.856 0 0 0 5.014.73 1.816 1.816 0 0 0 3.497.05a2.423 2.423 0 0 0-.628.137A3.929 3.929 0 0 0 .985 1.599a4.254 4.254 0 0 0-.783 2.24c-.013.233-.005.48.11.683.223.392.766.5 1.005.883.04.066.098.15.172.127a.135.135 0 0 0 .057-.042c.167-.18.204-.443.288-.675.118-.328.337-.608.56-.874.114-.136.233-.272.385-.363.184-.11.403-.143.6-.226.392-.164.663-.352 1.1-.356.426-.003.725-.201.85-.62" mask="url(#d)"/>
        </g>
        <path fill="#008C98" d="M6.478 15.465c.103-.12.286-.144.434-.093.149.051.269.164.372.284.56.652.737 1.565.694 2.427-.002.047-.008.1-.045.128-.025.018-.058.02-.089.022-.158.008-.316.011-.474.008a.246.246 0 0 1-.111-.02c-.095-.05-.092-.185-.08-.292a2.772 2.772 0 0 0-.362-1.671c-.055-.093-.129-.192-.236-.2-.19-.015-.153.003-.191-.146-.033-.133-.001-.342.088-.447"/>
        <path fill="#BEC7D3" d="M13.402 43.77c.035.024.074.044.096.08.017.028.02.061.024.093.04.366.045.735.015 1.1-.014.162-.042.34-.167.441-.126.102-.304.092-.464.077l-.371-.035c-.047-.005-.096-.01-.134-.04-.042-.033-.059-.089-.073-.141-.086-.32-.173-.647-.142-.976.03-.33.202-.666.502-.797.104-.045.352-.145.46-.099.093.039.154.232.254.298M11.42 45.744c0 .049-.005.104-.043.135-.028.024-.068.026-.105.027l-2.19.048c-.02-.173.139-.317.3-.378.162-.06.342-.074.492-.16.36-.207.407-.74.742-.985.156-.113.351-.158.519-.249.22-.119.255-.221.298.067.07.473-.003 1.017-.013 1.495"/>
        <path fill="#FFF" d="M11.084 5.44c-.619 0-.62-.971 0-.971s.62.972 0 .972"/>
    </g>
</svg>
