<svg xmlns="http://www.w3.org/2000/svg" xmlns:xlink="http://www.w3.org/1999/xlink" width="46" height="58" viewBox="0 0 46 58">
    <defs>
        <path id="a" d="M.145.124h4.076v3.868H.145z"/>
        <path id="c" d="M0 .13h18.172v7.976H0z"/>
        <path id="e" d="M.139.128h3.027v3.753H.139z"/>
        <path id="g" d="M.06.002h6.071v5.82H.061z"/>
    </defs>
    <g fill="none" fill-rule="evenodd">
        <path fill="#B83056" d="M14.444 54.172c-.001.114.012.242.098.318.08.07.198.071.302.053.36-.065.65-.324.912-.58a18.26 18.26 0 0 0 2.187-2.574c.184-.261.368-.553.352-.873-.015-.283-.19-.54-.413-.716-.222-.177-.49-.287-.752-.394-.857-.351-2.686 4.17-2.686 4.766"/>
        <g transform="translate(6.102 54.006)">
            <mask id="b" fill="#fff">
                <use xlink:href="#a"/>
            </mask>
            <path fill="#B83056" d="M1.36.227C.973.083.454.048.232.396c-.223.35.027.802.282 1.129.71.909 1.53 1.755 2.532 2.324.18.102.4.196.588.107a.546.546 0 0 0 .2-.183c.241-.337.305-.765.363-1.175.023-.166.046-.341-.016-.498a.942.942 0 0 0-.225-.301C3.106.943 2.452.635 1.36.227" mask="url(#b)"/>
        </g>
        <path fill="#008872" d="M15.123 51.388a.518.518 0 0 0 .206.126c.164.039.318-.083.444-.196.69-.624 1.448-1.488 1.138-2.366-.17-.48-.617-.794-.94-1.187-.65-.794-.77-1.886-.814-2.912a30.666 30.666 0 0 1 .198-4.979l-2.357-.145c-.266-.016-.558-.026-.77.135-.178.134-.26.357-.33.568-.337 1-.63 2.015-.877 3.04-.169.7-.324 1.565.033 2.233.164.307.372.483.506.805.153.365.206.772.373 1.141.68 1.51 1.947 2.687 3.19 3.737"/>
        <path fill="#16AEA9" d="M7.419 45.189c-.033.93-.066 1.863.037 2.787.086.765.264 1.518.362 2.283.139 1.092.112 2.201.283 3.289.04.249.09.5.207.723.117.223.294.408.469.59l1.836 1.905c.268-1.137.155-2.325.193-3.492.161-4.968 3.028-9.487 3.573-14.427-.003.026-6.185-.928-6.664-.444-.415.418-.148 2.656-.17 3.268L7.42 45.19"/>
        <path fill="#D6D6D0" d="M14.185 35.532a25.06 25.06 0 0 1-3.812.16c-.502-.018-1.036-.061-1.44-.36-.424-.314-.619-.845-.758-1.353A11.72 11.72 0 0 1 7.8 31.84c-.008-.1-.014-.207.035-.295.053-.098.161-.15.263-.195a9.2 9.2 0 0 1 2.84-.734c.646-.06 1.295-.045 1.94-.107.839-.08 1.11-.32 1.104.635a38.983 38.983 0 0 0 .203 4.388"/>
        <path fill="#EADED1" d="M4.442 38.02c-.342.013-.69.04-1.01.164-.479.187-.889.744-.653 1.202.208.402.749.46 1.201.467.625.01 1.29.008 1.82-.323.278-.175.51-.452.55-.778.018-.13-.006-.282-.111-.36a.487.487 0 0 0-.232-.074l-1.63-.225"/>
        <g transform="translate(0 32.637)">
            <mask id="d" fill="#fff">
                <use xlink:href="#c"/>
            </mask>
            <path fill="#363B5B" d="M1.114.339C.13.794-.232 2.117.148 3.132c.38 1.015 1.329 1.725 2.34 2.112 1.013.386 2.103.5 3.172.679 3.506.585 6.887 1.885 10.43 2.17.239.02.488.032.708-.063.275-.12.455-.385.6-.646.356-.636.607-1.33.74-2.045.037-.197.063-.41-.028-.588-.093-.182-.286-.287-.468-.38-2.834-1.433-5.847-2.452-8.954-3.097A46.918 46.918 0 0 0 5.584.738c-1.304-.18-3.21-.983-4.47-.4" mask="url(#d)"/>
        </g>
        <path fill="#090907" d="M5.364 21.833c.222.424.521.9.997.944.34.03.651-.177.922-.385.483-.368.943-.765 1.38-1.188.24-.233.478-.483.603-.794.193-.48.079-1.042-.177-1.493-.256-.451-.64-.814-1.017-1.17l-.55-.517c-.078-.073-.164-.15-.27-.161-.14-.014-.26.09-.36.187-.56.542-1.706 1.426-2.03 2.126-.387.84.085 1.66.502 2.451"/>
        <path fill="#619EBA" d="M10.271 15.065c-.229-.274-.682-.257-.989-.073-.307.183-.513.486-.743.757-.23.27-.522.528-.881.56-.444.04-.857-.278-1.303-.264-.205.007-.4.083-.587.16-.675.277-1.373.605-1.777 1.2-.303.445-.404.99-.474 1.522-.046.354-.08.722.031 1.064.112.341.405.651.77.68.518.042.889-.443 1.242-.812.368-.385.797-.627 1.269-.867.505-.258.663-.428 1.026-.892a264.68 264.68 0 0 1 2.416-3.035"/>
        <path fill="#E5E5E3" d="M4.7 37.855c-.17.406-.339.93-.023 1.237.211.203.561.195.82.058.259-.137.446-.376.62-.612 1.814-2.452 3.154-5.365 5.624-7.153.241-.175.5-.347.647-.606.321-.569-.015-1.261-.197-1.888a3.938 3.938 0 0 1 .879-3.71c.218-.234.474-.456.572-.761.172-.54-.212-1.086-.573-1.524-1.077-1.306-2.36-2.72-4.052-2.792-.134-.005-.274 0-.394.061-.138.07-.228.205-.32.33-.836 1.151-1.747 1.276-1.885 2.773-.152 1.63-.177 3.27-.22 4.906-.088 3.268-.22 6.624-1.498 9.681M3.792 31.142c.453 0 .454-.705 0-.705-.453 0-.454.705 0 .705"/>
        <path fill="#B83056" d="M8.383 25.806c.128.884.61 1.676 1.14 2.395 1.231 1.671 2.8 3.118 4.652 4.054.819.414 1.706.73 2.623.757.917.027 1.87-.264 2.512-.92.263-.269.479-.645.38-1.009-.041-.157-.138-.293-.234-.425a41.393 41.393 0 0 0-6.206-6.801c-1.01-.886-1.886-2.157-3.25-1.313-1.081.668-1.802 1.982-1.617 3.262"/>
        <path fill="#84314B" d="M8.062 23.982c-.523-.333-1.001-.736-1.543-1.036-.089-.049-.195-.096-.287-.054-.064.03-.103.095-.137.157-.2.364-.382.74-.543 1.123-.019.047-.038.103-.01.146.016.026.047.04.075.053l2.66 1.17c.539.237 1.447.357 1.243-.546-.138-.608-.99-.714-1.458-1.013M8.961 20.465c-.041-.11-.073-.25.009-.335.063-.066.166-.068.249-.105.13-.059.205-.2.332-.266.168-.087.383-.01.513.127.13.138.193.323.254.502.228.677.459 1.36.53 2.071.024.25.023.523-.122.728-.573.813-.757-.45-.843-.729-.217-.7-.664-1.308-.922-1.993"/>
        <path fill="#8A7442" d="M38.538 33.274c-.564 2.61-.503 5.31-.44 7.98-.477.062-.97 0-1.418-.179-.14-1.695.028-3.398.104-5.098a47.695 47.695 0 0 0-.643-10.235c1.154.257 3.523.256 3.671 1.804.177 1.844-.888 3.948-1.274 5.728M34.044 34.395c-.646 2.069-1.493 4.165-1.287 6.322l-1.148-.034c-.093-.002-.196-.009-.265-.071-.067-.06-.085-.157-.098-.246-.264-1.844.123-3.71.426-5.548.442-2.679.71-5.388.798-8.102.002-.049 2.333.115 2.56.247.657.384.373 1.21.28 1.842a36.247 36.247 0 0 1-1.266 5.59"/>
        <g transform="translate(42.714 1.407)">
            <mask id="f" fill="#fff">
                <use xlink:href="#e"/>
            </mask>
            <path fill="#383112" d="M3.015 3.746c-.002.029-.005.06-.023.082-.022.028-.06.036-.095.041-.478.066-.939-.165-1.403-.293a3.38 3.38 0 0 0-.929-.122c-.134.001-.301-.008-.357-.13a.334.334 0 0 1-.022-.11C.096 2.185.135 1.146.3.127.87.151 1.44.201 2.008.276c.36.047.906.014 1.078.398.159.354.033.97.022 1.342a36.373 36.373 0 0 1-.093 1.73" mask="url(#f)"/>
        </g>
        <path fill="#DAE2BA" d="M45.373 7.003c.036-.303.073-.609.05-.913-.023-.305-.108-.612-.294-.854-.143-.187-.39-.337-.609-.248a.468.468 0 0 0-.255.316c-.038.136-.031.28-.02.42.038.433.126.862.263 1.275M43.247 5.158c0-.061-.003-.127-.038-.177-.047-.065-.134-.085-.213-.1-.25-.05-.534-.091-.738.061-.202.15-.245.43-.272.679-.02.18-.04.364.003.54.096.393.54.538.842.272.298-.264.414-.906.416-1.275"/>
        <path fill="#45722E" d="M41.525 5.873c.397-.288.937-.585 1.338-.302.23.161.314.473.277.752-.036.278-.173.532-.313.776-.356.618-.75 1.221-1.25 1.73-.258.264-.552.506-.9.627-.284.1-.588.113-.888.127-.66.029-3.618.145-2.4-1.38.378-.475 1.413-.63 1.952-.916.767-.408 1.483-.905 2.184-1.414"/>
        <path fill="#69B848" d="M37.984 10.477c.243.113.503.203.705.38.558.495.415 1.375.391 2.12-.041 1.25.383 2.46.65 3.68.33 1.509.42 3.057.51 4.597l.33 5.681c-3.035.778-6.242 1.557-9.258.705.947-4.05 1.748-8.218 1.27-12.35-.132-1.143-.361-2.275-.43-3.424-.127-2.105.29-4.214.956-6.216.104-.313.244-.657.548-.786.171-.073.365-.061.55-.041.5.055 1.916.198 2.067.735.112.401-.358 1.345-.312 1.869.11 1.263.855 2.504 2.023 3.05"/>
        <g transform="translate(32.622 .232)">
            <mask id="h" fill="#fff">
                <use xlink:href="#g"/>
            </mask>
            <path fill="#423A2F" d="M3.305.022c.297-.003.603-.005.882.1.288.109.524.324.73.555a4.841 4.841 0 0 1 1.199 2.762c.052.582-.019 1.215-.399 1.657-.413.482-1.09.63-1.722.693-.491.048-.995.06-1.469-.078C1.342 5.367.603 4.171.256 2.986c-.152-.519-.251-1.066-.16-1.6C.383-.307 1.997.037 3.304.023" mask="url(#h)"/>
        </g>
        <path fill="#5B4F40" d="M32.321 4.343c-.31.396-.625.8-.792 1.275-.152.432-.172.898-.19 1.356l-.087 2.2c-.032.813-.076 1.669-.506 2.36-.43.693-1.385 1.13-2.086.714.613.93 2.005 1.113 2.987.588.982-.525 1.58-1.589 1.83-2.675.25-1.086.202-2.214.2-3.328-.001-.79.404-2.02.226-2.747-.265-1.081-1.188-.245-1.582.257"/>
        <path fill="#5C9143" d="M38.288 8.263c1.227.34 2.599.666 3.723.067.828-.442 1.335-1.293 1.92-2.028.118-.15.26-.307.451-.328.139-.016.275.045.395.116.327.193.605.472.78.809.2.382.26.825.232 1.254-.088 1.294-.993 2.445-2.14 3.049-1.148.604-2.502.718-3.79.562-1.044-.126-2.09-.433-2.937-1.059-.649-.478-1.767-1.744-1.51-2.663.264-.941 2.167.025 2.876.22"/>
        <path fill="#BA9BB3" d="M40.343 42.108c.237.034.484.073.676.217.19.143.3.427.172.63-.098.153-.292.21-.47.247a6.661 6.661 0 0 1-3.577-.246l-.24.805c-.017.055-.037.114-.084.147-.058.04-.136.025-.205.009l-.648-.153c-.06-.015-.126-.032-.16-.083-.03-.042-.03-.097-.03-.149.014-.885.14-1.769.371-2.623.016-.06.04-.129.098-.153.046-.019.099-.002.146.014.35.123.798.204 1.09.442.181.147.27.357.478.477.641.373 1.665.275 2.383.419M33.017 41.245c.544.16 1.106.257 1.672.288.289.015.602.022.827.203.296.238.296.757 0 .994-.202.162-.478.185-.735.202-.44.03-.885.059-1.32-.006-.438-.064-.871-.231-1.183-.544l-.112.732a5.354 5.354 0 0 1-.932-.108 7.773 7.773 0 0 1 .138-2.346c.013-.06.03-.126.079-.165.046-.037.111-.04.171-.04.24-.003.876-.065 1.041.14.194.24-.069.525.354.65"/>
    </g>
</svg>
