<svg xmlns="http://www.w3.org/2000/svg" xmlns:xlink="http://www.w3.org/1999/xlink" width="24" height="65" viewBox="0 0 24 65">
    <defs>
        <path id="a" d="M.239.353h12.939v13.325H.239z"/>
        <path id="c" d="M.278.065h7.347v7.758H.278z"/>
    </defs>
    <g fill="none" fill-rule="evenodd">
        <path fill="#E0BCB3" d="M19.318 55.267c-.05 1.97-.333 3.925-.616 5.875-.03.217-.067.446-.202.618-.193.249-.534.312-.843.36-.16-.904-.082-1.83-.128-2.746-.05-.986-.242-1.958-.42-2.928a101.35 101.35 0 0 1-1.45-11.793c.009.142 2.913-.413 3.148-.226.32.255.119 1.074.115 1.425-.009.64.007 1.28.036 1.918.11 2.5.423 4.991.36 7.497"/>
        <path fill="#EAC3B7" d="M16.078 61.813c-.013.17-.03.348-.12.493-.249.396-.884.318-1.202.66-.202.217-.223.542-.326.82-.102.28-.4.55-.663.415.768-1.87.763-3.96.73-5.984-.072-4.337-.222-8.679-.713-12.988.624.07 1.248.138 1.872.21.606.069.738.037.812.638.154 1.248.06 2.587.063 3.845a144.866 144.866 0 0 1-.453 11.891"/>
        <g transform="matrix(-1 0 0 1 13.585 25.569)">
            <mask id="b" fill="#fff">
                <use xlink:href="#a"/>
            </mask>
            <path fill="#008C98" d="M11.845 1.083c.094.018.194.04.259.112.075.083.08.206.084.319.032 1.057.22 2.11.56 3.11.153.447.335.888.4 1.356.054.39.024.786-.006 1.18l-.097 1.28a.817.817 0 0 1-.065.31c-.059.114-.167.193-.271.266a28.704 28.704 0 0 1-10.82 4.642c-.105.02-.223.039-.311-.023-.08-.054-.11-.157-.134-.252a56.382 56.382 0 0 1-.867-3.946C.393 8.426.236 7.404.24 6.375c.001-.443.037-.902.248-1.289.202-.37.543-.637.88-.887 1.778-1.323 3.686-2.46 5.63-3.52.33-.179.746-.405 1.132-.3.332.091.572.227.935.269.932.107 1.86.252 2.78.435" mask="url(#b)"/>
        </g>
        <path fill="#EFEFEF" d="M5.428 24.839a12.553 12.553 0 0 0-1.36 4.837c-.027.394-.034.807.14 1.161.204.416.625.679 1.047.864.962.422 2.02.551 3.065.64 1.402.118 2.81.17 4.216.156.097 0 .2-.004.282-.056.09-.058.137-.162.172-.262.146-.41.178-.851.206-1.286.09-1.48.132-2.964.174-4.446.015-.569.031-1.14-.06-1.703-.06-.364-1.097-.098-1.395-.089l-2.2.062-2.163.061c-.24.007-2.044-.095-2.124.06"/>
        <path fill="#EAC3B7" d="M18.24 10.844c.028-.645.014-1.29-.04-1.934-.026-.289-.061-.586-.2-.841-.158-.293-.435-.498-.711-.681-.392-.259-.847-.5-1.308-.416a1.613 1.613 0 0 0-.596.266c-.298.2-.175.487-.19.79-.019.362-.165.72-.415.98-.048.051-.1.1-.125.164a.449.449 0 0 0-.024.125c-.051.582.01 1.173.175 1.732.002.005.162.078.184.102.056.06.09.136.088.218.45.051.94-.012 1.391-.033.489-.022.977-.049 1.465-.068.192-.007.392-.016.565-.104"/>
        <path fill="#EFB9AF" d="M11.696 5.508c-.049.72.06 1.46.376 2.108.081.168.178.33.309.461.157.156.356.26.552.36.26.132.49.263.773.32.265.052.358.24.59.362.19.1.429.05.609-.067s.315-.292.45-.46a14.3 14.3 0 0 1 1.236-1.357c.416-.4.294-.73.234-1.257-.056-.49-.194-.98-.504-1.371-.437-.552-1.144-.814-1.835-.929-.44-.072-.886-.095-1.329-.14-.248-.024-.592-.123-.831-.009-.264.126-.33.491-.405.746a5.82 5.82 0 0 0-.225 1.233"/>
        <path fill="#332E4E" d="M18.702 7.185c.343.144.636.39.884.668.184.206.347.433.465.684.142.305.215.638.278.968.22 1.128.356 2.27.493 3.413l-1.395-.049c-.078-.003-.161-.007-.224-.055a.388.388 0 0 1-.107-.177L17.96 9.678c-.128-.335-.258-.673-.308-1.028-.038-.27-.028-.54-.025-.812.002-.167-.068-.492.026-.638.19-.292.799-.12 1.048-.015"/>
        <path fill="#EAC3B7" d="M23.89 15.383l.104 5.133c.015.79.026 1.606-.279 2.333-.305.728-1.017 1.343-1.795 1.27-.255-.025-.519-.135-.655-.356-.089-.145-.113-.32-.133-.49-.277-2.414.075-4.9 1.011-7.139.161-.385.34-.761.499-1.147.085-.207.26-1.106.438-1.2.683-.36.803 1.22.81 1.596M10.222 17.642c.004.928.008 1.859-.11 2.778-.046.365-.113.732-.274 1.062-.211.431-.569.769-.919 1.096l-1.983 1.856c-.166.155-.334.428-.164.577.07.061.17.067.262.07 1.2.024 2.404-.067 3.588-.273.44-.077.926-.2 1.168-.58.098-.154.144-.334.188-.511a37.937 37.937 0 0 0 1.106-8.846c.001-.194 0-.39-.062-.574-.192-.555-2.139-1.461-2.693-1.047-.338.252-.12 1.606-.118 2.019.004.791.008 1.582.01 2.373"/>
        <path fill="#BEC7D3" d="M22.414 31.738c.132 4.093-.216 8.185-.564 12.264-2.456.888-4.918 1.76-7.385 2.615-.154.053-.313.107-.475.09-.275-.03-.486-.255-.656-.477-1.067-1.39-1.55-3.149-1.825-4.886-.397-2.518-.402-5.08-.406-7.629l-.006-4.378c-.002-.897-.002-1.806.228-2.672.348-1.313 1.193-2.425 2.018-3.498.105-.136.22-.279.383-.327.194-.057.397.036.58.122 1.14.537 2.361.9 3.607 1.078.912.13 2.202-.15 2.905.548 1.515 1.502 1.533 5.187 1.596 7.15"/>
        <path fill="#C5CFDD" d="M20.433 11.247l2.21 1.196c.357.194.745.423.874.813.098.3.016.628-.061.935a28.33 28.33 0 0 0-.85 6.657c-.012 1.425-.048 3.125-1.236 3.894-.596.387-1.345.423-2.052.4a16.022 16.022 0 0 1-5.228-1.057c-.251-.096-.506-.203-.707-.383-.234-.21-.379-.503-.493-.797-.825-2.133-.313-4.536-.584-6.81-.13-1.096-.66-2.368-1.742-2.511a2.181 2.181 0 0 1 1.213-1.42c.389-.17.826-.222 1.189-.443.291-.177.518-.452.82-.61.269-.141.578-.179.88-.214 2.107-.245 3.817-.706 5.767.35"/>
        <g transform="matrix(-1 0 0 1 19.019 .393)">
            <mask id="d" fill="#fff">
                <use xlink:href="#c"/>
            </mask>
            <path fill="#332E4E" d="M7.522 3.357A2.624 2.624 0 0 0 7.08 1.03 2.563 2.563 0 0 0 4.937.07c-.303.02-.6.094-.887.193-1.062.367-2 1.08-2.66 1.997A6.014 6.014 0 0 0 .285 5.424c-.019.33-.007.678.156.966.315.554 1.08.705 1.418 1.247.058.093.139.213.243.18a.191.191 0 0 0 .08-.06c.237-.254.288-.625.407-.954.167-.463.476-.858.792-1.234.16-.192.328-.385.542-.513.26-.155.57-.202.848-.319.553-.232.935-.498 1.552-.503.602-.004 1.023-.285 1.2-.877" mask="url(#d)"/>
        </g>
        <path fill="#008C98" d="M9.146 21.853c.145-.17.403-.204.613-.132.21.073.379.232.524.401.791.921 1.04 2.212.98 3.43-.003.066-.011.141-.064.18-.035.027-.081.03-.125.033a9.067 9.067 0 0 1-.669.01.347.347 0 0 1-.158-.028c-.134-.07-.128-.262-.113-.413a3.92 3.92 0 0 0-.51-2.36c-.077-.132-.182-.272-.333-.283-.27-.021-.217.004-.27-.207-.047-.188-.001-.483.125-.63"/>
        <path fill="#BEC7D3" d="M18.92 61.85c.05.032.105.061.136.112.024.04.03.086.034.132.057.516.063 1.038.02 1.555-.018.228-.059.479-.235.622-.177.144-.429.13-.655.109l-.524-.05c-.066-.007-.136-.014-.188-.055-.06-.047-.084-.127-.103-.2-.122-.452-.245-.914-.202-1.38.042-.465.285-.941.71-1.125.147-.064.496-.205.65-.14.13.054.216.328.358.42M16.123 64.638c-.002.07-.008.148-.06.191-.041.033-.098.036-.15.038l-3.09.068c-.03-.245.194-.448.423-.534.228-.086.482-.104.694-.227.507-.292.575-1.045 1.048-1.39.219-.16.495-.224.732-.353.31-.168.36-.312.42.095.1.668-.003 1.437-.017 2.112"/>
        <path fill="#FFF" d="M15.648 7.688c-.874 0-.876-1.373 0-1.373.875 0 .876 1.373 0 1.373"/>
    </g>
</svg>
