<svg xmlns="http://www.w3.org/2000/svg" xmlns:xlink="http://www.w3.org/1999/xlink" width="193" height="155" viewBox="0 0 193 155">
    <defs>
        <path id="a" d="M.458.322c-.617.523-.417 1.82-.25 2.494.148.594.476 1.176 1.02 1.489.202.115.425.19.623.31.199.12.378.305.41.535.042.301-.175.574-.397.783-.222.209-.476.42-.545.716-.115.496.351.943.824 1.135.608.248 1.322.266 1.91-.024.59-.29 1.023-.908 1.02-1.564 0-.21-.044-.417-.074-.625-.158-1.118.076-2.248.158-3.374.041-.551-.023-1.224-.518-1.47a.822.822 0 0 0-.808.068c-.215.145-.337.42-.618.161-.11-.1-.181-.236-.297-.327C2.506.31 1.894.026 1.322.026c-.314 0-.615.085-.864.296"/>
        <path id="c" d="M.734.39c.578 1.926.82 3.952.709 5.958-.015.27-.046.56-.23.757-.316.336-.996.311-1.099.76-.086.378.359.654.738.736.727.156 1.484.081 2.225.005.188-.019.395-.047.522-.187.111-.122.133-.298.149-.462a24.435 24.435 0 0 0-.166-5.876C3.506 1.577 3.554.801 3.1.47 2.95.36 2.023.25 1.374.25.99.25.704.287.734.39z"/>
        <path id="e" d="M.843.234c.448 2.115.752 4.26.908 6.416a1.59 1.59 0 0 0-1.362.24.44.44 0 0 0-.16.179c-.06.152.036.32.141.445.617.736 1.71 1.03 2.612.703.18-.066.36-.16.47-.317.118-.168.14-.382.158-.586.142-1.645.23-3.294.266-4.944.005-.285.138-.923.012-1.174-.126-.255-.603-.369-.862-.468C2.827.653.864.234.843.234z"/>
        <path id="g" d="M5.295.13A30.388 30.388 0 0 0 .592.848C.503.87.41.893.347.958c-.085.085-.094.218-.097.34-.072 2.786.275 5.564.622 8.33.058.466.118.938.294 1.373.166.41.43.772.609 1.175.246.554.33 1.17.587 1.718a.587.587 0 0 0 .175.242c.109.076.25.08.383.08l2.7.006c.383.001.77.002 1.146-.068.52-.096 1.004-.324 1.511-.468 1.42-.407 3.07-.201 4.246-1.094.312-.237.581-.563.64-.95.048-.311-.045-.626-.14-.927-.475-1.504-1.035-2.983-1.402-4.517a13.852 13.852 0 0 1-.353-2.151c-.054-.692.082-1.38.047-2.06C11.262.952 9.145.436 8.287.247A8.197 8.197 0 0 0 6.534.079c-.413 0-.828.022-1.24.052"/>
        <path id="i" d="M5.295.13A30.388 30.388 0 0 0 .592.848C.503.87.41.893.347.958c-.085.085-.094.218-.097.34-.072 2.786.275 5.564.622 8.33.058.466.118.938.294 1.373.166.41.43.772.609 1.175.246.554.33 1.17.587 1.718a.587.587 0 0 0 .175.242c.109.076.25.08.383.08l2.7.006c.383.001.77.002 1.146-.068.52-.096 1.004-.324 1.511-.468 1.42-.407 3.07-.201 4.246-1.094.312-.237.581-.563.64-.95.048-.311-.045-.626-.14-.927-.475-1.504-1.035-2.983-1.402-4.517a13.852 13.852 0 0 1-.353-2.151c-.054-.692.082-1.38.047-2.06C11.262.952 9.145.436 8.287.247A8.197 8.197 0 0 0 6.534.079c-.413 0-.828.022-1.24.052"/>
        <path id="k" d="M5.295.13A30.388 30.388 0 0 0 .592.848C.503.87.41.893.347.958c-.085.085-.094.218-.097.34-.072 2.786.275 5.564.622 8.33.058.466.118.938.294 1.373.166.41.43.772.609 1.175.246.554.33 1.17.587 1.718a.587.587 0 0 0 .175.242c.109.076.25.08.383.08l2.7.006c.383.001.77.002 1.146-.068.52-.096 1.004-.324 1.511-.468 1.42-.407 3.07-.201 4.246-1.094.312-.237.581-.563.64-.95.048-.311-.045-.626-.14-.927-.475-1.504-1.035-2.983-1.402-4.517a13.852 13.852 0 0 1-.353-2.151c-.054-.692.082-1.38.047-2.06C11.262.952 9.145.436 8.287.247A8.197 8.197 0 0 0 6.534.079c-.413 0-.828.022-1.24.052"/>
        <path id="m" d="M5.295.13A30.388 30.388 0 0 0 .592.848C.503.87.41.893.347.958c-.085.085-.094.218-.097.34-.072 2.786.275 5.564.622 8.33.058.466.118.938.294 1.373.166.41.43.772.609 1.175.246.554.33 1.17.587 1.718a.587.587 0 0 0 .175.242c.109.076.25.08.383.08l2.7.006c.383.001.77.002 1.146-.068.52-.096 1.004-.324 1.511-.468 1.42-.407 3.07-.201 4.246-1.094.312-.237.581-.563.64-.95.048-.311-.045-.626-.14-.927-.475-1.504-1.035-2.983-1.402-4.517a13.852 13.852 0 0 1-.353-2.151c-.054-.692.082-1.38.047-2.06C11.262.952 9.145.436 8.287.247A8.197 8.197 0 0 0 6.534.079c-.413 0-.828.022-1.24.052"/>
        <path id="o" d="M5.295.13A30.388 30.388 0 0 0 .592.848C.503.87.41.893.347.958c-.085.085-.094.218-.097.34-.072 2.786.275 5.564.622 8.33.058.466.118.938.294 1.373.166.41.43.772.609 1.175.246.554.33 1.17.587 1.718a.587.587 0 0 0 .175.242c.109.076.25.08.383.08l2.7.006c.383.001.77.002 1.146-.068.52-.096 1.004-.324 1.511-.468 1.42-.407 3.07-.201 4.246-1.094.312-.237.581-.563.64-.95.048-.311-.045-.626-.14-.927-.475-1.504-1.035-2.983-1.402-4.517a13.852 13.852 0 0 1-.353-2.151c-.054-.692.082-1.38.047-2.06C11.262.952 9.145.436 8.287.247A8.197 8.197 0 0 0 6.534.079c-.413 0-.828.022-1.24.052"/>
        <path id="q" d="M5.295.13A30.388 30.388 0 0 0 .592.848C.503.87.41.893.347.958c-.085.085-.094.218-.097.34-.072 2.786.275 5.564.622 8.33.058.466.118.938.294 1.373.166.41.43.772.609 1.175.246.554.33 1.17.587 1.718a.587.587 0 0 0 .175.242c.109.076.25.08.383.08l2.7.006c.383.001.77.002 1.146-.068.52-.096 1.004-.324 1.511-.468 1.42-.407 3.07-.201 4.246-1.094.312-.237.581-.563.64-.95.048-.311-.045-.626-.14-.927-.475-1.504-1.035-2.983-1.402-4.517a13.852 13.852 0 0 1-.353-2.151c-.054-.692.082-1.38.047-2.06C11.262.952 9.145.436 8.287.247A8.197 8.197 0 0 0 6.534.079c-.413 0-.828.022-1.24.052"/>
        <path id="s" d="M.228.122H3.8v3.09H.228z"/>
    </defs>
    <g fill="none" fill-rule="evenodd">
        <path fill="#403542" d="M168.934 23.406a1.344 1.344 0 0 0-1.23.763c-.193.42-.18.963-.534 1.26-.152.129-.35.187-.54.247-.847.265-1.67.61-2.453 1.029-.162.087-.331.185-.418.348-.07.133-.075.29-.078.441l-.117 5.935c-.007.372-.007.77.206 1.075.197.283.544.428.885.475.348.05.708.01 1.038-.11.35-.128.658-.344.963-.557l3.97-2.78c.236-.166.48-.341.61-.599.142-.284.119-.62.092-.937l-.364-4.345c-.083-.98-.911-2.213-2.03-2.245"/>
        <path fill="#5D5B5E" d="M168.823 43.07c.006.446.022.89.053 1.334.01.129.026.271.121.359.093.085.232.092.359.093l2.464.033c.1.002.204.001.288-.05.101-.06.15-.18.186-.291.236-.719.278-1.484.319-2.24.102-1.907.197-3.816.296-5.722.098-1.88.654-3.683 1.21-5.47.624 4.522.692 9.22.759 13.78.003.227.012.471.15.651.149.196.409.264.65.316.523.114 1.096.21 1.574-.032.745-.377.897-1.356.957-2.188l1.246-17.232c-.025.346-6.292-.344-6.867-.435-.744-.119-2.02-.68-2.67-.123-.606.52-.415 1.931-.446 2.613l-.365 8.126c-.096 2.138-.314 4.323-.284 6.477"/>
        <path fill="#164051" d="M169.775 9.937c-1.542 1.573-1.546 3.652-1.493 5.59l.218 8.078.958-.028c.216-1.1-.045-2.221-.214-3.331-.29-1.89-.299-3.804.072-5.678.184-.93.462-1.849.85-2.743.393-.907 1.089-1.718 1.51-2.603.621-1.3-1.564.372-1.9.715"/>
        <path fill="#1F5672" d="M174.583 8.48c.615-.001 1.242-.002 1.83.178.576.175 1.087.515 1.567.877.375.285.748.598.968 1.015.216.409.266.883.313 1.343.387 3.816.774 7.668.32 11.476-.037.318-.081.635-.083.955-.003.625.155 1.254.054 1.87a.51.51 0 0 1-.112.277c-.095.1-.246.117-.383.127-2.785.209-5.588.178-8.368-.094a.74.74 0 0 1-.326-.084c-.122-.075-.189-.213-.247-.343-1.295-2.889-1.541-6.147-1.35-9.307.04-.671.1-1.343.231-2.003a9.239 9.239 0 0 1 .631-1.968c.27-.601.604-1.171.87-1.774.143-.325.274-.659.356-1.005.048-.205.017-.545.129-.723.572-.912 2.697-.814 3.6-.817"/>
        <path fill="#F6FFFF" d="M171.423 9.573c.063-.309.179-.603.386-.836.151-.17.907-.127 1.134-.154.456-.055.912-.112 1.37-.137.503-.027.999-.004 1.5.037.12.01.258.031.324.133a.303.303 0 0 1 .04.178c-.007.15-.07.291-.133.428-.26.569-.5 1.146-.83 1.673-.17.275-.316.568-.473.85-.113.203-.466.623-.474.849l-2.151 3.858c-.03.053-.068.087-.125.09a12.48 12.48 0 0 1-.317-1.631c-.072-.513.003-1.016-.025-1.536-.061-1.106-.348-2.195-.287-3.307.01-.165.028-.332.06-.495"/>
        <path fill="#475258" d="M168.267 46.178c.008.088.025.18.082.248.066.081.173.114.274.141.545.15 1.11.269 1.673.225.564-.044 1.134-.27 1.49-.709.469-.574.556-1.503.444-2.205-1.52-.161-3.904.473-3.963 2.3M173.426 47.061c-.044.166-.07.35.006.504.107.22.375.3.615.343.328.06.664.093.992.036.35-.061.672-.222.98-.399.604-.347 1.193-.79 1.483-1.424.19-.414.237-.878.28-1.331-.092.956 1.023-.89-2.593.44-.831.305-1.53.959-1.763 1.831"/>
        <path fill="#000E0A" d="M167.161 13.761c-.063-.07-.13-.146-.22-.173-.116-.035-.237.02-.346.075l-1.08.537 1.45 1.138c.03.023.06.048.097.058.073.019.147-.02.211-.06.241-.144.906-.41.822-.741-.068-.273-.734-.613-.934-.834"/>
        <path fill="#E0C3AD" d="M168.055 23.3c-.167.265-.206.59-.216.902a.917.917 0 0 0 .038.349c.034.09.093.17.162.237.382.375 1.084.341 1.428-.068.345-.409.258-1.106-.176-1.418-.438-.315-.859-.601-1.236-.002M167.313 14.582a1.023 1.023 0 0 0-.43.04c-.278.106-.426.408-.507.693a3.154 3.154 0 0 0-.12.79.504.504 0 0 0 .039.246c.046.091.139.148.228.198.984.55 2.12.826 3.247.787.075-.574.238-1.632-.195-2.078-.469-.484-1.631-.636-2.262-.676"/>
        <path fill="#164051" d="M177.05 12.586l-.623 2.353c-.065.247-.134.5-.287.705-.34.452-.977.534-1.543.553a19.509 19.509 0 0 1-5.144-.516c-.06.488-.092.98-.094 1.472-.001.128.003.265.075.37.08.117.224.17.358.214l3.348 1.115c.372.124.745.249 1.131.316 1.584.278 3.227-.452 4.35-1.603a5.498 5.498 0 0 0 1.117-1.625c.331-.76.45-1.588.494-2.41.04-.739.209-1.771-.238-2.408-.397-.564-.986-.78-1.618-.496-.82.367-1.112 1.152-1.326 1.96"/>
        <path fill="#E0C3AD" d="M171.594 7.357c.202.116.425.19.623.31.199.121.378.306.41.536.042.301-.175.574-.397.783-.222.209-.476.419-.545.716-.115.496.351.943.824 1.135.608.247 1.322.266 1.91-.024.59-.29 1.023-.908 1.02-1.565 0-.21-.044-.417-.073-.625-.159-1.117.075-2.248.158-3.373.04-.551-.023-1.224-.519-1.47a.822.822 0 0 0-.809.067c-.214.145-.335.42-.617.162-.109-.1-.181-.236-.297-.327-.633-.496-1.755-.902-2.458-.307-.617.522-.417 1.82-.249 2.494.147.593.475 1.176 1.02 1.488"/>
        <path fill="#573E3D" d="M170.608 1.314c.828-.846 2.134-1.24 3.257-.867.296.098.575.245.835.417.893.59 1.578 1.502 1.852 2.537.273 1.035.122 2.184-.45 3.09-.139.22-.31.433-.55.538-.238.105-.555.068-.708-.143-.211-.292-.015-.69.113-1.027.098-.256.153-.527.163-.8a.692.692 0 0 0-.04-.305.42.42 0 0 0-.564-.191.419.419 0 0 0-.136.579c-.188.105-.464.193-.585.015-.048-.07-.05-.161-.059-.246a1.527 1.527 0 0 0-.8-1.185c-.44-.23-.997-.22-1.43.024-.318.18-.564.47-.893.63-.212.102-.95.316-1.117.112-.152-.186.037-.955.082-1.174.151-.746.494-1.458 1.03-2.004"/>
        <g transform="translate(170.366 3.053)">
            <mask id="b" fill="#fff">
                <use xlink:href="#a"/>
            </mask>
            <path fill="#E8CBB8" d="M1.736 4.696c.4.072.806.117 1.212.133.438.018.891 0 1.287-.186.232-.11.438-.275.594-.48.13-.17.225-.364.317-.557.351-.739.676-1.499.827-2.302C5.036.914 4.27.214 3.454-.39 2.638-.992 1.694-1.526.68-1.495a1.866 1.866 0 0 0-.693.143 1.736 1.736 0 0 0-.626.488 3.34 3.34 0 0 0-.485.847 6.715 6.715 0 0 0-.484 1.88c-.031.297-.043.6.02.891.103.47.39.874.683 1.253.306.396.64.794 1.09 1.015.4.197.875.236 1.302.108a.823.823 0 0 1 .153-.376c.027-.035.052-.065.096-.058" mask="url(#b)"/>
        </g>
        <g>
            <path fill="#332F1D" d="M34.811 68.665c.004.237.04.462.119.656.24.587 1.196.767 1.75.787a.535.535 0 0 0 .278-.043c.078-.043.13-.119.194-.181.285-.282.744-.26 1.14-.194.565.093 1.128.235 1.702.234.573 0 1.178-.168 1.56-.596.207-.232.33-.601.142-.848-.155-.204-.441-.234-.69-.291-.626-.145-1.146-.546-1.689-.869-.579-.344-1.144-.42-1.787-.58a7.847 7.847 0 0 0-1.788-.232c-.11-.001-.228.002-.321.061-.088.057-.14.156-.184.252-.218.479-.436 1.208-.426 1.844"/>
            <path fill="#9AAFC1" d="M36.013 62.702c-.299.843-.68 1.698-.614 2.59.041.566.244 1.209-.113 1.652-.125.156-.307.263-.41.434-.197.324-.027.77.272 1.002.3.233.69.304 1.064.365.601.096 1.231.18 1.807-.018.576-.197 1.072-.764.98-1.365-.037-.246-.166-.472-.196-.718-.035-.285.065-.568.163-.838 1.565-4.352 2.923-8.495 2.505-13.153-.038-.423-.08-.86-.288-1.231-.223-.397-.61-.671-1.003-.902a9.238 9.238 0 0 0-2.76-1.077c-.197-.042-.416-.074-.59.029-.19.113-.26.35-.305.567a6.413 6.413 0 0 0-.095 1.91c.068.679.244 1.34.363 2.012.503 2.858.183 6.019-.78 8.74"/>
            <path fill="#E0CDBD" d="M34.221 54.75c.27.103.582-.059.748-.295.577-.818.875-3.018-.717-2.42-.394.148-.863.492-.894.95-.027.392.465 1.61.863 1.765"/>
            <path fill="#4F4621" d="M38.975 69.23c.266.686 1.082.948 1.796 1.126l3.225.8c.603.15 1.264.294 1.824.026.102-.049.208-.125.222-.237a.344.344 0 0 0-.035-.172c-.241-.575-.82-.921-1.361-1.228l-1.59-.9c-.315-.18-.645-.372-.83-.683-.092-.158-.143-.336-.22-.5-.317-.679-1.45-1.293-2.161-.827-.633.414-1.14 1.901-.87 2.595"/>
            <path fill="#A6C3DD" d="M35.683 51.298l1.963 2.73c.431.599.866 1.203 1.163 1.879.622 1.409.604 3.006.576 4.545l-.07 3.744c-.022 1.159-.05 2.35-.501 3.416.96.315 1.98.448 2.99.392.282-.016.589-.059.78-.266.138-.15.189-.36.225-.562.313-1.732-.022-3.522.182-5.271.089-.755.277-1.495.372-2.25.198-1.563-.008-3.147-.214-4.71l-.62-4.724c-.103-.776-.231-1.61-.774-2.174-.408-.424-.987-.627-1.543-.816-.964-.328-1.948-.66-2.966-.662-.928-.002-2.344.38-2.732 1.341-.45 1.117.562 2.543 1.169 3.388"/>
            <path fill="#E0CDBD" d="M39.351 29.732c-.567 1.126-2.16 1.562-2.478 2.782-.036.141-.052.297.01.429a.732.732 0 0 0 .161.201 5.636 5.636 0 0 0 3.933 1.586c.257-.001.553-.043.69-.259.122-.19.072-.44-.017-.647-.088-.207-.213-.405-.232-.63-.025-.288.127-.558.2-.838.132-.504-.003-1.059-.31-1.479-.307-.42-.774-.71-1.274-.853"/>
            <path fill="#EFDCCA" d="M38.526 29.222a.502.502 0 0 0-.272.628c.066.167.22.284.313.438.166.27.134.627.295.901.083.142.212.251.338.357l1.114.934c.21.175.422.353.673.46.251.108.55.137.793.014.206-.106.346-.304.477-.494.139-.2.277-.401.41-.604.428-.65.811-1.337 1.022-2.085.21-.748.236-1.565-.041-2.29-.058-.151-.132-.302-.255-.406-.118-.1-.269-.147-.416-.192-.531-.165-1.106-.33-1.633-.153-.372.123-.67.402-.94.686-.383.4-.745.84-.977 1.346-.065.143-.14.61-.28.646-.153.041-.35-.293-.621-.186"/>
            <path fill="#D6C8A3" d="M41.05 30.003c.151-.035.292-.107.43-.178.827-.424 1.674-.863 2.293-1.556.214-.239.403-.52.435-.839.053-.52-.31-.978-.653-1.372-.495-.57-.994-1.145-1.599-1.599-.19-.142-.397-.275-.631-.31-.199-.03-.4.014-.597.057-.9.197-1.856.424-2.495 1.088-.725.753-1.873 3.09-1.154 4.088.338.47.963.6 1.507.615.732.018 1.758.17 2.464.006"/>
            <path fill="#594E1F" d="M42.034 48.587c.156.025.328.045.46-.042.125-.083.175-.239.216-.384a32.511 32.511 0 0 0 1.105-11.644c-.065-.75-.166-1.525-.569-2.16-.217-.342-.921-1.062-1.403-.92-.36.106-.588.705-1.033.876-.577.221-.63.248-.875.89a24.111 24.111 0 0 0-1.572 8.872c.014 1.102-.113 2.803.73 3.668.66.676 2.078.706 2.941.844"/>
            <path fill="#21160A" d="M36.744 31.447a.845.845 0 0 1 .193-.16c.239-.127.509.057.624.31.115.252.124.556.168.842.212 1.365 1.478 2.376 2.668 1.958.15-.053.299-.125.452-.128.482-.011.72.618.822 1.151.621 3.223.393 6.672-.28 9.991-.16.79-.345 1.576-.555 2.356-.115.427-.28.909-.642 1.08-.335.16-.69-.021-1.003-.184a11.063 11.063 0 0 0-5.112-1.247c-.439-.387-.502-1.136-.405-1.794.096-.658.319-1.305.328-1.965.011-.833-.317-1.588-.493-2.38-.205-.925-.2-1.899-.214-2.861-.013-.783-.331-1.888-.213-2.633.123-.773 1.206-1.674 1.689-2.22.642-.724 1.3-1.43 1.973-2.116"/>
            <path fill="#594E1F" d="M39.453 38.434c.095 1.067-.483 2.06-.883 3.055-.286.71-.486 1.452-.686 2.191l-2.087 7.727c-.137.51-.282 1.034-.599 1.457-.317.424-.852.728-1.37.618a.55.55 0 0 1-.324-.179c-.087-.111-.102-.26-.115-.401l-.342-3.987c-.093-1.071-.184-2.158.01-3.216.094-.503.25-.993.319-1.5.227-1.689-.541-3.351-.61-5.053a6.237 6.237 0 0 1 .954-3.561c.213-.337.625-.582 1.007-.696.58-.172 1.175-.321 1.78-.333a4.027 4.027 0 0 1 2.4.743c.184.131.36.282.476.475.138.23.183.502.224.768.094.592-.064 1.966-.154 1.892"/>
            <path fill="#EFDCCA" d="M39.124 30.12c.13-.115-.071-.53-.188-.658s-.29-.185-.456-.237c-.063-.02-.133-.04-.193-.012-.053.024-.085.078-.11.13-.237.514-.074 1.115.092 1.656.03.095.073.204.169.227a.252.252 0 0 0 .151-.023.944.944 0 0 0 .535-1.083"/>
            <path fill="#49312D" d="M27.56 97.241c-.134-.04-3.338-1.026-6.643-4.602-5.497-5.946-6.832-14.308-6.984-20.277l.612-.015c.516 20.291 13.064 24.27 13.19 24.308l-.174.586z"/>
            <path fill="#DC5A00" d="M17.204 93.389c-.527-.526-.864-1.206-1.193-1.874-.277.445-.533.931-.542 1.455-.01.636.357 1.236.856 1.631.498.396 1.115.612 1.733.763.11 0 .479-.516.563-.606.129-.14.487-.405.484-.599-.31-.097-.669-.032-1.001-.166a2.743 2.743 0 0 1-.9-.604M19.572 98.934c-.05.225-.1.452-.097.682.007.496.258.953.52 1.374a1.3 1.3 0 0 0 .271.34c.114.09.268.144.408.103.247-.073.331-.397.263-.646-.068-.248-.237-.456-.342-.692-.278-.631-.05-1.384.346-1.948.052-.074.11-.157.097-.246-.019-.134-.176-.194-.31-.218-.274-.05-.752-.17-.904.109-.164.3-.178.806-.252 1.142"/>
            <path fill="#FE8100" d="M30.023 98.481c-.094.442-.19.887-.37 1.301-.133.31-.314.599-.423.918-.118.348-.147.72-.167 1.087a30.438 30.438 0 0 0-.027 2.898c.013.341.052.723.317.938.122.1.278.15.396.253.118.104.181.305.068.413-.397.11-.82.123-1.222.038-.09-.019-.185-.047-.241-.12-.05-.067-.057-.155-.062-.238-.08-1.43-.132-2.864-.156-4.297h-.883a22.648 22.648 0 0 1-.25 4.173c-.042.272-.09.55-.045.822.044.272.197.543.451.65.076.032.16.05.219.109.093.093.073.259-.01.36-.084.102-.213.155-.339.193-.232.072-.475.11-.718.114a.47.47 0 0 1-.267-.053c-.126-.082-.155-.25-.17-.4-.18-1.694-.128-3.413-.444-5.086-.042-.223-.092-.448-.199-.648-.159-.297-.43-.515-.702-.716-1.147-.844-2.415-1.51-3.676-2.173-.223-.118-.448-.236-.69-.305-.572-.163-1.193-.04-1.736.203-.138.062-.277.134-.374.25-.122.146-.162.34-.2.527-.107.545-.211 1.131.013 1.64.104.237.274.441.375.68.102.237.117.544-.064.729-.225.23-.64.138-.855-.102-.214-.24-.28-.574-.338-.89-.148-.8-.295-1.62-.152-2.42.173-.963.757-1.829.837-2.803.028-.331-.004-.665.035-.994.096-.805.68-1.56 1.467-1.758.651-.163 1.337.051 1.944.338 1.432.674 2.633 1.741 3.93 2.648.306.213.624.422.98.531.357.11.763.111 1.086-.076.213-.123.373-.317.56-.475a2.115 2.115 0 0 1 1.723-.461c1.117.204.534 1.471.379 2.202"/>
            <path fill="#BA3613" d="M27.29 97.481c.08.161.205.297.332.426.625.638 1.37 1.19 2.23 1.426.108.03.263.027.284-.082.01-.052-.02-.104-.056-.144-.152-.166-.393-.205-.603-.287-.548-.214-.914-.735-1.266-1.18-.276-.351-.47-.67-.967-.676-.079.157-.03.365.046.517"/>
            <path fill="#E8DDCC" d="M14.287 69.185c.113.504.248 1.009.486 1.467.155.298.36.61.3.942-.045.251-.238.452-.448.596a.89.89 0 0 1-.386.165c-.283.034-.555-.154-.706-.395-.151-.242-.205-.529-.256-.809l-.684-3.737c-.096-.526-.192-1.052-.347-1.563-.159-.525-.379-1.03-.515-1.562-.269-1.042-.206-2.147.014-3.2.013-.063.03-.13.08-.168.046-.035.108-.038.165-.037.367.006 1.031.053 1.226.417.248.463.205 1.32.266 1.838.149 1.284.253 2.574.424 3.856.099.735.219 1.467.381 2.19M5.709 56.622c-.043.217-.091.437-.07.656.023.236.124.456.224.67.156.335.313.672.529.972.216.3.497.563.84.7.218.088.455.122.689.149.204.023.413.041.613-.01.403-.101.683-.457.931-.791.18-.244.308-.47.278-.782a3.032 3.032 0 0 0-.15-.7 1.499 1.499 0 0 0-.146-.319c-.152-.24-.397-.402-.6-.6-.341-.332-.241-.786-.625-1.056-.689-.485-1.135-1.305-1.912-1.631-.6-.251-.385.651-.397.962-.022.598-.09 1.193-.204 1.78M.113 70.667c.045.422.105.848.265 1.242.155.38.398.717.64 1.05l1.745 2.41c.095.132.243.28.393.218.138-.056.154-.241.147-.39-.037-.906-.08-1.84-.455-2.665-.164-.36-.388-.692-.543-1.056-.448-1.052-.286-2.252-.117-3.382.132-.88.265-1.762.534-2.61.08-.251.172-.526.074-.772a.895.895 0 0 0-.253-.325c-.228-.202-.505-.364-.808-.4-.392-.045-1.113.142-1.319.511-.28.505-.256 1.45-.313 2.018-.14 1.379-.137 2.772.01 4.151"/>
            <path fill="#49312D" d="M3.84 90.955c.145.15.294.303.375.495.072.167.087.354.08.536-.004.102-.017.21-.081.289a.455.455 0 0 1-.2.124c-.752.284-1.628.002-2.24-.52-.612-.522-1.009-1.248-1.36-1.972.62-.075 1.54-.329 2.147-.13.499.165.927.818 1.278 1.178M14.294 90.643c.216.227.434.459.584.734.106.194.176.407.207.625a.383.383 0 0 1-.01.196c-.044.107-.164.16-.276.191-.547.155-1.135.067-1.678-.097-.287-.086-.574-.197-.8-.393-.195-.17-.333-.393-.462-.616-.37-.639-.69-1.306-1.009-1.972.087.18 1.631-.22 1.919-.147.282.073.485.377.674.577l.851.902"/>
            <path fill="#28454C" d="M1.29 83.457c-.039.69-.06 1.386-.206 2.062-.138.64-.387 1.25-.578 1.877A10.866 10.866 0 0 0 .046 90c.969.055 1.94.065 2.91.03.09-.003.186-.01.255-.067.083-.068.099-.186.11-.293.47-4.408 2.26-8.552 4.028-12.618 1.486 1.678 1.934 4.02 2.14 6.253.207 2.232.243 4.535 1.11 6.602l2.77-.638a.493.493 0 0 0 .24-.105c.127-.124.082-.334.03-.504a31.591 31.591 0 0 1-1.394-8.804c-.034-2.269.174-4.57-.328-6.783-.02-.092-.048-.192-.126-.245-.073-.05-.17-.043-.26-.035-1.5.148-3.013.297-4.453.746-1.024.32-1.995.789-3.016 1.117-.331.107-1.033.132-1.3.357-.324.275-.357.96-.449 1.351a40.685 40.685 0 0 0-1.023 7.092"/>
            <path fill="#7FB0BF" d="M.128 64.57a4.62 4.62 0 0 1 2.302.357c.026 3.577.185 7.154.477 10.72 1.339-.072 2.684.26 4.015.101 1.828-.217 3.411-1.32 4.91-2.388.115-.083.234-.17.301-.294.09-.165.07-.365.05-.552a38.659 38.659 0 0 1-.176-5.9c.079-1.697.27-3.405.042-5.09a3.15 3.15 0 0 1 1.292-.318c-.362-2.144-2.126-3.983-4.254-4.435.176.443.356.9.358 1.377.002.477-.212.986-.642 1.196-.41.2-.92.079-1.292-.186-.373-.266-.637-.653-.892-1.032-.213-.315-.56-1.133-.947-1.238-.343-.093-.932.402-1.2.58a9.883 9.883 0 0 0-2.15 1.957 10.107 10.107 0 0 0-1.482 2.44c-.094.221-.77 2.712-.712 2.705"/>
            <path fill="#F4E6D3" d="M10.964 53.137c.003-.29-.016-.628-.253-.798a.805.805 0 0 0-.29-.116c-.512-.123-1.042-.131-1.568-.14-.16-.002-.325-.003-.469.068-.213.105-.323.34-.416.559l-.33.767c-.052.12-.136.262-.267.253-.22-.191-.115-.548-.19-.829a.641.641 0 0 0-.391-.429.642.642 0 0 0-.577.074c-.176.123-.28.33-.316.542a2 2 0 0 0 .016.64c.09.603.257 1.195.496 1.756.097.23.221.47.443.585.134.069.29.084.44.098.496.046 1.008.09 1.486-.056.377-.115.71-.342 1.035-.566.351-.242.705-.485 1.01-.783a1.64 1.64 0 0 0 .356-.467c.09-.192.119-.408.112-.62a1.971 1.971 0 0 0-.547-1.296"/>
            <path fill="#75503C" d="M11.259 52.74c.1-1.03-.235-2.137-1.032-2.797-.414-.341-.924-.547-1.441-.688a2.944 2.944 0 0 0-.727-.122 2.43 2.43 0 0 0-.695.102 3.596 3.596 0 0 0-.944.42c-.27.17-.516.377-.761.582-.23.192-.463.39-.62.645-.116.19-.184.406-.246.621-.2.69-.353 1.419-.22 2.125.102.544.366 1.042.632 1.528.134.245.287.505.542.618.046.02.096.034.144.025.09-.019.143-.113.173-.2.203-.573.008-1.199-.077-1.801-.033-.236-.048-.484.04-.705.088-.22.304-.407.541-.39.151.01.294.104.362.24.08.16.056.35.06.53.006.18.064.386.23.455s.36-.041.458-.192c.097-.151.127-.335.178-.507.086-.29.24-.56.443-.785a.391.391 0 0 1 .134-.105.44.44 0 0 1 .177-.02l1.964.053c.053.177.174.822.345.906.231.115.326-.399.34-.539"/>
            <path fill="#FF6F00" d="M32.247 95.78c-.097-.297-.174-.607-.357-.86-.322-.446-.904-.621-1.452-.671-.382-.036-.777-.022-1.134.118-.518.202-.91.658-1.124 1.17-.215.513-.269 1.08-.257 1.636.006.291.035.597.2.837.065.095.17.182.283.16.119-.024.18-.152.224-.265l.287-.74c.085-.22.192-.462.412-.545.169-.064.365-.011.514.092.149.104.26.252.368.398l.628.844c.208.28.42.564.687.787.268.224.603.385.952.38.35-.004.707-.203.834-.527.188-.477.044-.875-.263-1.225-.382-.435-.625-1.045-.802-1.59"/>
            <path fill="#36414B" d="M33.013 97.786c-.05-.004-.105-.005-.146.023-.05.035-.064.101-.074.162a1.459 1.459 0 0 0-.027.4.498.498 0 0 0 .182.347c.108.08.272.09.372 0 .08-.072.105-.185.12-.29.065-.444.019-.606-.427-.642"/>
            <path fill="#DC5A00" d="M28.814 94.504c-.205.142-.349.356-.47.574-.325.582-.524 1.226-.695 1.87-.072.268-.136.567-.005.81.155.289.514.384.834.451.195.042.421.076.575-.05.091-.075.136-.191.174-.302.28-.796.461-1.626.539-2.466.057-.615-.216-1.4-.952-.887"/>
            <path fill="#DBBBAF" d="M127.01 136.966c-.015.164-.037.34-.148.462-.127.14-.334.168-.522.187-.741.076-1.497.151-2.225-.005-.38-.081-.824-.358-.738-.736.103-.449.783-.424 1.099-.76.184-.196.215-.488.23-.757.11-2.006-.13-4.032-.709-5.957-.082-.275 2.128-.094 2.366.079.455.331.406 1.107.482 1.611.29 1.943.348 3.92.166 5.876M122.285 136.934c-.018.204-.04.419-.157.586-.11.158-.29.252-.471.317-.902.328-1.995.034-2.611-.702-.106-.125-.202-.293-.141-.445a.437.437 0 0 1 .159-.179 1.59 1.59 0 0 1 1.362-.24 47.452 47.452 0 0 0-.908-6.416c-.001-.005 1.983.418 2.183.494.259.098.736.212.863.467.125.252-.007.89-.013 1.175-.036 1.65-.124 3.299-.266 4.943"/>
        </g>
        <g transform="translate(123.263 129.01)">
            <mask id="d" fill="#fff">
                <use xlink:href="#c"/>
            </mask>
            <path fill="#0C0E0D" d="M-4.683 4.235l10.14-1.259.707 7.406-12.97-.758z" mask="url(#d)"/>
        </g>
        <g transform="translate(118.675 129.62)">
            <mask id="f" fill="#fff">
                <use xlink:href="#e"/>
            </mask>
            <path fill="#0C0E0D" d="M-.095 3.624l10.14-1.26.707 7.407-12.97-.759z" mask="url(#f)"/>
        </g>
        <path fill="#F3F4F6" d="M127.237 123.59c.368 1.533.928 3.013 1.403 4.516.095.302.187.616.14.929-.06.386-.329.712-.64.949-1.176.892-2.827.687-4.247 1.093-.507.146-.991.372-1.51.469-.377.07-.763.07-1.147.068l-2.7-.007c-.132 0-.274-.003-.382-.08a.59.59 0 0 1-.176-.24c-.257-.55-.34-1.166-.587-1.719-.18-.403-.442-.766-.608-1.175-.176-.436-.236-.907-.295-1.373-.346-2.766-.693-5.544-.621-8.33.003-.122.012-.255.096-.341.064-.064.157-.088.245-.109a30.352 30.352 0 0 1 4.703-.718c.999-.073 2.013-.096 2.992.118.858.188 2.975.704 3.029 1.74.035.68-.102 1.367-.047 2.058.056.725.183 1.445.352 2.152"/>
        <g>
            <g transform="translate(115.616 117.392)">
                <mask id="h" fill="#fff">
                    <use xlink:href="#g"/>
                </mask>
                <path fill="#0C0E0D" d="M14.693 11.188c-1.749-.45-3.107.007-4.683.741-1.227.572-2.462.856-3.803 1.018a247.09 247.09 0 0 1-4.503.492c-1.087.112-2.065.167-2.956-.541-.423-.337.11-.985.534-.647 1.121.89 3.32.246 4.632.104 1.376-.15 2.794-.227 4.135-.584 1.26-.335 2.343-1.094 3.596-1.433 1.068-.289 2.118-.253 3.183.021.52.134.39.963-.135.829" mask="url(#h)"/>
            </g>
            <g transform="translate(115.616 117.392)">
                <mask id="j" fill="#fff">
                    <use xlink:href="#i"/>
                </mask>
                <path fill="#0C0E0D" d="M-1.375 10.421c2.908.66 5.692-.565 8.554-.915 1.388-.17 2.436-.827 3.76-1.135 1.388-.323 2.894-.247 4.312-.308.539-.023.63.811.09.835-1.499.065-3.222-.079-4.657.416-.72.248-1.342.658-2.092.836-.59.14-1.203.166-1.803.25-2.792.393-5.452 1.496-8.3.85-.524-.12-.392-.949.136-.829" mask="url(#j)"/>
            </g>
            <g transform="translate(115.616 117.392)">
                <mask id="l" fill="#fff">
                    <use xlink:href="#k"/>
                </mask>
                <path fill="#0C0E0D" d="M14.31 7.298c-2.873-.707-5.545.483-8.284 1.13-2.29.54-4.644.439-6.915-.134-.52-.132-.39-.961.134-.829 2.872.725 5.535.52 8.333-.382 2.14-.69 4.651-1.159 6.867-.613.52.128.39.957-.135.828" mask="url(#l)"/>
            </g>
            <g transform="translate(115.616 117.392)">
                <mask id="n" fill="#fff">
                    <use xlink:href="#m"/>
                </mask>
                <path fill="#0C0E0D" d="M-.978 5.894c2.592.39 4.817-.288 7.367-.566 2.407-.262 4.987.167 7.322-.523.516-.152.82.63.302.783-2.427.717-5.038.302-7.534.575-1.337.145-2.634.47-3.96.671-1.235.188-2.404.073-3.632-.112-.535-.08-.4-.909.135-.828" mask="url(#n)"/>
            </g>
            <g transform="translate(115.616 117.392)">
                <mask id="p" fill="#fff">
                    <use xlink:href="#o"/>
                </mask>
                <path fill="#0C0E0D" d="M13.373 4.614c-1.416-.442-2.974.012-4.44-.14-1.45-.149-2.86-.7-4.32-.4-2.671.546-4.993.157-7.505-.88-.499-.207-.15-.97.35-.764 1.45.6 2.949 1.076 4.527 1.124 1.347.042 2.614-.528 3.947-.421 1.421.114 2.773.591 4.216.567 1.246-.021 2.362-.228 3.575.15.514.161.16.923-.35.764" mask="url(#p)"/>
            </g>
            <g transform="translate(115.616 117.392)">
                <mask id="r" fill="#fff">
                    <use xlink:href="#q"/>
                </mask>
                <path fill="#0C0E0D" d="M13.458 1.431c-1.19.352-2.382.767-3.601 1.005-1.254.244-2.532.11-3.796.04-2.789-.157-5.577-.243-8.265-1.072-.514-.158-.16-.92.35-.762 2.442.752 4.994.834 7.526.976 1.279.07 2.597.235 3.867.028 1.227-.2 2.429-.647 3.617-.998.516-.153.82.63.302.783" mask="url(#r)"/>
            </g>
        </g>
        <g>
            <path fill="#DBBBAF" d="M113.226 104.025c-.284-.356-.815-.512-1.227-.317-.288.137-.484.411-.64.689-.158.278-.29.577-.331.893-.041.317.016.656.207.912.193.258.5.407.81.494.125.036.26.063.387.029.18-.049.303-.21.406-.365.441-.666.987-1.581.388-2.335"/>
            <path fill="#192423" d="M109.063 113.401c-.64.504-1.406 1.124-1.298 1.931l-.425-.102a1.973 1.973 0 0 1-.324 1.011c-.274-.27-.68.304-1.06.236-.122-.022-.22-.11-.31-.196-.238-.225-.475-.463-.611-.761-.137-.299-.154-.672.038-.938.192-.265.623-.354.857-.125.102-.33.088-.693-.04-1.014l.895.13a.79.79 0 0 0-.141-.554c.437.197.965.076 1.365-.187.4-.264.7-.652.99-1.033.542-.708 1.07-1.704 1.744-2.281.458-.392.987-.108 1.012.506.054 1.296-1.804 2.677-2.692 3.377"/>
            <path fill="#9D4A3A" d="M112.52 105.218c.29-.051.589-.085.85-.22.355-.186.593-.537.784-.89.458-.845.761-1.814 1.48-2.453.536-.476 1.261-.714 1.978-.718 1.043-.006 2.094.498 2.68 1.36.586.862.656 2.068.109 2.956-.622 1.006-1.835 1.445-2.781 2.156-.748.562-1.337 1.306-2.004 1.961-.668.656-1.466 1.246-2.394 1.373a2.798 2.798 0 0 1-2.599-1.119c-1.35-1.884-.239-4.025 1.897-4.406"/>
            <path fill="#1F2321" d="M89.218 141.972l1.432 1.413c-.235.228-.474.453-.776.557a.678.678 0 0 1-.335.037.722.722 0 0 1-.258-.11 1.268 1.268 0 0 1-.547-.71 1.008 1.008 0 0 1 .153-.872c.092-.122.213-.217.33-.315m-5.03-6.895c.035 1.101.561 2.136 1.237 3.005.49.63 1.06 1.193 1.627 1.753l1.603 1.581a3.654 3.654 0 0 0-.59 1.81c-.017.329.019.68.216.943.227.306.623.434 1.001.476.583.066 1.196-.038 1.688-.357.06-.039.167-.157.285-.31.53.518 1.074 1.025 1.696 1.425.831.535 1.78.868 2.749 1.064 1.316.266 2.892.193 3.724-.86.508-.644.616-1.511.643-2.33.894.244 1.903.477 2.702.008.814-.477 1.106-1.526 1.078-2.469a5.557 5.557 0 0 0-1.66-3.775c-.488-.474-1.059-.854-1.626-1.23l-4.735-3.142c-1.22-.81-2.45-1.625-3.812-2.16-1.29-.508-4.553-1.39-5.159.495-.152.475-.11.994.013 1.477.226.89.726 1.707 1.406 2.324a5.328 5.328 0 0 0-2.91-.791c-.403.01-.864.104-1.066.454-.104.182-.117.4-.11.61"/>
            <path fill="#001F6A" d="M87.873 131.454c.041-.192.107-.387.245-.526.213-.215.547-.247.85-.239 2.184.06 4.025 1.535 5.924 2.616 1.332.759 2.758 1.344 4.082 2.118 1.323.775 2.57 1.775 3.293 3.127.355.663.577 1.424.468 2.168-.109.744-.596 1.458-1.31 1.695-.89.295-1.833-.18-2.647-.642-2.505-1.424-5.036-2.926-6.993-5.076-1.45-1.59-4.483-2.623-3.912-5.241M93.286 138.638c.692.596 1.34 1.247 2.086 1.774.822.58 1.768 1.017 2.423 1.78.655.764.9 2.027.183 2.733-.477.47-1.22.543-1.884.462-2.344-.286-4.185-2.07-5.838-3.756-1.352-1.38-2.708-2.765-3.886-4.297-.328-.426-1.502-1.826-.989-2.348.465-.473 2.172.36 2.659.543a17.645 17.645 0 0 1 5.246 3.11"/>
            <path fill="#DBBBAF" d="M121.444 97.604c.636.648.63 1.67.94 2.523.095.256.22.51.225.782.007.352-.19.672-.386.965-.235.353-.484.704-.816.968-.332.263-.763.43-1.18.358-.419-.072-.798-.426-.811-.85-.007-.193.06-.386.031-.578-.048-.329-.347-.55-.593-.774-.78-.708-1.564-2.435-1.018-3.488.53-1.022 2.95-.576 3.608.094"/>
            <path fill="#091B10" d="M117.19 96.82c.285-1.09.985-2.021 1.717-2.879.452-.53.946-1.06 1.594-1.316.708-.28 1.513-.192 2.242.029.928.282 1.78.765 2.605 1.275.586.362 1.168.744 1.649 1.238 1.114 1.146 1.574 2.817 1.5 4.412-.076 1.596-.639 3.132-1.343 4.567-.124.253-.263.515-.5.667-.359.23-.826.144-1.242.05-.538-.122-1.084-.246-1.575-.5-.492-.252-.93-.652-1.113-1.173-.163-.466-.109-.975-.084-1.467.047-.911-.02-1.849-.382-2.686-.362-.838-1.055-1.567-1.937-1.803-.81-.216-1.47.075-2.095.557-.777.6-1.258-.124-1.037-.971"/>
            <path fill="#B8C3CB" d="M127.204 103.065a58.308 58.308 0 0 1-.11 16.357 26.659 26.659 0 0 0-6.12-.224c-1.584.125-3.16.392-4.75.392-.11 0-.226-.003-.318-.063-.15-.099-.174-.307-.18-.487-.1-2.778.381-5.542.86-8.281.099-.568.201-1.146.457-1.663.229-.46.571-.855.829-1.3.236-.41.398-.858.585-1.293.239-.557.52-1.095.801-1.632l.97-1.853c.541-1.035 1.227-2.182 2.374-2.407.687-.135 1.393.106 2.022.415.628.31 1.229.694 1.905.876"/>
            <path fill="#DBBBAF" d="M109.77 112.06a.756.756 0 0 0-.297.117c-.19.14-.245.396-.286.629l-.091.518a.762.762 0 0 0-.012.308c.033.134.134.24.238.332.395.353.874.613 1.386.753.948.26 1.585-.644 1.31-1.542-.254-.835-1.471-1.276-2.249-1.114"/>
            <path fill="#8FA0AA" d="M122.945 104.212c-.169-.079-.357-.149-.538-.104-.186.046-.322.201-.445.349l-5.1 6.111c-.304.366-.612.734-.986 1.028a3.482 3.482 0 0 1-3.254.535c-.375.173-.766.358-1.013.688-.39.52-.307 1.288.057 1.826.365.538.956.88 1.56 1.124a5.389 5.389 0 0 0 1.62.398c.945.066 1.886-.185 2.766-.534 2.916-1.152 5.367-3.424 6.756-6.234.35-.706.638-1.466.634-2.254-.005-1.259-.955-2.416-2.057-2.933"/>
            <path fill="#192423" d="M112.094 104.4l.559-.026-.404-8.716-.56.026z"/>
            <path fill="#E8D97C" d="M96.329 137.347c0 .128-.185.232-.412.232-.228 0-.412-.104-.412-.232s.184-.232.412-.232c.227 0 .412.104.412.232"/>
            <path fill="#D3B372" d="M98.098 137.347c0 .148-.207.268-.463.268s-.464-.12-.464-.268c0-.148.208-.267.464-.267s.463.12.463.267"/>
            <path fill="#E8D97C" d="M99.34 137.882c0 .148-.207.268-.463.268s-.464-.12-.464-.268c0-.148.208-.267.464-.267s.463.12.463.267M98.915 137.325c.018.146-.174.29-.428.321-.254.03-.475-.063-.492-.21-.018-.147.174-.29.428-.321.254-.031.474.063.492.21"/>
            <path fill="#E5C57C" d="M98.428 137.868c-.034.144-.263.213-.512.154-.25-.058-.424-.223-.39-.366.034-.144.264-.213.512-.155.25.06.424.223.39.367"/>
            <path fill="#D3B372" d="M98.358 138.344c-.034.144-.264.213-.513.154-.249-.058-.424-.223-.39-.367.034-.144.264-.213.513-.154.25.06.424.223.39.367"/>
            <path fill="#E8D97C" d="M97.977 138.238c0 .147-.208.267-.464.267s-.463-.12-.463-.267c0-.148.207-.268.463-.268s.464.12.464.268"/>
            <path fill="#E8D97C" d="M97.665 137.868c-.034.144-.264.213-.513.154-.249-.058-.424-.223-.39-.366.034-.144.264-.213.513-.155.25.06.424.223.39.367"/>
            <path fill="#AD811E" d="M162.183 136.222c.39-.096.705.376 1.106.4.105.006.245.002.273.104a3.03 3.03 0 0 1-1.39.1l.061-.478"/>
            <path fill="#8F929B" d="M157.808 139.767l-.256 1.429.042.007-.335.127.078.205.337-.127-.042.2.215.045.054-.259.134.175.174-.135-.206-.266.238-1.323zM159.515 141.336l-.182-.08-.285-1.82-.434.067.285 1.817-.187.244.174.134.153-.2.028.234.218-.026-.03-.244.171.075z"/>
            <path fill="#D9DBE8" d="M161.308 136.82a3.403 3.403 0 0 0-.2-.342.412.412 0 0 0-.116-.134c-.142-.091-.323.017-.461.115a5.15 5.15 0 0 1-1.7.789c-.613.158-1.217.101-1.833.201-.569.092-1.127.417-1.37.94-.242.523-.074 1.24.44 1.502.242.123.523.138.794.15l1.775.082c.549.024 1.108-.035 1.614-.256.435-.189.608-.595.753-1.022.087-.257.175-.513.261-.77.104-.306.21-.63.15-.947a1.216 1.216 0 0 0-.107-.308"/>
            <path fill="#C2C4CC" d="M153.608 138.17c-.053-.001-.11 0-.153.03-.047.033-.066.093-.08.15a3.096 3.096 0 0 0-.072 1.053.522.522 0 0 0 .072.246c.073.105.206.147.33.175.935.216 1.953.04 2.76-.478a.585.585 0 0 0 .228-.22c.033-.07.04-.149.046-.226.068-.849-.273-.698-1.043-.707l-2.088-.024M161.277 135.41c-.351.172-.511.58-.793.85-.2.193-.455.313-.705.433-.062.03-.128.064-.159.125-.054.108.027.231.103.324l1.04 1.27c.066.082.145.17.25.176.171.01.267-.19.315-.354l.217-.737c.04-.138.088-.286.206-.367.173-.12.424-.045.608-.148.139-.077.207-.238.246-.393.207-.83-.402-1.633-1.328-1.18"/>
            <path fill="#AD811E" d="M182.762 148.816c-.363-.17-.766.23-1.163.174-.104-.015-.242-.046-.289.048.41.227.874.355 1.343.373l.035-.481"/>
            <path fill="#8F929B" d="M186.351 153.154l-.03 1.45h-.043l.303.19-.117.187-.304-.192v.205l-.22.001v-.264l-.167.145-.144-.166.255-.222.027-1.343zM184.369 154.356l.193-.043.64-1.729.412.152-.638 1.725.135.277-.198.096-.11-.225-.074.224-.208-.07.077-.233-.182.04z"/>
            <path fill="#D9DBE8" d="M183.501 149.575c.08-.105.172-.201.263-.296a.416.416 0 0 1 .14-.109c.159-.06.315.081.43.205.43.458.946.834 1.512 1.108.57.275 1.172.339 1.757.558.54.203 1.022.631 1.157 1.192.134.56-.172 1.23-.727 1.385-.262.074-.54.033-.808-.009l-1.757-.27c-.542-.084-1.079-.253-1.532-.569-.389-.27-.478-.702-.537-1.15l-.104-.806c-.041-.321-.08-.658.04-.958.042-.102.1-.195.166-.281"/>
            <path fill="#C2C4CC" d="M190.784 152.415c.052.01.108.022.144.06.04.043.046.105.048.163.015.353-.031.709-.136 1.046a.518.518 0 0 1-.12.228c-.092.089-.23.103-.358.107a3.657 3.657 0 0 1-2.611-1.013.587.587 0 0 1-.18-.26.633.633 0 0 1 0-.232c.1-.845.404-.63 1.161-.487l2.052.388M183.81 148.198c.31.238.387.67.61.99.157.229.384.397.605.564.055.041.114.088.132.154.03.116-.072.221-.165.298l-1.27 1.04c-.081.067-.176.137-.28.123-.17-.024-.224-.239-.24-.41l-.066-.765c-.013-.143-.03-.298-.13-.4-.146-.152-.407-.128-.567-.265-.12-.103-.156-.275-.163-.433-.04-.857.716-1.523 1.534-.896"/>
            <path fill="#8F929B" d="M188.047 145.005l-.037 1.45h-.043l.303.192-.118.185-.304-.193v.205h-.22v-.264l-.167.144-.143-.167.256-.22.034-1.343zM186.06 146.198l.193-.042.648-1.726.411.154-.646 1.722.134.277-.199.095-.108-.225-.075.223-.208-.07.078-.233-.182.04z"/>
            <path fill="#D9DBE8" d="M185.215 141.412c.08-.104.172-.2.264-.294a.407.407 0 0 1 .141-.108c.158-.06.314.082.429.206.428.46.942.84 1.506 1.115.568.279 1.17.345 1.754.567.538.205 1.02.636 1.151 1.197.132.561-.177 1.23-.733 1.382-.262.072-.54.03-.808-.012l-1.755-.279c-.542-.086-1.078-.257-1.53-.576-.387-.272-.475-.705-.53-1.153l-.101-.806c-.04-.321-.078-.66.045-.958.041-.102.1-.194.167-.28"/>
            <g transform="translate(188.718 143.684)">
                <mask id="t" fill="#fff">
                    <use xlink:href="#s"/>
                </mask>
                <path fill="#C2C4CC" d="M3.16 1.143c.241.274.44.584.583.92A.534.534 0 0 1 3.8 2.3c-.013.202-.222.326-.405.414l-.8.383a.984.984 0 0 1-.327.112c-.217.02-.424-.107-.565-.272-.142-.166-.231-.367-.335-.558a3.942 3.942 0 0 0-.593-.817C.617 1.396.442 1.239.33 1.038.218.838.18.575.307.383.447.17.735.113.99.123c.428.019.648.016.967.288L1.64.14a3.47 3.47 0 0 1 1.52 1.003" mask="url(#t)"/>
            </g>
            <path fill="#C2C4CC" d="M185.53 140.038c.309.239.384.67.604.993.157.229.383.398.604.566.055.041.113.088.13.155.031.116-.072.22-.166.296l-1.274 1.035c-.082.066-.177.136-.282.12-.17-.024-.223-.239-.237-.41l-.063-.765c-.012-.143-.029-.298-.128-.401-.145-.152-.406-.13-.565-.267-.12-.104-.155-.276-.162-.435-.035-.856.724-1.518 1.539-.887"/>
            <path fill="#AD811E" d="M184.116 140.776c-.169 0-.338 0-.506.002-.032.063-.014.142.027.2.04.058.1.1.16.139l.17.115c.028.02.06.04.094.038.044 0 .081-.039.096-.08a.334.334 0 0 0 .009-.133l-.013-.199"/>
        </g>
    </g>
</svg>
