<svg xmlns="http://www.w3.org/2000/svg" xmlns:xlink="http://www.w3.org/1999/xlink" width="21" height="39" viewBox="0 0 21 39">
    <defs>
        <path id="a" d="M.211.164h1.424v2.553H.21z"/>
        <path id="c" d="M0 .174h4.364v7.455H0z"/>
        <path id="e" d="M.183.23h6.11v8.013H.184z"/>
    </defs>
    <g fill="none" fill-rule="evenodd">
        <path fill="#DDCCB6" d="M13.608 16.168c-.024.225.053.447.087.67.017.12.026.251.103.343.104.124.292.13.418.23.175.14.177.406.161.632-.015.227-.016.493.158.635.117.095.28.102.43.104.544.007 1.125-.005 1.573-.322a.834.834 0 0 0 .219-.216c.072-.11.106-.24.133-.369.123-.606.08-1.234.037-1.852-.005-.075-.012-.156-.058-.215-.049-.063-.13-.088-.207-.106-.611-.147-1.247-.14-1.875-.132-.424.005-1.115.014-1.179.598"/>
        <path fill="#211715" d="M15.97 17.063c.02.187.016.377.063.559.047.181.156.36.328.424.147.056.31.02.467.017.076-.002.159.004.223-.04a.33.33 0 0 0 .098-.125c.223-.42.305-.914.232-1.386-.034-.223-.108-.448-.264-.607-.197-.202-.497-.265-.774-.232-.188.022-.369.083-.544.155-.198.08-.25.086-.154.279.155.312.288.602.325.956"/>
        <path fill="#444B49" d="M13.215 35.996c.174.033.349-.084.445-.236.096-.152.133-.335.173-.511a8.607 8.607 0 0 1 1.224-2.859c.074-.11.16-.228.287-.261.165-.045.337.075.417.23.08.154.09.335.102.51.075 1.027.3 2.036.523 3.04.32.017.643-.011.957-.083.1-.022.207-.055.267-.14.055-.08.056-.184.055-.282a182.794 182.794 0 0 0-.167-5.724c-.378.11-.728.3-1.088.46-.65.287-1.34.48-2.042.574-.353.046-.708.026-1.06.064-.375.04-.374.079-.363.483.045 1.579.163 3.16.27 4.735"/>
        <path fill="#82A3B1" d="M14.244 18.984c-.21-.156-.521-.074-.708.11-.187.184-.28.444-.366.695-.912 2.64-1.835 5.336-1.88 8.136.46.194.913-.331 1.045-.824.132-.492.154-1.067.53-1.403a41.258 41.258 0 0 0 .066 5.32c.668.085 1.341.119 2.013.102.867-.022 1.808-.165 2.41-.805.646-.69.71-1.743.698-2.698-.012-.956-.045-1.986.479-2.777.51.653.908 1.4 1.168 2.194.25.115.55-.088.659-.347.109-.259.085-.553.086-.835 0-.492.08-.98.09-1.472.049-2.115-1.121-4.032-2.248-5.803-.12-.189-.262-.393-.477-.44-.156-.033-.315.025-.464.083l-1.949.755"/>
        <path fill="#B0AFAD" d="M11.35 29.273c0 .2.014.434.174.55.057.04.132.06.194.033.081-.037.113-.136.135-.224.111-.453.193-.914.244-1.378.036-.04.102-.015.141.022.04.037.075.086.128.093.08.01.134-.081.157-.16.125-.443-.036-.912-.196-1.343-.005-.015-.012-.031-.025-.038-.024-.013-.05.008-.069.026-.265.266-.733.58-.857.95-.14.418-.017 1.03-.026 1.469"/>
        <g transform="translate(19.27 25.854)">
            <mask id="b" fill="#fff">
                <use xlink:href="#a"/>
            </mask>
            <path fill="#B0AFAD" d="M.278 1.717a.261.261 0 0 0 .264-.104l.066.54c.023.19.06.404.217.508.207.137.477-.005.682-.145a.294.294 0 0 0 .111-.109.297.297 0 0 0 .011-.16A5.885 5.885 0 0 0 1.014.247.167.167 0 0 0 .96.176C.908.147.844.18.793.214.542.378.292.47.215.768c-.02.077.042.945.063.95" mask="url(#b)"/>
        </g>
        <path fill="#473A47" d="M12.705 37.34a.21.21 0 0 0 .014.118c.02.04.06.063.1.081a.864.864 0 0 0 .829-.064c.107-.072.198-.167.307-.235.129-.079.282-.12.388-.228.168-.171.161-.447.144-.69l-.095-1.297c-.025-.34-.066-.717-.315-.943-.479.418-.65 1.067-.757 1.672-.1.571-.558 1.017-.615 1.585M16.536 36.019a.53.53 0 0 1-.01.183.486.486 0 0 1-.083.15c-.13.176-.277.338-.438.484-.037.034-.077.07-.095.118a.276.276 0 0 0-.006.13c.028.212.116.415.25.578a.333.333 0 0 0 .13.106c.056.022.119.017.18.01a7.48 7.48 0 0 0 .545-.084c.119-.023.25-.057.315-.162.04-.067.046-.149.07-.223.042-.126.136-.226.185-.348.058-.145.048-.306.038-.462-.03-.475-.062-.95-.093-1.424-.216.02-.787.033-.95.196-.158.16-.052.528-.038.748"/>
        <path fill="#272F40" d="M13.589 18.26c-.15.31-.248.646-.292.989l1.202.198a11.08 11.08 0 0 1-.283 2.947c.137.114.355.048.468-.09.113-.14.147-.326.176-.504.115-.72.195-1.444.242-2.171l.827 1.097c.24.317.513.657.898.727.206.037.484-.098.435-.307-.032-.135-.18-.196-.292-.273-.372-.255-.426-.783-.444-1.24a.502.502 0 0 1 .031-.245c.043-.085.129-.136.21-.182l.403-.228c.198-.112.403-.23.531-.423.128-.191.15-.479-.014-.64-.13-.129-.339-.14-.511-.082-.173.057-.321.17-.475.27-.468.3-1.034.482-1.587.51-.137.007-1.585-.23-1.525-.354"/>
        <path fill="#701300" d="M14.335 14.758c.576-.673 1.006-1.463 1.516-2.19a.534.534 0 0 1 .164-.171c.182-.102.403.036.549.189.594.623.796 1.53.904 2.395.034.273.06.553.007.822-.053.27-.2.534-.437.663a.318.318 0 0 1-.12.042c-.055.006-.11-.012-.163-.028a9.98 9.98 0 0 0-1.95-.393c-.27-.026-1.36-.036-1.15-.495.145-.314.46-.576.68-.834"/>
        <path fill="#4F353B" d="M1.248 11.26c.033-.15.131-.34.275-.295.059.367-.013.742-.064 1.11-.114.826-.126 1.662-.101 2.495.013.426.036.852.059 1.278.014.251.173.963.033 1.169-.132.193-.519.126-.66-.024-.155-.165-.16-.446-.165-.66-.018-.758.07-1.534.155-2.286.107-.937.263-1.868.468-2.787"/>
        <g transform="translate(0 16.231)">
            <mask id="d" fill="#fff">
                <use xlink:href="#c"/>
            </mask>
            <path fill="#4F353B" d="M.28.373c-.463 1.964-.258 4.02-.05 6.03.02.19.04.386.138.548.203.343.657.432 1.01.522.378.096.766.148 1.155.156.276.005.549-.078.81-.166.603-.203.774-.888.854-1.457.084-.594.137-1.193.16-1.793.014-.388.015-.78-.06-1.16-.125-.641-.457-1.217-.783-1.778-.154-.265-.316-.538-.567-.707C2.712.41 2.424.362 2.146.317 1.87.273.37-.013.279.373" mask="url(#d)"/>
        </g>
        <g transform="translate(1.73 .023)">
            <mask id="f" fill="#fff">
                <use xlink:href="#e"/>
            </mask>
            <path fill="#CEAF8E" d="M2.183.56c-.329.229-.543.6-.659.99-.116.39-.143.8-.165 1.208-.01.197-.02.395-.062.588-.046.207-.13.403-.2.603-.252.706-.35 1.459-.432 2.205-.04.364-.09.759-.344 1.015-.06.06-.135.122-.138.208-.003.094.082.163.16.213.948.606 2.127.765 3.229.58.209-.035.422-.084.597-.206.1-.07.184-.16.277-.24.423-.362.999-.46 1.545-.54.077-.012.166-.032.2-.103a.253.253 0 0 0 .01-.128c-.11-1.264-.089-2.54.061-3.8.022-.186.047-.375.02-.56-.04-.261-.18-.494-.323-.714-.247-.383-.514-.76-.856-1.056C4.387.2 2.992-.004 2.183.56" mask="url(#f)"/>
        </g>
        <path fill="#D3B39B" d="M4.231 8.247l1.482-.041c.026-.001.054-.003.07-.023.014-.016.016-.038.016-.06.012-.299 0-.599-.037-.896a.11.11 0 0 0-.015-.05c-.024-.033-.072-.03-.11-.022a3.986 3.986 0 0 1-.58.064c-.129.005-.398-.066-.51-.015-.205.092-.243.81-.316 1.043"/>
        <path fill="#F3FFFF" d="M5.288 8.036c-.402.066-.812-.024-1.219-.009-.406.016-.856.181-1.014.565.01.143.09.27.167.388l1.576 2.452c.33.513.67 1.037 1.152 1.402.236.18.54.32.817.219.296-.109.441-.446.53-.755.234-.808.192-1.604.315-2.42.105-.691-.152-1.406-.505-2a1.011 1.011 0 0 0-.237-.295c-.573-.444-1.008.359-1.582.453"/>
        <path fill="#D3B39B" d="M3.34 36.994c.324.063.677.122.969-.035.503-.272.526-.988.498-1.57-.111-2.254.023-4.52.4-6.743-.42-.056-.87-.11-1.295-.082-.463.03-.462.044-.509.505-.09.883-.08 1.79-.1 2.677-.01.47-.186 5.204.038 5.248M7.165 34.8c.373.014.818-.01 1.013-.337.102-.17.105-.38.105-.58.004-1.919.006-3.838.006-5.758-.414-.02-1.398-.013-1.617.406-.227.435.007 1.6.03 2.093.019.373.24 4.17.463 4.177"/>
        <path fill="#007582" d="M2.05 9.339c-.896 1.151-.916 2.755-.895 4.228l.073 5.032c.006.48.023.992.293 1.384.27.392.893.562 1.205.205l.335-2.647c1.11 1.04 1.176 2.788 1.068 4.325-.04.565-.122 1.19-.544 1.555-.387.336-.942.348-1.449.343a63.97 63.97 0 0 0-.616 4.308c-.018.167-.033.348.051.493.087.15.259.223.42.281 2.325.836 5.002.576 7.133-.693.208-.124.424-.273.503-.506.073-.213.013-.446-.047-.663-.912-3.242-2.125-6.538-1.73-9.888.242-2.051 1.083-4.104.632-6.117-.17-.756-.514-1.456-.856-2.147-.302-.612-.64-1.26-1.23-1.581.507 1.52.72 3.142.626 4.745-.27.117-.59-.011-.798-.223-.207-.211-.33-.492-.465-.758a6.874 6.874 0 0 0-.59-.957c-.186-.253-.531-.505-.545-.809-.003-.07-.047-.13-.092-.182-.266-.315-.821-.72-1.256-.617-.46.11-.938.52-1.226.889"/>
        <path fill="#D3B39B" d="M1.806 20.936c-.09.264-.215.524-.217.804-.003.28.17.589.441.615.248.023.455-.19.584-.408.268-.449.371-.998.286-1.517-.013-.08-.034-.165-.095-.215-.592-.486-.878.365-1 .721"/>
        <path fill="#2E4849" d="M4.046 36.838c.079-.026.157-.058.24-.066.18-.018.349.084.498.19a5.83 5.83 0 0 1 1.439 1.471c.015.023.031.048.028.076-.004.033-.034.055-.062.071-.317.187-.701.19-1.067.19a.9.9 0 0 1-.268-.027c-.15-.047-.267-.167-.372-.286-.201-.228-.39-.474-.635-.651-.172-.126-.37-.215-.525-.363-.643-.61.404-.504.724-.605M8.073 34.538c.157.101.273.256.4.395.171.19.368.355.581.492.198.126.41.227.595.373.184.144.344.343.377.58.01.067.005.146-.046.19a.228.228 0 0 1-.112.043 2.733 2.733 0 0 1-2.366-.736c-.23-.225-.43-.545-.345-.859.113-.417.518-.737.916-.478"/>
        <path fill="#EAC09D" d="M7.404 3.18c.053.004.11.01.153.041.046.034.07.09.088.144.258.75-.038 1.569-.331 2.305-.113.283-.234.577-.46.776-.124.11-.276.185-.39.306-.093.098-.156.222-.24.329-.201.255-.511.4-.826.458-.315.057-.638.035-.957.008-.127-.012-.27-.032-.345-.138a.442.442 0 0 1-.061-.221 3.52 3.52 0 0 1 .027-.824c.035-.233.094-.464.099-.7a2.273 2.273 0 0 0-.126-.732c-.083-.261-.192-.531-.14-.8.051-.27.357-.503.586-.36-.05-.031.284-.538.355-.586.167-.113.412-.08.602-.081.656-.006 1.312.018 1.966.074"/>
        <path fill="#4F353B" d="M3.49 14.86l-.077-2.1c-.036-.977-.071-1.957-.23-2.922-.047-.295-.113-.602-.303-.829-.19-.227-.541-.34-.781-.17-.06.043-.112.107-.117.181-.005.074.038.142.076.206.567.929.683 2.066.75 3.16.098 1.561.128 3.127.09 4.691-.005.224-.011.451.037.67.049.218.252.653.431.279.132-.275.11-.744.13-1.046.044-.706.019-1.414-.007-2.12"/>
    </g>
</svg>
