<svg xmlns="http://www.w3.org/2000/svg" xmlns:xlink="http://www.w3.org/1999/xlink" width="28" height="69" viewBox="0 0 28 69">
    <defs>
        <path id="a" d="M0 .381h5.681v9.605H0z"/>
        <path id="c" d="M.265.372h8.656v27.06H.265z"/>
        <path id="e" d="M4.984.657c-.298.213-.594.479-.96.502-.38.023-.716-.222-1.065-.377-.383-.17-.65-.112-.981.084-.157.093-.118.31-.322.382-.1.037-.228.001-.357-.034-.11-.03-.22-.06-.315-.047C-.028 1.314.299 2.44.382 3.151c.942 8.092.651 16.398 2.969 24.281.52-3.052.685-6.173 1.507-9.159.37-1.343.872-2.652 1.133-4.02.205-1.08.3-2.22.27-3.319-.021-.875.137-1.714.175-2.595.04-.955.058-1.912.053-2.868-.002-.388-.085-.812-.071-1.189.004-.115.242-.906.221-.928.218.235.447.478.751.578.303.1.699-.002.814-.3.047-.12.042-.253.046-.383.02-.622.261-1.236.671-1.705a2.755 2.755 0 0 1-2.57-.787C6.245.643 6.144.515 6.005.441a.609.609 0 0 0-.29-.07c-.251 0-.516.133-.73.286z"/>
        <path id="g" d="M4.984.657c-.298.213-.594.479-.96.502-.38.023-.716-.222-1.065-.377-.383-.17-.65-.112-.981.084-.157.093-.118.31-.322.382-.1.037-.228.001-.357-.034-.11-.03-.22-.06-.315-.047C-.028 1.314.299 2.44.382 3.151c.942 8.092.651 16.398 2.969 24.281.52-3.052.685-6.173 1.507-9.159.37-1.343.872-2.652 1.133-4.02.205-1.08.3-2.22.27-3.319-.021-.875.137-1.714.175-2.595.04-.955.058-1.912.053-2.868-.002-.388-.085-.812-.071-1.189.004-.115.242-.906.221-.928.218.235.447.478.751.578.303.1.699-.002.814-.3.047-.12.042-.253.046-.383.02-.622.261-1.236.671-1.705a2.755 2.755 0 0 1-2.57-.787C6.245.643 6.144.515 6.005.441a.609.609 0 0 0-.29-.07c-.251 0-.516.133-.73.286z"/>
        <path id="i" d="M4.984.657c-.298.213-.594.479-.96.502-.38.023-.716-.222-1.065-.377-.383-.17-.65-.112-.981.084-.157.093-.118.31-.322.382-.1.037-.228.001-.357-.034-.11-.03-.22-.06-.315-.047C-.028 1.314.299 2.44.382 3.151c.942 8.092.651 16.398 2.969 24.281.52-3.052.685-6.173 1.507-9.159.37-1.343.872-2.652 1.133-4.02.205-1.08.3-2.22.27-3.319-.021-.875.137-1.714.175-2.595.04-.955.058-1.912.053-2.868-.002-.388-.085-.812-.071-1.189.004-.115.242-.906.221-.928.218.235.447.478.751.578.303.1.699-.002.814-.3.047-.12.042-.253.046-.383.02-.622.261-1.236.671-1.705a2.755 2.755 0 0 1-2.57-.787C6.245.643 6.144.515 6.005.441a.609.609 0 0 0-.29-.07c-.251 0-.516.133-.73.286"/>
    </defs>
    <g fill="none" fill-rule="evenodd">
        <g transform="translate(0 30.74)">
            <mask id="b" fill="#fff">
                <use xlink:href="#a"/>
            </mask>
            <path fill="#BC883B" d="M3.412 1.434C3.934.95 4.516.446 5.225.384c.08-.006.165-.006.23.04.076.054.102.152.12.242.1.506.103 1.024.105 1.54.004.666.007 1.339-.097 1.998-.167 1.064-.606 2.062-1.042 3.047-.315.712-.645 1.446-1.22 1.971a2.995 2.995 0 0 1-1.803.758c-.44.03-.93-.059-1.204-.404-.172-.215-.233-.498-.267-.772-.195-1.535.248-3.092.778-4.52.435-1.17 1.692-2.02 2.587-2.85" mask="url(#b)"/>
        </g>
        <path fill="#B0766C" d="M.985 31.918c-.246 1.4-.32 2.899.272 4.192.384-.398.402-1.011.411-1.565.033-1.954.242-3.904.626-5.82.05-.25.162-.99-.279-1.006-.39-.014-.376.647-.412.899-.16 1.11-.425 2.196-.618 3.3"/>
        <path fill="#E2C5BA" d="M12.715 65.139c-.018.633-.03 1.296.25 1.864.28.569.954.998 1.55.782.743-.269.876-1.243.893-2.033.082-3.817.366-7.626.65-11.434.02-.257-2.52-.4-2.844-.058-.534.562-.25 2.29-.27 2.988l-.229 7.89M9.604 63.672c.074.322.16.659.39.896.228.239.647.326.885.098a30.8 30.8 0 0 1 1.292-11.519c-.008.025-2.87-.248-3.281.115-.573.504-.315 1.858-.297 2.51.076 2.658.415 5.309 1.011 7.9"/>
        <path fill="#F6CAE1" d="M6.122 39.97l11.016-.33c.296-.009.617-.027.841-.22.171-.147.253-.37.324-.585 1.473-4.446 1.145-9.253 1.434-13.928.119-1.916.344-3.826.674-5.716.053-.308.109-.63.008-.925-.089-.259-.287-.462-.485-.65-1.481-1.405-3.37-2.467-5.407-2.608-2.195-.152-4.335.77-6.172 1.979-.665.437-1.323.935-1.716 1.627-1.28 2.252-1.184 21.375-.517 21.355"/>
        <path fill="#E8BACF" d="M4.246 18.552a24.3 24.3 0 0 0-2.535 8.317c-.129 1.105-.086 2.426.83 3.058.808.558 1.972.272 2.7-.387.728-.658 1.122-1.599 1.494-2.507l2.434-5.948c.552-1.35 1.978-3.71 1.35-5.21-1.533-3.663-5.487 1.154-6.273 2.677M24.36 23.365c.493 3.658.962 7.354.637 11.03-.101 1.15-.503 2.542-1.633 2.771-.653.132-1.33-.218-1.76-.724-.432-.507-.663-1.151-.866-1.785a36.002 36.002 0 0 1-1.524-14.836c.14-1.307.655-4.597 2.771-3.226 1.845 1.194 2.114 4.846 2.374 6.77"/>
        <path fill="#413C5C" d="M6.51 43.911c.409 1.016 1.09 1.903 1.504 2.917.856 2.096.482 4.467.096 6.697 2.834-.09 5.337 1.723 8.054 2.536.847-2.128 1.068-4.445 1.28-6.726l1.108-11.88a33.473 33.473 0 0 0-7.484.137c-.945.124-1.916.277-2.871.198-.65-.053-1.793-.68-2.179-.252-.32.355-.056 2.602-.045 3.126.022 1.105.122 2.212.538 3.247M15.261 66.455c.065.007.134.016.18.061.059.055.062.146.06.225a5.112 5.112 0 0 1-.35 1.73.67.67 0 0 1-.15.254c-.12.112-.3.126-.464.13-.241.006-.483.005-.725-.005-.166-.007-.35-.027-.46-.151-.078-.09-.1-.214-.12-.332-.128-.692-.367-1.332-.65-1.973.756-.25 1.885-.024 2.68.061M10.864 66.22c-.04.327-.16.714-.479.792-.254.062-.504-.112-.686-.299-.963-.988-1.094-2.504-1.065-3.883.003-.135.015-.287.121-.37.13-.102.334-.031.432.102.098.132.12.304.143.468.05.363.13.74.364 1.023.314.38.875.167 1.132.473.256.306.082 1.327.038 1.694"/>
        <path fill="#131313" d="M13.625.848c-.683.361-1.243.92-1.719 1.53a6.169 6.169 0 0 0-.844 1.388c-.254.604-.375 1.255-.456 1.906-.2 1.597-.173 3.213-.29 4.817-.12 1.605-.395 3.232-1.15 4.653-.163.307-.347.602-.523.902-.046.079-.09.185-.03.255.053.064.156.048.237.022a2.39 2.39 0 0 0 1.056-.697l.028 2.004c.34-.167.637-.421.856-.732l.508 1.251.86-1.33c.06-.093.129-.192.233-.226.202-.066.386.144.466.34.08.197.145.432.34.518.33-.482.686-.946 1.066-1.39l.69 1.522.947-1.03c-.002.695.217 1.39.618 1.957l.413-.948c.044-.102.098-.213.202-.252.18-.066.344.127.44.294l.54.937.415-.427c.05-.05.108-.105.18-.105.163 0 .178.235.245.383.118.259.466.283.75.306.283.023.638.172.614.456.375-.203.513-.688.459-1.11-.054-.422-.258-.808-.41-1.206-.536-1.389-.46-2.925-.457-4.414.004-1.738-.102-3.475-.234-5.209-.044-.566-.09-1.139-.265-1.68-.172-.533-.462-1.02-.762-1.494-.65-1.033-1.366-2-2.274-2.822-.886-.803-1.592-.98-2.75-.369"/>
        <g transform="translate(18.828 36.048)">
            <mask id="d" fill="#fff">
                <use xlink:href="#c"/>
            </mask>
            <path fill="#674D91" d="M2.96.782c.348.154.684.4 1.065.376.365-.022.661-.287.96-.501C5.281.444 5.68.27 6.003.44c.139.074.24.201.348.316a2.757 2.757 0 0 0 2.57.787 2.745 2.745 0 0 0-.672 1.705c-.004.13 0 .262-.046.383-.116.297-.51.4-.814.3-.304-.1-.534-.343-.75-.578.02.022-.218.813-.222.928-.014.376.07.801.071 1.189.005.956-.012 1.913-.053 2.868-.038.881-.197 1.72-.174 2.595a15.764 15.764 0 0 1-.271 3.318c-.26 1.368-.762 2.678-1.133 4.021-.822 2.986-.987 6.107-1.507 9.159C1.033 19.549 1.324 11.243.382 3.15.3 2.439-.028 1.314.984 1.167c.207-.03.487.148.672.081.204-.073.165-.29.322-.382.33-.196.598-.253.981-.084" mask="url(#d)"/>
        </g>
        <g>
            <g transform="translate(18.828 36.048)">
                <mask id="f" fill="#fff">
                    <use xlink:href="#e"/>
                </mask>
                <path fill="#171433" d="M3.148 26.711l-.478-.07 1.266-8.524c.297-2 .604-4.066.755-6.111.074-.997.115-2.024.154-3.017.13-3.268.263-6.648 1.592-9.682L6.88-.5C5.587 2.452 5.455 5.785 5.327 9.008c-.04.997-.08 2.028-.155 3.034-.153 2.062-.46 4.138-.758 6.145l-1.266 8.524z" mask="url(#f)"/>
            </g>
            <g transform="translate(18.828 36.048)">
                <mask id="h" fill="#fff">
                    <use xlink:href="#g"/>
                </mask>
                <path fill="#171433" d="M2.051 24.942c-.052-.867.193-1.698.43-2.501.169-.575.344-1.17.401-1.759.047-.482.019-.962-.012-1.47-.026-.452-.054-.919-.023-1.384.025-.376.088-.748.149-1.108l.074-.452c.145-.96.179-1.953.212-2.914l.46-13.53.481.016-.46 13.53c-.033.975-.067 1.982-.215 2.97-.024.154-.05.308-.076.461-.06.348-.12.707-.144 1.059-.029.435-.002.886.024 1.323.03.504.061 1.026.01 1.546-.061.634-.243 1.251-.418 1.848-.236.8-.458 1.554-.411 2.335l-.482.03z" mask="url(#h)"/>
            </g>
            <g transform="translate(18.828 36.048)">
                <mask id="j" fill="#fff">
                    <use xlink:href="#i"/>
                </mask>
                <path fill="#171433" d="M1.91 22.683l-.434-.21c.386-.8.402-1.708.384-2.728-.044-2.45-.183-4.94-.318-7.35-.23-4.099-.467-8.337-.24-12.51l.481.027c-.224 4.145.012 8.37.24 12.455.136 2.414.276 4.911.32 7.37.018 1.042 0 2.052-.433 2.946" mask="url(#j)"/>
            </g>
        </g>
        <path fill="#171433" d="M21.591 64.281h1.002v-3.034h-1.002z"/>
    </g>
</svg>
