<svg xmlns="http://www.w3.org/2000/svg" width="40" height="88" viewBox="0 0 40 88">
    <g fill="none" fill-rule="evenodd">
        <path fill="#A0785D" d="M15.308 65.511c1.01 3.516 2.024 7.041 3.43 10.419.193.467.495 1.004 1 1.025.48.02.844-.485.867-.963.023-.48-.191-.933-.376-1.376-1.99-4.783-.792-10.267-1.665-15.373-.069-.403-.155-.815-.38-1.157-.226-.346-.58-.593-.956-.764-.791-.36-1.768-.39-2.5.079-2.165 1.389.06 6.3.58 8.11"/>
        <path fill="#88604C" d="M24.268 4.78c-7.485-1.021-15.587.152-21.93 3.174-1.03.49-1.912 1.357-2.228 2.41-.465 1.552.617 3.143 1.857 4.235 3.961 3.489 9.67 4.358 15.036 4.743 4.24.304 8.555.398 12.69-.553 3.053-.701 12.653-4.273 9.559-8.533-2.716-3.739-10.703-4.892-14.984-5.476"/>
        <path fill="#19110C" d="M36.005 8.515c.544.795 1.122 1.676 1.918 2.16.391.237.715.587.83 1.031.081.315.225.624.348.926.216.528.368 1.167.051 1.643-.162.243-.422.4-.681.535a8.446 8.446 0 0 1-2.583.858c-.416.066-.862.098-1.24-.089-.305-.15-.53-.423-.743-.688-.992-1.23-2.018-2.534-2.279-4.092-.191-1.138-.02-3.581 1.195-4.194 1.254-.632 2.585 1.035 3.184 1.91"/>
        <path fill="#FDFDFB" d="M8.787 11.377c.171.74.722 1.325 1.251 1.87l2.455 2.532c.58.598 1.18 1.21 1.945 1.538.805.344 1.71.336 2.586.324.958-.014 2.103-.137 2.543-.988.247-.479.183-1.058.055-1.582-.446-1.833-1.563-3.425-2.741-4.898-.74-.925-1.54-1.843-2.579-2.412-1.064-.582-2.74-.8-3.784-.042-1.014.736-2.025 2.39-1.731 3.658"/>
        <path fill="#FDF1E3" d="M14.996 1.73c-1.15.284-2.41.01-3.51.448-1.12.447-1.856 1.573-2.148 2.743-.291 1.17-.207 2.397-.12 3.6.006.083.014.172.067.236.068.082.185.098.292.106 2.055.15 4.173-.476 6.156.088.728.208 1.416.573 2.167.671.751.099 1.634-.167 1.928-.865.118-.28.126-.593.133-.896l.147-6.86c.005-.226.007-.467-.11-.662-.72-1.206-4.131 1.177-5.002 1.392"/>
        <path fill="#FDFDFB" d="M21.52.22c1.697-.196 2.985 1.474 4.588 2.067 1.25.463 2.669.25 3.928.688 1.405.489 2.44 1.754 2.957 3.15.518 1.395.578 2.916.525 4.403-.026.727-.082 1.469-.376 2.134-.554 1.256-1.887 2.03-3.237 2.28-2.848.526-5.653-.898-8.2-2.277-.33-.18-.668-.364-.922-.641-.249-.274-.4-.619-.57-.947a8.013 8.013 0 0 0-1.004-1.49c-.204-.238-.426-.47-.547-.76-.111-.262-.132-.55-.15-.833-.111-1.67-.198-3.382.167-5.028.394-1.769.966-2.53 2.841-2.746"/>
        <path fill="#E1846A" d="M32.563 13.243c-1.712-.079-3.458.27-5.13-.112-2.496-.57-4.347-2.64-6.64-3.777-1.922-.952-4.098-1.223-6.226-1.48-1.716-.206-3.68-.338-4.94.846.91 1.476 3.312.522 4.842 1.335 1.19.632 1.54 2.143 1.766 3.471l.532 3.145c.105.62.216 1.258.55 1.791.782 1.247 2.478 1.51 3.95 1.468 2.089-.062 4.148-.482 6.195-.901l2.94-.602c1.503-.308 5.515-.551 5.933-2.436.438-1.974-2.373-2.684-3.772-2.748"/>
        <path fill="#FDFDFB" d="M4.109 5.323c-1.6 1.349-2.764 3.55-2.872 5.946-.012.272-.006.565.122.79.135.24.376.348.604.427 1.319.455 2.75.416 3.985 1.151 1.005.599 1.777 1.65 2.651 2.507.875.857 1.992 1.555 3.066 1.238.876-.258 1.546-1.163 1.888-2.185.342-1.02.403-2.153.42-3.263.017-1.022-.002-2.06-.24-3.044-.466-1.923-1.894-5.811-3.837-5.873-1.802-.057-4.355 1.098-5.787 2.306"/>
        <path fill="#31201D" d="M15.02 82.987c.106-.009.219-.016.314.033.104.054.166.164.214.27.263.59.263 1.26.259 1.906-.004.512-.025 1.074-.368 1.454-.194.214-.464.34-.727.459-.506.23-1.023.463-1.576.518-.552.056-1.158-.096-1.512-.525-.287-.347-.37-.82-.384-1.271-.023-.784.157-2.54.924-3.024.694-.438 1.981.253 2.855.18"/>
        <path fill="#88604C" d="M20.729 23.634c.4.97 1.005 1.854 1.764 2.577-.678 1.803-2.492 3.12-4.417 3.206-.677.03-1.433-.123-1.833-.67-.188-.257-.274-.571-.355-.878-.184-.703-.516-1.719-.18-2.42.297-.622.701-.949.835-1.688.328-.016 4.2-.092 4.186-.127"/>
        <path fill="#B78865" d="M14.427 75.117c.303-1.591.397-3.214.537-4.829.221-2.55.558-5.091 1.011-7.611.072-.403.166-.838.479-1.102.343-.288.837-.28 1.284-.256 1.224.064 2.697.294 3.168 1.424.264.637.105 1.36-.061 2.03a213.923 213.923 0 0 1-5.293 17.95c-.798 2.324-3.084 3.65-2.894.19.146-2.663 1.273-5.194 1.769-7.796"/>
        <path fill="#21160A" d="M14.933 22.631a4.338 4.338 0 0 0 2.195 2.243c.977.438 2.12.492 3.135.148.592-.2 1.146-.54 1.538-1.026.391-.486.607-1.128.515-1.747-.033-.221-3.841-.272-4.225-.283a51.472 51.472 0 0 0-2.118-.011c-.725.01-1.414-.21-1.04.676"/>
        <path fill="#057158" d="M15.892 62.254a38.19 38.19 0 0 1-5.466-15.917c-.038-.35-.057-.745.175-1.008.26-.293.71-.292 1.1-.26 4.633.384 9.246 1.8 13.854 1.176a73.58 73.58 0 0 1-2.221 11.465c-.345 1.24-.732 2.493-1.46 3.555-1.344 1.964-4.404 3.54-5.982.989"/>
        <path fill="#E1846A" d="M9.608 42.113c-.143 1.186-.169 2.476.488 3.474.71 1.08 2.038 1.55 3.285 1.888a39.83 39.83 0 0 0 6.382 1.187c1.058.109 2.14.173 3.173-.073 1.035-.245 2.03-.844 2.53-1.781.603-1.127.42-2.497-.857-2.629-1.589-.163-3.346.306-4.991.176-3.422-.27-6.75-1.217-10.01-2.242"/>
        <path fill="#B78865" d="M11.808 21.061l-2.986-.179a14.506 14.506 0 0 0 1.035 8.037c.398.909.897 1.796 1.037 2.779.093.646.025 1.31.141 1.951.116.643.482 1.306 1.107 1.497.501.152 1.058-.042 1.462-.377.403-.335.681-.794.943-1.249.53-.923 1.034-1.898 1.144-2.957.4-3.84-3.366-5.943-3.883-9.502"/>
        <path fill="#FFF" d="M11.063 34.135a2.223 2.223 0 0 0 2.905-1.448c.67-2.264.593-4.805.873-7.195.04-.349.265-.81.593-.687.112.043.187.15.246.256.585 1.053.303 2.578 1.251 3.32.857.67 2.132.2 2.977-.483.845-.685 1.584-1.592 2.637-1.864a.78.78 0 0 1 .38-.023c.54.136.391.94.143 1.437a17.052 17.052 0 0 0-1.772 7.035c-.032 1.009.265 2.304 1.264 2.444.735.104 2.037.357 2.139.063.096-.279.226.54.244.834l.328 5.488c.025.415.035.875-.232 1.194-.271.324-.737.39-1.158.433-4.186.432-8.635.82-12.402-1.058-.568-.283-1.604-.807-1.817-1.468-.219-.683.307-1.7.473-2.39.462-1.934.773-3.905.928-5.888"/>
        <path fill="#B78865" d="M26.6 24.483c.968-1.005 1.733-2.201 2.789-3.113 1.526-1.32 3.55-1.94 5.556-2.16a.944.944 0 0 1 .356.007c.556.157.388.993.076 1.48-1.556 2.425-3.749 4.362-5.6 6.57a28.557 28.557 0 0 0-4.682 7.88c-.4 1.017-.86 2.18-1.888 2.546-.732.26-1.578.01-2.167-.497-.59-.506-.952-1.23-1.181-1.973-.766-2.486-.022-5.179 1.628-7.13 1.422-1.68 3.605-2.043 5.113-3.61"/>
        <path fill="#BF9D95" d="M16.656 15.967c4.062.819 8.27 1.235 12.346.492 4.077-.743 8.034-2.742 10.533-6.048.647 1.322.211 2.894-.234 4.298-.715 2.256-1.523 4.649-3.376 6.122-1.207.959-2.732 1.415-4.238 1.741-5.773 1.25-11.76.867-17.653.478-2.118-.14-4.268-.286-6.267-1.002-2.487-.89-4.594-2.714-5.948-4.97-.794-1.323-2.75-8.094-1.104-6.784 2.734 2.173 5.887 3.493 7.433 3.936 4.113 1.174 5.464 1.123 8.508 1.737"/>
        <path fill="#31201D" d="M21.427 78.263c.07.43-.022.867-.113 1.292l-.33 1.532c-.032.15-.066.304-.155.43-.193.275-.574.324-.909.35-.32.025-.701.023-.891-.237-.116-.158-.123-.37-.125-.566l-.025-2.46c-.005-.653.03-2.907 1.158-2.84.67.039 1.303 1.974 1.39 2.5"/>
    </g>
</svg>
