<svg xmlns="http://www.w3.org/2000/svg" xmlns:xlink="http://www.w3.org/1999/xlink" width="27" height="48" viewBox="0 0 27 48">
    <defs>
        <path id="a" d="M8.505.844c-.982.779-1.989 1.53-3.062 2.17-1.214.725-2.518 1.307-3.901 1.584.01 2.811-.03 5.8-1.503 8.166 1.983.841 3.63 2.47 4.57 4.452.165.349.3 1.138.623 1.363.377.263 1.337-.01 1.78-.022a35.941 35.941 0 0 1 5.902.315c.865.118 2.171.654 3.02.389.768-.24 1.294-1.134 1.915-1.608a14.153 14.153 0 0 1 2.237-1.397c.379-.19 4.864-1.805 4.916-1.412-.317-2.41.327-4.94 1.75-6.879-2.976-1.29-5.4-3.872-6.553-6.98-.023-.064-1.36-.038-2.506-.013-.759.017-1.434.034-1.588.025a34.868 34.868 0 0 1-4.19-.489C11.256.391 10.53.105 9.868.078L9.825.075c-.543 0-.875.417-1.32.768"/>
    </defs>
    <g fill="none" fill-rule="evenodd">
        <path fill="#665A52" d="M6.304 43.054l1.397.271a44.776 44.776 0 0 1 2.602-7.77c.322-.73.556-1.567.949-2.248L13 30.278l-1.088.317c-.428.124-.863.252-1.237.5-.227.15-.426.342-.649.499-.722.508-1.755.442-1.972 1.461-.449 2.102-.631 4.29-1.027 6.408-.224 1.2-.465 2.398-.724 3.591"/>
        <path fill="#665A52" d="M18.09 42.3c.086.143.176.289.307.388.25.192.607.175.89.041.337-.157.89-.562.904-.966.012-.292-.376-.955-.466-1.258a63.181 63.181 0 0 0-3.864-9.899c-.49-.998-.84-.612-1.603-.294-.472.197-1.402.332-1.705.805-.404.632.073 1.457.365 2.028 1.017 1.995 2.118 3.95 3.235 5.887A162.21 162.21 0 0 0 18.09 42.3"/>
        <path fill="#FF9C93" d="M7.16 31.93c3.058.262 6.116-.352 9.127-.963.384-2.892-1.286-5.748-.968-8.649.295.186.702.013.9-.279.198-.29.242-.661.28-1.015l.447-4.175a91.018 91.018 0 0 0-4.632.367c-1.408.148-3.29.083-4.613.604-.943.37-.46 2.896-.458 3.865.003 1.62 0 3.24-.013 4.86-.003.452-.108 5.381-.07 5.384"/>
        <path fill="#7478AF" d="M11.49 28.415a23.535 23.535 0 0 1-.174 3.964c-.01.073-.022.152-.072.204-.063.064-.162.067-.25.065l-5.509-.118c.007 0-.181-3.974-.035-4.315.224-.525.93-.274 1.343-.215a43.262 43.262 0 0 0 4.697.415"/>
        <path fill="#E8D9BF" d="M8.214 31.997c.002.24.004.485.091.713.087.227.274.439.534.508a.302.302 0 0 0 .178.002c.076-.028.117-.098.148-.165.234-.49.287-1.035.242-1.566a7.642 7.642 0 0 0-.238-1.244c-.055-.217-.028-.406-.286-.38-.113.01-.37.196-.457.27-.463.395-.212 1.346-.212 1.862"/>
        <path fill="#665A52" d="M7.737 29.236c-.033.402-.038.873.266 1.126.33.275.857.104 1.119-.24s.33-.8.388-1.232l.44-3.275c.266-1.98.533-3.964.66-5.958.026-.39.038-.811-.168-1.14-.369-.586-1.585-.759-1.98-.119-.43.696-.105 2.458-.14 3.278-.109 2.526-.375 5.042-.585 7.56"/>
        <path fill="#9E6D57" d="M8.476 42.97c.047.01.097.024.127.063.03.04.03.096.027.148-.062.972-.51 1.888-.541 2.861a.366.366 0 0 0 .03.19c.04.075.126.111.207.138.324.11.677.165.948.378.271.214.408.667.166.915-.142.145-.36.169-.56.18a15.474 15.474 0 0 1-3.603-.207c-.036-1.414.04-3.144.31-4.528.239-1.22 2.096-.324 2.889-.138M20.782 41.817a8.76 8.76 0 0 0 .598 2.401c.052.127.113.26.229.329.108.063.24.056.363.047l2.45-.174c.123.432-.236.838-.562 1.139-.93.858-1.9 1.739-3.09 2.13-.09.03-.188.056-.276.021-.075-.03-.128-.098-.177-.164-.835-1.128-1.566-2.39-2.061-3.717-.27-.724-.187-.89.516-1.114.705-.224 1.377-.5 2.01-.898"/>
        <path fill="#D1D2D4" d="M1.542 4.775c.009 2.811-.03 5.8-1.503 8.165 1.984.842 3.63 2.47 4.57 4.453.165.349.3 1.138.623 1.363.377.263 1.337-.01 1.78-.022a36.219 36.219 0 0 1 5.901.315c.866.117 2.172.654 3.021.389.768-.24 1.294-1.134 1.915-1.609a14.154 14.154 0 0 1 2.237-1.396c.379-.19 4.864-1.805 4.916-1.412-.317-2.41.327-4.94 1.75-6.88-2.976-1.289-5.4-3.872-6.553-6.98-.038-.104-3.707.034-4.094.013a34.93 34.93 0 0 1-4.191-.489C11.257.568 10.53.282 9.869.255 9.3.23 8.962.66 8.505 1.02c-.982.778-1.988 1.53-3.062 2.17-1.215.725-2.518 1.307-3.9 1.584"/>
        <g transform="translate(0 .177)">
            <mask id="b" fill="#fff">
                <use xlink:href="#a"/>
            </mask>
            <path fill="#A08E8D" d="M17.405 10.684c-.537-.122-1.093-.246-1.61-.447-.678-.262-1.3-.655-1.896-1.082.209.018.42.043.63.068.365.045.743.09 1.084.091.429 0 .858.013 1.287.025.437.012.882.024 1.329.024.396 0 .793-.01 1.187-.037 2.501-.178 4.876-1.073 7.172-1.939.867-.327 1.764-.665 2.608-1.102l-.134-.273c-.828.43-1.716.764-2.576 1.088-2.277.859-4.631 1.746-7.09 1.92-.826.059-1.67.035-2.488.013-.432-.012-.863-.024-1.294-.025-.325 0-.677-.043-1.05-.089-.35-.042-.704-.085-1.047-.09l-.06-.163c.42-.745.978-1.415 1.609-2.133a142.063 142.063 0 0 1 6.856-7.278l-.206-.221a142.668 142.668 0 0 0-6.87 7.293c-.583.664-1.108 1.286-1.525 1.97-1.372-3.733-2.587-6.73-4.325-10.002l-.26.146c1.7 3.204 2.9 6.143 4.24 9.777C11.49 7.342 9.82 6.892 8.2 6.455L1.06 4.528l-.076.296 7.14 1.927c1.46.393 2.958.802 4.312 1.519-1.514-.04-2.763-.005-4.166.394-1.454.411-2.786 1.227-4.074 2.016C2.528 11.703.951 12.67-.89 12.856l.029.305c1.907-.194 3.586-1.223 5.21-2.218 1.27-.778 2.585-1.584 4-1.985 1.418-.402 2.684-.423 4.25-.378a22.597 22.597 0 0 0-3.27 3.822 45.947 45.947 0 0 0-1.283 2.044c-.44.728-.895 1.482-1.385 2.19-1.118 1.617-2.26 2.72-3.49 3.375l.136.272c1.273-.678 2.45-1.812 3.596-3.469.495-.716.952-1.474 1.395-2.206.407-.675.828-1.371 1.275-2.031.95-1.4 2.06-2.682 3.294-3.824 0 .129.007.257.011.385l-.014.03.015-.002c.07 2.183.586 4.279 1.583 6.39.142.3.293.597.445.895.51 1.003 1.038 2.04 1.163 3.157l.295-.035c-.132-1.174-.673-2.236-1.195-3.264-.15-.295-.3-.59-.441-.887-.981-2.076-1.49-4.135-1.557-6.28.06-.005.123-.006.185-.007.724.539 1.48 1.058 2.333 1.389.538.208 1.104.335 1.652.458a19.701 19.701 0 0 1 9.314 4.86l.199-.226a19.995 19.995 0 0 0-8.968-4.822c-.16-.038-.321-.074-.482-.11" mask="url(#b)"/>
        </g>
    </g>
</svg>
