<svg xmlns="http://www.w3.org/2000/svg" xmlns:xlink="http://www.w3.org/1999/xlink" width="47" height="94" viewBox="0 0 47 94">
    <defs>
        <path id="a" d="M.144.225h6.009V8.16H.144z"/>
    </defs>
    <g fill="none" fill-rule="evenodd">
        <path fill="#DDA37C" d="M7.22 51.138c-.51-.163-1.063.135-1.42.527-.357.393-.592.88-.95 1.271-.06.066-.126.135-.14.222-.013.083.023.164.052.242.22.594.02 1.248.234 1.858.104.299.28.568.475.818.573.735 1.344 1.341 2.245 1.616"/>
        <path fill="#823725" d="M16.335 93.396c.351.269.866.256 1.265.062.4-.194.699-.541.943-.906.245-.365.447-.758.716-1.106.216-.28.475-.53.652-.835.309-.53.345-1.172.6-1.728.106-.232.253-.491.15-.724-.076-.17-.263-.263-.446-.313-.165-.045-.352-.062-.503.02a.799.799 0 0 0-.232.226c-.69.89-1.233 1.874-1.844 2.815-.306.471-.629.933-.995 1.362-.307.36-.862.701-.306 1.127"/>
        <path fill="#D1A384" d="M17.152 87.275c.358.102.532.525.483.886-.05.362-.261.68-.45.994-.448.74-.797 1.534-1.146 2.324-.144.327-.288.704-.138 1.028.17.363.661.49 1.05.374.389-.117.69-.416.951-.722.803-.94 1.379-2.044 1.949-3.137.196-.377.396-.818.224-1.207-.103-.235-.324-.397-.535-.547-.426-.305-.87-.617-1.387-.719"/>
        <path fill="#823725" d="M16.576 93.18l-.274-.32c.042-.035.054-.156.059-.208.068-.695-.017-1.178-.27-1.518l.345-.246c.417.562.399 1.3.35 1.805-.013.12-.035.343-.21.487"/>
        <path fill="#823725" d="M16.772 92.605l-.305-.293c.09-.09.169-.194.252-.305.082-.11.167-.224.269-.33.281-.29.635-.42.944-.348.032.007.065.018.097.028.037.011.082.026.1.023l.031-.005c.07-.013.231-.045.346.084l-.32.275a.13.13 0 0 0 .093.045l-.036.006a.646.646 0 0 1-.345-.03c-.022-.007-.044-.015-.066-.02-.188-.044-.4.09-.535.23a3.068 3.068 0 0 0-.234.289c-.089.118-.18.24-.29.351M1.252 92.564c-.002.437.323.83.724 1.02.4.19.864.21 1.308.177.444-.034.884-.117 1.33-.122.357-.004.717.044 1.071-.005.616-.084 1.156-.45 1.76-.592.253-.06.551-.104.676-.327.09-.162.051-.365-.02-.536-.066-.157-.166-.312-.325-.379a.816.816 0 0 0-.324-.042c-1.139.01-2.265.19-3.397.292-.568.051-1.138.084-1.708.062-.478-.017-1.092-.24-1.095.452"/>
        <path fill="#D1A384" d="M6.686 89.452c.137.34-.097.734-.419.917-.322.183-.707.213-1.077.259-.87.106-1.723.32-2.574.534-.352.088-.744.206-.913.522-.189.353.01.812.341 1.043.332.23.758.28 1.164.296 1.25.046 2.492-.181 3.721-.408.424-.079.903-.194 1.11-.564.127-.225.123-.495.115-.751-.016-.517-.036-1.052-.27-1.515"/>
        <path fill="#9CBD9C" d="M.653 88.437c-.093.417-.185.868-.013 1.26.266.602 1.018.803 1.673.931 2.928.574 5.953 1.149 8.876.552 2.132-.436 4.25-1.489 6.38-1.043.384.08.773.21 1.16.147.334-.055.626-.247.906-.435l2.976-1.995c.21-.14.438-.31.476-.557.022-.147-.03-.294-.083-.433a19.216 19.216 0 0 0-3.018-5.261c-1.725-2.137-4.021-4.143-4.289-6.857-.1-1.012.079-2.13-.515-2.963-.345-.486-.898-.782-1.43-1.062l-2.941-1.543c-.344-.18-.696-.363-1.08-.42-.375-.056-.757.011-1.124.102a8.885 8.885 0 0 0-4.15 2.36c-1.452 1.463-1.465 2.727-1.691 4.684A122.494 122.494 0 0 1 .653 88.437"/>
        <path fill="#1F9995" d="M.043 70.387c.11.669.45 1.278.782 1.872.06.107.123.218.22.297.243.197.6.131.91.18.73.113 1.16.84 1.504 1.483.632 1.183 1.316 2.338 2 3.493l3.15 5.32 2.375 4.013c.276.467.772 1.01 1.269.775.308-.145.407-.515.549-.82.243-.523.683-.928 1.028-1.392.87-1.167 1.116-2.696.964-4.134-.152-1.439-.668-2.814-1.205-4.16-.078-.196-.157-.393-.285-.561-.132-.173-.31-.308-.48-.445-1.487-1.187-2.663-2.733-4.244-3.796-.535-.36-1.11-.66-1.636-1.033-1.005-.714-1.812-1.687-2.882-2.305C2.58 68.32-.391 67.77.042 70.387"/>
        <path fill="#067070" d="M.366 67.155c-.053.443-.075.91.111 1.316.398.87 1.513 1.098 2.411 1.463.682.276 1.306.689 1.822 1.206.469.468.846 1.016 1.28 1.515.463.532.988 1.006 1.512 1.48l1.93 1.742c1.333 1.204 2.779 2.462 4.57 2.735.894-1.12.728-2.782.023-4.024-.706-1.243-1.85-2.175-2.92-3.136A41.205 41.205 0 0 1 5.76 65.64c-.12-.16-.244-.324-.416-.43-.187-.114-.413-.148-.632-.18-.91-.129-2.3-.595-3.218-.338-.987.276-1.026 1.636-1.127 2.464"/>
        <path fill="#492317" d="M4.624 53.373c-.441-.481-.904-1.08-.611-1.59.304-.53 1.224-.62 2-.64l1.041-.029c.385-.01.793-.017 1.14.128.38.156.613.46.79.758.623 1.053.789 2.218.691 3.338-.08.914-.068 2.643-1.702 1.615-1.335-.839-2.36-2.502-3.349-3.58"/>
        <path fill="#9CBD9C" d="M13.693 55.717c.162.385.23.8.298 1.212l.92 5.636c.13.794.26 1.6.163 2.399-.098.798-.455 1.601-1.124 2.066.421-2.41-.552-4.83-1.642-7.028-.14-.282-.284-.565-.49-.804-.659-.761-1.867-.977-2.362-1.848-.387-.68-.187-1.567.298-2.182.41-.519 1.387-1.365 2.115-1.28.752.088 1.558 1.202 1.824 1.83"/>
        <path fill="#067070" d="M7.31 54.858a42.895 42.895 0 0 1-1.693-4.776 5.49 5.49 0 0 1 4.276.26 5.314 5.314 0 0 1 2.694 3.268c.06.217.107.443.079.666-.042.333-.243.624-.444.896-.787 1.07-1.753 2.157-3.03 2.66-.94.371-.948.11-1.101-.73-.142-.782-.473-1.515-.781-2.244"/>
        <path fill="#CAD6E3" d="M8.415 57.3c-.365-1.127-1.07-2.137-1.686-3.173-.615-1.036-1.158-2.16-1.146-3.323.002-.226.038-.475.223-.618.32-.247.819-.013 1.14.255.995.834 1.62 1.99 1.972 3.176.287.968.422 1.975.497 2.967.02.263.125.653-.102.856-.234.21-.796.175-.898-.14M8.493 71.138c-1.402-1.224-2.66-2.62-4.2-3.67-1.078-.738-2.342-1.355-2.956-2.495-.205-.381-.32-.857-.112-1.237.296-.54 1.064-.614 1.514-1.04.443-.42.543-1.15 1.08-1.447.295-.162.654-.15.992-.134.601.03 1.233.067 1.742.382.334.207.586.515.832.818l1.195 1.472c1.33 1.64 2.707 3.378 3.057 5.446.15.892.112 2.187-.555 2.9-.742.794-1.952-.438-2.59-.995"/>
        <path fill="#1F9995" d="M3.809 59c.186-.249.433-.444.678-.635l.866-.678c.591-.464 1.222-.944 1.97-1.043.57-.076 1.142.078 1.685.259 1.006.335 1.997.779 2.775 1.488 1.662 1.517 2.049 3.915 2.341 6.123l.944 7.139c.062.468.12.966-.086 1.393-.091.188-.229.35-.333.532-.535.935-.19 2.342-1.085 2.958-.095-.673-.563-1.229-1.013-1.745a73.857 73.857 0 0 0-2.078-2.32c-.362-.382-.738-.764-.975-1.232-.711-1.408.022-3.155-.479-4.648-.197-.588-.574-1.1-.832-1.664-.305-.667-.446-1.447-.91-2.036-.553-.703-1.402-.817-2.245-.942-.534-.079-1.26-.068-1.576-.58-.375-.61-.038-1.847.353-2.37"/>
        <path stroke="#823725" stroke-width=".5" d="M1.619 92.415c.126.027.252-.041.362-.109.496-.307.986-.704 1.15-1.257M2.182 92.212c.276.031.557-.012.833.015.277.027.572.148.686.397.039.084.056.181.123.246.047.047.122.09.109.153"/>
        <path fill="#4F332F" d="M42.813 44.646c.16-.073.307-.175.468-.248.389-.174.833-.168 1.26-.159.628.014 1.323.055 1.767.49.348.34.457.85.494 1.33.034.438.013.906-.238 1.268-.326.468-1.03.633-1.536.36-.28-.152-.503-.418-.815-.486-.197-.043-.4 0-.598.035-.687.12-1.406.138-2.073-.062-.667-.201-1.279-.64-1.58-1.257-.34-.694-.112-1.543.732-1.503.768.036 1.274.62 2.12.232"/>
        <path fill="#21160A" d="M45.646 44.601c.092.368-.224.74-.594.85-.369.111-.767.028-1.141-.068-.273-.07-.561-.158-.744-.37a1.185 1.185 0 0 1-.219-.454c-.18-.622-.176-1.34.217-1.858 1.31-1.72 2.246.962 2.48 1.9"/>
        <path fill="#8C7A6F" d="M43.787 31.104c-.035 2.481 1.44 4.786 1.513 7.267.039 1.341-.326 2.75.206 3.986.166.385.394.884.078 1.165-.11.098-.263.134-.409.165a16.655 16.655 0 0 1-3.303.368c-.32.003-.685-.024-.88-.272-.11-.139-.142-.32-.17-.494a167.979 167.979 0 0 1-1.512-12.14c-.149-1.694-.188-3.625 1.044-4.822.786-.764 3.022-1.38 3.86-.332.844 1.054-.41 3.859-.427 5.109"/>
        <path fill="#4F332F" d="M38.308 45.239c-.245.582-.933.854-1.57.94-.636.088-1.303.058-1.894.307-.353.148-.66.39-1.018.528a1.951 1.951 0 0 1-1.697-.157c-.128-.08-.25-.18-.304-.32a.641.641 0 0 1-.026-.292c.073-.716.67-1.276 1.3-1.642.735-.428 1.465-.741 2.13-1.277.407-.33.85-.874 1.433-.875 1.064-.001 2.02 1.9 1.646 2.788"/>
        <path fill="#21160A" d="M35.025 41.725c.088.339.002.694-.04 1.04-.043.347-.027.737.217.992.3.314.817.292 1.237.166.343-.104.68-.271.892-.555.427-.577.188-1.38-.067-2.048-.073-.19-.148-.385-.29-.533-.196-.206-.489-.29-.767-.364-.169-.046-.344-.091-.518-.064-.316.048-.55.336-.63.64-.08.304-.038.625.004.936"/>
        <path fill="#A89688" d="M36.56 28.287l-.623 3.587c-.047.274-.096.55-.208.805-.12.273-.31.51-.453.772-.545.987-.4 2.183-.487 3.302-.088 1.145-.426 2.378-1.063 3.353-.349.534-.778 1.044-1.002 1.646-.154.414-.496 1.358-.065 1.686.494.375 2.246-.04 2.809-.155 1.156-.237 2.334-.68 3.485-.417.255.058.53.149.768.043.287-.127.386-.49.333-.795-.052-.304-.215-.578-.314-.871-.33-.988.21-1.561.613-2.362.475-.945.647-2.179.817-3.21.41-2.471.401-4.992.274-7.486-.041-.792-.103-1.621-.532-2.293A2.493 2.493 0 0 0 39 24.77c-2.456-.157-2.153 1.867-2.44 3.516"/>
        <path fill="#B78865" d="M40.822 31.133c.374.489.2 1.286-.345 1.582a1.632 1.632 0 0 1-.65.171 1.574 1.574 0 0 1-.61-.05c-.489-.158-.802-.695-.735-1.195.066-.5.476-.927.97-1.066.493-.14 1.047-.008 1.453.3"/>
        <path fill="#B8BC9C" d="M44.382 10.078c.624 1.83 1.121 3.737 1.048 5.665-.042 1.126-.279 2.234-.442 3.349a26.147 26.147 0 0 0-.249 5.033c.025.522.065 1.053-.055 1.563s-.431 1.006-.922 1.212c-.322.135-.685.133-1.035.122a26.706 26.706 0 0 1-3.443-.338c-1.178-.192-2.415-.504-3.235-1.355-1.199-1.245-1.116-3.179-.958-4.884l.118-1.261c.297-3.205.628-6.52 2.239-9.323.831-1.447 2.124-2.785 3.801-3.23 1.956-.52 2.628 1.968 3.133 3.447"/>
        <path fill="#575939" d="M43.204 18.017c.324-1.016.65-2.044.712-3.106.062-1.063-.169-2.18-.854-3.005-.685-.825-1.883-1.281-2.903-.92-1.017.36-1.614 1.385-2.001 2.375-.767 1.966-1.03 4.22-.186 6.156.229.525.534 1.016.763 1.541.629 1.443.656 3.072.476 4.631-.18 1.56-.556 3.094-.699 4.657-.03.338-.043.707.158.984.395.545 1.252.355 1.885.108.21.23.64-.073.67-.38.03-.307-.05-.669.175-.884.091-.087.217-.13.315-.208.188-.15.25-.401.3-.633l.776-3.62c.253-1.182.508-2.395.323-3.589-.113-.729-.388-1.43-.454-2.166-.066-.735-.078-1.527.544-1.941"/>
        <path fill="#B78865" d="M35.37 4.285c-.023.055-.043.11-.06.168-.11.396.138.768.202 1.155.036.215.031.443.083.652.099.403.392.668.697.84.473.266 1.001.37 1.528.428.752.085 1.544.079 2.26-.324.715-.403 1.329-1.292 1.325-2.245-.001-.478-.152-.918-.308-1.34-.138-.377-.285-.754-.504-1.06-.482-.673-1.24-.911-1.957-1.12-.698-.203-1.66-.446-2.233.346-.42.579-.409 1.393-.759 2.001-.094.165-.2.326-.274.5"/>
        <path fill="#492317" d="M35.85 3.696c-.226-.594-.353-1.297-.063-1.873.222-.44.658-.728 1.11-.864.452-.136.927-.138 1.393-.14 1.154-.004 2.382.015 3.329.688.888.632 1.385 1.823 1.237 2.962-.105.804-.497 1.538-.91 2.23-.17.284-.36.578-.644.728-.239.127-.514.134-.777.114-2.005-.15-3.941-1.925-4.674-3.845"/>
        <path fill="#998636" d="M39.706 7.432c-.157.31-.49.485-.78.683-1.5 1.031-1.997 2.955-2.385 4.712-.186.84-.372 1.693-.323 2.552.016.27.055.544-.007.806-.063.263-.256.52-.529.56-.24.034-.479-.11-.62-.305-.317-.435-.216-1.029-.103-1.551l.69-3.177c.116-.53.232-1.063.448-1.56.234-.537.578-1.019.835-1.544.373-.759.677-2.084 1.585-2.44.746-.293 1.584.482 1.189 1.264"/>
        <g transform="translate(36.873 .03)">
            <mask id="b" fill="#fff">
                <use xlink:href="#a"/>
            </mask>
            <path fill="#EAD063" d="M.21 1.264C.145 1.056.09.804.242.646.324.56.445.529.56.5 1.17.347 1.792.2 2.421.229c1.061.05 2.024.594 2.939 1.123.198.115.4.233.546.406.491.583.155 1.453-.198 2.125L4.46 6.263c-.393.747-.863 1.562-1.68 1.818-.46.145-.97.081-1.411-.11-1.136-.493-.263-1.685-.257-2.576C1.12 3.977.629 2.601.21 1.264" mask="url(#b)"/>
        </g>
    </g>
</svg>
