<svg xmlns="http://www.w3.org/2000/svg" xmlns:xlink="http://www.w3.org/1999/xlink" width="41" height="71" viewBox="0 0 41 71">
    <defs>
        <path id="a" d="M12.915 1.25c-1.491 1.15-3.02 2.262-4.65 3.209-1.844 1.072-3.824 1.932-5.923 2.342.013 4.159-.045 8.579-2.283 12.079 3.012 1.244 5.513 3.653 6.94 6.585.25.516.455 1.684.946 2.017.573.389 2.03-.014 2.704-.033a56.029 56.029 0 0 1 8.961.466c1.314.174 3.297.967 4.586.575 1.166-.354 1.965-1.677 2.909-2.379a21.59 21.59 0 0 1 3.395-2.066c.576-.28 7.387-2.669 7.466-2.088-.482-3.565.496-7.307 2.659-10.175-4.52-1.908-8.203-5.728-9.952-10.326-.035-.093-2.066-.055-3.806-.018-1.152.025-2.177.05-2.41.036a54.298 54.298 0 0 1-6.365-.722C17.093.578 15.99.155 14.987.114h-.068c-.824 0-1.329.615-2.004 1.135"/>
    </defs>
    <g fill="none" fill-rule="evenodd">
        <path fill="#665A52" d="M9.573 63.685l2.12.4a64.954 64.954 0 0 1 3.952-11.493c.489-1.081.845-2.319 1.441-3.326l2.656-4.48-1.652.469c-.65.184-1.31.373-1.878.74-.345.222-.647.505-.986.738-1.096.751-2.664.654-2.995 2.161-.681 3.11-.958 6.344-1.558 9.478-.34 1.776-.707 3.548-1.1 5.313"/>
        <path fill="#665A52" d="M27.469 62.569c.132.21.268.426.468.574.38.283.92.258 1.352.061.51-.233 1.349-.833 1.372-1.43.017-.431-.571-1.413-.708-1.86a92.158 92.158 0 0 0-5.867-14.642c-.744-1.477-1.275-.906-2.435-.435-.717.29-2.129.49-2.589 1.19-.614.936.111 2.155.554 3 1.545 2.95 3.216 5.843 4.913 8.708.96 1.623 1.94 3.234 2.94 4.834"/>
        <path fill="#FF9C93" d="M10.871 47.229c4.645.389 9.289-.52 13.86-1.423.584-4.278-1.952-8.503-1.469-12.794.447.275 1.066.019 1.367-.412.3-.43.368-.978.425-1.502l.678-6.176a141.82 141.82 0 0 0-7.033.543c-2.138.22-4.995.123-7.005.894-1.433.548-.7 4.283-.696 5.717.006 2.397 0 4.793-.019 7.19-.005.667-.165 7.958-.108 7.963"/>
        <path fill="#7478AF" d="M17.448 42.031a33.918 33.918 0 0 1-.264 5.863c-.015.108-.033.224-.11.301-.096.096-.246.1-.38.096l-8.365-.174c.011 0-.275-5.878-.054-6.383.34-.775 1.413-.405 2.04-.318a67.371 67.371 0 0 0 7.133.615"/>
        <path fill="#E8D9BF" d="M12.473 47.329c.003.355.007.718.139 1.054.131.337.415.65.81.752a.47.47 0 0 0 .271.003c.114-.041.177-.145.225-.244.355-.725.435-1.532.367-2.316-.055-.622-.201-1.234-.361-1.84-.085-.321-.043-.6-.435-.563-.172.016-.562.29-.694.4-.703.584-.322 1.99-.322 2.754"/>
        <path fill="#665A52" d="M11.749 43.246c-.05.593-.059 1.29.403 1.664.501.407 1.302.154 1.7-.354.398-.509.5-1.183.589-1.823l.668-4.845c.404-2.929.809-5.862 1.003-8.813.038-.577.057-1.199-.256-1.685-.56-.867-2.407-1.123-3.007-.176-.65 1.029-.16 3.636-.213 4.848-.164 3.737-.568 7.458-.887 11.184"/>
        <path fill="#9E6D57" d="M12.87 63.56c.072.015.148.035.193.093.047.06.046.143.041.219-.093 1.437-.775 2.793-.821 4.233a.528.528 0 0 0 .045.279c.063.112.192.165.315.205.492.162 1.028.244 1.44.56.412.315.62.986.252 1.352-.216.215-.548.25-.852.268a24.112 24.112 0 0 1-5.47-.307c-.054-2.092.061-4.65.472-6.698.361-1.804 3.181-.479 4.386-.204M31.557 61.855c.129 1.22.436 2.42.909 3.551.078.188.172.386.348.486.163.094.363.083.551.07l3.72-.258c.186.64-.357 1.24-.853 1.685-1.413 1.27-2.884 2.573-4.692 3.15-.136.044-.285.084-.419.032-.114-.043-.195-.145-.27-.243-1.267-1.668-2.377-3.535-3.129-5.498-.41-1.071-.283-1.317.784-1.647 1.07-.332 2.09-.741 3.051-1.328"/>
        <path fill="#D1D2D4" d="M2.342 7.063c.013 4.158-.045 8.579-2.283 12.078 3.012 1.244 5.513 3.653 6.94 6.586.25.516.455 1.683.945 2.016.574.39 2.032-.014 2.705-.033a56.432 56.432 0 0 1 8.961.466c1.314.174 3.297.967 4.587.576 1.165-.354 1.964-1.678 2.907-2.38a21.591 21.591 0 0 1 3.397-2.065c.575-.281 7.386-2.67 7.464-2.09-.48-3.564.497-7.305 2.66-10.174-4.52-1.907-8.203-5.728-9.952-10.326-.058-.154-5.63.051-6.217.019a54.396 54.396 0 0 1-6.364-.723C17.093.84 15.99.417 14.986.376c-.864-.035-1.377.6-2.07 1.134-1.492 1.151-3.02 2.264-4.65 3.21C6.42 5.792 4.44 6.653 2.342 7.063"/>
        <g transform="translate(0 .261)">
            <mask id="b" fill="#fff">
                <use xlink:href="#a"/>
            </mask>
            <path fill="#A08E8D" d="M26.43 15.803c-.816-.18-1.66-.364-2.446-.66-1.029-.388-1.973-.97-2.878-1.601.317.027.639.063.957.1.554.066 1.128.135 1.646.135.65.001 1.303.02 1.954.037.664.017 1.34.036 2.018.036.6 0 1.204-.015 1.802-.056 3.799-.262 7.404-1.586 10.891-2.867 1.318-.484 2.68-.983 3.96-1.63l-.202-.404c-1.258.635-2.607 1.13-3.913 1.61-3.457 1.269-7.032 2.582-10.766 2.84-1.254.086-2.537.052-3.778.019-.656-.018-1.31-.036-1.965-.037-.493 0-1.028-.064-1.594-.132-.531-.063-1.07-.125-1.59-.134l-.09-.24c.637-1.102 1.484-2.094 2.442-3.156a212.523 212.523 0 0 1 10.41-10.766l-.312-.326c-3.59 3.46-7.1 7.09-10.433 10.788-.884.982-1.682 1.902-2.314 2.913-2.084-5.52-3.93-9.953-6.568-14.795l-.395.217c2.582 4.739 4.402 9.086 6.437 14.461-2.255-1.295-4.791-1.96-7.25-2.608L1.611 6.698l-.115.438 10.843 2.85c2.215.581 4.49 1.186 6.547 2.246-2.299-.058-4.195-.007-6.327.583-2.208.609-4.23 1.816-6.185 2.983-2.535 1.513-4.93 2.942-7.726 3.219l.044.45c2.897-.287 5.446-1.808 7.913-3.28 1.929-1.152 3.924-2.343 6.074-2.937 2.153-.594 4.075-.626 6.454-.56a33.678 33.678 0 0 0-4.966 5.654c-.686.986-1.328 2.022-1.949 3.024-.668 1.077-1.359 2.192-2.103 3.24-1.698 2.39-3.432 4.024-5.3 4.992l.207.402c1.933-1.002 3.72-2.681 5.46-5.131.752-1.06 1.447-2.18 2.118-3.264.618-.997 1.258-2.028 1.937-3.004a33.145 33.145 0 0 1 5.001-5.656c.001.19.012.38.018.57l-.022.044.023-.002c.106 3.229.89 6.328 2.404 9.45.215.444.445.884.675 1.325.775 1.483 1.576 3.017 1.766 4.67l.448-.052c-.2-1.736-1.02-3.308-1.815-4.829-.228-.436-.456-.872-.669-1.312-1.49-3.07-2.262-6.116-2.364-9.288.092-.008.186-.01.28-.01 1.1.796 2.25 1.565 3.544 2.053.816.308 1.676.496 2.508.679a30.172 30.172 0 0 1 14.144 7.19l.302-.336a30.622 30.622 0 0 0-13.619-7.133c-.243-.057-.487-.11-.73-.163" mask="url(#b)"/>
        </g>
    </g>
</svg>
