<svg xmlns="http://www.w3.org/2000/svg" xmlns:xlink="http://www.w3.org/1999/xlink" width="38" height="69" viewBox="0 0 38 69">
    <defs>
        <path id="a" d="M.382.29h2.576v4.516H.382z"/>
        <path id="c" d="M0 .308h7.897v13.19H0z"/>
        <path id="e" d="M.33.407H11.39v14.176H.33z"/>
    </defs>
    <g fill="none" fill-rule="evenodd">
        <path fill="#DDCCB6" d="M24.625 28.605c-.044.398.095.79.156 1.186.032.212.048.444.188.606.188.22.528.23.756.407.317.247.319.718.291 1.119-.028.401-.029.871.285 1.122.213.17.506.18.779.184.983.013 2.036-.008 2.845-.568.152-.105.293-.23.397-.383.13-.193.193-.424.24-.653.223-1.073.146-2.183.068-3.276-.01-.134-.022-.276-.105-.382-.089-.111-.236-.154-.375-.187-1.106-.26-2.255-.248-3.392-.233-.767.01-2.019.025-2.133 1.058"/>
        <path fill="#211715" d="M28.897 30.189c.036.33.03.667.115.988.085.321.283.636.594.751.266.099.56.035.844.03.139-.003.288.006.404-.07a.585.585 0 0 0 .178-.223 3.901 3.901 0 0 0 .42-2.45c-.063-.395-.196-.794-.478-1.076-.356-.356-.9-.468-1.4-.41a3.851 3.851 0 0 0-.986.274c-.357.143-.451.152-.278.493.28.553.52 1.066.587 1.693"/>
        <path fill="#444B49" d="M23.913 63.686c.315.057.63-.149.805-.418.175-.269.24-.592.313-.905a15.051 15.051 0 0 1 2.215-5.058c.133-.196.29-.402.52-.462.298-.078.61.134.754.407.145.273.162.593.185.901.135 1.818.54 3.603.945 5.38.58.03 1.165-.02 1.732-.146.18-.04.374-.098.483-.249.1-.14.102-.325.1-.498a316.223 316.223 0 0 0-.302-10.128c-.683.195-1.317.53-1.97.813-1.175.51-2.423.851-3.693 1.016-.64.083-1.282.048-1.918.114-.68.07-.678.14-.657.855.08 2.793.294 5.59.488 8.378"/>
        <path fill="#82A3B1" d="M25.775 33.587c-.38-.276-.943-.132-1.28.195-.34.326-.506.786-.663 1.23-1.651 4.669-3.32 9.44-3.403 14.393.834.345 1.652-.585 1.891-1.457.24-.871.28-1.888.958-2.483a71.373 71.373 0 0 0 .122 9.414 24.8 24.8 0 0 0 3.642.18c1.569-.039 3.271-.292 4.36-1.425 1.17-1.219 1.286-3.083 1.263-4.774-.022-1.69-.08-3.512.867-4.912a12.639 12.639 0 0 1 2.113 3.881c.454.205.996-.155 1.193-.613.197-.458.155-.979.156-1.477.001-.87.143-1.735.163-2.605.088-3.742-2.03-7.133-4.069-10.267-.217-.334-.473-.695-.862-.778-.282-.06-.57.045-.84.146l-3.526 1.336"/>
        <path fill="#B0AFAD" d="M20.538 51.79c-.001.356.026.77.316.974.101.072.237.107.35.057.147-.065.205-.24.244-.395a18.49 18.49 0 0 0 .441-2.439c.065-.071.186-.026.256.039.071.065.135.153.231.165.145.02.243-.143.284-.284.226-.783-.065-1.613-.353-2.375-.01-.026-.022-.055-.047-.068-.042-.021-.09.014-.124.047-.48.47-1.327 1.027-1.552 1.682-.253.738-.03 1.822-.046 2.597"/>
        <g transform="translate(34.87 45.743)">
            <mask id="b" fill="#fff">
                <use xlink:href="#a"/>
            </mask>
            <path fill="#B0AFAD" d="M.504 3.038a.478.478 0 0 0 .477-.184l.119.956c.041.336.109.715.393.898.375.242.862-.01 1.234-.256.08-.052.161-.108.202-.193a.514.514 0 0 0 .02-.282A10.244 10.244 0 0 0 1.834.435a.296.296 0 0 0-.098-.122c-.093-.056-.21.004-.302.063C.98.67.528.833.39 1.36c-.035.135.076 1.671.115 1.68" mask="url(#b)"/>
        </g>
        <path fill="#473A47" d="M22.99 66.062a.365.365 0 0 0 .025.21c.036.07.109.11.18.143a1.594 1.594 0 0 0 1.5-.114c.195-.126.36-.295.557-.414.233-.14.51-.212.702-.404.303-.304.292-.791.26-1.22l-.171-2.295c-.045-.602-.12-1.269-.57-1.67-.866.74-1.178 1.888-1.37 2.958-.181 1.012-1.01 1.801-1.113 2.806M29.922 63.726a.919.919 0 0 1-.017.324.856.856 0 0 1-.151.265 6 6 0 0 1-.792.856c-.068.06-.14.124-.172.21a.479.479 0 0 0-.012.229c.051.375.21.734.453 1.023a.6.6 0 0 0 .234.188c.103.04.217.029.326.016.33-.037.66-.087.987-.148.215-.04.453-.1.57-.287.073-.117.083-.262.128-.394.074-.222.245-.4.334-.616.104-.256.087-.541.069-.817l-.17-2.52c-.39.037-1.423.059-1.718.348-.286.281-.095.934-.069 1.323"/>
        <path fill="#272F40" d="M24.59 32.305a5.617 5.617 0 0 0-.528 1.751l2.174.35a19.181 19.181 0 0 1-.513 5.215c.249.2.643.084.848-.161.204-.245.266-.576.318-.891.208-1.272.354-2.555.438-3.841l1.497 1.942c.433.56.929 1.161 1.625 1.285.373.066.876-.174.787-.544-.058-.238-.325-.346-.53-.483-.672-.45-.77-1.384-.802-2.194-.006-.147-.01-.302.057-.433.077-.15.233-.24.38-.322l.728-.402c.358-.199.73-.409.962-.748.23-.34.27-.848-.025-1.132-.236-.23-.614-.248-.926-.147-.313.102-.581.303-.86.478-.846.53-1.87.854-2.87.902-.248.013-2.869-.405-2.76-.625"/>
        <path fill="#701300" d="M25.94 26.111c1.043-1.191 1.82-2.588 2.742-3.875.083-.116.172-.235.297-.303.33-.18.73.064.993.334 1.076 1.103 1.441 2.708 1.636 4.237.062.484.11.979.014 1.456-.097.477-.362.943-.79 1.173a.585.585 0 0 1-.218.074c-.1.01-.2-.021-.296-.05a18.42 18.42 0 0 0-3.529-.695c-.488-.047-2.46-.064-2.079-.877.26-.555.831-1.018 1.23-1.474"/>
        <path fill="#4F353B" d="M2.257 19.921c.06-.265.239-.602.498-.522.107.65-.023 1.314-.115 1.966-.206 1.46-.228 2.94-.183 4.412.024.755.065 1.508.107 2.261.025.445.314 1.705.06 2.068-.24.342-.94.223-1.194-.041-.28-.293-.29-.79-.3-1.168-.032-1.342.127-2.714.282-4.045.193-1.657.475-3.304.845-4.931"/>
        <g transform="translate(0 28.717)">
            <mask id="d" fill="#fff">
                <use xlink:href="#c"/>
            </mask>
            <path fill="#4F353B" d="M.505.66C-.331 4.135.04 7.773.415 11.328c.036.335.075.682.25.97.369.607 1.19.764 1.83.923.683.17 1.384.263 2.088.276.5.009.994-.137 1.468-.294 1.089-.359 1.398-1.571 1.544-2.577.151-1.052.247-2.11.287-3.171.027-.687.029-1.38-.106-2.054-.227-1.134-.827-2.153-1.418-3.146-.277-.468-.57-.952-1.025-1.25C4.907.725 4.386.64 3.883.56 3.385.483.669-.023.505.66" mask="url(#d)"/>
        </g>
        <g transform="translate(3.13 .041)">
            <mask id="f" fill="#fff">
                <use xlink:href="#e"/>
            </mask>
            <path fill="#CEAF8E" d="M3.95.99c-.595.406-.982 1.064-1.192 1.753-.21.69-.26 1.416-.298 2.136-.019.349-.036.7-.113 1.04-.083.367-.234.714-.362 1.068-.456 1.25-.633 2.58-.781 3.902-.072.642-.162 1.341-.623 1.794-.109.107-.245.216-.25.368-.006.167.149.29.29.378 1.715 1.07 3.849 1.352 5.842 1.026.379-.062.764-.149 1.081-.365.18-.123.333-.284.5-.424.767-.641 1.809-.815 2.797-.957.14-.02.3-.055.36-.182a.438.438 0 0 0 .02-.226 32.184 32.184 0 0 1 .11-6.722c.04-.33.086-.663.035-.991-.07-.463-.325-.874-.583-1.264-.448-.677-.93-1.344-1.549-1.869C7.938.356 5.414-.007 3.95.991" mask="url(#f)"/>
        </g>
        <path fill="#D3B39B" d="M7.656 14.592l2.682-.074c.046-.002.098-.006.128-.04.024-.028.027-.068.028-.105a9.509 9.509 0 0 0-.068-1.587.191.191 0 0 0-.028-.09c-.042-.057-.128-.05-.199-.037-.346.063-.698.1-1.05.113-.231.008-.718-.117-.921-.027-.37.163-.44 1.434-.572 1.847"/>
        <path fill="#F3FFFF" d="M9.568 14.217c-.726.117-1.469-.042-2.204-.015-.736.028-1.55.32-1.837 1 .02.252.164.475.303.686l2.853 4.338c.597.908 1.212 1.835 2.084 2.48.427.317.978.565 1.478.387.536-.191.798-.789.96-1.336.422-1.428.346-2.836.57-4.28.19-1.224-.275-2.488-.915-3.54-.117-.193-.248-.384-.428-.52-1.038-.787-1.825.633-2.864.8"/>
        <path fill="#D3B39B" d="M6.045 65.45c.585.112 1.224.217 1.751-.061.911-.482.953-1.748.902-2.78-.201-3.986.043-7.995.725-11.928-.762-.098-1.575-.194-2.344-.145-.838.055-.837.079-.921.894-.161 1.562-.144 3.167-.18 4.736-.019.831-.337 9.207.067 9.284M12.966 61.57c.675.023 1.479-.02 1.832-.596.184-.3.19-.673.19-1.026.008-3.396.01-6.792.01-10.189-.748-.035-2.529-.023-2.924.72-.411.77.012 2.828.055 3.702.032.66.433 7.376.837 7.39"/>
        <path fill="#007582" d="M3.71 16.523c-1.622 2.036-1.658 4.874-1.62 7.48l.131 8.903c.013.849.043 1.755.53 2.449.49.694 1.617.993 2.182.362l.607-4.683c2.008 1.839 2.126 4.932 1.93 7.652-.071.999-.219 2.104-.982 2.75-.701.595-1.706.616-2.623.608-.46 2.527-.831 5.07-1.114 7.622-.033.296-.06.616.092.872.157.267.468.395.76.498 4.207 1.479 9.052 1.019 12.907-1.227.376-.218.768-.484.91-.895.132-.377.025-.79-.085-1.173-1.65-5.736-3.844-11.568-3.13-17.495.438-3.628 1.96-7.26 1.143-10.821-.307-1.337-.93-2.576-1.549-3.8-.547-1.082-1.156-2.23-2.227-2.797a21.937 21.937 0 0 1 1.134 8.396c-.488.207-1.068-.02-1.443-.394-.376-.374-.597-.871-.841-1.341a12.118 12.118 0 0 0-1.069-1.695c-.337-.447-.961-.892-.986-1.43-.005-.123-.085-.229-.165-.322-.483-.557-1.487-1.275-2.273-1.092-.834.196-1.7.92-2.219 1.573"/>
        <path fill="#D3B39B" d="M3.268 37.04c-.163.468-.388.929-.393 1.423-.004.495.307 1.042.799 1.088.448.04.823-.336 1.057-.72a3.958 3.958 0 0 0 .517-2.686c-.024-.14-.062-.29-.172-.38-1.072-.86-1.588.647-1.808 1.276"/>
        <path fill="#2E4849" d="M7.321 65.174c.143-.045.284-.102.433-.117.327-.03.632.15.902.338 1.013.703 1.9 1.589 2.605 2.602.027.04.056.086.05.134-.007.058-.062.097-.112.126-.573.33-1.269.338-1.93.336-.163 0-.33-.001-.486-.048-.271-.082-.482-.295-.673-.506-.364-.404-.705-.838-1.148-1.152-.312-.222-.67-.38-.952-.641-1.162-1.082.733-.893 1.311-1.072M14.609 61.105c.283.18.493.453.722.7.311.335.666.628 1.053.87.357.223.742.402 1.076.66.334.255.622.607.682 1.025.018.12.009.259-.084.337a.418.418 0 0 1-.201.077 5.02 5.02 0 0 1-4.282-1.303c-.415-.399-.78-.965-.625-1.52.206-.737.938-1.303 1.659-.846"/>
        <path fill="#EAC09D" d="M13.397 5.624c.096.009.198.019.277.075.083.06.126.159.16.255.467 1.326-.07 2.775-.6 4.077-.204.501-.422 1.022-.832 1.374-.225.194-.498.327-.704.54-.169.175-.284.394-.436.582-.363.452-.924.709-1.494.81-.57.102-1.155.063-1.732.015-.23-.02-.488-.057-.624-.244-.08-.111-.1-.254-.111-.39a6.09 6.09 0 0 1 .048-1.458c.064-.413.171-.822.18-1.24.01-.44-.09-.877-.227-1.295-.15-.461-.349-.939-.255-1.414.094-.477.648-.89 1.061-.638-.09-.055.515-.952.642-1.036.303-.2.746-.14 1.09-.144a38.316 38.316 0 0 1 3.557.131"/>
        <path fill="#4F353B" d="M6.314 26.292l-.138-3.716c-.065-1.729-.13-3.463-.415-5.17-.087-.522-.206-1.065-.55-1.467-.343-.402-.979-.601-1.413-.3-.108.076-.203.188-.211.32-.01.131.067.252.138.364 1.025 1.643 1.234 3.655 1.358 5.59.175 2.763.23 5.532.162 8.3-.01.397-.021.798.066 1.185.088.387.455 1.155.78.493.239-.486.2-1.315.235-1.85.08-1.248.034-2.5-.012-3.75"/>
    </g>
</svg>
