<svg xmlns="http://www.w3.org/2000/svg" xmlns:xlink="http://www.w3.org/1999/xlink" width="65" height="82" viewBox="0 0 65 82">
    <defs>
        <path id="a" d="M.205.175h5.76v5.469H.205z"/>
        <path id="c" d="M0 .183h25.678V11.46H0z"/>
        <path id="e" d="M.196.181h4.277v5.306H.196z"/>
        <path id="g" d="M.086.003h8.577v8.228H.086z"/>
    </defs>
    <g fill="none" fill-rule="evenodd">
        <path fill="#B83056" d="M20.41 76.588c-.002.162.017.342.139.449.112.098.28.101.427.075.508-.092.918-.457 1.288-.818a25.812 25.812 0 0 0 3.09-3.64c.26-.37.52-.783.497-1.234-.02-.402-.269-.763-.583-1.013-.314-.25-.691-.405-1.063-.558-1.21-.495-3.795 5.897-3.795 6.74"/>
        <g transform="translate(8.622 76.353)">
            <mask id="b" fill="#fff">
                <use xlink:href="#a"/>
            </mask>
            <path fill="#B83056" d="M1.921.321C1.376.118.641.068.328.56c-.316.494.038 1.133.399 1.596C1.73 3.44 2.887 4.637 4.304 5.44c.256.145.567.278.832.153a.772.772 0 0 0 .281-.26c.341-.476.432-1.08.514-1.66.033-.236.065-.483-.023-.704-.066-.166-.192-.3-.318-.427C4.388 1.333 3.465.897 1.92.321" mask="url(#b)"/>
        </g>
        <path fill="#008872" d="M21.37 72.653c.087.074.18.15.29.177.232.055.45-.117.627-.277.976-.882 2.047-2.103 1.609-3.344-.24-.678-.872-1.124-1.327-1.68-.919-1.122-1.09-2.666-1.15-4.116a43.378 43.378 0 0 1 .278-7.039l-3.33-.205c-.376-.024-.789-.037-1.09.19-.25.19-.365.505-.466.804a51.449 51.449 0 0 0-1.238 4.299c-.238.989-.458 2.21.047 3.156.232.433.525.682.715 1.138.216.515.291 1.092.526 1.613.962 2.134 2.753 3.798 4.508 5.284"/>
        <path fill="#16AEA9" d="M10.483 63.887c-.047 1.314-.093 2.634.053 3.94.12 1.083.373 2.148.51 3.228.198 1.544.16 3.113.401 4.65.056.352.128.708.293 1.023.165.316.415.577.662.833l2.594 2.695c.38-1.608.22-3.287.274-4.938.227-7.023 4.279-13.412 5.048-20.396-.004.036-8.74-1.312-9.416-.629-.587.592-.21 3.756-.24 4.621l-.179 4.973"/>
        <path fill="#D6D6D0" d="M20.044 50.235a35.392 35.392 0 0 1-5.386.226c-.71-.025-1.464-.087-2.035-.51-.599-.443-.875-1.193-1.071-1.912a16.578 16.578 0 0 1-.53-3.024c-.012-.141-.02-.292.049-.417.076-.138.228-.212.372-.275 1.271-.558 2.632-.91 4.014-1.038.911-.084 1.829-.065 2.74-.151 1.185-.112 1.568-.454 1.56.897-.01 2.074.066 4.14.287 6.204"/>
        <path fill="#EADED1" d="M6.277 53.752c-.484.018-.975.056-1.426.232-.678.265-1.257 1.052-.924 1.7.293.568 1.058.65 1.697.66.883.013 1.822.012 2.57-.457.394-.246.721-.639.78-1.1.024-.185-.01-.398-.159-.51-.092-.07-.212-.088-.327-.103l-2.302-.318"/>
        <g transform="translate(0 46.142)">
            <mask id="d" fill="#fff">
                <use xlink:href="#c"/>
            </mask>
            <path fill="#363B5B" d="M1.573.479C.185 1.123-.328 2.993.21 4.429c.537 1.433 1.878 2.438 3.308 2.985 1.43.546 2.97.708 4.48.96 4.955.827 9.733 2.665 14.739 3.067.337.028.69.046 1-.088.389-.169.643-.544.85-.914a9.52 9.52 0 0 0 1.044-2.89c.052-.279.088-.58-.04-.832-.13-.258-.404-.406-.661-.537-4.005-2.026-8.262-3.467-12.653-4.38a66.266 66.266 0 0 0-4.385-.756C6.047.788 3.355-.347 1.573.479" mask="url(#d)"/>
        </g>
        <path fill="#090907" d="M7.579 30.868c.315.599.737 1.272 1.41 1.334.48.043.92-.25 1.303-.544a21.873 21.873 0 0 0 1.948-1.68c.34-.33.676-.682.853-1.122.273-.68.111-1.473-.25-2.111-.362-.638-.904-1.15-1.437-1.653l-.778-.733c-.11-.103-.231-.212-.381-.227-.197-.02-.368.127-.51.264-.79.767-2.41 2.016-2.866 3.006-.548 1.189.12 2.348.708 3.466"/>
        <path fill="#619EBA" d="M14.514 21.299c-.324-.388-.964-.363-1.398-.104-.434.26-.725.688-1.05 1.07-.325.382-.737.748-1.245.792-.628.056-1.211-.393-1.842-.372-.289.009-.563.117-.829.226-.953.39-1.94.855-2.51 1.695-.428.63-.571 1.402-.67 2.153-.065.501-.114 1.021.044 1.504.158.482.572.92 1.089.962.731.059 1.254-.626 1.753-1.148.52-.545 1.126-.887 1.794-1.227.713-.364.936-.604 1.45-1.26a374.174 374.174 0 0 1 3.414-4.291"/>
        <path fill="#E5E5E3" d="M6.64 53.52c-.24.573-.478 1.315-.03 1.747.297.288.792.277 1.158.083.365-.194.63-.532.876-.865 2.563-3.467 4.457-7.585 7.946-10.114.341-.247.707-.49.915-.857.454-.803-.021-1.782-.28-2.668-.525-1.804-.035-3.869 1.243-5.245.308-.332.67-.645.808-1.076.244-.765-.299-1.536-.809-2.155-1.521-1.847-3.336-3.847-5.725-3.947-.19-.007-.388 0-.557.086-.195.1-.323.29-.451.467-1.183 1.627-2.47 1.804-2.666 3.92-.214 2.306-.25 4.624-.31 6.937-.125 4.619-.31 9.364-2.117 13.686M5.358 44.028c.64 0 .642-.996 0-.996-.64 0-.641.996 0 .996"/>
        <path fill="#B83056" d="M11.846 36.485c.18 1.25.862 2.368 1.61 3.385 1.74 2.363 3.957 4.409 6.574 5.732 1.157.586 2.411 1.032 3.706 1.07 1.296.038 2.642-.373 3.55-1.3.372-.38.677-.913.538-1.426-.06-.223-.197-.415-.332-.602a58.51 58.51 0 0 0-8.769-9.616c-1.427-1.251-2.665-3.049-4.594-1.856-1.526.944-2.544 2.803-2.283 4.613"/>
        <path fill="#84314B" d="M11.391 33.906c-.738-.47-1.414-1.04-2.18-1.465-.125-.069-.275-.135-.405-.076-.09.042-.146.134-.194.221-.283.515-.54 1.046-.766 1.588-.028.066-.054.145-.016.206.024.038.067.058.108.076 1.253.55 2.506 1.102 3.758 1.654.761.334 2.045.505 1.756-.772-.194-.86-1.399-1.01-2.06-1.432M12.663 28.933c-.06-.157-.104-.353.012-.474.089-.093.234-.095.351-.148.184-.083.29-.284.47-.376.237-.123.541-.015.724.18.184.194.274.456.36.71.322.956.648 1.923.748 2.928.035.354.034.738-.171 1.029-.81 1.149-1.07-.638-1.192-1.03-.307-.991-.939-1.85-1.302-2.819"/>
        <path fill="#8A7442" d="M54.457 47.042c-.798 3.69-.712 7.507-.622 11.281a4.018 4.018 0 0 1-2.004-.251c-.198-2.397.039-4.805.147-7.208a67.466 67.466 0 0 0-.909-14.47c1.63.364 4.977.362 5.188 2.55.25 2.608-1.256 5.582-1.8 8.098M48.106 48.628c-.913 2.924-2.11 5.888-1.82 8.938l-1.62-.048c-.133-.004-.278-.013-.376-.102-.094-.085-.12-.22-.138-.346-.373-2.608.174-5.245.602-7.844a88.213 88.213 0 0 0 1.128-11.455c.002-.07 3.295.162 3.616.35.93.543.527 1.71.398 2.604a51.268 51.268 0 0 1-1.79 7.903"/>
        <g transform="translate(60.357 1.989)">
            <mask id="f" fill="#fff">
                <use xlink:href="#e"/>
            </mask>
            <path fill="#383112" d="M4.26 5.296c-.003.04-.007.084-.032.116-.031.04-.085.052-.135.058-.675.093-1.326-.233-1.982-.415a4.774 4.774 0 0 0-1.312-.172c-.19.002-.426-.011-.505-.185a.472.472 0 0 1-.032-.155A17.687 17.687 0 0 1 .424.181C1.23.214 2.037.284 2.837.39c.51.067 1.281.02 1.524.563.224.5.046 1.371.03 1.898a51.45 51.45 0 0 1-.13 2.445" mask="url(#f)"/>
        </g>
        <path fill="#DAE2BA" d="M64.114 9.9c.051-.428.102-.86.07-1.29-.032-.43-.153-.865-.415-1.207-.202-.265-.551-.476-.86-.351-.184.074-.308.255-.361.447-.053.192-.044.395-.027.593.053.612.178 1.22.37 1.803M61.11 7.293c0-.087-.004-.18-.055-.25-.065-.093-.188-.122-.3-.143-.353-.07-.755-.128-1.043.088-.284.212-.346.606-.385.959-.028.254-.055.515.006.763.136.556.763.76 1.189.384.42-.372.585-1.28.589-1.801"/>
        <path fill="#45722E" d="M58.677 8.303c.56-.407 1.324-.827 1.89-.427.324.228.444.67.392 1.063-.051.394-.245.753-.443 1.097-.503.875-1.06 1.727-1.765 2.447-.365.372-.78.714-1.273.886-.4.14-.831.16-1.255.179-.931.041-5.112.206-3.392-1.951.536-.671 1.998-.891 2.76-1.295 1.083-.576 2.095-1.279 3.086-1.999"/>
        <path fill="#69B848" d="M53.673 14.812c.343.16.711.288.996.539.79.698.587 1.943.553 2.997-.059 1.766.541 3.477.918 5.203.466 2.131.594 4.32.72 6.498l.468 8.032c-4.29 1.1-8.821 2.2-13.082.996 1.338-5.726 2.469-11.618 1.794-17.46-.186-1.616-.51-3.217-.608-4.84-.18-2.977.41-5.96 1.35-8.789.147-.443.346-.93.775-1.111.242-.103.517-.087.778-.058.707.077 2.707.28 2.92 1.038.159.568-.505 1.903-.441 2.643.155 1.786 1.21 3.54 2.859 4.312"/>
        <g transform="translate(46.097 .329)">
            <mask id="h" fill="#fff">
                <use xlink:href="#g"/>
            </mask>
            <path fill="#423A2F" d="M4.67.031c.42-.004.852-.007 1.246.141.408.154.741.46 1.032.784a6.846 6.846 0 0 1 1.694 3.907c.074.822-.026 1.716-.564 2.342-.584.681-1.54.891-2.433.98-.694.067-1.406.083-2.075-.11C1.896 7.586.853 5.896.362 4.221.147 3.488.006 2.714.135 1.96.542-.436 2.823.051 4.67.031" mask="url(#h)"/>
        </g>
        <path fill="#5B4F40" d="M45.671 6.14c-.438.56-.884 1.132-1.12 1.802-.214.612-.242 1.27-.267 1.918-.042 1.036-.082 2.073-.123 3.109-.046 1.151-.109 2.36-.716 3.338-.607.979-1.957 1.597-2.947 1.009.867 1.315 2.833 1.574 4.22.832 1.389-.743 2.234-2.247 2.587-3.782.353-1.535.285-3.13.282-4.706-.002-1.117.57-2.854.32-3.883-.374-1.529-1.679-.346-2.236.364"/>
        <path fill="#5C9143" d="M54.103 11.682c1.734.48 3.672.942 5.26.094 1.17-.624 1.887-1.828 2.712-2.866.168-.212.37-.434.639-.464.196-.023.388.064.559.164.461.272.854.668 1.102 1.144.28.54.368 1.165.327 1.772-.124 1.83-1.403 3.457-3.024 4.311-1.622.854-3.535 1.016-5.355.796-1.476-.18-2.954-.614-4.151-1.498-.917-.676-2.496-2.466-2.133-3.765.372-1.33 3.062.035 4.064.312"/>
        <path fill="#BA9BB3" d="M57.007 59.532c.334.049.684.104.954.307.27.202.425.604.243.89-.138.217-.412.297-.664.35a9.408 9.408 0 0 1-5.053-.347l-.341 1.137c-.024.078-.051.162-.118.208-.082.056-.192.035-.29.012l-.915-.216c-.085-.02-.178-.045-.227-.117-.041-.06-.042-.138-.041-.21.02-1.252.197-2.501.524-3.71.023-.085.056-.181.138-.215.065-.027.14-.004.207.02.494.173 1.127.288 1.54.624.256.207.38.505.675.675.906.527 2.353.389 3.368.592M46.654 58.311c.769.227 1.563.364 2.363.408.408.022.85.032 1.169.288.418.336.418 1.069-.001 1.405-.285.228-.674.261-1.038.285-.622.042-1.25.083-1.866-.008-.618-.091-1.23-.328-1.67-.77l-.16 1.035a7.562 7.562 0 0 1-1.316-.152 10.995 10.995 0 0 1 .195-3.317c.019-.086.042-.178.111-.233.066-.053.158-.057.243-.058.337-.003 1.237-.09 1.47.199.274.338-.097.743.5.918"/>
    </g>
</svg>
