<svg xmlns="http://www.w3.org/2000/svg" xmlns:xlink="http://www.w3.org/1999/xlink" width="28" height="44" viewBox="0 0 28 44">
    <defs>
        <path id="a" d="M.121.27H4.49v9.143H.121z"/>
        <path id="c" d="M.092.051h4.047v4.014H.092z"/>
    </defs>
    <g fill="none" fill-rule="evenodd">
        <path fill="#F2E2D9" d="M1.812 19.642c-.04 2.384-.16 4.767-.182 7.15-.01 1.193.004 2.391.204 3.567.154.904.416 1.786.596 2.685.157.783.252 1.58.468 2.349.217.768.567 1.523 1.154 2.073.063.058.134.117.22.124.174.016.285-.174.35-.334l.74-1.814c.216-.526.43-1.052.59-1.595.193-.661.303-1.343.398-2.024.203-1.445.346-2.898.427-4.354.067-1.183.093-2.37.24-3.547.224-1.8.73-3.582.629-5.392-2.078.47-4.023 1.591-6.155 1.624"/>
        <path fill="#E4DAD7" d="M4.596 36.55c-.12.403-.25.814-.226 1.234.046.854.74 1.578 1.549 1.885.81.307 1.712.265 2.568.125 1.085-.178 2.274-.621 2.69-1.626.192-.466.184-.985.192-1.488.056-3.878 1.155-7.76.556-11.593-.104-.661-.258-1.323-.218-1.99.03-.508.17-1.028.024-1.515-.172-.566-.69-.953-1.19-1.277-1.142-.74-2.636-1.456-3.938-.645-.93.58-.496 1.534-.482 2.439.049 3.105-.043 6.239-.455 9.32a33.905 33.905 0 0 1-1.07 5.13"/>
        <path fill="#D3B9A5" d="M4.475 5.36c-.11.38-.255.755-.269 1.15a.36.36 0 0 0 .029.181c.05.095.164.134.269.16.362.09.736.117 1.107.144.607.044 1.244.083 1.796-.17.172-.08.338-.194.424-.361.066-.128.079-.275.09-.417l.201-2.425c.005-.061.01-.128-.027-.179-.039-.054-.112-.072-.178-.086a210.32 210.32 0 0 0-1.581-.316c-.333-.066-1.117-.375-1.427-.222-.317.155-.166.828-.184 1.105a6.714 6.714 0 0 1-.25 1.437"/>
        <path fill="#2B1D42" d="M2.109 9.111c-.588.878-.927 1.903-1.084 2.944-.055.363-.089.728-.16 1.088-.073.368-.185.726-.294 1.084-.27.89-.524 1.794-.565 2.722-.017.361 0 .728.091 1.079.09.343.248.664.406.982.235.475.475.956.827 1.354.109.122.246.243.41.24.228-.004.374-.237.465-.444.755-1.724.804-3.662 1.314-5.471.097-.341.21-.678.303-1.02.167-.614.271-1.244.375-1.872l.61-3.69c.06-.366.254-.866-.287-.861-.432.003-.872.327-1.197.572A5.336 5.336 0 0 0 2.11 9.11M11.971 9.802c.224.4.189.884.188 1.34-.004 1.286.31 2.55.439 3.83.203 2.036-.068 4.096-.563 6.082-.044.175-.091.354-.197.502a.779.779 0 0 1-.758.303c-.517-.096-.776-.66-.937-1.154a26.281 26.281 0 0 1-.885-3.53c-.069-.387-.13-.779-.111-1.172.02-.453.146-.894.223-1.342.21-1.217.071-2.497.487-3.662.134-.375.322-.727.517-1.075.147-.264.425-.787.785-.79.31-.003.677.427.812.668"/>
        <path fill="#D2E7F9" d="M18.25 42.29c0 .228 0 .458.053.68.012.052.034.11.086.128.047.015.096-.011.138-.038.549-.348.983-.842 1.409-1.33l.585-.668c.043-.05.088-.104.091-.168.003-.057-.027-.108-.056-.157a15.298 15.298 0 0 0-1.027-1.491c.026.033-1.153.933-1.232 1.147-.087.236-.045.534-.045.779l-.002 1.118"/>
        <path fill="#7C7498" d="M15.495 38.772c0 .434.015.9.277 1.247.438.578 1.31.546 2.037.457l1.02-.126c.316-.038.65-.085.895-.286.312-.256.393-.69.424-1.09.149-1.898-.346-3.914.447-5.65.25.805.163 1.667.15 2.508-.017 1.083.092 2.165.263 3.234.131.822.359 1.729 1.07 2.176.824.519 1.923.185 2.762-.31.755-.444 1.451-1.025 1.885-1.78.29-.504.455-1.07.557-1.642.53-2.96-.553-5.933-1.247-8.86a34.797 34.797 0 0 1-.87-5.816c-.022-.335-.053-.704-.296-.94-.145-.139-.344-.208-.536-.269a16.778 16.778 0 0 0-5.115-.783c-1.238.003-1.855.353-2.129 1.564-.76 3.354-1.13 6.847-1.377 10.27a84.337 84.337 0 0 0-.217 6.096"/>
        <path fill="#C48E82" d="M19.093 4.386c-.024.177-.037.361.02.53.068.2.225.355.371.507.257.266.498.546.722.84.162.21.327.438.572.545.143.061.301.077.457.083.199.008.405 0 .586-.08.164-.072.297-.199.41-.336.335-.41.516-.924.599-1.444.082-.52.073-1.05.062-1.575-.605-.04-1.212.018-1.82.026a6.69 6.69 0 0 1-.796-.03c-.23-.025-.49-.132-.72-.121-.398.018-.425.767-.463 1.055"/>
        <path fill="#301D44" d="M23.795 7.65c-.24-.298-.392-.696-.74-.862-.23-.11-.497-.092-.751-.07-.871.08-1.816.246-2.397.89-1.033 1.146-.346 2.782-.45 4.12a30.066 30.066 0 0 1-.932 5.42c-.293 1.091-.65 2.197-.574 3.323.033.482.19.674.634.714.508.046 1.002.178 1.507.292 1.086.246 2.18.457 3.278.634.33.053.697.095.972-.092.219-.15.325-.411.415-.658a25.571 25.571 0 0 0 1.533-8.148c.03-1.28.158-2.953-.245-4.185-.367-1.12-1.55-.51-2.25-1.378"/>
        <path fill="#200F35" d="M17.659 8.772c-.244.257-.34.615-.415.96-.296 1.35-.421 2.752-.953 4.03-.255.616-.603 1.196-.79 1.835-.421 1.439.018 2.971.456 4.405.135.443.307.93.721 1.147.44.23.976.064 1.444-.106.132-.048.268-.098.373-.192.124-.11.19-.27.24-.428.272-.843.22-1.75.366-2.622.109-.658.33-1.293.499-1.938.572-2.186.547-4.474.52-6.732-.013-.971-1.916-.932-2.461-.359"/>
        <g transform="translate(23.333 7.138)">
            <mask id="b" fill="#fff">
                <use xlink:href="#a"/>
            </mask>
            <path fill="#200F35" d="M1.442.528c.422.094.857.197 1.205.449.462.335.706.881.907 1.41.362.954.648 1.937.855 2.935.056.269.105.544.067.816-.036.249-.144.481-.253.708-.253.532-.513 1.061-.779 1.587-.127.252-.26.51-.466.705-.206.196-.502.323-.78.258.213-1.62.357-3.27.085-4.88a7.986 7.986 0 0 0-.75-2.31A6.442 6.442 0 0 0 .874 1.17C.7.948.136.54.121.285c.358-.078.95.16 1.321.243" mask="url(#b)"/>
        </g>
        <path fill="#A29798" d="M20.483 40.282c-.597.769-1.198 1.541-1.913 2.206-.393.364-.862.71-1.401.718-.065.255.092.534.328.657.237.123.53.105.775 0 .244-.105.446-.29.618-.491.172-.202.318-.423.485-.628.23-.284.497-.536.728-.818.134-.164.256-.338.377-.511l.343-.49c.076-.108.153-.22.175-.35.026-.155-.042-.42-.166-.529-.155-.136-.246.104-.349.236M22.435 42.325c.222-.177.59.022.826-.135.12-.08.17-.23.2-.37a3.09 3.09 0 0 0 .063-.892c-.004-.043-.01-.09-.042-.12a.178.178 0 0 0-.08-.033 9.014 9.014 0 0 0-1.037-.182c-.235-.027-.565-.112-.694.149-.123.247.072.504.195.707.18.297.37.59.569.876"/>
        <path fill="#200F35" d="M19.792 2.3c.373-.448.783-.864 1.194-1.28a.51.51 0 0 1 .109-.09c.152-.085.348.007.467.133.12.127.2.288.337.396.218.172.53.173.767.319.226.139.354.396.406.654.053.257.04.523.049.785.005.191.022.385-.027.57-.048.185-.178.363-.365.409a.798.798 0 0 1-.262.005c-.634-.057-1.267-.114-1.899-.19-.347-.04-.698-.09-1.048-.073-.177.01-.544.09-.69-.028-.268-.217.79-1.401.962-1.61"/>
        <path fill="#4B3B63" d="M4.49 6.563a1.682 1.682 0 0 0-.232.868c-.222-.13-.526.016-.653.239-.127.221-.127.49-.125.745.009 1.32-.023 2.64-.055 3.959-.02.809-.04 1.62-.18 2.417-.166.952-.502 1.866-.795 2.789-.3.948-.557 1.91-.768 2.882 1.44.427 2.967.457 4.472.483 1.207.022 2.428.041 3.604-.226.108-.025.22-.055.3-.13.132-.126.13-.33.12-.51a28.801 28.801 0 0 0-.377-3.13c-.109-.614-.237-1.227-.24-1.85-.011-1.874 1.088-3.55 1.76-5.303.097-.255.183-.554.041-.788-.088-.145-.247-.233-.398-.313l-1.703-.908c-.202-.107-.414-.224-.532-.418-.1-.163-.123-.368-.25-.512-.142-.163-.379-.206-.596-.231-.648-.075-1.28-.05-1.929-.036-.233.005-1.384-.163-1.464-.027"/>
        <g transform="translate(4.375 .236)">
            <mask id="d" fill="#fff">
                <use xlink:href="#c"/>
            </mask>
            <path fill="#2B1D42" d="M.672 3.498l-.531-.036C.083 2.943.03 2.391.268 1.924c.1-.197.248-.367.393-.535.397-.456.8-.919 1.307-1.253.075-.05.163-.1.253-.081a.363.363 0 0 1 .145.082c.49.387.992.788 1.294 1.33.265.476.355 1.025.44 1.561.028.172.056.347.028.519-.028.171-.121.342-.279.42a.812.812 0 0 1-.283.064A7.398 7.398 0 0 1 .23 3.578" mask="url(#d)"/>
        </g>
        <path fill="#BC6343" d="M6.607 38.801c.01.225.082.442.152.655l.769 2.332c.034.103.07.21.153.281a.534.534 0 0 0 .262.103c.397.069.814.015 1.18-.153.203-.093.403-.238.467-.45.068-.228-.037-.467-.129-.686a7.303 7.303 0 0 1-.527-2.058c-.074-.707-.266-1.421-1.151-1.369-.649.038-1.206.715-1.176 1.345"/>
    </g>
</svg>
