<svg xmlns="http://www.w3.org/2000/svg" width="26" height="58" viewBox="0 0 26 58">
    <g fill="none" fill-rule="evenodd">
        <path fill="#A0785D" d="M9.95 43.178c.657 2.317 1.316 4.64 2.23 6.867.125.308.321.662.65.675.311.013.548-.319.563-.635.016-.315-.124-.615-.244-.906-1.294-3.153-.515-6.767-1.082-10.133-.045-.265-.101-.537-.247-.762-.147-.228-.377-.391-.621-.504-.515-.237-1.15-.257-1.625.052-1.408.916.038 4.153.376 5.346"/>
        <path fill="#88604C" d="M15.774 3.15c-4.865-.673-10.131.1-14.255 2.092-.668.324-1.242.895-1.447 1.59-.303 1.022.4 2.07 1.207 2.79 2.574 2.3 6.285 2.873 9.773 3.126 2.756.2 5.56.262 8.249-.364 1.984-.462 8.224-2.817 6.213-5.624-1.766-2.465-6.957-3.224-9.74-3.61"/>
        <path fill="#19110C" d="M23.403 5.612c.354.524.73 1.105 1.247 1.424.254.156.465.387.54.68.052.207.145.41.226.61.14.348.239.769.033 1.082-.106.16-.275.264-.443.353a5.438 5.438 0 0 1-1.679.566c-.27.043-.56.064-.806-.059-.198-.098-.344-.279-.483-.453-.644-.81-1.311-1.67-1.481-2.698-.124-.75-.013-2.36.777-2.764.815-.416 1.68.682 2.069 1.259"/>
        <path fill="#FDFDFB" d="M5.712 7.499c.111.487.469.873.813 1.232L8.12 10.4c.377.394.767.798 1.265 1.013.523.227 1.111.222 1.68.214.623-.009 1.367-.09 1.653-.651.161-.316.12-.697.036-1.043-.29-1.208-1.016-2.257-1.782-3.228-.48-.61-1-1.215-1.675-1.59-.692-.383-1.782-.527-2.46-.028-.66.485-1.316 1.576-1.125 2.412"/>
        <path fill="#FDF1E3" d="M9.747 1.14c-.747.188-1.566.007-2.281.296-.728.294-1.206 1.036-1.396 1.807-.19.771-.135 1.58-.079 2.373.004.055.01.113.044.156.044.054.12.064.19.07 1.336.099 2.713-.314 4.001.058.474.137.92.377 1.409.442.488.065 1.062-.11 1.253-.57.077-.185.082-.391.086-.59L13.07.66c.003-.15.005-.308-.071-.436-.469-.795-2.686.775-3.252.917"/>
        <path fill="#FDFDFB" d="M13.988.145c1.103-.129 1.94.971 2.982 1.362.812.305 1.735.165 2.553.454.914.322 1.587 1.156 1.923 2.075.336.92.375 1.923.34 2.903-.016.479-.053.968-.243 1.406-.361.828-1.227 1.338-2.105 1.503-1.85.347-3.675-.592-5.33-1.5-.215-.119-.434-.24-.599-.423-.162-.18-.26-.408-.371-.624-.18-.351-.4-.681-.652-.982-.133-.157-.277-.31-.356-.501-.072-.173-.085-.363-.098-.55-.072-1.1-.128-2.228.11-3.313.255-1.166.627-1.667 1.846-1.81"/>
        <path fill="#E1846A" d="M21.166 8.728c-1.113-.052-2.248.178-3.334-.074-1.623-.375-2.826-1.74-4.317-2.489-1.249-.627-2.663-.806-4.046-.975-1.116-.136-2.393-.223-3.212.557.592.973 2.153.344 3.148.88.774.417 1.001 1.412 1.147 2.288l.346 2.073c.069.408.141.829.358 1.18.508.822 1.611.995 2.568.967 1.357-.04 2.696-.317 4.027-.593l1.91-.397c.977-.203 3.585-.363 3.857-1.605.285-1.302-1.543-1.77-2.452-1.812"/>
        <path fill="#FDFDFB" d="M2.67 3.508c-1.04.89-1.796 2.34-1.866 3.92-.008.179-.004.372.08.52.087.158.244.23.392.282.857.3 1.787.274 2.59.758.653.395 1.155 1.088 1.723 1.653.569.564 1.295 1.024 1.993.816.57-.17 1.005-.768 1.227-1.44.223-.673.262-1.42.274-2.151.01-.674-.002-1.358-.157-2.007-.303-1.267-1.23-3.83-2.494-3.87-1.17-.038-2.83.723-3.761 1.519"/>
        <path fill="#31201D" d="M9.763 54.696a.372.372 0 0 1 .204.022c.068.035.108.108.14.178.17.389.17.83.167 1.256-.002.337-.016.708-.239.958-.125.141-.301.224-.472.303-.329.151-.665.305-1.025.341-.359.037-.752-.063-.982-.346-.187-.229-.241-.54-.25-.838-.015-.516.102-1.674.6-1.993.452-.288 1.288.167 1.857.119"/>
        <path fill="#88604C" d="M13.474 15.577c.26.639.653 1.222 1.147 1.698-.441 1.19-1.62 2.057-2.871 2.113-.44.02-.932-.08-1.192-.441-.122-.17-.178-.377-.23-.579-.12-.463-.336-1.133-.118-1.594.193-.41.456-.626.543-1.113.213-.011 2.73-.06 2.72-.084"/>
        <path fill="#B78865" d="M9.377 49.51c.198-1.05.259-2.12.35-3.184.143-1.68.363-3.356.657-5.016.047-.266.108-.553.311-.726.223-.19.544-.184.834-.17.796.043 1.754.194 2.06.94.172.419.068.896-.04 1.337a142.495 142.495 0 0 1-3.44 11.83c-.519 1.533-2.005 2.406-1.881.126.095-1.755.827-3.423 1.15-5.138"/>
        <path fill="#21160A" d="M9.707 14.916c.271.65.791 1.19 1.426 1.478a2.783 2.783 0 0 0 2.038.098c.385-.132.745-.356 1-.676.254-.321.394-.744.335-1.152-.022-.146-2.497-.18-2.747-.186a32.995 32.995 0 0 0-1.377-.008c-.47.007-.919-.138-.675.446"/>
        <path fill="#057158" d="M10.33 41.031a25.405 25.405 0 0 1-3.553-10.49c-.025-.231-.037-.491.114-.665.168-.193.461-.192.714-.17 3.012.251 6.01 1.184 9.006.773a49.1 49.1 0 0 1-1.444 7.557c-.224.817-.476 1.643-.948 2.343-.875 1.295-2.864 2.333-3.89.652"/>
        <path fill="#E1846A" d="M6.245 27.756c-.093.782-.11 1.632.317 2.29.463.711 1.325 1.021 2.136 1.245a25.57 25.57 0 0 0 4.148.782c.688.071 1.39.114 2.063-.048.672-.162 1.318-.557 1.644-1.175.392-.742.273-1.645-.557-1.732-1.033-.107-2.175.202-3.244.116-2.224-.177-4.388-.802-6.507-1.478"/>
        <path fill="#B78865" d="M7.675 13.881l-1.94-.118a9.683 9.683 0 0 0 .672 5.297c.259.6.583 1.184.674 1.832.06.426.016.863.092 1.286.075.424.313.86.72.986.325.1.687-.027.95-.248.262-.221.442-.524.612-.823.345-.609.673-1.251.744-1.95.26-2.53-2.187-3.916-2.524-6.262"/>
        <path fill="#FFF" d="M7.19 22.498a1.44 1.44 0 0 0 1.89-.955c.434-1.491.385-3.166.567-4.742.026-.23.172-.534.385-.452.073.028.122.098.16.168.38.694.197 1.7.813 2.189.557.44 1.386.132 1.935-.319.55-.45 1.03-1.049 1.714-1.228a.5.5 0 0 1 .248-.016c.35.09.253.62.092.948a11.365 11.365 0 0 0-1.152 4.637c-.02.664.173 1.518.822 1.61.478.069 1.324.235 1.39.042.063-.184.147.355.159.55l.213 3.617c.016.273.023.576-.15.786-.177.214-.48.258-.753.286-2.721.285-5.613.54-8.061-.698-.37-.186-1.043-.532-1.182-.967-.142-.45.2-1.12.307-1.575.301-1.275.503-2.574.604-3.881"/>
        <path fill="#B78865" d="M17.29 16.136c.629-.662 1.127-1.45 1.813-2.051.992-.87 2.308-1.279 3.611-1.424a.605.605 0 0 1 .231.005c.362.103.253.655.05.975-1.011 1.598-2.437 2.875-3.64 4.33a18.88 18.88 0 0 0-3.043 5.195c-.26.67-.559 1.436-1.228 1.677-.475.172-1.025.006-1.408-.327-.383-.334-.619-.812-.768-1.3-.498-1.64-.014-3.414 1.059-4.7.924-1.108 2.343-1.347 3.323-2.38"/>
        <path fill="#BF9D95" d="M10.826 10.524c2.64.54 5.375.814 8.025.324 2.65-.49 5.222-1.807 6.846-3.986.421.871.138 1.907-.151 2.832-.465 1.487-.99 3.065-2.195 4.035-.784.632-1.775.933-2.755 1.148-3.752.824-7.643.571-11.474.315-1.377-.092-2.774-.188-4.073-.66-1.617-.587-2.986-1.79-3.867-3.276-.516-.872-1.787-5.335-.717-4.472C2.242 8.217 4.29 9.087 5.296 9.38c2.673.774 3.552.74 5.53 1.145"/>
        <path fill="#31201D" d="M13.927 51.583c.046.282-.013.57-.073.85l-.214 1.01a.762.762 0 0 1-.1.284c-.127.181-.374.214-.592.23-.209.017-.456.016-.58-.155-.075-.105-.079-.244-.08-.374l-.016-1.621c-.004-.43.019-1.916.752-1.872.436.026.847 1.301.903 1.648"/>
    </g>
</svg>
