<svg xmlns="http://www.w3.org/2000/svg" xmlns:xlink="http://www.w3.org/1999/xlink" width="46" height="73" viewBox="0 0 46 73">
    <defs>
        <path id="a" d="M.2.447h7.175v15.17H.2z"/>
        <path id="c" d="M.151.085h6.65v6.659H.15z"/>
    </defs>
    <g fill="none" fill-rule="evenodd">
        <path fill="#F2E2D9" d="M2.977 32.588c-.067 3.955-.264 7.908-.3 11.864-.017 1.978.008 3.966.336 5.917.253 1.499.683 2.963.98 4.454.257 1.3.413 2.62.768 3.897.356 1.275.932 2.526 1.896 3.439.103.097.22.194.36.206.286.026.469-.288.576-.553L8.81 58.8c.353-.871.706-1.744.967-2.646.318-1.097.498-2.228.656-3.358.333-2.397.568-4.807.701-7.224.11-1.963.152-3.933.393-5.884.369-2.985 1.2-5.943 1.034-8.946-3.414.78-6.61 2.64-10.111 2.694"/>
        <path fill="#E4DAD7" d="M7.55 60.639c-.196.67-.409 1.352-.371 2.048.076 1.417 1.215 2.618 2.545 3.127 1.33.51 2.813.44 4.219.208 1.782-.296 3.737-1.031 4.418-2.698.316-.773.304-1.633.316-2.468.093-6.434 1.899-12.875.913-19.234-.17-1.097-.422-2.195-.357-3.303.05-.842.28-1.705.039-2.513-.281-.94-1.133-1.58-1.956-2.119-1.874-1.226-4.33-2.415-6.469-1.068-1.526.961-.814 2.545-.79 4.045.079 5.152-.072 10.351-.749 15.464-.38 2.874-.943 5.727-1.758 8.51"/>
        <path fill="#D3B9A5" d="M7.352 8.894c-.18.628-.419 1.252-.442 1.906a.603.603 0 0 0 .047.302c.082.157.27.222.442.265.595.148 1.209.194 1.82.238.996.073 2.044.137 2.95-.283.283-.132.555-.32.697-.598.107-.212.128-.455.148-.692l.33-4.023c.008-.101.014-.212-.045-.296-.064-.09-.184-.12-.293-.143-.865-.179-1.731-.354-2.597-.526-.547-.108-1.834-.62-2.345-.367-.52.256-.272 1.374-.3 1.834a11.239 11.239 0 0 1-.412 2.383"/>
        <path fill="#2B1D42" d="M3.465 15.116C2.499 16.573 1.942 18.274 1.683 20c-.09.602-.145 1.209-.262 1.806-.12.61-.304 1.204-.483 1.799-.443 1.475-.86 2.975-.929 4.514-.027.6 0 1.208.15 1.79.147.57.408 1.102.667 1.63.387.788.78 1.587 1.36 2.246.178.203.403.404.672.399.376-.007.615-.393.764-.737 1.24-2.86 1.32-6.075 2.16-9.077.158-.566.343-1.124.496-1.69.276-1.02.447-2.065.617-3.107l1.002-6.122c.1-.607.417-1.438-.472-1.43-.709.006-1.431.543-1.965.949a8.818 8.818 0 0 0-1.995 2.146M19.667 16.263c.368.663.31 1.466.308 2.223-.005 2.133.511 4.232.721 6.355.334 3.378-.112 6.794-.924 10.09-.072.29-.15.588-.324.833-.272.385-.78.59-1.245.502-.85-.16-1.275-1.095-1.54-1.915a43.957 43.957 0 0 1-1.453-5.855c-.114-.642-.213-1.293-.183-1.945.034-.752.24-1.484.367-2.227.345-2.019.117-4.144.8-6.075.22-.622.53-1.208.849-1.785.242-.438.699-1.305 1.29-1.31.508-.005 1.111.709 1.334 1.109"/>
        <path fill="#D2E7F9" d="M29.982 70.163c0 .378 0 .76.087 1.127.02.087.057.184.141.213.077.025.159-.018.227-.062.902-.577 1.615-1.398 2.315-2.206l.962-1.11c.07-.081.144-.172.149-.279.004-.093-.045-.179-.093-.26a25.391 25.391 0 0 0-1.686-2.474c.043.056-1.894 1.55-2.024 1.903-.144.393-.075.887-.075 1.293l-.003 1.855"/>
        <path fill="#7C7498" d="M25.456 64.327c0 .72.024 1.492.456 2.069.719.958 2.152.905 3.345.758l1.677-.209c.519-.064 1.069-.142 1.47-.475.512-.424.646-1.146.697-1.808.244-3.15-.57-6.494.734-9.375.411 1.336.268 2.766.246 4.162-.028 1.796.151 3.59.432 5.365.216 1.364.59 2.868 1.759 3.611 1.352.86 3.158.305 4.536-.514 1.241-.738 2.385-1.701 3.098-2.953.477-.838.747-1.778.915-2.726.87-4.91-.909-9.843-2.05-14.699a58.263 58.263 0 0 1-1.428-9.65c-.036-.555-.087-1.168-.487-1.558-.238-.231-.564-.345-.88-.447a27.316 27.316 0 0 0-8.403-1.3c-2.034.007-3.048.587-3.498 2.595-1.248 5.565-1.857 11.36-2.262 17.04-.24 3.366-.359 6.74-.357 10.114"/>
        <path fill="#C48E82" d="M31.367 7.278c-.039.293-.06.598.034.878.111.331.368.588.609.841.421.441.817.907 1.185 1.392.266.352.537.729.94.905.235.103.495.128.75.138.328.013.666.002.964-.131.27-.12.488-.33.673-.559.55-.678.848-1.533.984-2.396.136-.862.12-1.74.103-2.613-.995-.066-1.992.03-2.99.044-.436.006-.874-.004-1.308-.05-.38-.041-.804-.219-1.182-.2-.656.03-.7 1.272-.762 1.75"/>
        <path fill="#301D44" d="M39.091 12.693c-.395-.495-.644-1.155-1.215-1.43-.376-.182-.817-.154-1.234-.116-1.431.133-2.982.406-3.938 1.476-1.697 1.901-.568 4.615-.74 6.835a50.33 50.33 0 0 1-1.53 8.991c-.48 1.812-1.069 3.646-.943 5.515.054.8.311 1.117 1.042 1.184.834.077 1.646.295 2.476.484 1.783.408 3.58.759 5.384 1.052.542.088 1.146.158 1.597-.153.36-.248.534-.682.682-1.092a42.796 42.796 0 0 0 2.519-13.518c.05-2.123.259-4.9-.403-6.943-.602-1.857-2.547-.846-3.697-2.285"/>
        <path fill="#200F35" d="M29.011 14.554c-.401.426-.559 1.02-.682 1.59-.486 2.243-.691 4.567-1.565 6.69-.42 1.02-.991 1.983-1.298 3.043-.692 2.387.03 4.929.75 7.308.222.735.503 1.544 1.184 1.904.723.38 1.603.105 2.371-.176.218-.08.441-.164.613-.319.204-.184.312-.45.395-.711.446-1.398.362-2.903.6-4.35.18-1.092.543-2.144.82-3.215.941-3.626.9-7.423.854-11.169-.02-1.612-3.146-1.546-4.042-.595"/>
        <g transform="translate(38.333 11.843)">
            <mask id="b" fill="#fff">
                <use xlink:href="#a"/>
            </mask>
            <path fill="#200F35" d="M2.369.876c.693.155 1.407.326 1.98.745.758.555 1.16 1.462 1.49 2.34a32.212 32.212 0 0 1 1.404 4.87c.092.445.174.902.11 1.353-.059.413-.237.798-.415 1.175-.416.882-.843 1.76-1.28 2.632-.21.419-.428.845-.766 1.17-.338.324-.824.535-1.281.428.35-2.687.586-5.425.14-8.098A13.341 13.341 0 0 0 2.517 3.66a10.703 10.703 0 0 0-1.08-1.717C1.15 1.573.224.895.198.473c.588-.13 1.56.265 2.17.403" mask="url(#b)"/>
        </g>
        <path fill="#A29798" d="M33.651 66.831c-.98 1.276-1.968 2.558-3.143 3.66-.645.605-1.417 1.18-2.302 1.192-.107.424.151.886.54 1.09.388.204.87.174 1.272 0 .402-.175.734-.48 1.016-.815.282-.334.523-.702.797-1.042.377-.47.816-.89 1.195-1.357.22-.272.42-.56.62-.848l.564-.812c.124-.18.251-.366.287-.58.043-.258-.07-.697-.273-.878-.255-.227-.404.172-.573.39M36.857 70.22c.365-.292.968.038 1.357-.223.198-.132.278-.38.329-.613.105-.485.14-.986.103-1.481-.005-.072-.015-.15-.068-.198a.291.291 0 0 0-.133-.056c-.56-.134-1.13-.234-1.702-.301-.386-.045-.928-.187-1.141.247-.201.41.119.836.32 1.172.296.494.608.98.935 1.454"/>
        <path fill="#200F35" d="M32.516 3.817c.611-.745 1.287-1.435 1.96-2.123a.839.839 0 0 1 .18-.152c.25-.14.572.012.767.222.196.21.329.478.554.656.357.285.87.288 1.26.53.37.23.581.656.668 1.084.085.428.065.868.079 1.304.01.317.036.639-.043.945-.08.307-.293.602-.601.678-.14.034-.287.022-.43.008-1.04-.095-2.082-.189-3.119-.313-.57-.068-1.147-.152-1.723-.122-.29.016-.893.15-1.134-.047-.44-.36 1.298-2.325 1.582-2.67"/>
        <path fill="#4B3B63" d="M7.377 10.89a2.812 2.812 0 0 0-.381 1.439c-.366-.216-.864.027-1.073.396-.21.367-.21.814-.206 1.237.015 2.19-.037 4.379-.09 6.567-.032 1.342-.065 2.689-.295 4.01-.274 1.58-.826 3.097-1.306 4.628a53.69 53.69 0 0 0-1.263 4.78c2.367.71 4.875.76 7.347.803 1.982.035 3.989.068 5.921-.376.177-.04.362-.09.493-.216.216-.208.215-.548.196-.846a48.235 48.235 0 0 0-.619-5.192c-.178-1.018-.389-2.036-.395-3.069-.017-3.109 1.79-5.889 2.892-8.798.16-.423.3-.919.068-1.307-.144-.242-.405-.387-.653-.52l-2.798-1.506c-.333-.179-.68-.372-.874-.694-.163-.271-.203-.61-.41-.85-.235-.27-.624-.34-.981-.383-1.064-.124-2.102-.084-3.168-.06-.383.009-2.273-.27-2.405-.044"/>
        <g transform="translate(7.188 .392)">
            <mask id="d" fill="#fff">
                <use xlink:href="#c"/>
            </mask>
            <path fill="#2B1D42" d="M1.104 5.804l-.873-.06c-.095-.86-.18-1.777.21-2.551.165-.328.406-.61.646-.888C1.737 1.548 2.4.78 3.232.225c.125-.083.27-.164.416-.134.09.019.167.079.24.136.804.642 1.63 1.307 2.125 2.207.436.79.584 1.7.724 2.59.045.285.09.576.045.86-.046.285-.2.568-.458.697a1.322 1.322 0 0 1-.466.108A12.044 12.044 0 0 1 .38 5.937" mask="url(#d)"/>
        </g>
        <path fill="#BC6343" d="M10.854 64.375c.018.373.135.732.25 1.087l1.263 3.869c.056.17.116.348.252.466.118.102.277.143.43.17a3.292 3.292 0 0 0 1.938-.253c.335-.155.663-.395.768-.748.111-.377-.06-.774-.212-1.138a12.213 12.213 0 0 1-.866-3.414c-.122-1.173-.436-2.357-1.891-2.271-1.065.063-1.981 1.186-1.932 2.232"/>
    </g>
</svg>
