<svg xmlns="http://www.w3.org/2000/svg" xmlns:xlink="http://www.w3.org/1999/xlink" width="13" height="47" viewBox="0 0 13 47">
    <defs>
        <path id="a" d="M1.807.535c-.406.181-.316.55-.315.944a39.317 39.317 0 0 1-.35 5.31C1.04 7.538.914 8.292.645 9c-.195.51-.466 1-.528 1.542-.05.433.037.869.125 1.296.044.219.11.466.307.566.16.081.36.033.502-.077.14-.11.233-.272.31-.434.542-1.13.537-2.442.867-3.652.206-.755.543-1.468.751-2.222.15-.544.232-1.106.295-1.667a25.1 25.1 0 0 0 .107-4.32C2.867.196 2.3.314 1.807.535"/>
        <path id="c" d="M.026.03h9.126v7.448H.026z"/>
        <path id="e" d="M1.862.877c-.37.397-.568.925-.735 1.444C.679 3.71.382 5.147.085 6.578a4.375 4.375 0 0 1 2.18.81l.356-.985c.61 1.11.552 2.48.232 3.707-.32 1.228-.88 2.379-1.241 3.594a14.146 14.146 0 0 0-.486 2.497l1.287.984c.222.17.447.341.702.455.252.112.525.165.798.195 1.776.192 3.549-.587 4.92-1.74.18-.151.358-.314.46-.526.078-.165.105-.35.13-.53.39-2.81.489-5.66.297-8.49.386-.112.797-.016 1.197.021.4.038.856-.006 1.116-.315.218-.257.238-.624.248-.963.02-.69.04-1.394-.153-2.057-.297-1.023-1.09-1.858-2.034-2.333C9.149.427 8.064.287 7.01.358c.198.34.03.772-.15 1.124-.465.906-1.062 1.836-2.005 2.204l-.43-1.613c-.12-.45-.172-1.226-.43-1.608-.132-.194-.346-.27-.59-.27-.556 0-1.272.392-1.544.682"/>
        <path id="g" d="M1.862.877c-.37.397-.568.925-.735 1.444C.679 3.71.382 5.147.085 6.578a4.375 4.375 0 0 1 2.18.81l.356-.985c.61 1.11.552 2.48.232 3.707-.32 1.228-.88 2.379-1.241 3.594a14.146 14.146 0 0 0-.486 2.497l1.287.984c.222.17.447.341.702.455.252.112.525.165.798.195 1.776.192 3.549-.587 4.92-1.74.18-.151.358-.314.46-.526.078-.165.105-.35.13-.53.39-2.81.489-5.66.297-8.49.386-.112.797-.016 1.197.021.4.038.856-.006 1.116-.315.218-.257.238-.624.248-.963.02-.69.04-1.394-.153-2.057-.297-1.023-1.09-1.858-2.034-2.333C9.149.427 8.064.287 7.01.358c.198.34.03.772-.15 1.124-.465.906-1.062 1.836-2.005 2.204l-.43-1.613c-.12-.45-.172-1.226-.43-1.608-.132-.194-.346-.27-.59-.27-.556 0-1.272.392-1.544.682"/>
        <path id="i" d="M1.862.877c-.37.397-.568.925-.735 1.444C.679 3.71.382 5.147.085 6.578a4.375 4.375 0 0 1 2.18.81l.356-.985c.61 1.11.552 2.48.232 3.707-.32 1.228-.88 2.379-1.241 3.594a14.146 14.146 0 0 0-.486 2.497l1.287.984c.222.17.447.341.702.455.252.112.525.165.798.195 1.776.192 3.549-.587 4.92-1.74.18-.151.358-.314.46-.526.078-.165.105-.35.13-.53.39-2.81.489-5.66.297-8.49.386-.112.797-.016 1.197.021.4.038.856-.006 1.116-.315.218-.257.238-.624.248-.963.02-.69.04-1.394-.153-2.057-.297-1.023-1.09-1.858-2.034-2.333C9.149.427 8.064.287 7.01.358c.198.34.03.772-.15 1.124-.465.906-1.062 1.836-2.005 2.204l-.43-1.613c-.12-.45-.172-1.226-.43-1.608-.132-.194-.346-.27-.59-.27-.556 0-1.272.392-1.544.682"/>
        <path id="k" d="M1.862.877c-.37.397-.568.925-.735 1.444C.679 3.71.382 5.147.085 6.578a4.375 4.375 0 0 1 2.18.81l.356-.985c.61 1.11.552 2.48.232 3.707-.32 1.228-.88 2.379-1.241 3.594a14.146 14.146 0 0 0-.486 2.497l1.287.984c.222.17.447.341.702.455.252.112.525.165.798.195 1.776.192 3.549-.587 4.92-1.74.18-.151.358-.314.46-.526.078-.165.105-.35.13-.53.39-2.81.489-5.66.297-8.49.386-.112.797-.016 1.197.021.4.038.856-.006 1.116-.315.218-.257.238-.624.248-.963.02-.69.04-1.394-.153-2.057-.297-1.023-1.09-1.858-2.034-2.333C9.149.427 8.064.287 7.01.358c.198.34.03.772-.15 1.124-.465.906-1.062 1.836-2.005 2.204l-.43-1.613c-.12-.45-.172-1.226-.43-1.608-.132-.194-.346-.27-.59-.27-.556 0-1.272.392-1.544.682"/>
        <path id="m" d="M1.862.877c-.37.397-.568.925-.735 1.444C.679 3.71.382 5.147.085 6.578a4.375 4.375 0 0 1 2.18.81l.356-.985c.61 1.11.552 2.48.232 3.707-.32 1.228-.88 2.379-1.241 3.594a14.146 14.146 0 0 0-.486 2.497l1.287.984c.222.17.447.341.702.455.252.112.525.165.798.195 1.776.192 3.549-.587 4.92-1.74.18-.151.358-.314.46-.526.078-.165.105-.35.13-.53.39-2.81.489-5.66.297-8.49.386-.112.797-.016 1.197.021.4.038.856-.006 1.116-.315.218-.257.238-.624.248-.963.02-.69.04-1.394-.153-2.057-.297-1.023-1.09-1.858-2.034-2.333C9.149.427 8.064.287 7.01.358c.198.34.03.772-.15 1.124-.465.906-1.062 1.836-2.005 2.204l-.43-1.613c-.12-.45-.172-1.226-.43-1.608-.132-.194-.346-.27-.59-.27-.556 0-1.272.392-1.544.682"/>
        <path id="o" d="M1.862.877c-.37.397-.568.925-.735 1.444C.679 3.71.382 5.147.085 6.578a4.375 4.375 0 0 1 2.18.81l.356-.985c.61 1.11.552 2.48.232 3.707-.32 1.228-.88 2.379-1.241 3.594a14.146 14.146 0 0 0-.486 2.497l1.287.984c.222.17.447.341.702.455.252.112.525.165.798.195 1.776.192 3.549-.587 4.92-1.74.18-.151.358-.314.46-.526.078-.165.105-.35.13-.53.39-2.81.489-5.66.297-8.49.386-.112.797-.016 1.197.021.4.038.856-.006 1.116-.315.218-.257.238-.624.248-.963.02-.69.04-1.394-.153-2.057-.297-1.023-1.09-1.858-2.034-2.333C9.149.427 8.064.287 7.01.358c.198.34.03.772-.15 1.124-.465.906-1.062 1.836-2.005 2.204l-.43-1.613c-.12-.45-.172-1.226-.43-1.608-.132-.194-.346-.27-.59-.27-.556 0-1.272.392-1.544.682"/>
        <path id="q" d="M1.862.877c-.37.397-.568.925-.735 1.444C.679 3.71.382 5.147.085 6.578a4.375 4.375 0 0 1 2.18.81l.356-.985c.61 1.11.552 2.48.232 3.707-.32 1.228-.88 2.379-1.241 3.594a14.146 14.146 0 0 0-.486 2.497l1.287.984c.222.17.447.341.702.455.252.112.525.165.798.195 1.776.192 3.549-.587 4.92-1.74.18-.151.358-.314.46-.526.078-.165.105-.35.13-.53.39-2.81.489-5.66.297-8.49.386-.112.797-.016 1.197.021.4.038.856-.006 1.116-.315.218-.257.238-.624.248-.963.02-.69.04-1.394-.153-2.057-.297-1.023-1.09-1.858-2.034-2.333C9.149.427 8.064.287 7.01.358c.198.34.03.772-.15 1.124-.465.906-1.062 1.836-2.005 2.204l-.43-1.613c-.12-.45-.172-1.226-.43-1.608-.132-.194-.346-.27-.59-.27-.556 0-1.272.392-1.544.682"/>
        <path id="s" d="M1.862.877c-.37.397-.568.925-.735 1.444C.679 3.71.382 5.147.085 6.578a4.375 4.375 0 0 1 2.18.81l.356-.985c.61 1.11.552 2.48.232 3.707-.32 1.228-.88 2.379-1.241 3.594a14.146 14.146 0 0 0-.486 2.497l1.287.984c.222.17.447.341.702.455.252.112.525.165.798.195 1.776.192 3.549-.587 4.92-1.74.18-.151.358-.314.46-.526.078-.165.105-.35.13-.53.39-2.81.489-5.66.297-8.49.386-.112.797-.016 1.197.021.4.038.856-.006 1.116-.315.218-.257.238-.624.248-.963.02-.69.04-1.394-.153-2.057-.297-1.023-1.09-1.858-2.034-2.333C9.149.427 8.064.287 7.01.358c.198.34.03.772-.15 1.124-.465.906-1.062 1.836-2.005 2.204l-.43-1.613c-.12-.45-.172-1.226-.43-1.608-.132-.194-.346-.27-.59-.27-.556 0-1.272.392-1.544.682"/>
        <path id="u" d="M1.862.877c-.37.397-.568.925-.735 1.444C.679 3.71.382 5.147.085 6.578a4.375 4.375 0 0 1 2.18.81l.356-.985c.61 1.11.552 2.48.232 3.707-.32 1.228-.88 2.379-1.241 3.594a14.146 14.146 0 0 0-.486 2.497l1.287.984c.222.17.447.341.702.455.252.112.525.165.798.195 1.776.192 3.549-.587 4.92-1.74.18-.151.358-.314.46-.526.078-.165.105-.35.13-.53.39-2.81.489-5.66.297-8.49.386-.112.797-.016 1.197.021.4.038.856-.006 1.116-.315.218-.257.238-.624.248-.963.02-.69.04-1.394-.153-2.057-.297-1.023-1.09-1.858-2.034-2.333C9.149.427 8.064.287 7.01.358c.198.34.03.772-.15 1.124-.465.906-1.062 1.836-2.005 2.204l-.43-1.613c-.12-.45-.172-1.226-.43-1.608-.132-.194-.346-.27-.59-.27-.556 0-1.272.392-1.544.682"/>
        <path id="w" d="M1.862.877c-.37.397-.568.925-.735 1.444C.679 3.71.382 5.147.085 6.578a4.375 4.375 0 0 1 2.18.81l.356-.985c.61 1.11.552 2.48.232 3.707-.32 1.228-.88 2.379-1.241 3.594a14.146 14.146 0 0 0-.486 2.497l1.287.984c.222.17.447.341.702.455.252.112.525.165.798.195 1.776.192 3.549-.587 4.92-1.74.18-.151.358-.314.46-.526.078-.165.105-.35.13-.53.39-2.81.489-5.66.297-8.49.386-.112.797-.016 1.197.021.4.038.856-.006 1.116-.315.218-.257.238-.624.248-.963.02-.69.04-1.394-.153-2.057-.297-1.023-1.09-1.858-2.034-2.333C9.149.427 8.064.287 7.01.358c.198.34.03.772-.15 1.124-.465.906-1.062 1.836-2.005 2.204l-.43-1.613c-.12-.45-.172-1.226-.43-1.608-.132-.194-.346-.27-.59-.27-.556 0-1.272.392-1.544.682"/>
        <path id="y" d="M1.862.877c-.37.397-.568.925-.735 1.444C.679 3.71.382 5.147.085 6.578a4.375 4.375 0 0 1 2.18.81l.356-.985c.61 1.11.552 2.48.232 3.707-.32 1.228-.88 2.379-1.241 3.594a14.146 14.146 0 0 0-.486 2.497l1.287.984c.222.17.447.341.702.455.252.112.525.165.798.195 1.776.192 3.549-.587 4.92-1.74.18-.151.358-.314.46-.526.078-.165.105-.35.13-.53.39-2.81.489-5.66.297-8.49.386-.112.797-.016 1.197.021.4.038.856-.006 1.116-.315.218-.257.238-.624.248-.963.02-.69.04-1.394-.153-2.057-.297-1.023-1.09-1.858-2.034-2.333C9.149.427 8.064.287 7.01.358c.198.34.03.772-.15 1.124-.465.906-1.062 1.836-2.005 2.204l-.43-1.613c-.12-.45-.172-1.226-.43-1.608-.132-.194-.346-.27-.59-.27-.556 0-1.272.392-1.544.682"/>
        <path id="A" d="M1.862.877c-.37.397-.568.925-.735 1.444C.679 3.71.382 5.147.085 6.578a4.375 4.375 0 0 1 2.18.81l.356-.985c.61 1.11.552 2.48.232 3.707-.32 1.228-.88 2.379-1.241 3.594a14.146 14.146 0 0 0-.486 2.497l1.287.984c.222.17.447.341.702.455.252.112.525.165.798.195 1.776.192 3.549-.587 4.92-1.74.18-.151.358-.314.46-.526.078-.165.105-.35.13-.53.39-2.81.489-5.66.297-8.49.386-.112.797-.016 1.197.021.4.038.856-.006 1.116-.315.218-.257.238-.624.248-.963.02-.69.04-1.394-.153-2.057-.297-1.023-1.09-1.858-2.034-2.333C9.149.427 8.064.287 7.01.358c.198.34.03.772-.15 1.124-.465.906-1.062 1.836-2.005 2.204l-.43-1.613c-.12-.45-.172-1.226-.43-1.608-.132-.194-.346-.27-.59-.27-.556 0-1.272.392-1.544.682"/>
        <path id="C" d="M1.862.877c-.37.397-.568.925-.735 1.444C.679 3.71.382 5.147.085 6.578a4.375 4.375 0 0 1 2.18.81l.356-.985c.61 1.11.552 2.48.232 3.707-.32 1.228-.88 2.379-1.241 3.594a14.146 14.146 0 0 0-.486 2.497l1.287.984c.222.17.447.341.702.455.252.112.525.165.798.195 1.776.192 3.549-.587 4.92-1.74.18-.151.358-.314.46-.526.078-.165.105-.35.13-.53.39-2.81.489-5.66.297-8.49.386-.112.797-.016 1.197.021.4.038.856-.006 1.116-.315.218-.257.238-.624.248-.963.02-.69.04-1.394-.153-2.057-.297-1.023-1.09-1.858-2.034-2.333C9.149.427 8.064.287 7.01.358c.198.34.03.772-.15 1.124-.465.906-1.062 1.836-2.005 2.204l-.43-1.613c-.12-.45-.172-1.226-.43-1.608-.132-.194-.346-.27-.59-.27-.556 0-1.272.392-1.544.682"/>
        <path id="E" d="M1.862.877c-.37.397-.568.925-.735 1.444C.679 3.71.382 5.147.085 6.578a4.375 4.375 0 0 1 2.18.81l.356-.985c.61 1.11.552 2.48.232 3.707-.32 1.228-.88 2.379-1.241 3.594a14.146 14.146 0 0 0-.486 2.497l1.287.984c.222.17.447.341.702.455.252.112.525.165.798.195 1.776.192 3.549-.587 4.92-1.74.18-.151.358-.314.46-.526.078-.165.105-.35.13-.53.39-2.81.489-5.66.297-8.49.386-.112.797-.016 1.197.021.4.038.856-.006 1.116-.315.218-.257.238-.624.248-.963.02-.69.04-1.394-.153-2.057-.297-1.023-1.09-1.858-2.034-2.333C9.149.427 8.064.287 7.01.358c.198.34.03.772-.15 1.124-.465.906-1.062 1.836-2.005 2.204l-.43-1.613c-.12-.45-.172-1.226-.43-1.608-.132-.194-.346-.27-.59-.27-.556 0-1.272.392-1.544.682"/>
        <path id="G" d="M1.862.877c-.37.397-.568.925-.735 1.444C.679 3.71.382 5.147.085 6.578a4.375 4.375 0 0 1 2.18.81l.356-.985c.61 1.11.552 2.48.232 3.707-.32 1.228-.88 2.379-1.241 3.594a14.146 14.146 0 0 0-.486 2.497l1.287.984c.222.17.447.341.702.455.252.112.525.165.798.195 1.776.192 3.549-.587 4.92-1.74.18-.151.358-.314.46-.526.078-.165.105-.35.13-.53.39-2.81.489-5.66.297-8.49.386-.112.797-.016 1.197.021.4.038.856-.006 1.116-.315.218-.257.238-.624.248-.963.02-.69.04-1.394-.153-2.057-.297-1.023-1.09-1.858-2.034-2.333C9.149.427 8.064.287 7.01.358c.198.34.03.772-.15 1.124-.465.906-1.062 1.836-2.005 2.204l-.43-1.613c-.12-.45-.172-1.226-.43-1.608-.132-.194-.346-.27-.59-.27-.556 0-1.272.392-1.544.682"/>
        <path id="I" d="M1.862.877c-.37.397-.568.925-.735 1.444C.679 3.71.382 5.147.085 6.578a4.375 4.375 0 0 1 2.18.81l.356-.985c.61 1.11.552 2.48.232 3.707-.32 1.228-.88 2.379-1.241 3.594a14.146 14.146 0 0 0-.486 2.497l1.287.984c.222.17.447.341.702.455.252.112.525.165.798.195 1.776.192 3.549-.587 4.92-1.74.18-.151.358-.314.46-.526.078-.165.105-.35.13-.53.39-2.81.489-5.66.297-8.49.386-.112.797-.016 1.197.021.4.038.856-.006 1.116-.315.218-.257.238-.624.248-.963.02-.69.04-1.394-.153-2.057-.297-1.023-1.09-1.858-2.034-2.333C9.149.427 8.064.287 7.01.358c.198.34.03.772-.15 1.124-.465.906-1.062 1.836-2.005 2.204l-.43-1.613c-.12-.45-.172-1.226-.43-1.608-.132-.194-.346-.27-.59-.27-.556 0-1.272.392-1.544.682"/>
        <path id="K" d="M1.862.877c-.37.397-.568.925-.735 1.444C.679 3.71.382 5.147.085 6.578a4.375 4.375 0 0 1 2.18.81l.356-.985c.61 1.11.552 2.48.232 3.707-.32 1.228-.88 2.379-1.241 3.594a14.146 14.146 0 0 0-.486 2.497l1.287.984c.222.17.447.341.702.455.252.112.525.165.798.195 1.776.192 3.549-.587 4.92-1.74.18-.151.358-.314.46-.526.078-.165.105-.35.13-.53.39-2.81.489-5.66.297-8.49.386-.112.797-.016 1.197.021.4.038.856-.006 1.116-.315.218-.257.238-.624.248-.963.02-.69.04-1.394-.153-2.057-.297-1.023-1.09-1.858-2.034-2.333C9.149.427 8.064.287 7.01.358c.198.34.03.772-.15 1.124-.465.906-1.062 1.836-2.005 2.204l-.43-1.613c-.12-.45-.172-1.226-.43-1.608-.132-.194-.346-.27-.59-.27-.556 0-1.272.392-1.544.682"/>
        <path id="M" d="M1.862.877c-.37.397-.568.925-.735 1.444C.679 3.71.382 5.147.085 6.578a4.375 4.375 0 0 1 2.18.81l.356-.985c.61 1.11.552 2.48.232 3.707-.32 1.228-.88 2.379-1.241 3.594a14.146 14.146 0 0 0-.486 2.497l1.287.984c.222.17.447.341.702.455.252.112.525.165.798.195 1.776.192 3.549-.587 4.92-1.74.18-.151.358-.314.46-.526.078-.165.105-.35.13-.53.39-2.81.489-5.66.297-8.49.386-.112.797-.016 1.197.021.4.038.856-.006 1.116-.315.218-.257.238-.624.248-.963.02-.69.04-1.394-.153-2.057-.297-1.023-1.09-1.858-2.034-2.333C9.149.427 8.064.287 7.01.358c.198.34.03.772-.15 1.124-.465.906-1.062 1.836-2.005 2.204l-.43-1.613c-.12-.45-.172-1.226-.43-1.608-.132-.194-.346-.27-.59-.27-.556 0-1.272.392-1.544.682"/>
        <path id="O" d="M.03.143h4.584v5.344H.03z"/>
    </defs>
    <g fill="none" fill-rule="evenodd">
        <path fill="#585282" d="M10.227 8.565c.332.17.598.446.847.725.719.808 1.361 1.722 1.64 2.771.154.578.193 1.18.223 1.778.113 2.234.102 4.542-.728 6.616-.056.14-.12.285-.239.379-.138.11-.324.128-.5.143-.214.019-.452.03-.62-.104-.15-.12-.204-.32-.249-.507l-.88-3.658c-.119-.498-.24-.997-.38-1.49-.155-.532-.334-1.057-.476-1.593-.137-.52-.238-1.05-.34-1.578l-.538-2.815c-.235-1.226 1.551-1.021 2.24-.667"/>
        <path fill="#CCB0B0" d="M9.65 20.595c-.101.751-.225 1.506-.495 2.212-.195.51-.466 1-.528 1.541-.05.434.038.87.125 1.297.044.219.11.466.307.566.16.081.36.033.502-.077.14-.11.233-.272.31-.434.542-1.13.537-2.442.867-3.652.207-.755.543-1.468.751-2.222.15-.545.232-1.106.295-1.667.16-1.434.195-2.88.107-4.32-.515.164-1.082.282-1.575.503-.406.182-.316.55-.315.944a39.217 39.217 0 0 1-.35 5.31"/>
        <g transform="translate(8.51 13.807)">
            <mask id="b" fill="#fff">
                <use xlink:href="#a"/>
            </mask>
            <path fill="#272231" d="M1.557 9.943c-.028-.273-.192-.654-.462-.703-.16-.029-.268.026-.342.12-.013-.013-.027-.025-.04-.04-.037-.044-.088-.149-.154-.157-.255-.033-.112.388-.03.48.028.031.062.056.094.082a1.626 1.626 0 0 0-.008.317c.003.04.006.08.024.115a.243.243 0 0 0 .113.1c.092.048.194.071.296.092.154.03.34.045.442-.076l.002-.003.05.03c.116.07.238.143.373.146a.396.396 0 0 0 .327-.165c-.037.053-.368-.137-.685-.338" mask="url(#b)"/>
        </g>
        <path fill="#CCB0B0" d="M1.396 22.437c.005.14.056.328.195.32a.261.261 0 0 0 .119-.05c.36-.228.74-.478.92-.868.1-.216.128-.458.147-.696a9.82 9.82 0 0 0-.1-2.366c-.101-.615-.261-1.221-.32-1.842-.075-.793.017-1.594-.031-2.39-.003-.045-.008-.095-.041-.127-.032-.03-.08-.035-.125-.037-.348-.015-1.503-.183-1.61.178-.074.251.024.676.042.938.02.312.05.623.083.934.14 1.296.37 2.58.535 3.872.09.708.161 1.42.186 2.134"/>
        <path fill="#262433" d="M1.905 32.761c.07.866.192 1.728.223 2.597.022.628-.002 1.256-.002 1.884 0 1.53.145 3.061.434 4.564.369.03.743-.006 1.1-.106.095-.027.198-.065.25-.151a.43.43 0 0 0 .042-.212 13046.615 13046.615 0 0 0 .158-5.657c.016-.554.031-1.11 0-1.664-.092-1.627-.585-3.246-.371-4.862.006-.046-1.26-.116-1.376-.116-.605 0-.558.138-.557.712.003 1.005.017 2.01.099 3.011"/>
        <path fill="#1A1725" d="M5.54 42.043l1.19-.039c.071-.002.148-.006.203-.052.047-.039.068-.1.088-.159.33-.993.663-1.996.768-3.037.058-.574.047-1.152.074-1.728.022-.45.067-.897.112-1.345l.515-5.086c-.02.19-2.292-.179-2.502-.048-.4.249-.113 2.024-.11 2.496a98.078 98.078 0 0 1-.339 8.998"/>
        <path fill="#272231" d="M.864 26.772a9.06 9.06 0 0 0-.253 3.213c.009.086.02.175.068.246.05.073.131.116.21.155.985.47 2.107.523 3.196.568.135.005.276.01.401-.042.347-.143.44-.649.792-.78l.256.799c.023.071.049.148.109.194.055.043.13.05.199.056l3.926.329c-.567-2.946-.776-5.949-.984-8.943a10.608 10.608 0 0 1-4.026 1.606c-.545.095-1.097.147-1.65.175-.416.022-1.087-.107-1.472.066-.338.154-.316.467-.372.797-.089.532-.263 1.041-.4 1.561"/>
        <path fill="#CCB0B0" d="M4.209 7.108l-.159 1.49c-.02.19-.04.385.021.565.046.138.137.256.2.387.156.324.137.7.165 1.06.034.423.14.84.309 1.228.023.053.051.11.102.138.08.044.178.001.257-.045.827-.483 1.41-1.287 1.97-2.069a1.06 1.06 0 0 0 .187-.345c.043-.17 0-.347-.039-.518a11.075 11.075 0 0 1-.275-2.325c-.94.034-1.886.067-2.816-.078"/>
        <path fill="#E5C6C6" d="M4.007 3.427c-.227.633-.226 1.323-.209 1.995.016.622.07 1.307.507 1.746.201.203.468.33.744.399 1.01.247 2.1-.332 2.67-1.21.57-.879.688-1.99.565-3.033C8.164 2.3 7.5.714 6.212.822c-.487.04-.793.529-1.075.875-.434.533-.894 1.073-1.13 1.73"/>
        <path fill="#1A1725" d="M7.305 3.686a.876.876 0 0 0-.057-.308.577.577 0 0 0-.344-.305.884.884 0 0 0-.423-.028l.014.094a.679.679 0 0 0-.191.056.728.728 0 0 0-.233.18.903.903 0 0 0-.221.504c-.075 0-.15-.003-.225-.006a.98.98 0 0 0-.156-.606.615.615 0 0 0-.181-.187c-.193-.124-.658-.138-.873-.028-.331.171-.316.64-.307.92l.002.038a.75.75 0 0 0 .046.28c.03.069.078.134.143.193a.787.787 0 0 0 .776.143.856.856 0 0 0 .491-.5c.1.004.2.01.3.01a.69.69 0 0 0 .49.514.854.854 0 0 0 .269.02.795.795 0 0 0 .348-.072.64.64 0 0 0 .312-.434c.038-.163.029-.33.02-.478"/>
        <g transform="translate(1.655 .208)">
            <mask id="d" fill="#fff">
                <use xlink:href="#c"/>
            </mask>
            <path fill="#2B2731" d="M8.991 3.91a13.182 13.182 0 0 1-1.828-2.045c-.294-.408-.574-.842-.977-1.14C5.89.51 5.354.244 4.977.356c-.108.031-.17.08-.2.14C4.545.185 4.12.017 3.748.03c-.535.02-1.021.337-1.379.738-.357.4-.608.884-.877 1.35-.383.667-.81 1.31-1.274 1.921-.086.115-.178.237-.19.38-.011.14.055.272.12.396.233.452.468.904.702 1.355.243.47.55.99 1.064 1.095.171.035.381 0 .461-.157a.491.491 0 0 0 .042-.195c.066-1.074-.407-2.17-.121-3.207.115-.417.347-.79.576-1.157.25-.402.509-.813.881-1.105a3 3 0 0 1 .752-.407c.15-.06.293-.082.363-.143.101.162.243.321.314.423.354.511.713 1.03.924 1.617.08.224.138.458.151.696.012.209-.012.418-.035.627l-.102.904c-.027.24-.054.48-.1.716a1.37 1.37 0 0 1-.147.443c-.146.247-.411.396-.595.615-.018.021-.036.045-.035.072 0 .035.03.062.056.084.172.14.353.278.563.346.21.068.46.055.631-.085.1-.081.164-.196.23-.307a6.57 6.57 0 0 1 .459-.668.796.796 0 0 1 .216-.21c.087-.051.189-.068.288-.087.185-.035.372-.078.537-.171a.713.713 0 0 0 .353-.426c.046-.18-.002-.37-.013-.556-.011-.186.032-.4.192-.492.134-.076.34-.069.389-.215.039-.116-.062-.228-.152-.31" mask="url(#d)"/>
        </g>
        <path fill="#CAC5C4" d="M1.862 8.959c-.37.396-.568.924-.735 1.443-.448 1.39-.745 2.826-1.042 4.257.781.067 1.543.35 2.18.81.12-.328.237-.656.355-.984.61 1.11.553 2.48.233 3.706-.32 1.228-.88 2.379-1.241 3.595a14.126 14.126 0 0 0-.486 2.496l1.287.984c.223.17.447.341.702.455.251.112.525.165.798.195 1.776.193 3.549-.587 4.92-1.74.18-.151.358-.314.459-.526.079-.165.106-.349.131-.53.389-2.81.489-5.66.297-8.49.387-.112.797-.016 1.198.022.4.038.855-.007 1.115-.316.218-.257.238-.624.248-.962.02-.691.04-1.395-.153-2.058-.297-1.023-1.089-1.858-2.034-2.333-.945-.475-2.03-.615-3.084-.544.2.34.03.772-.15 1.124-.464.906-1.06 1.836-2.004 2.204l-.43-1.612c-.12-.45-.173-1.227-.43-1.609-.43-.634-1.743-.006-2.134.413"/>
        <g>
            <g transform="translate(0 8.081)">
                <mask id="f" fill="#fff">
                    <use xlink:href="#e"/>
                </mask>
                <path fill="#B5AEAC" d="M1.813.945c.44-.002.874-.062 1.279.117.363.161.74.17 1.13.155.488-.02.49-.785 0-.767-.24.01-.497.033-.729-.046C3.321.345 3.18.242 3.001.2 2.628.114 2.193.177 1.813.178c-.488.003-.49.77 0 .767" mask="url(#f)"/>
            </g>
            <g transform="translate(0 8.081)">
                <mask id="h" fill="#fff">
                    <use xlink:href="#g"/>
                </mask>
                <path fill="#B5AEAC" d="M.553 1.963c.526.315 1.06.348 1.661.283.39-.042.768-.112 1.161-.076.323.03.613.106.94.078.484-.041.488-.808 0-.767-.517.044-1.02-.117-1.549-.07-.635.055-1.24.243-1.83-.11-.421-.252-.803.41-.383.662" mask="url(#h)"/>
            </g>
            <g transform="translate(0 8.081)">
                <mask id="j" fill="#fff">
                    <use xlink:href="#i"/>
                </mask>
                <path fill="#B5AEAC" d="M.2 3.327c.59.12 1.195.245 1.8.202.298-.021.596-.122.896-.072.261.044.496.18.763.219.478.07.684-.67.202-.74-.472-.068-.858-.294-1.347-.248-.75.07-1.367.051-2.113-.1-.477-.096-.681.642-.202.74" mask="url(#j)"/>
            </g>
            <g transform="translate(0 8.081)">
                <mask id="l" fill="#fff">
                    <use xlink:href="#k"/>
                </mask>
                <path fill="#B5AEAC" d="M-.109 4.351c1.022.153 1.975-.127 2.995.019.477.068.684-.67.201-.74-.488-.07-.99-.131-1.484-.07-.527.066-.972.133-1.51.052-.478-.07-.684.667-.202.74" mask="url(#l)"/>
            </g>
            <g transform="translate(0 8.081)">
                <mask id="n" fill="#fff">
                    <use xlink:href="#m"/>
                </mask>
                <path fill="#B5AEAC" d="M-.774 5.523c.459.298.777.348 1.309.28.579-.073 1.19-.024 1.773-.024.488 0 .49-.766 0-.766-.446 0-.892-.002-1.337 0-.502.002-.904.146-1.361-.152-.412-.268-.793.395-.384.662" mask="url(#n)"/>
            </g>
            <g transform="translate(0 8.081)">
                <mask id="p" fill="#fff">
                    <use xlink:href="#o"/>
                </mask>
                <path fill="#B5AEAC" d="M2.277 6.262C1.51 6.261.57 6.073-.08 6.56c-.389.291-.01.956.383.662.496-.371 1.376-.195 1.973-.193.488 0 .49-.766 0-.767" mask="url(#p)"/>
            </g>
            <g transform="translate(0 8.081)">
                <mask id="r" fill="#fff">
                    <use xlink:href="#q"/>
                </mask>
                <path fill="#B5AEAC" d="M8.098 1.34c.803-.257 1.592-.191 2.42-.202.7-.009 1.351-.131 2.023-.327.469-.136.27-.876-.202-.739C10.871.5 9.341.14 7.896.6c-.464.149-.266.889.202.74" mask="url(#r)"/>
            </g>
            <g transform="translate(0 8.081)">
                <mask id="t" fill="#fff">
                    <use xlink:href="#s"/>
                </mask>
                <path fill="#B5AEAC" d="M10.906 1.507c-.693-.026-1.382.054-2.076.008-.487-.031-.486.735 0 .767.694.045 1.383-.04 2.076-.009.64.028 1.215.322 1.85.323.49.001.49-.765 0-.766-.62-.002-1.216-.299-1.85-.323" mask="url(#t)"/>
            </g>
            <g transform="translate(0 8.081)">
                <mask id="v" fill="#fff">
                    <use xlink:href="#u"/>
                </mask>
                <path fill="#B5AEAC" d="M8.631 2.855a.351.351 0 0 0-.145.054c-.052-.24-.29-.43-.534-.244-1.127.866-2.352 1.268-3.736 1.492-.481.077-.277.816.202.739 1.44-.233 2.748-.67 3.918-1.57.015-.01.027-.024.04-.036.053.18.222.34.457.303 1.227-.19 2.588-.03 3.83-.028.488 0 .489-.766 0-.767-1.315 0-2.73-.146-4.032.057" mask="url(#v)"/>
            </g>
            <g transform="translate(0 8.081)">
                <mask id="x" fill="#fff">
                    <use xlink:href="#w"/>
                </mask>
                <path fill="#B5AEAC" d="M13.033 4.203c-1.214-.086-2.395-.206-3.615-.142a.374.374 0 0 0-.358.324.338.338 0 0 0-.323.027c-.365.22-.877.174-1.286.274-.41.099-.769.26-1.19.314-.948.124-1.947.046-2.902.052-.488.003-.49.77 0 .766.706-.004 1.445.04 2.169.017-.634.075-1.267.173-1.896.31-.477.102-.275.84.202.738 1.638-.353 3.297-.44 4.965-.51a.362.362 0 0 0 .336-.24c.066.158.223.277.436.222.845-.22 1.704-.191 2.568-.153.488.022.487-.744 0-.766-.935-.041-1.857-.057-2.77.18a.34.34 0 0 0-.238.195.326.326 0 0 0-.332-.204c-.734.03-1.466.067-2.196.125.524-.095 1.006-.305 1.537-.38.373-.054.649-.078.98-.279a.353.353 0 0 0 .178-.26.38.38 0 0 0 .12.014c1.22-.063 2.402.057 3.615.143.488.034.486-.732 0-.767" mask="url(#x)"/>
            </g>
            <g transform="translate(0 8.081)">
                <mask id="z" fill="#fff">
                    <use xlink:href="#y"/>
                </mask>
                <path fill="#B5AEAC" d="M10.428 7.306c-1.224-.15-2.461-.277-3.663.073-1.324.385-2.475.34-3.839.415-.486.026-.489.793 0 .766 1.145-.062 2.267.132 3.382-.21 1.414-.435 2.653-.457 4.12-.277.484.06.48-.708 0-.767" mask="url(#z)"/>
            </g>
            <g transform="translate(0 8.081)">
                <mask id="B" fill="#fff">
                    <use xlink:href="#A"/>
                </mask>
                <path fill="#B5AEAC" d="M2.215 9.583c1.382.014 2.766.026 4.14-.141 1.316-.16 2.59-.618 3.926-.495.486.044.483-.722 0-.767-1.233-.113-2.366.257-3.571.445-1.485.232-2.998.207-4.495.191-.488-.005-.489.762 0 .767" mask="url(#B)"/>
            </g>
            <g transform="translate(0 8.081)">
                <mask id="D" fill="#fff">
                    <use xlink:href="#C"/>
                </mask>
                <path fill="#B5AEAC" d="M10.846 9.97c-2.92-.464-5.853.346-8.813.145-.488-.033-.486.733 0 .766 1.453.099 2.905.095 4.355-.055 1.465-.152 2.776-.352 4.257-.117.478.076.683-.663.201-.74" mask="url(#D)"/>
            </g>
            <g transform="translate(0 8.081)">
                <mask id="F" fill="#fff">
                    <use xlink:href="#E"/>
                </mask>
                <path fill="#B5AEAC" d="M10.221 11.188c-1.735.074-3.293-.103-4.971.438-1.564.504-3.15.165-4.723.552-.475.117-.274.856.202.74 1.428-.352 2.897-.005 4.322-.424.855-.25 1.59-.513 2.502-.55.89-.037 1.778.048 2.668.01.487-.021.49-.787 0-.766" mask="url(#F)"/>
            </g>
            <g transform="translate(0 8.081)">
                <mask id="H" fill="#fff">
                    <use xlink:href="#G"/>
                </mask>
                <path fill="#B5AEAC" d="M9.911 12.6c-.788-.054-1.582-.107-2.364.036-.835.151-1.556.572-2.413.646-1.51.13-2.955-.04-4.462.269-.479.098-.276.836.202.739 1.574-.322 3.119-.063 4.684-.286.525-.075.994-.288 1.495-.447.96-.303 1.872-.258 2.858-.19.488.034.486-.733 0-.766" mask="url(#H)"/>
            </g>
            <g transform="translate(0 8.081)">
                <mask id="J" fill="#fff">
                    <use xlink:href="#I"/>
                </mask>
                <path fill="#B5AEAC" d="M9.855 14.089c-1.836.15-3.58-.13-5.367.44-2.022.644-3.944.21-6.012.253-.488.01-.49.776 0 .766 1.814-.037 3.671.408 5.461-.043.931-.234 1.762-.58 2.743-.63 1.06-.055 2.114.067 3.175-.02.483-.04.487-.806 0-.766" mask="url(#J)"/>
            </g>
            <g transform="translate(0 8.081)">
                <mask id="L" fill="#fff">
                    <use xlink:href="#K"/>
                </mask>
                <path fill="#B5AEAC" d="M9.195 16.291c-1.37.137-2.73.176-4.108.152-1.168-.022-2.135.374-3.274.468-.484.04-.488.807 0 .767 1.122-.094 2.126-.49 3.274-.469a34.986 34.986 0 0 0 4.108-.151c.482-.048.487-.815 0-.767" mask="url(#L)"/>
            </g>
            <g transform="translate(0 8.081)">
                <mask id="N" fill="#fff">
                    <use xlink:href="#M"/>
                </mask>
                <path fill="#2B2731" d="M7.314-.153C6.828.31 6.553.88 6.27 1.482c-.31.66-.68 1.208-1.227 1.648-.221-.435-.457-.883-.572-1.345-.135-.54-.094-1.115-.182-1.664-.078-.486-.81-.28-.732.203.1.623.041 1.264.243 1.869.197.588.512 1.144.776 1.703.086.182.357.24.519.137.63-.404 1.155-.916 1.531-1.57.407-.707.62-1.5 1.225-2.074.356-.339-.181-.88-.537-.542" mask="url(#N)"/>
            </g>
        </g>
        <g>
            <path fill="#544F60" d="M2.621 44.178c-.055.345-.182.669-.488.873-.16.106-.352.15-.525.232a1.335 1.335 0 0 0-.743 1.195c0 .05.006.104.035.145.037.05.102.069.163.081.775.159 1.566-.115 2.31-.385.12-.044.248-.092.327-.194a.689.689 0 0 0 .108-.277 16.8 16.8 0 0 0 .408-4.176c-.004-.147-.028-.224-.172-.241-.17-.02-.352-.007-.523.003-.34.022-.678.08-1.005.175.002 0 .112.86.118.94.026.324.036.649.03.973-.003.21-.008.437-.043.656"/>
            <g transform="translate(2.364 41.482)">
                <mask id="P" fill="#fff">
                    <use xlink:href="#O"/>
                </mask>
                <path fill="#635F70" d="M2.581 3.255c-.049.206-.1.418-.228.586-.273.362-.825.24-1.211.214C.9 4.04.648 4.046.435 4.161a.803.803 0 0 0-.382.882.5.5 0 0 0 .068.157c.073.109.2.169.324.208.287.087.593.082.892.077.694-.014 1.48-.282 2.102-.578.125-.06.254-.13.334-.243a.89.89 0 0 0 .12-.329c.283-1.287.52-2.585.713-3.888.012-.078.02-.168-.035-.224C4.527.176 4.456.17 4.392.167c-.88-.044-1.044-.124-1.26.78-.183.77-.36 1.54-.55 2.308" mask="url(#P)"/>
            </g>
            <path fill="#6E6A82" d="M2.941 8.198c-.135.2-.148.456-.157.698-.061 1.686-.123 3.374-.048 5.06.046 1.03.143 2.059.29 3.08.274-.188.282-.585.268-.92a28.441 28.441 0 0 1 .69-7.58c.167-.732-.682-.871-1.043-.338M8.585 8.2c.068 0 .146.004.191.056.037.043.04.105.04.161.008.91.02 1.823.16 2.72.242 1.57.868 3.068 1.002 4.65.035.417.036.836.036 1.254 0 .372-.068.843-.423.943-.33-.801-.66-1.605-.886-2.442-.186-.693-.3-1.403-.434-2.108-.284-1.5-.661-2.98-1.046-4.458-.267-1.025.701-.771 1.36-.775"/>
        </g>
    </g>
</svg>
