<svg xmlns="http://www.w3.org/2000/svg" xmlns:xlink="http://www.w3.org/1999/xlink" width="105" height="61" viewBox="0 0 105 61">
    <defs>
        <path id="a" d="M.174.088h2.9v3.67h-2.9z"/>
        <path id="c" d="M5.943.194c-.34.002-.678.04-1.017.065-.46.034-.92.043-1.38.045h-.573a27.006 27.006 0 0 0-1.844.037C.92.355.712.373.505.398.279.425.202.398.202.642c0 .393.086.78.17 1.162l.605 2.76c.66-.007 1.32.035 1.975.125.298.042.596.093.896.12.304.027.608.028.913.025.554-.005 1.11-.023 1.664-.055.245-.013.493-.03.725-.112a.31.31 0 0 0 .12-.068.347.347 0 0 0 .07-.137l.38-1.132c.164-.492.328-.985.452-1.489.129-.531.211-1.073.293-1.614-.3-.051-.609.003-.914.02a7.423 7.423 0 0 1-.906-.024c-.224-.015-.448-.03-.673-.03h-.03z"/>
        <path id="e" d="M8.654.486a28.19 28.19 0 0 1-7.428 1.822C1.106 4.384.966 6.527.023 8.382c1.858 2 3.08 4.578 3.452 7.278 2.744.479 5.604 1.007 7.82 2.687.1.077.206.158.331.174.12.014.237-.032.347-.078.817-.338 1.638-.668 2.46-.99 1.826-.716 3.787-1.407 5.708-1.013l1.512-3.23c.435-.93.878-1.872 1.542-2.656-.633-.319-1.097-.89-1.515-1.46-1.366-1.864-2.461-3.909-3.55-5.946-.043-.078-.674-.13-.781-.152a27.445 27.445 0 0 1-5.859-1.944c-.514-.238-1.006-.527-1.522-.76a.957.957 0 0 0-.4-.092c-.306 0-.581.154-.914.286"/>
        <path id="g" d="M.176.135h6.226v5.329H.176z"/>
    </defs>
    <g fill="none" fill-rule="evenodd">
        <path fill="#EFCFC5" d="M84.791 40.477c-.092-.136-.195-.277-.347-.341-.259-.108-.576.07-.676.33-.1.261-.018.564.146.79.164.226.4.388.637.537.236.15.48.293.676.492.035.036.078.077.127.07a.154.154 0 0 0 .067-.037c.38-.297.216-.473.01-.825a16.98 16.98 0 0 0-.64-1.016"/>
        <path fill="#433D41" d="M86.505 58.774a1.04 1.04 0 0 0-.347.17c-.1.084-.17.214-.145.341.042.217.305.301.524.328a4.99 4.99 0 0 0 2.47-.322l.011.512c.22-.003.44-.022.657-.06.062-.01.13-.025.172-.073a.28.28 0 0 0 .053-.14c.051-.285.207-1.013-.038-1.182-.22-.152-.672-.142-.93-.109-.822.106-1.64.271-2.427.535"/>
        <g transform="translate(98.34 56.887)">
            <mask id="b" fill="#fff">
                <use xlink:href="#a"/>
            </mask>
            <path fill="#433D41" d="M.343 2.905c-.08.143-.16.292-.168.454-.01.163.077.343.234.387.132.038.269-.026.387-.094.53-.305.983-.739 1.31-1.253.166-.26.303-.554.288-.86.083.114.189.212.308.288l.29-.29c.043-.043.09-.097.08-.158-.006-.036-.03-.066-.055-.094-.32-.372-.53-.794-.796-1.197-.099.074-.25.186-.313.294-.037.061-.03.19-.078.236-.079.079-.185.063-.271.15-.102.104-.171.294-.244.42-.33.57-.653 1.142-.972 1.717" mask="url(#b)"/>
        </g>
        <path fill="#EFCFC5" d="M88.98 58.318a.393.393 0 0 0-.007.178c.03.105.143.166.25.187.143.028.291.009.433-.022.119-.025.248-.067.307-.173a.45.45 0 0 0 .042-.165c.073-.574.107-1.152.103-1.73 0 .103-.841.24-.94.41-.085.146-.055.454-.077.623a13.48 13.48 0 0 1-.112.692M100.527 56.937c.029.03.058.06.076.098a.33.33 0 0 1 .018.167c-.017.211-.098.44-.286.54-.168.088-.38.048-.541-.051-.1-.061-.185-.143-.27-.223l-.748-.712c-.012-.011-.024-.024-.024-.04 0-.018.015-.032.03-.042.303-.228.645-.512.989-.674.261.303.475.644.756.937"/>
        <path fill="#383D40" d="M88.4 56.693c.007.126.017.262.097.36.096.12.264.147.416.164.532.059 1.068.079 1.603.06.183-2.16.369-4.33.89-6.434.219-.056.452.043.62.192.17.148.29.342.427.52.09.118.187.23.287.338 1.304 1.411 3.113 2.291 4.382 3.734.473.538.865 1.148 1.388 1.638l1.48-1.35c.03-.028.063-.06.066-.1.003-.047-.033-.086-.067-.119-.399-.383-.83-.734-1.22-1.127-1.359-1.37-2.154-3.178-3.046-4.887-.061-.118-.13-.242-.245-.306a.665.665 0 0 0-.31-.06c-1.75-.042-3.403.656-5.135.786-.498.037-1.599-.269-1.682.434-.112.942-.044 1.947-.039 2.895.006 1.087.036 2.175.089 3.262"/>
        <path fill="#948BB3" d="M88.653 43.571c-.315.062-.626-.1-.901-.263-.716-.425-1.402-.9-2.05-1.421-.26.33-.518.66-.776.99-.015.019-.03.04-.03.063-.001.04.038.067.072.087.675.381 1.324.808 1.942 1.277.239.181.475.37.667.6.332.395.519.89.65 1.387.225.852.3 1.742.224 2.62-.025.282-.065.572.01.846.095.35.367.625.66.84.965.707 2.238.905 3.425.74 1.186-.165 2.3-.662 3.348-1.241-.138-1.342.072-2.693.282-4.025l.82-5.21c-1.452-.39-2.912-.781-4.407-.94a11.745 11.745 0 0 0-2.034-.047c-.556.038-1.477.044-1.948.379-.367.26-.25.724-.207 1.111.083.736.169 1.471.253 2.207"/>
        <path fill="#F6FFFA" d="M89.503 45.875c.339-.025.677-.064 1.017-.066.537-.003 1.072.083 1.608.053.305-.016.613-.07.915-.02-.083.541-.165 1.083-.294 1.614-.123.505-.288.998-.453 1.49l-.378 1.132a.348.348 0 0 1-.07.137.312.312 0 0 1-.121.067c-.231.082-.48.099-.725.113-.554.031-1.11.05-1.664.054a9.366 9.366 0 0 1-.912-.025c-.3-.026-.598-.078-.897-.12a13.262 13.262 0 0 0-1.975-.124l-.605-2.76c-.084-.383-.169-.77-.17-1.163 0-.243.077-.216.303-.243.207-.025.416-.044.624-.058.804-.052 1.61-.033 2.416-.036.46-.002.922-.011 1.381-.045"/>
        <g transform="translate(84.577 45.615)">
            <mask id="d" fill="#fff">
                <use xlink:href="#c"/>
            </mask>
            <path fill="#BAB295" d="M1.493 5.06h5.501V-.073h-5.5z" mask="url(#d)"/>
            <path fill="#3A3E44" d="M2.525 5.52h3.446V2.087H2.525z" mask="url(#d)"/>
        </g>
        <g>
            <path fill="#121114" d="M90.562 46.401c.065-.661.116-2.187-.687-2.913-.435-.393-1.05-.489-1.83-.282a.11.11 0 1 0 .058.213c.701-.185 1.247-.107 1.623.233.718.65.673 2.092.614 2.723-.354.07-.33.656.073.656.371 0 .42-.497.149-.63M87.202 46.397c-.013-.522-.005-1.333.119-1.595a.111.111 0 0 0-.2-.094c-.155.325-.155 1.211-.142 1.697-.3.114-.26.64.123.64.392 0 .425-.553.1-.648"/>
            <path fill="#FF6C5C" d="M82.918 26.485c-.122 2.076-.26 4.219-1.204 6.074 1.858 2 3.081 4.578 3.453 7.277 2.743.48 5.604 1.008 7.82 2.688.1.076.206.158.33.174.12.014.237-.033.348-.078.817-.338 1.637-.668 2.46-.99 1.825-.717 3.787-1.407 5.708-1.013l1.512-3.23c.435-.93.878-1.872 1.541-2.656-.633-.319-1.097-.89-1.515-1.46-1.366-1.864-2.46-3.909-3.55-5.946-.042-.078-.674-.13-.78-.152a27.723 27.723 0 0 1-2.574-.674 27.513 27.513 0 0 1-3.286-1.27c-.514-.238-1.006-.527-1.521-.76-.488-.222-.844.007-1.315.194a28.23 28.23 0 0 1-7.427 1.822"/>
        </g>
        <g transform="translate(81.691 24.177)">
            <mask id="f" fill="#fff">
                <use xlink:href="#e"/>
            </mask>
            <path fill="#CE655D" d="M24.104 10.315c-.988-.24-7.368-1.828-11.405-3.836 0-.009.003-.016.003-.024a.556.556 0 0 0-.077-.28c1.354-1.051 6.46-4.841 9.015-4.28 2.7.593 2.51 7.382 2.464 8.42m-3.12 7.652c.44.932.454 1.663.04 2.172-1.545 1.896-8.418.438-9.297.242.083-1.15.77-10.91.359-13.368.017.001.033.005.05.005.141 0 .268-.053.367-.138 1.636 1.334 6.412 6.716 8.48 11.087m-18.09-.959c-.59 1.338-1.147 2.004-1.617 1.92-1.457-.256-2.229-7.087-2.412-9.812.87-.29 8.545-2.801 12.716-2.303-1.193.714-5.873 3.827-8.686 10.195M9.404-.076c1.707.455 2.44 4.573 2.642 5.977a.562.562 0 0 0-.167.055C9.055 3.926 2.588 2.154 1.007 1.75c1.324-.5 6.592-2.307 8.397-1.827m14.78 6.433c-.346-2.816-1.186-4.39-2.496-4.678-1.288-.283-3.288.407-5.944 2.049a38.583 38.583 0 0 0-3.266 2.28.564.564 0 0 0-.205-.098c-.194-1.404-.937-5.7-2.812-6.2C7.408-.837 1.459 1.346.658 1.666H.654v.001a.91.91 0 0 0-.085.037l-.046.054.03.064.018.064h.07C.713 1.897 8.498 3.829 11.7 6.1a.557.557 0 0 0-.108.494c-4.464-.523-12.794 2.31-12.88 2.34l-.08.027.006.084c.001.024.162 2.45.55 4.885.529 3.314 1.219 5.069 2.05 5.215.04.007.081.01.121.01.558 0 1.128-.676 1.74-2.06 2.917-6.605 7.851-9.668 8.728-10.171l.02.01c.47 2.265-.34 13.41-.348 13.525l-.006.094.092.021c.2.048 3.234.75 5.902.75 1.597 0 3.062-.251 3.71-1.047.473-.58.469-1.39-.012-2.405-1.883-3.98-6.617-9.702-8.543-11.168 0-.003.002-.005.003-.007 4.39 2.173 11.465 3.846 11.539 3.863l.128.03.008-.131c.002-.02.12-2.034-.135-4.103" mask="url(#f)"/>
        </g>
        <g>
            <path fill="#353535" d="M.582 32.482a.884.884 0 0 0-.262.112c-.137.095-.218.253-.264.413-.175.605.082 1.254.44 1.773a.533.533 0 0 0 .199.196c.08.037.173.034.26.048.396.061.65.441.833.796.262.507.482 1.041.824 1.5.341.457.835.84 1.405.893.31.028.68-.092.766-.389.071-.244-.074-.49-.176-.723-.407-.931-.136-2.059-.575-2.976-.27-.56-.773-.972-1.289-1.323-.687-.466-1.362-.552-2.16-.32"/>
            <path fill="#B1B1B2" d="M6.572 29.795c-.854.26-1.767.462-2.444 1.042-.43.369-.826.91-1.394.888-.2-.008-.394-.09-.593-.072-.377.035-.634.435-.642.812-.01.377.165.731.34 1.066.279.537.586 1.09 1.087 1.433.5.344 1.25.405 1.679-.025.175-.175.28-.412.46-.582.208-.196.494-.283.77-.365a83.216 83.216 0 0 0 5.894-2.007c.551-.211 1.123-.444 1.512-.887.518-.593.603-1.493.302-2.22-.561-1.351-1.656-1.87-2.842-1.083-1.285.854-2.647 1.548-4.129 2"/>
            <path fill="#E2CDB5" d="M17.005 17.008c.122-.26-.019-.581-.243-.762-.776-.628-2.949-1.073-2.46.547.12.401.43.89.885.952.39.053 1.637-.353 1.818-.737"/>
            <path fill="#21160A" d="M10.13 10.398l1.213 2.398c.175.346.356.7.646.958.3.266.688.406 1.031.615.452.276.832.677 1.328.864.562.213 1.337.217 1.547.777.069.5-.204.998-.587 1.328-.383.33-.864.521-1.338.699-.404.15-.81.296-1.218.436-.076.025-.157.052-.234.03-.133-.036-.19-.187-.23-.318a9.366 9.366 0 0 0-2.102-3.604"/>
            <path fill="#E0A16C" d="M4.396 11.28c.115-.245 1.12-1.987 1.108-1.726-.033.747.059 1.493.15 2.233.018.144.038.295.125.412.151.203.442.23.697.227 1.084-.017 1.335 2.213 1.212 2.774-.416 1.893-1.374 3.801-3.088 4.719-.339.181-.715.322-1.1.301-.327-.017-.635-.15-.935-.285-.6-.268-1.215-.56-1.653-1.05-.66-.739-.806-1.826-.605-2.794.202-.968.707-1.843 1.23-2.683.197-.316.4-.634.677-.883.563-.506 1.33-.613 1.944-1.025.265-.178.263-.251.327-.552.089-.416.232-.779.426-1.158.254-.496.524-1.012.978-1.336.567-.406 1.311-.44 2.01-.458"/>
            <path fill="#E2CDB5" d="M6.915 30.227c.28.068.569-.132.704-.385.467-.88.483-3.089-1.019-2.297-.371.196-.791.594-.765 1.05.024.39.666 1.53 1.08 1.632"/>
            <path fill="#353535" d="M13.464 41.19c.351.644 1.192.8 1.923.884l3.295.382c.617.07 1.29.13 1.811-.205.095-.061.19-.15.19-.262a.34.34 0 0 0-.057-.166c-.312-.536-.929-.805-1.504-1.04-.563-.228-1.127-.457-1.69-.687-.335-.136-.686-.284-.908-.568-.112-.143-.184-.313-.282-.466-.4-.63-1.6-1.091-2.246-.542-.574.489-.887 2.02-.532 2.67"/>
            <path fill="#EAEAEF" d="M7.924 25.583l2.292 2.445c.503.537 1.01 1.079 1.391 1.707.795 1.312.98 2.89 1.147 4.413.136 1.234.272 1.464.407 2.699.126 1.145.249 2.324-.062 3.434.992.188 2.019.19 3.012.007.277-.05.576-.132.738-.36.118-.167.141-.38.152-.583.09-1.75-.47-2.469-.49-4.22-.008-.756.085-1.51.083-2.266-.003-1.569-.408-3.105-.81-4.622l-1.215-4.581c-.2-.753-.433-1.56-1.044-2.048-.457-.366-1.056-.494-1.632-.61-.995-.201-2.013-.404-3.021-.278-.92.115-2.274.671-2.536 1.669-.304 1.16.88 2.438 1.588 3.194"/>
            <path fill="#E2CDB5" d="M8.768 5.223C8.405 6.251 7.082 6.8 6.943 7.88c-.016.126-.012.261.056.367.04.063.1.11.16.155 1.004.755 2.214 1.737 3.46 1.569.222-.03.57-.739.666-.94.083-.175.012-.385-.087-.553-.099-.167-.228-.324-.27-.514-.053-.244.048-.492.08-.74.058-.447-.119-.907-.43-1.234-.31-.326-.744-.523-1.19-.591"/>
            <path fill="#F7E0C4" d="M7.703 4.877a.433.433 0 0 0-.164.568c.075.137.22.22.318.341.173.214.184.523.353.74.087.113.21.192.33.27l1.062.677c.2.128.402.257.63.321.228.065.488.057.684-.076.166-.112.264-.298.356-.476.097-.186.194-.373.287-.562.295-.604.55-1.235.648-1.9.098-.664.031-1.367-.288-1.958a.836.836 0 0 0-.264-.32c-.112-.072-.248-.097-.38-.12-.475-.082-.987-.16-1.422.049-.306.147-.532.419-.733.692-.285.385-.549.801-.692 1.261-.04.13-.053.538-.169.585-.128.052-.334-.213-.556-.092"/>
            <g transform="translate(5.994 .086)">
                <mask id="h" fill="#fff">
                    <use xlink:href="#g"/>
                </mask>
                <path fill="#E1846A" d="M3.968 5.183c.127-.047.24-.124.351-.2.665-.455 1.345-.924 1.801-1.586.158-.228.29-.49.282-.767-.012-.45-.376-.804-.713-1.104C5.199 1.09 4.706.653 4.136.33 3.958.231 3.764.14 3.56.135 3.384.13 3.215.19 3.05.249c-.753.268-1.55.567-2.027 1.207-.54.725-1.27 2.855-.542 3.631.344.365.896.409 1.365.361.632-.064 1.532-.046 2.121-.265" mask="url(#h)"/>
            </g>
            <path fill="#353535" d="M14.209 23.214c.04-.037.043-.098.044-.153.046-4.285-.638-8.48-1.89-12.58a4.447 4.447 0 0 0-1.094-1.875c-.045.043-.032.114-.03.176.006.242-.17.273-.325.38-.128.087-.194.26-.34.338-.544.291-.594.324-.755.989a23.889 23.889 0 0 0-.429 8.953c.154 1.085.244 2.78 1.19 3.526.413.326 1.061.462 1.58.439.2-.009.388-.071.588-.07.185 0 1.311.015 1.46-.123"/>
            <path fill="#21160A" d="M6.731 7.36c.218-.098.44-.194.613-.358-.153.133-.062.264.026.389.125.176.162.332.236.536.143.398.386.762.701 1.046.577.519 1.418.752 2.14.391.14-.07.28-.16.43-.184.477-.07.792.52.962 1.033 1.024 3.101 1.236 6.534.992 9.893-.059.8-.142 1.6-.25 2.394-.06.437-.163.933-.5 1.147-.31.2-.686.067-1.017-.054a11.082 11.082 0 0 0-5.222-.584c-.483-.326-.641-1.058-.629-1.719.012-.661.15-1.328.075-1.98-.095-.824-.515-1.527-.79-2.287-.321-.885-.44-1.847-.576-2.795-.112-.771-.568-1.82-.545-2.571.019-.62.49-1.204.846-1.677.653-.868 1.238-1.93 2.21-2.476a3.76 3.76 0 0 1 .298-.144"/>
            <path fill="#353535" d="M10.024 13.467c.23 1.041-.216 2.094-.486 3.126-.193.737-.297 1.494-.401 2.249L8.052 26.73c-.072.52-.148 1.056-.409 1.513-.26.458-.751.826-1.277.782a.548.548 0 0 1-.345-.135c-.1-.098-.134-.244-.164-.38l-.847-3.891c-.227-1.046-.456-2.107-.397-3.175.028-.508.12-1.012.124-1.52.01-1.695-.962-3.238-1.246-4.91a6.182 6.182 0 0 1 .492-3.633c.168-.36.546-.654.91-.814.553-.243 1.123-.466 1.721-.554a4.037 4.037 0 0 1 2.47.43c.2.106.393.233.533.409.166.209.245.472.32.728.168.573.186 1.949.087 1.887"/>
            <path fill="#F7E0C4" d="M8.318 5.581c.099-.113-.12-.446-.235-.543-.114-.097-.27-.127-.419-.153-.056-.01-.119-.02-.167.01-.043.027-.065.077-.08.124-.148.467.059.964.262 1.41.035.077.085.166.17.176a.219.219 0 0 0 .128-.037.815.815 0 0 0 .34-.987"/>
            <path fill="#E1846A" d="M5.207 10.663a4.152 4.152 0 0 0-1.796 3.055l-.373.018a4.538 4.538 0 0 1 .132-2.083c.2-.655.568-1.282 1.14-1.66.437-.29.96-.416 1.473-.526.352-.076.706-.148 1.066-.159.736-.022 1.99.277 2.327 1.008-1.296-.538-2.792-.444-3.97.347"/>
        </g>
    </g>
</svg>
