<svg xmlns="http://www.w3.org/2000/svg" xmlns:xlink="http://www.w3.org/1999/xlink" width="92" height="64" viewBox="0 0 92 64">
    <defs>
        <path id="a" d="M.012.016h2.63v4.29H.012z"/>
    </defs>
    <g fill="none" fill-rule="evenodd">
        <path fill="#212F29" d="M24.934 48.092c0 .045.003.097.04.122.022.015.05.016.075.016l.738.02c.192.005.396.007.56-.093.164-.1.256-.342.132-.49.738.009 1.465-.16 2.183-.33l1.351-.316c.2-.047.41-.1.56-.238.151-.14.214-.398.078-.552-.533.002-1.05.18-1.581.224a3.212 3.212 0 0 1-2.185-.635c-.131-.1-.272-.215-.436-.205a.626.626 0 0 0-.213.065c-.385.17-1.178.355-1.3.73-.148.451-.002 1.203-.002 1.682M19.812 47.889c0 .044.002.093.032.125.04.041.106.036.163.027.456-.073 1.001-.22 1.129-.665.032-.114.033-.24.095-.342.1-.164.315-.203.504-.236A5.589 5.589 0 0 0 24.3 45.62c.217-.18.44-.426.391-.704l-2.097.128c-.522.032-1.121.035-1.475-.352-.3-.327-.504-.143-.85.044-.242.13-.395.203-.455.487-.171.814-.003 1.833-.003 2.666"/>
        <path fill="#036C78" d="M22.326 24.647c.249.018.519.044.703.214.162.15.22.379.268.595.57 2.62.614 5.371-.013 7.98-.157.653-.355 1.297-.508 1.953-.651 2.808-.434 5.74-.77 8.603-.063.543-.197 1.16-.676 1.423-.355.195-.816.121-1.147-.112-.33-.233-.545-.602-.673-.986-.391-1.165-.063-2.437-.121-3.664-.036-.748-.217-1.484-.251-2.233-.036-.772.084-1.541.138-2.312.11-1.593-.063-3.195.042-4.788.054-.811.18-1.619.169-2.432-.017-1.288-.378-2.548-.368-3.837.006-.812.394-.608 1.09-.558l2.117.154"/>
        <path fill="#986978" d="M6.688 21.247c.163.006.369-.002.432-.153.02-.047.02-.1.02-.15-.002-.533.048-1.098-.017-1.623-.38-.038-1.281.264-1.506.616-.263.413-.18 1.229-.218 1.693.364-.305.821-.4 1.289-.383"/>
        <path fill="#D7E8DD" d="M5.033 44.086c.466-.13 1.064.211 1.4-.137.096-.098.142-.232.18-.364.372-1.26.285-2.601.269-3.915a34.962 34.962 0 0 1 .377-5.571c-.02.126-1.653.2-1.92.601-.4.6-.185 2.243-.216 2.958a112.231 112.231 0 0 0-.09 6.428M8.403 44.167l2.035-.005c-.093-3.384.12-6.736.138-10.106-2.138.349-2.105 1.284-2.12 3.277-.005.567-.043 6.834-.053 6.834"/>
        <path fill="#009697" d="M.66 24.24C.286 24.895.02 25.667.2 26.4c.18.731.944 1.35 1.67 1.147-.335-1.068.64-2.32 1.759-2.257l.24 10.538c.003.13.01.273.097.372.107.124.294.13.458.129l6.108-.086c.154-.002.325-.01.436-.118.093-.089.121-.224.14-.35.305-1.933-.151-3.892-.482-5.82-.503-2.935-.401-5.846-.668-8.778-1.509-.333-3.7-.122-5.237.208-1.64.353-3.228 1.386-4.063 2.855"/>
        <path fill="#0E7774" d="M3.432 21.747c-.901.55-1.715 1.23-2.5 1.937-.237.214-.475.434-.636.709-.25.422-.295.933-.296 1.424 0 .456.04.935.288 1.317.25.382.767.624 1.177.426.558-.269.576-1.092 1.046-1.495.346-.296.86-.3 1.25-.533.575-.343.753-1.078.878-1.735.217-1.14.666-2.987-1.207-2.05M12.596 22.34c.266.242.511.51.8.725.186.14.393.26.54.44.428.53.177 1.317-.134 1.923a14.558 14.558 0 0 1-3.143 4.113c-.05.046-.115.095-.18.074-.04-.014-.067-.052-.091-.088l-.483-.73a.554.554 0 0 1-.093-.188c-.033-.164.084-.318.192-.445.698-.826 1.35-1.69 1.953-2.586.093-.139.189-.297.156-.46-.024-.12-.114-.217-.207-.297a2.2 2.2 0 0 0-1.117-.511c-.414-.06-.866-.007-1.226-.222-.464-.278-.59-.88-.672-1.415-.046-.3-.427-1.543-.261-1.77.209-.285.868-.071 1.197.003a6.111 6.111 0 0 1 2.769 1.434"/>
        <path fill="#3D3228" d="M4.974 43.8l-.311 2.403c-.01.075-.019.157.021.222.054.088.172.108.276.113.474.026.953-.044 1.4-.204.178-.064.358-.147.48-.292.18-.213.202-.515.205-.794.004-.472-.023-.945-.08-1.414-.02-.156-.05-.325-.165-.431-.207-.187-.532-.066-.78.062l-1.175.614M8.893 45.95c.037.115.084.235.185.3.086.056.194.06.296.057a3.448 3.448 0 0 0 1.04-.187c.116-.04.234-.09.311-.186.092-.113.107-.269.116-.415.027-.44.036-.882.028-1.322-.002-.094-.007-.195-.068-.266-.39-.456-1.391-.47-1.852-.063-.559.494-.262 1.453-.056 2.083"/>
        <path fill="#11200C" d="M3.792 15.878c-.692.82-.78 2.094-.207 3.002.573.907 1.761 1.375 2.798 1.103.357-.093.689-.263 1.004-.455.262-.16.523-.344.68-.61.131-.225.176-.49.21-.749.081-.637.107-1.282.077-1.924-.012-.27-.038-.549-.171-.784a1.337 1.337 0 0 0-.469-.454c-1.168-.726-3.075-.133-3.922.87"/>
        <path fill="#1E2D18" d="M3.432 20.597c.354-.196.909.34 1.121.608a.53.53 0 0 1 .11.194c.031.127-.027.258-.088.375-.128.25-.281.505-.527.641-.245.137-.605.104-.747-.138-.062-.106-.074-.232-.085-.354l-.035-.4c-.019-.222-.037-.453.045-.66a.493.493 0 0 1 .206-.266"/>
        <path fill="#1E2D18" d="M3.3 20.735c.144.17.397.182.62.18.184 0 .383-.006.526-.12.128-.1.185-.266.216-.426.1-.515.038-1.473-.721-1.303-.538.122-1.014 1.231-.642 1.669M3.912 23.773c.178.265.492.47.806.408a.312.312 0 0 0 .117-.047.328.328 0 0 0 .07-.073c.143-.19.183-.438.187-.676.01-.489-.328-1.419-.987-1.149-.575.235-.473 1.119-.193 1.537M4.645 26.335a4.473 4.473 0 0 0-.01.828c.008.105.024.218.098.292a.404.404 0 0 0 .226.096c.24.04.497.01.704-.117a.719.719 0 0 0 .353-.602c-.003-.204-.11-.396-.251-.543a2.445 2.445 0 0 0-.492-.363c-.157-.096-.311-.268-.468-.141-.114.091-.16.415-.16.55"/>
        <path fill="#1E2D18" d="M4.332 24.25c-.087.255-.104.527-.117.794-.008.156-.014.314.027.463a.761.761 0 0 0 .418.488c.096.043.21.065.308.025.118-.048.186-.172.235-.29.103-.243.17-.516.108-.773-.075-.306-.313-.524-.491-.77-.057-.08-.147-.314-.257-.308-.118.006-.2.283-.231.372M5.081 28.506c-.033.165-.05.344.028.493a.764.764 0 0 0 .16.193c.118.113.256.223.42.239.214.022.408-.122.57-.266.145-.131.289-.274.367-.454a.572.572 0 0 0 .001-.49.853.853 0 0 0-.177-.211c-.178-.17-.628-.654-.906-.548-.27.105-.414.8-.463 1.044M5.661 31.01c.047.04.12.001.165-.042.045-.043.097-.097.158-.085.04.009.069.045.102.07.123.092.299.03.431-.047.133-.078.278-.174.427-.138a1.53 1.53 0 0 1 .02-.283c.005-.029.013-.06.036-.076.019-.013.043-.014.065-.014l.203-.003c.029-.064-.024-.134-.074-.185l-.529-.543a.39.39 0 0 0-.16-.116c-.104-.03-.21.03-.306.08-.249.13-.487.1-.54.386-.021.116-.072.932.002.995"/>
        <path fill="#FFCBF8" d="M6.223 29.841c.112-.043.23-.09.303-.184.116-.148.086-.36.05-.545-.169-.069-.344.065-.502.157-.281.165-.729.154-.724.556.007.52.592.123.873.016"/>
        <path fill="#986978" d="M1.642 27.013l.353.201c.284.162.6.37.636.695.029.259-.149.51-.382.627-.233.116-.508.118-.764.07-.205-.038-.413-.111-.554-.265-.246-.267-.216-.679-.17-1.04.008-.072.024-.154.088-.19.035-.02.079-.02.12-.02l.79.014"/>
        <path fill="#DD9D57" d="M18.187 10.125c-.636 1.147-.91 2.46-1.055 3.764-.19 1.699-.168 3.47.491 5.048.612 1.462 1.76 2.739 1.922 4.316.032.316.038.67.267.891.237.23.613.213.941.178a65.022 65.022 0 0 0 5.967-.912c.254-.051.515-.106.732-.248.512-.334.629-1.023.679-1.632a28.556 28.556 0 0 0-1.016-10.186c-.264-.917-.597-1.858-1.284-2.521-2.249-2.172-6.224-1.26-7.644 1.302"/>
        <path fill="#CCBE93" d="M21.975 22.277c.363.54.422 1.231.354 1.878-.014.142-.038.29-.127.401a.627.627 0 0 1-.209.157c-.63.322-1.483.102-1.877-.486-1.072-1.596.484-3.988 1.859-1.95"/>
        <path fill="#088D99" d="M23.724 32.513c.975 4.171.558 8.524.796 12.8.033.6.176 1.33.747 1.517.324.105.685-.018.96-.22.961-.702 1.02-2.09.998-3.28-.126-6.954.112-13.914.715-20.843l-2.036.717c-1.111.391-2.2.717-3.366.887-1.097.16-.795.648-.551 1.55.295 1.091.42 2.22.73 3.315.334 1.186.727 2.356 1.007 3.557"/>
        <path fill="#E2D09F" d="M22.984 22.88c.018.253-.064.503-.165.737-.148.345-.342.677-.614.935-.272.259-.628.441-1.004.452a.734.734 0 0 1-.395-.083c-.315-.185-.343-.627-.288-.987.11-.71.484-1.383 1.077-1.808.563-.403 1.342.1 1.389.753"/>
        <path fill="#BC8855" d="M26.779 10.112c.19-.006.394-.006.558.092.152.091.248.252.326.411.5 1.023.55 2.2.59 3.337.044 1.242.088 2.485.06 3.728-.013.614-.046 1.24-.273 1.81-.262.658-.763 1.19-1.283 1.669-.636.586-1.32 1.12-2.043 1.595-.405.266-.86.523-1.342.475-.635-.063-1.088-.622-1.467-1.135-.064-.088-.13-.182-.133-.29-.004-.128.084-.24.167-.337a25.659 25.659 0 0 1 1.537-1.651c.986-.97 2.133-2.032 2.142-3.415.003-.468-.13-.924-.245-1.378-.27-1.077-.55-2.324-.632-3.421-.088-1.165 1.07-1.461 2.038-1.49"/>
        <path fill="#462E24" d="M20.584 2.054a1.335 1.335 0 0 0-.225.175c-.165.161-.277.368-.368.58-.532 1.242-.336 2.925.272 4.11.637 1.246 2.018 1.335 3.178.718.25-.133.49-.31.62-.561.076-.146.11-.31.144-.472.165-.797.33-1.594.455-2.399.11-.705.348-1.382.265-2.106a.76.76 0 0 0-.096-.329c-.329-.512-1.2-.299-1.68-.282-.75.025-1.51.1-2.21.388-.122.05-.243.108-.355.178"/>
        <path fill="#B5A888" d="M81.579 6.417c-.073.056-.146.119-.237.133-.14.02-.274-.09-.327-.221-.054-.132-.046-.28-.039-.422.024-.433.045-.868.02-1.301-.029-.52-.122-1.044-.058-1.562.045-.36.166-.708.331-1.032.119-.232.266-.458.48-.605a1.11 1.11 0 0 1 .986-.112c.323.114.589.365.753.666.164.302.229.646.317.977.105.396.247.785.293 1.192.047.407-.014.847-.275 1.164-.21.255-.521.4-.829.52-.487.191-.991.275-1.415.603"/>
        <path fill="#C6BC9E" d="M82.15 6.132c-.007-.033-.013-.068 0-.1.014-.036.05-.058.084-.077.758-.404 1.678-.232 2.533-.315l-.083 1.216c-.008.111-.018.231-.089.318a.528.528 0 0 1-.229.142c-.51.199-1.319.484-1.874.366-.285-.061-.218-.304-.227-.548a6.506 6.506 0 0 0-.115-1.002"/>
        <g transform="translate(89.272 41.396)">
            <mask id="b" fill="#fff">
                <use xlink:href="#a"/>
            </mask>
            <path fill="#0B110A" d="M.012 2.83c-.006.423.046.893.36 1.177.298.272.74.293 1.143.299.364.005.8-.03.974-.35.066-.121.08-.265.09-.404.052-.634.104-1.275.015-1.906-.065-.452-.238-1.24-.639-1.53-.256-.186-.333-.08-.626.07C1.161.27.983.347.825.452.067.958.025 1.997.012 2.83" mask="url(#b)"/>
        </g>
        <path fill="#0B110A" d="M81.093 43.277c-.343-.057-.792-.06-.925.261-.109.262.086.545.28.753a8.4 8.4 0 0 0 2.213 1.693c.478.254 1.028.464 1.551.325.569-.15.97-.705 1.066-1.286.082-.498-.006-1.201-.294-1.631-.3-.449-.716-.16-1.166-.014-.918.3-1.793.053-2.725-.101"/>
        <path fill="#597F99" d="M86.043 34.042c.146.766.292 1.534.525 2.277.261.833.63 1.628.996 2.42l1.367 2.95c.119.255.26.534.524.636.233.09.494.013.733-.064.685-.223 1.49-.585 1.569-1.301.036-.334-.105-.658-.243-.963l-1.986-4.394c-.608-1.347-1.223-2.713-1.458-4.172-.268-1.669-.026-3.37.06-5.059.088-1.688-.003-3.464-.855-4.924-.15-.257-.384-.531-.68-.496-.14.017-.26.102-.372.187-1.037.782-1.962 1.793-2.336 3.037a3.693 3.693 0 0 0 .012 2.184c.23.702.805 1.125 1.025 1.795.605 1.842.756 3.98 1.119 5.887"/>
        <path fill="#7096B4" d="M81.583 35.13c.385 2.675.882 5.356.803 8.058-.004.13-.005.275.08.374.092.108.25.123.391.128a9.245 9.245 0 0 0 1.631-.092c.111-.016.23-.037.311-.114.101-.094.12-.245.133-.382.41-4.754-1.023-9.706.486-14.233.405-1.215 1.011-2.353 1.443-3.559.431-1.205.684-2.529.35-3.765-.09-.34-6.204.602-6.644 1.528-.407.86-.029 2.256.047 3.147.119 1.386.244 2.772.388 4.155.165 1.588.354 3.174.581 4.755"/>
        <path fill="#3731F9" d="M82.211 8.579a5.46 5.46 0 0 0-.754 2.052c-.137.903-.044 1.829-.164 2.734-.18 1.368-.83 2.626-1.154 3.966-.138.57-.216 1.153-.294 1.735l-.547 4.079c1.186.059 2.359-.225 3.512-.506l2.165-.53c.355-.086.714-.173 1.079-.175.303-.002.603.055.904.083.594.056 1.193.001 1.785-.074.138-1.625-.113-3.253-.276-4.875-.1-1-.167-2.006-.141-3.011.028-1.097.167-2.194.086-3.288-.08-1.095-.406-2.218-1.17-3.004-1.629-1.676-3.901-1.01-5.031.814"/>
        <path fill="#C6BC9E" d="M77.585 21.297c-.486 1.755-1.109 3.503-1.157 5.324.276.065.559.098.842.097.157 0 .324-.015.448-.113.103-.08.158-.207.204-.33.323-.87.353-1.818.527-2.73.549-2.865 2.527-5.41 2.538-8.329 0-.072-1.833-.06-2.014.054-.44.276-.366 1.087-.435 1.542a38.06 38.06 0 0 1-.953 4.485"/>
        <path fill="#6260FF" d="M80.277 8.857a8.594 8.594 0 0 0-2.056 5.908c.005.132.015.268.08.382.128.225.418.29.674.322a9.494 9.494 0 0 0 2.154.02c.125-.012.258-.032.349-.116.08-.076.114-.187.14-.294.55-2.191-.004-4.448 1.2-6.474.3-.503.605-1.014 1.043-1.402-.461.035-.918.115-1.374.194-.975.17-1.575.724-2.21 1.46"/>
        <path fill="#382E2B" d="M82.854.038c1.066-.197 2.227.393 2.697 1.37.23.479.3 1.018.339 1.548.047.668.031 1.393-.367 1.932-.107.145-.238.271-.343.418-.118.166-.202.356-.334.51-.36.418-.975.473-1.526.498a.667.667 0 0 1-.31-.035c-.128-.059-.204-.19-.266-.316a4.902 4.902 0 0 1-.483-1.676c-.032-.318-.034-.642-.127-.948-.093-.305-.3-.598-.604-.693-.08-.025-.166-.036-.24-.075-.138-.073-.208-.227-.26-.373-.112-.305-.19-.63-.158-.954.036-.36.22-.745.584-.842.456-.122.933-.278 1.398-.364"/>
        <path fill="#DDAE97" d="M62.773 42.71c-1.026-1.764-1.922-3.622-2.43-5.598-.055-.216-.095-.476.063-.633.09-.088.22-.118.344-.142.973-.193 2.004-.403 2.999-.423.865-.018.918.59.79 1.314a21.09 21.09 0 0 1-.732 2.84c-.146.45-.305.896-.477 1.336-.067.17-.625 1.189-.557 1.306M53.527 41.065c.365.617.775 1.275 1.439 1.544a2.72 2.72 0 0 0 .718-1.746c.019-.586-.153-1.158-.323-1.718l-1.021-3.368c-.06-.199-.133-.414-.308-.526-.346-.222-.77.103-1.076.379-.273.245-.988.553-1.13.869-.159.356.124 1.153.227 1.506.317 1.093.9 2.087 1.474 3.06M57.29 25.193l2.788-.23a46.503 46.503 0 0 1-.244 2.36c-.415-.058-.831-.099-1.249-.122-.242-.014-.861.092-1.045-.067-.199-.171-.117-1.953-.25-1.941M55.587 60.584c-.004.116-.007.233.016.347.024.12.076.232.127.342l.204.437c.032.067.067.14.133.173.04.02.087.023.132.025.307.015.663-.012.841-.263.122-.17.122-.396.117-.605l-.03-1.398c-.006-.243-.012-.49-.076-.724-.027-.099-1.243.136-1.357.28-.226.288-.097 1.044-.107 1.386M61.265 61.478c0 .05.001.105.033.145.035.043.096.053.152.059.178.02.357.027.536.023a.423.423 0 0 0 .15-.022c.093-.038.148-.131.186-.223.12-.29.126-.615.131-.93l.021-1.434c-.29 0-.631-.05-.916 0-.388.067-.294.141-.293.558v1.824"/>
        <path fill="#786E83" d="M62.777 40.213c.118.583.105 1.184.094 1.778a491.32 491.32 0 0 0-.039 17.385l-2.95.144-.069-5.319c-.011-.915-.024-1.834-.178-2.736-.192-1.116-.599-2.183-.85-3.287-.137-.602-.228-1.214-.318-1.825l-.202-1.365c.149 1.01.106 2.037.063 3.057l-.47 11.143c-1.088.314-2.23.441-3.361.374.238.015-.032-10.321-.07-11.25-.078-1.897-.154-3.794-.172-5.692-.006-.6-.25-1.895.163-2.39.395-.476 1.408-.244 1.932-.227l6.427.21"/>
        <path fill="#BB6F5F" d="M54.062 60.676c-.154-.003-.313-.005-.455.054-.353.146-.465.622-.334.98.131.359.435.622.731.862.424.343.86.674 1.334.942.289.163.6.305.931.326.331.021.687-.097.88-.368.19-.265.191-.617.185-.944l-.019-.978a.636.636 0 0 0-.05-.286c-.044-.087-.145-.153-.238-.125-.077.303-.265.635-.576.66-.24.02-.46-.164-.559-.384-.185-.411.056-.651-.44-.713-.45-.056-.936-.017-1.39-.026M59.795 60.396c-.169-.009-.347-.016-.494.066-.246.137-.31.478-.22.745.088.266.29.477.478.685.362.397.698.816 1.008 1.255.19.27.385.562.684.706.252.12.544.12.824.115.049 0 .101-.002.142-.03a.245.245 0 0 0 .076-.112c.329-.778.387-1.667.162-2.48-.31-.047-.56.376-.864.299-.205-.053-.285-.304-.288-.517-.005-.343.072-.607-.3-.668-.39-.063-.814-.043-1.208-.064"/>
        <path fill="#C70066" d="M55.318 27.935c-1.07 1.932-.777 4.29-.933 6.494-.146 2.062-.71 4.108-.533 6.168.005.06.014.127.06.168.04.037.102.042.158.045 2.851.143 5.713.096 8.559-.14-.065-3.56-.13-7.121-.086-10.682.006-.486.013-.982-.133-1.445-.305-.973-1.246-1.641-2.234-1.892-1.66-.42-3.939-.379-4.858 1.284"/>
        <path fill="#EC59A9" d="M53.584 28.028c-.863.864-1.4 2.01-1.713 3.19-.313 1.181-.417 2.406-.52 3.623l-.16 1.894c-.009.114-.01.249.082.318.065.05.156.046.238.04l2.427-.18a.748.748 0 0 0 .324-.075c.221-.128.252-.429.255-.684.02-1.672-.033-3.354.237-5.003a9.89 9.89 0 0 1 .68-2.372c.333-.76.972-1.342 1.31-2.05-1.09-.237-2.425.563-3.16 1.299M63.203 27.788c.89.912 1.128 2.258 1.324 3.517l.8 5.131c.012.075.022.156-.017.22-.038.063-.114.092-.184.116a30.535 30.535 0 0 1-3.274.91 32.611 32.611 0 0 0-.372-8.207c-.091-.529-.21-1.062-.424-1.556-.085-.197-.72-.974-.596-1.17.144-.228 1.182.128 1.396.203.503.178.973.453 1.347.836"/>
        <path fill="#B69896" d="M55.83 20.367c-.453.956-.45 2.056-.439 3.114l.023 2.094c2.238.07 4.53.134 6.658-.564.084-.858.168-1.724.078-2.581-.09-.858-.367-1.718-.928-2.372-1.352-1.575-4.42-1.735-5.391.31"/>
    </g>
</svg>
