<svg xmlns="http://www.w3.org/2000/svg" xmlns:xlink="http://www.w3.org/1999/xlink" width="39" height="79" viewBox="0 0 39 79">
    <defs>
        <path id="a" d="M.12.19h4.985v6.668H.12z"/>
    </defs>
    <g fill="none" fill-rule="evenodd">
        <path fill="#DDA37C" d="M5.99 42.977c-.422-.137-.881.114-1.177.444-.296.33-.492.739-.788 1.068-.05.055-.105.113-.117.187-.01.069.02.137.043.203.183.5.017 1.048.195 1.562.086.25.232.476.394.686.475.618 1.115 1.128 1.863 1.359"/>
        <path fill="#823725" d="M13.555 78.492c.291.226.718.216 1.05.053.33-.164.58-.455.782-.762.203-.307.37-.637.594-.93.179-.235.394-.445.541-.701.256-.445.286-.985.498-1.453.088-.195.21-.412.124-.608-.063-.143-.218-.221-.37-.263-.137-.038-.292-.052-.417.017a.667.667 0 0 0-.193.19c-.572.747-1.023 1.575-1.53 2.365-.254.396-.522.785-.825 1.146-.255.302-.716.588-.254.946"/>
        <path fill="#D1A384" d="M14.233 73.348c.296.085.44.441.4.745-.04.304-.216.57-.374.835-.37.623-.66 1.29-.95 1.953-.12.275-.24.592-.114.864.14.305.548.412.87.314.323-.098.573-.349.79-.606.666-.791 1.144-1.718 1.617-2.637.163-.316.329-.687.186-1.014-.086-.198-.269-.334-.444-.46-.354-.256-.722-.518-1.15-.604"/>
        <path fill="#823725" d="M13.755 78.31l-.228-.269c.035-.028.045-.13.049-.174.057-.584-.014-.99-.223-1.276l.286-.207c.345.473.33 1.093.29 1.517-.01.101-.03.289-.174.41"/>
        <path fill="#823725" d="M13.917 77.828l-.253-.246c.075-.076.14-.164.209-.257.068-.093.139-.188.223-.277.234-.245.527-.354.784-.293a1.2 1.2 0 0 1 .08.024c.03.01.068.021.084.02l.025-.005c.058-.011.192-.038.287.07l-.266.232a.107.107 0 0 0 .077.038c-.01 0-.019.003-.029.005a.53.53 0 0 1-.286-.025c-.019-.007-.037-.013-.055-.017-.156-.038-.332.075-.444.193-.069.072-.13.155-.195.243-.073.099-.149.201-.24.295M1.039 77.793c-.001.368.268.697.6.857.333.16.717.178 1.086.15.368-.03.734-.1 1.103-.103.297-.003.596.037.89-.004.51-.071.959-.378 1.46-.498.21-.05.457-.088.56-.275.076-.136.043-.307-.016-.45-.054-.132-.138-.263-.27-.319a.67.67 0 0 0-.268-.035c-.945.008-1.88.16-2.82.245-.47.043-.943.07-1.416.053-.397-.015-.906-.202-.909.38"/>
        <path fill="#D1A384" d="M5.548 75.178c.114.285-.08.616-.348.77-.267.155-.587.18-.893.218-.723.09-1.43.27-2.136.449-.292.074-.617.173-.758.438-.157.297.008.683.283.877.276.193.629.236.966.249 1.037.039 2.068-.152 3.088-.343.352-.066.749-.163.921-.474.105-.189.101-.416.095-.631-.013-.434-.03-.884-.224-1.273"/>
        <path fill="#9CBD9C" d="M.542 74.325c-.078.35-.154.729-.01 1.059.22.505.844.674 1.388.782 2.43.482 4.939.965 7.365.464 1.768-.366 3.526-1.251 5.293-.876.319.067.642.176.963.123.277-.046.52-.208.752-.365l2.469-1.677c.174-.118.364-.26.395-.468.018-.124-.025-.247-.068-.364a16.203 16.203 0 0 0-2.505-4.422c-1.432-1.796-3.337-3.482-3.559-5.762-.082-.85.065-1.79-.427-2.49-.287-.41-.746-.658-1.187-.893l-2.44-1.297c-.286-.152-.578-.305-.897-.353-.31-.047-.628.01-.932.085a7.35 7.35 0 0 0-3.443 1.984c-1.205 1.23-1.216 2.292-1.404 3.937-.404 3.537-.99 7.054-1.753 10.533"/>
        <path fill="#1F9995" d="M.036 59.155c.092.562.372 1.074.649 1.573.05.09.102.184.182.25.201.166.497.11.755.151.606.095.964.707 1.248 1.247a77.188 77.188 0 0 0 1.66 2.935l2.613 4.472 1.971 3.372c.23.393.641.848 1.053.651.256-.122.338-.433.456-.69.201-.438.566-.779.853-1.169.722-.98.926-2.265.8-3.474-.126-1.21-.555-2.365-1-3.497a1.967 1.967 0 0 0-.237-.47c-.11-.147-.257-.26-.399-.375-1.233-.998-2.209-2.297-3.52-3.19-.444-.302-.922-.554-1.358-.868-.834-.6-1.504-1.418-2.392-1.937-1.23-.72-3.695-1.181-3.334 1.019"/>
        <path fill="#067070" d="M.303 56.439c-.043.372-.061.764.093 1.106.33.732 1.255.923 2 1.23.566.232 1.084.578 1.513 1.013.388.393.701.854 1.062 1.273.383.447.82.846 1.254 1.243l1.602 1.465c1.106 1.012 2.305 2.07 3.791 2.299.743-.941.605-2.338.02-3.382-.586-1.045-1.535-1.829-2.423-2.636a34.469 34.469 0 0 1-4.436-4.885c-.1-.134-.203-.273-.346-.361-.155-.097-.342-.125-.524-.151-.755-.11-1.908-.5-2.67-.285-.819.232-.852 1.375-.936 2.07"/>
        <path fill="#492317" d="M3.837 44.856c-.366-.404-.75-.907-.507-1.336.253-.445 1.015-.52 1.66-.539l.864-.023c.319-.009.657-.014.946.107.314.131.508.387.654.637.518.885.655 1.864.574 2.806-.066.768-.057 2.22-1.412 1.357-1.108-.705-1.958-2.103-2.779-3.009"/>
        <path fill="#9CBD9C" d="M11.362 46.826c.135.324.192.673.247 1.018l.765 4.737c.107.667.215 1.345.134 2.016-.08.671-.377 1.346-.933 1.737.35-2.025-.458-4.06-1.362-5.907-.116-.236-.235-.475-.407-.676-.546-.64-1.549-.82-1.96-1.553-.32-.57-.155-1.317.248-1.833.34-.437 1.15-1.147 1.754-1.076.625.074 1.293 1.01 1.514 1.537"/>
        <path fill="#067070" d="M6.066 46.104A36.358 36.358 0 0 1 4.66 42.09a4.503 4.503 0 0 1 3.548.22 4.454 4.454 0 0 1 2.236 2.745c.05.183.088.372.065.56-.035.28-.202.525-.368.753-.654.899-1.455 1.813-2.514 2.236-.781.312-.788.092-.914-.615-.118-.657-.393-1.272-.648-1.885"/>
        <path fill="#CAD6E3" d="M6.982 48.156c-.303-.946-.888-1.796-1.398-2.666-.51-.871-.961-1.815-.951-2.793.001-.19.031-.4.185-.52.265-.207.68-.01.945.215.826.7 1.345 1.672 1.637 2.67.239.813.35 1.659.412 2.493.017.22.104.548-.084.72-.194.176-.66.147-.746-.12M7.047 59.786c-1.163-1.028-2.206-2.201-3.484-3.085-.895-.62-1.944-1.138-2.453-2.096-.17-.32-.267-.72-.094-1.04.246-.453.884-.516 1.257-.874.368-.353.45-.967.896-1.216.245-.136.543-.126.823-.112.499.024 1.023.056 1.446.32.277.175.486.434.69.688l.991 1.238c1.105 1.377 2.247 2.838 2.537 4.576.125.75.093 1.838-.46 2.438-.616.667-1.62-.369-2.149-.837"/>
        <path fill="#1F9995" d="M3.16 49.584c.155-.208.36-.372.563-.533l.72-.57c.49-.389 1.013-.792 1.634-.876.472-.064.947.066 1.398.218.835.281 1.657.654 2.302 1.25 1.38 1.275 1.7 3.29 1.943 5.146l.783 6c.052.393.1.812-.072 1.17-.075.159-.19.295-.275.448-.445.786-.158 1.968-.9 2.486-.08-.566-.468-1.033-.841-1.467a61.814 61.814 0 0 0-1.725-1.95c-.3-.32-.612-.642-.808-1.035-.59-1.183.018-2.652-.398-3.907-.163-.494-.476-.923-.69-1.397-.254-.561-.37-1.216-.755-1.711-.46-.592-1.164-.687-1.864-.792-.443-.067-1.046-.058-1.307-.488-.311-.512-.032-1.552.293-1.992"/>
        <path stroke="#823725" stroke-width=".5" d="M1.343 77.668c.105.022.21-.035.3-.092.413-.258.819-.591.955-1.056M1.81 77.497c.23.027.462-.01.692.013.23.023.475.124.57.334.031.07.046.152.1.207.04.039.102.074.092.128"/>
        <path fill="#4F332F" d="M35.526 37.522c.133-.062.254-.147.388-.208.323-.147.692-.142 1.046-.134.521.012 1.097.046 1.466.411.288.287.38.714.41 1.118.028.368.01.762-.198 1.066-.27.393-.855.532-1.274.302-.233-.128-.418-.351-.677-.408-.163-.036-.332 0-.496.03-.57.1-1.166.116-1.72-.053-.553-.169-1.061-.537-1.311-1.056-.281-.584-.093-1.297.608-1.263.637.03 1.057.52 1.758.195"/>
        <path fill="#21160A" d="M37.876 37.484c.077.31-.186.622-.492.715-.307.093-.637.023-.947-.058-.227-.059-.466-.133-.618-.31a1.001 1.001 0 0 1-.181-.383c-.15-.522-.147-1.126.18-1.56 1.086-1.447 1.863.807 2.058 1.596"/>
        <path fill="#8C7A6F" d="M36.334 26.14c-.029 2.086 1.195 4.023 1.255 6.108.032 1.127-.27 2.311.172 3.35.137.324.326.743.064.979-.092.082-.218.113-.34.139-.9.195-1.819.298-2.74.309-.265.003-.568-.02-.731-.229-.09-.116-.117-.269-.14-.415a142.9 142.9 0 0 1-1.255-10.202c-.123-1.424-.156-3.048.866-4.053.653-.642 2.508-1.16 3.203-.28.7.887-.34 3.244-.354 4.295"/>
        <path fill="#4F332F" d="M31.788 38.02c-.204.49-.775.717-1.303.79-.528.074-1.082.049-1.572.258-.293.125-.548.328-.844.444a1.601 1.601 0 0 1-1.408-.132c-.107-.067-.209-.152-.253-.269a.545.545 0 0 1-.021-.246c.06-.601.555-1.072 1.078-1.38.61-.36 1.216-.622 1.767-1.073.338-.276.705-.734 1.19-.735.883-.001 1.676 1.597 1.366 2.343"/>
        <path fill="#21160A" d="M29.063 35.067c.074.284.002.583-.033.874-.035.291-.022.619.18.833.25.264.678.246 1.027.14.284-.087.565-.228.74-.467.354-.485.155-1.16-.056-1.72-.06-.16-.123-.324-.24-.449-.163-.173-.406-.243-.637-.305-.14-.039-.286-.077-.43-.055-.262.041-.456.283-.523.538-.066.256-.031.526.004.787"/>
        <path fill="#A89688" d="M30.338 23.773l-.518 3.015c-.04.23-.08.462-.173.677-.1.229-.256.428-.376.648-.452.83-.332 1.835-.404 2.775-.073.963-.353 1.999-.881 2.818-.29.45-.646.877-.832 1.384-.127.347-.412 1.14-.054 1.417.41.315 1.864-.034 2.33-.131.96-.199 1.938-.572 2.893-.35.211.048.44.125.637.036.238-.107.32-.412.276-.668-.043-.256-.179-.486-.26-.733-.275-.83.174-1.311.508-1.984.395-.794.537-1.832.678-2.698.34-2.077.333-4.195.227-6.292-.033-.665-.085-1.362-.44-1.927-.34-.539-.95-.9-1.588-.942-2.037-.132-1.785 1.569-2.023 2.955"/>
        <path fill="#B78865" d="M33.873 26.165c.31.41.166 1.081-.286 1.33a1.34 1.34 0 0 1-.54.143 1.29 1.29 0 0 1-.506-.042c-.405-.133-.664-.584-.61-1.004.055-.42.395-.78.805-.896.41-.118.87-.007 1.206.253"/>
        <path fill="#B8BC9C" d="M36.827 8.47c.518 1.538.931 3.14.87 4.761-.035.946-.231 1.878-.367 2.814a22.253 22.253 0 0 0-.206 4.23c.02.44.054.885-.046 1.314-.1.428-.358.846-.765 1.019-.267.113-.568.111-.859.102a21.889 21.889 0 0 1-2.857-.284c-.977-.162-2.004-.423-2.684-1.14-.995-1.045-.926-2.67-.795-4.103l.098-1.06c.247-2.694.521-5.48 1.858-7.836.69-1.215 1.762-2.34 3.154-2.714 1.623-.437 2.18 1.654 2.6 2.897"/>
        <path fill="#575939" d="M35.85 15.142c.27-.854.54-1.718.591-2.61.051-.893-.14-1.832-.709-2.526-.568-.693-1.562-1.077-2.409-.773-.843.303-1.34 1.164-1.66 1.996-.637 1.652-.854 3.547-.154 5.174.19.441.442.854.633 1.295.522 1.212.544 2.582.395 3.892-.15 1.31-.461 2.6-.58 3.913-.026.285-.036.595.13.828.328.458 1.04.298 1.565.09.174.194.532-.061.556-.319.024-.258-.041-.562.146-.743.075-.073.18-.11.26-.175.157-.126.208-.337.249-.532l.644-3.042c.21-.993.422-2.013.269-3.016-.094-.613-.322-1.203-.377-1.82-.055-.619-.065-1.284.451-1.632"/>
        <path fill="#B78865" d="M29.35 3.601c-.02.047-.037.093-.05.142-.091.332.114.645.168.97.03.18.025.373.068.548.082.339.326.562.579.706.392.224.83.31 1.267.36.624.071 1.282.066 1.876-.272.593-.339 1.103-1.086 1.1-1.887-.002-.402-.127-.772-.256-1.126-.115-.317-.237-.635-.419-.892-.4-.565-1.028-.765-1.623-.94-.58-.171-1.378-.376-1.854.29-.347.486-.339 1.17-.629 1.682-.078.138-.165.274-.227.42"/>
        <path fill="#492317" d="M29.749 3.106c-.189-.5-.294-1.09-.053-1.574.184-.37.546-.612.92-.726.376-.114.77-.116 1.157-.118.957-.003 1.976.013 2.762.579.737.53 1.15 1.531 1.026 2.49-.087.675-.412 1.292-.755 1.872-.142.24-.298.487-.534.613-.198.106-.427.112-.645.096-1.664-.127-3.27-1.618-3.878-3.232"/>
        <path fill="#998636" d="M32.947 6.246c-.13.26-.407.407-.646.574-1.246.867-1.658 2.483-1.98 3.96-.154.707-.309 1.423-.267 2.145.013.227.045.457-.007.678-.052.22-.212.436-.438.47-.2.029-.398-.092-.515-.256-.263-.366-.18-.865-.085-1.304l.572-2.67c.096-.445.192-.893.372-1.312.194-.45.48-.855.693-1.296.309-.638.562-1.752 1.315-2.051.619-.246 1.314.405.986 1.062"/>
        <g transform="translate(30.597 .025)">
            <mask id="b" fill="#fff">
                <use xlink:href="#a"/>
            </mask>
            <path fill="#EAD063" d="M.174 1.062C.12.888.075.675.2.542.268.473.369.445.465.42.971.292 1.487.168 2.009.192c.88.042 1.68.5 2.439.944.164.097.332.196.453.342.407.49.128 1.22-.165 1.786L3.701 5.263c-.326.628-.716 1.313-1.394 1.529-.381.121-.805.068-1.171-.093C.193 6.285.918 5.283.922 4.534.93 3.343.522 2.186.174 1.062" mask="url(#b)"/>
        </g>
    </g>
</svg>
