<svg xmlns="http://www.w3.org/2000/svg" xmlns:xlink="http://www.w3.org/1999/xlink" width="106" height="74" viewBox="0 0 106 74">
    <defs>
        <path id="a" d="M.014.019h3.03v4.96H.014z"/>
    </defs>
    <g fill="none" fill-rule="evenodd">
        <path fill="#212F29" d="M28.728 55.606c0 .052.004.113.047.141.024.017.056.019.086.02l.85.022c.222.006.457.008.646-.107.189-.116.294-.396.152-.567.85.01 1.687-.186 2.515-.38l1.556-.367c.23-.054.472-.115.646-.276.174-.161.246-.459.09-.637-.615.002-1.21.207-1.822.258a3.691 3.691 0 0 1-2.518-.734c-.151-.115-.313-.248-.502-.237a.72.72 0 0 0-.246.075c-.443.196-1.357.41-1.498.845-.17.521-.002 1.39-.002 1.944M22.827 55.372c0 .05.002.107.037.144.045.048.122.041.187.03.526-.083 1.154-.253 1.301-.767.038-.132.038-.278.11-.396.114-.189.363-.234.58-.272a6.43 6.43 0 0 0 2.957-1.363c.25-.207.507-.492.451-.813l-2.416.147c-.603.037-1.293.04-1.7-.406-.346-.379-.58-.166-.98.05-.278.151-.455.234-.524.563-.197.941-.003 2.12-.003 3.083"/>
        <path fill="#036C78" d="M25.723 28.498c.287.02.598.051.81.247.187.174.255.439.309.689.658 3.03.708 6.21-.014 9.225-.182.757-.41 1.501-.586 2.26-.75 3.246-.5 6.636-.887 9.947-.073.628-.227 1.34-.779 1.645-.409.225-.94.14-1.321-.13s-.628-.695-.776-1.14c-.45-1.346-.072-2.817-.14-4.236-.041-.865-.249-1.716-.289-2.582-.041-.892.097-1.782.16-2.673.127-1.842-.073-3.694.048-5.536.062-.938.207-1.872.194-2.812-.02-1.49-.435-2.946-.423-4.437.006-.938.454-.703 1.254-.645l2.44.178"/>
        <path fill="#986978" d="M7.705 24.567c.188.007.426-.002.498-.177.023-.054.023-.115.023-.174-.001-.616.056-1.269-.02-1.877-.436-.043-1.475.306-1.734.713-.303.478-.207 1.421-.251 1.958.419-.353.946-.463 1.484-.443"/>
        <path fill="#D7E8DD" d="M5.799 50.974c.537-.15 1.226.245 1.614-.158.11-.113.163-.269.207-.42.428-1.457.328-3.009.309-4.528-.027-2.154.12-4.31.435-6.441-.023.145-1.905.23-2.213.695-.46.695-.213 2.594-.248 3.42-.105 2.476-.14 4.954-.104 7.432M9.681 51.068l2.346-.006c-.108-3.913.138-7.788.159-11.684-2.464.402-2.426 1.483-2.444 3.789-.005.655-.049 7.9-.06 7.9"/>
        <path fill="#009697" d="M.76 28.027c-.43.758-.735 1.65-.528 2.497.207.847 1.088 1.562 1.924 1.327-.386-1.235.738-2.683 2.026-2.609l.277 12.184c.004.151.012.316.111.43.124.144.339.152.528.149l7.038-.099c.178-.003.374-.012.503-.136.106-.103.139-.26.161-.406.351-2.234-.175-4.499-.556-6.728-.58-3.394-.462-6.76-.77-10.15-1.738-.386-4.262-.14-6.034.24-1.89.408-3.719 1.603-4.68 3.301"/>
        <path fill="#0E7774" d="M3.954 25.145c-1.038.636-1.976 1.423-2.88 2.24-.273.246-.547.501-.733.819-.288.489-.34 1.08-.34 1.647-.002.527.044 1.081.331 1.523.287.442.883.721 1.356.492.642-.31.664-1.262 1.205-1.728.4-.343.99-.346 1.441-.616.662-.397.866-1.247 1.01-2.007.25-1.317.769-3.453-1.39-2.37M14.513 25.83c.306.28.589.59.922.839.214.161.453.3.622.51.493.612.203 1.521-.154 2.222a16.826 16.826 0 0 1-3.622 4.756c-.058.053-.133.11-.207.085-.047-.016-.078-.06-.105-.102l-.557-.844a.642.642 0 0 1-.106-.217c-.039-.19.095-.367.22-.515a34.17 34.17 0 0 0 2.25-2.99c.107-.16.218-.343.18-.532-.027-.14-.13-.25-.238-.343a2.53 2.53 0 0 0-1.287-.59c-.478-.07-.998-.009-1.412-.258-.535-.32-.68-1.018-.775-1.635-.053-.347-.492-1.784-.3-2.047.24-.33.999-.082 1.379.003a7.033 7.033 0 0 1 3.19 1.658"/>
        <path fill="#3D3228" d="M5.73 50.644l-.358 2.778c-.01.087-.02.182.025.257.062.102.198.124.318.13a4.105 4.105 0 0 0 1.613-.236c.205-.074.412-.17.553-.337.208-.246.233-.595.236-.918a12.455 12.455 0 0 0-.093-1.635c-.022-.18-.056-.376-.19-.498-.237-.217-.613-.077-.897.072l-1.355.71M10.246 53.13c.043.132.097.272.214.347.098.064.223.068.34.065A3.96 3.96 0 0 0 12 53.326c.133-.046.27-.104.358-.214.106-.132.123-.312.133-.48.031-.51.043-1.02.033-1.53-.002-.108-.008-.225-.078-.307-.449-.527-1.603-.543-2.134-.073-.644.571-.302 1.68-.065 2.408"/>
        <path fill="#11200C" d="M4.369 18.359c-.797.948-.898 2.421-.238 3.47.66 1.05 2.029 1.591 3.224 1.276.41-.108.793-.304 1.156-.526.302-.185.603-.398.783-.705.152-.26.204-.567.242-.866.094-.737.124-1.482.09-2.225-.015-.311-.044-.634-.198-.906-.125-.22-.325-.391-.54-.525-1.346-.84-3.543-.154-4.519 1.007"/>
        <path fill="#1E2D18" d="M3.954 23.816c.408-.227 1.047.391 1.292.702.053.068.106.14.126.224.037.148-.03.3-.1.435-.148.288-.325.583-.608.74-.282.159-.697.121-.86-.16-.072-.121-.086-.268-.098-.41l-.04-.461c-.023-.257-.044-.524.05-.763.062-.157.144-.255.238-.307"/>
        <path fill="#1E2D18" d="M3.802 23.975c.166.196.458.21.715.209.212 0 .44-.008.606-.14.147-.116.212-.308.248-.493.116-.595.044-1.702-.83-1.505-.62.14-1.169 1.423-.74 1.929M4.507 27.488c.205.306.568.544.928.471a.358.358 0 0 0 .136-.054.378.378 0 0 0 .081-.084c.164-.22.21-.507.215-.782.01-.565-.378-1.64-1.137-1.329-.663.273-.545 1.294-.223 1.778M5.352 30.45a5.19 5.19 0 0 0-.012.957c.01.121.028.252.114.338a.464.464 0 0 0 .26.111c.275.047.572.011.81-.136.24-.147.412-.414.407-.696-.003-.236-.126-.458-.29-.628-.163-.17-.365-.295-.566-.419-.18-.111-.358-.31-.54-.164-.13.106-.183.48-.183.637"/>
        <path fill="#1E2D18" d="M4.99 28.04c-.1.294-.119.608-.134.918-.009.179-.016.362.031.535a.88.88 0 0 0 .482.563c.111.05.242.076.355.03.136-.056.214-.199.271-.335.119-.282.197-.597.124-.895-.087-.354-.36-.605-.566-.89-.065-.092-.169-.363-.296-.356-.135.007-.23.327-.266.43M5.854 32.96c-.037.19-.056.398.033.57a.883.883 0 0 0 .183.223c.137.13.296.258.484.277.248.025.471-.141.656-.308.169-.152.334-.317.424-.525.078-.18.093-.394.002-.567a.986.986 0 0 0-.205-.244c-.205-.195-.723-.756-1.043-.633-.312.121-.478.924-.534 1.207M6.523 35.854c.054.047.138.003.19-.047.051-.05.111-.112.181-.098.047.01.08.052.118.08.142.107.344.036.497-.054.153-.09.32-.2.492-.16-.002-.109.005-.219.023-.327.006-.033.014-.069.041-.088.022-.015.05-.016.075-.016l.234-.003c.033-.075-.028-.155-.085-.214l-.61-.628a.449.449 0 0 0-.185-.135c-.12-.034-.241.035-.351.092-.287.151-.562.118-.623.448-.025.134-.083 1.077.003 1.15"/>
        <path fill="#FFCBF8" d="M7.17 34.504c.129-.05.264-.104.35-.213.133-.172.098-.416.057-.63-.195-.08-.397.075-.578.181-.325.191-.84.178-.834.643.007.6.681.142 1.004.019"/>
        <path fill="#986978" d="M1.892 31.234l.407.232c.327.187.691.428.733.804.033.299-.172.59-.44.725-.269.134-.586.136-.881.081-.236-.044-.476-.129-.639-.306-.283-.31-.248-.786-.196-1.202.01-.084.028-.18.102-.22a.267.267 0 0 1 .138-.024l.91.016"/>
        <path fill="#DD9D57" d="M20.954 11.707c-.733 1.326-1.047 2.845-1.215 4.352-.218 1.964-.194 4.013.566 5.836.705 1.691 2.028 3.168 2.214 4.991.038.365.044.776.307 1.031.274.266.707.246 1.085.206a74.67 74.67 0 0 0 6.876-1.055c.292-.06.592-.123.842-.287.59-.386.725-1.183.782-1.887a33.13 33.13 0 0 0-1.17-11.778c-.304-1.06-.688-2.148-1.479-2.915-2.591-2.51-7.171-1.456-8.808 1.506"/>
        <path fill="#CCBE93" d="M25.319 25.758c.419.623.486 1.424.408 2.171-.016.164-.044.336-.146.464a.723.723 0 0 1-.241.181c-.725.373-1.71.118-2.163-.561-1.236-1.846.557-4.612 2.142-2.255"/>
        <path fill="#088D99" d="M27.335 37.593c1.122 4.823.642 9.856.916 14.8.039.695.203 1.539.861 1.754.374.122.789-.021 1.106-.254 1.108-.812 1.176-2.416 1.15-3.793-.146-8.04.13-16.088.824-24.099l-2.346.829c-1.28.452-2.534.829-3.878 1.026-1.264.184-.916.748-.635 1.79.34 1.263.485 2.569.84 3.834.386 1.372.839 2.725 1.162 4.113"/>
        <path fill="#E2D09F" d="M26.481 26.454c.021.294-.073.583-.19.854-.17.398-.393.781-.706 1.08-.314.3-.725.51-1.157.523a.843.843 0 0 1-.456-.097c-.362-.213-.395-.724-.331-1.14.126-.82.557-1.599 1.24-2.09.649-.467 1.547.114 1.6.87"/>
        <path fill="#BC8855" d="M30.854 11.692c.22-.007.454-.007.643.107.175.105.285.291.375.475.577 1.182.634 2.543.68 3.858.051 1.437.102 2.874.07 4.31-.015.71-.053 1.435-.315 2.094-.302.76-.879 1.375-1.479 1.929a18.41 18.41 0 0 1-2.353 1.845c-.467.307-.991.604-1.547.549-.73-.073-1.254-.72-1.69-1.313-.073-.101-.15-.21-.153-.335-.004-.149.096-.277.192-.39.563-.662 1.154-1.3 1.772-1.91 1.135-1.12 2.457-2.349 2.467-3.947.004-.541-.15-1.069-.282-1.594-.31-1.245-.633-2.687-.728-3.955-.101-1.348 1.234-1.69 2.348-1.723"/>
        <path fill="#462E24" d="M23.717 2.374a1.54 1.54 0 0 0-.26.204c-.19.186-.32.425-.424.67-.612 1.436-.387 3.383.313 4.753.735 1.44 2.326 1.543 3.662.83.288-.154.565-.358.715-.65.087-.169.126-.358.165-.545.19-.921.38-1.843.525-2.773.126-.816.401-1.599.305-2.436a.881.881 0 0 0-.11-.38c-.38-.592-1.383-.346-1.936-.327-.864.03-1.74.117-2.547.45-.14.058-.28.123-.408.204"/>
        <path fill="#B5A888" d="M93.993 7.42c-.084.065-.168.137-.272.153-.162.025-.316-.103-.378-.256-.062-.152-.053-.323-.044-.487.027-.501.05-1.003.023-1.504-.034-.603-.141-1.207-.067-1.806.052-.417.191-.82.381-1.194.137-.268.307-.53.554-.7.326-.224.762-.261 1.135-.129.372.133.679.422.867.77.19.35.264.747.365 1.13.122.458.285.908.339 1.378.053.471-.017.98-.317 1.346-.241.295-.601.463-.955.602-.562.22-1.143.318-1.631.697"/>
        <path fill="#C6BC9E" d="M94.65 7.09c-.007-.038-.014-.079 0-.116.017-.041.059-.067.098-.088.873-.468 1.933-.27 2.918-.365l-.096 1.406c-.008.13-.02.268-.102.368a.608.608 0 0 1-.264.164c-.587.23-1.52.56-2.159.423-.329-.07-.25-.351-.261-.633a7.548 7.548 0 0 0-.133-1.158"/>
        <g transform="translate(102.857 47.864)">
            <mask id="b" fill="#fff">
                <use xlink:href="#a"/>
            </mask>
            <path fill="#0B110A" d="M.014 3.272c-.007.49.053 1.032.414 1.362.344.313.853.338 1.318.344.418.007.922-.033 1.122-.403.076-.141.091-.307.104-.468.06-.733.12-1.475.016-2.203-.074-.523-.273-1.435-.735-1.77-.296-.215-.384-.093-.721.08-.195.099-.4.188-.581.31-.874.583-.922 1.785-.937 2.748" mask="url(#b)"/>
        </g>
        <path fill="#0B110A" d="M93.433 50.039c-.395-.066-.912-.069-1.066.302-.125.303.1.63.323.87.733.79 1.6 1.454 2.55 1.959.55.292 1.184.536 1.787.375.655-.175 1.118-.815 1.228-1.487.095-.576-.007-1.39-.338-1.886-.346-.52-.826-.186-1.344-.016-1.058.347-2.066.062-3.14-.117"/>
        <path fill="#597F99" d="M99.137 39.361c.167.886.336 1.773.604 2.633.301.963.726 1.882 1.148 2.798l1.576 3.41c.136.296.3.619.602.736.27.104.57.015.845-.074.79-.257 1.717-.676 1.808-1.504.042-.386-.12-.76-.28-1.113l-2.288-5.081c-.701-1.557-1.41-3.137-1.68-4.824-.31-1.93-.03-3.898.07-5.85.1-1.951-.005-4.005-.986-5.692-.173-.298-.443-.615-.783-.574-.161.02-.3.118-.43.216-1.194.904-2.26 2.073-2.691 3.511a4.285 4.285 0 0 0 .014 2.526c.265.811.928 1.3 1.181 2.075.697 2.13.872 4.602 1.29 6.807"/>
        <path fill="#7096B4" d="M93.998 40.619c.443 3.094 1.017 6.193.925 9.317-.004.151-.005.318.092.433.106.124.288.142.45.148.628.02 1.258-.015 1.88-.106.128-.019.264-.044.359-.133.116-.109.138-.282.152-.441.473-5.497-1.179-11.223.56-16.457.467-1.405 1.165-2.721 1.663-4.115.497-1.394.788-2.924.404-4.354-.105-.392-7.149.696-7.655 1.767-.47.994-.034 2.609.053 3.64.137 1.602.282 3.203.448 4.803.19 1.836.407 3.67.669 5.498"/>
        <path fill="#3731F9" d="M94.721 9.92a6.328 6.328 0 0 0-.869 2.372c-.157 1.045-.05 2.114-.188 3.162-.207 1.58-.956 3.036-1.33 4.585-.159.66-.249 1.333-.339 2.006l-.63 4.716c1.366.069 2.718-.26 4.047-.585l2.495-.612c.408-.1.821-.2 1.242-.203.349-.002.695.064 1.042.096.685.065 1.375.002 2.057-.085.158-1.879-.131-3.761-.318-5.637-.116-1.157-.193-2.32-.163-3.482.032-1.268.192-2.537.1-3.802-.092-1.265-.468-2.563-1.35-3.473-1.876-1.938-4.494-1.168-5.796.941"/>
        <path fill="#C6BC9E" d="M89.392 24.625c-.561 2.029-1.278 4.05-1.333 6.156.317.075.643.112.97.112.18-.001.373-.018.515-.13.119-.094.183-.24.236-.384.371-1.005.406-2.1.607-3.155.632-3.313 2.912-6.256 2.925-9.63 0-.084-2.112-.07-2.322.062-.505.319-.421 1.256-.5 1.782a44.142 44.142 0 0 1-1.098 5.187"/>
        <path fill="#6260FF" d="M92.493 10.241a9.959 9.959 0 0 0-2.369 6.83c.006.153.018.31.093.443.147.26.48.335.776.372a10.9 10.9 0 0 0 2.482.024c.143-.015.296-.038.402-.135.093-.087.13-.216.162-.34.634-2.534-.006-5.143 1.382-7.485.344-.582.697-1.173 1.202-1.621-.532.04-1.058.132-1.584.224-1.122.197-1.815.837-2.546 1.688"/>
        <path fill="#382E2B" d="M95.463.044c1.227-.228 2.566.454 3.106 1.583.266.555.347 1.178.39 1.791.056.773.037 1.61-.421 2.234-.123.168-.275.313-.395.483-.137.191-.233.412-.386.59-.414.483-1.123.547-1.758.576-.12.006-.248.01-.358-.04-.146-.069-.234-.22-.306-.366a5.683 5.683 0 0 1-.556-1.939c-.037-.367-.04-.742-.146-1.095-.107-.353-.345-.692-.696-.801-.093-.03-.192-.042-.278-.088-.157-.084-.238-.262-.3-.43-.127-.353-.217-.73-.18-1.104.041-.415.252-.861.672-.974.526-.14 1.076-.32 1.612-.42"/>
        <path fill="#DDAE97" d="M72.325 49.384c-1.182-2.04-2.214-4.188-2.799-6.473-.064-.25-.11-.55.073-.732.102-.102.253-.136.396-.164 1.12-.224 2.309-.466 3.455-.49.996-.02 1.058.682.91 1.52-.194 1.11-.496 2.212-.843 3.284a27.87 27.87 0 0 1-.55 1.545c-.077.196-.72 1.374-.642 1.51M61.673 47.481c.42.714.892 1.474 1.657 1.786a3.15 3.15 0 0 0 .828-2.02c.021-.676-.176-1.338-.372-1.986l-1.177-3.894c-.07-.23-.153-.478-.354-.608-.399-.256-.888.12-1.24.438-.315.283-1.138.64-1.301 1.005-.184.412.142 1.333.26 1.742.366 1.262 1.037 2.412 1.699 3.537M66.007 29.129l3.213-.265c-.07.912-.164 1.822-.281 2.729a17.046 17.046 0 0 0-1.439-.142c-.278-.016-.992.107-1.204-.077-.23-.198-.134-2.258-.289-2.245M64.046 70.05c-.004.134-.008.27.018.402.028.138.088.267.147.395l.235.506c.036.077.077.16.153.199.047.023.1.027.153.03.353.017.763-.015.968-.304.14-.197.14-.458.135-.7l-.036-1.616c-.006-.282-.013-.567-.086-.838-.031-.114-1.433.158-1.564.325-.26.331-.112 1.206-.123 1.6M70.588 71.084c0 .058.001.122.038.167.04.05.11.061.175.069.205.022.412.031.618.027a.486.486 0 0 0 .174-.026c.106-.044.17-.152.213-.258.138-.336.145-.71.15-1.074l.025-1.659c-.334 0-.727-.059-1.056-.001-.446.078-.338.164-.338.646v2.109"/>
        <path fill="#786E83" d="M72.33 46.496c.136.674.121 1.369.108 2.056-.133 6.7-.148 13.402-.045 20.102l-3.4.166-.078-6.15c-.013-1.058-.027-2.12-.206-3.163-.22-1.29-.69-2.524-.979-3.801-.158-.696-.262-1.403-.366-2.11l-.233-1.579c.172 1.168.122 2.356.073 3.536l-.54 12.883c-1.255.363-2.57.51-3.874.433.274.016-.037-11.935-.08-13.01-.09-2.192-.178-4.385-.2-6.58-.006-.693-.287-2.19.189-2.764.456-.55 1.623-.282 2.226-.262l7.405.243"/>
        <path fill="#BB6F5F" d="M62.289 70.157c-.178-.003-.36-.006-.525.062-.406.168-.536.72-.384 1.134.151.414.5.718.842.996.488.396.99.78 1.536 1.089.334.189.692.352 1.074.377.382.025.792-.112 1.014-.425.218-.307.22-.714.212-1.092l-.021-1.131c-.002-.113-.005-.23-.057-.33-.052-.1-.168-.177-.276-.145-.088.35-.304.734-.662.764-.277.023-.53-.19-.644-.445-.214-.475.063-.753-.508-.824-.519-.065-1.078-.02-1.601-.03M68.894 69.833c-.194-.01-.4-.018-.57.077-.282.157-.356.552-.253.86.102.309.334.552.552.792.416.46.804.944 1.16 1.452.22.313.445.65.79.816.29.14.625.138.948.133.057 0 .117-.002.163-.035a.284.284 0 0 0 .088-.13c.38-.898.446-1.926.188-2.867-.358-.054-.646.436-.996.346-.237-.061-.33-.352-.332-.597-.006-.397.083-.702-.346-.773-.45-.073-.937-.05-1.392-.074"/>
        <path fill="#C70066" d="M63.736 32.3c-1.232 2.234-.895 4.96-1.075 7.508-.168 2.385-.818 4.75-.614 7.132.006.07.016.147.068.194.048.044.118.05.183.052 3.285.166 6.582.112 9.861-.162-.074-4.116-.148-8.233-.098-12.35.007-.562.014-1.135-.153-1.671-.352-1.126-1.436-1.898-2.575-2.188-1.913-.486-4.538-.438-5.597 1.484"/>
        <path fill="#EC59A9" d="M61.738 32.407c-.994 1-1.613 2.325-1.973 3.69-.361 1.365-.48 2.78-.599 4.188l-.184 2.19c-.011.131-.012.288.093.368.076.057.18.052.274.046l2.797-.21c.128-.009.262-.02.373-.084.255-.148.29-.497.294-.792.024-1.933-.038-3.878.273-5.784.153-.94.402-1.87.783-2.743.384-.878 1.12-1.552 1.51-2.37-1.256-.275-2.794.65-3.64 1.501M72.82 32.13c1.026 1.054 1.3 2.61 1.526 4.066l.923 5.934c.013.085.025.18-.02.253-.045.074-.132.107-.213.134-1.236.42-2.496.772-3.772 1.052a37.838 37.838 0 0 0-.428-9.488c-.106-.612-.242-1.228-.489-1.8-.098-.228-.829-1.125-.686-1.352.165-.264 1.362.147 1.608.235.58.205 1.12.522 1.552.966"/>
        <path fill="#B69896" d="M64.327 23.55c-.523 1.105-.52 2.376-.506 3.6l.026 2.42c2.579.083 5.22.157 7.671-.651.096-.993.193-1.993.09-2.984-.104-.992-.423-1.986-1.07-2.743-1.557-1.821-5.092-2.006-6.211.358"/>
    </g>
</svg>
