<svg xmlns="http://www.w3.org/2000/svg" xmlns:xlink="http://www.w3.org/1999/xlink" width="122" height="71" viewBox="0 0 122 71">
    <defs>
        <path id="a" d="M.202.102h3.37v4.271H.201z"/>
        <path id="c" d="M6.905.225c-.395.003-.788.048-1.181.077-.534.04-1.07.05-1.605.052h-.665a31.324 31.324 0 0 0-2.143.043C1.07.413.827.434.587.463.324.495.235.463.235.747c0 .457.1.908.197 1.353l.703 3.213c.767-.01 1.535.04 2.294.145.348.048.693.108 1.042.14.353.03.707.032 1.06.028.645-.006 1.29-.027 1.934-.063.284-.016.573-.036.842-.131a.36.36 0 0 0 .14-.079.404.404 0 0 0 .082-.16l.44-1.317c.191-.572.382-1.146.526-1.733.15-.619.246-1.25.341-1.879-.35-.06-.708.004-1.062.023C8.423.307 8.072.283 7.72.26c-.26-.017-.52-.035-.782-.035h-.034z"/>
        <path id="e" d="M10.055.565a32.714 32.714 0 0 1-8.63 2.122c-.141 2.415-.302 4.91-1.398 7.069a15.697 15.697 0 0 1 4.011 8.47c3.188.558 6.511 1.173 9.086 3.13.117.088.24.182.385.2.138.018.274-.037.403-.09.95-.393 1.902-.777 2.859-1.153 2.12-.833 4.4-1.637 6.631-1.178l1.757-3.76c.506-1.081 1.02-2.178 1.791-3.09-.735-.372-1.274-1.036-1.76-1.7-1.588-2.17-2.86-4.55-4.126-6.92-.048-.092-.782-.152-.906-.178a31.84 31.84 0 0 1-6.808-2.263C12.753.947 12.18.611 11.582.34a1.11 1.11 0 0 0-.465-.106c-.355 0-.675.179-1.062.332"/>
        <path id="g" d="M.204.157h7.235V6.36H.204z"/>
    </defs>
    <g fill="none" fill-rule="evenodd">
        <path fill="#EFCFC5" d="M98.52 47.113c-.108-.158-.227-.323-.405-.397-.3-.126-.668.082-.784.385-.116.303-.021.655.17.918.19.263.464.452.739.626.274.174.559.34.786.573.04.041.09.089.147.08a.18.18 0 0 0 .078-.042c.44-.346.25-.551.012-.961a19.769 19.769 0 0 0-.743-1.182"/>
        <path fill="#433D41" d="M100.51 68.41c-.142.048-.288.1-.403.197-.116.097-.196.25-.168.397.049.253.354.35.61.382.967.121 1.965-.01 2.87-.375l.012.596c.256-.003.51-.026.762-.07.073-.012.151-.029.2-.084a.327.327 0 0 0 .063-.164c.059-.332.24-1.179-.045-1.376-.256-.177-.781-.165-1.08-.126a14.73 14.73 0 0 0-2.82.622"/>
        <g transform="translate(114.262 66.213)">
            <mask id="b" fill="#fff">
                <use xlink:href="#a"/>
            </mask>
            <path fill="#433D41" d="M.398 3.382c-.092.166-.185.339-.195.528-.01.19.09.399.273.45.152.044.311-.03.449-.11a4.45 4.45 0 0 0 1.523-1.458c.192-.302.35-.644.333-1.001.098.133.22.247.359.336l.335-.337c.051-.051.106-.114.094-.185-.006-.042-.035-.077-.063-.11-.372-.433-.617-.923-.926-1.393-.114.087-.289.217-.364.342-.042.072-.035.221-.09.276-.091.09-.214.073-.315.175-.118.12-.198.341-.283.488-.383.663-.76 1.329-1.13 1.999" mask="url(#b)"/>
        </g>
        <path fill="#EFCFC5" d="M103.385 67.878a.458.458 0 0 0-.007.207c.035.123.166.194.292.218.165.033.337.01.502-.025.138-.03.288-.079.356-.202a.524.524 0 0 0 .05-.192c.084-.668.123-1.34.119-2.014 0 .12-.977.28-1.092.478-.099.17-.064.529-.09.725-.036.27-.08.538-.13.805M116.803 66.271c.033.035.067.07.088.114.028.06.027.128.021.194-.02.246-.114.512-.333.628-.194.103-.44.056-.628-.059-.116-.07-.215-.165-.313-.26l-.87-.828c-.014-.013-.028-.028-.028-.046 0-.021.018-.037.034-.05.354-.265.75-.595 1.15-.784.304.352.553.75.879 1.091"/>
        <path fill="#383D40" d="M102.713 65.986c.007.148.019.306.112.421.112.138.306.17.483.19.618.068 1.241.091 1.863.07.213-2.514.429-5.04 1.035-7.49.253-.065.524.051.72.224.197.173.337.398.496.606.104.137.217.266.333.393 1.515 1.643 3.617 2.667 5.091 4.346.55.626 1.005 1.336 1.613 1.906l1.72-1.571c.035-.032.073-.069.076-.116.004-.054-.038-.1-.077-.138-.464-.447-.964-.855-1.417-1.313-1.58-1.594-2.504-3.699-3.54-5.688-.07-.137-.15-.28-.285-.356-.108-.06-.236-.067-.36-.07-2.032-.048-3.954.764-5.966.915-.579.044-1.858-.312-1.955.506-.13 1.096-.051 2.265-.045 3.369.007 1.266.042 2.532.103 3.796"/>
        <path fill="#948BB3" d="M103.006 50.714c-.365.072-.727-.116-1.047-.306a20.532 20.532 0 0 1-2.382-1.655l-.902 1.153c-.017.022-.034.046-.035.073 0 .047.045.078.085.101.784.445 1.539.942 2.256 1.487.278.211.552.431.776.699.384.459.602 1.035.754 1.614a8.94 8.94 0 0 1 .26 3.049c-.029.329-.075.666.012.984.111.408.427.728.768.979 1.12.822 2.6 1.053 3.978.861 1.378-.192 2.673-.771 3.89-1.445-.16-1.562.085-3.133.328-4.684l.953-6.065c-1.687-.453-3.383-.909-5.12-1.093a13.623 13.623 0 0 0-2.363-.056c-.647.044-1.717.052-2.265.441-.426.304-.29.844-.24 1.294l.294 2.569"/>
        <path fill="#F6FFFA" d="M103.994 53.395c.394-.029.787-.074 1.182-.076.623-.004 1.246.096 1.868.062.355-.02.713-.083 1.063-.023-.096.63-.192 1.26-.342 1.878-.143.587-.334 1.16-.526 1.734l-.44 1.317a.406.406 0 0 1-.08.16.362.362 0 0 1-.141.078c-.269.095-.558.115-.843.131a40.73 40.73 0 0 1-1.933.064c-.354.003-.708.002-1.06-.03-.349-.03-.695-.09-1.042-.139a15.383 15.383 0 0 0-2.294-.145l-.703-3.212c-.098-.445-.196-.896-.197-1.354 0-.283.088-.252.351-.283.241-.03.483-.05.725-.067.935-.061 1.872-.039 2.808-.043.535-.002 1.07-.012 1.604-.052"/>
        <g transform="translate(98.27 53.093)">
            <mask id="d" fill="#fff">
                <use xlink:href="#c"/>
            </mask>
            <path fill="#BAB295" d="M1.735 5.889h6.392V-.084H1.735z" mask="url(#d)"/>
            <path fill="#3A3E44" d="M2.934 6.424h4.004V2.43H2.934z" mask="url(#d)"/>
        </g>
        <g>
            <path fill="#121114" d="M105.224 54.008c.076-.77.135-2.546-.797-3.39-.506-.459-1.221-.57-2.126-.33a.128.128 0 1 0 .066.25c.815-.217 1.45-.126 1.886.27.834.756.782 2.435.714 3.17-.412.082-.384.763.085.763.43 0 .488-.578.172-.733M101.32 54.003c-.015-.608-.005-1.552.138-1.856a.129.129 0 0 0-.233-.11c-.178.379-.178 1.41-.163 1.975-.349.133-.303.745.142.745.456 0 .494-.644.116-.754"/>
            <path fill="#FF6C5C" d="M96.343 30.827c-.141 2.416-.303 4.91-1.399 7.07a15.695 15.695 0 0 1 4.012 8.47c3.188.558 6.51 1.173 9.086 3.128.116.09.239.184.384.202.139.017.275-.037.403-.09a170.4 170.4 0 0 1 2.86-1.153c2.12-.833 4.399-1.637 6.631-1.179l1.757-3.759c.505-1.082 1.02-2.178 1.791-3.091-.736-.372-1.275-1.035-1.76-1.7-1.588-2.17-2.86-4.55-4.126-6.92-.049-.092-.782-.152-.907-.178a32.164 32.164 0 0 1-2.99-.784 31.934 31.934 0 0 1-3.817-1.478c-.598-.277-1.17-.614-1.768-.886-.567-.257-.98.01-1.528.227a32.76 32.76 0 0 1-8.63 2.121"/>
        </g>
        <g transform="translate(94.918 28.14)">
            <mask id="f" fill="#fff">
                <use xlink:href="#e"/>
            </mask>
            <path fill="#CE655D" d="M28.007 12.006c-1.149-.28-8.561-2.127-13.251-4.465l.002-.028a.648.648 0 0 0-.09-.325c1.574-1.224 7.506-5.636 10.476-4.983 3.136.69 2.915 8.593 2.863 9.8m-3.627 8.907c.513 1.086.529 1.936.048 2.528-1.795 2.208-9.781.51-10.803.282.097-1.338.895-12.698.417-15.56.02.002.04.006.06.006.163 0 .31-.061.425-.16 1.902 1.552 7.45 7.816 9.853 12.904M3.362 19.796c-.686 1.558-1.333 2.333-1.88 2.236-1.692-.299-2.589-8.25-2.802-11.421 1.01-.339 9.928-3.26 14.775-2.682-1.387.832-6.824 4.455-10.093 11.867M10.926-.089c1.984.53 2.836 5.323 3.07 6.957a.652.652 0 0 0-.193.064C10.52 4.57 3.006 2.507 1.17 2.038c1.539-.581 7.66-2.686 9.756-2.127M28.1 7.4c-.403-3.278-1.379-5.11-2.9-5.445-1.497-.33-3.821.473-6.907 2.385a44.829 44.829 0 0 0-3.795 2.655.655.655 0 0 0-.238-.115c-.225-1.634-1.088-6.635-3.267-7.216C8.608-.975 1.695 1.567.765 1.939H.76v.002c-.063.025-.097.04-.1.042l-.053.064.035.074.02.074h.083c.084.013 9.129 2.261 12.849 4.907a.648.648 0 0 0-.15.41c0 .058.01.112.024.164C8.28 7.066-1.398 10.365-1.497 10.4l-.093.032.006.098c.002.028.188 2.852.64 5.686.614 3.857 1.415 5.9 2.381 6.07a.813.813 0 0 0 .141.012c.648 0 1.31-.787 2.02-2.397C6.99 12.21 12.723 8.646 13.742 8.06c.007.005.015.008.022.012.548 2.636-.393 15.608-.403 15.742l-.008.109.107.025c.233.056 3.758.873 6.858.873 1.855 0 3.558-.293 4.31-1.219.55-.675.546-1.617-.013-2.8-2.188-4.631-7.689-11.291-9.927-12.998l.004-.008c5.101 2.529 13.322 4.476 13.407 4.496l.15.035.009-.152c.001-.024.14-2.368-.157-4.776" mask="url(#f)"/>
        </g>
        <g>
            <path fill="#353535" d="M.677 37.807c-.107.03-.214.067-.305.13-.159.11-.253.295-.307.48-.203.705.095 1.461.511 2.064.063.091.132.183.231.229.094.043.201.04.303.055.46.072.756.514.968.927.304.59.56 1.212.956 1.745.397.533.97.98 1.634 1.04.36.033.789-.106.89-.452.082-.284-.087-.57-.205-.841-.473-1.085-.158-2.397-.669-3.464-.312-.653-.897-1.132-1.496-1.54-.8-.543-1.583-.643-2.511-.373"/>
            <path fill="#B1B1B2" d="M7.636 34.679c-.992.304-2.052.538-2.84 1.213-.5.43-.96 1.06-1.62 1.034-.23-.01-.457-.105-.688-.084-.438.041-.737.506-.747.945-.01.438.193.851.395 1.24.325.626.682 1.27 1.264 1.67.581.399 1.453.47 1.95-.03.203-.204.325-.48.535-.677.242-.229.574-.33.894-.426a96.574 96.574 0 0 0 6.849-2.336c.64-.246 1.305-.516 1.756-1.032.603-.69.702-1.737.351-2.583-.652-1.574-1.924-2.178-3.301-1.261-1.494.994-3.076 1.8-4.798 2.327"/>
            <path fill="#E2CDB5" d="M19.758 19.796c.142-.303-.022-.676-.282-.887-.902-.73-3.426-1.248-2.86.637.14.467.502 1.035 1.03 1.108.452.062 1.902-.41 2.112-.858"/>
            <path fill="#21160A" d="M11.77 12.102l1.41 2.792c.203.402.413.815.75 1.115.348.31.8.472 1.198.716.525.32.967.788 1.543 1.006.653.247 1.553.251 1.797.904.08.581-.237 1.161-.682 1.545-.444.384-1.003.607-1.554.813-.47.176-.941.345-1.416.508-.087.03-.182.06-.271.036-.154-.042-.221-.219-.268-.371a10.905 10.905 0 0 0-2.442-4.194"/>
            <path fill="#E0A16C" d="M5.107 13.13c.135-.286 1.302-2.314 1.289-2.01-.04.87.067 1.738.173 2.6.021.167.045.343.146.478.175.237.514.27.81.265 1.26-.02 1.551 2.576 1.408 3.23-.484 2.202-1.596 4.423-3.588 5.491-.394.211-.831.376-1.278.351-.38-.02-.739-.176-1.086-.331-.699-.313-1.413-.653-1.921-1.223-.767-.86-.937-2.126-.703-3.252.234-1.127.82-2.146 1.429-3.123.228-.368.465-.737.787-1.027.654-.59 1.545-.714 2.258-1.194.308-.207.306-.292.38-.642a5.33 5.33 0 0 1 .496-1.349c.294-.577.608-1.177 1.135-1.555.659-.472 1.524-.51 2.335-.532"/>
            <path fill="#E2CDB5" d="M8.034 35.182c.326.08.662-.153.818-.448.543-1.025.561-3.595-1.183-2.674-.432.228-.92.692-.889 1.222.027.455.774 1.782 1.254 1.9"/>
            <path fill="#353535" d="M15.644 47.943c.408.75 1.385.93 2.234 1.028l3.83.445c.715.083 1.498.151 2.103-.239.11-.07.22-.174.22-.305a.396.396 0 0 0-.066-.193c-.362-.624-1.079-.936-1.748-1.21l-1.962-.8c-.39-.158-.797-.33-1.056-.661-.13-.167-.214-.364-.327-.543-.465-.732-1.86-1.27-2.61-.63-.667.568-1.031 2.351-.618 3.108"/>
            <path fill="#EAEAEF" d="M9.207 29.777l2.663 2.846c.585.625 1.174 1.255 1.616 1.987.924 1.527 1.139 3.363 1.333 5.136.158 1.436.315 1.705.473 3.141.146 1.334.29 2.705-.072 3.997a9.524 9.524 0 0 0 3.5.01c.32-.06.668-.155.857-.421.137-.193.164-.442.176-.678.104-2.036-.545-2.874-.568-4.912-.01-.88.098-1.758.096-2.637-.003-1.826-.474-3.615-.942-5.38l-1.412-5.332c-.232-.877-.503-1.815-1.212-2.384-.531-.426-1.228-.574-1.896-.71-1.157-.234-2.34-.47-3.51-.323-1.07.134-2.643.78-2.947 1.942-.354 1.35 1.022 2.838 1.845 3.718"/>
            <path fill="#E2CDB5" d="M10.188 6.08c-.423 1.196-1.96 1.835-2.121 3.092-.019.146-.014.304.065.427a.742.742 0 0 0 .186.18c1.167.88 2.573 2.022 4.021 1.827.257-.035.662-.86.773-1.094.097-.204.015-.449-.1-.644-.116-.194-.266-.377-.314-.598-.062-.284.056-.573.093-.862.067-.52-.139-1.056-.5-1.436-.361-.38-.864-.61-1.383-.688"/>
            <path fill="#F7E0C4" d="M8.95 5.677a.504.504 0 0 0-.19.66c.087.16.255.256.369.398.2.249.214.608.41.862.101.13.244.223.384.312l1.234.79c.231.147.467.298.732.373.264.075.567.066.794-.088.193-.132.307-.347.414-.554.113-.218.225-.435.333-.655.343-.702.64-1.438.754-2.21.114-.774.035-1.593-.335-2.28-.077-.144-.17-.285-.307-.373-.13-.084-.288-.112-.44-.139-.553-.096-1.149-.187-1.654.057-.356.171-.618.487-.852.805-.33.448-.637.932-.803 1.468-.047.15-.062.625-.196.68-.15.06-.39-.248-.646-.106"/>
            <g transform="translate(6.964 .1)">
                <mask id="h" fill="#fff">
                    <use xlink:href="#g"/>
                </mask>
                <path fill="#E1846A" d="M4.61 6.033c.148-.055.279-.144.408-.233.773-.53 1.563-1.076 2.093-1.846.183-.265.336-.57.328-.893-.014-.524-.437-.935-.83-1.285C6.043 1.27 5.47.76 4.807.386c-.208-.118-.432-.224-.671-.23-.203-.003-.399.066-.59.134C2.671.6 1.744.95 1.19 1.694.56 2.538-.287 5.017.56 5.921c.4.425 1.04.476 1.586.42.734-.075 1.78-.054 2.464-.308" mask="url(#h)"/>
            </g>
            <path fill="#353535" d="M16.509 27.02c.047-.043.05-.115.051-.178.054-4.988-.74-9.871-2.195-14.644-.253-.832-.656-1.555-1.272-2.181-.052.05-.036.133-.034.204.007.282-.199.318-.378.442-.149.103-.226.303-.396.394-.631.34-.69.377-.876 1.151-.822 3.4-.99 6.957-.499 10.42.18 1.263.284 3.236 1.383 4.105.48.38 1.233.538 1.836.511.231-.01.45-.082.683-.082.215 0 1.524.019 1.697-.142"/>
            <path fill="#21160A" d="M7.82 8.566c.254-.114.511-.225.713-.417-.177.156-.072.308.03.453.145.205.189.387.274.625.167.463.449.887.815 1.217.67.604 1.647.876 2.486.455.164-.082.325-.187.5-.214.554-.082.92.605 1.117 1.203 1.19 3.609 1.437 7.604 1.153 11.514a44.87 44.87 0 0 1-.29 2.787c-.07.508-.19 1.085-.58 1.335-.362.232-.798.077-1.182-.063a12.855 12.855 0 0 0-6.068-.68c-.562-.38-.745-1.231-.731-2 .014-.77.174-1.546.087-2.305-.11-.96-.599-1.777-.919-2.662-.372-1.031-.509-2.15-.668-3.253-.13-.898-.66-2.12-.633-2.993.022-.721.57-1.402.983-1.952.759-1.01 1.438-2.247 2.569-2.881.11-.062.227-.116.345-.169"/>
            <path fill="#353535" d="M11.647 15.675c.267 1.212-.251 2.437-.565 3.638-.224.858-.345 1.74-.466 2.618l-1.26 9.18c-.084.607-.173 1.23-.475 1.762-.303.533-.873.96-1.485.91-.146-.011-.296-.054-.4-.156-.117-.115-.156-.284-.191-.444l-.983-4.528c-.265-1.217-.53-2.452-.462-3.695.032-.592.14-1.178.144-1.77.012-1.973-1.118-3.77-1.448-5.714a7.207 7.207 0 0 1 .572-4.23c.195-.417.634-.76 1.057-.946.643-.284 1.304-.543 2-.645.977-.145 2 .033 2.87.5.232.123.456.27.62.476.192.243.283.55.37.848.195.666.217 2.268.102 2.196"/>
            <path fill="#F7E0C4" d="M9.664 6.496c.116-.131-.14-.52-.272-.632-.133-.113-.314-.148-.487-.178-.065-.012-.138-.023-.195.012-.05.03-.074.089-.092.144-.172.543.068 1.122.304 1.64.041.091.099.194.198.205a.254.254 0 0 0 .148-.042.95.95 0 0 0 .396-1.15"/>
            <path fill="#E1846A" d="M6.05 12.411a4.834 4.834 0 0 0-2.087 3.556l-.433.021a5.291 5.291 0 0 1 .153-2.425c.232-.762.66-1.491 1.325-1.932.508-.337 1.116-.484 1.712-.612.408-.089.82-.172 1.238-.185.856-.026 2.313.322 2.703 1.173-1.505-.626-3.243-.517-4.611.404"/>
        </g>
    </g>
</svg>
