<svg xmlns="http://www.w3.org/2000/svg" xmlns:xlink="http://www.w3.org/1999/xlink" width="36" height="45" viewBox="0 0 36 45">
    <defs>
        <path id="a" d="M.114.096h3.19v3.001H.113z"/>
        <path id="c" d="M0 .1h14.221v6.19H0z"/>
        <path id="e" d="M.108.1h2.37v2.91H.107z"/>
        <path id="g" d="M.048.002h4.75v4.515H.048z"/>
    </defs>
    <g fill="none" fill-rule="evenodd">
        <path fill="#B83056" d="M11.304 42.03c0 .089.01.188.077.246.062.054.155.056.236.042.282-.05.509-.251.714-.45a14.2 14.2 0 0 0 1.712-1.997c.143-.203.288-.43.275-.677-.012-.22-.15-.42-.324-.556-.173-.137-.382-.223-.588-.306-.67-.272-2.102 3.236-2.102 3.698"/>
        <g transform="translate(4.776 41.901)">
            <mask id="b" fill="#fff">
                <use xlink:href="#a"/>
            </mask>
            <path fill="#B83056" d="M1.064.176C.762.065.355.037.181.307c-.174.271.022.622.222.876.555.705 1.196 1.362 1.98 1.803.142.08.315.153.461.084A.426.426 0 0 0 3 2.927c.19-.26.24-.593.285-.91.018-.13.036-.266-.013-.387a.731.731 0 0 0-.176-.234C2.43.73 1.919.492 1.064.176" mask="url(#b)"/>
        </g>
        <path fill="#008872" d="M11.835 39.87c.049.041.1.083.162.097.128.03.249-.063.347-.151.54-.485 1.133-1.154.89-1.836-.132-.372-.482-.616-.734-.921-.51-.616-.604-1.463-.638-2.259a23.589 23.589 0 0 1 .155-3.863l-1.845-.113c-.208-.013-.436-.02-.603.105-.139.104-.203.277-.258.44a28.036 28.036 0 0 0-.686 2.36c-.132.543-.253 1.213.026 1.732.129.238.29.374.396.624.12.283.161.6.291.886.533 1.17 1.525 2.084 2.497 2.9"/>
        <path fill="#16AEA9" d="M5.806 35.06c-.026.721-.052 1.446.029 2.163.067.594.207 1.178.283 1.77.11.848.088 1.709.222 2.553.03.193.07.388.162.561.091.173.23.316.367.457l1.436 1.479c.21-.883.122-1.804.152-2.71.126-3.854 2.37-7.36 2.796-11.193-.002.02-4.84-.72-5.215-.345-.325.325-.116 2.061-.133 2.536l-.099 2.73"/>
        <path fill="#D6D6D0" d="M11.102 27.568c-.99.117-1.988.158-2.984.124-.393-.014-.81-.048-1.127-.28-.331-.243-.484-.655-.593-1.05a9.022 9.022 0 0 1-.294-1.659c-.006-.077-.01-.16.028-.228.042-.076.126-.117.206-.152a7.25 7.25 0 0 1 2.223-.57c.505-.045 1.013-.034 1.517-.082.657-.062.869-.25.865.492a29.987 29.987 0 0 0 .159 3.405"/>
        <path fill="#EADED1" d="M3.476 29.498c-.267.01-.54.03-.79.128-.375.145-.696.577-.511.932.162.312.586.357.94.363.489.007 1.009.006 1.424-.251.217-.136.399-.35.431-.604.013-.101-.005-.218-.088-.28a.384.384 0 0 0-.18-.056l-1.276-.175"/>
        <g transform="translate(0 25.322)">
            <mask id="d" fill="#fff">
                <use xlink:href="#c"/>
            </mask>
            <path fill="#363B5B" d="M.871.263C.102.616-.182 1.643.116 2.43c.297.787 1.04 1.339 1.832 1.639.792.3 1.645.388 2.482.526 2.743.454 5.39 1.463 8.162 1.684.187.015.382.025.554-.049.215-.092.356-.298.47-.501a5.194 5.194 0 0 0 .58-1.587c.028-.152.048-.317-.023-.456-.072-.141-.224-.223-.366-.294A28.358 28.358 0 0 0 6.799.988 37.01 37.01 0 0 0 4.37.573C3.35.433 1.858-.19.871.263" mask="url(#d)"/>
        </g>
        <path fill="#090907" d="M4.198 16.94c.174.328.408.698.78.732.266.023.51-.138.722-.299.377-.285.738-.594 1.08-.922.187-.18.374-.374.471-.615.151-.374.062-.809-.138-1.159s-.5-.631-.796-.907l-.43-.402c-.062-.057-.129-.117-.212-.125-.109-.01-.203.07-.282.145-.437.42-1.334 1.107-1.587 1.65-.304.652.066 1.288.392 1.902"/>
        <path fill="#619EBA" d="M8.038 11.688c-.179-.212-.533-.199-.774-.056-.24.142-.401.377-.581.587-.18.21-.409.41-.69.434-.348.031-.67-.215-1.02-.204-.16.005-.312.064-.46.124-.527.215-1.073.47-1.39.93-.236.346-.316.77-.37 1.182-.037.275-.063.56.024.825.087.265.317.505.603.528.405.032.695-.344.971-.63.288-.299.624-.487.993-.673.396-.2.519-.332.804-.692.624-.79 1.254-1.574 1.89-2.355"/>
        <path fill="#E5E5E3" d="M3.678 29.37c-.133.315-.265.722-.018.96.165.158.44.152.642.045.203-.106.35-.292.486-.475 1.419-1.902 2.468-4.162 4.4-5.55.19-.135.392-.269.507-.47.252-.44-.012-.978-.155-1.465-.29-.99-.02-2.123.689-2.878.17-.182.37-.354.447-.59.135-.42-.165-.843-.448-1.183-.843-1.013-1.848-2.11-3.17-2.166a.62.62 0 0 0-.31.047c-.107.055-.178.16-.25.256-.654.893-1.367.99-1.476 2.152-.118 1.265-.138 2.537-.172 3.806-.068 2.535-.171 5.14-1.172 7.511M2.968 24.162c.354 0 .355-.547 0-.547s-.356.547 0 .547"/>
        <path fill="#B83056" d="M6.56 20.022c.101.686.478 1.3.892 1.858.964 1.297 2.192 2.42 3.642 3.146.64.32 1.335.566 2.052.587.718.02 1.463-.205 1.966-.714.206-.208.375-.5.298-.783a1.04 1.04 0 0 0-.184-.33 32.218 32.218 0 0 0-4.856-5.277c-.79-.686-1.476-1.673-2.544-1.018-.846.518-1.41 1.538-1.265 2.531"/>
        <path fill="#84314B" d="M6.31 18.607c-.41-.258-.784-.57-1.208-.804-.07-.038-.153-.074-.225-.042-.05.023-.08.074-.107.122a8.994 8.994 0 0 0-.425.871c-.015.036-.03.08-.008.113.013.02.037.032.06.042l2.081.907c.421.184 1.132.277.973-.423-.108-.472-.775-.554-1.142-.786M7.013 15.878c-.032-.086-.057-.194.007-.26.05-.051.13-.053.195-.082.101-.045.16-.155.26-.206.131-.067.3-.008.4.099.102.107.153.25.2.39.179.524.359 1.055.414 1.606.02.195.019.406-.094.565-.449.63-.593-.35-.66-.565-.17-.544-.52-1.015-.722-1.547"/>
        <path fill="#8A7442" d="M30.16 25.816c-.441 2.025-.394 4.12-.344 6.19-.373.05-.76.001-1.11-.137-.11-1.316.022-2.637.082-3.956a36.691 36.691 0 0 0-.503-7.941c.902.2 2.756.199 2.873 1.4.138 1.43-.696 3.063-.997 4.444M26.643 26.686c-.505 1.605-1.168 3.231-1.007 4.905l-.898-.026c-.074-.002-.154-.007-.208-.056-.052-.047-.066-.121-.076-.19-.207-1.431.096-2.879.333-4.305a47.98 47.98 0 0 0 .625-6.286c0-.038 1.825.089 2.002.192.515.298.292.939.22 1.43a27.916 27.916 0 0 1-.99 4.336"/>
        <g transform="translate(33.429 1.091)">
            <mask id="f" fill="#fff">
                <use xlink:href="#e"/>
            </mask>
            <path fill="#383112" d="M2.36 2.906c-.002.023-.004.047-.019.064-.017.022-.047.028-.074.032-.374.051-.734-.128-1.098-.228a2.667 2.667 0 0 0-.727-.094c-.105 0-.235-.007-.28-.102a.257.257 0 0 1-.017-.085A9.618 9.618 0 0 1 .235.1c.447.017.893.056 1.337.114.281.037.709.011.843.309.124.275.026.753.017 1.041a27.98 27.98 0 0 1-.072 1.342" mask="url(#f)"/>
        </g>
        <path fill="#DAE2BA" d="M35.51 5.433c.028-.235.056-.472.038-.708a1.228 1.228 0 0 0-.23-.663c-.112-.145-.305-.26-.476-.192a.364.364 0 0 0-.2.245.92.92 0 0 0-.015.326c.03.336.098.669.205.99M33.846 4.002c0-.048-.003-.098-.03-.137-.037-.051-.105-.067-.167-.079-.196-.037-.418-.07-.578.049-.157.116-.191.332-.213.526-.015.14-.03.283.003.419a.398.398 0 0 0 .659.21c.233-.203.324-.702.326-.988"/>
        <path fill="#45722E" d="M32.498 4.557c.31-.224.733-.454 1.047-.235.18.125.246.367.217.584-.028.216-.136.413-.245.602-.279.48-.587.947-.978 1.342-.202.205-.432.392-.705.487-.222.076-.46.087-.695.098-.516.023-2.831.113-1.879-1.07.297-.37 1.107-.49 1.529-.712.6-.316 1.16-.701 1.71-1.096"/>
        <path fill="#69B848" d="M29.726 8.128c.19.089.395.158.552.296.437.383.326 1.067.306 1.645-.032.969.3 1.908.509 2.855.258 1.17.329 2.371.399 3.566l.259 4.408c-2.376.604-4.886 1.208-7.246.547.741-3.143 1.368-6.376.994-9.582-.103-.887-.283-1.765-.337-2.657-.099-1.633.227-3.27.748-4.822.082-.243.192-.51.43-.61.133-.057.285-.048.43-.032.392.042 1.5.154 1.617.57.088.312-.28 1.044-.244 1.45.086.98.67 1.943 1.583 2.366"/>
        <g transform="translate(25.53 .18)">
            <mask id="h" fill="#fff">
                <use xlink:href="#g"/>
            </mask>
            <path fill="#423A2F" d="M2.586.017c.233-.002.472-.004.69.078.226.084.411.251.572.43a3.74 3.74 0 0 1 .938 2.143c.041.452-.014.943-.312 1.286-.323.374-.853.49-1.348.537-.384.038-.778.047-1.149-.06C1.05 4.164.472 3.236.201 2.317.08 1.914.004 1.489.075 1.076.3-.24 1.564.028 2.586.017" mask="url(#h)"/>
        </g>
        <path fill="#5B4F40" d="M25.295 3.37c-.243.307-.49.62-.62.989-.12.335-.134.697-.149 1.052l-.068 1.706c-.025.632-.06 1.295-.396 1.832-.337.537-1.084.876-1.632.554.48.721 1.569.864 2.337.456.769-.408 1.237-1.233 1.433-2.075.195-.843.158-1.718.156-2.583-.001-.613.316-1.566.177-2.13-.207-.84-.93-.19-1.238.199"/>
        <path fill="#5C9143" d="M29.964 6.41c.961.264 2.034.518 2.914.053.648-.343 1.045-1.004 1.502-1.574.093-.116.205-.237.354-.254a.517.517 0 0 1 .31.09c.255.15.473.366.61.628.155.296.203.64.18.972-.068 1.005-.776 1.897-1.674 2.366-.898.469-1.958.557-2.966.437-.817-.098-1.636-.337-2.299-.822-.507-.371-1.382-1.353-1.18-2.067.205-.73 1.695.02 2.25.172"/>
        <path fill="#BA9BB3" d="M31.573 32.67c.185.027.379.057.528.168.15.112.236.332.135.488-.076.12-.228.164-.368.192a5.256 5.256 0 0 1-2.798-.19l-.19.624c-.012.043-.028.09-.065.115-.045.03-.106.019-.16.006l-.507-.118c-.047-.011-.098-.025-.126-.064-.022-.033-.023-.076-.022-.116a8.236 8.236 0 0 1 .29-2.035c.012-.047.03-.1.076-.119.036-.015.078-.002.115.011.274.095.624.158.853.343.142.114.21.277.373.37.502.29 1.304.214 1.866.325M25.84 32c.425.124.865.2 1.308.224.226.012.47.017.647.158.232.184.232.587 0 .77-.158.126-.374.144-.575.158-.345.022-.692.045-1.034-.005-.342-.05-.681-.18-.925-.423l-.088.569a4.225 4.225 0 0 1-.729-.084 5.98 5.98 0 0 1 .108-1.82c.01-.047.024-.098.062-.128.036-.03.087-.032.134-.032.187-.002.685-.05.815.109.15.186-.055.408.276.504"/>
    </g>
</svg>
