<svg xmlns="http://www.w3.org/2000/svg" xmlns:xlink="http://www.w3.org/1999/xlink" width="38" height="52" viewBox="0 0 38 52">
    <defs>
        <path id="a" d="M.19.159h6.274v2.73H.19z"/>
        <path id="c" d="M0 .16h6.032v7.251H0z"/>
        <path id="e" d="M0 51.989h37.901V0H0z"/>
    </defs>
    <g fill="none" fill-rule="evenodd">
        <path fill="#6C7A75" d="M2.12 9.96c.659.31 1.434.36 2.126.134.067-.022.142-.046.204-.013.05.027.077.085.1.139.28.68.524 1.375.727 2.082.014.048.026.105-.004.144-.022.03-.06.04-.094.047-.5.113-1.008.06-1.515.05-.283-.004-.931.164-1.175.007-.306-.196-.233-.704-.256-1.02-.013-.18.002-1.516-.113-1.57"/>
        <path fill="#1E231C" d="M3.965 49.934c.011.097.026.201.092.273.074.081.194.097.303.107 1.16.107 2.328.07 3.492.033.3-.01.615-.024.87-.185.251-.16.406-.523.237-.771-.125-.183-.364-.234-.578-.279a8.636 8.636 0 0 1-2.48-.933c-.14-.08-.279-.163-.43-.215-.376-.13-1.211-.187-1.527.14-.362.374-.033 1.376.02 1.83"/>
        <path fill="#407396" d="M11.946 12.217c-.632.767-1.324 1.575-2.277 1.84-.42.116-.863.117-1.3.107-.7-.014-1.399-.052-2.096-.111-.574-.05-1.255-.193-1.465-.735-.081-.209-.072-.44-.062-.664.006-.125.016-.26.098-.354.094-.107.252-.123.394-.13 2.177-.101 3.505-.778 5.36-1.823.548-.309 1.41-.608 2.038-.369 1.214.461-.219 1.667-.69 2.239"/>
        <path fill="#6C7A75" d="M11.807 10.31c-.135-.386.16-.788.48-1.04.21-.165.45-.308.715-.338.265-.03.558.077.688.313.155.28.038.638-.152.895s-.446.46-.617.73c-.049.077-.096.164-.178.202-.104.048-.227 0-.327-.06a1.619 1.619 0 0 1-.557-.553"/>
        <path fill="#E48C73" d="M3.192 46.416c.002.45.015.926.246 1.312.231.386.76.627 1.139.387.365-.23.403-.743.406-1.178.056-6.293 1.344-12.567.868-18.842.036.478-2.743.347-3.01.884-.214.434.1 1.297.158 1.747.092.722.162 1.447.214 2.173.205 2.865.128 5.741.055 8.61-.042 1.635-.085 3.27-.076 4.907"/>
        <path fill="#FFAB93" d="M4.246 47.515c.025.41.057.819.094 1.227.018.198.04.406.157.566.187.257.542.301.857.324.855.061 1.905.02 2.307-.745.117-.223.157-.48.194-.729l.517-3.428c.902-5.98 1.805-12.05 1.076-18.052l-2.433.766c-.65.206-1.78.327-2.322.736-.792.596-.127 3.03-.1 3.998.09 3.29-.21 6.574-.35 9.858-.078 1.833.003 3.649.003 5.479"/>
        <g transform="translate(4.571 49.1)">
            <mask id="b" fill="#fff">
                <use xlink:href="#a"/>
            </mask>
            <path fill="#2E362B" d="M.434 2.889l5.698-.098a.404.404 0 0 0 .19-.034c.075-.042.117-.128.133-.213.048-.255-.102-.514-.305-.673-.204-.158-.454-.238-.697-.323A11.205 11.205 0 0 1 3.434.602C3.232.482 3.028.352 2.8.293c-.173-.046-.354-.048-.534-.05C1.876.235.425-.019.23.393c-.12.255.06.89.086 1.17L.434 2.89" mask="url(#b)"/>
        </g>
        <path fill="#A88E7C" d="M5.994 8.984c.153-.464.155-.965.128-1.454a13.099 13.099 0 0 0-.208-1.715c-.054-.283-.129-.586-.346-.774-.23-.2-.56-.22-.862-.229-.605-.02-1.246-.03-1.77.275-.546.317-.871.935-.978 1.563-.106.627-.021 1.27.086 1.898.165.972.185 2.571 1.52 2.354 1.012-.164 2.101-.915 2.43-1.918"/>
        <g transform="translate(0 3.167)">
            <mask id="d" fill="#fff">
                <use xlink:href="#c"/>
            </mask>
            <path fill="#663531" d="M5.476.947c-.094-.192-.192-.39-.353-.53C4.85.18 4.46.155 4.1.16 2.656.185 1.05.639.347 1.916-.113 2.754-.08 3.8.24 4.702c.321.901.903 1.682 1.515 2.413.102.122.214.248.367.285.177.043.358-.046.512-.147a3.265 3.265 0 0 0 1.058-1.136c.171-.306.294-.642.497-.928.487-.69 1.362-1.102 1.721-1.897.34-.751-.104-1.669-.434-2.345" mask="url(#d)"/>
        </g>
        <path fill="#5189B7" d="M6.194 12.155a15.824 15.824 0 0 0-2.636-.194c-.998.01-2.095.164-2.76.917-.747.847-.677 2.125-.547 3.253.466 4.035 1.13 8.048 1.991 12.017.055.256.124.532.328.694.196.154.463.162.71.171 1.26.045 2.526.284 3.773.1 1.248-.184 2.53-.923 2.875-2.15.134-.475.116-.979.096-1.474l-.162-4.121c-.056-1.426-.114-2.867-.492-4.243-.187-.682-.486-1.34-.646-2.028-.107-.462-.001-.9-.078-1.342-.192-1.117-1.495-1.448-2.452-1.6"/>
        <mask id="f" fill="#fff">
            <use xlink:href="#e"/>
        </mask>
        <path fill="#090D01" d="M13.115 9.377h1.88v-3.8h-1.88z" mask="url(#f)"/>
        <path fill="#6C7A75" d="M14.16 9.483a.85.85 0 0 1 .31-.38c.208-.126.483-.102.696.017.212.119.368.32.484.536.238.443.316 1 .095 1.45-.14.287-.716.809-1.05.536a.784.784 0 0 1-.185-.27c-.142-.285-.345-.58-.454-.873-.113-.302-.026-.735.104-1.016" mask="url(#f)"/>
        <path fill="#407396" d="M13.258 11.162c.31-.558.758-1.197 1.389-1.142.582.05.94.698.983 1.288.089 1.246-.73 2.354-1.533 3.304-1.045 1.239-2.277 2.514-3.874 2.72-.773.1-1.554-.067-2.31-.255-.339-.084-.692-.182-.947-.423-.254-.242-.367-.674-.15-.952.237-.305.692-.264 1.076-.261 1 .008 1.961-.436 2.752-1.053 1.133-.885 1.926-1.98 2.614-3.226" mask="url(#f)"/>
        <path fill="#090A01" d="M24.156 40.095c-.216.117-.439.289-.47.535-.03.249.158.482.385.584.227.101.484.1.732.096 1.24-.018 2.482-.051 3.722-.098.343-.014.691-.029 1.016-.142.187-.065.374-.174.459-.355a.947.947 0 0 0 .066-.352c.074-1.352.157-5.102-.156-6.422-.553-.112-1.43-.073-1.66.538-.2.536.26 3.414.007 3.944-.564 1.178-3.07 1.11-4.1 1.672M30.294 40.608c-.19.157-.375.37-.359.617.018.25.248.443.49.497.242.055.494.004.736-.049 1.214-.26 2.425-.536 3.633-.826.334-.08.673-.163.97-.338.17-.1.333-.244.381-.438a.948.948 0 0 0-.002-.359c-.186-1.34-.403-5.077-.963-6.311-.564 0-1.417.209-1.525.853-.094.566.488 3.34.341 3.91-.327 1.266-2.798 1.691-3.702 2.444" mask="url(#f)"/>
        <path fill="#E57055" d="M28.388 6.831c.15-1.588-.146-3.223.25-4.768.07-.274.164-.548.337-.77.167-.214.395-.368.623-.512.725-.46 1.55-.876 2.399-.762 1.171.157 1.972 1.247 2.582 2.271.41.69.806 1.414.933 2.21.09.57.038 1.155-.08 1.719-.197.946-.574 1.842-.95 2.732l-1.195 2.834c-.262.621-.548 1.273-1.088 1.67-.286.21-.666.334-.995.206-.175-.068-.316-.198-.452-.327-.948-.905-1.928-1.942-2.601-3.078-.565-.953.137-2.37.237-3.425" mask="url(#f)"/>
        <path fill="#353535" d="M36.277 34.462c-.017.213-.04.441-.193.607-.185.201-.506.251-.799.275-1.715.138-3.438-.166-5.16-.122-.865.022-1.726.133-2.592.154-.126.003-.264.001-.363-.068-.126-.086-.146-.245-.154-.386a52.173 52.173 0 0 1-.093-3.355c.385-.04.775-.019 1.161 0a83.58 83.58 0 0 0 6.083.067c.723-.019 1.97-.336 2.293.288.287.556-.136 1.929-.183 2.54" mask="url(#f)"/>
        <path fill="#E0A16C" d="M35.232 9.872c.497 1.574.726 3.227.825 4.877.07 1.183-.07 2.439.018 3.588.093 1.219.692 2.468.956 3.671.175.798 1.414 10.47.59 10.712-3.025.89-6.22 1.49-9.319.915-1.059-.197-2.186-.6-2.737-1.537-.328-.557-.404-1.231-.381-1.88.076-2.236 1.196-6.79 1.855-8.926.533-1.73.765-3.536.996-5.332.291-2.272.55-4.553.997-6.784.094-.47.192-.95.427-1.366.8-1.408 2.92-2.104 4.163-.967.525.481.871 1.13 1.152 1.788.173.407.325.82.458 1.24" mask="url(#f)"/>
        <path fill="#353535" d="M30.008 5.534c.67 1.292.083 2.496.114 3.792.162.1.397.012.55-.081.675-.413 1.856-1.14 2.158-1.744.313-.624-.378-1.538-.263-2.282" mask="url(#f)"/>
        <path fill="#F7E0C4" d="M32.727 20.9c.317.355.502.828.512 1.307.006.31-.033.681.21.87.307.237.748-.058.947-.392.503-.84.255-2.153-.658-2.488" mask="url(#f)"/>
        <path fill="#353535" d="M32.136 20.24c-.037.355-.072.733.104 1.052.262.473.93.659 1.502.569.572-.09 1.072-.395 1.553-.693l-.315-9.062c-.035-.998-.016-3.117-1.286-3.59-1.647-.616-1.302 1.343-1.267 2.163.136 3.188.04 6.385-.29 9.561" mask="url(#f)"/>
        <path fill="#DDB294" d="M29.03 3.467c-.229.93.05 1.907.384 2.803.048.13.102.267.21.355.11.088.256.112.396.124a3.477 3.477 0 0 0 1.944-.407c.232-.126.457-.285.597-.512.159-.256.193-.569.223-.87.12-1.206-.102-2.624-1.44-3.066-1.02-.337-2.074.598-2.314 1.573" mask="url(#f)"/>
        <path fill="#E57055" d="M29.184 1.955c-.189.253-.268.832-.227 1.114 1.361.786 2.704 1.284 3.927-.001 0-.194.064-.47.064-.664 0-.055-.002-.114-.049-.16-.046-.044-.125-.355-.2-.373-.987-.244-2.496-.085-3.515.084" mask="url(#f)"/>
        <path stroke="#353535" stroke-width=".5" d="M30.227 9.404c.02 1.519-.412 3-.664 4.497-.444 2.632-.326 5.323-.31 7.993.018 3.048-.1 6.097-.352 9.135-.076.911-.176 1.86-.657 2.634" mask="url(#f)"/>
        <path fill="#353535" d="M29.77 12.728c-.266-.05-.53.195-.593.544-.061.35.104.674.37.723.266.049.532-.195.593-.545.062-.35-.104-.674-.37-.722M29.391 16.64c-.191-.035-.384.154-.432.423-.047.27.07.516.261.551.191.036.385-.154.432-.423.047-.268-.07-.515-.26-.551M29.324 19.94c-.186-.035-.382.194-.437.512-.056.318.05.604.236.639.186.035.382-.195.437-.513.056-.318-.05-.604-.236-.639M29.107 22.888c-.185.037-.284.323-.22.64.065.316.267.542.453.506.185-.037.284-.323.22-.64-.065-.316-.267-.543-.453-.506" mask="url(#f)"/>
    </g>
</svg>
