<?xml version="1.0" encoding="UTF-8"?>
<svg width="53px" height="72px" viewBox="0 0 53 72" version="1.1" xmlns="http://www.w3.org/2000/svg" xmlns:xlink="http://www.w3.org/1999/xlink">
    <!-- Generator: sketchtool 52.4 (67378) - http://www.bohemiancoding.com/sketch -->
    <title>33750611-BBC3-414D-9747-503A5B64CA16</title>
    <desc>Created with sketchtool.</desc>
    <defs>
        <polygon id="path-1" points="0.264388436 0.220181478 9.0154858 0.220181478 9.0154858 4 0.264388436 4"></polygon>
        <polygon id="path-3" points="0 0.221614268 8.41251767 0.221614268 8.41251767 10.2618947 0 10.2618947"></polygon>
        <polygon id="path-5" points="0 71.9848 52.8621203 71.9848 52.8621203 -2.84217094e-14 0 -2.84217094e-14"></polygon>
    </defs>
    <g id="Page-1" stroke="none" stroke-width="1" fill="none" fill-rule="evenodd">
        <g id="Final" transform="translate(-867.000000, -8006.000000)">
            <g id="Group-42" transform="translate(867.000000, 8006.000000)">
                <path d="M2.95636391,13.79076 C3.87529624,14.22076 4.95721353,14.28836 5.92197293,13.97596 C6.01522105,13.94596 6.12002556,13.91316 6.20649925,13.95876 C6.27743158,13.99636 6.31409323,14.07636 6.34477744,14.15036 C6.73729624,15.09116 7.07641654,16.05436 7.36014586,17.03356 C7.37927368,17.10036 7.39640902,17.17916 7.35376992,17.23356 C7.32348421,17.27316 7.2716797,17.28716 7.22346165,17.29836 C6.52609323,17.45396 5.81676992,17.38036 5.11023609,17.36796 C4.71612331,17.36156 3.81153684,17.59396 3.47122105,17.37716 C3.04483008,17.10556 3.14644662,16.40276 3.11416842,15.96556 C3.09663459,15.71476 3.11775489,13.86596 2.95636391,13.79076" id="Fill-1" fill="#6C7A75"></path>
                <path d="M5.52949398,69.13956 C5.54583233,69.27396 5.56615564,69.41796 5.65780977,69.51676 C5.76221579,69.62956 5.92878722,69.65196 6.08141128,69.66556 C7.69890752,69.81436 9.32756165,69.76276 10.9510353,69.71116 C11.3690579,69.69796 11.8097947,69.67836 12.1636594,69.45516 C12.5155316,69.23316 12.7307195,68.73036 12.4948098,68.38716 C12.3214639,68.13436 11.9879226,68.06396 11.6886519,68.00156 C10.4792158,67.75116 9.30843383,67.31396 8.2305015,66.70956 C8.03523835,66.59956 7.84156917,66.48396 7.62996767,66.41116 C7.10634361,66.23076 5.9411406,66.15276 5.50040376,66.60556 C4.99630602,67.12316 5.45497519,68.51116 5.52949398,69.13956" id="Fill-3" fill="#1E231C"></path>
                <path d="M16.6616857,16.91576 C15.780212,17.97816 14.8146556,19.09656 13.4860692,19.46256 C12.8994827,19.62416 12.281415,19.62496 11.6721143,19.61216 C10.6965955,19.59176 9.72147519,19.54016 8.74874586,19.45736 C7.94816692,19.38976 6.99815188,19.19096 6.70565564,18.44016 C6.5928812,18.15136 6.60563308,17.83056 6.61958045,17.52136 C6.62715188,17.34776 6.64109925,17.15976 6.75586617,17.03056 C6.88776842,16.88216 7.10773835,16.86056 7.30579098,16.85176 C10.3419338,16.71056 12.1941444,15.77416 14.7819789,14.32616 C15.5450992,13.89896 16.7473624,13.48496 17.6240541,13.81576 C19.3164677,14.45416 17.318806,16.12336 16.6616857,16.91576" id="Fill-5" fill="#407396"></path>
                <path d="M16.4674985,14.27628 C16.2794083,13.74148 16.6914534,13.18428 17.1373707,12.83588 C17.4306639,12.60668 17.7650023,12.40868 18.1344083,12.36788 C18.5038143,12.32628 18.9126714,12.47468 19.0943857,12.80028 C19.3103707,13.18748 19.1469872,13.68468 18.8823857,14.04028 C18.6177842,14.39628 18.2595361,14.67748 18.0208368,15.05108 C17.9530925,15.15748 17.8881376,15.27748 17.7737692,15.33028 C17.6275211,15.39748 17.4561677,15.33028 17.317491,15.24828 C17.001085,15.06188 16.7317015,14.79548 16.5408218,14.48108" id="Fill-7" fill="#6C7A75"></path>
                <path d="M4.4515218,64.26808 C4.45470977,64.89248 4.47264211,65.55088 4.79462707,66.08488 C5.11740902,66.61888 5.85542406,66.95248 6.38343158,66.62128 C6.89231128,66.30168 6.94531128,65.59208 6.95049173,64.98928 C7.0278,56.27568 8.82461955,47.58888 8.15992782,38.90048 C8.21053684,39.56288 4.33436391,39.38168 3.96336391,40.12528 C3.66409323,40.72528 4.10164211,41.92008 4.18213835,42.54328 C4.31085263,43.54288 4.40808571,44.54688 4.48061203,45.55208 C4.76673233,49.51968 4.65993534,53.50168 4.5579203,57.47408 C4.49973985,59.73848 4.43996541,62.00288 4.4515218,64.26808" id="Fill-9" fill="#E48C73"></path>
                <path d="M5.92173383,65.78996 C5.95640301,66.35716 6.00103459,66.92356 6.0528391,67.48956 C6.07794436,67.76316 6.10982406,68.05156 6.27201203,68.27276 C6.53302707,68.62796 7.02875639,68.68956 7.46750075,68.72076 C8.65940301,68.80596 10.1246737,68.74916 10.6849594,67.68956 C10.8487414,67.38036 10.9037338,67.02636 10.9563353,66.68036 C11.1966286,65.09836 11.4369218,63.51556 11.6768165,61.93356 C12.9344707,53.65436 14.1941173,45.25036 13.1775534,36.93836 L9.78475639,37.99996 C8.87658346,38.28436 7.30212481,38.45236 6.54577895,39.01796 C5.44074887,39.84436 6.36804962,43.21356 6.40550827,44.55396 C6.53143308,49.11036 6.11261353,53.65636 5.91814737,58.20436 C5.80935789,60.74236 5.92173383,63.25556 5.92173383,65.78996" id="Fill-11" fill="#FFAB93"></path>
                <g id="Group-15" transform="translate(6.375940, 67.984800)">
                    <mask id="mask-2" fill="white">
                        <use xlink:href="#path-1"></use>
                    </mask>
                    <g id="Clip-14"></g>
                    <path d="M0.604718045,4.00008 C3.25392105,3.95488 5.90312406,3.90968 8.55192857,3.86448 C8.64278571,3.86288 8.73762782,3.86048 8.81732707,3.81688 C8.92253008,3.75928 8.98110902,3.64048 9.00302632,3.52208 C9.06957519,3.16888 8.86116165,2.81008 8.57743233,2.59128 C8.29370301,2.37168 7.9442218,2.26128 7.6058985,2.14288 C6.62719173,1.80128 5.68235714,1.36168 4.79012406,0.83368 C4.50719173,0.66648 4.2238609,0.48768 3.9058609,0.40568 C3.66397368,0.34248 3.41092857,0.33888 3.16107143,0.33528 C2.61632707,0.32688 0.592763158,-0.02552 0.321387218,0.54608 C0.154018797,0.89848 0.405071429,1.77808 0.440139098,2.16648 C0.495131579,2.77728 0.549725564,3.38888 0.604718045,4.00008" id="Fill-13" fill="#2E362B" mask="url(#mask-2)"></path>
                </g>
                <path d="M8.36057068,12.43956 C8.57336767,11.79636 8.57615714,11.10276 8.5383,10.42596 C8.49446541,9.62956 8.39723233,8.83556 8.24819474,8.05196 C8.17287895,7.65916 8.06887143,7.23996 7.76641278,6.97956 C7.44522481,6.70236 6.98615714,6.67596 6.56295414,6.66276 C5.71933759,6.63636 4.82630752,6.62196 4.09466842,7.04396 C3.33314211,7.48276 2.87965338,8.33836 2.73101429,9.20716 C2.58277368,10.07636 2.70152556,10.96716 2.85016466,11.83596 C3.08049549,13.18116 3.10839023,15.39596 4.97175865,15.09516 C6.38243534,14.86756 7.90150301,13.82836 8.36057068,12.43956" id="Fill-16" fill="#A88E7C"></path>
                <g id="Group-20" transform="translate(0.000000, 4.384800)">
                    <mask id="mask-4" fill="white">
                        <use xlink:href="#path-3"></use>
                    </mask>
                    <g id="Clip-19"></g>
                    <path d="M7.6371406,1.3118 C7.50603534,1.0454 7.36935113,0.771 7.14499774,0.577 C6.76562932,0.2486 6.22088496,0.2146 5.72037368,0.2226 C3.7043812,0.2558 1.46244135,0.8842 0.484133083,2.6534 C-0.157844361,3.8134 -0.112814286,5.2622 0.335095489,6.5102 C0.783005263,7.7586 1.59394511,8.8398 2.44832105,9.8522 C2.58938872,10.0198 2.74679474,10.195 2.95919323,10.2466 C3.2066594,10.3062 3.45930602,10.1818 3.6732985,10.043 C4.28180226,9.6486 4.79307293,9.1034 5.14972707,8.4702 C5.38802782,8.0454 5.55898271,7.581 5.84191504,7.1846 C6.52174962,6.2306 7.74274211,5.6586 8.24285489,4.5586 C8.71586992,3.5182 8.09740376,2.2474 7.6371406,1.3118" id="Fill-18" fill="#663531" mask="url(#mask-4)"></path>
                </g>
                <path d="M8.6388406,16.8302 C7.42342707,16.639 6.19247218,16.5494 4.96231429,16.5618 C3.57076541,16.5758 2.04014135,16.7886 1.1132391,17.831 C0.0707729323,19.0038 0.168803008,20.7734 0.350517293,22.335 C1.00006617,27.9226 1.92736692,33.4786 3.1272391,38.9738 C3.20414887,39.3282 3.30058496,39.7114 3.58511128,39.935 C3.85728421,40.1482 4.2298782,40.159 4.57417895,40.1718 C6.33154737,40.2342 8.09768271,40.5646 9.83751729,40.3102 C11.5777504,40.0558 13.3666,39.0326 13.847585,37.3346 C14.0344797,36.6758 14.0089759,35.9778 13.9814797,35.293 L13.7551338,29.5862 C13.6766301,27.6114 13.5953368,25.6162 13.0689233,23.7114 C12.8079083,22.7666 12.3902842,21.857 12.1671263,20.903 C12.0180887,20.2634 12.1659308,19.6586 12.0591338,19.0458 C11.7905474,17.4986 9.9742015,17.0398 8.6388406,16.8302" id="Fill-21" fill="#5189B7"></path>
                <mask id="mask-6" fill="white">
                    <use xlink:href="#path-5"></use>
                </mask>
                <g id="Clip-24"></g>
                <polygon id="Fill-23" fill="#090D01" mask="url(#mask-6)" points="18.2917744 12.9832 20.9130827 12.9832 20.9130827 7.7212 18.2917744 7.7212"></polygon>
                <path d="M19.7500316,13.13096 C19.8480617,12.92216 19.9847459,12.72256 20.1820015,12.60416 C20.4721068,12.42936 20.8554602,12.46256 21.1519414,12.62736 C21.4480241,12.79216 21.6664,13.07136 21.827791,13.37016 C22.1589414,13.98336 22.2689263,14.75416 21.9600917,15.37856 C21.7640316,15.77496 20.9618586,16.49776 20.496415,16.12016 C20.3772647,16.02336 20.3055353,15.88216 20.236994,15.74496 C20.0401368,15.35096 19.756806,14.94216 19.604182,14.53656 C19.4471744,14.11896 19.5683173,13.51896 19.7500316,13.13096" id="Fill-25" fill="#6C7A75" mask="url(#mask-6)"></path>
                <path d="M18.4918992,15.4556 C18.9226737,14.682 19.5491098,13.7976 20.428591,13.8736 C21.2407263,13.9436 21.7404406,14.8408 21.799418,15.6568 C21.9237489,17.3824 20.7808617,18.916 19.6622827,20.232 C18.2037865,21.9472 16.4858692,23.7128 14.2578767,23.9976 C13.1799444,24.136 12.0916511,23.9056 11.0368316,23.6452 C10.5638165,23.5284 10.0712752,23.3936 9.71621504,23.0592 C9.36115489,22.7244 9.20414737,22.1256 9.50580902,21.7416 C9.8365609,21.3192 10.4717639,21.3752 11.0069444,21.3796 C12.4008842,21.3912 13.7426211,20.7764 14.8460571,19.9212 C16.4264932,18.6964 17.5315233,17.18 18.4918992,15.4556" id="Fill-26" fill="#407396" mask="url(#mask-6)"></path>
                <path d="M33.6919406,55.51576 C33.3906774,55.67856 33.0790534,55.91576 33.0360158,56.25696 C32.9925797,56.60136 33.2559857,56.92496 33.5723917,57.06536 C33.8891962,57.20576 34.2474444,57.20376 34.5933391,57.19856 C36.3244068,57.17336 38.0550759,57.12776 39.7853466,57.06216 C40.2631436,57.04376 40.749309,57.02296 41.2016023,56.86656 C41.4626173,56.77576 41.7236323,56.62496 41.8415872,56.37456 C41.912918,56.22416 41.9244744,56.05296 41.9340383,55.88696 C42.0380459,54.01576 42.1532113,48.82336 41.7164594,46.99456 C40.9457677,46.84056 39.7219857,46.89416 39.4023917,47.73976 C39.1218504,48.48256 39.7642263,52.46776 39.4111586,53.20056 C38.6249256,54.83176 35.129715,54.73896 33.6919406,55.51576" id="Fill-27" fill="#090A01" mask="url(#mask-6)"></path>
                <path d="M42.2526361,56.22592 C41.9880346,56.44432 41.7286135,56.73752 41.7517263,57.08072 C41.7760346,57.42712 42.0968241,57.69352 42.4343504,57.76952 C42.7722752,57.84552 43.1233504,57.77392 43.4616737,57.70152 C45.1548842,57.33992 46.8441098,56.95832 48.5289519,56.55752 C48.9943955,56.44672 49.467012,56.33152 49.8802526,56.08992 C50.1189519,55.95072 50.3464932,55.75152 50.4134406,55.48312 C50.4540872,55.32112 50.4325684,55.15112 50.4094556,54.98632 C50.1504331,53.13072 49.8483729,47.95632 49.0669218,46.24752 C48.2806887,46.24632 47.0903805,46.53672 46.9405459,47.42872 C46.8086436,48.21232 47.6211774,52.05392 47.4159519,52.84192 C46.9596737,54.59512 43.5130797,55.18392 42.2526361,56.22592" id="Fill-28" fill="#090A01" mask="url(#mask-6)"></path>
                <path d="M39.593909,9.45832 C39.8031195,7.25912 39.3902774,4.99552 39.9417962,2.85672 C40.0398263,2.47752 40.1717286,2.09792 40.4128188,1.78952 C40.6447436,1.49392 40.9631421,1.28112 41.2807436,1.08112 C42.2921271,0.44472 43.4437812,-0.13168 44.6269165,0.02632 C46.2611496,0.24392 47.3781346,1.75272 48.2281271,3.17072 C48.8011647,4.12712 49.353082,5.12872 49.5292173,6.23112 C49.6551421,7.01912 49.5822173,7.82952 49.4180368,8.61072 C49.1430744,9.92032 48.6170594,11.16152 48.0938338,12.39312 C47.5379316,13.70112 46.9820293,15.00992 46.4265256,16.31792 C46.0611045,17.17792 45.6626083,18.08032 44.9094504,18.62952 C44.5105556,18.91952 43.9805556,19.09232 43.520691,18.91512 C43.2776083,18.82112 43.0799541,18.64072 42.8906684,18.46192 C41.5688564,17.20992 40.2024128,15.77392 39.2631571,14.20032 C38.4749316,12.88072 39.4548338,10.91992 39.593909,9.45832" id="Fill-29" fill="#E57055" mask="url(#mask-6)"></path>
                <path d="M50.5969083,47.71612 C50.5737955,48.01132 50.5415173,48.32732 50.3279233,48.55692 C50.0692992,48.83532 49.6221865,48.90492 49.2137278,48.93772 C46.8219534,49.12932 44.4182241,48.70772 42.0172842,48.76892 C40.8094421,48.79972 39.6091714,48.95252 38.4013293,48.98172 C38.225194,48.98612 38.0335173,48.98372 37.8944421,48.88852 C37.7191038,48.76852 37.692006,48.54892 37.6804496,48.35412 C37.5872015,46.80692 37.5437654,45.25732 37.5509383,43.70772 C38.0877128,43.65332 38.6308632,43.68252 39.1704271,43.70772 C41.9953669,43.84092 44.8266827,43.87172 47.654412,43.80052 C48.6626075,43.77492 50.4024421,43.33532 50.8523444,44.19932 C51.2528331,44.96892 50.6630586,46.87012 50.5969083,47.71612" id="Fill-30" fill="#353535" mask="url(#mask-6)"></path>
                <path d="M49.1387308,13.66848 C49.8325128,15.84808 50.1521068,18.13768 50.2899865,20.42128 C50.388415,22.05968 50.1927534,23.79848 50.3150917,25.39008 C50.444603,27.07688 51.2806481,28.80728 51.6488586,30.47288 C51.8927383,31.57768 53.620618,44.96848 52.4709564,45.30448 C48.2528737,46.53648 43.7948962,47.36808 39.4740015,46.57128 C37.9967759,46.29848 36.4243098,45.73968 35.656009,44.44368 C35.1985353,43.67248 35.0933323,42.73888 35.124415,41.84128 C35.2316105,38.74408 36.7937158,32.43928 37.7118511,29.48088 C38.4554451,27.08688 38.7798211,24.58528 39.1014075,22.09808 C39.5074752,18.95328 39.8677158,15.79448 40.4917609,12.70488 C40.6228662,12.05408 40.7591519,11.39048 41.0879113,10.81448 C42.2021068,8.86448 45.1613398,7.90048 46.8932045,9.47448 C47.6264376,10.14088 48.108618,11.03928 48.5003398,11.95088 C48.7422271,12.51408 48.9538286,13.08728 49.1387308,13.66848" id="Fill-31" fill="#E0A16C" mask="url(#mask-6)"></path>
                <path d="M41.8537414,7.66224 C42.788215,9.45184 41.9693053,11.11864 42.0123429,12.91344 C42.2378917,13.05264 42.5662526,12.92904 42.7782526,12.80024 C43.7210947,12.22824 45.3680797,11.22344 45.7896887,10.38664 C46.2252451,9.52224 45.2624782,8.25704 45.4230722,7.22624" id="Fill-32" fill="#353535" mask="url(#mask-6)"></path>
                <path d="M45.6452737,28.9376 C46.087206,29.4304 46.3458301,30.0856 46.3597774,30.7488 C46.3685444,31.178 46.3139504,31.6912 46.6530707,31.9524 C47.0806571,32.2808 47.6951383,31.872 47.9736872,31.41 C48.6750406,30.2468 48.3287474,28.4288 47.0559504,27.9652" id="Fill-33" fill="#F7E0C4" mask="url(#mask-6)"></path>
                <path d="M44.8218211,28.02472 C44.7700165,28.51672 44.720603,29.03992 44.9664752,29.48112 C45.3322947,30.13632 46.263182,30.39352 47.0613699,30.26872 C47.8591594,30.14392 48.5565278,29.72192 49.2275955,29.30992 L48.7872571,16.76272 C48.7390391,15.38072 48.7649414,12.44672 46.9944226,11.79032 C44.6974902,10.93832 45.1776782,13.65112 45.2266932,14.78632 C45.4167759,19.20072 45.2816857,23.62672 44.8218211,28.02472" id="Fill-34" fill="#353535" mask="url(#mask-6)"></path>
                <path d="M40.4893301,4.80052 C40.1701346,6.08852 40.5578714,7.44052 41.024112,8.68172 C41.0918564,8.86252 41.1675707,9.05132 41.3174053,9.17252 C41.4700293,9.29532 41.6748564,9.32812 41.8697211,9.34492 C42.8026008,9.42452 43.7566008,9.22612 44.581488,8.78172 C44.9054654,8.60692 45.2186835,8.38612 45.4139466,8.07292 C45.6355105,7.71812 45.6825331,7.28452 45.7243752,6.86772 C45.8913451,5.19852 45.5833075,3.23452 43.7159541,2.62212 C42.2933226,2.15572 40.8240669,3.45052 40.4893301,4.80052" id="Fill-35" fill="#DDB294" mask="url(#mask-6)"></path>
                <path d="M40.7034023,2.70716 C40.4407932,3.05756 40.3300113,3.85836 40.3873947,4.24876 C42.2862293,5.33836 44.1587632,6.02756 45.8647256,4.24756 C45.8635301,3.97996 45.9543872,3.59716 45.9531917,3.32916 C45.9531917,3.25276 45.9504023,3.17116 45.8854474,3.10836 C45.821688,3.04676 45.7105075,2.61556 45.6053045,2.58996 C44.2296955,2.25316 42.1252368,2.47276 40.7034023,2.70716" id="Fill-36" fill="#E57055" mask="url(#mask-6)"></path>
                <path d="M42.1592286,13.0216 C42.1879203,15.124 41.5834015,17.1752 41.2319278,19.2476 C40.6134617,22.8924 40.7784391,26.6172 40.8007549,30.3144 C40.8254617,34.5348 40.6616797,38.7568 40.309409,42.9628 C40.2038075,44.2248 40.0639353,45.538 39.3928677,46.6108" id="Stroke-37" stroke="#353535" stroke-width="0.5" mask="url(#mask-6)"></path>
                <path d="M41.521794,17.62276 C41.150794,17.55476 40.7809895,17.89276 40.6949143,18.37716 C40.6088391,18.86196 40.8399669,19.30956 41.2109669,19.37756 C41.5815684,19.44556 41.9521699,19.10756 42.0378466,18.62316 C42.1239218,18.13836 41.892794,17.69036 41.521794,17.62276" id="Fill-38" fill="#353535" mask="url(#mask-6)"></path>
                <path d="M40.9929098,23.03996 C40.7263158,22.99116 40.4565338,23.25316 40.390782,23.62596 C40.3246316,23.99836 40.4876165,24.34036 40.7542105,24.38916 C41.021203,24.43836 41.290985,24.17596 41.3567368,23.80356 C41.4224887,23.43116 41.2599023,23.08916 40.9929098,23.03996" id="Fill-39" fill="#353535" mask="url(#mask-6)"></path>
                <path d="M40.8995023,27.60832 C40.6400812,27.56032 40.3671113,27.87792 40.289803,28.31792 C40.2120962,28.75872 40.3599383,29.15472 40.6193594,29.20272 C40.878382,29.25112 41.1517504,28.93352 41.2290586,28.49312 C41.3063669,28.05272 41.1585248,27.65672 40.8995023,27.60832" id="Fill-40" fill="#353535" mask="url(#mask-6)"></path>
                <path d="M40.5971632,31.69152 C40.3385391,31.74232 40.2010579,32.13832 40.2903211,32.57672 C40.3799827,33.01472 40.6625165,33.32832 40.9211406,33.27752 C41.1801632,33.22672 41.3176444,32.83032 41.2279827,32.39232 C41.1383211,31.95432 40.8561857,31.64032 40.5971632,31.69152" id="Fill-41" fill="#353535" mask="url(#mask-6)"></path>
            </g>
        </g>
    </g>
</svg>