<svg xmlns="http://www.w3.org/2000/svg" width="54" height="50" viewBox="0 0 54 50">
    <path fill="#ECECEC" fill-rule="evenodd" d="M37.449 45.455H41.2V30.484H37.45v14.97zm-24.65 0h3.752V30.484H12.8v14.97zm0-27.65h3.752v-5.126H12.8v5.126zm8.322 0h11.757v-5.126H21.121v5.126zm22.506 8.133H10.373a1.802 1.802 0 0 1-1.804-1.794c0-.99.81-1.794 1.804-1.794h33.254c.994 0 1.804.805 1.804 1.794s-.81 1.794-1.804 1.794zm-6.178-8.133H41.2v-5.126H37.45v5.126zM6.882 5.44l-.33-.896h40.897l-.332.896a4.148 4.148 0 0 1-3.88 2.693H10.763A4.15 4.15 0 0 1 6.882 5.44zm44.523 1.57L54 0H0l2.594 7.01c.953 2.576 3.077 4.506 5.635 5.287v5.884C5.768 19.06 4 21.397 4 24.144s1.769 5.084 4.23 5.962V50h12.892V30.484H32.88V50H45.77V30.106c2.461-.878 4.23-3.215 4.23-5.962s-1.769-5.084-4.23-5.963v-5.884c2.557-.78 4.682-2.71 5.634-5.286z"/>
</svg>
