<svg xmlns="http://www.w3.org/2000/svg" xmlns:xlink="http://www.w3.org/1999/xlink" width="58" height="50" viewBox="0 0 58 50">
    <defs>
        <path id="a" d="M0 0h57.236v49.264H0z"/>
    </defs>
    <g fill="none" fill-rule="evenodd">
        <mask id="b" fill="#fff">
            <use xlink:href="#a"/>
        </mask>
        <path fill="#EDEDED" d="M52.774 14.608L42.69 18.456V16.36L29.64 9.639l-2.042 3.968 10.63 5.477v1.073l-9.608 3.666L4.46 14.608v-.615L28.62 4.777l24.155 9.216v.615zm-8.759 17.07c-.432.318-.876.618-1.326.909v-9.354l1.326-.506v8.95zm-6.263 3.403a26.098 26.098 0 0 1-12.2 1.476 25.917 25.917 0 0 1-12.33-4.88v-8.95l15.397 5.874 9.609-3.666v9.95c-.159.063-.315.135-.476.196zm19.484-24.164L28.619 0-.001 10.916v6.767l8.761 3.342v12.823l.836.67A30.368 30.368 0 0 0 28.598 41.2c3.268 0 6.532-.528 9.63-1.557v1.248c-1.345.777-2.262 2.216-2.262 3.878a4.499 4.499 0 0 0 4.493 4.496 4.498 4.498 0 0 0 4.492-4.496c0-1.662-.917-3.1-2.262-3.878v-3.142a30.442 30.442 0 0 0 4.952-3.23l.836-.67V21.025l8.759-3.342v-6.766z" mask="url(#b)"/>
    </g>
</svg>
