<svg xmlns="http://www.w3.org/2000/svg" width="50" height="50" viewBox="0 0 50 50">
    <g fill="#EDEDED" fill-rule="evenodd">
        <path d="M6.896 45.455h36.208V18.777H6.896v26.678zm1.335-40.91h33.538c.596.949 1.191 1.899 1.728 2.759H6.503c.536-.86 1.132-1.81 1.728-2.759zm-3.686 9.687h40.91v-2.383H4.545v2.383zM50 9.82c0-.685-.277-1.306-.724-1.76-.418-.75-1.07-1.795-2.048-3.36-1.138-1.823-2.28-3.638-2.28-3.638L44.28 0H5.72l-.67 1.062S3.91 2.877 2.77 4.699C1.795 6.265 1.143 7.31.725 8.06A2.509 2.509 0 0 0 0 9.82v8.957h2.35V50h45.3V18.777H50V9.82z"/>
        <path d="M18.652 29.195h12.695v-1.723H18.652v1.723zm-4.546 4.546h21.787V22.926H14.106v10.815z"/>
    </g>
</svg>
