<svg xmlns="http://www.w3.org/2000/svg" xmlns:xlink="http://www.w3.org/1999/xlink" width="24" height="39" viewBox="0 0 24 39">
    <defs>
        <path id="a" d="M2.624.104c-.228.02-.626.02-.824.142-.186.115-.28.41-.363.608C1.006 1.87.923 2.99.803 4.074.623 5.691.353 7.296.047 8.893c-.022.112-.037.247.048.323.046.04.11.053.17.063l.31.055c.047.008.098.015.14-.007.048-.027.068-.086.084-.139.623-2.057 1.993-3.811 2.736-5.828.372-1.01.582-2.073.79-3.13C4.344.134 3.22.101 2.784.101c-.08 0-.138.001-.16.003z"/>
        <path id="c" d="M1.284.759C.927.855.188.8.218 1.269c.033.515.4 1.16.58 1.643a47.614 47.614 0 0 0 1.409 3.376c.213.46.433.918.614 1.392.076.198.15.408.312.546.16.138.44.163.566-.007.083-.112.075-.265.063-.405-.22-2.554-.446-5.119-1.024-7.617.027.114-1.317.525-1.454.562"/>
        <path id="e" d="M.138.048h3.298v1.669H.138z"/>
        <path id="g" d="M3.862.644c-.339-.026-.94-.205-1.235.04-.328.27-.426 1.17-.56 1.56A37.547 37.547 0 0 1 .733 5.592C.492 6.12.233 6.664.229 7.244c-.004.58.33 1.209.895 1.336.872-1.106 1.539-2.359 2.2-3.603l-.036 6.868c-.004.79-.008 1.587.13 2.365.023.128.055.264.154.348.112.095.275.092.422.083l4.8-.266c.7-.038 1.402-.077 2.089-.211a7.657 7.657 0 0 0 1.971-.674c.2-.1.408-.222.51-.422.098-.194.078-.424.056-.64C12.997 8.263 12.57 4.07 11.4.05a24.61 24.61 0 0 1-7.538.594"/>
        <path id="i" d="M3.862.644c-.339-.026-.94-.205-1.235.04-.328.27-.426 1.17-.56 1.56A37.547 37.547 0 0 1 .733 5.592C.492 6.12.233 6.664.229 7.244c-.004.58.33 1.209.895 1.336.872-1.106 1.539-2.359 2.2-3.603l-.036 6.868c-.004.79-.008 1.587.13 2.365.023.128.055.264.154.348.112.095.275.092.422.083l4.8-.266c.7-.038 1.402-.077 2.089-.211a7.657 7.657 0 0 0 1.971-.674c.2-.1.408-.222.51-.422.098-.194.078-.424.056-.64C12.997 8.263 12.57 4.07 11.4.05a24.61 24.61 0 0 1-7.538.594"/>
        <path id="k" d="M3.862.644c-.339-.026-.94-.205-1.235.04-.328.27-.426 1.17-.56 1.56A37.547 37.547 0 0 1 .733 5.592C.492 6.12.233 6.664.229 7.244c-.004.58.33 1.209.895 1.336.872-1.106 1.539-2.359 2.2-3.603l-.036 6.868c-.004.79-.008 1.587.13 2.365.023.128.055.264.154.348.112.095.275.092.422.083l4.8-.266c.7-.038 1.402-.077 2.089-.211a7.657 7.657 0 0 0 1.971-.674c.2-.1.408-.222.51-.422.098-.194.078-.424.056-.64C12.997 8.263 12.57 4.07 11.4.05a24.61 24.61 0 0 1-7.538.594"/>
        <path id="m" d="M3.862.644c-.339-.026-.94-.205-1.235.04-.328.27-.426 1.17-.56 1.56A37.547 37.547 0 0 1 .733 5.592C.492 6.12.233 6.664.229 7.244c-.004.58.33 1.209.895 1.336.872-1.106 1.539-2.359 2.2-3.603l-.036 6.868c-.004.79-.008 1.587.13 2.365.023.128.055.264.154.348.112.095.275.092.422.083l4.8-.266c.7-.038 1.402-.077 2.089-.211a7.657 7.657 0 0 0 1.971-.674c.2-.1.408-.222.51-.422.098-.194.078-.424.056-.64C12.997 8.263 12.57 4.07 11.4.05a24.61 24.61 0 0 1-7.538.594"/>
        <path id="o" d="M3.862.644c-.339-.026-.94-.205-1.235.04-.328.27-.426 1.17-.56 1.56A37.547 37.547 0 0 1 .733 5.592C.492 6.12.233 6.664.229 7.244c-.004.58.33 1.209.895 1.336.872-1.106 1.539-2.359 2.2-3.603l-.036 6.868c-.004.79-.008 1.587.13 2.365.023.128.055.264.154.348.112.095.275.092.422.083l4.8-.266c.7-.038 1.402-.077 2.089-.211a7.657 7.657 0 0 0 1.971-.674c.2-.1.408-.222.51-.422.098-.194.078-.424.056-.64C12.997 8.263 12.57 4.07 11.4.05a24.61 24.61 0 0 1-7.538.594"/>
        <path id="q" d="M3.862.644c-.339-.026-.94-.205-1.235.04-.328.27-.426 1.17-.56 1.56A37.547 37.547 0 0 1 .733 5.592C.492 6.12.233 6.664.229 7.244c-.004.58.33 1.209.895 1.336.872-1.106 1.539-2.359 2.2-3.603l-.036 6.868c-.004.79-.008 1.587.13 2.365.023.128.055.264.154.348.112.095.275.092.422.083l4.8-.266c.7-.038 1.402-.077 2.089-.211a7.657 7.657 0 0 0 1.971-.674c.2-.1.408-.222.51-.422.098-.194.078-.424.056-.64C12.997 8.263 12.57 4.07 11.4.05a24.61 24.61 0 0 1-7.538.594"/>
        <path id="s" d="M3.862.644c-.339-.026-.94-.205-1.235.04-.328.27-.426 1.17-.56 1.56A37.547 37.547 0 0 1 .733 5.592C.492 6.12.233 6.664.229 7.244c-.004.58.33 1.209.895 1.336.872-1.106 1.539-2.359 2.2-3.603l-.036 6.868c-.004.79-.008 1.587.13 2.365.023.128.055.264.154.348.112.095.275.092.422.083l4.8-.266c.7-.038 1.402-.077 2.089-.211a7.657 7.657 0 0 0 1.971-.674c.2-.1.408-.222.51-.422.098-.194.078-.424.056-.64C12.997 8.263 12.57 4.07 11.4.05a24.61 24.61 0 0 1-7.538.594"/>
        <path id="u" d="M3.862.644c-.339-.026-.94-.205-1.235.04-.328.27-.426 1.17-.56 1.56A37.547 37.547 0 0 1 .733 5.592C.492 6.12.233 6.664.229 7.244c-.004.58.33 1.209.895 1.336.872-1.106 1.539-2.359 2.2-3.603l-.036 6.868c-.004.79-.008 1.587.13 2.365.023.128.055.264.154.348.112.095.275.092.422.083l4.8-.266c.7-.038 1.402-.077 2.089-.211a7.657 7.657 0 0 0 1.971-.674c.2-.1.408-.222.51-.422.098-.194.078-.424.056-.64C12.997 8.263 12.57 4.07 11.4.05a24.61 24.61 0 0 1-7.538.594"/>
        <path id="w" d="M3.862.644c-.339-.026-.94-.205-1.235.04-.328.27-.426 1.17-.56 1.56A37.547 37.547 0 0 1 .733 5.592C.492 6.12.233 6.664.229 7.244c-.004.58.33 1.209.895 1.336.872-1.106 1.539-2.359 2.2-3.603l-.036 6.868c-.004.79-.008 1.587.13 2.365.023.128.055.264.154.348.112.095.275.092.422.083l4.8-.266c.7-.038 1.402-.077 2.089-.211a7.657 7.657 0 0 0 1.971-.674c.2-.1.408-.222.51-.422.098-.194.078-.424.056-.64C12.997 8.263 12.57 4.07 11.4.05a24.61 24.61 0 0 1-7.538.594"/>
        <path id="y" d="M3.862.644c-.339-.026-.94-.205-1.235.04-.328.27-.426 1.17-.56 1.56A37.547 37.547 0 0 1 .733 5.592C.492 6.12.233 6.664.229 7.244c-.004.58.33 1.209.895 1.336.872-1.106 1.539-2.359 2.2-3.603l-.036 6.868c-.004.79-.008 1.587.13 2.365.023.128.055.264.154.348.112.095.275.092.422.083l4.8-.266c.7-.038 1.402-.077 2.089-.211a7.657 7.657 0 0 0 1.971-.674c.2-.1.408-.222.51-.422.098-.194.078-.424.056-.64C12.997 8.263 12.57 4.07 11.4.05a24.61 24.61 0 0 1-7.538.594"/>
        <path id="A" d="M3.862.644c-.339-.026-.94-.205-1.235.04-.328.27-.426 1.17-.56 1.56A37.547 37.547 0 0 1 .733 5.592C.492 6.12.233 6.664.229 7.244c-.004.58.33 1.209.895 1.336.872-1.106 1.539-2.359 2.2-3.603l-.036 6.868c-.004.79-.008 1.587.13 2.365.023.128.055.264.154.348.112.095.275.092.422.083l4.8-.266c.7-.038 1.402-.077 2.089-.211a7.657 7.657 0 0 0 1.971-.674c.2-.1.408-.222.51-.422.098-.194.078-.424.056-.64C12.997 8.263 12.57 4.07 11.4.05a24.61 24.61 0 0 1-7.538.594"/>
        <path id="C" d="M3.862.644c-.339-.026-.94-.205-1.235.04-.328.27-.426 1.17-.56 1.56A37.547 37.547 0 0 1 .733 5.592C.492 6.12.233 6.664.229 7.244c-.004.58.33 1.209.895 1.336.872-1.106 1.539-2.359 2.2-3.603l-.036 6.868c-.004.79-.008 1.587.13 2.365.023.128.055.264.154.348.112.095.275.092.422.083l4.8-.266c.7-.038 1.402-.077 2.089-.211a7.657 7.657 0 0 0 1.971-.674c.2-.1.408-.222.51-.422.098-.194.078-.424.056-.64C12.997 8.263 12.57 4.07 11.4.05a24.61 24.61 0 0 1-7.538.594"/>
        <path id="E" d="M3.862.644c-.339-.026-.94-.205-1.235.04-.328.27-.426 1.17-.56 1.56A37.547 37.547 0 0 1 .733 5.592C.492 6.12.233 6.664.229 7.244c-.004.58.33 1.209.895 1.336.872-1.106 1.539-2.359 2.2-3.603l-.036 6.868c-.004.79-.008 1.587.13 2.365.023.128.055.264.154.348.112.095.275.092.422.083l4.8-.266c.7-.038 1.402-.077 2.089-.211a7.657 7.657 0 0 0 1.971-.674c.2-.1.408-.222.51-.422.098-.194.078-.424.056-.64C12.997 8.263 12.57 4.07 11.4.05a24.61 24.61 0 0 1-7.538.594"/>
        <path id="G" d="M3.862.644c-.339-.026-.94-.205-1.235.04-.328.27-.426 1.17-.56 1.56A37.547 37.547 0 0 1 .733 5.592C.492 6.12.233 6.664.229 7.244c-.004.58.33 1.209.895 1.336.872-1.106 1.539-2.359 2.2-3.603l-.036 6.868c-.004.79-.008 1.587.13 2.365.023.128.055.264.154.348.112.095.275.092.422.083l4.8-.266c.7-.038 1.402-.077 2.089-.211a7.657 7.657 0 0 0 1.971-.674c.2-.1.408-.222.51-.422.098-.194.078-.424.056-.64C12.997 8.263 12.57 4.07 11.4.05a24.61 24.61 0 0 1-7.538.594"/>
        <path id="I" d="M3.862.644c-.339-.026-.94-.205-1.235.04-.328.27-.426 1.17-.56 1.56A37.547 37.547 0 0 1 .733 5.592C.492 6.12.233 6.664.229 7.244c-.004.58.33 1.209.895 1.336.872-1.106 1.539-2.359 2.2-3.603l-.036 6.868c-.004.79-.008 1.587.13 2.365.023.128.055.264.154.348.112.095.275.092.422.083l4.8-.266c.7-.038 1.402-.077 2.089-.211a7.657 7.657 0 0 0 1.971-.674c.2-.1.408-.222.51-.422.098-.194.078-.424.056-.64C12.997 8.263 12.57 4.07 11.4.05a24.61 24.61 0 0 1-7.538.594"/>
        <path id="K" d="M3.862.644c-.339-.026-.94-.205-1.235.04-.328.27-.426 1.17-.56 1.56A37.547 37.547 0 0 1 .733 5.592C.492 6.12.233 6.664.229 7.244c-.004.58.33 1.209.895 1.336.872-1.106 1.539-2.359 2.2-3.603l-.036 6.868c-.004.79-.008 1.587.13 2.365.023.128.055.264.154.348.112.095.275.092.422.083l4.8-.266c.7-.038 1.402-.077 2.089-.211a7.657 7.657 0 0 0 1.971-.674c.2-.1.408-.222.51-.422.098-.194.078-.424.056-.64C12.997 8.263 12.57 4.07 11.4.05a24.61 24.61 0 0 1-7.538.594"/>
        <path id="M" d="M3.862.644c-.339-.026-.94-.205-1.235.04-.328.27-.426 1.17-.56 1.56A37.547 37.547 0 0 1 .733 5.592C.492 6.12.233 6.664.229 7.244c-.004.58.33 1.209.895 1.336.872-1.106 1.539-2.359 2.2-3.603l-.036 6.868c-.004.79-.008 1.587.13 2.365.023.128.055.264.154.348.112.095.275.092.422.083l4.8-.266c.7-.038 1.402-.077 2.089-.211a7.657 7.657 0 0 0 1.971-.674c.2-.1.408-.222.51-.422.098-.194.078-.424.056-.64C12.997 8.263 12.57 4.07 11.4.05a24.61 24.61 0 0 1-7.538.594"/>
        <path id="O" d="M3.862.644c-.339-.026-.94-.205-1.235.04-.328.27-.426 1.17-.56 1.56A37.547 37.547 0 0 1 .733 5.592C.492 6.12.233 6.664.229 7.244c-.004.58.33 1.209.895 1.336.872-1.106 1.539-2.359 2.2-3.603l-.036 6.868c-.004.79-.008 1.587.13 2.365.023.128.055.264.154.348.112.095.275.092.422.083l4.8-.266c.7-.038 1.402-.077 2.089-.211a7.657 7.657 0 0 0 1.971-.674c.2-.1.408-.222.51-.422.098-.194.078-.424.056-.64C12.997 8.263 12.57 4.07 11.4.05a24.61 24.61 0 0 1-7.538.594"/>
        <path id="Q" d="M3.862.644c-.339-.026-.94-.205-1.235.04-.328.27-.426 1.17-.56 1.56A37.547 37.547 0 0 1 .733 5.592C.492 6.12.233 6.664.229 7.244c-.004.58.33 1.209.895 1.336.872-1.106 1.539-2.359 2.2-3.603l-.036 6.868c-.004.79-.008 1.587.13 2.365.023.128.055.264.154.348.112.095.275.092.422.083l4.8-.266c.7-.038 1.402-.077 2.089-.211a7.657 7.657 0 0 0 1.971-.674c.2-.1.408-.222.51-.422.098-.194.078-.424.056-.64C12.997 8.263 12.57 4.07 11.4.05a24.61 24.61 0 0 1-7.538.594"/>
        <path id="S" d="M3.862.644c-.339-.026-.94-.205-1.235.04-.328.27-.426 1.17-.56 1.56A37.547 37.547 0 0 1 .733 5.592C.492 6.12.233 6.664.229 7.244c-.004.58.33 1.209.895 1.336.872-1.106 1.539-2.359 2.2-3.603l-.036 6.868c-.004.79-.008 1.587.13 2.365.023.128.055.264.154.348.112.095.275.092.422.083l4.8-.266c.7-.038 1.402-.077 2.089-.211a7.657 7.657 0 0 0 1.971-.674c.2-.1.408-.222.51-.422.098-.194.078-.424.056-.64C12.997 8.263 12.57 4.07 11.4.05a24.61 24.61 0 0 1-7.538.594"/>
        <path id="U" d="M3.862.644c-.339-.026-.94-.205-1.235.04-.328.27-.426 1.17-.56 1.56A37.547 37.547 0 0 1 .733 5.592C.492 6.12.233 6.664.229 7.244c-.004.58.33 1.209.895 1.336.872-1.106 1.539-2.359 2.2-3.603l-.036 6.868c-.004.79-.008 1.587.13 2.365.023.128.055.264.154.348.112.095.275.092.422.083l4.8-.266c.7-.038 1.402-.077 2.089-.211a7.657 7.657 0 0 0 1.971-.674c.2-.1.408-.222.51-.422.098-.194.078-.424.056-.64C12.997 8.263 12.57 4.07 11.4.05a24.61 24.61 0 0 1-7.538.594"/>
        <path id="W" d="M3.862.644c-.339-.026-.94-.205-1.235.04-.328.27-.426 1.17-.56 1.56A37.547 37.547 0 0 1 .733 5.592C.492 6.12.233 6.664.229 7.244c-.004.58.33 1.209.895 1.336.872-1.106 1.539-2.359 2.2-3.603l-.036 6.868c-.004.79-.008 1.587.13 2.365.023.128.055.264.154.348.112.095.275.092.422.083l4.8-.266c.7-.038 1.402-.077 2.089-.211a7.657 7.657 0 0 0 1.971-.674c.2-.1.408-.222.51-.422.098-.194.078-.424.056-.64C12.997 8.263 12.57 4.07 11.4.05a24.61 24.61 0 0 1-7.538.594"/>
        <path id="Y" d="M3.862.644c-.339-.026-.94-.205-1.235.04-.328.27-.426 1.17-.56 1.56A37.547 37.547 0 0 1 .733 5.592C.492 6.12.233 6.664.229 7.244c-.004.58.33 1.209.895 1.336.872-1.106 1.539-2.359 2.2-3.603l-.036 6.868c-.004.79-.008 1.587.13 2.365.023.128.055.264.154.348.112.095.275.092.422.083l4.8-.266c.7-.038 1.402-.077 2.089-.211a7.657 7.657 0 0 0 1.971-.674c.2-.1.408-.222.51-.422.098-.194.078-.424.056-.64C12.997 8.263 12.57 4.07 11.4.05a24.61 24.61 0 0 1-7.538.594"/>
        <path id="aa" d="M7.313.181c-.392.11-.784.686-1.075.96-.817.768-1.667 1.508-2.603 2.129C2.6 3.955 1.456 4.489.227 4.694c.823 2.066.973 4.395.42 6.55 2.717.207 5.285 1.84 6.63 4.214a69.105 69.105 0 0 1 8.913-.413c.199.004.401.008.59-.05.183-.054.344-.162.503-.266a19.655 19.655 0 0 1 6.311-2.692 157.412 157.412 0 0 1-.09-4.42c-.006-.787.002-1.608.354-2.311A11.74 11.74 0 0 1 17.47.635c-.076-.112-.156-.231-.28-.283-.113-.046-.24-.029-.36-.011-2.556.372-5.163.399-7.727.081C8.7.372 8.06.15 7.584.15c-.099 0-.19.01-.271.032"/>
    </defs>
    <g fill="none" fill-rule="evenodd">
        <g fill="#F5D2B1">
            <path d="M10.109 32.42c-.18 1.616-.45 3.221-.756 4.819-.022.112-.036.246.048.322.046.041.11.053.17.064l.31.054c.047.009.098.016.14-.007.049-.026.068-.085.084-.138.623-2.058 1.993-3.811 2.736-5.828.372-1.01.582-2.073.79-3.13.022-.114-1.559-.139-1.701-.126-.228.02-.626.02-.824.142-.186.114-.279.41-.363.608-.431 1.015-.514 2.136-.634 3.22M17.88 33.898c.213.46.434.918.615 1.392.075.198.15.408.311.545.161.138.44.164.566-.006.084-.112.075-.266.063-.405-.22-2.554-.446-5.119-1.023-7.617.026.114-1.318.525-1.455.562-.357.096-1.096.04-1.066.51.034.515.4 1.16.58 1.643a48.163 48.163 0 0 0 1.41 3.376"/>
        </g>
        <g transform="translate(9.306 28.346)">
            <mask id="b" fill="#fff">
                <use xlink:href="#a"/>
            </mask>
            <path fill="#EAEAEF" d="M3.83 2.386c-.081.189.229.3.318.486.034.07.034.152.032.23a11.433 11.433 0 0 1-.905 4.165c-.444 1.045-1.081 2.059-2.05 2.65-.304.184-.647.326-1.003.322-.356-.005-.724-.182-.885-.5-.083-.163-.106-.349-.128-.531-.089-.76-.161-1.534-.018-2.285.113-.59.355-1.146.54-1.717.172-.537.293-1.088.44-1.632.12-.452.23-1.081.518-1.461.289-.38.868-.125 1.263-.056l1.877.329z" mask="url(#b)"/>
        </g>
        <g transform="translate(15.673 27.61)">
            <mask id="d" fill="#fff">
                <use xlink:href="#c"/>
            </mask>
            <path fill="#EAEAEF" d="M3.59 2.26c.07-.021.146-.042.215-.019.065.022.112.079.153.135.362.492.576 1.079.747 1.667.22.754.38 1.526.475 2.306.063.516.097 1.052-.067 1.546-.172.516-.545.938-.934 1.32-.187.183-.406.373-.668.378-.227.005-.433-.13-.603-.283-.794-.713-1.089-1.812-1.398-2.834a32.245 32.245 0 0 0-.542-1.633C.84 4.49.35 3.712.502 3.343c.156-.375.984-.455 1.32-.556.59-.175 1.179-.351 1.768-.528" mask="url(#d)"/>
        </g>
        <g transform="translate(6.612 37.176)">
            <mask id="f" fill="#fff">
                <use xlink:href="#e"/>
            </mask>
            <path fill="#620000" d="M.255.26C.22.265.181.27.157.296.113.345.153.422.2.47c.242.258.607.355.955.416.476.083.96.122 1.443.116a.651.651 0 0 1 .085.38c-.006.077-.025.16.017.225.019.03.048.05.078.066a.424.424 0 0 0 .559-.18.802.802 0 0 0 .06-.313c.018-.308.031-.615.04-.923C3.45-.196.596.225.256.26" mask="url(#f)"/>
        </g>
        <path fill="#620000" d="M16.629 36.477c-.127.048-.28.144-.246.275.028.114.173.143.29.149a9.493 9.493 0 0 0 2.303-.173c.037-.008.077-.015.11.003.034.018.05.058.06.095.04.151.039.34.172.423.128.08.306-.01.376-.143.07-.133.062-.292.05-.443-.047-.596-.042-1.258-.813-1.061-.78.2-1.55.586-2.302.875"/>
        <path fill="#3B3B3D" d="M7.344 19.957c-.24.527-.498 1.071-.502 1.651-.005.58.33 1.21.894 1.337.872-1.107 1.539-2.36 2.2-3.604L9.9 26.209c-.004.791-.008 1.587.13 2.366.023.127.055.264.154.347.113.095.275.092.422.084l4.8-.266c.7-.039 1.402-.078 2.09-.212a7.657 7.657 0 0 0 1.97-.674c.2-.1.408-.221.51-.421.098-.194.079-.424.057-.64-.423-4.166-.852-8.358-2.02-12.378a24.626 24.626 0 0 1-7.538.594c-.34-.026-.94-.205-1.236.038-.328.272-.425 1.172-.56 1.562a37.54 37.54 0 0 1-1.335 3.348"/>
        <path fill="#F5D2B1" d="M6.144 22.81c-.192.21-.385.422-.524.67-.229.412-.29.897-.291 1.368 0 .029 0 .06.018.083.018.023.049.032.078.038.401.081.82-.096 1.126-.368.307-.272.52-.63.73-.983l.36-.605c.222-.375-.301-.675-.628-.77-.402-.115-.624.3-.87.567"/>
        <g>
            <g transform="translate(6.612 14.365)">
                <mask id="h" fill="#fff">
                    <use xlink:href="#g"/>
                </mask>
                <path fill="#EAEAEF" d="M8.337 7.263c-.077-.162-.06-.494.12-.588.222-.117.504-.009.667.156.177.18.31.495.125.667a.408.408 0 0 1-.208.092c-.274.049-.585-.076-.704-.327" mask="url(#h)"/>
            </g>
            <g transform="translate(6.612 14.365)">
                <mask id="j" fill="#fff">
                    <use xlink:href="#i"/>
                </mask>
                <path fill="#EAEAEF" d="M11.84 6.362a.685.685 0 0 1 .526.436c.04.115.047.252-.026.35a.357.357 0 0 1-.19.119.606.606 0 0 1-.63-.2.609.609 0 0 1-.052-.66c.116-.067.24-.066.372-.045" mask="url(#j)"/>
            </g>
            <g transform="translate(6.612 14.365)">
                <mask id="l" fill="#fff">
                    <use xlink:href="#k"/>
                </mask>
                <path fill="#EAEAEF" d="M12.068 3.747c-.053-.192-.106-.396-.05-.587.055-.191.266-.35.45-.277.094.037.16.125.2.218.091.214.048.499-.146.628-.194.13-.518.009-.532-.224" mask="url(#l)"/>
            </g>
            <g transform="translate(6.612 14.365)">
                <mask id="n" fill="#fff">
                    <use xlink:href="#m"/>
                </mask>
                <path fill="#EAEAEF" d="M8.984 4.423a.499.499 0 0 0 .189.276c.158.105.373.065.544-.017.288-.14.531-.425.514-.745-.012-.226-.244-.508-.485-.502-.216.005-.522.079-.658.266-.14.19-.172.501-.104.722" mask="url(#n)"/>
            </g>
            <g transform="translate(6.612 14.365)">
                <mask id="p" fill="#fff">
                    <use xlink:href="#o"/>
                </mask>
                <path fill="#EAEAEF" d="M8.628 1.566a.764.764 0 0 1-.304.926c-.147.087-.344.116-.485.02a.491.491 0 0 1-.166-.238c-.11-.289-.101-.637-.016-.929a.282.282 0 0 1 .057-.117c.047-.05.122-.063.19-.07.304-.025.6.12.724.408" mask="url(#p)"/>
            </g>
            <g transform="translate(6.612 14.365)">
                <mask id="r" fill="#fff">
                    <use xlink:href="#q"/>
                </mask>
                <path fill="#EAEAEF" d="M4.788 2.089c.11.276.44.411.736.385a.512.512 0 0 0 .34-.143c.143-.158.092-.42-.048-.563-.163-.165-.624-.399-.856-.27-.155.086-.235.433-.172.59" mask="url(#r)"/>
            </g>
            <g transform="translate(6.612 14.365)">
                <mask id="t" fill="#fff">
                    <use xlink:href="#s"/>
                </mask>
                <path fill="#EAEAEF" d="M2.751 1.523c-.086-.456-.624-.262-.927-.2-.154.033-.288.038-.317.236-.023.155.086.307.225.379.14.072.302.081.46.08.132-.003.271-.014.383-.086a.409.409 0 0 0 .176-.41" mask="url(#t)"/>
            </g>
            <g transform="translate(6.612 14.365)">
                <mask id="v" fill="#fff">
                    <use xlink:href="#u"/>
                </mask>
                <path fill="#EAEAEF" d="M.913 5.094a.592.592 0 0 1-.03-.241c.046-.489.722-.195.93.003.219.209.253.633-.01.782-.168.095-.388.04-.538-.08a1.056 1.056 0 0 1-.352-.464" mask="url(#v)"/>
            </g>
            <g transform="translate(6.612 14.365)">
                <mask id="x" fill="#fff">
                    <use xlink:href="#w"/>
                </mask>
                <path fill="#EAEAEF" d="M3.791 4.507c.167.024.344.03.494-.047a.502.502 0 0 0 .254-.535.52.52 0 0 0-.685-.362.737.737 0 0 0-.282.224.762.762 0 0 0-.165.291c-.073.285.14.394.384.429" mask="url(#x)"/>
            </g>
            <g transform="translate(6.612 14.365)">
                <mask id="z" fill="#fff">
                    <use xlink:href="#y"/>
                </mask>
                <path fill="#EAEAEF" d="M3.418 7.616c.223-.028.358-.292.317-.513a.784.784 0 0 0-.427-.544c-.19-.08-.5-.048-.602.155a.52.52 0 0 0-.033.306.75.75 0 0 0 .108.307c.112.172.433.314.637.289" mask="url(#z)"/>
            </g>
            <g transform="translate(6.612 14.365)">
                <mask id="B" fill="#fff">
                    <use xlink:href="#A"/>
                </mask>
                <path fill="#EAEAEF" d="M4.97 7.334c.146.076.321.072.485.047.116-.017.245-.052.306-.153.073-.12.017-.278-.07-.388-.115-.143-.318-.378-.524-.35a.398.398 0 0 0-.257.168c-.145.195-.187.548.06.676" mask="url(#B)"/>
            </g>
            <g transform="translate(6.612 14.365)">
                <mask id="D" fill="#fff">
                    <use xlink:href="#C"/>
                </mask>
                <path fill="#EAEAEF" d="M6.5 4.404c.009.272.346.474.59.352.242-.122.283-.514.07-.683-.213-.17-.584-.042-.648.223" mask="url(#D)"/>
            </g>
            <g transform="translate(6.612 14.365)">
                <mask id="F" fill="#fff">
                    <use xlink:href="#E"/>
                </mask>
                <path fill="#EAEAEF" d="M7.112 9.176c-.09-.21-.064-.483.191-.56.204-.063.475.113.596.262.127.155.231.332.133.523-.076.147-.23.263-.4.254-.248-.012-.422-.25-.52-.479" mask="url(#F)"/>
            </g>
            <g transform="translate(6.612 14.365)">
                <mask id="H" fill="#fff">
                    <use xlink:href="#G"/>
                </mask>
                <path fill="#EAEAEF" d="M5.072 9.748c-.288.037-.97-.537-.479-.716.257-.093.74.052.782.357.024.172-.13.336-.303.359" mask="url(#H)"/>
            </g>
            <g transform="translate(6.612 14.365)">
                <mask id="J" fill="#fff">
                    <use xlink:href="#I"/>
                </mask>
                <path fill="#EAEAEF" d="M6.262 12.913c-.32-.034-.543-.335-.61-.627a.275.275 0 0 1 .015-.197.27.27 0 0 1 .078-.08.585.585 0 0 1 .542-.077c.14.053.218.239.296.36.058.091.118.19.117.298-.003.205-.235.345-.438.323" mask="url(#J)"/>
            </g>
            <g transform="translate(6.612 14.365)">
                <mask id="L" fill="#fff">
                    <use xlink:href="#K"/>
                </mask>
                <path fill="#EAEAEF" d="M8.786 11.661a.093.093 0 0 1 .01-.006c.16-.087.559-.044.693.087.187.185.21.522.025.717-.177.188-.52.187-.685-.012a.616.616 0 0 1-.117-.412c.002-.11-.033-.303.074-.374" mask="url(#L)"/>
            </g>
            <g transform="translate(6.612 14.365)">
                <mask id="N" fill="#fff">
                    <use xlink:href="#M"/>
                </mask>
                <path fill="#EAEAEF" d="M10.839 9.843c.161-.162.181-.422.134-.636-.05-.227-.37-.203-.555-.192a.525.525 0 0 0-.181.034c-.123.053-.2.255-.218.38a.5.5 0 0 0 .133.415c.18.18.507.179.687-.001" mask="url(#N)"/>
            </g>
            <g transform="translate(6.612 14.365)">
                <mask id="P" fill="#fff">
                    <use xlink:href="#O"/>
                </mask>
                <path fill="#EAEAEF" d="M13.631 9.673c.143-.217.07-.602-.184-.712-.22-.097-.604-.025-.699.217a.542.542 0 0 0 .148.608c.218.174.582.12.735-.113" mask="url(#P)"/>
            </g>
            <g transform="translate(6.612 14.365)">
                <mask id="R" fill="#fff">
                    <use xlink:href="#Q"/>
                </mask>
                <path fill="#EAEAEF" d="M11.988 11.85c.08.186.331.346.53.236.176-.099.085-.457.026-.606a.436.436 0 0 0-.078-.134c-.116-.125-.342-.308-.44-.091-.084.186-.12.407-.038.595" mask="url(#R)"/>
            </g>
            <g transform="translate(6.612 14.365)">
                <mask id="T" fill="#fff">
                    <use xlink:href="#S"/>
                </mask>
                <path fill="#EAEAEF" d="M11.849 13.99c.28-.319-.21-.968-.583-.937-.164.014-.297.152-.347.309-.106.338.17.731.521.769a.478.478 0 0 0 .409-.14" mask="url(#T)"/>
            </g>
            <g transform="translate(6.612 14.365)">
                <mask id="V" fill="#fff">
                    <use xlink:href="#U"/>
                </mask>
                <path fill="#EAEAEF" d="M7.48 14.193c.099-.224-.08-.51-.32-.552-.242-.041-.49.136-.564.37-.055.17-.014.386.139.48.08.047.176.057.27.055.179-.004.37-.058.48-.2.109-.143.086-.39-.077-.464" mask="url(#V)"/>
            </g>
            <g transform="translate(6.612 14.365)">
                <mask id="X" fill="#fff">
                    <use xlink:href="#W"/>
                </mask>
                <path fill="#EAEAEF" d="M4.106 14.517c.12-.093.113-.216.082-.344-.031-.129-.032-.288-.134-.388-.088-.087-.233-.136-.35-.087-.104.043-.17.149-.2.257a.534.534 0 0 0 .11.508c.125.13.35.165.492.054" mask="url(#X)"/>
            </g>
            <g transform="translate(6.612 14.365)">
                <mask id="Z" fill="#fff">
                    <use xlink:href="#Y"/>
                </mask>
                <path fill="#EAEAEF" d="M3.085 11.95c-.194-.194-.296-.466-.01-.613.24-.124.538-.07.756.078.16.107.27.309.22.495-.052.188-.26.305-.455.298-.195-.009-.374-.119-.511-.257" mask="url(#Z)"/>
            </g>
        </g>
        <path fill="#D1D2D4" d="M.226 4.832c.824 2.066.973 4.395.421 6.55 2.717.207 5.286 1.84 6.63 4.214a69.057 69.057 0 0 1 8.914-.413c.198.004.4.008.59-.05.182-.054.342-.162.502-.266a19.648 19.648 0 0 1 6.31-2.692c-.05-1.473-.08-2.947-.09-4.42-.005-.787.003-1.607.355-2.311A11.743 11.743 0 0 1 17.47.773c-.075-.112-.155-.231-.28-.283-.112-.046-.239-.029-.359-.011A28.986 28.986 0 0 1 9.104.56C8.616.5 7.784.187 7.314.32c-.393.11-.785.685-1.076.958-.817.769-1.668 1.51-2.604 2.13-1.033.685-2.178 1.22-3.408 1.424"/>
        <g transform="translate(0 .138)">
            <mask id="ab" fill="#fff">
                <use xlink:href="#aa"/>
            </mask>
            <path fill="#B1B1B2" d="M26.656 12.185c-4.047-1.015-7.705-2.793-11.211-5.031-.82-.524-1.612-1.02-2.353-1.57a52.938 52.938 0 0 1 11.918-.09c.47.05.466-.686 0-.735a53.45 53.45 0 0 0-11.845.08C14.39 3.17 15.69 1.547 16.92-.101c.283-.379-.354-.746-.635-.37-1.327 1.777-2.756 3.529-4.07 5.348a10.163 10.163 0 0 1-1.406-1.494 21.09 21.09 0 0 0-3.65-3.76c-.367-.293-.89.225-.52.52 1.536 1.225 2.735 2.616 3.943 4.156.223.282.465.54.717.786-2.014.448-3.763 1.1-5.503 2.356-2.03 1.465-4 3.01-5.917 4.62-.363.304.16.822.52.52 1.87-1.569 3.789-3.076 5.768-4.504 1.702-1.228 3.434-1.865 5.41-2.3a33.91 33.91 0 0 0-1.391 2.18c-.829 1.424-1.52 2.926-2.197 4.425-.617 1.363-1.14 2.72-1.103 4.237.012.473.747.474.735 0-.044-1.768.743-3.32 1.47-4.886.663-1.425 1.35-2.844 2.195-4.172.277-.435.567-.864.86-1.29.413 1.884 1.894 3.348 2.865 4.98 1.385 2.332 2.388 4.859 3.336 7.392.164.44.875.25.708-.195-.815-2.18-1.667-4.353-2.76-6.41a26.45 26.45 0 0 0-1.847-2.983c-.602-.84-1.243-1.667-1.527-2.653.7.483 1.432.927 2.154 1.387 3.56 2.273 7.278 4.074 11.387 5.106.458.115.654-.595.195-.71" mask="url(#ab)"/>
        </g>
    </g>
</svg>
