<svg xmlns="http://www.w3.org/2000/svg" xmlns:xlink="http://www.w3.org/1999/xlink" width="27" height="36" viewBox="0 0 27 36">
    <defs>
        <path id="a" d="M.084.04h5.754v5.69H.084z"/>
        <path id="c" d="M6.113.278C5.078.553 4.42 1.688 3.93 2.536 2.8 4.753 2.524 7.284 1.918 9.694 1.386 11.808.594 13.85.084 15.968c-.13.542-.167 1.257.336 1.504.533.26 1.098-.272 1.442-.753.449-.63.884-1.277 1.167-1.995.282-.714.407-1.477.584-2.224.365-1.54.957-3.017 1.545-4.487-.092 1.707-.9 3.306-1.07 5.007-.091.916.004 1.84.1 2.754l.263 2.532c.051.49.102.98.202 1.463.128.61.334 1.205.611 1.764.11.222.239.445.44.589.261.184.6.207.92.219 1.205.043 2.413.02 3.616-.07.628-.048 1.284-.124 1.808-.472.729-.485 1.042-1.389 1.211-2.244.43-2.166.24-4.412.588-6.593.18-1.126.504-2.231.589-3.368.186-2.476-.77-4.902-1.98-7.075-.476-.853-1.072-1.748-2.01-2.037-.364-.112-.75-.122-1.131-.13C8.633.334 7.777.18 7.004.18a3.5 3.5 0 0 0-.89.098"/>
        <path id="e" d="M6.113.278C5.078.553 4.42 1.688 3.93 2.536 2.8 4.753 2.524 7.284 1.918 9.694 1.386 11.808.594 13.85.084 15.968c-.13.542-.167 1.257.336 1.504.533.26 1.098-.272 1.442-.753.449-.63.884-1.277 1.167-1.995.282-.714.407-1.477.584-2.224.365-1.54.957-3.017 1.545-4.487-.092 1.707-.9 3.306-1.07 5.007-.091.916.004 1.84.1 2.754l.263 2.532c.051.49.102.98.202 1.463.128.61.334 1.205.611 1.764.11.222.239.445.44.589.261.184.6.207.92.219 1.205.043 2.413.02 3.616-.07.628-.048 1.284-.124 1.808-.472.729-.485 1.042-1.389 1.211-2.244.43-2.166.24-4.412.588-6.593.18-1.126.504-2.231.589-3.368.186-2.476-.77-4.902-1.98-7.075-.476-.853-1.072-1.748-2.01-2.037-.364-.112-.75-.122-1.131-.13C8.633.334 7.777.18 7.004.18a3.5 3.5 0 0 0-.89.098"/>
        <path id="g" d="M6.113.278C5.078.553 4.42 1.688 3.93 2.536 2.8 4.753 2.524 7.284 1.918 9.694 1.386 11.808.594 13.85.084 15.968c-.13.542-.167 1.257.336 1.504.533.26 1.098-.272 1.442-.753.449-.63.884-1.277 1.167-1.995.282-.714.407-1.477.584-2.224.365-1.54.957-3.017 1.545-4.487-.092 1.707-.9 3.306-1.07 5.007-.091.916.004 1.84.1 2.754l.263 2.532c.051.49.102.98.202 1.463.128.61.334 1.205.611 1.764.11.222.239.445.44.589.261.184.6.207.92.219 1.205.043 2.413.02 3.616-.07.628-.048 1.284-.124 1.808-.472.729-.485 1.042-1.389 1.211-2.244.43-2.166.24-4.412.588-6.593.18-1.126.504-2.231.589-3.368.186-2.476-.77-4.902-1.98-7.075-.476-.853-1.072-1.748-2.01-2.037-.364-.112-.75-.122-1.131-.13C8.633.334 7.777.18 7.004.18a3.5 3.5 0 0 0-.89.098"/>
        <path id="i" d="M6.113.278C5.078.553 4.42 1.688 3.93 2.536 2.8 4.753 2.524 7.284 1.918 9.694 1.386 11.808.594 13.85.084 15.968c-.13.542-.167 1.257.336 1.504.533.26 1.098-.272 1.442-.753.449-.63.884-1.277 1.167-1.995.282-.714.407-1.477.584-2.224.365-1.54.957-3.017 1.545-4.487-.092 1.707-.9 3.306-1.07 5.007-.091.916.004 1.84.1 2.754l.263 2.532c.051.49.102.98.202 1.463.128.61.334 1.205.611 1.764.11.222.239.445.44.589.261.184.6.207.92.219 1.205.043 2.413.02 3.616-.07.628-.048 1.284-.124 1.808-.472.729-.485 1.042-1.389 1.211-2.244.43-2.166.24-4.412.588-6.593.18-1.126.504-2.231.589-3.368.186-2.476-.77-4.902-1.98-7.075-.476-.853-1.072-1.748-2.01-2.037-.364-.112-.75-.122-1.131-.13C8.633.334 7.777.18 7.004.18a3.5 3.5 0 0 0-.89.098"/>
        <path id="k" d="M6.113.278C5.078.553 4.42 1.688 3.93 2.536 2.8 4.753 2.524 7.284 1.918 9.694 1.386 11.808.594 13.85.084 15.968c-.13.542-.167 1.257.336 1.504.533.26 1.098-.272 1.442-.753.449-.63.884-1.277 1.167-1.995.282-.714.407-1.477.584-2.224.365-1.54.957-3.017 1.545-4.487-.092 1.707-.9 3.306-1.07 5.007-.091.916.004 1.84.1 2.754l.263 2.532c.051.49.102.98.202 1.463.128.61.334 1.205.611 1.764.11.222.239.445.44.589.261.184.6.207.92.219 1.205.043 2.413.02 3.616-.07.628-.048 1.284-.124 1.808-.472.729-.485 1.042-1.389 1.211-2.244.43-2.166.24-4.412.588-6.593.18-1.126.504-2.231.589-3.368.186-2.476-.77-4.902-1.98-7.075-.476-.853-1.072-1.748-2.01-2.037-.364-.112-.75-.122-1.131-.13C8.633.334 7.777.18 7.004.18a3.5 3.5 0 0 0-.89.098"/>
        <path id="m" d="M6.113.278C5.078.553 4.42 1.688 3.93 2.536 2.8 4.753 2.524 7.284 1.918 9.694 1.386 11.808.594 13.85.084 15.968c-.13.542-.167 1.257.336 1.504.533.26 1.098-.272 1.442-.753.449-.63.884-1.277 1.167-1.995.282-.714.407-1.477.584-2.224.365-1.54.957-3.017 1.545-4.487-.092 1.707-.9 3.306-1.07 5.007-.091.916.004 1.84.1 2.754l.263 2.532c.051.49.102.98.202 1.463.128.61.334 1.205.611 1.764.11.222.239.445.44.589.261.184.6.207.92.219 1.205.043 2.413.02 3.616-.07.628-.048 1.284-.124 1.808-.472.729-.485 1.042-1.389 1.211-2.244.43-2.166.24-4.412.588-6.593.18-1.126.504-2.231.589-3.368.186-2.476-.77-4.902-1.98-7.075-.476-.853-1.072-1.748-2.01-2.037-.364-.112-.75-.122-1.131-.13C8.633.334 7.777.18 7.004.18a3.5 3.5 0 0 0-.89.098"/>
        <path id="o" d="M6.113.278C5.078.553 4.42 1.688 3.93 2.536 2.8 4.753 2.524 7.284 1.918 9.694 1.386 11.808.594 13.85.084 15.968c-.13.542-.167 1.257.336 1.504.533.26 1.098-.272 1.442-.753.449-.63.884-1.277 1.167-1.995.282-.714.407-1.477.584-2.224.365-1.54.957-3.017 1.545-4.487-.092 1.707-.9 3.306-1.07 5.007-.091.916.004 1.84.1 2.754l.263 2.532c.051.49.102.98.202 1.463.128.61.334 1.205.611 1.764.11.222.239.445.44.589.261.184.6.207.92.219 1.205.043 2.413.02 3.616-.07.628-.048 1.284-.124 1.808-.472.729-.485 1.042-1.389 1.211-2.244.43-2.166.24-4.412.588-6.593.18-1.126.504-2.231.589-3.368.186-2.476-.77-4.902-1.98-7.075-.476-.853-1.072-1.748-2.01-2.037-.364-.112-.75-.122-1.131-.13C8.633.334 7.777.18 7.004.18a3.5 3.5 0 0 0-.89.098"/>
        <path id="q" d="M6.113.278C5.078.553 4.42 1.688 3.93 2.536 2.8 4.753 2.524 7.284 1.918 9.694 1.386 11.808.594 13.85.084 15.968c-.13.542-.167 1.257.336 1.504.533.26 1.098-.272 1.442-.753.449-.63.884-1.277 1.167-1.995.282-.714.407-1.477.584-2.224.365-1.54.957-3.017 1.545-4.487-.092 1.707-.9 3.306-1.07 5.007-.091.916.004 1.84.1 2.754l.263 2.532c.051.49.102.98.202 1.463.128.61.334 1.205.611 1.764.11.222.239.445.44.589.261.184.6.207.92.219 1.205.043 2.413.02 3.616-.07.628-.048 1.284-.124 1.808-.472.729-.485 1.042-1.389 1.211-2.244.43-2.166.24-4.412.588-6.593.18-1.126.504-2.231.589-3.368.186-2.476-.77-4.902-1.98-7.075-.476-.853-1.072-1.748-2.01-2.037-.364-.112-.75-.122-1.131-.13C8.633.334 7.777.18 7.004.18a3.5 3.5 0 0 0-.89.098"/>
        <path id="s" d="M6.113.278C5.078.553 4.42 1.688 3.93 2.536 2.8 4.753 2.524 7.284 1.918 9.694 1.386 11.808.594 13.85.084 15.968c-.13.542-.167 1.257.336 1.504.533.26 1.098-.272 1.442-.753.449-.63.884-1.277 1.167-1.995.282-.714.407-1.477.584-2.224.365-1.54.957-3.017 1.545-4.487-.092 1.707-.9 3.306-1.07 5.007-.091.916.004 1.84.1 2.754l.263 2.532c.051.49.102.98.202 1.463.128.61.334 1.205.611 1.764.11.222.239.445.44.589.261.184.6.207.92.219 1.205.043 2.413.02 3.616-.07.628-.048 1.284-.124 1.808-.472.729-.485 1.042-1.389 1.211-2.244.43-2.166.24-4.412.588-6.593.18-1.126.504-2.231.589-3.368.186-2.476-.77-4.902-1.98-7.075-.476-.853-1.072-1.748-2.01-2.037-.364-.112-.75-.122-1.131-.13C8.633.334 7.777.18 7.004.18a3.5 3.5 0 0 0-.89.098"/>
        <path id="u" d="M6.113.278C5.078.553 4.42 1.688 3.93 2.536 2.8 4.753 2.524 7.284 1.918 9.694 1.386 11.808.594 13.85.084 15.968c-.13.542-.167 1.257.336 1.504.533.26 1.098-.272 1.442-.753.449-.63.884-1.277 1.167-1.995.282-.714.407-1.477.584-2.224.365-1.54.957-3.017 1.545-4.487-.092 1.707-.9 3.306-1.07 5.007-.091.916.004 1.84.1 2.754l.263 2.532c.051.49.102.98.202 1.463.128.61.334 1.205.611 1.764.11.222.239.445.44.589.261.184.6.207.92.219 1.205.043 2.413.02 3.616-.07.628-.048 1.284-.124 1.808-.472.729-.485 1.042-1.389 1.211-2.244.43-2.166.24-4.412.588-6.593.18-1.126.504-2.231.589-3.368.186-2.476-.77-4.902-1.98-7.075-.476-.853-1.072-1.748-2.01-2.037-.364-.112-.75-.122-1.131-.13C8.633.334 7.777.18 7.004.18a3.5 3.5 0 0 0-.89.098"/>
        <path id="w" d="M6.113.278C5.078.553 4.42 1.688 3.93 2.536 2.8 4.753 2.524 7.284 1.918 9.694 1.386 11.808.594 13.85.084 15.968c-.13.542-.167 1.257.336 1.504.533.26 1.098-.272 1.442-.753.449-.63.884-1.277 1.167-1.995.282-.714.407-1.477.584-2.224.365-1.54.957-3.017 1.545-4.487-.092 1.707-.9 3.306-1.07 5.007-.091.916.004 1.84.1 2.754l.263 2.532c.051.49.102.98.202 1.463.128.61.334 1.205.611 1.764.11.222.239.445.44.589.261.184.6.207.92.219 1.205.043 2.413.02 3.616-.07.628-.048 1.284-.124 1.808-.472.729-.485 1.042-1.389 1.211-2.244.43-2.166.24-4.412.588-6.593.18-1.126.504-2.231.589-3.368.186-2.476-.77-4.902-1.98-7.075-.476-.853-1.072-1.748-2.01-2.037-.364-.112-.75-.122-1.131-.13C8.633.334 7.777.18 7.004.18a3.5 3.5 0 0 0-.89.098"/>
        <path id="y" d="M6.113.278C5.078.553 4.42 1.688 3.93 2.536 2.8 4.753 2.524 7.284 1.918 9.694 1.386 11.808.594 13.85.084 15.968c-.13.542-.167 1.257.336 1.504.533.26 1.098-.272 1.442-.753.449-.63.884-1.277 1.167-1.995.282-.714.407-1.477.584-2.224.365-1.54.957-3.017 1.545-4.487-.092 1.707-.9 3.306-1.07 5.007-.091.916.004 1.84.1 2.754l.263 2.532c.051.49.102.98.202 1.463.128.61.334 1.205.611 1.764.11.222.239.445.44.589.261.184.6.207.92.219 1.205.043 2.413.02 3.616-.07.628-.048 1.284-.124 1.808-.472.729-.485 1.042-1.389 1.211-2.244.43-2.166.24-4.412.588-6.593.18-1.126.504-2.231.589-3.368.186-2.476-.77-4.902-1.98-7.075-.476-.853-1.072-1.748-2.01-2.037-.364-.112-.75-.122-1.131-.13C8.633.334 7.777.18 7.004.18a3.5 3.5 0 0 0-.89.098"/>
        <path id="A" d="M6.113.278C5.078.553 4.42 1.688 3.93 2.536 2.8 4.753 2.524 7.284 1.918 9.694 1.386 11.808.594 13.85.084 15.968c-.13.542-.167 1.257.336 1.504.533.26 1.098-.272 1.442-.753.449-.63.884-1.277 1.167-1.995.282-.714.407-1.477.584-2.224.365-1.54.957-3.017 1.545-4.487-.092 1.707-.9 3.306-1.07 5.007-.091.916.004 1.84.1 2.754l.263 2.532c.051.49.102.98.202 1.463.128.61.334 1.205.611 1.764.11.222.239.445.44.589.261.184.6.207.92.219 1.205.043 2.413.02 3.616-.07.628-.048 1.284-.124 1.808-.472.729-.485 1.042-1.389 1.211-2.244.43-2.166.24-4.412.588-6.593.18-1.126.504-2.231.589-3.368.186-2.476-.77-4.902-1.98-7.075-.476-.853-1.072-1.748-2.01-2.037-.364-.112-.75-.122-1.131-.13C8.633.334 7.777.18 7.004.18a3.5 3.5 0 0 0-.89.098"/>
        <path id="C" d="M6.113.278C5.078.553 4.42 1.688 3.93 2.536 2.8 4.753 2.524 7.284 1.918 9.694 1.386 11.808.594 13.85.084 15.968c-.13.542-.167 1.257.336 1.504.533.26 1.098-.272 1.442-.753.449-.63.884-1.277 1.167-1.995.282-.714.407-1.477.584-2.224.365-1.54.957-3.017 1.545-4.487-.092 1.707-.9 3.306-1.07 5.007-.091.916.004 1.84.1 2.754l.263 2.532c.051.49.102.98.202 1.463.128.61.334 1.205.611 1.764.11.222.239.445.44.589.261.184.6.207.92.219 1.205.043 2.413.02 3.616-.07.628-.048 1.284-.124 1.808-.472.729-.485 1.042-1.389 1.211-2.244.43-2.166.24-4.412.588-6.593.18-1.126.504-2.231.589-3.368.186-2.476-.77-4.902-1.98-7.075-.476-.853-1.072-1.748-2.01-2.037-.364-.112-.75-.122-1.131-.13C8.633.334 7.777.18 7.004.18a3.5 3.5 0 0 0-.89.098"/>
        <path id="E" d="M6.113.278C5.078.553 4.42 1.688 3.93 2.536 2.8 4.753 2.524 7.284 1.918 9.694 1.386 11.808.594 13.85.084 15.968c-.13.542-.167 1.257.336 1.504.533.26 1.098-.272 1.442-.753.449-.63.884-1.277 1.167-1.995.282-.714.407-1.477.584-2.224.365-1.54.957-3.017 1.545-4.487-.092 1.707-.9 3.306-1.07 5.007-.091.916.004 1.84.1 2.754l.263 2.532c.051.49.102.98.202 1.463.128.61.334 1.205.611 1.764.11.222.239.445.44.589.261.184.6.207.92.219 1.205.043 2.413.02 3.616-.07.628-.048 1.284-.124 1.808-.472.729-.485 1.042-1.389 1.211-2.244.43-2.166.24-4.412.588-6.593.18-1.126.504-2.231.589-3.368.186-2.476-.77-4.902-1.98-7.075-.476-.853-1.072-1.748-2.01-2.037-.364-.112-.75-.122-1.131-.13C8.633.334 7.777.18 7.004.18a3.5 3.5 0 0 0-.89.098"/>
        <path id="G" d="M6.113.278C5.078.553 4.42 1.688 3.93 2.536 2.8 4.753 2.524 7.284 1.918 9.694 1.386 11.808.594 13.85.084 15.968c-.13.542-.167 1.257.336 1.504.533.26 1.098-.272 1.442-.753.449-.63.884-1.277 1.167-1.995.282-.714.407-1.477.584-2.224.365-1.54.957-3.017 1.545-4.487-.092 1.707-.9 3.306-1.07 5.007-.091.916.004 1.84.1 2.754l.263 2.532c.051.49.102.98.202 1.463.128.61.334 1.205.611 1.764.11.222.239.445.44.589.261.184.6.207.92.219 1.205.043 2.413.02 3.616-.07.628-.048 1.284-.124 1.808-.472.729-.485 1.042-1.389 1.211-2.244.43-2.166.24-4.412.588-6.593.18-1.126.504-2.231.589-3.368.186-2.476-.77-4.902-1.98-7.075-.476-.853-1.072-1.748-2.01-2.037-.364-.112-.75-.122-1.131-.13C8.633.334 7.777.18 7.004.18a3.5 3.5 0 0 0-.89.098"/>
        <path id="I" d="M6.113.278C5.078.553 4.42 1.688 3.93 2.536 2.8 4.753 2.524 7.284 1.918 9.694 1.386 11.808.594 13.85.084 15.968c-.13.542-.167 1.257.336 1.504.533.26 1.098-.272 1.442-.753.449-.63.884-1.277 1.167-1.995.282-.714.407-1.477.584-2.224.365-1.54.957-3.017 1.545-4.487-.092 1.707-.9 3.306-1.07 5.007-.091.916.004 1.84.1 2.754l.263 2.532c.051.49.102.98.202 1.463.128.61.334 1.205.611 1.764.11.222.239.445.44.589.261.184.6.207.92.219 1.205.043 2.413.02 3.616-.07.628-.048 1.284-.124 1.808-.472.729-.485 1.042-1.389 1.211-2.244.43-2.166.24-4.412.588-6.593.18-1.126.504-2.231.589-3.368.186-2.476-.77-4.902-1.98-7.075-.476-.853-1.072-1.748-2.01-2.037-.364-.112-.75-.122-1.131-.13C8.633.334 7.777.18 7.004.18a3.5 3.5 0 0 0-.89.098"/>
        <path id="K" d="M6.113.278C5.078.553 4.42 1.688 3.93 2.536 2.8 4.753 2.524 7.284 1.918 9.694 1.386 11.808.594 13.85.084 15.968c-.13.542-.167 1.257.336 1.504.533.26 1.098-.272 1.442-.753.449-.63.884-1.277 1.167-1.995.282-.714.407-1.477.584-2.224.365-1.54.957-3.017 1.545-4.487-.092 1.707-.9 3.306-1.07 5.007-.091.916.004 1.84.1 2.754l.263 2.532c.051.49.102.98.202 1.463.128.61.334 1.205.611 1.764.11.222.239.445.44.589.261.184.6.207.92.219 1.205.043 2.413.02 3.616-.07.628-.048 1.284-.124 1.808-.472.729-.485 1.042-1.389 1.211-2.244.43-2.166.24-4.412.588-6.593.18-1.126.504-2.231.589-3.368.186-2.476-.77-4.902-1.98-7.075-.476-.853-1.072-1.748-2.01-2.037-.364-.112-.75-.122-1.131-.13C8.633.334 7.777.18 7.004.18a3.5 3.5 0 0 0-.89.098"/>
        <path id="M" d="M6.113.278C5.078.553 4.42 1.688 3.93 2.536 2.8 4.753 2.524 7.284 1.918 9.694 1.386 11.808.594 13.85.084 15.968c-.13.542-.167 1.257.336 1.504.533.26 1.098-.272 1.442-.753.449-.63.884-1.277 1.167-1.995.282-.714.407-1.477.584-2.224.365-1.54.957-3.017 1.545-4.487-.092 1.707-.9 3.306-1.07 5.007-.091.916.004 1.84.1 2.754l.263 2.532c.051.49.102.98.202 1.463.128.61.334 1.205.611 1.764.11.222.239.445.44.589.261.184.6.207.92.219 1.205.043 2.413.02 3.616-.07.628-.048 1.284-.124 1.808-.472.729-.485 1.042-1.389 1.211-2.244.43-2.166.24-4.412.588-6.593.18-1.126.504-2.231.589-3.368.186-2.476-.77-4.902-1.98-7.075-.476-.853-1.072-1.748-2.01-2.037-.364-.112-.75-.122-1.131-.13C8.633.334 7.777.18 7.004.18a3.5 3.5 0 0 0-.89.098"/>
        <path id="O" d="M6.113.278C5.078.553 4.42 1.688 3.93 2.536 2.8 4.753 2.524 7.284 1.918 9.694 1.386 11.808.594 13.85.084 15.968c-.13.542-.167 1.257.336 1.504.533.26 1.098-.272 1.442-.753.449-.63.884-1.277 1.167-1.995.282-.714.407-1.477.584-2.224.365-1.54.957-3.017 1.545-4.487-.092 1.707-.9 3.306-1.07 5.007-.091.916.004 1.84.1 2.754l.263 2.532c.051.49.102.98.202 1.463.128.61.334 1.205.611 1.764.11.222.239.445.44.589.261.184.6.207.92.219 1.205.043 2.413.02 3.616-.07.628-.048 1.284-.124 1.808-.472.729-.485 1.042-1.389 1.211-2.244.43-2.166.24-4.412.588-6.593.18-1.126.504-2.231.589-3.368.186-2.476-.77-4.902-1.98-7.075-.476-.853-1.072-1.748-2.01-2.037-.364-.112-.75-.122-1.131-.13C8.633.334 7.777.18 7.004.18a3.5 3.5 0 0 0-.89.098"/>
    </defs>
    <g fill="none" fill-rule="evenodd">
        <path fill="#A9ADB5" d="M9.907 34.183c.227.106.286.394.317.641a.398.398 0 0 1-.01.207c-.04.09-.136.139-.225.179a11.538 11.538 0 0 1-1.57.573.404.404 0 0 1-.19.022.412.412 0 0 1-.175-.105c-.51-.436-.968-1.04-.181-1.438.532-.27 1.485-.333 2.034-.079M12.458 34.534c.407.05.85.276.925.676a.33.33 0 0 1-.002.156.365.365 0 0 1-.092.142c-.314.33-.808.398-1.263.439a1.71 1.71 0 0 1-.377.004.888.888 0 0 1-.709-.586c-.36-1.088.873-.912 1.518-.831"/>
        <path fill="#BF9D95" d="M23.87 32.722c.205.077.307.33.257.543-.05.213-.22.382-.415.483-.195.101-.414.144-.63.187l-.332.064c-.619.121-.854-.571-.408-.95.267-.228 1.217-.443 1.527-.327M18.466 33.87l1.082-.227c.038-.008.079-.016.113.001.022.01.039.03.053.05a.569.569 0 0 1 .03.61c-.078.132-.207.226-.334.313-.204.14-.42.273-.664.313-.244.04-.523-.034-.66-.238-.136-.205-.06-.538.177-.61.08-.025.17-.02.24-.068"/>
        <path fill="#071E1C" d="M18.045 34.142c.007.077.018.162.075.214.083.075.214.043.32.007l.331-.113c.079-.027.162-.056.213-.121.07-.09.057-.215.05-.329-.039-.61.182-1.203.27-1.808.096-.656.037-1.324-.023-1.984-.382-.009-.954.014-1.29.222-.353.218-.243.534-.21.911l.264 3M22.24 33.398c.244-.062.48-.154.701-.274a.543.543 0 0 0 .175-.13c.125-.16.06-.388-.006-.579-.364-1.064-.48-2.125-.576-3.234-.667.067-1.048.505-.936 1.159.176 1.024.473 2.03.643 3.058"/>
        <path fill="#516660" d="M10.87 35.01c.442.14.942-.043 1.266-.372.324-.33.494-.78.58-1.233.145-.759.077-1.54-.005-2.31a71.619 71.619 0 0 0-.43-3.308c-.019-.126-.053-.272-.169-.326-.069-.032-.15-.023-.224-.012-.46.066-1.631.042-1.641.618-.005.29.28.726.364 1.011.114.382.198.773.26 1.166.245 1.577.125 3.185 0 4.767M8.853 33.857c-.082.225-.179.454-.353.618-.193.182-.46.265-.725.291-.12.012-.253.01-.35-.064-.106-.08-.139-.223-.164-.354-.324-1.673-.649-3.354-.692-5.057-.01-.388-.004-.785.132-1.15a.559.559 0 0 1 .186-.276c.097-.067.221-.078.34-.087.546-.04 1.364-.324 1.682.194.311.507.37 1.372.429 1.95.136 1.32-.017 2.69-.485 3.935"/>
        <path fill="#856F60" d="M8.773 1.734c.094-.142.248-.256.419-.256.186 0 .351.137.435.302.084.165.1.355.107.54a5.573 5.573 0 0 1-.915 3.228c-.14.212-.297.417-.504.565-.207.148-.453.23-.7.297-.418.112-.857.18-1.287.117-.43-.064-.85-.271-1.1-.624a.289.289 0 0 1-.06-.124c-.02-.149.152-.242.293-.296.938-.363 1.666-.961 2.347-1.681.208-.22.418-.404.535-.688.178-.437.166-.981.43-1.38"/>
        <g transform="translate(3.399 .147)">
            <mask id="b" fill="#fff">
                <use xlink:href="#a"/>
            </mask>
            <path fill="#E1846A" d="M4.743.754c-.52-.245-1.1-.326-1.665-.44C2.28.152 1.458-.079.668.11a.5.5 0 0 0-.2.083.517.517 0 0 0-.144.235c-.273.73-.301 1.54-.144 2.304.157.764.493 1.484.924 2.136.239.361.54.725.96.83.354.089.728-.024 1.051-.19.324-.165.618-.384.95-.533.226-.102.47-.172.67-.318.249-.18.403-.459.549-.728.301-.554.565-.975.553-1.612-.013-.744-.451-1.23-1.094-1.564" mask="url(#b)"/>
        </g>
        <path fill="#E0A16C" d="M14.105 8.413c-1.341 2.827-.736 6.14-1.067 9.247-.071.665-.181 1.368.09 1.981s1.109 1.028 1.64.616a22.386 22.386 0 0 0-.075 8.909c.09.457.216.949.584 1.237.395.308.948.291 1.449.25a47.343 47.343 0 0 0 4.306-.542c.715-.124 1.488-.299 1.946-.859.275-.336.396-.768.505-1.187a62.722 62.722 0 0 0 1.518-7.773c-.13.66.765 1.248 1.326.874.456-.305.513-.939.516-1.485a49.126 49.126 0 0 0-.825-9.178c-.309-1.662-.837-3.494-2.314-4.332-1.638-.928-3.63-.264-5.382-.159-1.916.116-3.322.516-4.217 2.401"/>
        <path fill="#071E1C" d="M16.107 4.73c-.054 1.037.102 2.108.616 3.013a17.37 17.37 0 0 1 3.02-.31c.147-.002.296-.002.438-.04a1.71 1.71 0 0 0 .43-.205c.68-.407 1.405-.864 1.693-1.599.618-1.572.04-5.096-2.025-5.28-2.485-.221-4.058 2.27-4.172 4.42"/>
        <path fill="#CAD6E3" d="M3.93 8.308c-1.129 2.217-1.406 4.749-2.012 7.159C1.386 17.58.594 19.622.084 21.74c-.13.541-.167 1.257.336 1.503.533.261 1.099-.272 1.442-.753.449-.63.884-1.277 1.167-1.994.282-.714.407-1.478.584-2.224.365-1.54.957-3.017 1.545-4.487-.092 1.706-.9 3.306-1.07 5.007-.091.915.004 1.839.1 2.754l.263 2.531c.051.49.102.981.203 1.463.127.61.332 1.205.61 1.765.11.221.238.445.44.588.261.185.6.207.92.22a32.49 32.49 0 0 0 3.616-.071c.628-.048 1.284-.123 1.808-.472.729-.485 1.042-1.388 1.211-2.243.43-2.167.24-4.413.588-6.594.18-1.126.504-2.23.589-3.368.186-2.476-.77-4.902-1.98-7.075-.476-.853-1.072-1.747-2.01-2.037-.364-.112-.75-.121-1.131-.13C8.354 6.1 7.048 5.8 6.113 6.05 5.078 6.326 4.42 7.46 3.93 8.308"/>
        <g>
            <g transform="translate(0 5.772)">
                <mask id="d" fill="#fff">
                    <use xlink:href="#c"/>
                </mask>
                <path fill="#909CA9" d="M6.249 5.56c-.958-.857-2.265-.568-3.435-.445-.362.038-.244.588.115.55.918-.096 2.135-.412 2.9.273.268.24.691-.134.42-.377" mask="url(#d)"/>
            </g>
            <g transform="translate(0 5.772)">
                <mask id="f" fill="#fff">
                    <use xlink:href="#e"/>
                </mask>
                <path fill="#909CA9" d="M6.561 4.99c-.18-1.344-2.234-1.024-2.95-1.854-.237-.275-.658.102-.42.377.336.39.787.574 1.272.715.469.137 1.462.269 1.544.877.047.36.602.242.554-.115" mask="url(#f)"/>
            </g>
            <g transform="translate(0 5.772)">
                <mask id="h" fill="#fff">
                    <use xlink:href="#g"/>
                </mask>
                <path fill="#909CA9" d="M5.493 7.06a4.004 4.004 0 0 0-1.454-.503c-.653-.087-1.265.116-1.913.094-.364-.012-.4.55-.035.562.52.017 1.02-.134 1.539-.124.554.011 1.073.17 1.553.442.316.178.628-.292.31-.471" mask="url(#h)"/>
            </g>
            <g transform="translate(0 5.772)">
                <mask id="j" fill="#fff">
                    <use xlink:href="#i"/>
                </mask>
                <path fill="#909CA9" d="M4.933 9.077c-.637-1.23-1.997-1.004-3.181-.989-.363.005-.4.567-.036.562.915-.012 2.209-.289 2.713.684.167.321.671.065.504-.257" mask="url(#j)"/>
            </g>
            <g transform="translate(0 5.772)">
                <mask id="l" fill="#fff">
                    <use xlink:href="#k"/>
                </mask>
                <path fill="#909CA9" d="M4.559 10.283c-.55-1.205-1.99-.793-3.024-.78-.362.005-.4.566-.035.561.781-.01 2.13-.454 2.555.476.15.33.655.073.504-.257" mask="url(#l)"/>
            </g>
            <g transform="translate(0 5.772)">
                <mask id="n" fill="#fff">
                    <use xlink:href="#m"/>
                </mask>
                <path fill="#909CA9" d="M3.879 12.221c-.704-.532-1.41-1.43-2.412-1.082-.339.119-.228.671.116.551.808-.282 1.419.573 1.986 1.002.29.22.599-.252.31-.47" mask="url(#n)"/>
            </g>
            <g transform="translate(0 5.772)">
                <mask id="p" fill="#fff">
                    <use xlink:href="#o"/>
                </mask>
                <path fill="#909CA9" d="M3.245 14.05a2.622 2.622 0 0 0-2.198-1.472c-.364-.023-.4.538-.035.562.755.047 1.404.49 1.73 1.167.156.326.66.07.503-.257" mask="url(#p)"/>
            </g>
            <g transform="translate(0 5.772)">
                <mask id="r" fill="#fff">
                    <use xlink:href="#q"/>
                </mask>
                <path fill="#909CA9" d="M2.788 15.227c-.687-.418-1.385-.957-2.159-1.203-.347-.11-.527.423-.18.533.723.23 1.386.75 2.029 1.14.31.19.622-.28.31-.47" mask="url(#r)"/>
            </g>
            <g transform="translate(0 5.772)">
                <mask id="t" fill="#fff">
                    <use xlink:href="#s"/>
                </mask>
                <path fill="#909CA9" d="M12.538 2.534c-.656.193-1.164.195-1.83.111-.454-.057-.847.002-1.217.282-.29.22.092.636.38.418.445-.337 1.015-.056 1.508-.038.437.016.86-.1 1.274-.222.348-.102.235-.653-.115-.55" mask="url(#t)"/>
            </g>
            <g transform="translate(0 5.772)">
                <mask id="v" fill="#fff">
                    <use xlink:href="#u"/>
                </mask>
                <path fill="#909CA9" d="M9.671 4.809c.76-.137 1.44-.334 2.195-.134.548.145.986.038 1.512-.147.342-.121.08-.62-.26-.5-.257.108-.525.168-.805.177a3.501 3.501 0 0 1-.573-.176 2.291 2.291 0 0 0-.531-.048c-.548.016-1.116.18-1.654.277-.359.065-.243.616.116.551" mask="url(#v)"/>
            </g>
            <g transform="translate(0 5.772)">
                <mask id="x" fill="#fff">
                    <use xlink:href="#w"/>
                </mask>
                <path fill="#909CA9" d="M10.258 6.662c1.134-.732 2.557-.089 3.792-.514.34-.117.228-.67-.116-.551-1.295.446-2.724-.218-3.935.565-.303.195-.047.698.259.5" mask="url(#x)"/>
            </g>
            <g transform="translate(0 5.772)">
                <mask id="z" fill="#fff">
                    <use xlink:href="#y"/>
                </mask>
                <path fill="#909CA9" d="M11.236 8.58c1.04.022 2.074-.037 3.106-.172.362-.048.244-.598-.116-.551-.982.129-1.964.182-2.954.162-.364-.007-.401.554-.036.562" mask="url(#z)"/>
            </g>
            <g transform="translate(0 5.772)">
                <mask id="B" fill="#fff">
                    <use xlink:href="#A"/>
                </mask>
                <path fill="#909CA9" d="M14.723 10.788c-1.646-.322-2.877-1.693-4.6-1.752-.365-.012-.401.55-.036.562 1.65.056 2.866 1.412 4.457 1.724.353.069.536-.464.18-.534" mask="url(#B)"/>
            </g>
            <g transform="translate(0 5.772)">
                <mask id="D" fill="#fff">
                    <use xlink:href="#C"/>
                </mask>
                <path fill="#909CA9" d="M8.103 9.95c-1.206-.07-2.263.566-3.45.623-.36.018-.4.58-.036.562 1.18-.058 2.263-.693 3.45-.623.365.02.4-.54.036-.562" mask="url(#D)"/>
            </g>
            <g transform="translate(0 5.772)">
                <mask id="F" fill="#fff">
                    <use xlink:href="#E"/>
                </mask>
                <path fill="#909CA9" d="M4.334 12.23c1.569-.6 3.576-.29 5.237-.32 1.59-.028 3.122.378 4.642.797.35.097.532-.436.18-.533-1.696-.467-3.37-.882-5.144-.813-1.722.067-3.53-.26-5.174.368-.34.13-.079.63.259.5" mask="url(#F)"/>
            </g>
            <g transform="translate(0 5.772)">
                <mask id="H" fill="#fff">
                    <use xlink:href="#G"/>
                </mask>
                <path fill="#909CA9" d="M3.68 13.927c1.856.755 3.598.518 5.542.639 1.85.115 3.621.94 5.477.404.347-.1.235-.652-.116-.55-1.794.518-3.534-.304-5.325-.416-1.895-.118-3.58.129-5.399-.61-.338-.138-.515.397-.18.533" mask="url(#H)"/>
            </g>
            <g transform="translate(0 5.772)">
                <mask id="J" fill="#fff">
                    <use xlink:href="#I"/>
                </mask>
                <path fill="#909CA9" d="M14.394 16.345l-5.964-.01c-1.624-.002-3.617-.33-5.131.368-.331.152-.072.653.259.5.927-.426 1.977-.31 2.973-.309l2.609.004 5.219.008c.363 0 .4-.56.035-.561" mask="url(#J)"/>
            </g>
            <g transform="translate(0 5.772)">
                <mask id="L" fill="#fff">
                    <use xlink:href="#K"/>
                </mask>
                <path fill="#909CA9" d="M3.945 19.436a19.746 19.746 0 0 1 5.542-.098c1.562.186 3.078.272 4.572-.304.339-.13.078-.63-.26-.5-1.732.667-3.522.307-5.305.12-1.585-.168-3.096-.012-4.664.23-.36.057-.244.607.115.552" mask="url(#L)"/>
            </g>
            <g transform="translate(0 5.772)">
                <mask id="N" fill="#fff">
                    <use xlink:href="#M"/>
                </mask>
                <path fill="#909CA9" d="M14.134 21.288l-5.74-.034c-1.696-.01-3.36-.013-4.964.6-.34.129-.08.628.259.5 1.719-.657 3.578-.545 5.387-.534l5.023.03c.363.002.4-.56.035-.562" mask="url(#N)"/>
            </g>
            <g transform="translate(0 5.772)">
                <mask id="P" fill="#fff">
                    <use xlink:href="#O"/>
                </mask>
                <path fill="#909CA9" d="M9.639-.269c-.312.289-.51.657-.805.958-.74.759-1.425.517-2.288.123C5.693.422 4.756.374 3.831.42c-.36.018-.399.58-.035.561.752-.038 1.518-.028 2.237.225.569.2 1.013.627 1.641.623C8.868 1.824 9.267.845 10.02.148c.266-.246-.113-.665-.38-.417" mask="url(#P)"/>
            </g>
        </g>
        <path fill="#156B52" d="M8.99 9.212c-.07.113-.144.23-.26.294-.202.112-.454.025-.663-.073a6.564 6.564 0 0 1-2.305-1.81c-.22-.273-.575-.595-.863-.395-.145.102-.185.307-.142.478.044.171.154.317.262.457l.638.834c.174.228.351.46.442.732.166.496.022 1.034-.089 1.544-.372 1.721-.301 3.658.772 5.059.213.277.471.534.798.661.278.108.584.114.883.115.6.003 1.22-.008 1.769-.25.827-.363 1.36-1.208 1.56-2.083.2-.876.113-1.79-.003-2.68-.043-.334-.092-.674-.227-.983-.268-.615-.84-1.04-1.23-1.587a.504.504 0 0 1-.103-.216c-.036-.255.23-.573.31-.81.09-.266.147-.547.149-.827 0-.22-.037-1.045-.279-1.166-.264-.133-.36.696-.449.916-.255.63-.614 1.213-.97 1.79"/>
    </g>
</svg>
