<svg xmlns="http://www.w3.org/2000/svg" xmlns:xlink="http://www.w3.org/1999/xlink" width="86" height="95" viewBox="0 0 86 95">
    <defs>
        <path id="a" d="M.112.254h5.495V5.75H.112z"/>
        <path id="c" d="M.272.202h3.375v3.994H.272z"/>
    </defs>
    <g fill="none" fill-rule="evenodd">
        <path fill="#D8B797" d="M85.503 44.977c-.484 2.23-1.212 4.415-1.488 6.68-9.224.14-18.384 1.893-27.608 1.76a22.192 22.192 0 0 0 1.003-5.954c.082-2.716-.297-5.618 1.02-7.995a65.825 65.825 0 0 0 15.594-1.158c3.017-.59 6.169-1.417 9.257-.877 1.833.32 2.38.63 2.605 2.494.204 1.685-.025 3.401-.383 5.05"/>
        <path fill="#C9AE94" d="M50.573 41.688c-.084.456-.163.923-.089 1.381.092.566.408 1.067.71 1.554a72.849 72.849 0 0 1 4.454 8.305c.315.692.625 1.42.66 2.17.002.076.107.095.134.023.699-1.904.962-3.944 1.22-5.96.346-2.714.692-5.429 1.04-8.143.044-.352.089-.71.028-1.06-.074-.424-.298-.805-.518-1.174l-2.032-3.417c-.475-.8-1.11-2.119-2-2.537-1.223-.575-1.455.613-1.763 1.565a57.909 57.909 0 0 0-1.844 7.293"/>
        <path fill="#B58A66" d="M54.654 48.59a48.532 48.532 0 0 1-.965-1.68l-2.297-4.124c-.235-.423-.472-.847-.761-1.236-.375.74-.246 1.646.09 2.403.336.758.86 1.414 1.297 2.118.509.818.904 1.7 1.297 2.58l2.99 6.691c.26-.603.497-1.216.711-1.837.088-.255.326-.69.31-.958-.015-.265-.244-.47-.407-.688-.793-1.063-1.574-2.136-2.265-3.27"/>
        <path fill="#C69D76" d="M63.867 52.196c2.017-.337 3.954-1.044 5.953-1.47 4.676-.998 9.602-.448 14.24-1.55a.417.417 0 0 1 .499.505l-.488 2.03a.69.69 0 0 1-.787.515c-2.712-.432-5.493.673-8.259 1.014-1.174.145-2.36.151-3.543.182a87.297 87.297 0 0 0-15.174 1.72c.386-.08.594-1.837.687-2.172.228-.817.645-.565 1.55-.535 1.776.059 3.564.054 5.322-.24"/>
        <path fill="#EEE3D5" d="M53.522 32.653a.44.44 0 0 1 .399-.631c2.306 0 4.608-.22 6.905-.438l3.783-.361c4.964-.474 9.93-.948 14.872-1.61.224-.03.45-.044.674-.019 1.333.147 1.376 1.13 1.484 1.979a9.371 9.371 0 0 0 2.64 5.388c.607.609 1.364 1.295 1.239 2.146-3.976-.048-7.982-.094-11.89.635-1.764.328-3.495.812-5.243 1.212a53.538 53.538 0 0 1-5.629.978c-1.142.135-3.198.732-4.174-.047-1.16-.925-2-3.375-2.705-4.677-.816-1.502-1.6-3.021-2.355-4.555"/>
        <path fill="#B67B63" d="M63.808 58.461c.098.25.314.468.58.498.096.01.19-.003.285-.021a.69.69 0 0 0 .326-.134c.144-.126.175-.335.194-.526.023-.242.042-.485.054-.728.015-.303-.248-.55-.504-.662-.218-.097-.754-.16-.787.184-.008.077.01.154.025.23.02.1.033.21-.016.3-.02.036-.048.067-.076.097-.099.105-.2.17-.186.317.012.148.05.308.105.445"/>
        <path fill="#FFF" d="M60.652 35.666a9.162 9.162 0 0 1-.774.348c-.44.182-.911.38-1.357.68-.481.092-.952-.063-1.165-.399-.232-.368-.131-.801.012-1.215.26-.747.72-1.172 1.372-1.264.284-.04.574-.01.88.021.17.018.346.035.52.04 1.074.03 2.087-.464 2.427-1.14.524.582.954 1.253 1.319 1.98-1.097.154-2.216.41-3.234.95m17.336-2.109l-.866.061c-.654-1.225-1.518-2.348-2.654-3.278l-.173.21c1.073.878 1.899 1.935 2.53 3.09-3.718.258-7.476.555-11.191.888-.472.043-.964.087-1.461.15-.615-1.25-1.417-2.349-2.538-3.138l-.158.223c.32.226.611.481.881.757-.23.62-1.211 1.1-2.21 1.078-.164-.005-.334-.022-.499-.039-.31-.032-.63-.064-.948-.02-.752.106-1.304.607-1.596 1.448-.158.457-.281.987.015 1.456.204.322.583.516 1.007.548-.204.178-.4.383-.576.631-.08.113-.19.262-.312.427-.502.678-.86 1.172-.905 1.357-.96 3.958-1.57 6.597-1.994 10.791l.267.027c.424-4.177 1.031-6.808 1.988-10.755.035-.146.551-.844.86-1.26.122-.166.234-.317.315-.43.25-.352.535-.613.838-.824.058-.012.116-.022.174-.04l-.02-.063c.392-.247.809-.422 1.22-.591.281-.117.548-.227.795-.358 1.01-.534 2.132-.782 3.232-.931.541 1.144.933 2.41 1.269 3.676.186.703.359 1.391.423 2.09.11 1.215-.112 2.44-.326 3.626l-1.742 9.655.27.049 1.742-9.655c.217-1.203.442-2.448.328-3.7-.065-.72-.24-1.42-.43-2.134-.332-1.252-.719-2.504-1.249-3.645.464-.056.923-.099 1.364-.138a569.33 569.33 0 0 1 11.304-.897c1.512 2.928 1.825 6.43 1.751 9.234a38.187 38.187 0 0 1-1.543 9.781l.26.077a38.457 38.457 0 0 0 1.555-9.851c.074-2.806-.236-6.306-1.727-9.262l.749-.053c1.588-.107 3.231-.124 4.312.927l.187-.192c-1.16-1.129-2.94-1.11-4.518-1.003"/>
        <path fill="#210B0C" d="M66.998 56.492c.73-.314 1.392-.81 1.844-1.464.452-.654.685-1.47.581-2.259-.02-.154-.057-.316-.164-.428-.127-.132-.321-.167-.502-.19a9.878 9.878 0 0 0-1.297-.084c-.576.001-1.214.082-1.593.515-.346.394-.378.967-.366 1.491.022.973.152 1.995.73 2.778"/>
        <path fill="#8C5D4D" d="M51.076 89.648c-.21.187-.21.506-.062.735.149.229.414.38.688.485.316.121.652.192.987.261l3.466.722c2.015.42 2.85-2.09 1.048-2.741-1.214-.438-5.226-.262-6.127.538"/>
        <g transform="translate(68.197 88.775)">
            <mask id="b" fill="#fff">
                <use xlink:href="#a"/>
            </mask>
            <path fill="#8C5D4D" d="M.131 5.289c.057.26.355.438.653.458.298.02.588-.09.84-.23.291-.164.546-.37.799-.577l2.62-2.131C6.57 1.569 4.688-.451 3.069.502 1.977 1.144-.112 4.18.13 5.29" mask="url(#b)"/>
        </g>
        <path fill="#8D9FB5" d="M59.892 78.493c-.623 1.879-1.255 3.776-2.326 5.49-1.122 1.797-2.777 3.626-2.356 5.645.217 1.043 1.03 1.977 2.114 2.43.547.228 1.205.333 1.75.103.63-.266.94-.89 1.19-1.467 1.389-3.18 2.594-6.418 3.799-9.654l2.512-6.752c.552-1.482 1.107-3.076.615-4.573-.306-.93-1.32-1.957-2.457-2.105-1.53-.2-1.476.678-1.815 1.769-.947 3.051-2.017 6.077-3.026 9.114"/>
        <path fill="#8295A8" d="M66.11 82.11c.206.987.3 2.009.762 2.925.298.59.743 1.123.968 1.738.163.448.203.65.273 1.116.16 1.074.48 2.129.95 3.129.079.166.175.344.358.424.163.07.355.046.534.019a57.703 57.703 0 0 0 3.455-.631c.486-.104.719-.612.427-.972-1.045-1.287-1.14-2.876-1.48-4.508-.57-2.734-2.101-5.247-2.772-7.963-.612-2.482-.488-5.055-.361-7.592-.987-.394-1.99-.792-3.059-.94-3.805-.53-3.626 2.203-3.017 4.67.722 2.931 2.343 5.629 2.961 8.585"/>
        <path fill="#210B0C" d="M70.197 56.331c.138.495-.096 1.044-.492 1.37-.397.326-.928.453-1.441.451-.548-.001-1.145-.174-1.44-.635-.232-.36-.23-.834-.093-1.24.213-.627.943-1.879 1.745-1.69.604.142 1.557 1.16 1.72 1.744M62.024 59.533c-.324.733-.498 1.522-.664 2.305-.187.883-.367 1.77-.446 2.668-.046.529-.057 1.06-.068 1.59l-.04 1.892c-.03 1.376-.047 2.809.536 4.056a.447.447 0 0 0 .115.169c.06.047.139.063.214.077.35.065.7.13 1.056.152.128.008.263.01.379-.046.283-.135.323-.515.32-.828-.007-1.219-.055-2.438.021-3.653.135-2.14.653-4.235 1.181-6.314.238-.935.478-1.871.72-2.805.02-.077.04-.158.012-.232a.363.363 0 0 0-.101-.13c-.415-.381-1.315-.848-1.895-.635-.606.223-1.1 1.191-1.34 1.734"/>
        <path fill="#EAADA0" d="M61.574 63.87c-.154 1.141-.223 2.292-.292 3.442-.06.983-.118 1.967-.177 2.95-.13.106-.339.033-.433-.105-.095-.139-.105-.315-.112-.483-.12-3.178.14-6.372.774-9.49.087-.429.18-.94.454-1.297.284-.37.802-.648 1.18-.93.214-.16.474-.33.73-.251.025.13-.108.23-.217.305-.631.435-.847 1.361-1.068 2.072a23.258 23.258 0 0 0-.839 3.787"/>
        <path fill="#EAADA0" d="M66.066 57.909c-.405.1-.814.21-1.169.427-.62.38-1.006 1.04-1.366 1.671-.404.71-.813 1.43-1.02 2.22-.185.71-.2 1.452-.214 2.187l-.08 4.116c-.038 2.011-.072 4.06.508 5.987.142.473.353.974.788 1.209.264.143.575.167.876.185.837.051 1.675.085 2.514.102.811.016 1.73-.029 2.266-.636.38-.43.467-1.036.539-1.605.193-1.54.386-3.093.29-4.643-.09-1.443-.431-2.895-.193-4.32.237-1.415 1.03-2.71 1.126-4.139.054-.8-.143-3.17-.98-3.462-.454-.157-1.503.207-1.976.293a31.52 31.52 0 0 0-1.91.408"/>
        <path fill="#B67B63" d="M64.949 57.668a1.516 1.516 0 0 1-1.587-.86c-.261-.593-.108-1.293-.296-1.914-.026-.086-.058-.181-.023-.265.024-.056.075-.096.12-.138.478-.44.424-1.283.944-1.671.103-.077.222-.13.34-.18.212-.09.43-.178.66-.191.505-.031.975.302 1.256.722M64.404 48.508c0-.289-.007-.598-.175-.833-.153-.214-.41-.324-.61-.495-.515-.441-.573-1.202-.593-1.88-.008-.272-.012-.562.127-.797.22-.37.72-.472 1.145-.4.714.12 1.344.647 1.59 1.328.182.507.157 1.062.13 1.6-.039.799.276 3.112-.592 3.443-1.172.447-1.022-1.335-1.022-1.966"/>
        <path fill="#E1846A" d="M64.21 49.562c-.107.022-.221.05-.298.136-.07.08-.095.195-.116.305a16.973 16.973 0 0 0 .399 7.895c.25.848.57 1.675.724 2.552.195 1.11.123 2.285.493 3.337.371 1.053 1.448 1.949 2.373 1.48.242-.122.443-.323.64-.522.403-.405.805-.812 1.206-1.22.665-.676 1.375-1.464 1.419-2.466.046-1.08-.693-1.974-1.306-2.814-1.217-1.67-2.092-3.64-2.564-5.723-.156-.69-.059-2.637-.397-3.133-.412-.604-1.848.022-2.572.173"/>
        <path fill="#EAEAEA" d="M62.564 66.798a.434.434 0 0 0-.222.088c-.089.082-.098.216-.102.336l-.055 1.805a.625.625 0 0 0 .022.231c.095.263.455.277.733.248 1.449-.148 2.949-.13 4.312.382.936.351 1.877.94 2.857.742.25-.05-.12-2.133-.24-2.336-.413-.693-.91-.589-1.675-.707-1.859-.287-3.72-1.146-5.63-.79M62.564 70.553a.434.434 0 0 0-.222.088c-.089.082-.098.216-.102.337l-.055 1.804a.625.625 0 0 0 .022.231c.095.263.455.277.733.248 1.449-.147 2.949-.13 4.312.382.936.352 1.877.941 2.857.742.25-.05-.12-2.133-.24-2.336-.413-.693-.91-.588-1.675-.707-1.859-.287-3.72-1.146-5.63-.79M60.528 66.92c-.017.026-.018.059-.018.09-.01.357-.006.714.008 1.072a.329.329 0 0 0 .035.159c.064.105.217.106.335.073.12-.033.244-.087.36-.046.026-.286.187-1.001.025-1.255-.1-.158-.636-.27-.745-.093M60.523 69.386c-.013.015-.014.032-.015.05-.007.194-.004.389.008.584.002.03.004.06.027.086.032.036.071.028.11.045.053.024.1.065.148.102.045.034.092.07.147.082.055.012.12-.006.147-.056.033-.064.002-.148.014-.216.01-.071.038-.142.05-.213.022-.121.063-.311-.033-.413-.082-.086-.514-.147-.603-.05"/>
        <path fill="#88604C" d="M9.441 1.238c3.449-.56 7.181.084 10.104 1.742.474.269.88.744 1.026 1.322.214.852-.284 1.724-.856 2.324-1.824 1.914-4.455 2.39-6.927 2.602-1.953.167-3.942.218-5.847-.303C5.535 8.54 1.112 6.58 2.538 4.243c1.25-2.052 4.93-2.684 6.903-3.005"/>
        <g transform="translate(7.669 .072)">
            <mask id="d" fill="#fff">
                <use xlink:href="#c"/>
            </mask>
            <path fill="#057158" d="M3.639 2.305c-.051.643-.357 1.27-.91 1.613a1.902 1.902 0 0 1-1.805.095.716.716 0 0 1-.234-.163.835.835 0 0 1-.141-.271 4.674 4.674 0 0 1-.27-1.843C.335.731 1.369.03 2.306.24c.966.216 1.405 1.157 1.333 2.066" mask="url(#d)"/>
        </g>
        <path fill="#057158" d="M15.324 2.602c-.05.642-.357 1.27-.91 1.613a1.902 1.902 0 0 1-1.805.095.713.713 0 0 1-.234-.163.835.835 0 0 1-.141-.272 4.674 4.674 0 0 1-.27-1.842C12.02 1.028 13.054.326 13.99.535c.967.217 1.405 1.158 1.333 2.067"/>
        <path fill="#C48B65" d="M14.833 21.251c.394-2.157.96-4.429 1.041-6.616.081-2.207.263-4.426.414-6.637.022-.317.044-.635.018-.952a3.208 3.208 0 0 0-.134-.692c-.038-.123-.105-.263-.24-.289-.135-.025-.26.08-.33.192-.383.599.06 1.352.02 2.047-.018.302-.13.592-.24.877-.296.764-.66 1.536-.819 2.324a25.212 25.212 0 0 1-.609 2.32c-.48 1.591-1.009 3.187-1.149 4.842-.082.978.088 1.803.592 2.652.482.811 1.204 1.206 1.436-.068"/>
        <path fill="#516660" d="M13.86 13.701c.607.106 1.204.263 1.785.47.112.04.23.087.298.186.067.1.068.229.063.349-.03.843-.231 2.227-.467 3.036-.121.417-.219.304-.562.568-.343.264-.914.27-1.15-.094-.098-.15-.123-.335-.147-.514-.095-.727-.307-1.529-.3-2.26.001-.182.409-1.752.48-1.74"/>
        <path fill="#5E8C6B" d="M13.289 3.383c-.008.108-.03.216-.069.32-.281.768-1.075 1.234-1.858 1.094-1.211-.217-1.898-1.874-.974-2.836.087-.09.193-.157.3-.218.21-.12.429-.223.655-.307.165-.062.342-.114.515-.083a.922.922 0 0 1 .34.154c.555.37 1.144 1.146 1.09 1.876M17.963 3.588c-.021.119-.052.236-.108.342-.168.322-.52.485-.846.625-.235.1-.48.202-.732.179-.212-.02-.405-.127-.586-.242-.333-.213-.675-.514-.695-.918-.011-.243.1-.473.207-.69l.25-.503c.056-.114.113-.229.194-.326.663-.806 1.996-.415 2.285.529.086.28.084.582.049.874a2.56 2.56 0 0 1-.018.13"/>
        <path fill="#21160A" d="M8.59 54.736c-.304.237-.75.227-1.095.055-.345-.171-.605-.477-.817-.799-.211-.322-.386-.668-.618-.976-.187-.246-.411-.467-.565-.736-.267-.467-.298-1.033-.519-1.524-.092-.204-.219-.432-.13-.638.066-.15.228-.232.385-.276.144-.04.306-.055.436.018a.696.696 0 0 1 .201.199c.597.784 1.067 1.653 1.596 2.482.265.416.545.823.861 1.202.266.317.746.618.265.993"/>
        <path fill="#D1A384" d="M7.883 49.338c-.31.09-.46.463-.418.782.043.32.226.6.39.876.387.654.69 1.353.991 2.05.125.289.25.62.12.906-.147.32-.573.433-.909.33-.336-.103-.597-.366-.823-.636-.695-.83-1.194-1.803-1.686-2.767-.17-.332-.343-.722-.195-1.064.09-.208.28-.35.463-.483.369-.269.753-.544 1.2-.633"/>
        <path fill="#21160A" d="M8.381 54.546l.238-.283c-.037-.03-.047-.137-.051-.182-.06-.614.014-1.04.233-1.34l-.299-.217c-.36.496-.344 1.146-.302 1.592.01.106.03.303.181.43"/>
        <path fill="#21160A" d="M8.212 54.039l.264-.258a2.444 2.444 0 0 1-.218-.27c-.071-.096-.145-.197-.233-.29-.243-.257-.55-.372-.817-.308a.98.98 0 0 0-.084.025.32.32 0 0 1-.087.02l-.027-.004c-.06-.012-.2-.04-.3.074l.278.243a.11.11 0 0 1-.08.04c.01 0 .02.003.03.005a.655.655 0 0 0 .053.01.554.554 0 0 0 .246-.037.96.96 0 0 1 .057-.017c.163-.04.346.079.463.202.072.077.136.164.203.255.077.104.155.212.252.31M18.906 52.908c.001.385-.28.731-.627.9-.347.167-.748.185-1.132.155-.384-.03-.765-.103-1.15-.107-.31-.003-.622.038-.928-.004-.533-.075-1-.397-1.524-.523-.218-.052-.476-.092-.584-.288-.079-.143-.045-.322.017-.473.057-.138.144-.275.281-.334a.692.692 0 0 1 .28-.037c.986.008 1.96.168 2.94.258.492.045.985.073 1.479.054.413-.015.945-.211.948.399"/>
        <path fill="#D1A384" d="M14.202 50.163c-.118.3.085.647.363.809.279.162.613.188.932.228.754.094 1.492.283 2.228.471.305.078.644.182.79.46.164.312-.008.717-.295.92-.287.203-.656.248-1.007.261-1.082.041-2.157-.16-3.221-.36-.367-.068-.78-.17-.961-.497-.11-.198-.106-.436-.099-.662.013-.456.03-.928.234-1.336"/>
        <path fill="#21160A" d="M18.537 52.966c.03 0 .06-.003.09-.01l-.078-.36c-.047.01-.137-.047-.176-.072-.521-.328-.813-.648-.916-1.004l-.355.103c.172.589.696.975 1.075 1.213.075.048.206.13.36.13"/>
        <path fill="#21160A" d="M16.749 53.365a.737.737 0 0 0 .062-.057c.069-.07.098-.15.122-.216.006-.019.013-.038.021-.056.069-.153.274-.225.444-.242.104-.01.212-.007.326-.005.129.003.262.007.399-.01l-.043-.365c-.11.012-.225.01-.347.007-.12-.003-.244-.007-.372.006-.352.035-.63.206-.744.458a1.375 1.375 0 0 0-.032.082.304.304 0 0 1-.036.08l-.02.019c-.046.04-.154.134-.125.282l.362-.07a.112.112 0 0 1-.017.087"/>
        <path fill="#8D9FB5" d="M7.77 17.101c-.503.943-.783 2.086-.984 3.234-.795 4.552-.792 9.204-1.55 13.769-.692 4.177-3.449 8.243-5.131 12.153-.062.144-.125.298-.099.453.058.332.465.453.798.505.833.132 1.694.262 2.51.047.557-.146 1.067-.448 1.63-.572.73-.16 1.512-.013 2.221-.248 3.012-.999 2.513-6.416 2.545-8.768l.1-7.392c.045-3.22.089-6.443.05-9.665-.01-.805-.025-1.61-.046-2.414-.016-.6.103-1.756-.095-2.297-.416-1.139-1.64.618-1.949 1.195"/>
        <path fill="#C48B65" d="M16.085 22.683c.117 1.107 0 3.69-.233 4.776-1.57.305-3.161.493-4.756.563-.237.01-.477.018-.709-.036-.4-.092-.744-.358-1.075-.618-.276-.217-.561-.445-.721-.769-.25-.504-.14-1.12.002-1.67.23-.89.529-1.76.894-2.596"/>
        <path fill="#5E8C6B" d="M15.563 24.61c-2.072 1.332-5.137.02-7.097-.958-.135-.068-.275-.14-.37-.263-.175-.228-.15-.562-.086-.85.306-1.396 1.032-2.52 1.122-3.98.075-1.23.242-2.494 1.34-3.17 1.348-.828 3.19.115 4.075 1.12.766.87 1.566 1.815 1.709 2.964.08.647-.059 1.307.028 1.953.15 1.121.45 2.432-.72 3.184"/>
        <path fill="#C48B65" d="M10.526 15.156c.388.996 1.237 1.726 2.055 2.413.316.266.721.548 1.106.4.24-.091.394-.338.436-.59.042-.254-.013-.512-.09-.757a4.144 4.144 0 0 0-.608-1.194c.054-.346.026-.713.08-1.059a64 64 0 0 1-2.182-.837c-.026.61-.345 1.216-.797 1.624"/>
        <path fill="#DDA37C" d="M9.612 11.44c-.184-.567.04-1.317.516-1.677.412-.312.907-.497 1.32-.808.069-.052.14-.11.227-.116.081-.007.157.035.231.068.864.398 2.117.034 2.683 1.004.29.496.24 1.143.562 1.618.166.244.43.446.467.739.037.304-.187.57-.297.855-.118.308-.104.653-.21.965-.224.668-1.224.67-1.803.563-.661-.122-1.266-.461-1.915-.625a1.66 1.66 0 0 1-1.158-1.002c-.19-.49-.452-1.055-.623-1.584"/>
        <path fill="#492317" d="M13.915 9.654c.27-.521.527-1.137.13-1.392-.414-.265-1.262.03-1.964.32l-.94.387c-.349.143-.716.298-.99.54-.298.261-.428.573-.507.858a3.685 3.685 0 0 0 .26 2.69c.313.632.76 1.89 1.953.505.976-1.132 1.456-2.739 2.058-3.908"/>
        <path fill="#492317" d="M7.813 13.025a1.734 1.734 0 1 1 3.468 0 1.734 1.734 0 0 1-3.468 0"/>
        <path fill="#CAD6E3" d="M13.868 27.903c-.29.095-.58.203-.888.225-.293.02-.586-.037-.872-.098a29.383 29.383 0 0 1-4.263-1.263 470.539 470.539 0 0 0-2.808 14.689c-.418 2.39-1.022 6.069-.396 8.42.933 3.507 4.88 2.454 7.622 2.12 1.532-.186 5.213-.338 6.15-1.373.681-.754.485-2.5.502-3.372.043-2.355-.335-4.69-.41-7.041a71.578 71.578 0 0 0-.166-3.35 40.208 40.208 0 0 0-1.056-6.489c-.178-.716-.264-2.094-.83-2.66-.579-.58-1.908-.03-2.585.192"/>
        <path fill="#DDA37C" d="M8.247 18.583c-.254 2.169-.662 4.459-.628 6.646.034 2.207-.023 4.43-.054 6.643-.005.318-.009.637.03.952.03.233.082.463.157.685.041.123.11.26.234.28.125.02.233-.09.292-.203.321-.613-.122-1.348-.118-2.044.002-.302.09-.596.177-.885.233-.773.528-1.558.635-2.351.105-.788.269-1.564.443-2.34.362-1.607.767-3.22.814-4.878.028-.98-.168-1.797-.671-2.626-.48-.793-1.16-1.16-1.31.12"/>
        <path fill="#5E8C6B" d="M10.353 21.53l-2.76-.532c.235-1.065.48-2.13.739-3.191.331-1.36 1.132-.9 1.638-.001.53.94.68 1.836.535 2.886-.04.282-.093.56-.152.838"/>
        <path fill="#DCE1E5" d="M13.687 17.97c-.274-.608-2.57-2.246-2.955-2.784-.044-.062-.284-.033-.35-.043-.753-.12-2.068.523-2.095 1.496-.007.27.858 1.703.8 1.966-.062.285 1.484 6.562 1.65 6.986.258.661.258 1.397.255 2.11-.003.81-.008 2.659.058 2.743.075.096 1.577 21.38 1.696 21.392 1.878 0 3.68-.063 5.57-.223.179-.015.37-.035.506-.142.2-.156.205-.433.195-.674-.222-5.415-.379-10.81-.837-16.219-.285-3.378-.138-7.378-1.27-10.64-.573-1.65-.805-1.817-1.33-3.09-.596-1.447-1.25-1.454-1.893-2.878"/>
        <path fill="#5E8C6B" d="M13.654 5.23c0-.958.752-1.735 1.68-1.735.928 0 1.68.777 1.68 1.734 0 .958-.752 1.735-1.68 1.735-.928 0-1.68-.777-1.68-1.735"/>
        <path fill="#E0A16C" d="M11.885 3.461c.02-.327.166-.641.324-.93.073-.133.149-.265.24-.385.211-.279.484-.425.811-.499.243-.055.64-.242.884-.19.19.042.355.163.503.294.2.175.38.37.54.585.109.145.209.302.255.48.044.166.038.343.013.513-.068.472-.284.92-.607 1.263-.164.173-.36.323-.584.395-.253.083-.527.064-.789.018-.368-.066-.734-.188-1.035-.418-.3-.23-.527-.58-.554-.965a1.174 1.174 0 0 1-.001-.16"/>
        <path fill="#E1846A" d="M10.864 5.464c0-.957.753-1.734 1.68-1.734.929 0 1.681.777 1.681 1.734 0 .958-.752 1.735-1.68 1.735-.928 0-1.68-.777-1.68-1.735"/>
        <path fill="#E0A16C" d="M20.41 4.174a1.5 1.5 0 0 1 .189.593.85.85 0 0 1-.03.318c-.052.16-.174.284-.29.401-.452.45-.961.928-1.588.958a2.015 2.015 0 0 1-.542-.063.726.726 0 0 1-.27-.104c-.103-.075-.166-.194-.225-.309-.244-.473-.496-1.006-.36-1.524.06-.226.19-.424.286-.637.082-.18.141-.376.264-.529.738-.92 2.074-.028 2.567.896"/>
        <path fill="#5E8C6B" d="M8.07 5.144C8.42 4.082 9.4 3.57 10.26 4c.86.43 1.275 1.64.927 2.7-.349 1.062-1.33 1.575-2.19 1.144-.86-.43-1.274-1.639-.926-2.7"/>
        <path fill="#E1846A" d="M9.354 3.355c-.05.643-.356 1.27-.91 1.614a1.902 1.902 0 0 1-1.805.095.716.716 0 0 1-.234-.164.84.84 0 0 1-.141-.271 4.678 4.678 0 0 1-.27-1.842C6.05 1.78 7.084 1.08 8.02 1.289c.966.216 1.405 1.157 1.333 2.066"/>
        <path fill="#E0A16C" d="M11.044 5.052c-.197.936-1.091 1.53-1.998 1.327-1.092-.244-1.883-1.873-1.13-2.827 1.103-1.4 3.504-.296 3.128 1.5M3.096 4.732c-.094-.953.578-1.804 1.501-1.901.924-.098 1.748.596 1.843 1.55.094.952-.578 1.803-1.502 1.9-.923.097-1.748-.596-1.842-1.55"/>
        <path fill="#E1846A" d="M5.4 5.047c.348-.887 1.328-1.315 2.188-.956.86.36 1.275 1.371.927 2.259-.349.887-1.329 1.315-2.189.956-.86-.36-1.275-1.37-.927-2.259"/>
        <path fill="#E0A16C" d="M10.969 4.303c-.05.643-.356 1.27-.91 1.613a1.902 1.902 0 0 1-1.805.096.721.721 0 0 1-.234-.164.84.84 0 0 1-.141-.271 4.679 4.679 0 0 1-.27-1.842c.056-1.006 1.09-1.707 2.027-1.498.966.216 1.405 1.157 1.333 2.066"/>
        <path fill="#057158" d="M14.985 4.528c-.05.643-.356 1.27-.91 1.613a1.902 1.902 0 0 1-1.805.096.724.724 0 0 1-.234-.164.835.835 0 0 1-.14-.271 4.672 4.672 0 0 1-.27-1.842c.055-1.006 1.09-1.708 2.026-1.498.967.216 1.405 1.157 1.333 2.066"/>
        <path fill="#5E8C6B" d="M12.95 5.309c-.008.108-.03.216-.068.32-.282.769-1.076 1.234-1.859 1.094-1.21-.217-1.898-1.874-.973-2.836.086-.09.192-.157.3-.218.21-.12.428-.223.654-.307.165-.062.342-.114.515-.083a.928.928 0 0 1 .34.154c.556.37 1.144 1.146 1.091 1.876"/>
        <path fill="#E1846A" d="M16.458 4.864c-.02.12-.051.236-.107.342-.168.322-.52.485-.846.625-.234.1-.48.202-.732.179-.212-.02-.405-.127-.586-.242-.334-.213-.675-.514-.695-.918-.011-.243.1-.473.207-.69l.25-.503c.056-.114.113-.228.193-.326.664-.806 1.997-.415 2.286.53.086.28.084.581.049.873a2.595 2.595 0 0 1-.019.13"/>
        <path fill="#5E8C6B" d="M13.315 7.155c0-.957.752-1.734 1.68-1.734.929 0 1.68.777 1.68 1.734 0 .958-.751 1.735-1.68 1.735-.928 0-1.68-.777-1.68-1.735"/>
        <path fill="#E0A16C" d="M10.999 5.661c.02-.327.166-.641.324-.93.072-.133.149-.265.24-.385.21-.279.484-.425.81-.5.244-.054.641-.24.885-.188.19.04.355.162.503.292.199.176.38.372.54.586.108.145.208.302.255.48.043.166.038.343.013.514-.069.471-.284.92-.607 1.261-.164.174-.36.324-.584.397-.254.082-.527.063-.789.017-.368-.066-.735-.187-1.035-.418-.3-.23-.527-.58-.555-.965a1.17 1.17 0 0 1 0-.16"/>
        <path fill="#E1846A" d="M10.526 7.39c0-.957.752-1.734 1.68-1.734.928 0 1.68.777 1.68 1.735 0 .957-.752 1.734-1.68 1.734-.928 0-1.68-.777-1.68-1.734"/>
        <path fill="#057158" d="M18.79 5.705a1.5 1.5 0 0 1 .187.593.85.85 0 0 1-.03.318c-.051.16-.173.283-.29.4-.451.451-.96.929-1.587.958a2.019 2.019 0 0 1-.542-.063.73.73 0 0 1-.27-.104c-.103-.074-.166-.193-.225-.308-.245-.473-.497-1.007-.36-1.524.06-.226.19-.425.286-.637.081-.18.141-.376.264-.53.738-.919 2.073-.027 2.567.897"/>
        <path fill="#5E8C6B" d="M7.732 7.07C8.08 6.008 9.06 5.496 9.92 5.926c.86.43 1.275 1.64.927 2.7-.348 1.063-1.329 1.575-2.189 1.144-.86-.43-1.275-1.639-.926-2.7"/>
        <path fill="#5E8C6B" d="M9.015 5.281c-.05.643-.356 1.27-.91 1.614A1.902 1.902 0 0 1 6.3 6.99a.721.721 0 0 1-.234-.163.835.835 0 0 1-.142-.272 4.674 4.674 0 0 1-.27-1.842c.056-1.006 1.09-1.707 2.027-1.498.967.216 1.405 1.157 1.333 2.066"/>
        <path fill="#057158" d="M10.705 6.978c-.196.936-1.091 1.53-1.998 1.328-1.092-.244-1.883-1.874-1.13-2.828 1.103-1.4 3.505-.296 3.128 1.5M2.757 6.658c-.094-.953.578-1.804 1.502-1.901.923-.097 1.748.596 1.842 1.55.094.952-.578 1.803-1.501 1.9-.924.098-1.748-.596-1.843-1.55"/>
        <path fill="#E1846A" d="M5.06 6.974c.35-.888 1.33-1.316 2.19-.957.86.36 1.274 1.371.926 2.259-.348.888-1.328 1.316-2.189.956-.86-.36-1.275-1.37-.926-2.258"/>
        <path fill="#BF9D95" d="M12.978 7.499c-1.908.375-3.884.566-5.798.225-1.915-.34-3.774-1.258-4.947-2.775-.304.607-.1 1.328.11 1.972.336 1.036.715 2.134 1.585 2.81.567.439 1.283.649 1.99.798 2.712.573 5.523.398 8.29.22.996-.065 2.005-.132 2.944-.46 1.168-.409 2.157-1.245 2.793-2.28.373-.607 1.292-3.714.519-3.113-1.284.997-2.765 1.603-3.49 1.806-1.932.539-2.567.515-3.996.797"/>
    </g>
</svg>
