<svg xmlns="http://www.w3.org/2000/svg" xmlns:xlink="http://www.w3.org/1999/xlink" width="40" height="62" viewBox="0 0 40 62">
    <defs>
        <path id="a" d="M.075.16h8.126v3.695H.075z"/>
    </defs>
    <g fill="none" fill-rule="evenodd">
        <path fill="#F7E0C4" d="M30.765 7.056c.058-.004.12-.006.171.022.06.035.09.105.112.17.183.535.198 1.125.044 1.67a.43.43 0 0 1-.1.197c-.082.08-.209.089-.324.092-.638.02-1.28.032-1.913.122-.48.069-.985.281-1.477.223-1.026-.12-1.077-1.413-.985-2.217 1.438-.252 3.01-.192 4.472-.279"/>
        <path fill="#000" d="M25.447 57.054a38.678 38.678 0 0 0 .112 3.02c.014.178.05.386.21.464a.523.523 0 0 0 .254.03l.544-.026c.16-.007.325-.016.466-.09.124-.066.217-.174.32-.267.408-.366.97-.488 1.49-.665.924-.315 1.762-.834 2.591-1.348.207-.129.443-.32.393-.558-.055-.264-.402-.324-.674-.328a69.717 69.717 0 0 1-5.101-.256c-.303-.026-.307.081-.605.024"/>
        <g transform="translate(31.613 57.928)">
            <mask id="b" fill="#fff">
                <use xlink:href="#a"/>
            </mask>
            <path fill="#000" d="M.193.775c-.118.818-.144 1.65-.076 2.473a.862.862 0 0 0 .062.3c.104.221.376.323.62.305.245-.018.471-.13.692-.235A15.92 15.92 0 0 1 6.79 2.156c.358-.034.733-.062 1.035-.255.302-.193.491-.615.301-.918C7.928.668 7.48.66 7.107.67A11.172 11.172 0 0 1 4.61.461C3.854.311 3.088.08 2.324.188c-.33.047-.648.156-.977.21C1.062.445.764.45.501.57S.017.973.09 1.25" mask="url(#b)"/>
        </g>
        <path fill="#132B24" d="M25.698 29.745c-.271-.147-.567-.298-.872-.253-.596.089-.822.823-.853 1.423-.06 1.205.147 2.406.32 3.6.93 6.37.92 12.85.412 19.268-.08 1.025-.171 2.08.142 3.059.055.174.127.35.256.481.166.168.404.241.633.296a7.19 7.19 0 0 0 2.233.176c.223-.017.46-.052.627-.2.225-.197.254-.53.266-.829.15-3.91.041-7.897 1.172-11.644.396-1.314.943-2.588 1.182-3.94.456-2.566-.237-5.16-1.132-7.554-.33-.883-.586-2.128-1.512-2.538-.969-.428-1.922-.83-2.874-1.345"/>
        <path fill="#495E51" d="M7.486 60.986c.365-.11.748-.245.982-.545.484-.623.508-2.877-.025-3.483-.461-.524-1.15-.121-1.588.24-1.232 1.019-1.901 4.546.631 3.788M10.237 56.832c.02.812.124 1.623.31 2.414.055.23.126.473.31.622.143.115.333.154.516.174a3.38 3.38 0 0 0 2.277-.583c.12-.084.239-.18.312-.307a.906.906 0 0 0 .1-.405c.04-.714-.304-1.386-.64-2.019-.081-.156-.176-.323-.338-.391-.11-.047-.235-.04-.355-.029a5.493 5.493 0 0 0-1.571.392c-.289 0-.633.132-.92.132"/>
        <path fill="#9BDDDD" d="M5.058 57.343c.808.084 1.622.097 2.432.037.25-.018.536-.063.672-.273.077-.118.09-.264.1-.404.264-3.658.37-7.336.973-10.954l.327.017c.397 2.117.6 4.27.604 6.423.004 1.708-.116 3.413-.237 5.116l2.76-.536c.148-.029.303-.06.425-.15.27-.202.275-.597.254-.933-.261-4.181-.433-8.374-.255-12.56a31.519 31.519 0 0 1-6.307.965c-.398.02-1.311-.132-1.618.202-.312.342-.023 1.37.008 1.794a67.407 67.407 0 0 1 .15 6.476c-.01.399-.23 4.786-.288 4.78"/>
        <path fill="#B58D8A" d="M6.433 24.505l2.154.021.417 2.185-1.225.217c-.55.097-1.1.274-1.348-.25-.245-.517-.045-1.615.002-2.173"/>
        <path fill="#E0A16C" d="M25.82 9.443c-.467.322-.81.782-1.14 1.236-.553.76-1.095 1.534-1.513 2.371-1.05 2.103-1.27 4.492-1.472 6.82-.104 1.186-.207 2.383-.049 3.564.304 2.278 1.547 4.322 2.764 6.294.185.3.375.606.647.838.432.368 1.017.505 1.579.626 1.595.344 3.24.656 4.855.416 1.616-.24 3.22-1.14 3.842-2.602.244-.573.327-1.196.407-1.812l.676-5.198c.252-1.932.504-3.885.301-5.823-.202-1.938-.901-3.889-2.315-5.276C33.23 9.745 31.582 8.965 30 8.488c-1.125-.339-3.22.294-4.18.955"/>
        <path fill="#15493B" d="M27.542 30.687c.428 3.269 2.29 6.204 2.84 9.454.215 1.28.223 2.584.238 3.882.051 4.369.186 8.737.405 13.101.032.657.096 1.38.568 1.84.655.636 1.724.447 2.61.215.273-.072.56-.15.764-.347.253-.243.325-.614.372-.962.27-2.038.063-4.104-.05-6.157-.421-7.644.448-15.378-.83-22.927-2.212.998-4.498 1.692-6.917 1.901"/>
        <path fill="#C4B094" d="M2.986 27.778c-.944.463-1.875 1.069-2.385 1.986-.318.572-.45 1.227-.535 1.876-.105.794-.132 1.653.285 2.337.418.684 1.433 1.05 2.055.544.552-.449.63-1.398 1.3-1.635.376 3.934.25 7.897.122 11.847l9.883-.293c.123-.004.258-.012.351-.092.111-.097.125-.26.13-.407a41.804 41.804 0 0 0-.247-6.202c-.034-.293-.027-.667.243-.786-.807-2.596-1.621-5.232-1.699-7.949-.023-.852-.038-1.844-.72-2.357-.48-.361-1.136-.351-1.736-.326-1.209.051-2.508-.03-3.691.247-.503.118-1.011.294-1.502.455-.5.165-1.356.755-1.854.755"/>
        <path fill="#AA8985" d="M16.08 28.337c.618.36 1.214.804 1.57 1.422.543.943.432 2.15-.018 3.14-.451.99-1.2 1.81-1.936 2.613l-1.775 1.932c-.17-.62-.934-.936-1.103-1.557-.123-.449.11-.923.422-1.27.311-.345.704-.613 1.005-.97.63-.745.772-1.865.35-2.744-.422-.88-1.386-1.471-2.365-1.451-.214.004-.453.027-.616-.112-.093-.079-.141-.198-.18-.313-1.073-3.28 3.3-1.472 4.646-.69"/>
        <path fill="#353828" d="M10.71 22.778c.269-.94.08-1.951-.227-2.88-.221-.667-.55-1.367-1.181-1.682-.322-.16-.69-.202-1.05-.223-.882-.05-1.786.01-2.606.338-.819.33-1.547.951-1.857 1.775-.271.72-.205 1.523-.05 2.277.128.62.326 1.254.762 1.715.466.495 1.155.733 1.833.787 1.671.132 3.845-.255 4.376-2.107"/>
        <path fill="#071103" d="M4.257 21.212c-.644.308-1.315.637-1.739 1.21-.285.387-.436.856-.53 1.327-.22 1.104-.153 2.263-.508 3.332.436.377 1.143.26 1.59-.103.45-.363.702-.907.942-1.43.24-.523.5-1.065.955-1.419.282-.22.632-.36.864-.632.254-.299.325-.732.216-1.11-.255-.885-.86-1.62-1.79-1.175"/>
        <path fill="#F7E0C4" d="M27.037 29.828c-.049.368-.087.783.148 1.072.54.664 2.714.41 3.343-.007.587-.39.521-.982.2-1.552-.905-1.615-3.428-1.467-3.69.487"/>
        <path fill="#B78865" d="M31.35 9.562c-.18.27-.226.605-.258.927-.257 2.582.115 5.18.174 7.775.058 2.594-.24 5.313-1.673 7.48-.177.267-.373.531-.453.84-.079.304-.038.624.007.934.08.54.172 1.08.279 1.617.084.422.196.876.53 1.15.279.227.657.284 1.016.306 1.349.082 2.83-.283 3.64-1.36.419-.554.617-1.239.8-1.909.82-3.013 1.492-6.1 1.457-9.223-.025-2.33-.463-4.69-1.476-6.802-.344-.716-.756-1.742-1.524-2.102-.73-.34-2.03-.373-2.52.367"/>
        <path fill="#47301D" d="M30.9 6.882c.17-.352.17-.757.244-1.14.127-.662.474-1.26.701-1.894.357-.994.4-2.164-.173-3.054-.234-.366-.586-.68-1.012-.767-.335-.069-.68.007-1.013.085-.58.137-1.156.284-1.73.44-.726.198-1.492.44-1.966 1.021-.349.427-.49.982-.584 1.525-.154.891-.203 1.8-.145 2.704.027.422.091.875.38 1.185.423.454 1.137.427 1.757.393.72-.039 1.442-.041 2.163-.008.538.025 1.1.083 1.378-.49"/>
    </g>
</svg>
