<svg xmlns="http://www.w3.org/2000/svg" xmlns:xlink="http://www.w3.org/1999/xlink" width="35" height="47" viewBox="0 0 35 47">
    <defs>
        <path id="a" d="M.11.052h7.457v7.43H.11z"/>
        <path id="c" d="M7.925.363c-1.342.36-2.197 1.841-2.83 2.948C3.63 6.205 3.271 9.51 2.485 12.656 1.797 15.416.77 18.082.108 20.847c-.169.707-.215 1.642.437 1.964.69.34 1.423-.356 1.869-.984.582-.821 1.145-1.667 1.513-2.604.365-.932.527-1.928.757-2.903.473-2.01 1.24-3.939 2.003-5.859C6.567 12.69 5.52 14.778 5.3 17c-.119 1.195.005 2.4.128 3.595L5.77 23.9c.066.64.132 1.28.262 1.91.165.798.432 1.574.792 2.304.143.29.309.581.571.768.338.241.777.27 1.192.286 1.562.057 3.128.026 4.687-.092.815-.062 1.664-.16 2.343-.615.946-.634 1.352-1.813 1.57-2.93.557-2.828.311-5.76.763-8.607.234-1.47.653-2.913.763-4.398.24-3.233-.998-6.4-2.567-9.236-.616-1.115-1.39-2.282-2.605-2.66-.472-.146-.973-.159-1.466-.17C11.19.436 10.082.234 9.079.234c-.41 0-.802.034-1.154.128"/>
        <path id="e" d="M7.925.363c-1.342.36-2.197 1.841-2.83 2.948C3.63 6.205 3.271 9.51 2.485 12.656 1.797 15.416.77 18.082.108 20.847c-.169.707-.215 1.642.437 1.964.69.34 1.423-.356 1.869-.984.582-.821 1.145-1.667 1.513-2.604.365-.932.527-1.928.757-2.903.473-2.01 1.24-3.939 2.003-5.859C6.567 12.69 5.52 14.778 5.3 17c-.119 1.195.005 2.4.128 3.595L5.77 23.9c.066.64.132 1.28.262 1.91.165.798.432 1.574.792 2.304.143.29.309.581.571.768.338.241.777.27 1.192.286 1.562.057 3.128.026 4.687-.092.815-.062 1.664-.16 2.343-.615.946-.634 1.352-1.813 1.57-2.93.557-2.828.311-5.76.763-8.607.234-1.47.653-2.913.763-4.398.24-3.233-.998-6.4-2.567-9.236-.616-1.115-1.39-2.282-2.605-2.66-.472-.146-.973-.159-1.466-.17C11.19.436 10.082.234 9.079.234c-.41 0-.802.034-1.154.128"/>
        <path id="g" d="M7.925.363c-1.342.36-2.197 1.841-2.83 2.948C3.63 6.205 3.271 9.51 2.485 12.656 1.797 15.416.77 18.082.108 20.847c-.169.707-.215 1.642.437 1.964.69.34 1.423-.356 1.869-.984.582-.821 1.145-1.667 1.513-2.604.365-.932.527-1.928.757-2.903.473-2.01 1.24-3.939 2.003-5.859C6.567 12.69 5.52 14.778 5.3 17c-.119 1.195.005 2.4.128 3.595L5.77 23.9c.066.64.132 1.28.262 1.91.165.798.432 1.574.792 2.304.143.29.309.581.571.768.338.241.777.27 1.192.286 1.562.057 3.128.026 4.687-.092.815-.062 1.664-.16 2.343-.615.946-.634 1.352-1.813 1.57-2.93.557-2.828.311-5.76.763-8.607.234-1.47.653-2.913.763-4.398.24-3.233-.998-6.4-2.567-9.236-.616-1.115-1.39-2.282-2.605-2.66-.472-.146-.973-.159-1.466-.17C11.19.436 10.082.234 9.079.234c-.41 0-.802.034-1.154.128"/>
        <path id="i" d="M7.925.363c-1.342.36-2.197 1.841-2.83 2.948C3.63 6.205 3.271 9.51 2.485 12.656 1.797 15.416.77 18.082.108 20.847c-.169.707-.215 1.642.437 1.964.69.34 1.423-.356 1.869-.984.582-.821 1.145-1.667 1.513-2.604.365-.932.527-1.928.757-2.903.473-2.01 1.24-3.939 2.003-5.859C6.567 12.69 5.52 14.778 5.3 17c-.119 1.195.005 2.4.128 3.595L5.77 23.9c.066.64.132 1.28.262 1.91.165.798.432 1.574.792 2.304.143.29.309.581.571.768.338.241.777.27 1.192.286 1.562.057 3.128.026 4.687-.092.815-.062 1.664-.16 2.343-.615.946-.634 1.352-1.813 1.57-2.93.557-2.828.311-5.76.763-8.607.234-1.47.653-2.913.763-4.398.24-3.233-.998-6.4-2.567-9.236-.616-1.115-1.39-2.282-2.605-2.66-.472-.146-.973-.159-1.466-.17C11.19.436 10.082.234 9.079.234c-.41 0-.802.034-1.154.128"/>
        <path id="k" d="M7.925.363c-1.342.36-2.197 1.841-2.83 2.948C3.63 6.205 3.271 9.51 2.485 12.656 1.797 15.416.77 18.082.108 20.847c-.169.707-.215 1.642.437 1.964.69.34 1.423-.356 1.869-.984.582-.821 1.145-1.667 1.513-2.604.365-.932.527-1.928.757-2.903.473-2.01 1.24-3.939 2.003-5.859C6.567 12.69 5.52 14.778 5.3 17c-.119 1.195.005 2.4.128 3.595L5.77 23.9c.066.64.132 1.28.262 1.91.165.798.432 1.574.792 2.304.143.29.309.581.571.768.338.241.777.27 1.192.286 1.562.057 3.128.026 4.687-.092.815-.062 1.664-.16 2.343-.615.946-.634 1.352-1.813 1.57-2.93.557-2.828.311-5.76.763-8.607.234-1.47.653-2.913.763-4.398.24-3.233-.998-6.4-2.567-9.236-.616-1.115-1.39-2.282-2.605-2.66-.472-.146-.973-.159-1.466-.17C11.19.436 10.082.234 9.079.234c-.41 0-.802.034-1.154.128"/>
        <path id="m" d="M7.925.363c-1.342.36-2.197 1.841-2.83 2.948C3.63 6.205 3.271 9.51 2.485 12.656 1.797 15.416.77 18.082.108 20.847c-.169.707-.215 1.642.437 1.964.69.34 1.423-.356 1.869-.984.582-.821 1.145-1.667 1.513-2.604.365-.932.527-1.928.757-2.903.473-2.01 1.24-3.939 2.003-5.859C6.567 12.69 5.52 14.778 5.3 17c-.119 1.195.005 2.4.128 3.595L5.77 23.9c.066.64.132 1.28.262 1.91.165.798.432 1.574.792 2.304.143.29.309.581.571.768.338.241.777.27 1.192.286 1.562.057 3.128.026 4.687-.092.815-.062 1.664-.16 2.343-.615.946-.634 1.352-1.813 1.57-2.93.557-2.828.311-5.76.763-8.607.234-1.47.653-2.913.763-4.398.24-3.233-.998-6.4-2.567-9.236-.616-1.115-1.39-2.282-2.605-2.66-.472-.146-.973-.159-1.466-.17C11.19.436 10.082.234 9.079.234c-.41 0-.802.034-1.154.128"/>
        <path id="o" d="M7.925.363c-1.342.36-2.197 1.841-2.83 2.948C3.63 6.205 3.271 9.51 2.485 12.656 1.797 15.416.77 18.082.108 20.847c-.169.707-.215 1.642.437 1.964.69.34 1.423-.356 1.869-.984.582-.821 1.145-1.667 1.513-2.604.365-.932.527-1.928.757-2.903.473-2.01 1.24-3.939 2.003-5.859C6.567 12.69 5.52 14.778 5.3 17c-.119 1.195.005 2.4.128 3.595L5.77 23.9c.066.64.132 1.28.262 1.91.165.798.432 1.574.792 2.304.143.29.309.581.571.768.338.241.777.27 1.192.286 1.562.057 3.128.026 4.687-.092.815-.062 1.664-.16 2.343-.615.946-.634 1.352-1.813 1.57-2.93.557-2.828.311-5.76.763-8.607.234-1.47.653-2.913.763-4.398.24-3.233-.998-6.4-2.567-9.236-.616-1.115-1.39-2.282-2.605-2.66-.472-.146-.973-.159-1.466-.17C11.19.436 10.082.234 9.079.234c-.41 0-.802.034-1.154.128"/>
        <path id="q" d="M7.925.363c-1.342.36-2.197 1.841-2.83 2.948C3.63 6.205 3.271 9.51 2.485 12.656 1.797 15.416.77 18.082.108 20.847c-.169.707-.215 1.642.437 1.964.69.34 1.423-.356 1.869-.984.582-.821 1.145-1.667 1.513-2.604.365-.932.527-1.928.757-2.903.473-2.01 1.24-3.939 2.003-5.859C6.567 12.69 5.52 14.778 5.3 17c-.119 1.195.005 2.4.128 3.595L5.77 23.9c.066.64.132 1.28.262 1.91.165.798.432 1.574.792 2.304.143.29.309.581.571.768.338.241.777.27 1.192.286 1.562.057 3.128.026 4.687-.092.815-.062 1.664-.16 2.343-.615.946-.634 1.352-1.813 1.57-2.93.557-2.828.311-5.76.763-8.607.234-1.47.653-2.913.763-4.398.24-3.233-.998-6.4-2.567-9.236-.616-1.115-1.39-2.282-2.605-2.66-.472-.146-.973-.159-1.466-.17C11.19.436 10.082.234 9.079.234c-.41 0-.802.034-1.154.128"/>
        <path id="s" d="M7.925.363c-1.342.36-2.197 1.841-2.83 2.948C3.63 6.205 3.271 9.51 2.485 12.656 1.797 15.416.77 18.082.108 20.847c-.169.707-.215 1.642.437 1.964.69.34 1.423-.356 1.869-.984.582-.821 1.145-1.667 1.513-2.604.365-.932.527-1.928.757-2.903.473-2.01 1.24-3.939 2.003-5.859C6.567 12.69 5.52 14.778 5.3 17c-.119 1.195.005 2.4.128 3.595L5.77 23.9c.066.64.132 1.28.262 1.91.165.798.432 1.574.792 2.304.143.29.309.581.571.768.338.241.777.27 1.192.286 1.562.057 3.128.026 4.687-.092.815-.062 1.664-.16 2.343-.615.946-.634 1.352-1.813 1.57-2.93.557-2.828.311-5.76.763-8.607.234-1.47.653-2.913.763-4.398.24-3.233-.998-6.4-2.567-9.236-.616-1.115-1.39-2.282-2.605-2.66-.472-.146-.973-.159-1.466-.17C11.19.436 10.082.234 9.079.234c-.41 0-.802.034-1.154.128"/>
        <path id="u" d="M7.925.363c-1.342.36-2.197 1.841-2.83 2.948C3.63 6.205 3.271 9.51 2.485 12.656 1.797 15.416.77 18.082.108 20.847c-.169.707-.215 1.642.437 1.964.69.34 1.423-.356 1.869-.984.582-.821 1.145-1.667 1.513-2.604.365-.932.527-1.928.757-2.903.473-2.01 1.24-3.939 2.003-5.859C6.567 12.69 5.52 14.778 5.3 17c-.119 1.195.005 2.4.128 3.595L5.77 23.9c.066.64.132 1.28.262 1.91.165.798.432 1.574.792 2.304.143.29.309.581.571.768.338.241.777.27 1.192.286 1.562.057 3.128.026 4.687-.092.815-.062 1.664-.16 2.343-.615.946-.634 1.352-1.813 1.57-2.93.557-2.828.311-5.76.763-8.607.234-1.47.653-2.913.763-4.398.24-3.233-.998-6.4-2.567-9.236-.616-1.115-1.39-2.282-2.605-2.66-.472-.146-.973-.159-1.466-.17C11.19.436 10.082.234 9.079.234c-.41 0-.802.034-1.154.128"/>
        <path id="w" d="M7.925.363c-1.342.36-2.197 1.841-2.83 2.948C3.63 6.205 3.271 9.51 2.485 12.656 1.797 15.416.77 18.082.108 20.847c-.169.707-.215 1.642.437 1.964.69.34 1.423-.356 1.869-.984.582-.821 1.145-1.667 1.513-2.604.365-.932.527-1.928.757-2.903.473-2.01 1.24-3.939 2.003-5.859C6.567 12.69 5.52 14.778 5.3 17c-.119 1.195.005 2.4.128 3.595L5.77 23.9c.066.64.132 1.28.262 1.91.165.798.432 1.574.792 2.304.143.29.309.581.571.768.338.241.777.27 1.192.286 1.562.057 3.128.026 4.687-.092.815-.062 1.664-.16 2.343-.615.946-.634 1.352-1.813 1.57-2.93.557-2.828.311-5.76.763-8.607.234-1.47.653-2.913.763-4.398.24-3.233-.998-6.4-2.567-9.236-.616-1.115-1.39-2.282-2.605-2.66-.472-.146-.973-.159-1.466-.17C11.19.436 10.082.234 9.079.234c-.41 0-.802.034-1.154.128"/>
        <path id="y" d="M7.925.363c-1.342.36-2.197 1.841-2.83 2.948C3.63 6.205 3.271 9.51 2.485 12.656 1.797 15.416.77 18.082.108 20.847c-.169.707-.215 1.642.437 1.964.69.34 1.423-.356 1.869-.984.582-.821 1.145-1.667 1.513-2.604.365-.932.527-1.928.757-2.903.473-2.01 1.24-3.939 2.003-5.859C6.567 12.69 5.52 14.778 5.3 17c-.119 1.195.005 2.4.128 3.595L5.77 23.9c.066.64.132 1.28.262 1.91.165.798.432 1.574.792 2.304.143.29.309.581.571.768.338.241.777.27 1.192.286 1.562.057 3.128.026 4.687-.092.815-.062 1.664-.16 2.343-.615.946-.634 1.352-1.813 1.57-2.93.557-2.828.311-5.76.763-8.607.234-1.47.653-2.913.763-4.398.24-3.233-.998-6.4-2.567-9.236-.616-1.115-1.39-2.282-2.605-2.66-.472-.146-.973-.159-1.466-.17C11.19.436 10.082.234 9.079.234c-.41 0-.802.034-1.154.128"/>
        <path id="A" d="M7.925.363c-1.342.36-2.197 1.841-2.83 2.948C3.63 6.205 3.271 9.51 2.485 12.656 1.797 15.416.77 18.082.108 20.847c-.169.707-.215 1.642.437 1.964.69.34 1.423-.356 1.869-.984.582-.821 1.145-1.667 1.513-2.604.365-.932.527-1.928.757-2.903.473-2.01 1.24-3.939 2.003-5.859C6.567 12.69 5.52 14.778 5.3 17c-.119 1.195.005 2.4.128 3.595L5.77 23.9c.066.64.132 1.28.262 1.91.165.798.432 1.574.792 2.304.143.29.309.581.571.768.338.241.777.27 1.192.286 1.562.057 3.128.026 4.687-.092.815-.062 1.664-.16 2.343-.615.946-.634 1.352-1.813 1.57-2.93.557-2.828.311-5.76.763-8.607.234-1.47.653-2.913.763-4.398.24-3.233-.998-6.4-2.567-9.236-.616-1.115-1.39-2.282-2.605-2.66-.472-.146-.973-.159-1.466-.17C11.19.436 10.082.234 9.079.234c-.41 0-.802.034-1.154.128"/>
        <path id="C" d="M7.925.363c-1.342.36-2.197 1.841-2.83 2.948C3.63 6.205 3.271 9.51 2.485 12.656 1.797 15.416.77 18.082.108 20.847c-.169.707-.215 1.642.437 1.964.69.34 1.423-.356 1.869-.984.582-.821 1.145-1.667 1.513-2.604.365-.932.527-1.928.757-2.903.473-2.01 1.24-3.939 2.003-5.859C6.567 12.69 5.52 14.778 5.3 17c-.119 1.195.005 2.4.128 3.595L5.77 23.9c.066.64.132 1.28.262 1.91.165.798.432 1.574.792 2.304.143.29.309.581.571.768.338.241.777.27 1.192.286 1.562.057 3.128.026 4.687-.092.815-.062 1.664-.16 2.343-.615.946-.634 1.352-1.813 1.57-2.93.557-2.828.311-5.76.763-8.607.234-1.47.653-2.913.763-4.398.24-3.233-.998-6.4-2.567-9.236-.616-1.115-1.39-2.282-2.605-2.66-.472-.146-.973-.159-1.466-.17C11.19.436 10.082.234 9.079.234c-.41 0-.802.034-1.154.128"/>
        <path id="E" d="M7.925.363c-1.342.36-2.197 1.841-2.83 2.948C3.63 6.205 3.271 9.51 2.485 12.656 1.797 15.416.77 18.082.108 20.847c-.169.707-.215 1.642.437 1.964.69.34 1.423-.356 1.869-.984.582-.821 1.145-1.667 1.513-2.604.365-.932.527-1.928.757-2.903.473-2.01 1.24-3.939 2.003-5.859C6.567 12.69 5.52 14.778 5.3 17c-.119 1.195.005 2.4.128 3.595L5.77 23.9c.066.64.132 1.28.262 1.91.165.798.432 1.574.792 2.304.143.29.309.581.571.768.338.241.777.27 1.192.286 1.562.057 3.128.026 4.687-.092.815-.062 1.664-.16 2.343-.615.946-.634 1.352-1.813 1.57-2.93.557-2.828.311-5.76.763-8.607.234-1.47.653-2.913.763-4.398.24-3.233-.998-6.4-2.567-9.236-.616-1.115-1.39-2.282-2.605-2.66-.472-.146-.973-.159-1.466-.17C11.19.436 10.082.234 9.079.234c-.41 0-.802.034-1.154.128"/>
        <path id="G" d="M7.925.363c-1.342.36-2.197 1.841-2.83 2.948C3.63 6.205 3.271 9.51 2.485 12.656 1.797 15.416.77 18.082.108 20.847c-.169.707-.215 1.642.437 1.964.69.34 1.423-.356 1.869-.984.582-.821 1.145-1.667 1.513-2.604.365-.932.527-1.928.757-2.903.473-2.01 1.24-3.939 2.003-5.859C6.567 12.69 5.52 14.778 5.3 17c-.119 1.195.005 2.4.128 3.595L5.77 23.9c.066.64.132 1.28.262 1.91.165.798.432 1.574.792 2.304.143.29.309.581.571.768.338.241.777.27 1.192.286 1.562.057 3.128.026 4.687-.092.815-.062 1.664-.16 2.343-.615.946-.634 1.352-1.813 1.57-2.93.557-2.828.311-5.76.763-8.607.234-1.47.653-2.913.763-4.398.24-3.233-.998-6.4-2.567-9.236-.616-1.115-1.39-2.282-2.605-2.66-.472-.146-.973-.159-1.466-.17C11.19.436 10.082.234 9.079.234c-.41 0-.802.034-1.154.128"/>
        <path id="I" d="M7.925.363c-1.342.36-2.197 1.841-2.83 2.948C3.63 6.205 3.271 9.51 2.485 12.656 1.797 15.416.77 18.082.108 20.847c-.169.707-.215 1.642.437 1.964.69.34 1.423-.356 1.869-.984.582-.821 1.145-1.667 1.513-2.604.365-.932.527-1.928.757-2.903.473-2.01 1.24-3.939 2.003-5.859C6.567 12.69 5.52 14.778 5.3 17c-.119 1.195.005 2.4.128 3.595L5.77 23.9c.066.64.132 1.28.262 1.91.165.798.432 1.574.792 2.304.143.29.309.581.571.768.338.241.777.27 1.192.286 1.562.057 3.128.026 4.687-.092.815-.062 1.664-.16 2.343-.615.946-.634 1.352-1.813 1.57-2.93.557-2.828.311-5.76.763-8.607.234-1.47.653-2.913.763-4.398.24-3.233-.998-6.4-2.567-9.236-.616-1.115-1.39-2.282-2.605-2.66-.472-.146-.973-.159-1.466-.17C11.19.436 10.082.234 9.079.234c-.41 0-.802.034-1.154.128"/>
        <path id="K" d="M7.925.363c-1.342.36-2.197 1.841-2.83 2.948C3.63 6.205 3.271 9.51 2.485 12.656 1.797 15.416.77 18.082.108 20.847c-.169.707-.215 1.642.437 1.964.69.34 1.423-.356 1.869-.984.582-.821 1.145-1.667 1.513-2.604.365-.932.527-1.928.757-2.903.473-2.01 1.24-3.939 2.003-5.859C6.567 12.69 5.52 14.778 5.3 17c-.119 1.195.005 2.4.128 3.595L5.77 23.9c.066.64.132 1.28.262 1.91.165.798.432 1.574.792 2.304.143.29.309.581.571.768.338.241.777.27 1.192.286 1.562.057 3.128.026 4.687-.092.815-.062 1.664-.16 2.343-.615.946-.634 1.352-1.813 1.57-2.93.557-2.828.311-5.76.763-8.607.234-1.47.653-2.913.763-4.398.24-3.233-.998-6.4-2.567-9.236-.616-1.115-1.39-2.282-2.605-2.66-.472-.146-.973-.159-1.466-.17C11.19.436 10.082.234 9.079.234c-.41 0-.802.034-1.154.128"/>
        <path id="M" d="M7.925.363c-1.342.36-2.197 1.841-2.83 2.948C3.63 6.205 3.271 9.51 2.485 12.656 1.797 15.416.77 18.082.108 20.847c-.169.707-.215 1.642.437 1.964.69.34 1.423-.356 1.869-.984.582-.821 1.145-1.667 1.513-2.604.365-.932.527-1.928.757-2.903.473-2.01 1.24-3.939 2.003-5.859C6.567 12.69 5.52 14.778 5.3 17c-.119 1.195.005 2.4.128 3.595L5.77 23.9c.066.64.132 1.28.262 1.91.165.798.432 1.574.792 2.304.143.29.309.581.571.768.338.241.777.27 1.192.286 1.562.057 3.128.026 4.687-.092.815-.062 1.664-.16 2.343-.615.946-.634 1.352-1.813 1.57-2.93.557-2.828.311-5.76.763-8.607.234-1.47.653-2.913.763-4.398.24-3.233-.998-6.4-2.567-9.236-.616-1.115-1.39-2.282-2.605-2.66-.472-.146-.973-.159-1.466-.17C11.19.436 10.082.234 9.079.234c-.41 0-.802.034-1.154.128"/>
        <path id="O" d="M7.925.363c-1.342.36-2.197 1.841-2.83 2.948C3.63 6.205 3.271 9.51 2.485 12.656 1.797 15.416.77 18.082.108 20.847c-.169.707-.215 1.642.437 1.964.69.34 1.423-.356 1.869-.984.582-.821 1.145-1.667 1.513-2.604.365-.932.527-1.928.757-2.903.473-2.01 1.24-3.939 2.003-5.859C6.567 12.69 5.52 14.778 5.3 17c-.119 1.195.005 2.4.128 3.595L5.77 23.9c.066.64.132 1.28.262 1.91.165.798.432 1.574.792 2.304.143.29.309.581.571.768.338.241.777.27 1.192.286 1.562.057 3.128.026 4.687-.092.815-.062 1.664-.16 2.343-.615.946-.634 1.352-1.813 1.57-2.93.557-2.828.311-5.76.763-8.607.234-1.47.653-2.913.763-4.398.24-3.233-.998-6.4-2.567-9.236-.616-1.115-1.39-2.282-2.605-2.66-.472-.146-.973-.159-1.466-.17C11.19.436 10.082.234 9.079.234c-.41 0-.802.034-1.154.128"/>
    </defs>
    <g fill="none" fill-rule="evenodd">
        <path fill="#A9ADB5" d="M12.842 44.628c.295.138.372.514.411.837a.523.523 0 0 1-.014.27c-.05.117-.175.181-.29.234a14.897 14.897 0 0 1-2.034.747.52.52 0 0 1-.247.03.533.533 0 0 1-.227-.137c-.661-.57-1.255-1.359-.236-1.878.69-.352 1.926-.435 2.637-.103M16.15 45.086c.526.066 1.1.36 1.199.882a.434.434 0 0 1-.003.204.477.477 0 0 1-.12.185c-.406.43-1.047.52-1.637.573a2.202 2.202 0 0 1-.488.006 1.153 1.153 0 0 1-.92-.765c-.465-1.42 1.132-1.191 1.968-1.085"/>
        <path fill="#BF9D95" d="M30.942 42.72c.266.101.399.431.334.71-.064.277-.286.498-.538.63-.253.132-.537.188-.817.244l-.43.084c-.803.158-1.108-.746-.53-1.242.347-.296 1.579-.577 1.98-.425M23.938 44.218l1.402-.296c.049-.01.102-.02.147.002.028.014.05.04.069.066.164.227.18.553.038.795-.101.173-.268.296-.433.41-.264.181-.545.356-.861.408-.316.053-.677-.044-.854-.31-.178-.268-.078-.703.228-.797.104-.033.222-.027.31-.09"/>
        <path fill="#071E1C" d="M23.392 44.574c.009.1.023.211.097.28.108.097.277.056.415.009.143-.05.286-.098.43-.147.101-.035.208-.074.275-.159.09-.117.074-.281.064-.429-.05-.796.236-1.57.35-2.36.125-.857.048-1.729-.029-2.592-.495-.01-1.237.02-1.673.292-.457.284-.315.696-.272 1.188l.343 3.918M28.83 43.603c.317-.081.622-.202.908-.358a.704.704 0 0 0 .227-.17c.162-.207.077-.506-.007-.755-.472-1.389-.622-2.775-.747-4.223-.865.088-1.36.66-1.213 1.514.228 1.337.612 2.649.833 3.992"/>
        <path fill="#516660" d="M14.091 45.708c.573.182 1.221-.057 1.641-.487.42-.43.64-1.018.752-1.609.188-.99.1-2.012-.006-3.015a94.137 94.137 0 0 0-.557-4.319c-.025-.165-.07-.356-.22-.427-.09-.041-.194-.029-.291-.015-.595.087-2.114.056-2.127.807-.007.38.362.947.472 1.32.148.5.256 1.009.336 1.523.32 2.058.163 4.157 0 6.222M11.477 44.203c-.107.293-.232.591-.459.806-.25.237-.597.346-.939.38-.157.015-.328.012-.454-.083-.138-.106-.18-.292-.213-.463-.42-2.184-.84-4.379-.897-6.602-.013-.506-.005-1.025.171-1.5.051-.139.12-.277.241-.361.126-.088.288-.102.44-.114.71-.053 1.77-.423 2.182.253.403.662.479 1.792.556 2.547.176 1.722-.022 3.512-.628 5.137"/>
        <path fill="#856F60" d="M11.373 2.263c.121-.184.32-.333.542-.333.242 0 .456.178.564.394.11.215.131.464.139.705a7.314 7.314 0 0 1-1.186 4.215c-.181.276-.385.544-.654.737-.267.193-.587.301-.906.387-.543.147-1.112.236-1.669.153-.556-.083-1.102-.354-1.426-.814a.379.379 0 0 1-.077-.162c-.026-.194.197-.316.379-.386 1.217-.474 2.16-1.255 3.043-2.196.269-.286.542-.526.693-.898.231-.57.215-1.28.558-1.802"/>
        <g transform="translate(4.406 .192)">
            <mask id="b" fill="#fff">
                <use xlink:href="#a"/>
            </mask>
            <path fill="#E1846A" d="M6.149.984C5.473.665 4.72.558 3.989.41 2.957.2 1.89-.1.866.145a.647.647 0 0 0-.258.109C.513.329.462.446.42.56.066 1.514.03 2.57.233 3.568c.203.997.64 1.938 1.198 2.789.31.471.699.946 1.246 1.084.457.115.942-.031 1.362-.248.42-.216.8-.502 1.23-.697.294-.133.61-.224.87-.415.321-.236.52-.599.71-.95.391-.723.733-1.273.718-2.104-.018-.972-.586-1.606-1.418-2.043" mask="url(#b)"/>
        </g>
        <path fill="#E0A16C" d="M18.285 10.984c-1.74 3.69-.955 8.015-1.384 12.072-.092.869-.235 1.787.117 2.587.351.8 1.437 1.342 2.125.803a29.43 29.43 0 0 0-.097 11.631c.116.597.28 1.24.758 1.616.512.402 1.228.38 1.877.327 1.87-.15 3.734-.386 5.582-.708.928-.162 1.93-.39 2.523-1.122.356-.439.513-1.003.656-1.55a82.407 82.407 0 0 0 1.967-10.147c-.168.86.991 1.63 1.718 1.14.592-.397.666-1.225.67-1.938a64.582 64.582 0 0 0-1.07-11.982c-.4-2.17-1.084-4.562-3-5.656-2.123-1.212-4.705-.345-6.976-.207-2.484.15-4.306.672-5.466 3.134"/>
        <path fill="#071E1C" d="M20.88 6.175c-.07 1.354.132 2.752.797 3.934 1.29-.25 2.602-.385 3.915-.404.191-.003.384-.004.569-.053.2-.053.379-.161.556-.267.882-.531 1.822-1.128 2.196-2.088.801-2.053.052-6.653-2.625-6.893-3.222-.29-5.26 2.962-5.408 5.771"/>
        <path fill="#CAD6E3" d="M5.094 10.847c-1.463 2.895-1.822 6.199-2.608 9.346-.689 2.759-1.716 5.425-2.378 8.19-.169.708-.215 1.642.437 1.964.69.34 1.424-.356 1.869-.984.582-.821 1.145-1.667 1.513-2.603.365-.933.527-1.93.757-2.904.473-2.01 1.24-3.939 2.003-5.858-.12 2.228-1.166 4.316-1.387 6.537-.12 1.195.005 2.4.128 3.595l.342 3.305c.066.64.132 1.28.262 1.91a9.6 9.6 0 0 0 .792 2.304c.143.29.309.581.571.768.338.241.777.27 1.192.286 1.562.057 3.128.026 4.687-.092.815-.062 1.665-.16 2.343-.615.946-.633 1.352-1.813 1.57-2.93.557-2.828.311-5.76.763-8.607.234-1.47.653-2.913.763-4.398.24-3.232-.998-6.4-2.567-9.236-.616-1.114-1.39-2.282-2.605-2.66-.472-.146-.973-.159-1.466-.17-1.246-.03-2.938-.421-4.15-.096-1.342.36-2.196 1.841-2.83 2.948"/>
        <g>
            <g transform="translate(0 7.536)">
                <mask id="d" fill="#fff">
                    <use xlink:href="#c"/>
                </mask>
                <path fill="#909CA9" d="M8.1 7.26c-1.242-1.12-2.936-.743-4.453-.583-.47.05-.316.769.15.72 1.19-.127 2.768-.539 3.759.355.347.314.896-.175.544-.492" mask="url(#d)"/>
            </g>
            <g transform="translate(0 7.536)">
                <mask id="f" fill="#fff">
                    <use xlink:href="#e"/>
                </mask>
                <path fill="#909CA9" d="M8.505 6.515C8.272 4.76 5.61 5.178 4.681 4.095c-.308-.36-.853.132-.545.492.436.508 1.02.748 1.65.933.607.179 1.895.35 2 1.145.062.469.781.316.72-.15" mask="url(#f)"/>
            </g>
            <g transform="translate(0 7.536)">
                <mask id="h" fill="#fff">
                    <use xlink:href="#g"/>
                </mask>
                <path fill="#909CA9" d="M7.12 9.217a5.165 5.165 0 0 0-1.885-.657c-.846-.113-1.639.152-2.479.124-.472-.016-.519.717-.046.733.674.023 1.323-.175 1.995-.162a4.206 4.206 0 0 1 2.014.576c.409.233.814-.38.402-.614" mask="url(#h)"/>
            </g>
            <g transform="translate(0 7.536)">
                <mask id="j" fill="#fff">
                    <use xlink:href="#i"/>
                </mask>
                <path fill="#909CA9" d="M6.395 11.85c-.827-1.605-2.59-1.31-4.124-1.29-.47.006-.519.74-.046.733 1.185-.016 2.863-.377 3.516.893.216.42.87.086.654-.336" mask="url(#j)"/>
            </g>
            <g transform="translate(0 7.536)">
                <mask id="l" fill="#fff">
                    <use xlink:href="#k"/>
                </mask>
                <path fill="#909CA9" d="M5.91 13.425c-.713-1.573-2.58-1.036-3.92-1.018-.47.006-.519.739-.046.733 1.013-.014 2.762-.593 3.313.62.195.431.848.095.653-.335" mask="url(#l)"/>
            </g>
            <g transform="translate(0 7.536)">
                <mask id="n" fill="#fff">
                    <use xlink:href="#m"/>
                </mask>
                <path fill="#909CA9" d="M5.028 15.956c-.912-.695-1.828-1.869-3.126-1.413-.44.155-.295.876.15.72 1.048-.37 1.84.747 2.574 1.307.377.287.777-.33.402-.614" mask="url(#n)"/>
            </g>
            <g transform="translate(0 7.536)">
                <mask id="p" fill="#fff">
                    <use xlink:href="#o"/>
                </mask>
                <path fill="#909CA9" d="M4.207 18.343a3.398 3.398 0 0 0-2.85-1.922c-.471-.03-.517.703-.045.734.978.062 1.82.64 2.242 1.524.203.426.857.09.653-.336" mask="url(#p)"/>
            </g>
            <g transform="translate(0 7.536)">
                <mask id="r" fill="#fff">
                    <use xlink:href="#q"/>
                </mask>
                <path fill="#909CA9" d="M3.614 19.88c-.89-.546-1.796-1.25-2.798-1.571-.45-.145-.684.552-.233.696.936.3 1.796.98 2.63 1.49.402.246.805-.368.401-.615" mask="url(#r)"/>
            </g>
            <g transform="translate(0 7.536)">
                <mask id="t" fill="#fff">
                    <use xlink:href="#s"/>
                </mask>
                <path fill="#909CA9" d="M16.252 3.309c-.85.251-1.508.254-2.37.145-.59-.076-1.1.002-1.578.368-.376.286.118.83.492.545.577-.44 1.316-.073 1.955-.05.567.021 1.113-.13 1.652-.29.45-.132.303-.853-.15-.718" mask="url(#t)"/>
            </g>
            <g transform="translate(0 7.536)">
                <mask id="v" fill="#fff">
                    <use xlink:href="#u"/>
                </mask>
                <path fill="#909CA9" d="M12.537 6.278c.984-.179 1.867-.435 2.845-.174.71.19 1.278.05 1.96-.193.443-.157.104-.81-.336-.653a2.88 2.88 0 0 1-1.045.232 4.515 4.515 0 0 1-.743-.23 2.95 2.95 0 0 0-.688-.063c-.71.022-1.446.236-2.144.362-.465.085-.314.804.15.72" mask="url(#v)"/>
            </g>
            <g transform="translate(0 7.536)">
                <mask id="x" fill="#fff">
                    <use xlink:href="#w"/>
                </mask>
                <path fill="#909CA9" d="M13.297 8.698c1.47-.956 3.315-.116 4.916-.672.44-.153.295-.873-.15-.719-1.679.583-3.531-.284-5.101.738-.392.255-.062.911.335.653" mask="url(#x)"/>
            </g>
            <g transform="translate(0 7.536)">
                <mask id="z" fill="#fff">
                    <use xlink:href="#y"/>
                </mask>
                <path fill="#909CA9" d="M14.565 11.203c1.35.027 2.689-.05 4.027-.227.468-.062.316-.78-.15-.718a25.198 25.198 0 0 1-3.83.212c-.472-.01-.52.723-.047.733" mask="url(#z)"/>
            </g>
            <g transform="translate(0 7.536)">
                <mask id="B" fill="#fff">
                    <use xlink:href="#A"/>
                </mask>
                <path fill="#909CA9" d="M19.086 14.084c-2.134-.42-3.73-2.21-5.964-2.287-.473-.016-.52.717-.047.733 2.14.073 3.716 1.845 5.778 2.25.458.091.696-.604.233-.696" mask="url(#B)"/>
            </g>
            <g transform="translate(0 7.536)">
                <mask id="D" fill="#fff">
                    <use xlink:href="#C"/>
                </mask>
                <path fill="#909CA9" d="M10.504 12.99c-1.564-.092-2.933.739-4.472.814-.468.023-.518.756-.047.733 1.53-.075 2.933-.904 4.473-.814.472.028.518-.705.046-.733" mask="url(#D)"/>
            </g>
            <g transform="translate(0 7.536)">
                <mask id="F" fill="#fff">
                    <use xlink:href="#E"/>
                </mask>
                <path fill="#909CA9" d="M5.618 15.966c2.034-.783 4.636-.377 6.789-.416 2.062-.038 4.046.493 6.017 1.04.455.126.69-.57.233-.697-2.197-.61-4.369-1.15-6.667-1.06-2.232.087-4.577-.341-6.708.48-.44.17-.101.821.336.653" mask="url(#F)"/>
            </g>
            <g transform="translate(0 7.536)">
                <mask id="H" fill="#fff">
                    <use xlink:href="#G"/>
                </mask>
                <path fill="#909CA9" d="M4.77 18.183c2.406.985 4.665.675 7.185.834 2.398.15 4.693 1.228 7.099.527.45-.131.304-.851-.15-.719-2.326.678-4.58-.396-6.903-.542-2.456-.154-4.642.168-6.998-.797-.439-.18-.669.519-.234.697" mask="url(#H)"/>
            </g>
            <g transform="translate(0 7.536)">
                <mask id="J" fill="#fff">
                    <use xlink:href="#I"/>
                </mask>
                <path fill="#909CA9" d="M18.66 21.339l-7.732-.012c-2.105-.003-4.69-.43-6.652.48-.429.198-.093.852.336.653 1.202-.557 2.563-.406 3.854-.404l3.382.005 6.765.01c.471.002.52-.731.046-.732" mask="url(#J)"/>
            </g>
            <g transform="translate(0 7.536)">
                <mask id="L" fill="#fff">
                    <use xlink:href="#K"/>
                </mask>
                <path fill="#909CA9" d="M5.114 25.374a25.417 25.417 0 0 1 7.184-.127c2.025.243 3.99.354 5.926-.397.44-.17.102-.823-.336-.654-2.246.873-4.566.402-6.877.157-2.054-.218-4.014-.015-6.047.302-.467.073-.315.792.15.72" mask="url(#L)"/>
            </g>
            <g transform="translate(0 7.536)">
                <mask id="N" fill="#fff">
                    <use xlink:href="#M"/>
                </mask>
                <path fill="#909CA9" d="M18.322 27.793l-7.441-.045c-2.198-.012-4.356-.017-6.435.783-.44.168-.102.821.335.653 2.23-.857 4.64-.71 6.984-.697l6.511.039c.471.003.52-.73.046-.733" mask="url(#N)"/>
            </g>
            <g transform="translate(0 7.536)">
                <mask id="P" fill="#fff">
                    <use xlink:href="#O"/>
                </mask>
                <path fill="#909CA9" d="M12.495-.351c-.404.377-.66.857-1.043 1.25-.96.991-1.848.676-2.966.16C7.38.55 6.166.49 4.966.55c-.467.024-.517.757-.046.733.975-.05 1.969-.036 2.9.294.738.261 1.313.818 2.128.814 1.548-.008 2.065-1.287 3.039-2.196.345-.322-.146-.869-.492-.545" mask="url(#P)"/>
            </g>
        </g>
        <path fill="#156B52" d="M11.654 12.027c-.09.147-.186.3-.337.384-.262.146-.588.033-.86-.096a8.518 8.518 0 0 1-2.988-2.363c-.284-.356-.745-.777-1.118-.515-.189.132-.24.4-.184.623.057.224.2.414.339.598l.827 1.089c.226.297.455.6.573.955.215.647.029 1.35-.115 2.016-.483 2.247-.39 4.775 1.001 6.604.276.362.61.698 1.034.863.36.141.757.149 1.145.15.778.004 1.581-.01 2.292-.325 1.072-.475 1.764-1.578 2.023-2.72.259-1.144.146-2.336-.004-3.499-.056-.437-.119-.88-.294-1.284-.348-.803-1.09-1.358-1.595-2.072a.66.66 0 0 1-.134-.282c-.045-.333.3-.748.403-1.058.117-.346.19-.713.192-1.079.002-.287-.047-1.364-.36-1.523-.343-.173-.467.91-.582 1.197-.331.823-.796 1.583-1.258 2.337"/>
    </g>
</svg>
