<?xml version="1.0" encoding="UTF-8"?>
<svg width="16px" height="50px" viewBox="0 0 16 50" version="1.1" xmlns="http://www.w3.org/2000/svg" xmlns:xlink="http://www.w3.org/1999/xlink">
    <!-- Generator: sketchtool 52.5 (67469) - http://www.bohemiancoding.com/sketch -->
    <title>D8FF93C6-0F3E-4DCE-B0CE-3E09955A0B5A</title>
    <desc>Created with sketchtool.</desc>
    <defs>
        <polygon id="path-1" points="0 0.163235294 6.0315593 0.163235294 6.0315593 7.54542419 0 7.54542419"></polygon>
        <polygon id="path-3" points="0 49.8367647 15.8757143 49.8367647 15.8757143 0.294117647 0 0.294117647"></polygon>
    </defs>
    <g id="Page-1" stroke="none" stroke-width="1" fill="none" fill-rule="evenodd">
        <g id="Final" transform="translate(-880.000000, -256.000000)">
            <g id="Group-26" transform="translate(880.000000, 256.000000)">
                <path d="M2.1196,7.04694118 C2.77845714,7.36341176 3.55417143,7.41311765 4.24588571,7.18311765 C4.31274286,7.16105882 4.38788571,7.13694118 4.44988571,7.17076471 C4.50102857,7.19841176 4.52702857,7.25694118 4.54931429,7.31135294 C4.83045714,8.00311765 5.0736,8.71135294 5.27702857,9.43135294 C5.29074286,9.48047059 5.30302857,9.53841176 5.27245714,9.57841176 C5.25102857,9.60752941 5.2136,9.61782353 5.17902857,9.62605882 C4.67902857,9.74076471 4.17045714,9.68664706 3.66388571,9.67752941 C3.38131429,9.67252941 2.73274286,9.84341176 2.48874286,9.68429412 C2.18302857,9.48429412 2.25588571,8.96782353 2.23302857,8.64605882 C2.22017143,8.46164706 2.23531429,7.10252941 2.1196,7.04694118" id="Fill-1" fill="#6C7A75"></path>
                <path d="M3.96474286,47.7445882 C3.97617143,47.8434118 3.99074286,47.9492941 4.05645714,48.0222353 C4.1316,48.1048824 4.25102857,48.1213529 4.36045714,48.1316471 C5.51988571,48.2407647 6.6876,48.2031176 7.8516,48.1651765 C8.1516,48.1551765 8.46731429,48.1407647 8.72102857,47.9766471 C8.9736,47.8137059 9.1276,47.444 8.95874286,47.1913529 C8.83445714,47.0054706 8.59502857,46.954 8.38045714,46.9081176 C7.5136,46.7237059 6.67388571,46.4022353 5.90102857,45.9578235 C5.76102857,45.8772353 5.62217143,45.7922353 5.47045714,45.7387059 C5.09502857,45.6057647 4.2596,45.5484118 3.9436,45.8813529 C3.58217143,46.2619412 3.91131429,47.2828235 3.96474286,47.7445882" id="Fill-3" fill="#1E231C"></path>
                <path d="M11.9460571,9.34473529 C11.3140571,10.1259118 10.6217714,10.9485588 9.6692,11.2176765 C9.24862857,11.3365 8.80548571,11.3367941 8.36891429,11.3273824 C7.6692,11.3123824 6.97005714,11.2747353 6.27291429,11.2135588 C5.69862857,11.1638529 5.01748571,11.0176765 4.80777143,10.4656176 C4.72691429,10.2532647 4.73605714,10.0176765 4.74605714,9.79002941 C4.75148571,9.66267647 4.76148571,9.52414706 4.84377143,9.42944118 C4.93862857,9.32002941 5.09605714,9.30444118 5.23805714,9.29767647 C7.41491429,9.19385294 8.74291429,8.50532353 10.5983429,7.44061765 C11.1457714,7.1265 12.0077714,6.82208824 12.6360571,7.06532353 C13.8494857,7.53473529 12.4172,8.76208824 11.9460571,9.34473529" id="Fill-5" fill="#298964"></path>
                <path d="M11.8068286,7.40394118 C11.6719714,7.01070588 11.9674,6.601 12.2874,6.34482353 C12.4976857,6.17658824 12.7371143,6.03070588 13.0022571,6.00070588 C13.2668286,5.97041176 13.5602571,6.07923529 13.6902571,6.31894118 C13.8451143,6.60364706 13.7279714,6.96894118 13.5382571,7.23041176 C13.3485429,7.49217647 13.0916857,7.69894118 12.9205429,7.97364706 C12.8719714,8.05188235 12.8254,8.14011765 12.7434,8.17894118 C12.6385429,8.22835294 12.5156857,8.17894118 12.4162571,8.11864706 C12.1894,7.98158824 11.9962571,7.786 11.8594,7.55482353" id="Fill-7" fill="#6C7A75"></path>
                <path d="M3.1916,44.1626176 C3.19388571,44.6220294 3.20674286,45.1058529 3.43788571,45.4985 C3.66902857,45.8911471 4.19845714,46.1364412 4.57674286,45.8932059 C4.94188571,45.6582059 4.9796,45.1364412 4.98331429,44.6929118 C5.03874286,38.2861471 6.32702857,31.8985 5.85045714,25.5099706 C5.88702857,25.9973235 3.1076,25.8640882 2.8416,26.4108529 C2.62702857,26.8517353 2.94074286,27.7302647 2.99845714,28.1887941 C3.09102857,28.9235 3.16045714,29.6617353 3.21245714,30.4008529 C3.4176,33.3182059 3.34102857,36.2461471 3.26817143,39.1670294 C3.22617143,40.8320294 3.1836,42.4970294 3.1916,44.1626176" id="Fill-9" fill="#E48C73"></path>
                <path d="M4.24571429,45.2816471 C4.27057143,45.6987059 4.30257143,46.1154706 4.33971429,46.5313529 C4.35771429,46.7328235 4.38057143,46.9445882 4.49714286,47.1072353 C4.684,47.3687059 5.03942857,47.4137059 5.354,47.4366471 C6.20857143,47.4992941 7.25914286,47.4575294 7.66085714,46.6784118 C7.77828571,46.4513529 7.81771429,46.1910588 7.85542857,45.9363529 C8.02771429,44.7731176 8.2,43.6092941 8.372,42.4460588 C9.27371429,36.3587059 10.1768571,30.1792941 9.448,24.0672353 L7.01542857,24.8478235 C6.36457143,25.0569412 5.23542857,25.1807647 4.69314286,25.5963529 C3.90085714,26.2042941 4.56571429,28.6813529 4.59257143,29.6669412 C4.68285714,33.0172353 4.38285714,36.3598824 4.24314286,39.704 C4.16542857,41.5704706 4.24571429,43.4181176 4.24571429,45.2816471" id="Fill-11" fill="#FFAB93"></path>
                <path d="M5.0052,49.8367353 C6.90434286,49.8037941 8.80377143,49.7702647 10.7029143,49.7373235 C10.7683429,49.7361471 10.8360571,49.7340882 10.8932,49.7020294 C10.9689143,49.6596765 11.0109143,49.5723235 11.0266286,49.4852647 C11.0740571,49.2255588 10.9249143,48.9620294 10.7214857,48.8008529 C10.5180571,48.6396765 10.2672,48.5582059 10.0246286,48.4711471 C9.32291429,48.2199706 8.64577143,47.8970294 8.00577143,47.5085 C7.80291429,47.3855588 7.59977143,47.2540882 7.37177143,47.1937941 C7.19834286,47.1476176 7.01691429,47.1446765 6.83777143,47.1420294 C6.4472,47.1358529 4.99634286,46.8770294 4.80177143,47.2973235 C4.68177143,47.5561471 4.86205714,48.2029118 4.88691429,48.4885 C4.92634286,48.9379118 4.96548571,49.3873235 5.0052,49.8367353" id="Fill-13" fill="#2E362B"></path>
                <path d="M5.99434286,6.05341176 C6.14691429,5.58047059 6.14891429,5.07047059 6.12205714,4.57282353 C6.09034286,3.98723529 6.02062857,3.40370588 5.91377143,2.82752941 C5.86005714,2.53841176 5.7852,2.23017647 5.56834286,2.03870588 C5.33805714,1.83488235 5.00891429,1.81547059 4.70548571,1.80605882 C4.10091429,1.78635294 3.46034286,1.77576471 2.93577143,2.08605882 C2.38977143,2.409 2.06462857,3.03782353 1.95834286,3.67694118 C1.85205714,4.31576471 1.93691429,4.97076471 2.04348571,5.60988235 C2.20862857,6.59870588 2.22862857,8.22752941 3.56491429,8.00635294 C4.57605714,7.83870588 5.6652,7.07458824 5.99434286,6.05341176" id="Fill-15" fill="#A88E7C"></path>
                <g id="Group-19" transform="translate(0.000000, 0.130882)">
                    <mask id="mask-2" fill="white">
                        <use xlink:href="#path-1"></use>
                    </mask>
                    <g id="Clip-18"></g>
                    <path d="M5.47562857,0.964470588 C5.38162857,0.768588235 5.28362857,0.567117647 5.12305714,0.424176471 C4.85077143,0.183 4.4602,0.158 4.10134286,0.163882353 C2.6562,0.188 1.04848571,0.650058824 0.347057143,1.95094118 C-0.113228571,2.80388235 -0.0809428571,3.86917647 0.2402,4.78711765 C0.561342857,5.70476471 1.14277143,6.49976471 1.75534286,7.24447059 C1.85648571,7.36770588 1.96934286,7.49623529 2.12191429,7.53417647 C2.29905714,7.578 2.48048571,7.48652941 2.63362857,7.38476471 C3.06991429,7.09447059 3.43677143,6.69358824 3.6922,6.228 C3.86305714,5.91594118 3.98562857,5.57447059 4.18848571,5.283 C4.6762,4.58152941 5.55162857,4.16064706 5.90991429,3.35182353 C6.24905714,2.58682353 5.80562857,1.65241176 5.47562857,0.964470588" id="Fill-17" fill="#663531" mask="url(#mask-2)"></path>
                </g>
                <path d="M6.19382857,9.28182353 C5.3224,9.14123529 4.43982857,9.07535294 3.55782857,9.08447059 C2.56011429,9.09476471 1.46268571,9.25123529 0.7984,10.0177059 C0.0506857143,10.8800588 0.121257143,12.1812353 0.251257143,13.3294706 C0.717257143,17.4382941 1.38182857,21.5232941 2.24211429,25.5641765 C2.29754286,25.8247647 2.3664,26.1065294 2.5704,26.2706471 C2.76554286,26.4274118 3.03268571,26.4353529 3.27982857,26.4447647 C4.53982857,26.4906471 5.80582857,26.7335882 7.05325714,26.5465294 C8.30097143,26.3594706 9.58354286,25.6071176 9.92868571,24.3588824 C10.0624,23.8741765 10.0441143,23.3609412 10.0246857,22.8577059 C9.9704,21.4588824 9.91611429,20.0600588 9.86211429,18.6612353 C9.80582857,17.2091765 9.74754286,15.7421176 9.37011429,14.3418235 C9.18297143,13.6468235 8.88354286,12.978 8.72354286,12.2765294 C8.61668571,11.8062353 8.72268571,11.3615294 8.64611429,10.9109412 C8.45382857,9.77358824 7.15154286,9.43623529 6.19382857,9.28182353" id="Fill-20" fill="#49A584"></path>
                <mask id="mask-4" fill="white">
                    <use xlink:href="#path-3"></use>
                </mask>
                <g id="Clip-23"></g>
                <polygon id="Fill-22" fill="#090D01" mask="url(#mask-4)" points="13.1148571 6.45323529 14.9942857 6.45323529 14.9942857 2.58411765 13.1148571 2.58411765"></polygon>
                <path d="M14.1606286,6.56179412 C14.2306286,6.40855882 14.3286286,6.2615 14.4700571,6.17473529 C14.6783429,6.04591176 14.9529143,6.07032353 15.1654857,6.1915 C15.3777714,6.31267647 15.5343429,6.51797059 15.6500571,6.73767647 C15.8874857,7.18855882 15.9663429,7.75532353 15.7449143,8.21473529 C15.6046286,8.50591176 15.0292,9.03738235 14.6954857,8.75973529 C14.6100571,8.68855882 14.5586286,8.58473529 14.5094857,8.48385294 C14.3683429,8.19444118 14.1652,7.89355882 14.0557714,7.59561765 C13.9432,7.28826471 14.0300571,6.84738235 14.1606286,6.56179412" id="Fill-24" fill="#6C7A75" mask="url(#mask-4)"></path>
                <path d="M13.2582857,8.27135294 C13.5671429,7.70223529 14.0162857,7.05194118 14.6468571,7.10782353 C15.2291429,7.15958824 15.5874286,7.819 15.6297143,8.419 C15.7188571,9.68782353 14.8997143,10.8154706 14.0974286,11.7831176 C13.0517143,13.0442941 11.82,14.3425294 10.2225714,14.5522353 C9.45,14.6537059 8.66942857,14.4842941 7.91314286,14.2928235 C7.574,14.2069412 7.22085714,14.1078235 6.96657143,13.8619412 C6.71171429,13.6160588 6.59942857,13.1754706 6.81542857,12.8931176 C7.05257143,12.5828235 7.508,12.6237059 7.89171429,12.6269412 C8.89114286,12.6357647 9.85314286,12.1834118 10.6445714,11.5545882 C11.7774286,10.654 12.5697143,9.539 13.2582857,8.27135294" id="Fill-25" fill="#298964" mask="url(#mask-4)"></path>
            </g>
        </g>
    </g>
</svg>