<svg xmlns="http://www.w3.org/2000/svg" xmlns:xlink="http://www.w3.org/1999/xlink" width="18" height="55" viewBox="0 0 18 55">
    <defs>
        <path id="a" d="M0 .18h6.786V8.3H0z"/>
        <path id="c" d="M0 54.82h17.86V.324H0z"/>
    </defs>
    <g fill="none" fill-rule="evenodd">
        <path fill="#6C7A75" d="M2.385 7.752a3.292 3.292 0 0 0 2.392.15c.075-.025.16-.051.23-.014.057.03.086.095.111.154.316.761.59 1.54.819 2.332.015.055.029.118-.005.162-.025.032-.067.044-.106.053-.562.126-1.134.066-1.704.056-.318-.005-1.048.183-1.322.008-.344-.22-.262-.788-.288-1.142-.014-.203.003-1.698-.127-1.76"/>
        <path fill="#1E231C" d="M4.46 52.519c.013.109.03.225.104.305.084.091.218.11.342.12 1.304.12 2.618.08 3.927.038.338-.011.693-.027.978-.208.284-.179.458-.586.268-.864-.14-.204-.41-.26-.651-.311a9.757 9.757 0 0 1-2.79-1.045c-.157-.089-.313-.183-.484-.241-.422-.147-1.362-.21-1.717.156-.407.42-.037 1.542.023 2.05"/>
        <path fill="#298964" d="M13.44 10.28c-.712.859-1.49 1.763-2.562 2.06-.473.13-.972.13-1.463.12a36.542 36.542 0 0 1-2.358-.125c-.646-.055-1.412-.216-1.648-.823-.091-.233-.08-.493-.07-.743.006-.14.018-.292.11-.397.107-.12.284-.137.444-.145 2.449-.114 3.943-.871 6.03-2.042.616-.346 1.586-.68 2.293-.413 1.365.516-.247 1.866-.777 2.507"/>
        <path fill="#6C7A75" d="M13.283 8.144c-.152-.432.18-.883.54-1.165.237-.185.506-.345.805-.378.297-.034.627.086.774.35.174.313.042.715-.171 1.002-.214.288-.503.516-.695.818-.055.086-.107.183-.2.226-.118.054-.256 0-.368-.066a1.816 1.816 0 0 1-.626-.62"/>
        <path fill="#E48C73" d="M3.59 48.579c.003.505.018 1.037.278 1.47.26.431.855.701 1.28.434.412-.259.454-.833.458-1.32.063-7.048 1.512-14.075.976-21.102.04.536-3.086.39-3.385.99-.242.486.111 1.452.176 1.957.104.808.183 1.62.241 2.433.23 3.209.145 6.43.063 9.643-.048 1.831-.095 3.663-.086 5.495"/>
        <path fill="#FFAB93" d="M4.776 49.81c.028.459.064.917.106 1.374.02.222.046.455.177.634.21.288.61.337.964.362.962.07 2.144.023 2.595-.834.133-.25.177-.536.22-.816l.58-3.84c1.015-6.695 2.031-13.493 1.211-20.216l-2.737.859c-.732.23-2.002.366-2.612.823-.892.669-.144 3.393-.113 4.478.101 3.685-.236 7.362-.393 11.04-.088 2.054.002 4.086.002 6.136"/>
        <path fill="#2E362B" d="M5.63 54.82l6.41-.109a.456.456 0 0 0 .215-.039c.085-.046.132-.142.15-.238.053-.286-.114-.576-.343-.753-.23-.177-.511-.267-.784-.363a12.62 12.62 0 0 1-2.272-1.059c-.228-.135-.456-.28-.713-.346-.195-.05-.399-.054-.6-.057-.44-.007-2.072-.291-2.291.171-.135.285.068.996.096 1.31l.133 1.483"/>
        <path fill="#A88E7C" d="M6.744 6.659c.171-.52.174-1.081.143-1.629a14.656 14.656 0 0 0-.234-1.92c-.06-.318-.145-.657-.389-.867-.259-.225-.629-.246-.97-.256-.68-.022-1.401-.034-1.991.308-.615.355-.98 1.047-1.1 1.75-.12.702-.024 1.423.096 2.126.186 1.088.208 2.88 1.712 2.636 1.137-.184 2.362-1.025 2.733-2.148"/>
        <g transform="translate(0 .144)">
            <mask id="b" fill="#fff">
                <use xlink:href="#a"/>
            </mask>
            <path fill="#663531" d="M6.16 1.06C6.054.846 5.944.625 5.763.468 5.457.2 5.018.174 4.614.18 2.988.207 1.18.715.39 2.146c-.517.938-.481 2.11-.12 3.12.362 1.01 1.016 1.884 1.705 2.703.114.135.24.277.412.319.2.048.404-.053.576-.165.49-.32.903-.76 1.19-1.272.193-.343.33-.72.559-1.04.549-.771 1.534-1.234 1.937-2.124.381-.841-.118-1.87-.489-2.626" mask="url(#b)"/>
        </g>
        <path fill="#49A584" d="M6.968 10.21a17.88 17.88 0 0 0-2.965-.217c-1.123.011-2.357.183-3.105 1.026-.841.95-.762 2.38-.615 3.643a138.02 138.02 0 0 0 2.24 13.459c.062.286.14.596.369.777.22.172.52.18.798.191 1.417.05 2.842.318 4.245.112 1.404-.206 2.846-1.033 3.235-2.406.15-.533.13-1.098.108-1.652l-.183-4.616c-.063-1.597-.129-3.21-.554-4.751-.21-.764-.547-1.5-.727-2.272-.12-.517-.001-1.006-.087-1.502-.216-1.251-1.682-1.622-2.759-1.792"/>
        <mask id="d" fill="#fff">
            <use xlink:href="#c"/>
        </mask>
        <path fill="#090D01" d="M14.754 7.099h2.115V2.843h-2.115z" mask="url(#d)"/>
        <path fill="#6C7A75" d="M15.93 7.218c.08-.169.19-.33.349-.426.234-.141.543-.115.782.019.239.133.415.359.545.6.267.496.356 1.12.107 1.625-.158.32-.805.905-1.18.6-.097-.079-.155-.193-.21-.304-.159-.318-.387-.65-.51-.977-.127-.338-.03-.823.118-1.137" mask="url(#d)"/>
        <path fill="#298964" d="M14.916 9.098c.347-.626.852-1.34 1.562-1.28.655.058 1.058.783 1.105 1.443.1 1.396-.82 2.636-1.723 3.7-1.177 1.388-2.563 2.816-4.36 3.046-.869.112-1.747-.074-2.598-.285-.381-.094-.779-.203-1.065-.474-.286-.27-.413-.755-.17-1.066.267-.34.78-.296 1.211-.292 1.125.01 2.207-.488 3.097-1.18 1.275-.99 2.166-2.217 2.94-3.612" mask="url(#d)"/>
    </g>
</svg>
