<svg xmlns="http://www.w3.org/2000/svg" xmlns:xlink="http://www.w3.org/1999/xlink" width="32" height="49" viewBox="0 0 32 49">
    <defs>
        <path id="a" d="M.06.127h6.501v2.92h-6.5z"/>
    </defs>
    <g fill="none" fill-rule="evenodd">
        <path fill="#F7E0C4" d="M24.612 5.577c.047-.003.096-.006.137.017.048.027.071.083.09.134.146.423.158.89.034 1.32a.339.339 0 0 1-.08.156c-.065.063-.166.07-.258.073-.51.015-1.024.024-1.53.096-.386.054-.79.222-1.183.176-.82-.095-.861-1.117-.788-1.752 1.15-.199 2.409-.152 3.578-.22"/>
        <path fill="#000" d="M20.357 45.09a30.2 30.2 0 0 0 .09 2.388c.011.14.04.305.168.366.062.03.135.028.203.024l.436-.02c.127-.006.26-.013.372-.072.1-.051.174-.137.257-.21.326-.29.776-.386 1.19-.526.74-.25 1.41-.66 2.074-1.066.166-.101.355-.252.315-.44-.045-.21-.322-.257-.54-.26a56.451 56.451 0 0 1-4.08-.202c-.243-.02-.246.064-.485.019"/>
        <g transform="translate(25.29 45.782)">
            <mask id="b" fill="#fff">
                <use xlink:href="#a"/>
            </mask>
            <path fill="#000" d="M.154.613a8.596 8.596 0 0 0-.06 1.954.674.674 0 0 0 .05.237c.083.175.3.255.496.241.195-.014.376-.103.553-.186a12.857 12.857 0 0 1 4.238-1.155c.286-.027.586-.05.828-.201.242-.153.393-.486.241-.726-.158-.25-.516-.255-.815-.247A9.044 9.044 0 0 1 3.69.364C3.083.246 2.471.063 1.86.15c-.264.037-.518.123-.781.165C.85.351.611.356.401.451.191.546.014.77.071.99" mask="url(#b)"/>
        </g>
        <path fill="#132B24" d="M20.558 23.508c-.216-.116-.453-.236-.697-.2-.477.07-.658.65-.682 1.125-.049.952.117 1.901.256 2.845.743 5.035.735 10.156.33 15.228-.066.81-.138 1.643.112 2.418a.933.933 0 0 0 .206.38c.132.133.322.19.506.234a5.82 5.82 0 0 0 1.786.139c.178-.014.368-.041.502-.158.18-.156.203-.42.212-.655.12-3.09.034-6.241.938-9.203.317-1.038.755-2.046.946-3.113.364-2.03-.19-4.078-.906-5.971-.264-.698-.468-1.682-1.21-2.006-.774-.338-1.537-.656-2.299-1.063"/>
        <path fill="#495E51" d="M5.989 48.198c.292-.086.599-.193.785-.43.388-.493.407-2.274-.02-2.753-.369-.414-.92-.096-1.27.19-.985.805-1.521 3.593.505 2.993M8.19 44.916c.015.642.099 1.282.248 1.907.044.182.1.375.248.492.114.091.266.122.412.137a2.729 2.729 0 0 0 1.822-.46.803.803 0 0 0 .25-.243.71.71 0 0 0 .08-.32c.031-.565-.244-1.096-.512-1.596-.066-.123-.141-.255-.271-.309a.592.592 0 0 0-.284-.022 4.438 4.438 0 0 0-1.257.31c-.23 0-.506.104-.736.104"/>
        <path fill="#9BDDDD" d="M4.046 45.32c.646.066 1.298.076 1.946.029.2-.014.428-.05.538-.216.061-.093.071-.209.08-.32.21-2.89.296-5.797.778-8.656l.262.013c.317 1.673.48 3.374.483 5.076.003 1.35-.093 2.697-.19 4.043l2.208-.423c.119-.023.243-.048.34-.12.217-.158.22-.47.204-.736-.21-3.305-.347-6.618-.205-9.926a25.492 25.492 0 0 1-5.045.762c-.318.016-1.05-.105-1.294.16-.25.27-.019 1.083.005 1.418a52.629 52.629 0 0 1 .12 5.118c-.007.315-.184 3.782-.23 3.778"/>
        <path fill="#B58D8A" d="M5.146 19.367l1.724.017c.11.576.222 1.151.333 1.727l-.98.17c-.44.077-.88.217-1.078-.196-.196-.41-.036-1.277.001-1.718"/>
        <path fill="#E0A16C" d="M20.656 7.463c-.374.255-.649.618-.913.977-.442.601-.875 1.212-1.21 1.874-.84 1.662-1.015 3.55-1.177 5.39-.083.937-.165 1.883-.039 2.817.243 1.8 1.237 3.415 2.21 4.974.149.237.301.479.518.662.346.29.815.4 1.264.495 1.276.272 2.591.518 3.884.328 1.292-.19 2.575-.9 3.073-2.056.196-.453.262-.946.326-1.432l.541-4.108c.201-1.527.403-3.07.24-4.602-.161-1.532-.72-3.073-1.851-4.17-.939-.91-2.256-1.527-3.523-1.904-.9-.267-2.576.232-3.343.755"/>
        <path fill="#15493B" d="M22.034 24.253c.342 2.583 1.832 4.903 2.27 7.471.174 1.012.18 2.042.192 3.068.04 3.453.148 6.905.324 10.355.026.519.077 1.09.455 1.453.523.503 1.379.354 2.087.17.219-.056.448-.119.611-.274.203-.192.26-.485.298-.76.216-1.61.05-3.244-.04-4.866-.337-6.041.358-12.154-.664-18.12-1.77.789-3.598 1.337-5.533 1.503"/>
        <path fill="#C4B094" d="M2.389 21.954c-.756.366-1.5.844-1.908 1.569-.255.452-.36.97-.429 1.483-.083.627-.105 1.306.23 1.847.333.54 1.145.83 1.643.43.441-.355.503-1.105 1.04-1.293.3 3.11.2 6.241.097 9.363l7.907-.231c.098-.003.206-.01.28-.073.09-.076.1-.206.105-.321a32.642 32.642 0 0 0-.198-4.902c-.027-.232-.022-.527.195-.621-.646-2.052-1.298-4.135-1.36-6.283-.019-.673-.03-1.457-.576-1.863-.384-.285-.908-.277-1.389-.257-.967.04-2.006-.024-2.953.195-.402.094-.808.233-1.2.36-.401.13-1.086.597-1.484.597"/>
        <path fill="#AA8985" d="M12.864 22.396c.495.284.971.635 1.256 1.123.434.746.346 1.7-.015 2.482-.36.783-.96 1.431-1.549 2.065l-1.42 1.527c-.135-.49-.746-.74-.882-1.23-.098-.355.089-.73.338-1.004.25-.273.563-.485.804-.767.504-.59.618-1.474.28-2.169-.337-.695-1.109-1.163-1.892-1.147-.171.003-.363.022-.493-.088a.53.53 0 0 1-.143-.248c-.86-2.591 2.64-1.163 3.716-.544"/>
        <path fill="#353828" d="M8.568 18.002c.215-.743.064-1.542-.182-2.276-.177-.528-.44-1.08-.945-1.33-.257-.127-.552-.16-.84-.176-.705-.04-1.428.009-2.084.268-.655.26-1.238.751-1.486 1.402-.217.57-.164 1.204-.04 1.8.102.49.261.99.61 1.356.373.39.924.579 1.467.621 1.336.104 3.075-.201 3.5-1.665"/>
        <path fill="#071103" d="M3.406 16.764c-.516.244-1.052.504-1.392.957-.228.305-.349.676-.424 1.048-.176.873-.122 1.79-.406 2.634.349.297.914.205 1.273-.082.358-.287.56-.716.753-1.13.192-.413.4-.842.764-1.121.225-.174.505-.284.69-.5a.952.952 0 0 0 .174-.876c-.205-.7-.689-1.282-1.432-.93"/>
        <path fill="#F7E0C4" d="M21.63 23.574c-.04.29-.07.619.118.847.432.524 2.171.324 2.675-.006.47-.307.416-.775.16-1.226-.725-1.276-2.743-1.16-2.953.385"/>
        <path fill="#B78865" d="M25.08 7.557c-.144.214-.18.478-.206.733-.206 2.04.092 4.094.138 6.144.047 2.05-.191 4.2-1.338 5.912-.141.211-.298.42-.362.664-.063.24-.03.493.006.738.063.428.137.854.223 1.278.067.334.157.693.424.909.223.18.526.225.813.242 1.079.064 2.264-.224 2.912-1.075.335-.438.493-.98.64-1.509.655-2.381 1.193-4.821 1.166-7.289-.02-1.842-.371-3.706-1.182-5.376-.275-.566-.605-1.377-1.218-1.66-.585-.27-1.625-.295-2.016.289"/>
        <path fill="#47301D" d="M24.72 5.439c.136-.278.137-.598.196-.9.1-.524.378-.996.56-1.498.286-.786.32-1.71-.138-2.413-.188-.29-.469-.538-.81-.607-.268-.054-.545.006-.81.068-.464.108-.925.224-1.385.347-.58.156-1.193.348-1.573.807-.278.338-.391.777-.466 1.205a9.037 9.037 0 0 0-.117 2.137c.022.334.073.692.305.937.338.358.91.337 1.405.311a17.476 17.476 0 0 1 1.73-.007c.43.02.88.066 1.103-.387"/>
    </g>
</svg>
