<svg xmlns="http://www.w3.org/2000/svg" xmlns:xlink="http://www.w3.org/1999/xlink" width="75" height="102" viewBox="0 0 75 102">
    <defs>
        <path id="a" d="M.222.29h5.209v15.352H.222z"/>
        <path id="c" d="M.204.231H5.69v7.6H.204z"/>
    </defs>
    <g fill="none" fill-rule="evenodd">
        <path fill="#533421" d="M49.979 80.715c-.666 1.305-.775 2.799-1.263 4.165-.287.853-.696 1.659-1.058 2.482-.96 2.186-.838 4.764-1.76 6.881-.827 1.898-3.239 2.122-3.25 4.88a4.987 4.987 0 0 0 4.226-1.89c1.135-1.466 1.223-2.79 1.86-4.426l1.916-4.918c.223-.572.448-1.15.78-1.665.303-.47.69-.881 1.001-1.345.881-1.31 1.113-2.948 1.198-4.526-1.466-.357-2.832-1.24-3.65.362"/>
        <path fill="#4F301F" d="M69.009 87.14a.542.542 0 0 1-.075-.252c-.163-1.44.698-2.67.64-3.978-.049-1.117-1.242-2.171-1.762-3.084-.415-.728-.649-1.549-.768-2.38-.127-.889-.12-1.82.214-2.654.334-.834 1.04-1.553 1.92-1.726.329 2.227.749 4.44 1.259 6.631.146.63.304 1.268.64 1.818.275.45.659.826.918 1.285.363.641-.203 4.415-1.063 4.425l-1.615.02c-.088.001-.183 0-.254-.051a.237.237 0 0 1-.054-.055"/>
        <path fill="#21160A" d="M62.287 68.295a2.74 2.74 0 0 1 .336-.28c.882-.652 1.825-1.267 2.894-1.508 1.59-.357 2.992.2 3.419 1.783.502 1.859.779 3.779.82 5.704.015.634-3.329.945-3.783.766-1.005-.395-.392-1.84-1.11-2.712-.256-.31-.601-.53-.915-.782-.479-.385-1.216-.886-1.549-1.402-.235-.365-.481-.8-.343-1.212a.95.95 0 0 1 .231-.357"/>
        <g transform="translate(69.534 72.235)">
            <mask id="b" fill="#fff">
                <use xlink:href="#a"/>
            </mask>
            <path fill="#613927" d="M3.852 4.849c.084.487.176.972.281 1.455.238 1.093.548 2.17.928 3.223.324.9.527 1.67.212 2.59-.283.825-.84 1.53-1.087 2.375-.148.504-.41.866-.933 1.028-.367.113-.777.194-1.124.028-.934-.448.186-2.234.374-2.883.299-1.032.519-2.12.328-3.178C2.552 7.935 1.44 6.677.84 5.218.507 4.41-.06 2.576.388 1.726.596 1.329 3.156.466 3.13.29l.473 3.018c.08.513.16 1.027.25 1.54" mask="url(#b)"/>
        </g>
        <path fill="#4B2C1B" d="M57.08 78.636c1.42-.626 3.925-1.46 4.951-.296.065.074-.574 1.386-.555 1.483.021.108-.016.217-.053.32l-.867 2.418c.166-.462-1.55-1.466-1.832-1.593-.793-.358-1.604-.398-2.446-.363.513-.534.87-1.205.802-1.97"/>
        <path fill="#613927" d="M61.053 82.95c.263.162.245.545.194.85l-.275 1.654c-.045.268-.09.541-.214.784-.122.242-.336.454-.602.505.201-.642.287-1.32.254-1.992-.02-.386-.079-.767-.134-1.148-.053-.368-.191-.856-.122-1.226.049-.264.273-.355.469-.143.22.24.122.527.43.716"/>
        <path fill="#100B0A" d="M59.452 81.117c-.453-.215-.975-.255-1.422-.482-.185-.095-.356-.22-.55-.292-.358-.132-.764-.07-1.11.088-.347.157-.647.4-.943.64-.344.281-.693.566-.95.93-.239.337-.388.728-.533 1.116-.142.382-.283.772-.31 1.18-.025.378.048.755.12 1.127.091.46.184.928.4 1.345.127.247.294.47.46.693.32.424.647.857 1.092 1.145.673.434 1.558.475 2.308.193.749-.281 1.366-.859 1.789-1.54.112-.18.212-.37.294-.566.121-.293.201-.6.281-.908l.205-.791c.19-.732.435-1.634.097-2.359-.286-.61-.59-1.215-1.228-1.519"/>
        <path fill="#090907" d="M60.29 61.988c.44-.37.974-.607 1.513-.803 2.355-.854 5.133-.937 7.236.427 1.804 1.169 2.854 3.208 3.544 5.247a23.907 23.907 0 0 1 1.255 7.135c.014.634-3.329.945-3.784.766-1.004-.395-.392-1.84-1.11-2.712-.255-.31-.6-.53-.915-.782-.457-.367-.851-.808-1.311-1.171-.599-.472-1.263-.529-1.908-.82-.62-.28-1.31-.744-1.851-1.16-.692-.532-1.219-1.275-1.969-1.734-.476-.292-1.38-.285-1.758-.654-.892-.869.322-3.12 1.058-3.739"/>
        <path fill="#CABFB9" d="M56.052 71.197c-.857 1-1.91 1.817-2.755 2.827-1.429 1.707-2.19 3.862-2.923 5.967-.09.256-.178.543-.067.79.09.201.289.325.477.437.812.484 1.813.978 2.653.542 1.108-.574 1.666-2.392 2.432-3.348.1-.124.207-.255.356-.315.274-.11.574.052.833.194a7.918 7.918 0 0 0 3.769.978c1.054.004 2.664.228 3.271 1.29.108.19.093.423.074.64l-.179 2.071c.487.07.979.107 1.47.112 1.025.01 2.319-.605 2.602-1.697.108-.417.023-.857-.053-1.282a28.209 28.209 0 0 1 .584-12.449c.213-.77.462-1.578.265-2.352-.216-.853-.924-1.477-1.594-2.045-.618-.522-1.251-1.054-2.005-1.347-5.703-2.213-6.795 6.17-9.21 8.987"/>
        <path fill="#CABFB9" d="M68.764 66.94c.364 3.809-.179 7.7-1.57 11.262-.744-.441-1.278-1.165-1.57-1.98-.293-.817-.379-1.692-.416-2.559-.091-2.129.19-4.472 1.718-5.954.448-.434 1.253-.554 1.838-.768"/>
        <path fill="#613927" d="M64.3 85.768c.008.956.016 1.925-.238 2.846-.202.733-.563 1.41-.813 2.129-.328.944-.461 1.95-.82 2.884-1.028 2.667-3.497 4.552-4.283 7.338-.066.234-.105.526.079.683.1.086.238.105.369.113 3.366.225 5.312-4.689 6.566-7.182a26.563 26.563 0 0 0 2.813-12.841c-.025-.67-2.79.332-3.036.51-1.087.782-.65 2.31-.638 3.52"/>
        <path fill="#A36B58" d="M3.774 95.69c-.037.447.237.827.858.667.238-.061.448-.199.658-.325a8.25 8.25 0 0 1 3.005-1.078c.304-.045.668-.117.778-.405.06-.16.018-.338.005-.51-.053-.686-.052-1.87-.848-2.138-1.422-.48-1.213 1.221-1.714 1.893a2.05 2.05 0 0 1-1.543.811 1.218 1.218 0 0 0-1.199 1.085"/>
        <path fill="#21160A" d="M8.584 92.982l.748-3.386c.38-1.723.763-3.478.61-5.236-.088-1.017-.355-2.012-.464-3.027-.23-2.16.258-4.323.744-6.44.046-.202-1.463-1.359-1.66-1.534a69.296 69.296 0 0 0-1.707-1.481c-.544-.456-1.205-.86-1.59-1.451-.39-.6-.762-1.187-1.242-1.723-.726 1.255-.525 2.504-.508 3.887.017 1.52.167 3.045.531 4.523.268 1.09.65 2.149.97 3.225.75 2.506 1.165 5.097 1.454 7.693.141 1.27.25 2.542.355 3.815.03.357-.045.886.247 1.141.15.131 1.467.198 1.512-.006"/>
        <path fill="#CAD6E3" d="M4.549 79.26a28.675 28.675 0 0 0-.056-.145c-.327-.853-.393-1.928-.487-2.83a21.489 21.489 0 0 1-.083-3.355c.023-.44-.018-.926.043-1.35.069-.476.36-.996.525-1.448.259.076.503.202.715.369-.056-.028-.34 2.193-.348 2.367-.042.931-.02 1.864.038 2.794.115 1.869.372 3.724.547 5.587.015.156.028.318-.029.464a48.982 48.982 0 0 0-.865-2.452"/>
        <path fill="#A36B58" d="M14.76 53.348c.28.344.662.626.814 1.044.163.447.017.96-.259 1.346-.275.387-.667.672-1.051.95l-1.8 1.306c-.219.158-.443.32-.703.393-.26.074-.536.054-.803.017a6.44 6.44 0 0 1-2.69-1.024c-.193-.13-.385-.275-.503-.476-.163-.275-.165-.622-.08-.93.087-.308.255-.585.42-.859.273-.45.554-.912.968-1.238.765-.601 1.814-.626 2.773-.781a8.325 8.325 0 0 0 1.837-.512c.27-.11.435-.279.638-.059.184.2.251.59.44.823"/>
        <path fill="#0A0809" d="M10.235 46.293c.783-.63 1.811-.932 2.815-.882.264.013.528.05.776.14.244.089.468.228.665.395.687.584 1.03 1.479 1.225 2.36.08.356.14.721.12 1.086-.043.785-.466 1.523-1.062 2.034-.596.512-1.352.81-2.124.95a.993.993 0 0 1-.367.015c-.163-.033-.3-.138-.433-.24-.464-.359-.936-.726-1.272-1.208-.288-.415-.465-.9-.784-1.294-.248-.306-.676-.557-.802-.947-.264-.825.661-1.94 1.243-2.409"/>
        <path fill="#0A0809" d="M14.793 45.516c.767.51 1.317 1.421 1.201 2.337-.008.066-.022.137-.071.182a.309.309 0 0 1-.154.063 9.993 9.993 0 0 1-2.038.192c-.351-.003-.707-.026-1.043-.128-.616-.187-1.08-.615-1.543-1.041-.324-.3-1.017-.58-.929-1.127a.852.852 0 0 1 .17-.353c.241-.33.565-.614.954-.738.262-.083.542-.09.818-.083"/>
        <path fill="#E1846A" d="M13.11 57.814a158.384 158.384 0 0 0-5.483 10.214c-.063.127-.128.259-.238.348a.905.905 0 0 1-.277.138 5.166 5.166 0 0 1-1.6.287c-.114.002-.237-.003-.326-.072a.478.478 0 0 1-.131-.194c-.165-.379-.218-.796-.256-1.208a19.44 19.44 0 0 1 .742-7.367c.163-.542.353-1.083.654-1.562.382-.607.918-1.094 1.36-1.656.428-.545.628-.875 1.326-.554.705.325 1.378.691 2.107.97.198.075 2.046.785 2.121.656"/>
        <path fill="#5E8C6B" d="M4.55 68.259c-.238-.415-.238-.928-.149-1.398.09-.47.259-.923.34-1.394.1-.588.06-1.198-.117-1.766-.105-.338-.257-.66-.333-1.006-.167-.769.062-1.566.341-2.301.091-.24.194-.487.383-.659.19-.173.492-.248.706-.107.038.736.076 1.48.28 2.188.202.708.586 1.388 1.19 1.808.3.21.653.352.907.617.492.513.479 1.342.242 2.013-.237.672-.656 1.266-.9 1.935-.04.109-.077.224-.16.305-.104.103-.257.132-.398.169-.426.111-.785.502-1.212.439-.415-.062-.92-.493-1.12-.843"/>
        <path fill="#5E8C6B" d="M.254 61.761A1.974 1.974 0 0 1 .24 59.85c.23-.41.598-.721.958-1.022a252.105 252.105 0 0 1 6.184-4.977c.087-.067.227-.128.29-.038.025.036.024.084.022.128-.083 1.948-.168 3.912-.655 5.8-.265 1.027-.772 2.149-1.784 2.463-.487.151-1.011.084-1.52.121-.67.048-1.359.47-2.012.413-.585-.053-1.181-.478-1.47-.977M12.302 58.625c-.191.159-.377.328-.586.44-.395.212-.848.256-1.235.512-.561.37-.943.952-1.308 1.517-1.577 2.44-4.206 5.085-3.631 8.257 2.948.874 6.213 1.41 9.027.17.16-.07.324-.152.424-.296.149-.212.116-.495.113-.754-.016-1.4.962-2.581 1.59-3.832.944-1.876 1.567-4.949 1.13-7.041-.234-1.128-1.424-.71-2.441-.444a9.723 9.723 0 0 0-2.787 1.25c-.103.065-.2.142-.296.221"/>
        <path fill="#CAD6E3" d="M7.843 54.015c.14-.257.312-.525.586-.628.423-.159.943.252.887.701-.024.2-.137.377-.246.546-.825 1.286-1.355 2.493-1.578 4.003-.02.138-.04.275-.07.411-.162.755-.587 1.423-1.004 2.072.262-.409.22-1.338.235-1.812.021-.609-.002-1.187.072-1.793a9.746 9.746 0 0 1 1.118-3.5"/>
        <path fill="#A36B58" d="M5.481 56.898c-.22.097-.334.339-.428.561L3.75 60.521c-.232-.415-.796-.553-1.248-.41-.452.144-.801.507-1.068.9-.154.226-.29.475-.322.746-.032.272.058.572.281.73.146.101.328.133.504.156.482.061.97.074 1.456.086.459.012.945.017 1.339-.217.295-.176.503-.468.67-.768.491-.889.685-1.904.73-2.91.014-.329.229-2.303-.612-1.936"/>
        <path fill="#B67B63" d="M6.67 61.966c.455-1.34.157-2.808-.144-4.191-.052-.238-.147-.522-.385-.572-.238-.05-.44.172-.575.375a8.682 8.682 0 0 0-1.432 4.414.864.864 0 0 0 .041.369c.052.121.153.214.255.298.335.278.703.512 1.07.745l2.898 1.84c.117.075.238.15.374.176.26.047.518-.099.704-.286.266-.266.43-.626.47-.999.058-.516-.082-.579-.514-.806a65.292 65.292 0 0 0-2.762-1.363"/>
        <path fill="#5E8C6B" d="M12.04 64.472a7.179 7.179 0 0 1-2.102-.924l-.985 1.371c-.112.156-.229.322-.246.514-.029.328.234.601.476.823.853.782 1.739 1.572 2.814 1.996 1.075.424 2.395.416 3.29-.315.406-.33.695-.779.958-1.23a17.964 17.964 0 0 0 2.327-7.179c.075-.736.097-1.513-.224-2.18-.32-.667-1.083-1.173-1.792-.969-.497.144-.845.58-1.145 1.003-1.515 2.131-2.522 4.624-3.37 7.09"/>
        <path fill="#CAD6E3" d="M15.005 55.095a6.981 6.981 0 0 1-1.847 1.686c-.802.501-1.723.853-2.355 1.557-.997 1.108-1.577 2.214-2.049 3.63 1.678-2.59 4.959-3.94 7.964-4.618.37-.083.757-.155 1.058-.385.747-.573.526-1.847-.188-2.46-.343-.294-1.354-.892-1.831-.737-.619.2-.332.774-.752 1.327"/>
        <path fill="#B67B63" d="M14.622 50.496a.488.488 0 0 1 .267.006c.172.064.254.275.23.458-.023.184-.125.346-.226.5l-.806 1.25a5.554 5.554 0 0 1-.508.703 3.7 3.7 0 0 1-.875.698c-.947.564-2.222 1.014-3.265.494-.29-.144-.551-.37-.671-.671-.126-.314-.076-.677-.105-1.002a14.27 14.27 0 0 1-.069-1.254c0-.872.081-1.745.246-2.6.043-.222.144-.491.368-.506.097-.006.188.041.28.076.25.096.525.1.79.141.704.109 1.345.483 1.88.953.234.206.45.432.657.666.172.196.378.587.616.698.408.19.762-.522 1.19-.61"/>
        <path fill="#21160A" d="M10.832 79.415a11.28 11.28 0 0 0-.516 1.718c-.079.37-.129.792.1 1.091.195.254.532.341.84.427a10.14 10.14 0 0 1 4.086 2.258c.55.5 1.05 1.065 1.67 1.474a4.22 4.22 0 0 0 2.36.692c.17-.002.348-.016.499-.098a.994.994 0 0 0 .333-.34 2.68 2.68 0 0 0 .148-2.636c-.776-1.523-2.72-1.966-4.075-2.793-1.635-.998-3.678-.929-5.445-1.793"/>
        <path fill="#CAD6E3" d="M17.209 85.09l-1.837-.785c-.416-.178-.764-.443-1.156-.664a9.514 9.514 0 0 0-1.257-.589c-.183-.07-2.344-.785-2.383-.662l.215-.677c.84.156 1.669.375 2.468.675.451.17.893.365 1.317.592.353.19.675.503 1.067.584.473.1.945.198 1.418.296.095.403.145.816.148 1.23"/>
        <path fill="#353535" d="M5.026 71.324c.98 1.204 2.09 2.328 3.43 3.108.67.39 1.398.694 1.99 1.196.53.448.925 1.032 1.313 1.609l5.15 7.658c.44.652.894 1.32 1.542 1.764.648.444 1.544.616 2.218.214.911-.543 1.029-1.813.912-2.87-.106-.966-.325-1.929-.743-2.807-.32-.67-.75-1.283-1.083-1.948-.316-.63-.54-1.303-.762-1.973l-.92-2.763c-.279-.841-.423-1.78-.788-2.573a17.996 17.996 0 0 0-1.482-2.616c-.025-.036-.057-.076-.101-.073-.043.002-.071.046-.093.084-.823 1.5-2.529 1.923-4.113 2.074-.797.076-1.602.105-2.398.016-2.077-.233-3.455-1.57-5.3-2.162.086.731.766 1.493 1.228 2.062"/>
        <path fill="#CAD6E3" d="M19.663 87.04c-.03-.032-.032-.072-.049-.139a163.276 163.276 0 0 0-.425-1.635 74.36 74.36 0 0 0-.588-2.096 38.572 38.572 0 0 0-1.353-3.854c-.206-.492-.424-1-.647-1.521-.92-2.147-1.964-4.58-2.533-6.818l.977-.353c.543 2.133 1.564 4.515 2.465 6.616.225.525.445 1.038.652 1.533a39.88 39.88 0 0 1 1.405 4c.207.695.4 1.394.587 2.096.097.36.19.72.284 1.08l.142.551c.045.178.102.287-.06.422a.83.83 0 0 1-.548.19c-.075-.002-.186-.004-.255-.036a.172.172 0 0 1-.054-.036"/>
        <path fill="#21160A" d="M3.75 68.76c.005.396.19.76.67 1.051l1.722 1.043c.28.17.559.338.852.481 1.4.683 3.023.728 4.576.622.87-.06 1.752-.166 2.544-.53s1.49-1.023 1.708-1.868c.015-.06.028-.124.004-.18-.045-.106-.184-.124-.282-.184-.21-.13-.236-.47-.466-.557a.521.521 0 0 0-.278-.004c-1.189.212-2.27.851-3.46 1.055-1.017.175-2.06.022-3.07-.19-.791-.165-1.583-.372-2.292-.76A4.725 4.725 0 0 1 4.362 67.2c-.337.513-.618 1.06-.612 1.56"/>
        <path fill="#B67B63" d="M9.486 78.862c-.213.206-.302.519-.327.819-.027.324.009.652-.034.976-.098.74-.58 1.338-.882 1.999-.152.331-.267.645-.433.972-.164.323-.316.69-.17 1.05.287.115.605-.106.776-.365.172-.258.272-.57.494-.785.293-.285.732-.346 1.091-.54.476-.258.792-.749.956-1.265.174-.549.26-1.148.159-1.72-.109-.613-.599-.82-1.077-1.169-.077-.055-.16-.114-.254-.118a.372.372 0 0 0-.242.096.821.821 0 0 0-.057.05"/>
        <path fill="#21160A" d="M31.334 32.619c.245 1.09.656 2.142 1.215 3.109.745-.686 1.676-1.128 2.578-1.588a50.659 50.659 0 0 0 3.039-1.681c.567-.34 1.13-.692 1.647-1.105.127-.1.252-.206.373-.315.053-.048.133-.096.138-.165.005-.06-.092-.195-.118-.252l-.463-.982c-.06-.13-.122-.26-.195-.382-.074-.122-.16-.236-.23-.36-.088-.158-.148-.33-.208-.5-.075-.211-.128-.457-.23-.656-.115-.222-.285.02-.416.13-.341.286-.687.566-1.04.837-.681.524-1.404 1.101-2.175 1.488-1.326.785-2.768 1.392-3.915 2.422"/>
        <g transform="translate(37.348 .073)">
            <mask id="d" fill="#fff">
                <use xlink:href="#c"/>
            </mask>
            <path fill="#E5C8AA" d="M.381 3.618c.258-.294.665-.388 1.03-.525.853-.319 1.56-.928 2.25-1.524L5.045.366c.057-.05.117-.1.189-.123.207-.065.416.142.448.357.03.216-.057.428-.127.634-.329.966-.302 2.015-.513 3.013-.269 1.281-.918 2.445-1.558 3.585L1.21 6.819c.056.025.073-.845.06-.92a2.122 2.122 0 0 0-.343-.857C.635 4.62-.143 4.216.381 3.618" mask="url(#d)"/>
        </g>
        <path fill="#8D9FB5" d="M39.292 16.575a1.55 1.55 0 0 0 .506-.314c.455-.458.357-1.203.323-1.849-.046-.902.1-1.803.245-2.696l.686-4.215a2.161 2.161 0 0 0-1.358.445c-.239.185-.436.417-.625.652-1.005 1.247-1.862 2.666-2.149 4.243-.197 1.088-.207 2.388.016 3.475.193.945 1.712.532 2.356.26"/>
        <path fill="#301E22" d="M40.833 44.385c-.075-.058-.151-.12-.243-.146-.15-.04-.305.028-.457.059-.48.097-.978-.21-1.218-.636-.241-.428-.264-.948-.193-1.433.011-.075.03-.158.093-.2a.282.282 0 0 1 .145-.032l2.142-.077c.162-.006.325-.012.482.027.178.044.337.143.492.24.438.274.873.552 1.305.834.098.063.198.13.262.227.084.126.095.284.104.435.049.814.142 1.526-.817 1.487a3.746 3.746 0 0 1-2.097-.785"/>
        <path fill="#E5C8AA" d="M42.885 40.514a11.83 11.83 0 0 0-.115 2.127c.002.063-.017.584.067.606a19.257 19.257 0 0 0-3.16-.106.178.178 0 0 1-.09-.011c-.022-.011-.038-.03-.054-.05-.58-.706-1.303-1.444-1.568-2.342-.25-.85-.047-1.759.157-2.62l.803-3.384 2.564.163c.25.016.5.032.747-.005.274-.04.537-.145.813-.163.49-.033.958.21 1.347.508.481.37.9.867 1.024 1.462.125.595-.113 1.29-.655 1.563-.239.12-.514.152-.759.26-.727.322-1.005 1.203-1.12 1.992"/>
        <path fill="#301E22" d="M39.09 28.551c-.117.125-.41.234-.528.315-.439.305-.82.684-1.24 1.012-.731.573-1.566.994-2.396 1.411l-1.517.764a9.145 9.145 0 0 1-.932.426c-.362.135-.74.223-1.117.31-.69-.655-1.333-1.656-1.678-2.55-.713-1.827-.886-4.181.79-5.448.79-.597 1.744-.932 2.7-1.181.957-.249 1.935-.422 2.871-.74 1.067-.361 2.119-.917 3.245-.859-.168.663-.337 1.332-.354 2.015-.03 1.204-.074 2.416.07 3.615.022.192.197.679.128.85a.206.206 0 0 1-.041.06"/>
        <path fill="#353535" d="M37.552 24.764c.602.016 1.223-.256 1.559-.758.175-.261.267-.568.35-.872.634-2.336.82-4.793.545-7.199-.367.497-1 .739-1.616.773-.616.033-1.225-.113-1.824-.26l-.265 6.193c-.016.366-.394 1.127-.291 1.427.16.471 1.125.685 1.542.696"/>
        <path fill="#F7E0C4" d="M37.112 6.796c.009-.387-.2-.741-.302-1.115-.101-.374-.042-.862.312-1.017.17-.073.362-.05.546-.062.767-.048 1.346-.689 1.837-1.283.178-.215.38-.446.657-.489.246-.566.965-.743 1.58-.72.064.003.134.009.183.05.045.037.064.096.077.153.138.613-.27 1.2-.43 1.806-.07.259-.092.527-.127.792a8.506 8.506 0 0 1-1.901 4.31c-.211.252-.442.495-.73.655a1.642 1.642 0 0 1-1.816-.181c-.385-.328-.633-.906-.551-1.416.09-.556.653-.874.665-1.483"/>
        <path fill="#E5C8AA" d="M33.043 38.226c1.129.811 2.598 1.246 3.617 2.199.267.25 2.814 2.61 2.792 2.633-2.816 3.019-6.672.716-9.681-.634-.686-.307-1.374-.624-1.985-1.079-.312-.232-.611-.513-.76-.888-.214-.537-.083-1.153.065-1.715a36.025 36.025 0 0 1 2.11-5.897c.349-.76.735-1.552.707-2.4-.005-.174-.028-.356.031-.52.06-.162.239-.291.385-.214.225.12.105.471.102.675-.003.308.084.569.16.864.116.447.239 1.109.105 1.564-.134.46-.433.847-.545 1.338-.25 1.098-.558 2.293-.566 3.466-.006.823-.116 1.526.63 1.8.999.368 2.17.41 3.2.717-.04-.331-.239-1.812-.464-1.98l.097.071"/>
        <path fill="#301E22" d="M49.152 45.274a2.387 2.387 0 0 1-.537.523c-1.336.989-3.297 1.027-4.671.092-.426-.29-.812-.691-.92-1.195-.118-.55.112-1.11.367-1.61.155-.305.327-.611.59-.83.206-.171.457-.28.704-.385.534-.23 1.073-.452 1.634-.609.513-.142 1.098-.124 1.59-.313.095-.036.19-.083.29-.088.208-.01.38.153.506.316.467.6.587 1.264.72 1.99.131.705.164 1.497-.273 2.11"/>
        <path fill="#E1846A" d="M32.498 35.853a.514.514 0 0 1 .017-.234.53.53 0 0 1 .181-.204 51.326 51.326 0 0 1 4.835-3.366c.764-.469 1.594-.868 2.314-1.395a1.08 1.08 0 0 1 .265-.128.104.104 0 0 1 .048-.01c.037.003.06.04.076.072.108.21.192.397.364.56.158.149.313.304.462.463.306.325.593.667.863 1.022a14.994 14.994 0 0 1 1.84 3.161c.061.143.12.288.178.433.043.11.152.288.152.407.228.638.405 1.33.245 1.988l-.387-.006c-.128-.962-.325-2.04-1.128-2.581-.417-.282-.933-.365-1.43-.442l-2.034-.312a34.391 34.391 0 0 0-.944 3.98c-.093.53-.172 1.078-.036 1.597.124.472.414.869.718 1.24.253.309.667.675.818 1.036-.077.008-.827.11-.783.257-.072-.242-.313-.438-.473-.627-.134-.16-.267-.325-.414-.473a26.828 26.828 0 0 0-1.105-1.04c-.498-.445-1.017-.988-1.598-1.327-.593-.346-1.545-.488-2.05-.906-.645-.533-.926-2.389-.994-3.165"/>
        <path fill="#F7E0C4" d="M42.614 43.016c-.284-.172-.362-.543-.402-.873a15.406 15.406 0 0 1-.094-2.662c.019-.358.084-.772.394-.95.133-.076.291-.094.444-.104 2.03-.139 4.105.762 5.392 2.343.055.067.111.145.102.23-.008.067-.054.122-.098.173l-.991 1.148c-.284.329-.574.663-.945.888-.743.45-1.582.336-2.399.376.19 2.4-2.589.235-1.403-.57"/>
        <path fill="#CAD6E3" d="M38.674 9.934c-1.11-.016-2.008-1-2.07-2.08-.741.765-1.685 1.676-2.235 2.591-.21.351-.35.74-.489 1.125-.887 2.474-1.145 4.451-.646 7.075.114.601 2.603.088 2.934-.043 1-.399.916-.865.97-1.876a20.882 20.882 0 0 1 1.536-6.792"/>
        <path fill="#21160A" d="M34.647 18.482c.823.157 1.666-.065 2.475-.286.075 3.255-.807 6.62-2.924 9.089-.544.634-1.18 1.215-1.95 1.537-.77.322-1.694.354-2.414-.069-1.107-.649-1.42-2.172-1.104-3.419.316-1.246 1.113-2.304 1.809-3.383.485-.753.93-1.534 1.33-2.335.316-.636.613-1.975 1.179-2.347.378.608.864 1.073 1.599 1.213"/>
    </g>
</svg>
