<svg xmlns="http://www.w3.org/2000/svg" xmlns:xlink="http://www.w3.org/1999/xlink" width="80" height="115" viewBox="0 0 80 115">
    <defs>
        <path id="a" d="M.008.153h3.254v2.645H.008z"/>
        <path id="c" d="M0 .208h5.338v5.858H0z"/>
    </defs>
    <g fill="none" fill-rule="evenodd">
        <path fill="#B58A66" d="M63.455 24.03c-.17.342-.457.612-.73.88a26.119 26.119 0 0 0-2.667 3.044c-.278.372-.547.752-.866 1.088-.417.44-.912.796-1.385 1.174a18.643 18.643 0 0 0-1.836 1.674l.022-1.723c.002-.143.004-.288.05-.423.058-.17.18-.31.298-.444l3.08-3.49c.697-.79 1.415-1.591 2.292-2.187.361-.245 1.86-.784 1.86-.784s.111.728-.118 1.19"/>
        <path fill="#88604C" d="M36.31 48.942l24.888-25.957 2.375-.146L37.34 48.943z"/>
        <path fill="#0E0E09" d="M64.947 49.06a3.044 3.044 0 0 0 1.808.374c.144-.015.293-.043.406-.133.12-.094.183-.242.233-.386.513-1.472.238-3.566-1.795-2.94-1.096.337-1.77 2.452-.652 3.084"/>
        <path fill="#CAD6E3" d="M68.024 47.114c-.859.056-1.72.068-2.581.033-.243-.01-.5-.027-.697-.17-.299-.215-.354-.631-.381-1a107.11 107.11 0 0 1-.106-14.253c.008-.123.018-.254.087-.356.101-.147.294-.192.468-.227l2.479-.487c.475-.094.966-.187 1.44-.088 1.481.312.928 2.16.897 3.249-.043 1.517-.052 3.034-.11 4.551-.114 2.963-.41 5.964-1.496 8.748"/>
        <path fill="#170C05" d="M51.16 55.788c.012.38.031.784.245 1.1.327.485.984.597 1.567.639 1.003.07 1.96-.176 2.285-1.2l.48-1.522c.24-.756.48-1.523.505-2.316.033-1.07-.208-2.13-.205-3.212a83.081 83.081 0 0 0-.067-3.522c-.01-.25-.026-.516-.174-.717-.123-.167-.32-.263-.517-.33-5.63-1.884-4.19 8.785-4.119 11.08"/>
        <path fill="#0E0E09" d="M70.73 50.201a3.046 3.046 0 0 0 1.81.376c.143-.016.292-.044.405-.133.12-.095.183-.243.233-.387.513-1.472.238-3.566-1.795-2.94-1.096.337-1.77 2.452-.652 3.084"/>
        <path fill="#CAD6E3" d="M73.808 48.256c-.859.057-1.72.068-2.581.034-.243-.01-.5-.028-.697-.17-.299-.216-.354-.632-.381-1a107.11 107.11 0 0 1-.106-14.254c.008-.123.018-.254.087-.356.101-.147.293-.193.468-.227l2.479-.487c.475-.094.966-.187 1.44-.088 1.481.312.928 2.16.897 3.249-.043 1.517-.053 3.034-.11 4.551-.114 2.963-.41 5.965-1.496 8.748"/>
        <path fill="#EAEAEA" d="M63.256 10.631c-.845 1.888-1.69 3.798-2.091 5.827-.365 1.842-.356 3.735-.345 5.612.787-.204 1.751.377 2.374-.146.243-.204.35-.523.441-.826a53.2 53.2 0 0 0 1.653-7.17c-.757 3.403-.888 6.916-.795 10.401.043 1.634-.738 5.84-.234 7.395.505 1.554 2.34.467 3.763 1.272 2.361 1.336 5.307.59 7.902-.204.22-.067.452-.143.598-.32.134-.164.17-.386.201-.597l.893-6.112c.249-1.702.498-3.417.407-5.135-.064-1.201-.293-2.387-.522-3.568l-.793-4.085c-.199-1.026-.4-2.059-.774-3.035-.605-1.575-1.688-2.994-3.149-3.84-4.18-2.423-7.87.83-9.529 4.531"/>
        <path fill="#88604C" d="M37.356 48.216l19.15-17.585 12.718 1.61L51.77 50.076 37.081 48.5z"/>
        <path fill="#E0A16C" d="M51.486 30.736l-.007 1.874c-.001.226.011.483.182.63.082.07.188.104.291.134a9.45 9.45 0 0 0 4.392.205c.58-.111 1.232-.352 1.416-.913.197-.6 0-1.732 0-1.732"/>
        <path fill="#E0A16C" d="M51.486 29.232l-.007 1.873c-.001.226.011.483.182.63.082.07.188.104.291.134a9.45 9.45 0 0 0 4.392.205c.58-.111 1.232-.352 1.416-.913.197-.6 0-1.731 0-1.731"/>
        <path fill="#E0A16C" d="M51.486 27.5l-.007 1.874c-.001.226.011.483.182.63.082.07.188.104.291.134 1.42.413 2.94.483 4.392.205.58-.111 1.232-.353 1.416-.913.197-.6-.253-1.237-.178-1.864M51.486 32.521l-.007 1.874c-.001.226.011.483.182.63.082.07.188.104.291.134 1.42.412 2.94.483 4.392.204.58-.11 1.232-.352 1.416-.912.197-.6 0-1.732 0-1.732"/>
        <path fill="#CAD6E3" d="M52.05 34.77h.294c.03-1.772.059-4.826.088-6.599-.2-.059-.325-.15-.446.005-.086.111-.01.631-.011.778a86.63 86.63 0 0 0-.001 1.525c.002.253.038 4.291.077 4.291"/>
        <path fill="#7C7F7C" d="M52.153 27.863c-.188.305-.381.626-.404.984a.165.165 0 0 0 .014.093c.032.054.109.058.17.044a.609.609 0 0 0 .415-.37.854.854 0 0 0 .009-.567c-.035-.114-.14-.243-.249-.193"/>
        <path fill="#E1846A" d="M57.662 27.55c0 .479-1.395.867-3.115.867-1.72 0-3.115-.388-3.115-.867 0-.478 1.394-.866 3.115-.866 1.72 0 3.115.388 3.115.866"/>
        <path fill="#8D9FB5" d="M45.218 36.188l-.007 1.874c-.001.226.01.483.182.63.082.07.188.104.29.134a9.443 9.443 0 0 0 4.393.205c.58-.111 1.232-.353 1.416-.913.197-.6 0-1.732 0-1.732"/>
        <path fill="#CAD6E3" d="M45.218 34.684l-.007 1.873c-.001.227.01.483.182.63.082.07.188.104.29.134a9.446 9.446 0 0 0 4.393.205c.58-.111 1.232-.352 1.416-.913.197-.6 0-1.731 0-1.731"/>
        <path fill="#8D9FB5" d="M45.218 32.953l-.007 1.873c-.001.226.01.483.182.63.082.07.188.104.29.134a9.45 9.45 0 0 0 4.393.205c.58-.111 1.232-.352 1.416-.913.197-.6-.253-1.237-.178-1.864"/>
        <path fill="#CAD6E3" d="M51.394 33.002c0 .479-1.395.867-3.116.867-1.72 0-3.114-.388-3.114-.867 0-.478 1.394-.866 3.114-.866 1.721 0 3.116.388 3.116.866"/>
        <path fill="#8D9FB5" d="M41.916 43.466l-.008 1.873c0 .227.012.483.183.63.082.071.188.104.29.134a9.45 9.45 0 0 0 4.393.205c.58-.11 1.232-.352 1.416-.913.197-.6 0-1.731 0-1.731"/>
        <path fill="#CAD6E3" d="M41.916 41.681l-.008 1.874c0 .226.012.482.183.63.082.07.188.104.29.134 1.421.412 2.94.483 4.393.204.58-.11 1.232-.352 1.416-.913.197-.6 0-1.73 0-1.73"/>
        <path fill="#8D9FB5" d="M41.916 40.176l-.008 1.874c0 .226.012.483.183.63.082.07.188.104.29.134 1.421.413 2.94.483 4.393.205.58-.111 1.232-.353 1.416-.913.197-.6 0-1.731 0-1.731"/>
        <path fill="#CAD6E3" d="M41.916 38.445l-.008 1.874c0 .226.012.483.183.63.082.07.188.104.29.134a9.45 9.45 0 0 0 4.393.205c.58-.111 1.232-.353 1.416-.913.197-.6-.253-1.237-.179-1.864"/>
        <path fill="#8D9FB5" d="M48.092 38.495c0 .479-1.395.867-3.116.867-1.72 0-3.115-.388-3.115-.867 0-.478 1.395-.866 3.115-.866 1.721 0 3.116.388 3.116.866"/>
        <path fill="#E1846A" d="M46.733 38.354l-.008 1.873c0 .227.012.483.183.63.081.07.187.104.29.134a9.45 9.45 0 0 0 4.393.205c.58-.111 1.232-.352 1.416-.913.196-.6 0-1.731 0-1.731"/>
        <path fill="#E1846A" d="M46.733 36.85l-.008 1.873c0 .226.012.482.183.63.081.07.187.103.29.134a9.45 9.45 0 0 0 4.393.204c.58-.11 1.232-.352 1.416-.913.196-.6 0-1.73 0-1.73"/>
        <path fill="#E1846A" d="M46.733 35.118l-.008 1.873c0 .227.012.483.183.63.081.07.187.104.29.134a9.443 9.443 0 0 0 4.393.205c.58-.11 1.232-.352 1.416-.913.196-.6-.253-1.237-.179-1.864M46.733 40.138l-.008 1.874c0 .226.012.483.183.63.081.07.187.104.29.134a9.443 9.443 0 0 0 4.393.205c.58-.111 1.232-.353 1.416-.913.196-.6 0-1.731 0-1.731"/>
        <path fill="#CAD6E3" d="M48.74 36.001c.098 0 .19-.043.282-.058.03 1.773.08 5.314.109 7.087-.2.058-.326.15-.446-.005-.086-.112-.01-.63-.011-.778a84.003 84.003 0 0 1-.002-1.526c.002-.252.03-4.72.068-4.72"/>
        <path fill="#8D9FB5" d="M48.748 36.174c0 .06-.001.119-.016.176-.013.052-.038.1-.056.152a.63.63 0 0 0-.033.268c.156.048.322.062.483.04.037-.186-.086-.366-.096-.554-.005-.089.016-.176.024-.264 0-.01.001-.022-.006-.03a.037.037 0 0 0-.019-.009c-.062-.017-.182-.028-.24.015-.062.047-.04.133-.041.206"/>
        <path fill="#CC6E58" d="M52.908 35.168c0 .478-1.394.866-3.115.866-1.72 0-3.115-.388-3.115-.866 0-.479 1.395-.867 3.115-.867 1.721 0 3.115.388 3.115.867"/>
        <path fill="#8D9FB5" d="M59.084 38.23l-.007 1.874c-.001.227.011.483.182.63.082.07.188.104.291.134 1.42.413 2.94.484 4.393.205.58-.11 1.231-.352 1.415-.913.197-.6 0-1.731 0-1.731"/>
        <path fill="#CAD6E3" d="M59.084 36.446l-.007 1.874c-.001.226.011.482.182.63.082.07.188.103.291.133a9.45 9.45 0 0 0 4.393.205c.58-.11 1.231-.352 1.415-.913.197-.6 0-1.73 0-1.73"/>
        <path fill="#8D9FB5" d="M59.084 34.941l-.007 1.874c-.001.226.011.482.182.63.082.07.188.103.291.134 1.42.412 2.94.483 4.393.205.58-.112 1.231-.353 1.415-.913.197-.6 0-1.732 0-1.732"/>
        <path fill="#CAD6E3" d="M59.084 33.21l-.007 1.874c-.001.226.011.482.182.63.082.07.188.103.291.134 1.42.412 2.94.483 4.393.204.58-.11 1.231-.352 1.415-.913.197-.6-.253-1.237-.178-1.864"/>
        <path fill="#8D9FB5" d="M65.26 33.26c0 .478-1.395.867-3.115.867-1.72 0-3.115-.389-3.115-.867 0-.479 1.395-.867 3.115-.867 1.72 0 3.115.388 3.115.867"/>
        <path fill="#CAD6E3" d="M53.323 38.351l-.008 1.874c0 .226.011.483.183.63.081.07.187.104.29.134a9.447 9.447 0 0 0 4.393.204c.58-.11 1.232-.352 1.416-.912.196-.6 0-1.732 0-1.732"/>
        <path fill="#8D9FB5" d="M52.816 38.087l-.007 1.873c-.001.226.011.483.182.63.082.07.188.104.29.134a9.45 9.45 0 0 0 4.393.205c.58-.111 1.232-.352 1.416-.913.197-.6 0-1.732 0-1.732"/>
        <path fill="#CAD6E3" d="M52.816 36.582l-.007 1.873c-.001.226.011.483.182.63.082.07.188.104.29.134a9.45 9.45 0 0 0 4.393.205c.58-.111 1.232-.352 1.416-.913.197-.6 0-1.731 0-1.731"/>
        <path fill="#8D9FB5" d="M52.816 34.85l-.007 1.874c-.001.226.011.483.182.63.082.07.188.104.29.134 1.421.413 2.94.483 4.393.205.58-.111 1.232-.352 1.416-.913.197-.6-.253-1.237-.178-1.864"/>
        <path fill="#CAD6E3" d="M58.992 34.9c0 .479-1.395.867-3.115.867-1.72 0-3.115-.388-3.115-.866 0-.479 1.394-.867 3.115-.867 1.72 0 3.115.388 3.115.867M54.326 42.03l-.007 1.873c-.002.226.01.483.182.63.082.07.187.104.29.134 1.421.412 2.94.483 4.393.205.58-.111 1.232-.353 1.416-.913.197-.6 0-1.732 0-1.732"/>
        <path fill="#8D9FB5" d="M54.326 40.245l-.007 1.873c-.002.226.01.483.182.63a.76.76 0 0 0 .29.134c1.421.413 2.94.484 4.393.205.58-.111 1.232-.352 1.416-.913.197-.6 0-1.731 0-1.731"/>
        <path fill="#CAD6E3" d="M54.326 38.74l-.007 1.874c-.002.226.01.482.182.63.082.07.187.103.29.133 1.421.413 2.94.484 4.393.205.58-.11 1.232-.352 1.416-.913.197-.6 0-1.731 0-1.731"/>
        <path fill="#8D9FB5" d="M54.326 37.009l-.007 1.873c-.002.227.01.483.182.63.082.07.187.104.29.134 1.421.413 2.94.484 4.393.205.58-.11 1.232-.352 1.416-.913.197-.6-.253-1.237-.178-1.864"/>
        <path fill="#CAD6E3" d="M60.502 37.059c0 .478-1.395.866-3.116.866-1.72 0-3.115-.388-3.115-.866 0-.479 1.395-.867 3.115-.867 1.72 0 3.116.388 3.116.867M49.514 45.364l-.007 1.874c-.001.226.01.482.182.63.082.07.188.104.29.133 1.422.413 2.94.484 4.393.205.58-.11 1.232-.352 1.416-.913.197-.6 0-1.73 0-1.73"/>
        <path fill="#8D9FB5" d="M49.514 43.58l-.007 1.873c-.001.226.01.483.182.63.082.07.188.104.29.134a9.45 9.45 0 0 0 4.393.205c.58-.111 1.232-.353 1.416-.913.197-.6 0-1.732 0-1.732"/>
        <path fill="#CAD6E3" d="M49.514 42.074l-.007 1.874c-.001.226.01.483.182.63.082.07.188.104.29.134a9.45 9.45 0 0 0 4.393.205c.58-.111 1.232-.352 1.416-.913.197-.6 0-1.732 0-1.732"/>
        <path fill="#8D9FB5" d="M49.514 40.343l-.007 1.874c-.001.226.01.483.182.63.082.07.188.104.29.134 1.422.412 2.94.483 4.393.205.58-.111 1.232-.353 1.416-.913.197-.6-.253-1.237-.179-1.864"/>
        <path fill="#CAD6E3" d="M55.69 40.393c0 .479-1.395.867-3.116.867-1.72 0-3.114-.388-3.114-.867 0-.478 1.394-.866 3.114-.866 1.721 0 3.115.388 3.115.866M43.752 48.283l-.007 1.873c-.001.226.011.483.182.63.082.07.188.104.29.134 1.422.413 2.94.483 4.393.205.58-.111 1.232-.352 1.416-.913.197-.6 0-1.731 0-1.731"/>
        <path fill="#8D9FB5" d="M43.752 46.498l-.007 1.873c-.001.227.011.483.182.63.082.07.188.104.29.134a9.45 9.45 0 0 0 4.393.205c.58-.11 1.232-.352 1.416-.913.197-.6 0-1.731 0-1.731"/>
        <path fill="#CAD6E3" d="M43.752 44.993l-.007 1.874c-.001.226.011.482.182.63.082.07.188.103.29.134a9.45 9.45 0 0 0 4.393.204c.58-.11 1.232-.352 1.416-.913.197-.6 0-1.731 0-1.731"/>
        <path fill="#8D9FB5" d="M43.752 43.262l-.007 1.873c-.001.227.011.483.182.63.082.07.188.104.29.134 1.422.413 2.94.484 4.393.205.58-.11 1.232-.352 1.416-.913.197-.6-.253-1.237-.178-1.864"/>
        <path fill="#CAD6E3" d="M49.928 43.312c0 .478-1.395.866-3.115.866-1.72 0-3.115-.388-3.115-.866 0-.479 1.394-.867 3.115-.867 1.72 0 3.115.388 3.115.867"/>
        <path fill="#170C05" d="M37.383 56.215c.536.963 1.752 1.645 2.762 1.203 1.02-.446 1.331-1.715 1.514-2.813l.569-3.397c.078-.467-4.67-1.051-5.293-.127-.707 1.048-.1 4.147.448 5.134"/>
        <path fill="#A36B58" d="M69.08 9.42c.491-.215.998-.441 1.363-.836.443-.479.622-1.157.62-1.81-.001-.654-.165-1.294-.328-1.927-1.09.06-2.497-.039-2.802 1.175-.1.404.468 3.696 1.146 3.398"/>
        <path fill="#B67B63" d="M67.047 2.747c-.118.9-.234 1.831.015 2.704.25.873.966 1.68 1.872 1.74 1.068.07 1.91-.85 2.575-1.689.243-.304.487-.613.653-.966.367-.785.3-1.696.227-2.56"/>
        <path fill="#1A2020" d="M70.731 2.347l-.16-.372c.354.798.818 1.692 1.669 1.885a2.79 2.79 0 0 0 .155-2.127.52.52 0 0 0-.152-.255c-.099-.077-.233-.08-.357-.08-.356.003-.712.016-1.067.04"/>
        <path fill="#CAD6E3" d="M67.056 2.811c.062-.692.159-1.382.291-2.064.03-.16.068-.327.181-.444.126-.13.317-.166.496-.192a10.917 10.917 0 0 1 3.192.013c.257.038.525.092.725.259.199.166.3.42.374.668.13.436.245.926.154 1.362-.962-.343-1.653-.29-2.644.007-.18.054-2.809.838-2.769.391M75.322 7.775c.892.541 1.574 1.371 2.142 2.247a14.717 14.717 0 0 1 2.14 10.386c-.092.542-.227 1.103-.582 1.524-.693.822-1.935.83-3.01.768-.073-.84.262-1.654.485-2.467.813-2.953.096-6.285-1.859-8.642-.684-.825-2.565-2.248-2.417-3.458.181-1.49 2.288-.851 3.1-.358"/>
        <path fill="#E1846A" d="M72.112 9.77c-.06.445-.12.891-.111 1.34.008.445.086.887.163 1.326l.32 1.82a5.255 5.255 0 0 1 3.068.429c-.301-1.95.021-3.99.908-5.751.039-.077.08-.157.08-.243-.002-.12-.082-.225-.162-.316-.519-.591-1.857-1.832-2.734-1.715-1.193.158-1.41 2.207-1.532 3.11"/>
        <path fill="#B58A66" d="M39.782 51.483c-.62.011-2.325-1.846-2.325-1.846l-2.008 2.57s-.662.243-.935.472c-1.12.937-2.24 1.873-3.358 2.81-.175.146.705 2.6.893 2.809.688.766 1.137-.143 1.77-.785 1.465-1.488 4.57-4.474 5.963-6.03"/>
        <path fill="#D8B797" d="M49.846 49.9c1.01.018 3.016.242 3.016.242l-1.1 4.895-14.55-.897.245-4.503s2.487.078 3.584.098l8.805.164"/>
        <path fill="#88604C" d="M32.044 56.748c-.029-.197-.05-.401.002-.594.073-.268.278-.477.473-.675 1.85-1.87 5.057-6.045 5.057-6.045l.667-2.565s-5.455 5.66-6.838 7.136c-.215.23-.437.469-.546.765-.077.208-.095.433-.11.654-.093 1.425-.477 4.078 1.83 3.274-.198-.647-.434-1.271-.535-1.95"/>
        <path fill="#1F9995" d="M44.216 43.964l.007 1.874c.001.226-.01.483-.182.63a.757.757 0 0 1-.29.134 9.443 9.443 0 0 1-4.393.205c-.58-.111-1.232-.353-1.416-.913-.197-.6 0-1.731 0-1.731"/>
        <path fill="#1F9995" d="M44.216 42.46l.007 1.873c.001.227-.01.483-.182.63a.757.757 0 0 1-.29.134 9.443 9.443 0 0 1-4.393.205c-.58-.11-1.232-.352-1.416-.913-.197-.6 0-1.731 0-1.731"/>
        <path fill="#1F9995" d="M44.216 40.728l.007 1.874c.001.226-.01.483-.182.63a.76.76 0 0 1-.29.134 9.45 9.45 0 0 1-4.393.205c-.58-.111-1.232-.352-1.416-.913-.197-.6.253-1.237.178-1.864M44.216 45.749l.007 1.874c.001.226-.01.483-.182.63a.76.76 0 0 1-.29.134 9.45 9.45 0 0 1-4.393.205c-.58-.112-1.232-.353-1.416-.913-.197-.6 0-1.732 0-1.732"/>
        <path fill="#CAD6E3" d="M43.66 48.428c-.097 0-.189.044-.282.058-.029-1.772-.078-5.314-.108-7.087.2-.058.326-.15.446.005.086.112.01.63.011.778.005.509.006 1.017.001 1.525-.002.253-.029 4.72-.067 4.72"/>
        <path fill="#7C7F7C" d="M43.55 41.09c.187.306.38.627.403.985a.165.165 0 0 1-.014.093c-.032.054-.109.058-.17.044a.61.61 0 0 1-.414-.37.856.856 0 0 1-.01-.567c.036-.114.14-.243.249-.193"/>
        <path fill="#057158" d="M38.04 40.778c0 .48 1.395.867 3.116.867 1.72 0 3.115-.388 3.115-.867 0-.478-1.395-.866-3.115-.866-1.721 0-3.116.388-3.116.866"/>
        <path fill="#D8B797" d="M51.16 55.788L69.948 39.49l-.285-8.113L51.77 50.356z"/>
        <path fill="#C69D76" d="M54.567 50.076l.176-2.15c-2.794-.254-8.584.236-11.388.143-2.4-.08-5.899-.263-5.899-.263l-.012 1.981s11.872.333 17.123.29"/>
        <path fill="#88604C" d="M63.417 37.985c-.61.663-1.22 1.327-1.874 1.948-.977.928-2.046 1.756-3.04 2.666-3.764 3.444-9.953 11.194-13.61 14.751.639-.024 1.12.251 1.756.2.818-.066 5.16-3.89 5.69-4.517.811-.957 1.575-1.953 2.35-2.94a166.022 166.022 0 0 1 18.428-19.896c2.122-1.945 4.809-4.303 5.898-7.06-1.38-.557-1.562-.408-2.56.677l-3.153 3.427-6.359 6.911-3.526 3.833"/>
        <path fill="#B58A66" d="M79.015 23.137l.702 1.478c-.465.822-1.178 1.469-1.87 2.11-4.929 4.572-27.415 29.57-30.323 33.245-.2-.654-.58-1.085-.78-1.738-.092-.301-.184-.626-.085-.924.068-.207.22-.374.367-.535 9.384-10.205 21.234-24.889 31.99-33.636"/>
        <path fill="#B67B63" d="M60.815 22.003c-.145.663-.262 1.442.192 1.947.294.327.752.441 1.182.539.11.025.226.05.332.013a.614.614 0 0 0 .217-.156c.485-.472 1.005-1.023.999-1.7-.003-.294-.136-.61-.405-.728M75.803 22.382c-.144.663-.261 1.442.192 1.947.295.328.753.441 1.182.54.11.024.226.05.332.013a.612.612 0 0 0 .217-.157c.485-.471 1.005-1.023 1-1.7-.003-.294-.137-.61-.406-.728"/>
        <path fill="#88604C" d="M44.848 60.232c.137-.954.153-1.925.045-2.882.645-.412 1.509-.65 2.27-.725.003.562.065 1.261.184 1.807.084.385.377 1.164.177 1.537-.29.545-2.655.12-2.676.263"/>
        <path fill="#F7E0C4" d="M15.66 86.521c.036.63.07 1.268-.047 1.889-.118.62-.404 1.23-.904 1.616-.455-.37-.98-.804-1.304-1.293-.231-.35-.43-.763-.348-1.173.08-.388.402-.69.763-.848.362-.159 1.448-.153 1.84-.19"/>
        <path fill="#EAADA0" d="M16.87 82.985c.314.734.348 1.528.379 2.308.026.665.014 1.413-.57 1.89-.394.324-.989.45-1.545.413-.555-.036-1.078-.22-1.56-.442-.301-.138-.6-.3-.779-.54-.207-.277-.224-.618-.237-.943l-.085-2.262c-.003-.083.097-.201.157-.135"/>
        <path fill="#21160A" d="M31.95 111.6c.077.421.11.85.095 1.278-.005.139-.016.284-.09.401-.1.158-.29.23-.468.285a6.198 6.198 0 0 1-1.977.266c-.165-.005-.35-.025-.456-.15-.069-.08-.092-.19-.113-.292-.104-.522-.195-1.115.12-1.544.215-.292.572-.436.91-.567.464-.179 1.028-.346 1.421-.041"/>
        <path fill="#D1B3AF" d="M31.564 110.917c.056.42.079.85.07 1.277-.004.139-.012.284-.065.401-.072.158-.208.23-.337.285-.46.194-.943.283-1.423.264-.12-.005-.252-.026-.329-.152a.78.78 0 0 1-.081-.291c-.077-.522-.142-1.115.085-1.544.154-.292.41-.436.654-.566.334-.179.74-.345 1.023-.04"/>
        <g transform="translate(23.776 111.928)">
            <mask id="b" fill="#fff">
                <use xlink:href="#a"/>
            </mask>
            <path fill="#21160A" d="M3.259.859c.014.427-.019.856-.096 1.277-.026.137-.059.279-.15.384-.121.14-.32.185-.504.212a6.186 6.186 0 0 1-1.994-.031c-.163-.03-.342-.076-.43-.217-.055-.09-.062-.2-.067-.305C-.008 1.647-.01 1.047.366.67.622.413.996.324 1.35.245c.485-.108 1.068-.19 1.411.17" mask="url(#b)"/>
        </g>
        <path fill="#D1B3AF" d="M26.755 112.053a8.307 8.307 0 0 1-.122 1.273c-.023.137-.053.28-.123.388-.094.145-.24.197-.375.231-.484.123-.975.14-1.447.049-.117-.022-.245-.062-.303-.198a.788.788 0 0 1-.037-.3c.003-.528.026-1.125.314-1.515.196-.265.471-.37.731-.462.357-.127.783-.23 1.018.113"/>
        <path fill="#E2BEBA" d="M22.53 90.499c-.037.39-.071.786.007 1.169.079.383.286.759.628.949l.458-2.367c.065-.33.182-1.54-.498-1.275-.526.206-.553 1.07-.595 1.524"/>
        <path fill="#F7E0C4" d="M3.571 89.575c-.003.39-.003.788.108 1.164.11.375.35.731.706.891l.255-2.396c.036-.336.05-1.551-.605-1.228-.506.25-.46 1.113-.464 1.569"/>
        <path fill="#909CA9" d="M25.06 113.813c-.733-.081-1.423-.376-2.14-.546-.9-.214-1.832-.23-2.756-.235-.12 0-.245-.002-.351-.057-.189-.097-.263-.33-.273-.542-.034-.702.414-1.321.724-1.952.624-1.269.72-2.724.77-4.137.127-3.645.02-7.354 1.016-10.862.734-2.59 2.07-5.1 1.932-7.79-.028-.53-.112-1.069.013-1.584.126-.516.536-1.013 1.066-1.027.137-.003.286.033.37.14a.6.6 0 0 1 .095.256l1.696 8.438c.387 1.926.775 3.859.904 5.819.226 3.427-.35 6.875-1.388 10.149-.175.551-.365 1.11-.361 1.689.004.552.696 1.312.541 1.688-.228.554-1.388.606-1.858.553"/>
        <path fill="#CAD6E3" d="M32.977 88.33c-.028.787-.119 1.576-.17 2.361a93.14 93.14 0 0 0-.093 10.39c.087 1.85.236 3.733.92 5.456.472 1.187 1.205 2.454.77 3.656-.33.916-1.253 1.472-2.149 1.857-.886.38-1.811.666-2.757.853-.258.051-.522.096-.756.216-.244.125-.443.325-.686.453-.624.329-1.427.104-1.952-.366-.525-.47-.825-1.138-1.072-1.798-1.449-3.877-1.534-8.112-1.544-12.251-.003-1.294 0-2.599.268-3.864.235-1.113.67-2.177.898-3.292.684-3.338-.536-6.81-.085-10.188 1.333-1.082 3.83-3.047 5.407-1.459.429.432.723.977 1.011 1.514.717 1.335 1.44 2.7 1.803 4.181.184.754.215 1.517.187 2.282"/>
        <path fill="#E1846A" d="M26.444 85.166c-.277-.04-.568-.087-.785-.247-.39-.29-.397-.814-.37-1.266.017-.284.036-.573.154-.835.218-.482.736-.794 1.245-1.042.746-.364 1.533-.674 2.35-.836.84-.166 1.634-.268 2.04.58.45.939.91 1.906 1.335 2.86.283.636.085 1.017-.594 1.195-1.675.441-3.703-.174-5.375-.409"/>
        <path fill="#E2BEBA" d="M33.66 73.575a2.948 2.948 0 0 0-.173-.587c-.175-.39-.523-.75-.93-.986-.308.203 0 .74-.05 1.112-.018.13-.082.24-.127.358-.19.495-.057 1.11.084 1.698.102.428.227.888.586 1.245.727.725 1.132.27 1.186-.232.075-.7-.41-1.858-.576-2.608"/>
        <path fill="#065E47" d="M34.086 74.873c.169-.036.356-.069.504.02.083.05.141.131.196.212a10.924 10.924 0 0 1 1.47 3.072c.111.38.199.782.11 1.167-.088.385-.398.745-.792.77-.375.023-.698-.244-.977-.494-.614-.552-1.235-1.111-1.68-1.806-.324-.505-.837-1.594-.535-2.21.295-.602 1.113-.606 1.704-.731"/>
        <path fill="#E2BEBA" d="M26.473 69.201l-1.42-.076c-.044-.002-.093-.003-.126.027-.026.023-.034.06-.04.093-.108.582.141 1.164.392 1.7.363.773.433 1.349.4 2.183-.006.138-.005.29.084.396.05.06.123.095.195.125 1.5.601 1.86-.748 2.15-1.773.396-1.397 1.812-1.943 1.772-3.61-.01-.463-.215-1.016-.673-1.08l-.15 1.084c-.013.102-.031.211-.104.284-.085.084-.216.093-.332.125-.46.126-.452.653-.783.817-.168.084-.623-.021-.827.001a3.483 3.483 0 0 0-.752.167.423.423 0 0 0-.202.119c-.063.078-.066.186-.066.287 0 .585-.08 1.043-.167 1.597-.051.32-.09.643-.116.968"/>
        <path fill="#065E47" d="M25.823 85.657c.036 1.32.001 2.64-.104 3.957-.019.228-.048.477-.207.642-.195.201-.51.208-.791.2-.415-.01-.85-.027-1.206-.24-.503-.302-.716-.91-1.072-1.376a2.544 2.544 0 0 0-.653-.602c.32-.574.707-1.186 1.116-1.7.258-.324.551-.646.943-.777.174-.057.358-.073.54-.09.408-.035 1.025.021 1.434-.014"/>
        <path fill="#057158" d="M36.14 79.756c.072-.194.131-.406.073-.604-.044-.148-.15-.27-.252-.385l-4.765-5.406c-.43-.488-.883-.992-1.486-1.239-.554-.226-1.173-.208-1.77-.186-.97.035-1.953.072-2.881.355-.929.284-1.812.846-2.273 1.7-.35.647-.431 1.4-.506 2.132l-1.042 10.205c-.033.323-.066.65-.01.97.204 1.189 1.474 1.83 2.59 2.288.244.1.53.2.763.076.152-.081.244-.24.323-.392.893-1.742 1.014-3.768 1.043-5.726.004-.332.01-.677.15-.977.26-.553.892-.806 1.468-1.01.943-.333 1.919-.671 2.917-.606 1.27.083 1.947 1.597 2.988 1.594 1.149-.004 2.336-1.879 2.67-2.789"/>
        <path fill="#301E22" d="M26.637 70.787c.316.012.629-.011.93-.102 1.27-.384 2.397-2.011 2.45-3.312.02-.487-.115-.97-.307-1.418-.092-.216-.203-.432-.385-.58-.265-.216-.63-.25-.97-.27-.683-.04-1.367-.06-2.05-.061-.477-.001-.976.013-1.391.246-.46.26-.747.759-.87 1.273-.121.515-.1 1.05-.079 1.579.032.751.352 1.99 1.08 2.372.199.104.425.138.647.17.312.047.63.092.945.103"/>
        <path fill="#E1846A" d="M28.056 65.338a1.5 1.5 0 0 1-.712 1.12c-.409.24-.906.262-1.38.277l-.682.021c-.172.006-.357.008-.5-.089-.922-.623-.345-2.486.597-2.77 1.158-.349 2.844-.145 2.677 1.44"/>
        <path fill="#301E22" d="M28.24 65.083c-.051.457-.342.887-.772 1.118-.445.24-.987.258-1.505.27l-.744.018c-.188.005-.39.006-.546-.091-1.009-.628-.388-2.488.638-2.767 1.262-.344 3.103-.133 2.928 1.452"/>
        <path fill="#21160A" d="M13.11 112.283c-.04.425-.126.847-.257 1.254-.042.133-.093.27-.196.362-.14.125-.341.143-.528.147a6.186 6.186 0 0 1-1.974-.285c-.158-.05-.33-.119-.398-.27-.044-.095-.037-.205-.029-.31.042-.531.116-1.126.537-1.452.286-.223.669-.265 1.03-.298.494-.045 1.083-.052 1.378.348"/>
        <path fill="#D1B3AF" d="M12.783 111.03a8.303 8.303 0 0 1-.126 1.272c-.024.137-.054.28-.125.387-.095.145-.24.196-.376.23a3.31 3.31 0 0 1-1.447.044c-.117-.023-.245-.063-.302-.2a.79.79 0 0 1-.036-.3c.005-.528.03-1.124.32-1.513.196-.265.472-.368.733-.46.356-.125.783-.227 1.016.117"/>
        <path fill="#21160A" d="M8.058 112.082a6 6 0 0 1-.44 1.203c-.062.124-.132.252-.248.328-.156.103-.359.09-.544.066a6.19 6.19 0 0 1-1.91-.574c-.149-.072-.308-.167-.354-.325-.029-.102-.005-.21.018-.312.12-.52.282-1.097.746-1.357.317-.177.701-.161 1.064-.14.496.028 1.078.109 1.31.548"/>
        <path fill="#D1B3AF" d="M7.988 111.3a8.273 8.273 0 0 1-.463 1.192c-.06.125-.128.254-.225.339-.13.114-.284.123-.424.12a3.302 3.302 0 0 1-1.405-.348c-.107-.053-.218-.126-.237-.273a.79.79 0 0 1 .046-.3c.146-.506.331-1.074.714-1.37.262-.202.555-.227.83-.246.378-.025.817-.008.949.387"/>
        <path fill="#516660" d="M7.837 112.455c-.737-.016-1.45-.236-2.178-.337-.914-.127-1.845-.065-2.766.007-.12.009-.244.018-.354-.025-.196-.075-.29-.289-.317-.487-.092-.657.302-1.275.558-1.893.516-1.244.49-2.62.422-3.952-.177-3.434-.593-6.91.106-10.288.516-2.494 1.638-4.964 1.275-7.479-.072-.495-.2-.995-.12-1.49.083-.495.45-.996.978-1.052.136-.015.287.007.38.1.063.064.09.15.116.234l2.394 7.787c.547 1.778 1.094 3.562 1.387 5.393.51 3.202.225 6.49-.536 9.65-.128.533-.271 1.074-.22 1.617.05.519.804 1.175.68 1.542-.18.539-1.332.683-1.805.673"/>
        <path fill="#5E8C6B" d="M14.121 87.75c.591 1.122 1.13 2.273 1.439 3.51.868 3.475.238 6.93-.091 10.4-.168 1.762.136 3.536.096 5.306-.032 1.45-.324 3.148-1.325 4.27-.978 1.097-3.114.946-4.486 1.625-1.212.6-1.535.01-2.095-1.17-1.774-3.739-2.22-7.95-2.584-12.074-.113-1.288-.221-2.589-.063-3.873.14-1.129.482-2.226.614-3.356.397-3.384-1.115-6.74-.955-10.144 1.236-1.192 3.557-3.363 5.262-1.915.465.394.804.912 1.138 1.422.94 1.442 1.41 2.974 2.231 4.485.273.503.552 1.005.819 1.513"/>
        <path fill="#EAEAEF" d="M6.028 85.452c-.34-.013-.697-.033-.976-.174-.501-.251-.56-.774-.57-1.226-.007-.284-.012-.574.106-.845.218-.502.815-.86 1.408-1.154.87-.432 1.794-.814 2.77-1.05 1.002-.244 1.953-.419 2.528.387.636.894 1.288 1.815 1.894 2.726.405.607.202 1.005-.604 1.245-1.988.595-4.506.17-6.556.09"/>
        <path fill="#F7E0C4" d="M8.574 71.335l-1.422.045c-.044.002-.093.005-.123.038-.023.025-.03.062-.033.096-.057.589.241 1.147.537 1.66.427.74.547 1.307.584 2.141.007.139.02.29.119.387a.48.48 0 0 0 .205.108c1.546.471 1.788-.904 1.99-1.95.276-1.426 1.64-2.09 1.458-3.748-.05-.46-.301-.994-.763-1.02l-.056 1.094c-.006.103-.014.213-.08.292-.077.092-.208.11-.32.152-.447.166-.396.69-.711.882-.16.098-.623.032-.824.072-.252.05-.5.127-.735.23a.424.424 0 0 0-.191.136c-.056.083-.05.191-.041.291.05.583.01 1.047-.03 1.606-.024.324-.035.649-.033.974"/>
        <g transform="translate(0 84.787)">
            <mask id="d" fill="#fff">
                <use xlink:href="#c"/>
            </mask>
            <path fill="#EAADA0" d="M5.338.71a47.315 47.315 0 0 1-1.463 4.576c-.098.26-.215.54-.447.682-.283.174-.633.082-.94-.016-.452-.143-.925-.3-1.245-.66C.792 4.782.25 4.143.018 3.487-.1 3.154.416 2.201.194 1.936c.548-.568 1.007-.65 1.632-1.12C2.22.522 2.653.239 3.13.21c.21-.012.418.027.624.065.462.088 1.122.347 1.584.435" mask="url(#d)"/>
        </g>
        <path fill="#301E22" d="M8.873 72.901c.315-.015.625-.065.918-.182 1.232-.49 2.216-2.208 2.157-3.508-.022-.488-.196-.957-.426-1.388-.11-.206-.24-.412-.433-.544-.282-.193-.648-.195-.99-.186-.684.02-1.367.057-2.048.114-.475.04-.97.096-1.364.365-.437.298-.68.819-.758 1.342-.078.523-.01 1.055.056 1.58.095.746.52 1.952 1.278 2.27.207.087.436.102.66.116.315.019.635.037.95.021"/>
        <path fill="#E1846A" d="M16.616 83.627c.122-.166.239-.354.237-.56 0-.155-.068-.3-.134-.44l-3.074-6.518c-.278-.589-.573-1.2-1.083-1.604-.47-.37-1.069-.525-1.65-.671-.94-.236-1.895-.474-2.865-.46-.97.013-1.975.308-2.656 1-.516.524-.803 1.225-1.078 1.907L.474 85.793c-.121.301-.244.607-.28.93-.134 1.198.908 2.168 1.852 2.918.207.164.453.34.712.285.168-.035.3-.162.419-.287 1.343-1.424 2.023-3.337 2.594-5.21.097-.317.198-.647.417-.896.403-.46 1.08-.526 1.69-.562.999-.057 2.03-.11 2.97.23 1.197.433 1.426 2.076 2.427 2.362 1.104.316 2.766-1.154 3.34-1.936"/>
        <path fill="#3F292F" d="M10.246 67.609c-.216.392-.618.68-1.057.741-.454.064-.902-.103-1.328-.267l-.613-.235c-.154-.06-.318-.127-.409-.267-.58-.905.64-2.363 1.582-2.266 1.159.12 2.576.93 1.825 2.294"/>
        <path fill="#301E22" d="M23.955 67.6c.662 1.688.607 3.53.347 5.302-.26 1.771-.717 3.522-.84 5.305a16.053 16.053 0 0 1 5.23.394 45.884 45.884 0 0 1-.292-9.1c.05-.735.113-1.498-.177-2.189"/>
    </g>
</svg>
