<svg xmlns="http://www.w3.org/2000/svg" xmlns:xlink="http://www.w3.org/1999/xlink" width="92" height="132" viewBox="0 0 92 132">
    <defs>
        <path id="a" d="M1.232.322C1.128.36.992.36.853.359.654.358.453.357.343.475c-.173.189-.185.552-.217.802C-.037 2.56.228 4.66.438 5.922c.314 1.88.521 3.777.686 5.677.01.134.037.29.158.349a.39.39 0 0 0 .212.017l.369-.037c.056-.006.116-.014.156-.053.047-.046.05-.119.052-.184.046-2.52 1.037-4.935 1.234-7.448.098-1.26-.005-2.525-.107-3.784C3.189.36 2.2.3 1.624.3c-.201 0-.352.007-.392.023"/>
        <path id="c" d="M1.486.885C1.066.998.196.933.23 1.484c.039.603.47 1.358.682 1.925a57.188 57.188 0 0 0 1.659 3.959c.25.54.51 1.615.723 2.17.089.233.178.48.367.64.19.162.517.192.666-.007.098-.131.089-.311.074-.474C4.143 6.7 3.878 3.156 3.198.227c.031.133-1.551.615-1.712.658z"/>
        <path id="e" d="M1.686.716C1.218.883.78 1.137.45 1.51c-1.66 1.883 2.378 7.4 4.303 9.962-.034.77-.089 1.54-.2 2.308-.47 3.207-.794 16.839-1.262 20.046.475-.044 3.019.082 5.696.208 3.346.157 6.9.314 6.883.14-.449-4.282-1.164-18.973-1.734-23.24-.162-1.213-.69-4.064-1.69-6.365C11.259 1.83 9.4-.13 6.69 2.372a4.564 4.564 0 0 0-.856 1.089L4.794 1.512c-.247-.463-.53-.961-1.018-1.16a1.294 1.294 0 0 0-.491-.09c-.548 0-1.122.283-1.6.454"/>
        <path id="g" d="M1.686.716C1.218.883.78 1.137.45 1.51c-1.66 1.883 2.378 7.4 4.303 9.962-.034.77-.089 1.54-.2 2.308-.47 3.207-.794 16.839-1.262 20.046.475-.044 3.019.082 5.696.208 3.346.157 6.9.314 6.883.14-.449-4.282-1.164-18.973-1.734-23.24-.162-1.213-.69-4.064-1.69-6.365C11.259 1.83 9.4-.13 6.69 2.372a4.564 4.564 0 0 0-.856 1.089L4.794 1.512c-.247-.463-.53-.961-1.018-1.16a1.294 1.294 0 0 0-.491-.09c-.548 0-1.122.283-1.6.454"/>
        <path id="i" d="M1.686.716C1.218.883.78 1.137.45 1.51c-1.66 1.883 2.378 7.4 4.303 9.962-.034.77-.089 1.54-.2 2.308-.47 3.207-.794 16.839-1.262 20.046.475-.044 3.019.082 5.696.208 3.346.157 6.9.314 6.883.14-.449-4.282-1.164-18.973-1.734-23.24-.162-1.213-.69-4.064-1.69-6.365C11.259 1.83 9.4-.13 6.69 2.372a4.564 4.564 0 0 0-.856 1.089L4.794 1.512c-.247-.463-.53-.961-1.018-1.16a1.294 1.294 0 0 0-.491-.09c-.548 0-1.122.283-1.6.454"/>
        <path id="k" d="M1.686.716C1.218.883.78 1.137.45 1.51c-1.66 1.883 2.378 7.4 4.303 9.962-.034.77-.089 1.54-.2 2.308-.47 3.207-.794 16.839-1.262 20.046.475-.044 3.019.082 5.696.208 3.346.157 6.9.314 6.883.14-.449-4.282-1.164-18.973-1.734-23.24-.162-1.213-.69-4.064-1.69-6.365C11.259 1.83 9.4-.13 6.69 2.372a4.564 4.564 0 0 0-.856 1.089L4.794 1.512c-.247-.463-.53-.961-1.018-1.16a1.294 1.294 0 0 0-.491-.09c-.548 0-1.122.283-1.6.454"/>
        <path id="m" d="M1.686.716C1.218.883.78 1.137.45 1.51c-1.66 1.883 2.378 7.4 4.303 9.962-.034.77-.089 1.54-.2 2.308-.47 3.207-.794 16.839-1.262 20.046.475-.044 3.019.082 5.696.208 3.346.157 6.9.314 6.883.14-.449-4.282-1.164-18.973-1.734-23.24-.162-1.213-.69-4.064-1.69-6.365C11.259 1.83 9.4-.13 6.69 2.372a4.564 4.564 0 0 0-.856 1.089L4.794 1.512c-.247-.463-.53-.961-1.018-1.16a1.294 1.294 0 0 0-.491-.09c-.548 0-1.122.283-1.6.454"/>
        <path id="o" d="M1.686.716C1.218.883.78 1.137.45 1.51c-1.66 1.883 2.378 7.4 4.303 9.962-.034.77-.089 1.54-.2 2.308-.47 3.207-.794 16.839-1.262 20.046.475-.044 3.019.082 5.696.208 3.346.157 6.9.314 6.883.14-.449-4.282-1.164-18.973-1.734-23.24-.162-1.213-.69-4.064-1.69-6.365C11.259 1.83 9.4-.13 6.69 2.372a4.564 4.564 0 0 0-.856 1.089L4.794 1.512c-.247-.463-.53-.961-1.018-1.16a1.294 1.294 0 0 0-.491-.09c-.548 0-1.122.283-1.6.454"/>
        <path id="q" d="M1.686.716C1.218.883.78 1.137.45 1.51c-1.66 1.883 2.378 7.4 4.303 9.962-.034.77-.089 1.54-.2 2.308-.47 3.207-.794 16.839-1.262 20.046.475-.044 3.019.082 5.696.208 3.346.157 6.9.314 6.883.14-.449-4.282-1.164-18.973-1.734-23.24-.162-1.213-.69-4.064-1.69-6.365C11.259 1.83 9.4-.13 6.69 2.372a4.564 4.564 0 0 0-.856 1.089L4.794 1.512c-.247-.463-.53-.961-1.018-1.16a1.294 1.294 0 0 0-.491-.09c-.548 0-1.122.283-1.6.454"/>
        <path id="s" d="M1.686.716C1.218.883.78 1.137.45 1.51c-1.66 1.883 2.378 7.4 4.303 9.962-.034.77-.089 1.54-.2 2.308-.47 3.207-.794 16.839-1.262 20.046.475-.044 3.019.082 5.696.208 3.346.157 6.9.314 6.883.14-.449-4.282-1.164-18.973-1.734-23.24-.162-1.213-.69-4.064-1.69-6.365C11.259 1.83 9.4-.13 6.69 2.372a4.564 4.564 0 0 0-.856 1.089L4.794 1.512c-.247-.463-.53-.961-1.018-1.16a1.294 1.294 0 0 0-.491-.09c-.548 0-1.122.283-1.6.454"/>
        <path id="u" d="M1.686.716C1.218.883.78 1.137.45 1.51c-1.66 1.883 2.378 7.4 4.303 9.962-.034.77-.089 1.54-.2 2.308-.47 3.207-.794 16.839-1.262 20.046.475-.044 3.019.082 5.696.208 3.346.157 6.9.314 6.883.14-.449-4.282-1.164-18.973-1.734-23.24-.162-1.213-.69-4.064-1.69-6.365C11.259 1.83 9.4-.13 6.69 2.372a4.564 4.564 0 0 0-.856 1.089L4.794 1.512c-.247-.463-.53-.961-1.018-1.16a1.294 1.294 0 0 0-.491-.09c-.548 0-1.122.283-1.6.454"/>
        <path id="w" d="M1.686.716C1.218.883.78 1.137.45 1.51c-1.66 1.883 2.378 7.4 4.303 9.962-.034.77-.089 1.54-.2 2.308-.47 3.207-.794 16.839-1.262 20.046.475-.044 3.019.082 5.696.208 3.346.157 6.9.314 6.883.14-.449-4.282-1.164-18.973-1.734-23.24-.162-1.213-.69-4.064-1.69-6.365C11.259 1.83 9.4-.13 6.69 2.372a4.564 4.564 0 0 0-.856 1.089L4.794 1.512c-.247-.463-.53-.961-1.018-1.16a1.294 1.294 0 0 0-.491-.09c-.548 0-1.122.283-1.6.454"/>
        <path id="y" d="M1.686.716C1.218.883.78 1.137.45 1.51c-1.66 1.883 2.378 7.4 4.303 9.962-.034.77-.089 1.54-.2 2.308-.47 3.207-.794 16.839-1.262 20.046.475-.044 3.019.082 5.696.208 3.346.157 6.9.314 6.883.14-.449-4.282-1.164-18.973-1.734-23.24-.162-1.213-.69-4.064-1.69-6.365C11.259 1.83 9.4-.13 6.69 2.372a4.564 4.564 0 0 0-.856 1.089L4.794 1.512c-.247-.463-.53-.961-1.018-1.16a1.294 1.294 0 0 0-.491-.09c-.548 0-1.122.283-1.6.454"/>
        <path id="A" d="M1.686.716C1.218.883.78 1.137.45 1.51c-1.66 1.883 2.378 7.4 4.303 9.962-.034.77-.089 1.54-.2 2.308-.47 3.207-.794 16.839-1.262 20.046.475-.044 3.019.082 5.696.208 3.346.157 6.9.314 6.883.14-.449-4.282-1.164-18.973-1.734-23.24-.162-1.213-.69-4.064-1.69-6.365C11.259 1.83 9.4-.13 6.69 2.372a4.564 4.564 0 0 0-.856 1.089L4.794 1.512c-.247-.463-.53-.961-1.018-1.16a1.294 1.294 0 0 0-.491-.09c-.548 0-1.122.283-1.6.454"/>
        <path id="C" d="M1.686.716C1.218.883.78 1.137.45 1.51c-1.66 1.883 2.378 7.4 4.303 9.962-.034.77-.089 1.54-.2 2.308-.47 3.207-.794 16.839-1.262 20.046.475-.044 3.019.082 5.696.208 3.346.157 6.9.314 6.883.14-.449-4.282-1.164-18.973-1.734-23.24-.162-1.213-.69-4.064-1.69-6.365C11.259 1.83 9.4-.13 6.69 2.372a4.564 4.564 0 0 0-.856 1.089L4.794 1.512c-.247-.463-.53-.961-1.018-1.16a1.294 1.294 0 0 0-.491-.09c-.548 0-1.122.283-1.6.454"/>
        <path id="E" d="M1.686.716C1.218.883.78 1.137.45 1.51c-1.66 1.883 2.378 7.4 4.303 9.962-.034.77-.089 1.54-.2 2.308-.47 3.207-.794 16.839-1.262 20.046.475-.044 3.019.082 5.696.208 3.346.157 6.9.314 6.883.14-.449-4.282-1.164-18.973-1.734-23.24-.162-1.213-.69-4.064-1.69-6.365C11.259 1.83 9.4-.13 6.69 2.372a4.564 4.564 0 0 0-.856 1.089L4.794 1.512c-.247-.463-.53-.961-1.018-1.16a1.294 1.294 0 0 0-.491-.09c-.548 0-1.122.283-1.6.454"/>
        <path id="G" d="M1.686.716C1.218.883.78 1.137.45 1.51c-1.66 1.883 2.378 7.4 4.303 9.962-.034.77-.089 1.54-.2 2.308-.47 3.207-.794 16.839-1.262 20.046.475-.044 3.019.082 5.696.208 3.346.157 6.9.314 6.883.14-.449-4.282-1.164-18.973-1.734-23.24-.162-1.213-.69-4.064-1.69-6.365C11.259 1.83 9.4-.13 6.69 2.372a4.564 4.564 0 0 0-.856 1.089L4.794 1.512c-.247-.463-.53-.961-1.018-1.16a1.294 1.294 0 0 0-.491-.09c-.548 0-1.122.283-1.6.454"/>
        <path id="I" d="M1.686.716C1.218.883.78 1.137.45 1.51c-1.66 1.883 2.378 7.4 4.303 9.962-.034.77-.089 1.54-.2 2.308-.47 3.207-.794 16.839-1.262 20.046.475-.044 3.019.082 5.696.208 3.346.157 6.9.314 6.883.14-.449-4.282-1.164-18.973-1.734-23.24-.162-1.213-.69-4.064-1.69-6.365C11.259 1.83 9.4-.13 6.69 2.372a4.564 4.564 0 0 0-.856 1.089L4.794 1.512c-.247-.463-.53-.961-1.018-1.16a1.294 1.294 0 0 0-.491-.09c-.548 0-1.122.283-1.6.454"/>
        <path id="K" d="M1.686.716C1.218.883.78 1.137.45 1.51c-1.66 1.883 2.378 7.4 4.303 9.962-.034.77-.089 1.54-.2 2.308-.47 3.207-.794 16.839-1.262 20.046.475-.044 3.019.082 5.696.208 3.346.157 6.9.314 6.883.14-.449-4.282-1.164-18.973-1.734-23.24-.162-1.213-.69-4.064-1.69-6.365C11.259 1.83 9.4-.13 6.69 2.372a4.564 4.564 0 0 0-.856 1.089L4.794 1.512c-.247-.463-.53-.961-1.018-1.16a1.294 1.294 0 0 0-.491-.09c-.548 0-1.122.283-1.6.454"/>
        <path id="M" d="M1.686.716C1.218.883.78 1.137.45 1.51c-1.66 1.883 2.378 7.4 4.303 9.962-.034.77-.089 1.54-.2 2.308-.47 3.207-.794 16.839-1.262 20.046.475-.044 3.019.082 5.696.208 3.346.157 6.9.314 6.883.14-.449-4.282-1.164-18.973-1.734-23.24-.162-1.213-.69-4.064-1.69-6.365C11.259 1.83 9.4-.13 6.69 2.372a4.564 4.564 0 0 0-.856 1.089L4.794 1.512c-.247-.463-.53-.961-1.018-1.16a1.294 1.294 0 0 0-.491-.09c-.548 0-1.122.283-1.6.454"/>
        <path id="O" d="M1.686.716C1.218.883.78 1.137.45 1.51c-1.66 1.883 2.378 7.4 4.303 9.962-.034.77-.089 1.54-.2 2.308-.47 3.207-.794 16.839-1.262 20.046.475-.044 3.019.082 5.696.208 3.346.157 6.9.314 6.883.14-.449-4.282-1.164-18.973-1.734-23.24-.162-1.213-.69-4.064-1.69-6.365C11.259 1.83 9.4-.13 6.69 2.372a4.564 4.564 0 0 0-.856 1.089L4.794 1.512c-.247-.463-.53-.961-1.018-1.16a1.294 1.294 0 0 0-.491-.09c-.548 0-1.122.283-1.6.454"/>
        <path id="Q" d="M1.686.716C1.218.883.78 1.137.45 1.51c-1.66 1.883 2.378 7.4 4.303 9.962-.034.77-.089 1.54-.2 2.308-.47 3.207-.794 16.839-1.262 20.046.475-.044 3.019.082 5.696.208 3.346.157 6.9.314 6.883.14-.449-4.282-1.164-18.973-1.734-23.24-.162-1.213-.69-4.064-1.69-6.365C11.259 1.83 9.4-.13 6.69 2.372a4.564 4.564 0 0 0-.856 1.089L4.794 1.512c-.247-.463-.53-.961-1.018-1.16a1.294 1.294 0 0 0-.491-.09c-.548 0-1.122.283-1.6.454"/>
        <path id="S" d="M1.686.716C1.218.883.78 1.137.45 1.51c-1.66 1.883 2.378 7.4 4.303 9.962-.034.77-.089 1.54-.2 2.308-.47 3.207-.794 16.839-1.262 20.046.475-.044 3.019.082 5.696.208 3.346.157 6.9.314 6.883.14-.449-4.282-1.164-18.973-1.734-23.24-.162-1.213-.69-4.064-1.69-6.365C11.259 1.83 9.4-.13 6.69 2.372a4.564 4.564 0 0 0-.856 1.089L4.794 1.512c-.247-.463-.53-.961-1.018-1.16a1.294 1.294 0 0 0-.491-.09c-.548 0-1.122.283-1.6.454"/>
        <path id="U" d="M1.686.716C1.218.883.78 1.137.45 1.51c-1.66 1.883 2.378 7.4 4.303 9.962-.034.77-.089 1.54-.2 2.308-.47 3.207-.794 16.839-1.262 20.046.475-.044 3.019.082 5.696.208 3.346.157 6.9.314 6.883.14-.449-4.282-1.164-18.973-1.734-23.24-.162-1.213-.69-4.064-1.69-6.365C11.259 1.83 9.4-.13 6.69 2.372a4.564 4.564 0 0 0-.856 1.089L4.794 1.512c-.247-.463-.53-.961-1.018-1.16a1.294 1.294 0 0 0-.491-.09c-.548 0-1.122.283-1.6.454"/>
        <path id="W" d="M1.686.716C1.218.883.78 1.137.45 1.51c-1.66 1.883 2.378 7.4 4.303 9.962-.034.77-.089 1.54-.2 2.308-.47 3.207-.794 16.839-1.262 20.046.475-.044 3.019.082 5.696.208 3.346.157 6.9.314 6.883.14-.449-4.282-1.164-18.973-1.734-23.24-.162-1.213-.69-4.064-1.69-6.365C11.259 1.83 9.4-.13 6.69 2.372a4.564 4.564 0 0 0-.856 1.089L4.794 1.512c-.247-.463-.53-.961-1.018-1.16a1.294 1.294 0 0 0-.491-.09c-.548 0-1.122.283-1.6.454"/>
        <path id="Y" d="M1.686.716C1.218.883.78 1.137.45 1.51c-1.66 1.883 2.378 7.4 4.303 9.962-.034.77-.089 1.54-.2 2.308-.47 3.207-.794 16.839-1.262 20.046.475-.044 3.019.082 5.696.208 3.346.157 6.9.314 6.883.14-.449-4.282-1.164-18.973-1.734-23.24-.162-1.213-.69-4.064-1.69-6.365C11.259 1.83 9.4-.13 6.69 2.372a4.564 4.564 0 0 0-.856 1.089L4.794 1.512c-.247-.463-.53-.961-1.018-1.16a1.294 1.294 0 0 0-.491-.09c-.548 0-1.122.283-1.6.454"/>
        <path id="aa" d="M1.686.716C1.218.883.78 1.137.45 1.51c-1.66 1.883 2.378 7.4 4.303 9.962-.034.77-.089 1.54-.2 2.308-.47 3.207-.794 16.839-1.262 20.046.475-.044 3.019.082 5.696.208 3.346.157 6.9.314 6.883.14-.449-4.282-1.164-18.973-1.734-23.24-.162-1.213-.69-4.064-1.69-6.365C11.259 1.83 9.4-.13 6.69 2.372a4.564 4.564 0 0 0-.856 1.089L4.794 1.512c-.247-.463-.53-.961-1.018-1.16a1.294 1.294 0 0 0-.491-.09c-.548 0-1.122.283-1.6.454"/>
        <path id="ac" d="M1.686.716C1.218.883.78 1.137.45 1.51c-1.66 1.883 2.378 7.4 4.303 9.962-.034.77-.089 1.54-.2 2.308-.47 3.207-.794 16.839-1.262 20.046.475-.044 3.019.082 5.696.208 3.346.157 6.9.314 6.883.14-.449-4.282-1.164-18.973-1.734-23.24-.162-1.213-.69-4.064-1.69-6.365C11.259 1.83 9.4-.13 6.69 2.372a4.564 4.564 0 0 0-.856 1.089L4.794 1.512c-.247-.463-.53-.961-1.018-1.16a1.294 1.294 0 0 0-.491-.09c-.548 0-1.122.283-1.6.454"/>
        <path id="ae" d="M1.686.716C1.218.883.78 1.137.45 1.51c-1.66 1.883 2.378 7.4 4.303 9.962-.034.77-.089 1.54-.2 2.308-.47 3.207-.794 16.839-1.262 20.046.475-.044 3.019.082 5.696.208 3.346.157 6.9.314 6.883.14-.449-4.282-1.164-18.973-1.734-23.24-.162-1.213-.69-4.064-1.69-6.365C11.259 1.83 9.4-.13 6.69 2.372a4.564 4.564 0 0 0-.856 1.089L4.794 1.512c-.247-.463-.53-.961-1.018-1.16a1.294 1.294 0 0 0-.491-.09c-.548 0-1.122.283-1.6.454"/>
        <path id="ag" d="M1.686.716C1.218.883.78 1.137.45 1.51c-1.66 1.883 2.378 7.4 4.303 9.962-.034.77-.089 1.54-.2 2.308-.47 3.207-.794 16.839-1.262 20.046.475-.044 3.019.082 5.696.208 3.346.157 6.9.314 6.883.14-.449-4.282-1.164-18.973-1.734-23.24-.162-1.213-.69-4.064-1.69-6.365C11.259 1.83 9.4-.13 6.69 2.372a4.564 4.564 0 0 0-.856 1.089L4.794 1.512c-.247-.463-.53-.961-1.018-1.16a1.294 1.294 0 0 0-.491-.09c-.548 0-1.122.283-1.6.454"/>
        <path id="ai" d="M1.686.716C1.218.883.78 1.137.45 1.51c-1.66 1.883 2.378 7.4 4.303 9.962-.034.77-.089 1.54-.2 2.308-.47 3.207-.794 16.839-1.262 20.046.475-.044 3.019.082 5.696.208 3.346.157 6.9.314 6.883.14-.449-4.282-1.164-18.973-1.734-23.24-.162-1.213-.69-4.064-1.69-6.365C11.259 1.83 9.4-.13 6.69 2.372a4.564 4.564 0 0 0-.856 1.089L4.794 1.512c-.247-.463-.53-.961-1.018-1.16a1.294 1.294 0 0 0-.491-.09c-.548 0-1.122.283-1.6.454"/>
        <path id="ak" d="M1.686.716C1.218.883.78 1.137.45 1.51c-1.66 1.883 2.378 7.4 4.303 9.962-.034.77-.089 1.54-.2 2.308-.47 3.207-.794 16.839-1.262 20.046.475-.044 3.019.082 5.696.208 3.346.157 6.9.314 6.883.14-.449-4.282-1.164-18.973-1.734-23.24-.162-1.213-.69-4.064-1.69-6.365C11.259 1.83 9.4-.13 6.69 2.372a4.564 4.564 0 0 0-.856 1.089L4.794 1.512c-.247-.463-.53-.961-1.018-1.16a1.294 1.294 0 0 0-.491-.09c-.548 0-1.122.283-1.6.454"/>
        <path id="am" d="M1.686.716C1.218.883.78 1.137.45 1.51c-1.66 1.883 2.378 7.4 4.303 9.962-.034.77-.089 1.54-.2 2.308-.47 3.207-.794 16.839-1.262 20.046.475-.044 3.019.082 5.696.208 3.346.157 6.9.314 6.883.14-.449-4.282-1.164-18.973-1.734-23.24-.162-1.213-.69-4.064-1.69-6.365C11.259 1.83 9.4-.13 6.69 2.372a4.564 4.564 0 0 0-.856 1.089L4.794 1.512c-.247-.463-.53-.961-1.018-1.16a1.294 1.294 0 0 0-.491-.09c-.548 0-1.122.283-1.6.454"/>
        <path id="ao" d="M1.686.716C1.218.883.78 1.137.45 1.51c-1.66 1.883 2.378 7.4 4.303 9.962-.034.77-.089 1.54-.2 2.308-.47 3.207-.794 16.839-1.262 20.046.475-.044 3.019.082 5.696.208 3.346.157 6.9.314 6.883.14-.449-4.282-1.164-18.973-1.734-23.24-.162-1.213-.69-4.064-1.69-6.365C11.259 1.83 9.4-.13 6.69 2.372a4.564 4.564 0 0 0-.856 1.089L4.794 1.512c-.247-.463-.53-.961-1.018-1.16a1.294 1.294 0 0 0-.491-.09c-.548 0-1.122.283-1.6.454"/>
        <path id="aq" d="M1.686.716C1.218.883.78 1.137.45 1.51c-1.66 1.883 2.378 7.4 4.303 9.962-.034.77-.089 1.54-.2 2.308-.47 3.207-.794 16.839-1.262 20.046.475-.044 3.019.082 5.696.208 3.346.157 6.9.314 6.883.14-.449-4.282-1.164-18.973-1.734-23.24-.162-1.213-.69-4.064-1.69-6.365C11.259 1.83 9.4-.13 6.69 2.372a4.564 4.564 0 0 0-.856 1.089L4.794 1.512c-.247-.463-.53-.961-1.018-1.16a1.294 1.294 0 0 0-.491-.09c-.548 0-1.122.283-1.6.454"/>
        <path id="as" d="M1.686.716C1.218.883.78 1.137.45 1.51c-1.66 1.883 2.378 7.4 4.303 9.962-.034.77-.089 1.54-.2 2.308-.47 3.207-.794 16.839-1.262 20.046.475-.044 3.019.082 5.696.208 3.346.157 6.9.314 6.883.14-.449-4.282-1.164-18.973-1.734-23.24-.162-1.213-.69-4.064-1.69-6.365C11.259 1.83 9.4-.13 6.69 2.372a4.564 4.564 0 0 0-.856 1.089L4.794 1.512c-.247-.463-.53-.961-1.018-1.16a1.294 1.294 0 0 0-.491-.09c-.548 0-1.122.283-1.6.454"/>
        <path id="au" d="M1.686.716C1.218.883.78 1.137.45 1.51c-1.66 1.883 2.378 7.4 4.303 9.962-.034.77-.089 1.54-.2 2.308-.47 3.207-.794 16.839-1.262 20.046.475-.044 3.019.082 5.696.208 3.346.157 6.9.314 6.883.14-.449-4.282-1.164-18.973-1.734-23.24-.162-1.213-.69-4.064-1.69-6.365C11.259 1.83 9.4-.13 6.69 2.372a4.564 4.564 0 0 0-.856 1.089L4.794 1.512c-.247-.463-.53-.961-1.018-1.16a1.294 1.294 0 0 0-.491-.09c-.548 0-1.122.283-1.6.454"/>
        <path id="aw" d="M1.686.716C1.218.883.78 1.137.45 1.51c-1.66 1.883 2.378 7.4 4.303 9.962-.034.77-.089 1.54-.2 2.308-.47 3.207-.794 16.839-1.262 20.046.475-.044 3.019.082 5.696.208 3.346.157 6.9.314 6.883.14-.449-4.282-1.164-18.973-1.734-23.24-.162-1.213-.69-4.064-1.69-6.365C11.259 1.83 9.4-.13 6.69 2.372a4.564 4.564 0 0 0-.856 1.089L4.794 1.512c-.247-.463-.53-.961-1.018-1.16a1.294 1.294 0 0 0-.491-.09c-.548 0-1.122.283-1.6.454"/>
        <path id="ay" d="M1.686.716C1.218.883.78 1.137.45 1.51c-1.66 1.883 2.378 7.4 4.303 9.962-.034.77-.089 1.54-.2 2.308-.47 3.207-.794 16.839-1.262 20.046.475-.044 3.019.082 5.696.208 3.346.157 6.9.314 6.883.14-.449-4.282-1.164-18.973-1.734-23.24-.162-1.213-.69-4.064-1.69-6.365C11.259 1.83 9.4-.13 6.69 2.372a4.564 4.564 0 0 0-.856 1.089L4.794 1.512c-.247-.463-.53-.961-1.018-1.16a1.294 1.294 0 0 0-.491-.09c-.548 0-1.122.283-1.6.454"/>
        <path id="aA" d="M1.686.716C1.218.883.78 1.137.45 1.51c-1.66 1.883 2.378 7.4 4.303 9.962-.034.77-.089 1.54-.2 2.308-.47 3.207-.794 16.839-1.262 20.046.475-.044 3.019.082 5.696.208 3.346.157 6.9.314 6.883.14-.449-4.282-1.164-18.973-1.734-23.24-.162-1.213-.69-4.064-1.69-6.365C11.259 1.83 9.4-.13 6.69 2.372a4.564 4.564 0 0 0-.856 1.089L4.794 1.512c-.247-.463-.53-.961-1.018-1.16a1.294 1.294 0 0 0-.491-.09c-.548 0-1.122.283-1.6.454"/>
        <path id="aC" d="M1.686.716C1.218.883.78 1.137.45 1.51c-1.66 1.883 2.378 7.4 4.303 9.962-.034.77-.089 1.54-.2 2.308-.47 3.207-.794 16.839-1.262 20.046.475-.044 3.019.082 5.696.208 3.346.157 6.9.314 6.883.14-.449-4.282-1.164-18.973-1.734-23.24-.162-1.213-.69-4.064-1.69-6.365C11.259 1.83 9.4-.13 6.69 2.372a4.564 4.564 0 0 0-.856 1.089L4.794 1.512c-.247-.463-.53-.961-1.018-1.16a1.294 1.294 0 0 0-.491-.09c-.548 0-1.122.283-1.6.454"/>
        <path id="aE" d="M1.686.716C1.218.883.78 1.137.45 1.51c-1.66 1.883 2.378 7.4 4.303 9.962-.034.77-.089 1.54-.2 2.308-.47 3.207-.794 16.839-1.262 20.046.475-.044 3.019.082 5.696.208 3.346.157 6.9.314 6.883.14-.449-4.282-1.164-18.973-1.734-23.24-.162-1.213-.69-4.064-1.69-6.365C11.259 1.83 9.4-.13 6.69 2.372a4.564 4.564 0 0 0-.856 1.089L4.794 1.512c-.247-.463-.53-.961-1.018-1.16a1.294 1.294 0 0 0-.491-.09c-.548 0-1.122.283-1.6.454"/>
        <path id="aG" d="M1.686.716C1.218.883.78 1.137.45 1.51c-1.66 1.883 2.378 7.4 4.303 9.962-.034.77-.089 1.54-.2 2.308-.47 3.207-.794 16.839-1.262 20.046.475-.044 3.019.082 5.696.208 3.346.157 6.9.314 6.883.14-.449-4.282-1.164-18.973-1.734-23.24-.162-1.213-.69-4.064-1.69-6.365C11.259 1.83 9.4-.13 6.69 2.372a4.564 4.564 0 0 0-.856 1.089L4.794 1.512c-.247-.463-.53-.961-1.018-1.16a1.294 1.294 0 0 0-.491-.09c-.548 0-1.122.283-1.6.454"/>
        <path id="aI" d="M1.686.716C1.218.883.78 1.137.45 1.51c-1.66 1.883 2.378 7.4 4.303 9.962-.034.77-.089 1.54-.2 2.308-.47 3.207-.794 16.839-1.262 20.046.475-.044 3.019.082 5.696.208 3.346.157 6.9.314 6.883.14-.449-4.282-1.164-18.973-1.734-23.24-.162-1.213-.69-4.064-1.69-6.365C11.259 1.83 9.4-.13 6.69 2.372a4.564 4.564 0 0 0-.856 1.089L4.794 1.512c-.247-.463-.53-.961-1.018-1.16a1.294 1.294 0 0 0-.491-.09c-.548 0-1.122.283-1.6.454"/>
        <path id="aK" d="M1.686.716C1.218.883.78 1.137.45 1.51c-1.66 1.883 2.378 7.4 4.303 9.962-.034.77-.089 1.54-.2 2.308-.47 3.207-.794 16.839-1.262 20.046.475-.044 3.019.082 5.696.208 3.346.157 6.9.314 6.883.14-.449-4.282-1.164-18.973-1.734-23.24-.162-1.213-.69-4.064-1.69-6.365C11.259 1.83 9.4-.13 6.69 2.372a4.564 4.564 0 0 0-.856 1.089L4.794 1.512c-.247-.463-.53-.961-1.018-1.16a1.294 1.294 0 0 0-.491-.09c-.548 0-1.122.283-1.6.454"/>
        <path id="aM" d="M.228.314C.125 1.573.023 2.838.121 4.097c.197 2.513 1.187 4.929 1.234 7.449.002.065.005.138.052.183.04.04.1.047.156.053l.369.038c.07.007.147.014.212-.018.12-.058.147-.215.159-.348.164-1.9.371-3.797.685-5.678.21-1.261.475-3.361.311-4.645-.031-.25-.043-.613-.216-.802-.11-.118-.312-.117-.51-.115-.139 0-.276.001-.379-.038-.04-.015-.191-.023-.392-.023-.576 0-1.566.06-1.574.161"/>
        <path id="aO" d="M.284 9.551c-.014.163-.024.343.074.474.15.2.477.17.667.008.189-.162.277-.408.366-.64.213-.556.473-1.632.723-2.171a55.904 55.904 0 0 0 1.659-3.958c.212-.567.643-1.322.682-1.926.036-.55-.834-.486-1.254-.598C3.04.696 1.457.215 1.488.08.808 3.01.543 6.556.284 9.551"/>
        <path id="aQ" d="M0 .038h3.357v10.114H0z"/>
    </defs>
    <g fill="none" fill-rule="evenodd">
        <path fill="#353535" d="M88.365 65.253c-.277.104-1.045.729-.767 1.015.862.882 2.048 1.721 3.3 1.9.345.048.747.011.957-.266.224-.294.125-.711.017-1.065-.262-.856-.506-.955-1.361-1.244-.562-.19-1.543-.554-2.146-.34M81.315 66.64c-.292.05-1.163.522-.943.855.683 1.027 1.691 1.531 2.889 1.939.33.112.732.15.99-.083.274-.248.255-.676.215-1.044-.098-.89-.32-1.032-1.106-1.475-.516-.29-1.413-.29-2.045-.192"/>
        <path fill="#F5D2B1" d="M82.356 61.76c.314 1.88.52 3.777.685 5.676.012.134.038.29.16.35.064.03.14.024.211.016l.368-.037c.057-.006.117-.014.157-.053.047-.045.05-.118.051-.183.047-2.52 1.038-4.936 1.235-7.449.098-1.26-.005-2.525-.107-3.784-.011-.135-1.81.342-1.967.402-.251.097-.703.223-.888.424-.174.188-.185.551-.217.802-.163 1.283.102 2.574.312 3.835M89.216 63.834c.25.54.51 1.615.723 2.17.089.233.177.48.367.64.19.162.517.192.666-.007.098-.132.088-.311.074-.475-.259-2.995-.795-12.918-1.475-15.847.031.133-1.551 5.643-1.712 5.687-.42.112-1.29.048-1.255.599.04.603.74 2.707.953 3.274a56.483 56.483 0 0 0 1.659 3.959"/>
        <g transform="translate(81.918 55.837)">
            <mask id="b" fill="#fff">
                <use xlink:href="#a"/>
            </mask>
            <path fill="#EAEAEF" d="M3.326 8.631c-.03.24.357.266.517.447.061.068.087.16.11.25.415 1.623.52 3.325.307 4.987-.169 1.32-.566 2.668-1.474 3.644-.285.306-.628.576-1.033.684-.405.108-.878.027-1.162-.28-.146-.158-.232-.36-.315-.559-.344-.828-.674-1.678-.751-2.571-.062-.702.035-1.407.06-2.11.025-.661-.014-1.322-.023-1.982-.007-.548-.086-1.293.12-1.814.206-.52.943-.418 1.414-.467l2.23-.229" mask="url(#b)"/>
        </g>
        <g transform="translate(86.644 56.466)">
            <mask id="d" fill="#fff">
                <use xlink:href="#c"/>
            </mask>
            <path fill="#EAEAEF" d="M4.2 7.369c.083-.025.172-.05.253-.022.077.026.132.093.18.158.427.578.678 1.265.88 1.954.259.885.446 1.79.558 2.704.075.606.115 1.773-.078 2.352-.203.605-.642.56-1.099 1.007-.22.216-.478.438-.787.445-.267.006-.51-.154-.71-.332-1.535-1.373-.681-.148-1.645-3.323a37.432 37.432 0 0 0-.639-1.914C.963 9.982.386 9.072.565 8.64c.183-.44 1.159-.535 1.554-.652l2.081-.62z" mask="url(#d)"/>
        </g>
        <path fill="#F5D2B1" d="M83.124 24.973c.946 1.002 2.063 1.96 2.22 3.36.04.374.084 1.293-.19 1.585-.327.35-1.024.114-1.315-.15-.395-.357-.574-.886-.762-1.383a15.751 15.751 0 0 0-1.448-2.874c-.327-.448-.52-1.07-.78-1.565-.302-.57.438-.851.875-.615.26.14.418.406.581.65.231.346.516.671.819.992M76.138 23.024c-.192-.202-.433-.354-.621-.56-.118-.127-.217-.277-.363-.373-.146-.095-.363-.116-.48.011-.15.162-.049.418.055.61.42.779.686 1.663.68 2.546-.002.116.003.243.076.333.097.12.275.13.43.13h.248c.195 0 .423-.018.531-.18a.547.547 0 0 0 .07-.26c.071-.78-.06-1.662-.626-2.257"/>
        <path fill="#F5D2B1" d="M81.201 22.261c-.26-.45-.32-1.002-.635-1.415-.068-.09-.18-.178-.282-.132l-.157 1.775c-.02.217-.038.44.025.649.13.434.524.628.741.999.051.086.096.181.179.238.14.095.336.043.476-.053.9-.623 0-1.462-.347-2.061"/>
        <path fill="#8D9FB5" d="M88.555 33.44c.968 2.316 1.456 5.174 1.6 6.388.512 4.275 1.023 18.975 1.412 23.262.028.315-11.503-.606-12.573-.521.513-3.2 1.025-16.826 1.539-20.026.439-2.73.178-5.494.664-8.193.216-1.195.726-2.373 1.63-3.186 2.745-2.465 4.577-.479 5.728 2.277"/>
        <path fill="#F5D2B1" d="M77.728 29.274a5.881 5.881 0 0 1-.55-1.26c-.134-.446-.204-.908-.273-1.369-.067-.439-.03-1.722-.316-2.044-.275-.31-.937-.08-1.1.24-.127.255-.08.557-.03.837l.677 3.814c.173.97.353 1.963.839 2.822.453.803 1.145 1.44 1.825 2.062.575.525 1.997 2.04 2.886 1.892 1.178-.196.12-1.92-.289-2.525-1.086-1.607-2.711-2.81-3.669-4.469"/>
        <path fill="#8D9FB5" d="M82.26 32.832l-1.315-2.553c-.24-.467-.517-.968-1.002-1.173-.675-.285-1.47.12-2.095.333-.47.16-.912.41-1.246.777-1.931 2.131 3.546 9.129 4.834 10.94.203.287.429.587.759.712.647.246 1.33-.292 1.708-.871.876-1.342.892-2.842.523-4.327-.411-1.652-1.453-2.455-2.166-3.838"/>
        <g>
            <g transform="translate(75.932 28.809)">
                <mask id="f" fill="#fff">
                    <use xlink:href="#e"/>
                </mask>
                <path fill="#EAEAEF" d="M11.81 25.093c-.102-.206-.086-.63.142-.755.286-.155.65-.02.862.188.232.228.409.629.173.852a.522.522 0 0 1-.266.122c-.351.067-.754-.086-.911-.407" mask="url(#f)"/>
            </g>
            <g transform="translate(75.932 28.809)">
                <mask id="h" fill="#fff">
                    <use xlink:href="#g"/>
                </mask>
                <path fill="#EAEAEF" d="M16.3 23.877a.88.88 0 0 1 .684.55c.055.145.065.32-.027.447a.462.462 0 0 1-.243.157.782.782 0 0 1-.812-.246.778.778 0 0 1-.08-.844c.147-.088.308-.089.478-.064" mask="url(#h)"/>
            </g>
            <g transform="translate(75.932 28.809)">
                <mask id="j" fill="#fff">
                    <use xlink:href="#i"/>
                </mask>
                <path fill="#EAEAEF" d="M12.591 21.444a.643.643 0 0 0 .248.35c.206.13.481.076.7-.032.368-.183.676-.554.648-.963-.02-.29-.323-.647-.632-.635-.279.01-.67.11-.843.352-.176.248-.212.646-.12.928" mask="url(#j)"/>
            </g>
            <g transform="translate(75.932 28.809)">
                <mask id="l" fill="#fff">
                    <use xlink:href="#k"/>
                </mask>
                <path fill="#EAEAEF" d="M12.083 17.79a.977.977 0 0 1-.374 1.192c-.189.114-.442.154-.625.032a.628.628 0 0 1-.218-.3c-.146-.368-.141-.815-.036-1.191a.36.36 0 0 1 .07-.15c.06-.066.156-.084.245-.092.39-.04.774.141.938.508" mask="url(#l)"/>
            </g>
            <g transform="translate(75.932 28.809)">
                <mask id="n" fill="#fff">
                    <use xlink:href="#m"/>
                </mask>
                <path fill="#EAEAEF" d="M7.152 18.527c.148.352.574.52.954.48.161-.015.328-.067.435-.188.18-.205.11-.54-.072-.72-.212-.21-.81-.5-1.106-.332-.198.114-.295.56-.21.76" mask="url(#n)"/>
            </g>
            <g transform="translate(75.932 28.809)">
                <mask id="p" fill="#fff">
                    <use xlink:href="#o"/>
                </mask>
                <path fill="#EAEAEF" d="M4.522 17.839c-.12-.583-.807-.325-1.197-.24-.197.044-.37.054-.403.307-.026.2.116.392.297.483.18.09.39.098.591.093.171-.005.35-.022.493-.116.169-.111.26-.33.22-.527" mask="url(#p)"/>
            </g>
            <g transform="translate(75.932 28.809)">
                <mask id="r" fill="#fff">
                    <use xlink:href="#q"/>
                </mask>
                <path fill="#EAEAEF" d="M2.22 22.447a.755.755 0 0 1-.042-.309c.05-.627.926-.263 1.196-.013.286.264.337.807.001 1.003-.214.124-.497.058-.693-.092-.193-.149-.379-.353-.461-.59" mask="url(#r)"/>
            </g>
            <g transform="translate(75.932 28.809)">
                <mask id="t" fill="#fff">
                    <use xlink:href="#s"/>
                </mask>
                <path fill="#EAEAEF" d="M5.913 21.643c.214.028.443.032.634-.068a.642.642 0 0 0 .318-.69c-.088-.382-.531-.598-.889-.453a.945.945 0 0 0-.357.293.972.972 0 0 0-.207.375c-.09.366.187.502.501.543" mask="url(#t)"/>
            </g>
            <g transform="translate(75.932 28.809)">
                <mask id="v" fill="#fff">
                    <use xlink:href="#u"/>
                </mask>
                <path fill="#EAEAEF" d="M5.488 25.633c.287-.04.456-.38.399-.663a1.003 1.003 0 0 0-.56-.688c-.245-.1-.644-.054-.77.207a.666.666 0 0 0-.038.394.956.956 0 0 0 .144.39c.149.22.563.396.825.36" mask="url(#v)"/>
            </g>
            <g transform="translate(75.932 28.809)">
                <mask id="x" fill="#fff">
                    <use xlink:href="#w"/>
                </mask>
                <path fill="#EAEAEF" d="M7.48 25.245c.19.095.414.085.624.051.15-.024.314-.07.392-.202.09-.155.016-.357-.099-.496-.15-.18-.414-.478-.68-.438a.513.513 0 0 0-.327.22c-.182.252-.231.705.09.865" mask="url(#x)"/>
            </g>
            <g transform="translate(75.932 28.809)">
                <mask id="z" fill="#fff">
                    <use xlink:href="#y"/>
                </mask>
                <path fill="#EAEAEF" d="M9.396 21.463c.016.348.453.601.764.44.31-.16.356-.663.08-.876-.278-.213-.754-.042-.831.298" mask="url(#z)"/>
            </g>
            <g transform="translate(75.932 28.809)">
                <mask id="B" fill="#fff">
                    <use xlink:href="#A"/>
                </mask>
                <path fill="#EAEAEF" d="M10.268 27.566c-.119-.266-.09-.617.236-.722.261-.082.612.138.771.326.167.197.304.422.18.668-.095.19-.29.341-.51.333-.319-.012-.547-.313-.677-.605" mask="url(#B)"/>
            </g>
            <g transform="translate(75.932 28.809)">
                <mask id="D" fill="#fff">
                    <use xlink:href="#C"/>
                </mask>
                <path fill="#EAEAEF" d="M7.654 28.335c-.37.052-1.257-.67-.629-.909.329-.124.952.053 1.012.444.033.22-.161.433-.383.465" mask="url(#D)"/>
            </g>
            <g transform="translate(75.932 28.809)">
                <mask id="F" fill="#fff">
                    <use xlink:href="#E"/>
                </mask>
                <path fill="#EAEAEF" d="M9.24 32.37c-.411-.039-.703-.42-.795-.793a.35.35 0 0 1 .016-.253.35.35 0 0 1 .098-.105.754.754 0 0 1 .697-.107c.181.065.285.302.386.456.077.116.156.24.156.38 0 .261-.296.446-.558.421" mask="url(#F)"/>
            </g>
            <g transform="translate(75.932 28.809)">
                <mask id="H" fill="#fff">
                    <use xlink:href="#G"/>
                </mask>
                <path fill="#EAEAEF" d="M12.465 30.72l.014-.008c.205-.114.718-.066.892.1.245.233.279.664.045.918-.224.244-.667.249-.881-.004-.124-.146-.16-.34-.158-.525.001-.141-.047-.388.088-.48" mask="url(#H)"/>
            </g>
            <g transform="translate(75.932 28.809)">
                <mask id="J" fill="#fff">
                    <use xlink:href="#I"/>
                </mask>
                <path fill="#EAEAEF" d="M15.074 28.354c.204-.21.226-.543.161-.817-.068-.29-.479-.254-.718-.236a.684.684 0 0 0-.232.047c-.156.07-.253.33-.272.49a.638.638 0 0 0 .177.53c.236.227.656.22.884-.014" mask="url(#J)"/>
            </g>
            <g transform="translate(75.932 28.809)">
                <mask id="L" fill="#fff">
                    <use xlink:href="#K"/>
                </mask>
                <path fill="#EAEAEF" d="M16.447 33.65c.355-.414-.287-1.237-.767-1.19-.21.02-.38.2-.44.402-.131.434.23.933.684.975.191.018.398-.04.523-.187" mask="url(#L)"/>
            </g>
            <g transform="translate(75.932 28.809)">
                <mask id="N" fill="#fff">
                    <use xlink:href="#M"/>
                </mask>
                <path fill="#EAEAEF" d="M10.83 33.987c.124-.289-.111-.652-.422-.7-.311-.05-.627.182-.718.483-.067.22-.011.494.187.611.103.06.228.071.347.067.232-.009.478-.08.615-.265.138-.185.105-.5-.107-.593" mask="url(#N)"/>
            </g>
            <g transform="translate(75.932 28.809)">
                <mask id="P" fill="#fff">
                    <use xlink:href="#O"/>
                </mask>
                <path fill="#EAEAEF" d="M6.497 34.462c.152-.121.141-.279.098-.441-.042-.165-.046-.37-.179-.496-.115-.109-.302-.17-.452-.105-.133.056-.215.194-.253.334-.06.224-.014.484.15.649.164.164.453.204.636.06" mask="url(#P)"/>
            </g>
            <g transform="translate(75.932 28.809)">
                <mask id="R" fill="#fff">
                    <use xlink:href="#Q"/>
                </mask>
                <path fill="#EAEAEF" d="M5.136 31.192c-.252-.245-.388-.592-.024-.785.307-.164.692-.099.975.085.207.136.354.392.292.63-.064.243-.328.397-.58.39-.25-.006-.483-.144-.663-.32" mask="url(#R)"/>
            </g>
            <g transform="translate(75.932 28.809)">
                <mask id="T" fill="#fff">
                    <use xlink:href="#S"/>
                </mask>
                <path fill="#EAEAEF" d="M8.894 6.678c-.101-.206-.086-.631.142-.755.286-.155.65-.02.862.188.232.228.409.628.173.852a.523.523 0 0 1-.266.122c-.351.067-.754-.086-.911-.407" mask="url(#T)"/>
            </g>
            <g transform="translate(75.932 28.809)">
                <mask id="V" fill="#fff">
                    <use xlink:href="#U"/>
                </mask>
                <path fill="#EAEAEF" d="M13.384 5.461a.88.88 0 0 1 .684.55c.055.146.065.322-.027.448a.463.463 0 0 1-.243.157.782.782 0 0 1-.813-.246.778.778 0 0 1-.079-.844c.148-.088.308-.09.478-.065" mask="url(#V)"/>
            </g>
            <g transform="translate(75.932 28.809)">
                <mask id="X" fill="#fff">
                    <use xlink:href="#W"/>
                </mask>
                <path fill="#EAEAEF" d="M13.63 2.107c-.071-.245-.143-.505-.074-.751.068-.246.336-.454.575-.363a.5.5 0 0 1 .26.276c.121.273.07.638-.176.807-.248.17-.667.021-.689-.277" mask="url(#X)"/>
            </g>
            <g transform="translate(75.932 28.809)">
                <mask id="Z" fill="#fff">
                    <use xlink:href="#Y"/>
                </mask>
                <path fill="#EAEAEF" d="M9.676 3.029a.642.642 0 0 0 .247.35c.206.13.481.076.7-.032.368-.183.676-.554.648-.963-.02-.29-.323-.648-.632-.635-.28.01-.67.11-.843.352-.176.247-.212.646-.12.928" mask="url(#Z)"/>
            </g>
            <g transform="translate(75.932 28.809)">
                <mask id="ab" fill="#fff">
                    <use xlink:href="#aa"/>
                </mask>
                <path fill="#EAEAEF" d="M9.167-.626A.977.977 0 0 1 8.793.567C8.604.68 8.35.72 8.168.599a.625.625 0 0 1-.218-.3c-.145-.368-.141-.814-.036-1.19a.364.364 0 0 1 .07-.151c.06-.066.156-.084.245-.093.39-.039.774.142.938.51" mask="url(#ab)"/>
            </g>
            <g transform="translate(75.932 28.809)">
                <mask id="ad" fill="#fff">
                    <use xlink:href="#ac"/>
                </mask>
                <path fill="#EAEAEF" d="M4.236.112c.148.351.574.52.954.481.161-.016.328-.069.435-.19.18-.204.11-.54-.072-.72-.212-.209-.81-.5-1.106-.33-.198.112-.295.558-.21.76" mask="url(#ad)"/>
            </g>
            <g transform="translate(75.932 28.809)">
                <mask id="af" fill="#fff">
                    <use xlink:href="#ae"/>
                </mask>
                <path fill="#EAEAEF" d="M1.606-.577C1.486-1.16.8-.9.41-.815.21-.772.04-.762.006-.51c-.026.2.117.392.297.482.18.09.39.1.591.093.171-.005.35-.021.493-.115.17-.111.26-.33.22-.528" mask="url(#af)"/>
            </g>
            <g transform="translate(75.932 28.809)">
                <mask id="ah" fill="#fff">
                    <use xlink:href="#ag"/>
                </mask>
                <path fill="#EAEAEF" d="M-.695 4.032a.76.76 0 0 1-.042-.31c.049-.626.925-.262 1.195-.012.286.264.337.807.001 1.003-.214.124-.498.059-.693-.093-.193-.148-.379-.353-.461-.588" mask="url(#ah)"/>
            </g>
            <g transform="translate(75.932 28.809)">
                <mask id="aj" fill="#fff">
                    <use xlink:href="#ai"/>
                </mask>
                <path fill="#EAEAEF" d="M2.997 3.228c.214.028.443.033.634-.069a.642.642 0 0 0 .318-.69c-.088-.382-.531-.597-.889-.452a.945.945 0 0 0-.357.293.974.974 0 0 0-.207.375c-.09.367.187.502.501.543" mask="url(#aj)"/>
            </g>
            <g transform="translate(75.932 28.809)">
                <mask id="al" fill="#fff">
                    <use xlink:href="#ak"/>
                </mask>
                <path fill="#EAEAEF" d="M2.572 7.218c.287-.04.456-.38.399-.663a1.004 1.004 0 0 0-.56-.689c-.245-.1-.644-.053-.77.209a.666.666 0 0 0-.037.393.956.956 0 0 0 .143.39c.148.22.564.396.825.36" mask="url(#al)"/>
            </g>
            <g transform="translate(75.932 28.809)">
                <mask id="an" fill="#fff">
                    <use xlink:href="#am"/>
                </mask>
                <path fill="#EAEAEF" d="M4.563 6.83c.19.095.415.085.625.051.15-.024.314-.07.392-.202.09-.155.016-.357-.099-.496-.15-.18-.414-.478-.68-.438a.514.514 0 0 0-.327.22c-.182.252-.231.705.09.865" mask="url(#an)"/>
            </g>
            <g transform="translate(75.932 28.809)">
                <mask id="ap" fill="#fff">
                    <use xlink:href="#ao"/>
                </mask>
                <path fill="#EAEAEF" d="M6.48 3.048c.016.348.453.601.764.44.31-.16.356-.663.08-.876-.278-.213-.754-.043-.831.298" mask="url(#ap)"/>
            </g>
            <g transform="translate(75.932 28.809)">
                <mask id="ar" fill="#fff">
                    <use xlink:href="#aq"/>
                </mask>
                <path fill="#EAEAEF" d="M7.352 9.151c-.12-.266-.091-.617.236-.721.261-.084.612.137.771.325.167.197.304.422.18.668-.095.19-.29.341-.51.333-.319-.012-.547-.313-.677-.605" mask="url(#ar)"/>
            </g>
            <g transform="translate(75.932 28.809)">
                <mask id="at" fill="#fff">
                    <use xlink:href="#as"/>
                </mask>
                <path fill="#EAEAEF" d="M4.738 9.92c-.37.052-1.257-.67-.629-.909.329-.124.952.053 1.012.444.033.22-.162.433-.383.465" mask="url(#at)"/>
            </g>
            <g transform="translate(75.932 28.809)">
                <mask id="av" fill="#fff">
                    <use xlink:href="#au"/>
                </mask>
                <path fill="#EAEAEF" d="M6.324 13.954c-.411-.038-.703-.42-.795-.792a.351.351 0 0 1 .015-.253.355.355 0 0 1 .1-.105.754.754 0 0 1 .695-.107c.182.065.286.301.387.456.077.116.156.24.156.38 0 .262-.296.445-.558.421" mask="url(#av)"/>
            </g>
            <g transform="translate(75.932 28.809)">
                <mask id="ax" fill="#fff">
                    <use xlink:href="#aw"/>
                </mask>
                <path fill="#EAEAEF" d="M9.55 12.305l.013-.008c.205-.114.717-.066.892.1.245.233.279.664.046.918-.225.244-.667.249-.882-.004-.124-.145-.16-.339-.158-.525.001-.141-.047-.388.088-.48" mask="url(#ax)"/>
            </g>
            <g transform="translate(75.932 28.809)">
                <mask id="az" fill="#fff">
                    <use xlink:href="#ay"/>
                </mask>
                <path fill="#EAEAEF" d="M12.158 9.94c.204-.211.226-.545.162-.818-.069-.29-.48-.253-.718-.236a.684.684 0 0 0-.233.047c-.156.07-.254.33-.272.49a.639.639 0 0 0 .177.53c.236.227.656.22.884-.014" mask="url(#az)"/>
            </g>
            <g transform="translate(75.932 28.809)">
                <mask id="aB" fill="#fff">
                    <use xlink:href="#aA"/>
                </mask>
                <path fill="#EAEAEF" d="M15.747 9.671c.18-.28.079-.771-.249-.909-.286-.119-.778-.02-.896.292-.1.264-.027.6.202.776.283.219.75.143.943-.159" mask="url(#aB)"/>
            </g>
            <g transform="translate(75.932 28.809)">
                <mask id="aD" fill="#fff">
                    <use xlink:href="#aC"/>
                </mask>
                <path fill="#EAEAEF" d="M13.672 12.49c.106.237.432.439.685.293.226-.129.102-.587.024-.776a.553.553 0 0 0-.103-.17c-.151-.16-.446-.389-.567-.11-.105.24-.147.524-.04.764" mask="url(#aD)"/>
            </g>
            <g transform="translate(75.932 28.809)">
                <mask id="aF" fill="#fff">
                    <use xlink:href="#aE"/>
                </mask>
                <path fill="#EAEAEF" d="M13.531 15.235c.355-.414-.287-1.237-.767-1.19-.21.02-.38.2-.44.401-.131.435.23.934.684.976.191.018.398-.04.523-.187" mask="url(#aF)"/>
            </g>
            <g transform="translate(75.932 28.809)">
                <mask id="aH" fill="#fff">
                    <use xlink:href="#aG"/>
                </mask>
                <path fill="#EAEAEF" d="M7.914 15.572c.124-.289-.11-.653-.422-.7-.311-.05-.627.182-.718.482-.067.22-.01.495.188.612.102.06.227.071.346.067.231-.009.478-.08.615-.266.138-.185.105-.5-.107-.592" mask="url(#aH)"/>
            </g>
            <g transform="translate(75.932 28.809)">
                <mask id="aJ" fill="#fff">
                    <use xlink:href="#aI"/>
                </mask>
                <path fill="#EAEAEF" d="M3.58 16.047c.153-.122.142-.279.1-.441-.043-.165-.047-.37-.18-.496-.114-.11-.302-.17-.452-.105-.133.056-.216.194-.253.334-.06.224-.014.484.15.648.165.165.454.205.635.06" mask="url(#aJ)"/>
            </g>
            <g transform="translate(75.932 28.809)">
                <mask id="aL" fill="#fff">
                    <use xlink:href="#aK"/>
                </mask>
                <path fill="#EAEAEF" d="M2.22 12.777c-.252-.245-.388-.592-.024-.786.307-.163.692-.098.975.087.208.135.354.39.292.63-.064.243-.328.396-.58.39-.25-.008-.483-.145-.663-.32" mask="url(#aL)"/>
            </g>
        </g>
        <g>
            <path fill="#492317" d="M88.7 31.887c-.577-1.592-.7-3.351-1.52-4.833-.146-.263-.317-.52-.555-.702-.23-.175-.508-.272-.784-.36-.877-.279-1.847-.487-2.7-.144-1.18.474-1.726 1.807-2.09 3.022-.246.82-.467 1.668-.388 2.52.057.61.265 1.197.537 1.746.456.919 1.085 1.74 1.71 2.554l1.995 2.594c.437.569.907 1.162 1.574 1.426.353.14.783.166 1.092-.053.163-.116.277-.288.384-.457.748-1.182 1.495-2.509 1.896-3.856.337-1.13-.769-2.398-1.152-3.457"/>
            <path fill="#FFAB93" d="M66.926 15.727c.562-.47 1.937-.731 2.067-.77.77-.225 1.5-.32 2.305-.403.907-.094 1.863-.177 2.701.172.013.036.027.072.035.11.179.94-1.498 2.051-3.746 2.481-2.1.402-3.954.067-4.335-.746.239-.418.973-.844.973-.844"/>
            <path fill="#FFFDFF" d="M70.681 15.862c.066-.033.08-.122.067-.195-.013-.073-.044-.144-.035-.217.01-.082.07-.156.065-.239-.004-.08-.069-.146-.093-.224-.036-.116.023-.247-.019-.362a.316.316 0 0 0-.145-.156c-.176-.1-.396-.092-.593-.042-.196.05-.38.14-.576.195-.097.027-.209.057-.25.148-.041.093.013.197.047.292.058.16.052.357-.064.483-.057.062-.135.101-.196.16a.42.42 0 0 0-.068.5.422.422 0 0 0 .47.184"/>
            <path fill="#E8BE91" d="M62.34 3.508a8.866 8.866 0 0 0 .434 4.246c.298.825 1.76 3.863 2.178 4.636.639 1.182-.222-.353.417.829.387.716.743 1.344 1.175 1.987.119.176.241.353.374.534 0 0-.73.422-.966.836-.012.02-1.067-1.599-1.282-1.891-.413-.56-1.65-3.202-2.108-4.202-.741-1.615-.927-3.468-.706-5.23.074-.597.223-1.206.484-1.745"/>
            <path fill="#CAD6E3" d="M66.78 18.543c-.322-.015-.647-.183-.889-.462-.185-.213-.328-.493-.438-.854a10.832 10.832 0 0 1-.222-.918c-.093-.441-.18-.857-.347-1.265a15.44 15.44 0 0 0-1.01-2.083l-.067-.112c-.309-.519-.629-1.056-.723-1.669-.066-.432-.013-.864.038-1.282.027-.218.054-.444.064-.663l.314.013c-.01.232-.038.464-.065.689-.051.415-.1.807-.04 1.195.085.554.39 1.064.683 1.557l.067.112c.36.605.687 1.28 1.03 2.124.178.435.273.884.365 1.319.061.294.126.598.215.892.098.322.217.557.375.74.185.213.428.343.665.354l-.015.313z"/>
            <path fill="#F7E0C4" d="M62.881 2.413c.395-.425.972-.655 1.55-.791.8-.188 1.81.061 2.528-.239.615-.256 1.152-.705 1.758-.945.526-.207 1.223-.114 1.766-.01.393.075.782.181 1.14.358 1.17.578 2.138 1.737 2.285 2.988.493 4.212 1.2 7.55.134 11.309-.59-.724-1.903-.503-2.802-.421-.797.072-1.52.155-2.28.364-.129.035-1.49.272-2.042.713-.633-.66-2.674-3.735-3.266-5.178-.325-.79-.634-1.74-.938-2.536a8.286 8.286 0 0 1-.47-4.086c.084-.558.254-1.111.637-1.526"/>
            <path fill="#663531" d="M70.458 15.756c-.37.144-.833.351-1.095.472a.256.256 0 0 0 .173.48c.192-.051.45-.12.56-.154l.576-.177a.256.256 0 0 0 .166-.33l-.048-.137a.256.256 0 0 0-.332-.154"/>
            <path fill="#C69B93" d="M39.614 54.724c.492-.636 1.906-1.243 2.036-1.315.772-.426 1.266-1.022 2.109-1.303.952-.316 2.226-.31 3.209-.134.022.035.046.07.063.109.417.967-1.118 2.558-3.428 3.553-2.158.93-4.229 1.01-4.832.228.157-.505.843-1.138.843-1.138"/>
            <path fill="#FFF" d="M43.759 54.013c-.269-.195-.482-.683-.846-.704-.118-.006-.24.024-.351-.013-.227-.076-.28-.37-.274-.608.007-.238.019-.517-.166-.668-.353-.288-.584.138-.886.203-.236.05-.678-.297-.875-.1-.135.134-.142.358-.063.53.078.173.225.303.375.42.191.148.396.281.612.39.313.156.42.255.503.569.075.288.2.553.524.627"/>
            <path fill="#E0A16C" d="M50.931 57.232c.833.543 1.713 1.142 2.085 2.062.165.407.217.85.258 1.286.066.7.11 1.402.133 2.106.017.578-.045 1.275-.558 1.546-.197.104-.427.122-.65.138-.124.008-.26.014-.362-.057-.116-.082-.15-.238-.173-.38-.354-2.16-1.177-3.409-2.427-5.142-.37-.51-.765-1.337-.602-1.992.316-1.264 1.675.028 2.296.433"/>
            <path fill="#E2CDB5" d="M55.352 60.682a2.975 2.975 0 0 1-2.143.133c-.067-.022-.143-.045-.205-.012-.051.027-.078.084-.1.137a19.407 19.407 0 0 0-.733 2.07c-.014.048-.027.104.004.144.022.028.06.038.095.046.503.112 1.015.059 1.526.05.285-.005.938.163 1.184.007.308-.195.234-.7.257-1.014.014-.18-.002-1.507.115-1.56"/>
            <path fill="#1E231C" d="M53.493 100.414c-.012.097-.026.2-.093.271-.075.081-.195.097-.306.107-1.168.107-2.345.07-3.518.033-.302-.01-.62-.024-.875-.184s-.41-.52-.24-.767c.126-.181.367-.232.583-.276a8.776 8.776 0 0 0 2.498-.928c.141-.079.28-.161.434-.214.378-.13 1.22-.185 1.538.14.364.371.033 1.367-.021 1.818"/>
            <path fill="#415952" d="M54.272 96.917c-.003.449-.016.921-.248 1.305-.233.383-.767.622-1.148.385-.368-.23-.406-.74-.41-1.172-.055-6.255-1.353-12.49-.873-18.727-.037.475 2.763.345 3.031.878.217.431-.1 1.289-.158 1.736a38.158 38.158 0 0 0-.215 2.16c-.207 2.848-.13 5.707-.056 8.558.042 1.626.085 3.251.077 4.877"/>
            <path fill="#516660" d="M53.21 98.01c-.025.407-.058.814-.095 1.22-.018.196-.041.403-.159.562-.188.255-.546.3-.863.322-.86.061-1.92.02-2.324-.74-.119-.223-.158-.477-.196-.725l-.52-3.408c-.909-5.942-1.819-11.975-1.085-17.942l2.451.762c.656.204 1.794.325 2.34.731.798.593.128 3.011.101 3.974-.09 3.27.212 6.534.352 9.799.079 1.822-.002 3.626-.002 5.445"/>
            <path fill="#2E362B" d="M52.445 102.457l-5.741-.098a.404.404 0 0 1-.192-.033c-.076-.042-.118-.127-.134-.212-.048-.254.103-.511.308-.668.205-.158.457-.237.701-.322a11.38 11.38 0 0 0 2.034-.94c.205-.12.41-.248.64-.307.174-.046.356-.048.537-.051.394-.006 1.855-.259 2.051.151.121.253-.06.885-.085 1.164l-.12 1.316"/>
            <path fill="#F5D2B1" d="M51.4 59.72a7.037 7.037 0 0 1-.08-1.453c.031-.572.101-1.142.21-1.704.053-.282.129-.583.347-.77.232-.199.564-.218.87-.228.609-.018 1.254-.029 1.783.274.55.315.877.93.984 1.553.107.624.022 1.263-.086 1.887-.13.76-.093 1.992-.988 2.23-.526.14-2.104.23-2.506-.16-.165-.159-.245-.385-.308-.605a8.313 8.313 0 0 1-.226-1.025"/>
            <path fill="#663531" d="M51.97 54.872c.095-.191.194-.388.356-.528.274-.235.667-.26 1.03-.254 1.455.024 3.075.475 3.782 1.745.463.833.43 1.873.107 2.769-.323.896-.91 1.672-1.526 2.399-.102.12-.216.246-.37.283-.178.042-.36-.047-.515-.146a3.258 3.258 0 0 1-1.067-1.13c-.172-.304-.295-.638-.5-.922-.491-.685-1.373-1.096-1.734-1.885-.342-.748.105-1.66.437-2.331"/>
            <path fill="#E0A16C" d="M51.247 62.864a16.119 16.119 0 0 1 2.656-.192c1.005.01 2.11.162 2.78.91.753.842.682 2.113.551 3.233-.47 4.012-1.139 8-2.005 11.945-.057.254-.126.53-.332.69-.196.153-.465.16-.714.17-1.27.045-2.545.282-3.802.1-1.257-.183-2.55-.918-2.897-2.137-.135-.473-.116-.974-.097-1.465l.164-4.097c.057-1.418.116-2.85.496-4.217.188-.678.49-1.331.651-2.016.108-.46.001-.893.078-1.333.194-1.111 1.506-1.44 2.471-1.59"/>
            <path fill="#663531" d="M42.442 54.494c.352-.185.812-.395 1.076-.513a.256.256 0 0 1 .325.103.255.255 0 0 1-.076.341c-.165.112-.387.26-.485.321l-.512.317a.257.257 0 0 1-.359-.091l-.07-.127a.254.254 0 0 1 .101-.35"/>
            <path fill="#F5D2B1" d="M41.526 55.466c-.266-.086-.55-.107-.813-.198-.165-.057-.323-.141-.497-.156-.174-.015-.375.07-.418.238-.053.212.157.39.34.51.372.243.748.508.98.886.083.136.146.283.237.413.22.312.583.489.93.653a.668.668 0 0 0 .254.08c.907.033.78-.752.415-1.224-.38-.49-.818-1.003-1.428-1.202"/>
            <path fill="#E0A16C" d="M45.788 61.317c-.546-.717-.874-1.574-1.169-2.427-.19-.55-.398-1.143-.876-1.477-.48-.333-1.31-.199-1.435.37-.061.278.06.56.177.818l1.602 3.528c.408.898.829 1.815 1.512 2.528.638.666 1.467 1.112 2.28 1.548.687.367 2.441 1.484 3.265 1.122 1.094-.481-.36-1.891-.905-2.376-1.429-1.27-3.268-2.081-4.45-3.634"/>
            <path fill="#F5D2B1" d="M48.693 54.972c-.328-.481-.44-1.095-.827-1.532-.084-.095-.216-.185-.327-.125l-.03 2.001c-.004.244-.006.496.08.724.087.226.255.411.419.59l.489.533c.027.03.058.06.097.063.034.003.066-.017.093-.035.366-.244.89-.525.852-.997-.036-.455-.607-.869-.846-1.222"/>
            <path fill="#E8BE91" d="M33.438 44.877a9.75 9.75 0 0 0 1.478 4.454c.516.817 1.151 1.55 1.784 2.28.967 1.118-.323-.326.645.791a25.676 25.676 0 0 0 1.735 1.854c.17.16.343.322.528.484 0 0-.681.627-.837 1.127-.007.025-1.527-1.462-1.827-1.725-.577-.504-.874-.865-1.605-1.83-1.18-1.558-1.822-3.502-2.005-5.447-.062-.658-.048-1.347.104-1.988"/>
            <path fill="#516660" d="M37.672 55.73l.012-.315c-.265-.01-.537-.152-.746-.39-.175-.197-.312-.464-.422-.815-.1-.322-.173-.656-.244-.98-.104-.476-.212-.969-.41-1.444-.386-.925-.751-1.664-1.15-2.324l-.076-.125c-.327-.54-.666-1.099-.765-1.708-.069-.43-.02-.863.033-1.32.028-.247.058-.503.066-.757l-.314-.01c-.009.241-.037.49-.065.731-.052.459-.107.933-.03 1.405.108.67.463 1.256.806 1.822l.075.124c.39.647.75 1.372 1.13 2.283.186.45.286.906.392 1.39.072.33.147.671.251 1.007.123.393.282.697.486.93.266.301.62.482.97.495"/>
            <path fill="#F7E0C4" d="M33.758 43.014c.321-.574.886-.973 1.475-1.269.812-.407 1.956-.38 2.656-.892.599-.438 1.068-1.074 1.662-1.492.515-.362 1.285-.43 1.893-.449.44-.013.883.01 1.308.12 1.395.357 2.71 1.414 3.166 2.776 1.533 4.59 1.429 5.968 1.181 10.435-.806-.662-2.177-.293-3.122.02-.838.278-1.58.753-2.347 1.174-.13.071-1.534.672-2.022 1.304a18.05 18.05 0 0 1-.528-.485 25.666 25.666 0 0 1-1.735-1.854c-.968-1.117.322.327-.646-.79-.632-.73-1.267-1.465-1.783-2.28a9.75 9.75 0 0 1-1.478-4.455c-.044-.644.006-1.305.32-1.863"/>
            <path fill="#F5D2B1" d="M53.292 59.563c-.049-.164.335-.405.5-.452.164-.046.34-.003.505.04.064.015.132.036.169.09.031.047.03.108.023.165-.069.553-.518.97-.94 1.336-.073.063-.166.132-.259.101a.246.246 0 0 1-.114-.098.928.928 0 0 1 .116-1.182"/>
            <path fill="#353535" d="M11.787 127.336c.277.104 1.045.729.767 1.015-.862.882-2.048 1.721-3.3 1.9-.345.048-.747.011-.957-.265-.224-.296-.125-.713-.017-1.066.262-.856.506-.955 1.36-1.244.563-.19 1.544-.554 2.147-.34M18.836 128.723c.293.051 1.164.522.943.854-.682 1.028-1.69 1.532-2.888 1.94-.33.112-.732.15-.99-.083-.274-.248-.255-.676-.215-1.044.098-.89.319-1.032 1.106-1.475.516-.29 1.412-.29 2.044-.192"/>
            <path fill="#F5D2B1" d="M17.796 123.842c-.314 1.88-.52 3.778-.685 5.677-.012.134-.038.29-.16.349-.064.031-.14.025-.212.018l-.368-.038c-.056-.006-.116-.014-.156-.053-.047-.046-.05-.118-.051-.184-.047-2.52-1.038-4.935-1.235-7.448-.098-1.26.005-2.524.107-3.783.011-.136 1.81.341 1.967.401.251.096.702.223.888.424.174.188.185.551.217.802.163 1.283-.102 2.574-.312 3.835M10.936 125.916c-.25.54-.51 1.616-.723 2.171-.089.232-.177.48-.367.64-.19.162-.517.192-.666-.008-.098-.13-.088-.31-.074-.474.259-2.995.795-16.061 1.475-18.99-.031.134 1.551 8.787 1.712 8.83.42.112 1.29.048 1.255.598-.04.604-.74 2.708-.953 3.275a56.775 56.775 0 0 1-1.659 3.958"/>
        </g>
        <g transform="translate(14.808 118.066)">
            <mask id="aN" fill="#fff">
                <use xlink:href="#aM"/>
            </mask>
            <path fill="#EAEAEF" d="M.1 8.485c.03.24-.357.266-.518.447a.585.585 0 0 0-.109.25 13.356 13.356 0 0 0-.307 4.987c.168 1.321.565 2.669 1.474 3.644.285.306.628.576 1.033.684.404.108.878.027 1.162-.28.146-.157.232-.36.315-.558.344-.829.674-1.678.751-2.572.062-.702-.035-1.406-.06-2.11-.025-.661.014-1.321.023-1.982.007-.548.086-1.293-.12-1.814-.207-.52-.943-.418-1.414-.466L.1 8.485" mask="url(#aN)"/>
        </g>
        <g transform="translate(8.822 118.694)">
            <mask id="aP" fill="#fff">
                <use xlink:href="#aO"/>
            </mask>
            <path fill="#EAEAEF" d="M.486 7.223C.403 7.2.315 7.174.233 7.202c-.077.026-.132.092-.18.158-.427.577-.678 1.265-.88 1.954-.259.884-.446 1.79-.558 2.704-.075.605-.115 1.772.079 2.351.201.605.641.56 1.098 1.008.22.216.478.437.787.444.268.006.51-.154.71-.332 1.535-1.373.681-.148 1.646-3.322.195-.644.408-1.282.638-1.914.15-.416.727-1.327.548-1.759-.183-.44-1.158-.534-1.553-.652L.486 7.223" mask="url(#aP)"/>
        </g>
        <g>
            <path fill="#C69B93" d="M17.112 83.9c-.315.492-.63.985-.984 1.444-.597.778-1.208 1.456-1.424 2.468-.095.442-.062.93.188 1.306.2.3.572.515.92.42.265-.072.453-.3.616-.521.933-1.275 1.582-2.73 2.224-4.172.454-1.021.868-1.694-.16-2.35a.433.433 0 0 0-.206-.086c-.139-.006-.244.117-.326.228-.3.407-.574.835-.848 1.262"/>
            <path fill="#F5D2B1" d="M23.854 81.936c.162-.227.378-.412.535-.642.099-.144.175-.306.306-.421.13-.115.342-.167.477-.057.17.138.107.406.032.612-.153.416-.298.852-.258 1.294.014.158.052.313.056.472.01.383-.176.74-.356 1.077a.664.664 0 0 1-.156.215c-.71.566-1.077-.14-1.065-.736.013-.62.057-1.292.429-1.814M18.951 81.2c.26-.448.32-1.001.635-1.414.068-.09.18-.178.282-.132l.157 1.776c.02.216.038.44-.025.648-.062.207-.2.381-.333.55-.133.17-.266.337-.4.506-.021.027-.047.058-.083.063-.03.003-.058-.012-.084-.026-.34-.193-.824-.408-.821-.83.002-.406.482-.811.672-1.14"/>
            <path fill="#21160A" d="M11.597 92.38c-.968 2.316-1.456 5.174-1.6 6.389-.512 4.274-1.023 22.117-1.412 26.404-.028.315 11.503-.606 12.573-.521-.513-3.2-1.025-19.97-1.539-23.17-.439-2.73-.178-5.493-.665-8.192-.215-1.195-.725-2.373-1.63-3.185-2.744-2.466-4.576-.48-5.727 2.276"/>
            <path fill="#C69B93" d="M22.493 87.915c.3-.85.35-1.766.37-2.667.013-.582.03-1.21.383-1.674.353-.463 1.185-.588 1.479-.085.143.246.115.55.082.833l-.445 3.848c-.114.98-.234 1.98-.666 2.868-.404.828-1.056 1.506-1.697 2.168-.542.56-1.87 2.157-2.765 2.063-1.188-.125-.238-1.91.134-2.539.972-1.643 2.475-2.976 3.125-4.815"/>
            <path fill="#516660" d="M19.273 92.247l1.013-2.253c.186-.412.4-.855.792-1.026.545-.238 1.206.144 1.723.35.39.156.757.39 1.039.727 1.635 1.956-2.676 8.086-3.686 9.677-.16.252-.337.514-.603.618-.524.205-1.097-.294-1.42-.821-.751-1.224-.802-2.568-.536-3.888.295-1.47 1.128-2.162 1.678-3.384"/>
            <path fill="#492317" d="M11.453 90.827c.576-1.592.7-3.35 1.519-4.833.146-.263.316-.52.555-.702.23-.175.508-.272.784-.36.877-.279 1.847-.487 2.7-.144 1.18.474 1.726 1.807 2.09 3.022.246.82.467 1.668.388 2.52-.057.61-.265 1.197-.537 1.745-.456.92-1.085 1.74-1.71 2.555l-1.995 2.594c-.437.569-.907 1.163-1.574 1.426-.354.14-.783.166-1.092-.053-.163-.116-.277-.288-.384-.457-.748-1.182-1.495-2.509-1.896-3.856-.337-1.13.769-2.398 1.152-3.457"/>
            <path fill="#C69B93" d="M26.517 77.914c-.602-.353-2.022-.47-2.157-.492-.798-.132-1.55-.156-2.375-.166-.931-.01-1.91-.009-2.744.35-.01.03-.023.062-.028.094-.124.807 1.656 1.618 3.976 1.81 2.166.18 4.036-.242 4.373-.957-.27-.334-1.045-.639-1.045-.639"/>
            <path fill="#FFFDFF" d="M22.696 78.313c-.07-.023-.089-.098-.08-.16.008-.062.036-.125.022-.186-.015-.068-.08-.126-.081-.196-.001-.069.06-.129.08-.196.03-.1-.039-.207-.003-.307.02-.06.076-.107.138-.142.174-.099.398-.108.601-.081.204.028.398.089.601.12.1.016.216.033.264.107.048.075 0 .167-.03.25-.048.14-.03.305.096.402.062.048.144.075.21.12a.31.31 0 0 1 .1.417c-.083.139-.287.222-.467.19"/>
            <path fill="#E8BE91" d="M30.426 67.259a6.294 6.294 0 0 1-.175 3.615c-.252.719-1.553 3.393-1.93 4.076-.577 1.046.204-.315-.373.731a19.42 19.42 0 0 1-1.074 1.765c-.11.157-.224.316-.347.479 0 0 .77.301 1.037.632.013.017.988-1.43 1.189-1.692.386-.504 1.48-2.826 1.885-3.705.655-1.418.728-2.995.392-4.466-.114-.498-.304-1-.604-1.435"/>
            <path fill="#CAD6E3" d="M28.679 80.684c.357-.12.676-.38.874-.717.155-.264.243-.575.268-.952.022-.318.01-.63 0-.93-.016-.439-.031-.852.046-1.284.157-.882.342-1.604.58-2.27l.046-.128c.213-.59.432-1.199.368-1.808-.045-.431-.228-.818-.405-1.192-.092-.192-.186-.391-.257-.59l-.32.115c.076.213.174.42.27.62.172.364.335.708.374 1.082.056.533-.15 1.105-.35 1.658l-.046.129c-.245.684-.434 1.423-.595 2.324-.083.468-.067.919-.05 1.356.01.292.02.595 0 .895-.022.328-.093.583-.222.803a1.294 1.294 0 0 1-.69.568l.109.321z"/>
            <path fill="#F7E0C4" d="M29.805 66.377c-.429-.33-1.032-.48-1.63-.55-.827-.099-1.842.187-2.593-.011-.643-.17-1.219-.508-1.853-.664-.548-.136-1.254-.005-1.801.124a5.251 5.251 0 0 0-1.14.388c-1.158.577-2.071 1.628-2.142 2.694-.238 3.591-.75 6.46.573 9.551.557-.655 1.91-.568 2.832-.567.817.001 1.56.016 2.348.135.133.02 1.536.117 2.128.447.604-.604 2.49-3.353 3.005-4.615.281-.691.537-1.516.797-2.211a5.904 5.904 0 0 0 .221-3.483c-.12-.464-.328-.918-.745-1.238"/>
            <path fill="#663531" d="M22.922 78.147c.444.14.997.343 1.312.461.142.053.21.187.157.312-.054.128-.218.203-.376.17-.23-.05-.541-.116-.673-.148l-.692-.171c-.168-.041-.256-.19-.194-.329l.062-.137c.06-.136.243-.208.404-.158"/>
            <path fill="#E1846A" d="M3.366 20.28c.56-.246 1.806-.202 1.926-.208.708-.034 1.363.022 2.082.098.81.086 1.662.187 2.35.583.005.029.013.057.014.085.025.715-1.605 1.238-3.641 1.17-1.902-.065-3.484-.623-3.705-1.279.269-.263.974-.449.974-.449"/>
            <path fill="#FFFDFF" d="M6.647 21.016c.063-.013.088-.075.086-.13 0-.055-.018-.113 0-.164.02-.059.084-.102.091-.163.008-.06-.04-.117-.05-.178-.015-.091.055-.177.035-.267-.013-.054-.056-.1-.106-.138-.141-.103-.335-.134-.515-.131-.18.003-.355.037-.534.043-.089.004-.191.007-.24.066-.05.06-.017.145 0 .22.028.127-.005.269-.125.34-.059.036-.133.05-.195.083a.272.272 0 0 0-.13.352c.06.13.228.222.388.214"/>
            <g transform="translate(0 10.58)">
                <mask id="aR" fill="#fff">
                    <use xlink:href="#aQ"/>
                </mask>
                <path fill="#E8BE91" d="M1.06.038a5.511 5.511 0 0 0-.218 3.16c.146.652 1.003 3.109 1.26 3.741.395.968-.144-.294.25.674.239.586.463 1.103.752 1.643.08.149.162.298.253.452 0 0-.7.184-.966.444-.013.013-.713-1.343-.86-1.592C1.246 8.082.532 5.952.27 5.147c-.423-1.3-.325-2.678.117-3.922A3.64 3.64 0 0 1 1.061.038" mask="url(#aR)"/>
            </g>
            <path fill="#CAD6E3" d="M1.78 21.66l.114-.274c-.239-.1-.444-.297-.565-.54a1.545 1.545 0 0 1-.143-.715c.002-.264.031-.527.06-.782.041-.38.084-.773.042-1.186-.083-.798-.201-1.455-.37-2.068l-.033-.115c-.138-.495-.281-1.008-.199-1.47.058-.323.223-.613.397-.92.096-.169.195-.343.275-.524l-.272-.121c-.075.169-.17.336-.262.499-.179.315-.363.64-.43 1.014-.095.528.057 1.074.205 1.602l.032.114c.165.596.28 1.238.36 2.02.04.381 0 .741-.041 1.122a7.76 7.76 0 0 0-.06.813c-.003.33.054.608.173.848.151.307.412.555.716.682"/>
            <path fill="#F7E0C4" d="M1.69 9.915c.407-.242.947-.311 1.474-.312.729-.001 1.581.351 2.255.255.577-.081 1.112-.318 1.679-.389.49-.061 1.09.125 1.553.292.335.121.662.265.95.454.948.62 1.635 1.626 1.587 2.56-.16 3.146-.01 5.693-1.477 8.244-.417-.625-1.602-.688-2.403-.78-.71-.084-1.357-.146-2.055-.123-.118.004-1.348-.055-1.896.172-.463-.587-1.822-3.17-2.14-4.319-.173-.629-.31-1.372-.466-2.003a5.163 5.163 0 0 1 .165-3.05c.151-.391.379-.765.774-1"/>
            <path fill="#663531" d="M6.468 20.85c-.4.075-.902.195-1.188.266-.128.032-.2.141-.168.255.034.117.169.2.31.186.205-.019.481-.045.6-.06l.619-.078c.15-.019.242-.14.202-.266l-.04-.126c-.039-.124-.19-.205-.335-.178"/>
        </g>
    </g>
</svg>
