<svg xmlns="http://www.w3.org/2000/svg" xmlns:xlink="http://www.w3.org/1999/xlink" width="68" height="92" viewBox="0 0 68 92">
    <defs>
        <path id="a" d="M.201.262h4.723v13.846H.2z"/>
        <path id="c" d="M.185.208h4.973v6.856H.185z"/>
    </defs>
    <g fill="none" fill-rule="evenodd">
        <path fill="#533421" d="M45.314 72.802c-.604 1.177-.702 2.524-1.144 3.757-.26.769-.632 1.495-.96 2.239-.87 1.971-.76 4.296-1.596 6.206-.75 1.712-2.936 1.914-2.947 4.4A4.532 4.532 0 0 0 42.5 87.7c1.03-1.322 1.11-2.517 1.686-3.991l1.737-4.437c.203-.516.407-1.036.708-1.502.274-.423.625-.794.907-1.212.8-1.182 1.01-2.66 1.086-4.083-1.328-.322-2.567-1.118-3.309.327"/>
        <path fill="#4F301F" d="M62.568 78.596a.487.487 0 0 1-.068-.226c-.148-1.3.633-2.408.581-3.589-.045-1.007-1.127-1.958-1.598-2.781-.376-.657-.588-1.397-.696-2.146-.115-.802-.11-1.643.193-2.395.304-.752.943-1.4 1.74-1.556a74.29 74.29 0 0 0 1.143 5.981c.132.567.275 1.143.58 1.64.25.405.597.745.832 1.158.33.579-.183 3.982-.963 3.992l-1.464.017c-.08.002-.166 0-.231-.045a.214.214 0 0 1-.05-.05"/>
        <path fill="#21160A" d="M56.474 61.599c.091-.094.199-.175.304-.253.8-.588 1.655-1.142 2.624-1.359 1.443-.322 2.713.18 3.1 1.608.455 1.677.706 3.408.744 5.145.013.572-3.018.852-3.43.69-.912-.355-.356-1.66-1.007-2.445-.232-.28-.545-.479-.83-.706-.433-.347-1.102-.8-1.404-1.264-.213-.33-.436-.721-.31-1.094a.856.856 0 0 1 .209-.322"/>
        <g transform="translate(63.045 65.153)">
            <mask id="b" fill="#fff">
                <use xlink:href="#a"/>
            </mask>
            <path fill="#613927" d="M3.493 4.373c.076.44.159.877.254 1.313.216.986.497 1.958.842 2.907.294.812.478 1.506.192 2.335-.257.746-.762 1.38-.986 2.143-.134.455-.372.782-.846.927-.332.102-.704.175-1.018.025-.847-.403.168-2.014.338-2.6.271-.93.471-1.912.298-2.866-.253-1.4-1.262-2.535-1.806-3.85-.301-.73-.816-2.384-.41-3.15C.541 1.198 2.861.42 2.838.261c.143.908.285 1.815.429 2.722.072.464.146.927.226 1.39" mask="url(#b)"/>
        </g>
        <path fill="#4B2C1B" d="M51.752 70.926c1.287-.564 3.56-1.317 4.49-.266.059.066-.521 1.25-.504 1.337.02.097-.014.196-.048.29l-.786 2.18c.15-.417-1.406-1.322-1.66-1.437-.72-.323-1.455-.359-2.218-.327.465-.482.788-1.088.726-1.777"/>
        <path fill="#613927" d="M55.355 74.818c.238.146.221.491.175.766l-.249 1.492c-.04.242-.082.488-.193.707-.112.219-.305.41-.547.455.183-.578.261-1.19.23-1.796-.017-.348-.07-.692-.12-1.035-.05-.332-.174-.772-.112-1.106.045-.238.248-.32.426-.13.2.217.11.476.39.647"/>
        <path fill="#100B0A" d="M53.903 73.165c-.41-.195-.884-.23-1.289-.436-.168-.085-.323-.198-.5-.263-.324-.119-.691-.062-1.006.08-.314.14-.586.36-.854.577-.312.253-.629.51-.862.838-.216.304-.352.657-.483 1.007-.128.345-.256.697-.28 1.064-.024.342.042.682.109 1.017.082.416.166.837.361 1.214.116.222.267.424.418.624.289.383.586.773.99 1.033.61.392 1.412.429 2.092.174.68-.254 1.239-.775 1.622-1.39.102-.162.192-.332.267-.51a6.15 6.15 0 0 0 .255-.818l.186-.714c.172-.66.394-1.474.087-2.127-.258-.55-.534-1.096-1.113-1.37"/>
        <path fill="#090907" d="M54.663 55.91c.399-.332.883-.547 1.372-.723 2.135-.771 4.654-.846 6.56.384 1.636 1.055 2.588 2.894 3.213 4.733.706 2.071 1.09 4.25 1.139 6.436.012.572-3.019.852-3.431.69-.911-.355-.355-1.66-1.006-2.445-.232-.28-.545-.479-.83-.706-.415-.331-.772-.729-1.19-1.056-.542-.426-1.144-.477-1.729-.74-.562-.251-1.189-.67-1.678-1.045-.628-.48-1.105-1.151-1.785-1.565-.432-.263-1.251-.257-1.594-.59-.809-.783.291-2.814.96-3.372"/>
        <path fill="#CABFB9" d="M50.82 64.217c-.777.901-1.73 1.64-2.497 2.55-1.296 1.54-1.986 3.483-2.65 5.382-.082.23-.162.49-.061.713.081.18.261.292.432.393.737.437 1.644.882 2.405.49 1.005-.519 1.511-2.158 2.206-3.02.09-.113.188-.23.322-.284.249-.1.52.046.755.175a7.208 7.208 0 0 0 3.418.882c.955.003 2.415.205 2.966 1.164.098.17.084.38.067.576l-.163 1.869c.442.062.888.096 1.334.1.928.009 2.102-.545 2.358-1.53.098-.377.02-.774-.048-1.157a25.315 25.315 0 0 1 .53-11.228c.193-.694.418-1.424.24-2.122-.196-.77-.837-1.332-1.446-1.844-.56-.471-1.134-.951-1.817-1.215-5.171-1.996-6.16 5.566-8.35 8.106"/>
        <path fill="#CABFB9" d="M62.346 60.378a22.135 22.135 0 0 1-1.423 10.158c-.675-.399-1.159-1.051-1.424-1.787-.266-.736-.343-1.526-.377-2.308-.083-1.92.173-4.034 1.557-5.37.407-.392 1.136-.5 1.667-.693"/>
        <path fill="#613927" d="M58.298 77.36c.008.861.015 1.736-.215 2.566-.183.661-.51 1.273-.737 1.92-.298.852-.418 1.76-.744 2.602-.932 2.405-3.17 4.106-3.883 6.618-.06.212-.095.475.071.617.09.077.217.094.335.102 3.052.202 4.817-4.23 5.953-6.478a23.855 23.855 0 0 0 2.55-11.583c-.021-.604-2.529.3-2.752.46-.985.706-.589 2.084-.578 3.176"/>
        <path fill="#A36B58" d="M3.422 86.308c-.034.403.215.746.778.602.215-.055.405-.179.597-.293a7.51 7.51 0 0 1 2.724-.972c.275-.04.606-.105.705-.365.055-.145.016-.306.004-.46-.047-.62-.046-1.687-.769-1.93-1.289-.432-1.099 1.103-1.553 1.708a1.862 1.862 0 0 1-1.399.732 1.102 1.102 0 0 0-1.087.978"/>
        <path fill="#21160A" d="M7.783 83.866l.678-3.054c.345-1.554.692-3.137.553-4.723-.08-.917-.322-1.814-.42-2.73-.21-1.947.233-3.899.674-5.808.042-.182-1.327-1.226-1.505-1.384a62.736 62.736 0 0 0-1.548-1.336c-.493-.411-1.092-.776-1.44-1.309-.355-.542-.693-1.07-1.128-1.554-.657 1.132-.475 2.258-.46 3.506.015 1.372.152 2.746.482 4.08.242.983.588 1.938.88 2.908.678 2.26 1.055 4.598 1.317 6.94.128 1.144.227 2.292.322 3.44.027.322-.041.8.224 1.03.135.118 1.33.178 1.37-.006"/>
        <path fill="#CAD6E3" d="M4.124 71.49a25.781 25.781 0 0 0-.05-.132c-.297-.768-.357-1.738-.442-2.552a19.282 19.282 0 0 1-.076-3.026c.022-.397-.016-.836.04-1.218.062-.429.326-.898.476-1.305.234.068.456.181.648.332-.051-.025-.308 1.979-.315 2.135-.038.84-.018 1.681.034 2.52.104 1.685.338 3.36.496 5.04.013.14.026.286-.026.418a44.027 44.027 0 0 0-.785-2.212"/>
        <path fill="#A36B58" d="M13.383 48.117c.254.312.6.566.738.943.147.402.015.865-.235 1.213-.25.35-.605.607-.954.858L11.3 52.308c-.198.142-.401.288-.637.355-.235.066-.485.049-.727.015a5.857 5.857 0 0 1-2.44-.923c-.175-.117-.348-.248-.456-.43-.147-.248-.15-.56-.071-.838.078-.278.23-.529.38-.775.247-.407.502-.823.877-1.117.694-.542 1.645-.565 2.515-.705a7.578 7.578 0 0 0 1.665-.461c.244-.1.395-.252.578-.053.167.18.228.532.399.741"/>
        <path fill="#0A0809" d="M9.28 41.755c.71-.57 1.642-.841 2.552-.796.239.012.479.045.704.126.22.08.424.205.603.356.623.527.933 1.334 1.11 2.129.072.321.127.65.109.98-.039.708-.422 1.373-.963 1.834-.54.462-1.225.732-1.926.857a.905.905 0 0 1-.332.013c-.148-.029-.273-.124-.393-.216-.42-.324-.849-.655-1.153-1.09-.262-.374-.421-.812-.711-1.167-.225-.275-.613-.502-.727-.854-.24-.744.6-1.75 1.126-2.172"/>
        <path fill="#0A0809" d="M13.412 41.054c.696.46 1.194 1.281 1.09 2.108-.008.06-.021.123-.065.164a.28.28 0 0 1-.14.056 9.106 9.106 0 0 1-1.847.173c-.32-.002-.641-.023-.947-.115-.558-.168-.979-.554-1.398-.939-.294-.27-.923-.523-.842-1.016a.766.766 0 0 1 .154-.318c.219-.299.511-.555.864-.666.238-.075.492-.081.742-.076"/>
        <path fill="#E1846A" d="M11.886 52.146a142.614 142.614 0 0 0-4.971 9.212c-.057.115-.116.234-.216.314a.822.822 0 0 1-.25.125c-.467.162-.959.25-1.452.258-.103.002-.214-.002-.295-.064a.43.43 0 0 1-.12-.175c-.149-.342-.197-.718-.231-1.09-.207-2.23.023-4.5.672-6.645.149-.488.32-.976.594-1.408.346-.548.832-.987 1.232-1.494.389-.491.57-.789 1.203-.5.639.293 1.25.624 1.91.874.18.069 1.855.71 1.924.593"/>
        <path fill="#5E8C6B" d="M4.125 61.567c-.216-.374-.215-.837-.135-1.26.081-.425.235-.833.308-1.259.092-.53.055-1.08-.105-1.593-.096-.304-.234-.595-.302-.906-.152-.694.056-1.413.309-2.076.082-.216.175-.439.347-.594.173-.156.446-.224.64-.097.034.664.07 1.334.253 1.973.184.639.532 1.252 1.08 1.63.273.19.592.32.822.558.447.463.434 1.21.22 1.816-.215.605-.595 1.141-.816 1.744-.036.099-.07.203-.146.276-.094.092-.232.119-.36.152-.386.1-.712.453-1.1.396-.376-.055-.833-.444-1.015-.76"/>
        <path fill="#5E8C6B" d="M.23 55.706a1.773 1.773 0 0 1-.012-1.724c.208-.37.542-.65.869-.921a228.366 228.366 0 0 1 5.606-4.49c.079-.06.206-.115.263-.034.023.033.022.076.02.116-.075 1.756-.152 3.529-.594 5.23-.24.928-.7 1.939-1.617 2.223-.442.136-.917.076-1.379.109-.607.043-1.232.424-1.824.372-.53-.047-1.07-.43-1.332-.88M11.154 52.878c-.173.143-.342.296-.531.396-.358.191-.77.231-1.12.462-.51.334-.855.858-1.186 1.368-1.43 2.202-3.813 4.587-3.292 7.448 2.673.788 5.633 1.272 8.185.153.144-.063.293-.137.384-.267.134-.191.105-.446.103-.68-.015-1.263.871-2.328 1.442-3.456.855-1.692 1.42-4.464 1.024-6.351-.213-1.017-1.292-.64-2.214-.4a8.838 8.838 0 0 0-2.527 1.127 2.672 2.672 0 0 0-.268.2"/>
        <path fill="#CAD6E3" d="M7.11 48.72c.128-.232.284-.474.532-.567.384-.143.855.227.805.632-.022.18-.125.34-.223.493-.749 1.16-1.23 2.248-1.431 3.61-.019.124-.037.249-.064.371-.147.681-.532 1.283-.91 1.869.237-.369.199-1.207.213-1.634.02-.55-.001-1.07.065-1.617a8.758 8.758 0 0 1 1.014-3.158"/>
        <path fill="#A36B58" d="M4.97 51.32c-.2.087-.303.305-.389.506l-1.18 2.761c-.21-.373-.722-.498-1.132-.369-.41.13-.726.457-.968.812-.14.204-.263.428-.292.673-.03.245.053.515.255.657.132.092.297.12.457.141.437.056.88.067 1.32.078.416.011.856.016 1.214-.196.267-.159.456-.422.607-.693.446-.8.621-1.717.662-2.624.013-.297.208-2.077-.554-1.746"/>
        <path fill="#B67B63" d="M6.047 55.89c.413-1.209.143-2.531-.13-3.78-.048-.214-.133-.47-.349-.515-.216-.046-.399.155-.521.338a7.803 7.803 0 0 0-1.299 3.982.775.775 0 0 0 .038.332c.046.11.138.193.23.27.305.25.638.46.971.671l2.627 1.66a.996.996 0 0 0 .34.158c.234.043.47-.089.638-.258.24-.24.389-.564.426-.9.052-.466-.075-.523-.466-.728a59.326 59.326 0 0 0-2.505-1.23"/>
        <path fill="#5E8C6B" d="M10.917 58.151a6.526 6.526 0 0 1-1.907-.833l-.893 1.237c-.101.14-.207.29-.222.463-.027.296.211.542.431.743.773.705 1.576 1.417 2.551 1.8.975.382 2.171.375 2.984-.284.367-.298.63-.703.868-1.11a16.145 16.145 0 0 0 2.11-6.475c.067-.664.087-1.365-.203-1.966-.29-.602-.982-1.059-1.626-.874-.45.13-.765.523-1.037.904-1.374 1.923-2.287 4.17-3.056 6.395"/>
        <path fill="#CAD6E3" d="M13.604 49.694a6.318 6.318 0 0 1-1.674 1.52c-.727.452-1.562.77-2.136 1.404-.903 1-1.43 1.998-1.857 3.275 1.521-2.337 4.496-3.554 7.22-4.166.335-.075.687-.14.96-.347.678-.516.477-1.666-.17-2.219-.312-.265-1.228-.804-1.66-.665-.561.18-.302.699-.683 1.198"/>
        <path fill="#B67B63" d="M13.257 45.546a.445.445 0 0 1 .242.005c.157.058.23.248.21.413-.022.166-.115.312-.206.452l-.731 1.126a5.01 5.01 0 0 1-.46.634 3.351 3.351 0 0 1-.794.63c-.858.508-2.015.915-2.96.446-.262-.13-.5-.335-.609-.606-.114-.283-.068-.61-.095-.903a12.804 12.804 0 0 1-.062-1.131c0-.787.074-1.574.223-2.346.039-.2.13-.442.333-.456.088-.005.171.037.254.069.227.086.476.09.717.127.638.098 1.219.435 1.704.86.213.185.409.389.596.6.156.177.343.53.559.63.37.17.69-.471 1.079-.55"/>
        <path fill="#21160A" d="M9.82 71.63a10.134 10.134 0 0 0-.467 1.55c-.071.332-.116.713.091.983.176.23.482.307.761.385a9.207 9.207 0 0 1 3.705 2.036c.499.452.951.961 1.514 1.33.63.414 1.385.634 2.14.625.154-.002.315-.015.452-.09a.898.898 0 0 0 .302-.305c.46-.695.514-1.638.134-2.379-.703-1.373-2.466-1.773-3.694-2.518-1.483-.9-3.335-.838-4.937-1.617"/>
        <path fill="#CAD6E3" d="M15.603 76.748l-1.666-.708c-.377-.16-.692-.4-1.048-.6a8.646 8.646 0 0 0-1.14-.53c-.166-.064-2.125-.709-2.16-.597l.195-.611c.76.14 1.513.338 2.238.609.409.152.809.329 1.194.534.32.17.612.454.967.527l1.286.267c.086.363.131.736.134 1.109"/>
        <path fill="#353535" d="M4.557 64.331c.888 1.087 1.894 2.1 3.11 2.804.607.351 1.268.626 1.804 1.078.48.404.838.931 1.19 1.451l4.67 6.908c.398.588.81 1.19 1.398 1.591.588.4 1.4.556 2.011.193.826-.49.933-1.635.827-2.588-.097-.872-.294-1.74-.674-2.532-.29-.605-.68-1.157-.982-1.757-.286-.57-.49-1.176-.691-1.78l-.833-2.492c-.254-.759-.384-1.605-.716-2.321-.38-.822-.83-1.612-1.343-2.36-.022-.032-.052-.068-.092-.066-.039.003-.064.042-.084.077-.746 1.353-2.293 1.734-3.729 1.87-.723.069-1.453.095-2.174.014-1.883-.21-3.133-1.415-4.806-1.95.078.66.695 1.347 1.114 1.86"/>
        <path fill="#CAD6E3" d="M17.828 78.506c-.027-.028-.029-.065-.044-.124a146.66 146.66 0 0 0-.386-1.476 66.798 66.798 0 0 0-.533-1.89 34.67 34.67 0 0 0-1.227-3.476c-.186-.443-.384-.902-.587-1.372-.834-1.936-1.78-4.13-2.296-6.15l.886-.318c.492 1.924 1.418 4.073 2.235 5.968.204.473.403.935.59 1.382a35.845 35.845 0 0 1 1.275 3.608c.187.627.363 1.258.532 1.89a121 121 0 0 1 .257.975l.129.497c.04.16.092.258-.055.38a.754.754 0 0 1-.496.172c-.068-.002-.169-.004-.231-.033a.156.156 0 0 1-.049-.033"/>
        <path fill="#21160A" d="M3.4 62.018c.005.358.172.687.608.95l1.561.94c.253.152.507.304.772.434 1.27.616 2.74.656 4.15.56.787-.053 1.588-.15 2.306-.478.718-.328 1.35-.923 1.548-1.685.014-.053.025-.111.004-.162-.04-.096-.167-.112-.256-.166-.19-.117-.214-.423-.423-.502a.475.475 0 0 0-.252-.003c-1.077.19-2.057.767-3.136.95-.922.158-1.869.021-2.785-.17-.716-.15-1.434-.336-2.077-.686a4.274 4.274 0 0 1-1.465-1.388c-.306.462-.56.956-.555 1.406"/>
        <path fill="#B67B63" d="M8.6 71.13c-.192.186-.273.468-.296.739-.024.292.008.588-.03.88-.09.667-.526 1.207-.8 1.803-.138.3-.242.582-.393.877-.149.291-.286.623-.155.947.261.104.55-.095.705-.329.155-.233.246-.513.448-.708.265-.257.663-.312.989-.487.431-.233.718-.675.867-1.141.157-.495.235-1.035.143-1.55-.098-.554-.543-.74-.976-1.055-.07-.05-.144-.103-.23-.107a.338.338 0 0 0-.22.086.744.744 0 0 0-.051.046"/>
        <path fill="#21160A" d="M28.41 29.42a9.948 9.948 0 0 0 1.101 2.805c.676-.619 1.52-1.018 2.337-1.432.936-.474 1.855-.98 2.756-1.516.514-.307 1.024-.624 1.493-.997.116-.091.228-.185.338-.284.048-.043.12-.087.126-.149.004-.054-.084-.176-.108-.227l-.42-.886c-.055-.117-.11-.234-.177-.344-.066-.11-.145-.213-.208-.326-.08-.141-.134-.296-.189-.45-.067-.19-.115-.413-.208-.592-.104-.2-.258.019-.377.118-.31.258-.623.51-.943.755-.618.472-1.273.993-1.972 1.341-1.202.709-2.51 1.256-3.55 2.185"/>
        <g transform="translate(33.862 .066)">
            <mask id="d" fill="#fff">
                <use xlink:href="#c"/>
            </mask>
            <path fill="#E5C8AA" d="M.345 3.263c.234-.265.604-.35.935-.474.773-.287 1.414-.836 2.038-1.374L4.575.33c.052-.044.106-.09.171-.11.188-.06.378.127.406.322.029.194-.05.385-.114.57-.299.872-.275 1.818-.465 2.719-.244 1.155-.833 2.205-1.414 3.233L1.097 6.15c.051.023.066-.762.055-.83a1.908 1.908 0 0 0-.312-.772c-.264-.382-.97-.746-.495-1.285" mask="url(#d)"/>
        </g>
        <path fill="#8D9FB5" d="M35.625 14.95c.166-.07.33-.155.458-.283.413-.413.324-1.085.294-1.668-.042-.814.09-1.626.221-2.431l.622-3.802c-.44-.01-.882.134-1.23.401a3.48 3.48 0 0 0-.568.588c-.91 1.125-1.688 2.405-1.948 3.827-.179.981-.187 2.154.015 3.135.175.852 1.551.48 2.136.233"/>
        <path fill="#301E22" d="M37.022 40.034c-.068-.053-.137-.11-.22-.132-.136-.036-.277.025-.415.053-.435.087-.886-.189-1.104-.574-.219-.385-.24-.854-.175-1.292.01-.068.027-.143.084-.18a.257.257 0 0 1 .132-.029l1.942-.07c.146-.005.294-.01.436.025.162.04.306.128.447.216.397.248.791.498 1.183.752.089.057.18.117.238.205.076.114.086.256.094.393.044.734.128 1.376-.74 1.34a3.407 3.407 0 0 1-1.902-.707"/>
        <path fill="#E5C8AA" d="M38.883 36.542a10.616 10.616 0 0 0-.105 1.919c.002.056-.016.527.06.546a17.55 17.55 0 0 0-2.864-.096.162.162 0 0 1-.082-.01c-.02-.01-.034-.027-.048-.044-.526-.637-1.182-1.303-1.423-2.113-.227-.766-.042-1.586.143-2.364l.728-3.051 2.325.147c.226.014.453.028.677-.005.248-.036.487-.13.737-.147.444-.03.869.189 1.222.459.436.334.815.781.928 1.318.113.536-.102 1.164-.594 1.41-.217.109-.466.137-.688.235-.66.29-.912 1.085-1.016 1.796"/>
        <path fill="#301E22" d="M35.442 25.752c-.106.112-.373.21-.48.284-.397.275-.742.617-1.123.913-.663.516-1.42.896-2.172 1.273l-1.376.689a8.312 8.312 0 0 1-.845.384c-.329.122-.671.2-1.013.28-.626-.592-1.208-1.494-1.52-2.3-.647-1.648-.805-3.772.715-4.915.716-.538 1.581-.84 2.449-1.065.867-.224 1.753-.38 2.602-.667.968-.326 1.921-.827 2.942-.775-.152.598-.306 1.202-.321 1.818-.028 1.086-.067 2.178.063 3.26.02.173.179.612.116.767a.186.186 0 0 1-.037.054"/>
        <path fill="#353535" d="M34.047 22.336c.546.015 1.109-.231 1.413-.683.159-.236.243-.513.317-.787.575-2.107.744-4.324.495-6.493-.333.448-.907.666-1.465.697-.558.03-1.111-.102-1.654-.234l-.24 5.586c-.015.33-.357 1.015-.264 1.287.145.425 1.02.618 1.398.627"/>
        <path fill="#F7E0C4" d="M33.649 6.13c.007-.35-.182-.669-.274-1.006-.093-.337-.038-.777.283-.917.153-.066.328-.045.494-.056.696-.043 1.221-.622 1.665-1.157.162-.195.346-.403.596-.441.223-.51.875-.67 1.432-.65.059.003.122.008.167.045.04.034.058.087.07.138.125.553-.245 1.082-.39 1.63-.063.233-.083.474-.116.713a7.653 7.653 0 0 1-1.723 3.888c-.191.227-.4.447-.661.59-.513.284-1.2.216-1.647-.162-.349-.296-.574-.818-.5-1.278.081-.501.592-.788.604-1.337"/>
        <path fill="#E5C8AA" d="M29.96 34.479c1.022.731 2.355 1.123 3.279 1.983.242.225 2.55 2.353 2.53 2.375-2.552 2.723-6.049.645-8.777-.572-.621-.278-1.245-.563-1.799-.973-.283-.21-.554-.463-.69-.802-.194-.484-.074-1.04.06-1.546a32.383 32.383 0 0 1 1.912-5.32c.317-.685.667-1.399.642-2.164-.005-.157-.025-.321.028-.468.054-.147.216-.264.349-.194.204.108.095.425.092.61-.003.277.077.512.146.778.104.403.216 1 .095 1.411-.122.414-.393.764-.494 1.207-.227.99-.507 2.068-.514 3.126-.005.742-.105 1.376.572 1.624.905.331 1.966.369 2.9.646-.036-.299-.216-1.634-.42-1.786l.088.065"/>
        <path fill="#301E22" d="M44.565 40.835a2.16 2.16 0 0 1-.487.472c-1.212.892-2.99.927-4.236.083-.386-.261-.736-.623-.834-1.078-.106-.496.102-1.002.333-1.453.14-.274.297-.55.535-.747.187-.155.414-.253.638-.348.484-.207.973-.408 1.482-.549.465-.128.995-.112 1.442-.282.086-.033.17-.075.263-.08.188-.01.343.138.459.285.423.54.532 1.14.653 1.794.118.637.147 1.351-.248 1.903"/>
        <path fill="#E1846A" d="M29.464 32.338a.461.461 0 0 1 .016-.211c.03-.077.099-.132.165-.184a46.541 46.541 0 0 1 4.383-3.036c.693-.423 1.446-.783 2.099-1.258a.982.982 0 0 1 .24-.116.094.094 0 0 1 .043-.009c.033.003.053.036.069.065.098.19.174.358.33.505.143.135.283.274.419.417.277.294.537.602.782.923a13.513 13.513 0 0 1 1.668 2.85c.056.13.11.26.162.391.039.1.138.26.138.367.206.576.367 1.2.222 1.794l-.351-.006c-.116-.867-.295-1.84-1.023-2.328-.378-.254-.845-.33-1.296-.398l-1.845-.282a30.885 30.885 0 0 0-.856 3.59c-.083.477-.155.972-.032 1.44.112.426.375.784.65 1.119.23.278.606.608.743.934-.07.008-.75.099-.71.232-.066-.219-.284-.395-.429-.566-.122-.143-.242-.293-.375-.426-.324-.323-.661-.634-1.002-.938-.452-.402-.922-.892-1.45-1.197-.537-.312-1.4-.44-1.858-.817-.585-.48-.84-2.155-.902-2.855"/>
        <path fill="#F7E0C4" d="M38.637 38.798c-.258-.154-.329-.49-.365-.787-.098-.796-.126-1.6-.085-2.4.017-.324.076-.697.357-.858.121-.068.264-.084.403-.094 1.841-.125 3.722.688 4.889 2.114.05.06.1.13.092.208-.007.06-.049.11-.088.155l-.9 1.036c-.257.296-.52.597-.856.8-.674.407-1.435.304-2.175.34.172 2.165-2.347.212-1.272-.514"/>
        <path fill="#CAD6E3" d="M35.064 8.96c-1.005-.014-1.82-.902-1.876-1.876-.672.69-1.528 1.511-2.027 2.337-.19.317-.318.667-.443 1.015-.804 2.231-1.038 4.015-.586 6.381.103.542 2.36.08 2.66-.039.907-.36.83-.78.88-1.692.116-2.1.587-4.181 1.392-6.126"/>
        <path fill="#21160A" d="M31.413 16.67c.746.141 1.51-.059 2.244-.258.069 2.936-.731 5.971-2.65 8.198-.494.572-1.07 1.096-1.769 1.387-.698.29-1.535.319-2.188-.063-1.004-.585-1.289-1.96-1.002-3.084.287-1.124 1.01-2.077 1.64-3.051.44-.68.843-1.383 1.206-2.106.287-.574.556-1.781 1.07-2.117.342.548.783.967 1.449 1.094"/>
    </g>
</svg>
