<svg xmlns="http://www.w3.org/2000/svg" xmlns:xlink="http://www.w3.org/1999/xlink" width="220" height="69" viewBox="0 0 220 69">
    <defs>
        <path id="a" d="M0 68.94h219.95V0H0z"/>
    </defs>
    <g fill="none" fill-rule="evenodd">
        <path fill="#010202" d="M72.68 10.439c0-6.866 4.227-9.31 8.815-9.31 1.985 0 3.505.283 4.615.591l.335 4.81h-.31c-.514-1.106-.876-1.955-1.47-2.906-.901-1.57-1.674-1.929-3.428-1.929-3.195 0-5.438 2.392-5.438 8.255 0 6.301 1.753 8.95 4.974 8.95 2.372 0 3.198-.411 4.1-2.057.49-.9.902-2.03 1.392-3.085h.309l-.31 4.756c-1.236.516-3.068.953-5.645.953-4.615 0-7.94-2.65-7.94-9.028M87.625 18.926l.953-.18c.902-.205 1.031-.257 1.031-1.595V3.444c0-1.337-.129-1.39-1.031-1.595l-.953-.18v-.283h6.908v.284l-.903.18c-.978.204-1.056.282-1.056 1.594v6.352h7.734V3.444c0-1.312-.104-1.39-1.057-1.595l-.93-.18v-.283h6.936v.284l-.98.18c-.928.204-1.006.257-1.006 1.594v13.707c0 1.338.078 1.39 1.006 1.595l.98.18v.283h-6.935v-.283l.929-.18c.953-.205 1.057-.283 1.057-1.595v-6.738h-7.734v6.738c0 1.312.078 1.39 1.056 1.595l.903.18v.283h-6.908v-.283zM106.125 18.926l.98-.18c.902-.205 1.03-.257 1.03-1.595V3.444c0-1.337-.128-1.39-1.03-1.595l-.98-.18v-.283h6.959v.284l-.954.18c-.953.204-1.056.282-1.056 1.594v13.707c0 1.312.103 1.39 1.056 1.595l.954.18v.283h-6.96v-.283zM116.529 3.263h-.078v13.4c0 1.568.104 1.75 1.082 2.033l1.006.23v.283h-4.795v-.283l.98-.23c.824-.207 1.004-.49 1.004-2.007V3.444c0-1.157-.205-1.415-1.03-1.595l-.903-.18v-.282h4.95L127.25 14.4h.079V3.933c0-1.517-.104-1.826-1.058-2.033l-1.109-.23v-.283h4.82v.283l-.927.23c-.851.207-1.006.566-1.006 1.982v15.43h-1.005L116.53 3.264zM132.93 12.137h5.079l-2.423-7.408h-.078l-2.577 7.408zm-4.485 6.79l.438-.13c.877-.256 1.083-.539 1.908-2.93l5.284-14.48h1.392l5.13 14.788c.696 2.005 1.032 2.417 1.753 2.622l.541.13v.282h-6.831v-.283l.593-.129c.851-.205 1.031-.539 1.031-1.054 0-.385-.154-1.055-.334-1.492l-1.135-3.497h-5.516l-1.006 2.93c-.334 1.004-.438 1.545-.438 1.957 0 .617.284.925 1.082 1.13l.697.155v.283h-4.589v-.283zM73.145 43.178l.98-.18c.902-.205 1.03-.257 1.03-1.594V27.697c0-1.338-.128-1.39-1.03-1.595l-.98-.18v-.283h6.959v.283l-.954.18c-.952.205-1.057.283-1.057 1.595v13.707c0 1.312.105 1.39 1.057 1.595l.954.18v.282h-6.96v-.283zM83.484 27.515h-.078v13.4c0 1.569.104 1.75 1.083 2.033l1.005.23v.284H80.7v-.284l.98-.23c.825-.207 1.005-.49 1.005-2.007V27.696c0-1.157-.206-1.415-1.03-1.595l-.903-.18v-.282H85.7l8.507 13.014h.078V28.185c0-1.517-.104-1.826-1.057-2.032l-1.11-.231v-.283h4.82v.283l-.927.23c-.851.207-1.006.566-1.006 1.982v15.431h-1.004l-10.517-16.05zM110.892 34.872c0-6.044-1.65-8.642-5.903-8.642-1.108 0-1.933.026-2.526.206V40.94c0 1.62.284 1.954 2.577 1.954 4.537 0 5.852-3.317 5.852-8.023zm-13.378 8.306l.953-.18c.902-.204 1.031-.257 1.031-1.594V27.697c0-1.338-.129-1.39-1.031-1.595l-.953-.18v-.283h7.888c4.82 0 8.61 2.212 8.61 8.718 0 6.018-3.61 9.105-8.791 9.105h-7.707v-.284zM114.817 43.178l.98-.18c.902-.205 1.03-.257 1.03-1.594V27.697c0-1.338-.128-1.39-1.03-1.595l-.98-.18v-.283h6.96v.283l-.954.18c-.953.205-1.057.283-1.057 1.595v13.707c0 1.312.104 1.39 1.057 1.595l.953.18v.282h-6.959v-.283zM126.29 36.39h5.079l-2.423-7.408h-.078l-2.578 7.407zm-4.485 6.788l.438-.128c.877-.256 1.082-.54 1.908-2.931l5.284-14.48h1.392l5.13 14.788c.696 2.005 1.032 2.417 1.752 2.623l.542.128v.284h-6.832v-.284l.594-.128c.85-.206 1.03-.54 1.03-1.055 0-.385-.154-1.054-.334-1.491l-1.135-3.498h-5.515l-1.006 2.931c-.335 1.004-.438 1.545-.438 1.956 0 .617.284.926 1.082 1.131l.697.154v.284h-4.59v-.284zM78.094 59.047v6.61c0 1.311.103 1.465 1.056 1.594l1.237.18v.283h-7.242v-.283l.953-.18c.902-.205 1.03-.283 1.03-1.595V51.95c0-1.338-.128-1.39-1.03-1.595l-.953-.18v-.283h12.579l.258 4.887h-.336c-.49-1.235-.824-2.11-1.212-2.804-.695-1.312-1.108-1.517-3.583-1.517-1.366 0-2.06.051-2.757.23v7.768h1.289c2.19 0 2.525-.129 2.887-.9.283-.592.413-1.285.618-2.083h.284v6.584h-.284c-.205-.797-.36-1.389-.593-1.93-.36-.925-.644-1.08-2.912-1.08h-1.29zM99.985 59.125c0-5.633-1.496-8.925-5-8.925-3.482 0-5.028 2.726-5.028 8.41 0 5.863 1.7 8.796 5 8.796 3.482 0 5.028-2.597 5.028-8.281m-13.147-.078c0-6.79 4.073-9.413 8.197-9.413 4.59 0 8.069 2.958 8.069 9.053 0 6.764-4.073 9.285-8.198 9.285-4.589 0-8.068-2.907-8.068-8.925M105.114 62.081V51.949c0-1.338-.13-1.39-1.031-1.595l-.98-.18v-.283h6.935v.283l-.928.18c-.954.205-1.057.283-1.057 1.595v10.286c0 3.267 1.47 4.63 4.666 4.63 3.119 0 4.381-1.62 4.381-4.784v-9.644c0-1.44-.05-1.826-1.056-2.032l-1.186-.23v-.284h5.13v.283l-1.005.23c-.826.182-.98.541-.98 1.982v9.953c0 3.163-1.676 5.632-6.212 5.632-4.202 0-6.677-1.57-6.677-5.89M122.772 51.768h-.078v13.4c0 1.568.103 1.75 1.082 2.032l1.006.23v.284h-4.795v-.283l.98-.23c.825-.207 1.004-.49 1.004-2.008V51.95c0-1.158-.206-1.415-1.03-1.595l-.903-.18v-.283h4.95l8.506 13.014h.078V52.437c0-1.517-.103-1.826-1.057-2.032l-1.11-.23v-.284h4.821v.283l-.928.23c-.85.207-1.006.567-1.006 1.982v15.431h-1.004l-10.516-16.05zM150.115 59.125c0-6.045-1.65-8.642-5.902-8.642-1.108 0-1.934.025-2.526.205v14.505c0 1.62.283 1.955 2.576 1.955 4.539 0 5.852-3.317 5.852-8.023zm-13.378 8.306l.953-.18c.902-.205 1.032-.257 1.032-1.595V51.95c0-1.337-.13-1.39-1.032-1.595l-.953-.18v-.283h7.888c4.82 0 8.61 2.213 8.61 8.718 0 6.018-3.61 9.105-8.791 9.105h-7.707v-.283zM155.924 60.642h5.078l-2.423-7.408h-.077l-2.578 7.408zm-4.485 6.789l.438-.129c.877-.256 1.082-.54 1.907-2.931l5.284-14.48h1.392l5.13 14.789c.696 2.005 1.033 2.417 1.753 2.622l.541.129v.283h-6.831v-.283l.593-.129c.851-.205 1.032-.54 1.032-1.054 0-.385-.155-1.055-.335-1.492l-1.135-3.497h-5.515l-1.006 2.93c-.335 1.004-.439 1.545-.439 1.957 0 .617.285.925 1.082 1.13l.698.155v.283h-4.59v-.283zM174.319 50.457v15.199c0 1.312.076 1.39 1.108 1.595l.954.18v.283h-7.063v-.283l.98-.18c.98-.205 1.082-.258 1.082-1.595V50.457h-.85c-2.268 0-2.604.463-3.145 1.62-.413.823-.851 1.903-1.34 3.111h-.31l.284-5.297h13.662l.256 5.297h-.309a37.643 37.643 0 0 0-1.288-3.11c-.542-1.158-.902-1.62-3.144-1.62h-.877zM180.485 67.43l.98-.179c.903-.205 1.03-.258 1.03-1.595V51.95c0-1.338-.127-1.39-1.03-1.595l-.98-.18v-.283h6.96v.283l-.954.18c-.953.205-1.056.283-1.056 1.595v13.707c0 1.312.103 1.39 1.056 1.595l.954.18v.283h-6.96v-.283z"/>
        <path fill="#010202" d="M200.591 59.125c0-5.633-1.495-8.925-5-8.925-3.481 0-5.027 2.726-5.027 8.41 0 5.863 1.7 8.796 5 8.796 3.481 0 5.027-2.597 5.027-8.281m-13.146-.078c0-6.79 4.072-9.413 8.197-9.413 4.589 0 8.069 2.958 8.069 9.053 0 6.764-4.072 9.285-8.198 9.285-4.589 0-8.068-2.907-8.068-8.925M206.495 51.768h-.077v13.4c0 1.568.103 1.75 1.082 2.032l1.005.23v.284h-4.795v-.283l.98-.23c.825-.207 1.005-.49 1.005-2.008V51.95c0-1.158-.206-1.415-1.03-1.595l-.903-.18v-.283h4.949l8.507 13.014h.078V52.437c0-1.517-.103-1.826-1.057-2.032l-1.11-.23v-.284h4.82v.283l-.927.23c-.85.207-1.006.567-1.006 1.982v15.431h-1.004l-10.517-16.05z"/>
        <mask id="b" fill="#fff">
            <use xlink:href="#a"/>
        </mask>
        <path fill="#010202" d="M33.482 11.464h4.93V5.469h-4.93v5.995zm-7.495 0h4.931V5.469h-4.93v5.995zm16.007-6.185l-1.704-1.31-1.024.818h-5.784V.644a.8.8 0 0 0 .139-.308l-.14-.018L30.918 0v4.787h-6.15l-1.345-.636V14.28h.206c.017 0 .032-.007.049-.007.789-.053 2.31-.42 2.31-.42v-1.71h4.93v9.517l2.564 1.406V12.145h4.93v1.709s1.916.463 2.564.427v-.017l.02.017V6.072l.998-.794zM60.356 14.075l-.934 1.136H56.26v-5.02h3.984c.317 0 .5-.09.545-.34-.59-.613-1.616-1.408-1.616-1.408l-.864 1.09H56.26V5.47h4.598c.319 0 .524-.115.591-.342-.66-.636-1.707-1.454-1.707-1.454l-.91 1.136H48.93l.182.66h4.445v4.065h-3.739l.181.658h3.558v5.019h-5.151l.183.682h12.859c.319 0 .525-.115.593-.364-.66-.612-1.685-1.454-1.685-1.454" mask="url(#b)"/>
        <path fill="#010202" d="M56.874 10.987c.75.727 1.685 2 1.935 2.93 1.138.863 2.07-1.567-1.663-3.11l-.272.18z" mask="url(#b)"/>
        <path fill="#010202" d="M47.258 18.526l.01-1.37v-.002l.11-15.069h15.27v16.441h-15.39zm15.39-17.123H47.383l-.015-.008-1.33-.697v.007L44.68 0v22.098l2.564-1.665v-.075l.001-.105v-.003l.008-1.041h15.395v1.43l2.702 1.459V0l-2.702 1.403zM23.933 39.062v-5.806h5.519c.319 0 .523-.113.59-.363-.705-.682-1.843-1.568-1.843-1.568l-1 1.25h-3.266v-5.537c1.825-.223 4.172-.704 5.906-1.255.364.16.591.137.795 0l-1.341-1.385c-1.764.86-3.84 1.59-5.583 2.093l-2.479-1.486v14.797l.64 1.38c.115-.045.228-.136.365-.272 3.324-1.182 6.306-2.386 8.08-3.089l-.091-.386c-2.293.606-4.547 1.21-6.292 1.627M40.845 26.486v-.305l-2.702-1.608v1.596h-4.551l-2.682-1.596v18.7h2.702V26.85h4.531v12.17c-.683-.01-3.57-.248-3.57-.248v.387c1.252.137 2.026.34 2.435.568.365.159.525.499.616.885 2.24-.077 3.221-1.243 3.221-1.243V26.486zM63.437 24.398l-1.025 1.294H47.391v-.003l-1.345-.583-.16-.072v.003l-1.198-.52v10.78h.003c-.003 1.331-.11 5.413-1.24 8.018l.365.25s.34-.412.81-1.094c.093-.14.194-.277.28-.42 1.052-1.606 2.485-4.252 2.485-6.754v-8.924h17.366c.319 0 .547-.113.593-.363-.729-.682-1.913-1.612-1.913-1.612" mask="url(#b)"/>
        <path fill="#010202" d="M64.131 29.847c-.682-.658-1.797-1.544-1.797-1.544L61.4 29.53h-.657v.683h2.773c.319 0 .547-.115.615-.365M53.601 32.913h3.603v-2.701h-3.603v2.701zm0-5.646v-.236H50.9v2.498H48.06l.184.683H50.9v4.729h2.702v-1.346h3.603v1.063a4.616 4.616 0 0 0 1.386-.245c.37-.13.653-.296.866-.46a2.57 2.57 0 0 0 .27-.24c.22-.229.302-.408.302-.408v-6.274h-2.824v2.498h-3.603v-2.262zM55.035 39.126c-2.11-1.383-3.127-2.828-3.127-2.828h5.83c-.17.245-1.057 1.467-2.703 2.828m1.645.927a15.829 15.829 0 0 0 2.248-1.76l.026-.013.01-.024a12.72 12.72 0 0 0 1.616-1.844c.592 0 .844-.068 1.026-.273l-2.628-1.33-.673.808h-8.991l.181.68h1.844a11.257 11.257 0 0 0 2.805 3.52 18.078 18.078 0 0 1-4.704 2.44 36.845 36.845 0 0 1-3.246.809l.137.386c3.598-.477 6.647-1.363 9.129-2.68 2.185 1.362 4.96 2.203 8.353 2.658.137-.568.569-.978 1.116-1.045l.022-.273-.015-.002.015-.546c-3.474.24-6.211-.51-8.27-1.51M16.702 67.702h-5.085v-3.216h3.72c.313 0 .492-.11.56-.358-.606-.602-1.612-1.363-1.612-1.363l-.851 1.052h-1.817v-2.66H8.958v2.66H4.636l.154.669h4.168v3.216H1.076l.2.65H18.964c.312 0 .536-.114.582-.36-.695-.647-1.86-1.54-1.86-1.54l-.984 1.25z" mask="url(#b)"/>
        <path fill="#010202" d="M7.39 59.416h5.796v-2.167H7.389v2.166zm0-5.584h5.796v-2.056H7.389v2.055zm0 2.77h5.796V54.5H7.389v2.1zm6.76 3.46h5.777c.314 0 .536-.088.603-.334-.738-.693-1.858-1.565-1.858-1.565l-1.03 1.252h-1.798v-7.639h3.186c.313 0 .516-.111.584-.359-.673-.647-1.792-1.495-1.792-1.495l-.963 1.184h-1.015V48.536h-2.658v2.57H7.389v-2.57H4.732v2.57H1.12l.18.67h3.432v7.639H.089l.203.648h4.44S3.9 62.586 1.49 64.4c-.479.325-.974.633-1.49.912l.224.401c3.09-1.338 5.664-3.237 7.254-5.65h5.978c1.388 2.346 3.806 4.312 6.314 5.272.133-.536.493-.849 1.03-1.005l.066-.246c-2.372-.693-5.237-2.166-6.716-4.022zM39.303 67.749h-5.709v-6.746h7.164c.291 0 .516-.113.583-.358-.716-.626-1.86-1.497-1.86-1.497l-1.005 1.184h-4.882v-3.574h3.516c.314 0 .514-.111.582-.357-.695-.647-1.768-1.408-1.768-1.408l-.963 1.095h-8.307l.157.67h4.125v3.574h-7.438l.179.67h7.26v6.747h-8.492l.202.625h19.008c.314 0 .536-.112.603-.358a66.613 66.613 0 0 0-1.946-1.564l-1.009 1.297z" mask="url(#b)"/>
        <path fill="#010202" d="M36.255 65.61l2.568-2.774a.579.579 0 0 0 .189-.203l-1.925-.848c-.738 1.832-1.701 3.82-2.463 5.047l.313.202c.428-.4.875-.889 1.318-1.424M29.73 66.83l-.44-.758c-.67-1.204-1.419-2.794-2.02-4.287l-1.926.847a.579.579 0 0 0 .189.204L28.1 65.61c.443.536.89 1.024 1.317 1.423v.001l.314-.202-.001-.002zM42.809 55.913s-1.654-.139-4.111-1.577c-.066-.04-.136-.076-.201-.116-.06-.036-.123-.08-.183-.117a24.24 24.24 0 0 1-.799-.527c-1.265-.88-2.678-2.087-4.156-3.75-.037-.046-.077-.09-.112-.138.737-.813 1.163-1.342 1.163-1.342l-3.362.195s-2.596 5.316-7.951 8.756a20.08 20.08 0 0 1-.25.156c-.32.199-.645.394-.984.577l.179.359c1.429-.678 2.883-1.57 4.268-2.563l-.085.087c2.792-1.893 5.172-4.232 6.636-5.805.121.201.242.402.378.602v.016l.02.017c1.849 2.701 4.971 5.252 8.261 6.864.135-.448.627-.804 1.187-.893l.043-.335.059-.466zM60.603 60.214H45.156l.202.671h17.64c.315 0 .54-.112.606-.358-.738-.691-1.949-1.608-1.949-1.608l-1.052 1.295zM57.043 63.03l-.246.177c.963.894 2.217 2.123 3.203 3.33-4.725.266-9.113.512-11.755.601a31.158 31.158 0 0 0 1.831-1.215l5.414-3.592-.27-.16.006-.003-1.922-1.127-2.096 2.527c-1.22 1.289-2.675 2.598-3.925 3.325-.179.09-.582.18-.582.18l.693 1.697a.765.765 0 0 0 .427-.335c5.104-.515 9.536-1.028 12.536-1.43.492.626.895 1.228 1.141 1.765 1.681.982 2.33-2.48-4.455-5.74M60.044 56.529c-.738-.693-1.925-1.586-1.925-1.586l-1.008 1.273h-8.373l.178.67h10.546c.314 0 .538-.112.582-.357" mask="url(#b)"/>
        <path fill="#010202" d="M64.883 55.885s-1.654-.139-4.11-1.578c-.066-.04-.136-.076-.202-.116-.059-.036-.122-.08-.182-.117-.274-.17-.537-.348-.8-.527-1.265-.88-2.678-2.086-4.156-3.748-.036-.047-.076-.092-.112-.14.738-.812 1.164-1.34 1.164-1.34l-3.363.193s-2.595 5.316-7.95 8.757l-.25.155c-.32.2-.645.394-.984.578l.178.358c1.43-.678 2.883-1.57 4.268-2.563l-.085.088c2.792-1.894 5.173-4.232 6.636-5.805.122.2.243.402.379.602v.015l.02.017c1.849 2.702 4.97 5.252 8.26 6.864.135-.447.628-.804 1.187-.893l.044-.334h-.001l.06-.466z" mask="url(#b)"/>
    </g>
</svg>
