<svg xmlns="http://www.w3.org/2000/svg" xmlns:xlink="http://www.w3.org/1999/xlink" width="239" height="76" viewBox="0 0 239 76">
    <defs>
        <path id="a" d="M.695.128h17.64v19.514H.695z"/>
        <path id="c" d="M0 75.043h238.957V0H0z"/>
    </defs>
    <g fill="none" fill-rule="evenodd">
        <path fill="#020303" d="M78.96 11.363c0-7.473 4.593-10.135 9.578-10.135 2.157 0 3.808.309 5.014.644l.363 5.237h-.336c-.559-1.204-.952-2.128-1.596-3.164-.98-1.71-1.82-2.1-3.725-2.1-3.472 0-5.91 2.604-5.91 8.986 0 6.86 1.906 9.743 5.406 9.743 2.576 0 3.473-.448 4.454-2.24.532-.979.98-2.211 1.511-3.359h.336l-.336 5.179c-1.343.56-3.333 1.037-6.132 1.037-5.015 0-8.627-2.885-8.627-9.828M95.197 20.602l1.036-.195c.98-.224 1.12-.28 1.12-1.736V3.749c0-1.456-.14-1.512-1.12-1.736l-1.036-.195V1.51h7.505v.308l-.98.195c-1.063.224-1.148.307-1.148 1.736v6.915h8.403V3.749c0-1.429-.114-1.512-1.15-1.736l-1.009-.195V1.51h7.535v.308l-1.065.195c-1.008.224-1.093.28-1.093 1.736v14.922c0 1.456.085 1.512 1.093 1.736l1.065.195v.308h-7.535v-.308l1.01-.195c1.035-.224 1.149-.309 1.149-1.736v-7.335h-8.403v7.335c0 1.427.085 1.512 1.147 1.736l.981.195v.308h-7.505v-.308zM115.296 20.602l1.064-.195c.98-.224 1.12-.28 1.12-1.736V3.749c0-1.456-.14-1.512-1.12-1.736l-1.064-.195V1.51h7.56v.308l-1.036.195c-1.034.224-1.148.307-1.148 1.736v14.922c0 1.427.114 1.512 1.148 1.736l1.036.195v.308h-7.56v-.308zM126.599 3.552h-.085v14.586c0 1.708.113 1.905 1.176 2.213l1.093.25v.309h-5.209V20.6l1.066-.25c.894-.225 1.09-.533 1.09-2.185V3.75c0-1.26-.223-1.54-1.121-1.736l-.98-.196V1.51h5.377l9.24 14.166h.087V4.28c0-1.651-.113-1.988-1.148-2.213l-1.205-.25v-.309h5.236v.308l-1.007.25c-.925.226-1.095.618-1.095 2.159v16.797h-1.09L126.6 3.552zM144.418 13.211h5.517l-2.632-8.063h-.085l-2.8 8.063zm-4.874 7.39l.477-.14c.952-.279 1.176-.586 2.072-3.19l5.742-15.762h1.512l5.573 16.098c.756 2.184 1.121 2.63 1.904 2.854l.589.14v.309h-7.422V20.6l.644-.14c.924-.223 1.12-.586 1.12-1.147 0-.42-.168-1.148-.363-1.625l-1.233-3.806h-5.992l-1.092 3.19c-.365 1.093-.478 1.682-.478 2.13 0 .672.308 1.008 1.176 1.231l.757.167v.309h-4.986V20.6zM79.465 47.001l1.065-.195c.98-.224 1.119-.28 1.119-1.736V30.149c0-1.456-.139-1.513-1.12-1.736l-1.064-.196v-.308h7.56v.308l-1.035.196c-1.035.223-1.148.308-1.148 1.736v14.92c0 1.429.113 1.513 1.148 1.737l1.036.195v.309h-7.56V47zM90.699 29.951h-.085v14.586c0 1.708.113 1.905 1.176 2.213l1.092.25v.31h-5.208V47l1.064-.25c.896-.225 1.091-.533 1.091-2.184V30.149c0-1.26-.223-1.54-1.119-1.737l-.98-.195v-.309h5.376l9.242 14.168h.085V30.68c0-1.651-.113-1.986-1.148-2.211l-1.206-.252v-.309h5.237v.309l-1.008.252c-.925.225-1.094.615-1.094 2.156v16.797h-1.09L90.7 29.952zM120.474 37.96c0-6.581-1.791-9.407-6.413-9.407-1.203 0-2.098.027-2.744.223v15.79c0 1.764.309 2.126 2.801 2.126 4.928 0 6.356-3.61 6.356-8.732zM105.94 47l1.036-.193c.981-.225 1.12-.282 1.12-1.738V30.15c0-1.455-.139-1.514-1.12-1.737l-1.036-.195v-.309h8.572c5.235 0 9.35 2.408 9.35 9.491 0 6.551-3.918 9.91-9.549 9.91h-8.373v-.308zM124.74 47.001l1.064-.195c.98-.224 1.12-.28 1.12-1.736V30.149c0-1.456-.14-1.513-1.12-1.736l-1.064-.196v-.308h7.559v.308l-1.035.196c-1.034.223-1.149.308-1.149 1.736v14.92c0 1.429.115 1.513 1.15 1.737l1.034.195v.309h-7.56V47zM137.204 39.611h5.517l-2.631-8.063h-.085l-2.801 8.063zm-4.873 7.39l.477-.14c.95-.279 1.174-.587 2.072-3.19l5.74-15.762h1.512l5.575 16.097c.754 2.183 1.12 2.632 1.902 2.855l.589.14v.309h-7.422V47l.645-.14c.925-.223 1.12-.587 1.12-1.147 0-.42-.167-1.15-.364-1.625l-1.233-3.807h-5.992l-1.091 3.192c-.366 1.09-.477 1.68-.477 2.13 0 .67.307 1.005 1.174 1.23l.757.167v.309h-4.984V47zM84.842 64.274v7.194c0 1.43.113 1.596 1.15 1.737l1.343.196v.309h-7.87V73.4l1.036-.196c.981-.222 1.12-.307 1.12-1.737v-14.92c0-1.455-.139-1.512-1.12-1.737l-1.036-.194v-.308h13.667l.28 5.32h-.365c-.532-1.347-.895-2.298-1.316-3.052-.755-1.43-1.203-1.651-3.893-1.651-1.484 0-2.239.055-2.996.25v8.454h1.401c2.38 0 2.743-.139 3.137-.979.307-.644.448-1.4.672-2.268h.307v7.166h-.307c-.224-.867-.392-1.51-.644-2.1-.392-1.007-.7-1.175-3.165-1.175h-1.4zM108.625 64.36c0-6.132-1.624-9.716-5.432-9.716-3.782 0-5.462 2.968-5.462 9.154 0 6.382 1.848 9.576 5.432 9.576 3.783 0 5.462-2.828 5.462-9.014m-14.283-.087c0-7.39 4.425-10.245 8.906-10.245 4.986 0 8.765 3.22 8.765 9.856 0 7.362-4.423 10.105-8.905 10.105-4.985 0-8.766-3.163-8.766-9.716M114.197 67.577V56.548c0-1.456-.14-1.512-1.12-1.736l-1.064-.195v-.308h7.533v.308l-1.007.195c-1.036.224-1.149.309-1.149 1.736v11.198c0 3.555 1.597 5.038 5.07 5.038 3.387 0 4.76-1.761 4.76-5.207V57.08c0-1.569-.055-1.988-1.148-2.213l-1.288-.25v-.308h5.572v.308l-1.093.25c-.895.199-1.062.589-1.062 2.158v10.832c0 3.444-1.82 6.133-6.75 6.133-4.565 0-7.254-1.71-7.254-6.413M133.381 56.351h-.085v14.586c0 1.708.113 1.905 1.176 2.212l1.093.252v.308h-5.209v-.308l1.065-.252c.896-.224 1.09-.532 1.09-2.183V56.548c0-1.26-.223-1.54-1.12-1.736l-.98-.195v-.309h5.377l9.241 14.166h.085V57.08c0-1.651-.112-1.988-1.146-2.213l-1.206-.25v-.309h5.237v.309l-1.008.25c-.924.225-1.094.617-1.094 2.158v16.797h-1.09l-11.426-17.47zM163.087 64.36c0-6.58-1.792-9.406-6.413-9.406-1.202 0-2.1.026-2.744.222v15.79c0 1.763.308 2.126 2.8 2.126 4.93 0 6.357-3.609 6.357-8.732zm-14.534 9.04l1.036-.194c.98-.224 1.12-.28 1.12-1.736V56.548c0-1.456-.14-1.512-1.12-1.736l-1.036-.195v-.309h8.57c5.238 0 9.352 2.409 9.352 9.49 0 6.552-3.919 9.911-9.55 9.911h-8.372v-.308zM169.398 66.012h5.517l-2.632-8.064h-.084l-2.801 8.064zm-4.874 7.39l.477-.142c.952-.277 1.177-.586 2.073-3.19l5.74-15.762h1.513l5.574 16.098c.756 2.183 1.12 2.632 1.902 2.854l.59.141v.309h-7.423V73.4l.645-.141c.924-.222 1.121-.586 1.121-1.146 0-.42-.168-1.15-.364-1.624l-1.232-3.808h-5.993l-1.093 3.192c-.363 1.09-.477 1.681-.477 2.13 0 .67.309 1.005 1.177 1.229l.757.168v.309h-4.987V73.4zM189.383 54.925V71.47c0 1.43.084 1.513 1.203 1.736l1.038.196v.308h-7.674v-.308l1.063-.196c1.066-.223 1.176-.28 1.176-1.736V54.925h-.923c-2.464 0-2.83.504-3.417 1.765-.447.894-.924 2.07-1.454 3.385h-.337l.308-5.767h14.842l.28 5.767h-.337a40.906 40.906 0 0 0-1.398-3.385c-.59-1.261-.983-1.765-3.417-1.765h-.953zM196.083 73.401l1.064-.196c.98-.222 1.12-.28 1.12-1.737v-14.92c0-1.455-.14-1.512-1.12-1.737l-1.064-.194v-.31h7.56v.31l-1.035.194c-1.035.225-1.15.309-1.15 1.736v14.921c0 1.43.115 1.515 1.15 1.737l1.034.196v.309h-7.56V73.4zM217.926 64.36c0-6.132-1.625-9.716-5.433-9.716-3.782 0-5.462 2.968-5.462 9.154 0 6.382 1.848 9.576 5.433 9.576 3.782 0 5.462-2.828 5.462-9.014m-14.283-.087c0-7.39 4.425-10.245 8.906-10.245 4.985 0 8.766 3.22 8.766 9.856 0 7.362-4.425 10.105-8.906 10.105-4.986 0-8.766-3.163-8.766-9.716"/>
        <g transform="translate(220.621 54.18)">
            <mask id="b" fill="#fff">
                <use xlink:href="#a"/>
            </mask>
            <path fill="#020303" d="M3.72 2.17h-.087v14.587c0 1.708.114 1.904 1.176 2.211l1.094.252v.309H.695v-.309l1.064-.252c.894-.223 1.091-.532 1.091-2.183V2.367c0-1.259-.224-1.539-1.121-1.736L.749.436V.128h5.376l9.242 14.166h.085V2.899c0-1.65-.112-1.987-1.148-2.212L13.1.437v-.31h5.237v.31l-1.01.25c-.924.225-1.092.616-1.092 2.157v16.798h-1.091L3.719 2.17z" mask="url(#b)"/>
        </g>
        <mask id="d" fill="#fff">
            <use xlink:href="#c"/>
        </mask>
        <path fill="#020303" d="M60.774 12.479h5.357V5.953h-5.357v6.526zm-8.142 0h5.357V5.953h-5.357v6.526zm17.39-6.733L68.17 4.322l-1.112.89h-6.284V.701a.866.866 0 0 0 .15-.337l-.15-.018L57.989 0v5.211h-6.683l-1.46-.693V15.544h.223c.018 0 .036-.006.054-.006.857-.06 2.509-.457 2.509-.457V13.22h5.357v10.36l2.785 1.53V13.22h5.357v1.86s2.081.504 2.785.464l-.002-.016.023.016V6.612l1.085-.866zM50.3 42.726v-6.32h5.996c.346 0 .568-.124.643-.395-.768-.742-2.004-1.706-2.004-1.706l-1.088 1.36h-3.546v-6.028c1.982-.243 4.532-.767 6.416-1.366.395.174.642.149.864 0l-1.458-1.507c-1.915.935-4.17 1.732-6.064 2.277l-2.693-1.618V43.53l.694 1.502c.126-.048.25-.148.397-.296 3.612-1.287 6.851-2.597 8.777-3.361l-.098-.42c-2.49.658-4.939 1.315-6.835 1.77M68.675 29.036v-.33l-2.936-1.75v1.736h-4.944l-2.914-1.736V47.31h2.935V29.435h4.923v13.247c-.742-.012-3.878-.27-3.878-.27v.42c1.36.15 2.2.371 2.646.619.396.173.57.544.667.964 2.433-.084 3.5-1.353 3.5-1.353V29.036zM18.146 73.695H12.62v-3.5h4.042c.34 0 .534-.12.609-.39-.658-.655-1.752-1.482-1.752-1.482l-.924 1.143H12.62v-2.894H9.732v2.894H5.037l.168.729h4.527v3.5H1.168l.218.708h19.216c.34 0 .583-.122.632-.39-.754-.705-2.02-1.677-2.02-1.677l-1.068 1.36z" mask="url(#d)"/>
        <path fill="#020303" d="M8.027 64.676h6.298v-2.357H8.027v2.357zm0-6.079h6.298v-2.236H8.027v2.236zm0 3.015h6.298v-2.286H8.027v2.286zm7.345 3.767h6.277c.34 0 .582-.095.656-.363-.802-.754-2.018-1.702-2.018-1.702l-1.12 1.362h-1.954v-8.315h3.461c.342 0 .56-.121.634-.39-.73-.706-1.947-1.628-1.947-1.628l-1.045 1.288h-1.103v-2.798h-2.888v2.798H8.027v-2.798H5.141v2.798H1.216l.196.73h3.73v8.315H.096l.22.703h4.824s-.903 2.748-3.522 4.723c-.52.354-1.059.688-1.619.992l.243.437c3.357-1.456 6.154-3.523 7.881-6.152h6.494c1.51 2.555 4.135 4.696 6.861 5.74.145-.584.534-.923 1.118-1.093l.072-.268c-2.578-.754-5.69-2.358-7.297-4.379zM42.7 73.748h-6.203v-7.344h7.784c.316 0 .56-.124.632-.389-.778-.68-2.02-1.63-2.02-1.63l-1.092 1.289h-5.304v-3.891h3.82c.34 0 .558-.12.633-.388-.756-.706-1.922-1.531-1.922-1.531l-1.046 1.19h-9.025l.171.729h4.481v3.89h-8.08l.193.731h7.887v7.344h-9.225l.22.68h20.65c.34 0 .582-.123.657-.39-.826-.705-2.116-1.701-2.116-1.701l-1.095 1.41z" mask="url(#d)"/>
        <path fill="#020303" d="M39.389 71.42l2.789-3.02a.643.643 0 0 0 .205-.222l-2.093-.922c-.802 1.994-1.846 4.157-2.674 5.494l.342.22c.463-.436.95-.968 1.43-1.55M32.3 72.746l-.479-.824c-.727-1.311-1.541-3.043-2.195-4.667l-2.092.924a.663.663 0 0 0 .204.22l2.79 3.02a16.85 16.85 0 0 0 1.432 1.55l.341-.22-.001-.003zM46.508 60.864s-1.796-.152-4.466-1.716c-.072-.045-.148-.084-.218-.127-.065-.04-.133-.087-.198-.127-.298-.186-.585-.38-.87-.574-1.374-.958-2.909-2.27-4.515-4.081-.04-.05-.083-.102-.12-.15.8-.886 1.262-1.461 1.262-1.461l-3.652.21s-2.82 5.788-8.638 9.533c-.091.058-.18.113-.27.168-.349.218-.702.43-1.07.63l.193.391c1.552-.74 3.132-1.71 4.638-2.791l-.093.095c3.032-2.062 5.619-4.607 7.21-6.318.13.217.263.436.41.654v.018l.023.018c2.008 2.94 5.4 5.718 8.974 7.472.146-.488.681-.877 1.29-.972l.047-.365.063-.507zM65.84 65.546H49.058l.221.73h19.166c.34 0 .584-.124.657-.389-.803-.752-2.117-1.75-2.117-1.75l-1.143 1.409zM61.973 68.61l-.268.194c1.046.972 2.409 2.312 3.48 3.624-5.134.291-9.9.558-12.77.655.656-.401 1.328-.85 1.988-1.324l5.882-3.91-.293-.173.006-.004-2.087-1.225-2.278 2.75c-1.325 1.401-2.907 2.828-4.263 3.617-.196.1-.632.197-.632.197l.752 1.846c.17-.049.34-.17.463-.363 5.546-.56 10.361-1.12 13.62-1.556.535.681.972 1.337 1.24 1.92 1.826 1.07 2.531-2.698-4.84-6.247M65.232 61.534c-.802-.754-2.091-1.726-2.091-1.726l-1.096 1.384H52.95l.195.73H64.6c.342 0 .585-.12.632-.388" mask="url(#d)"/>
        <path fill="#020303" d="M70.49 60.832s-1.796-.15-4.466-1.715c-.072-.045-.146-.083-.218-.127-.066-.04-.133-.088-.198-.128-.298-.186-.585-.38-.87-.574-1.374-.958-2.91-2.27-4.515-4.08-.04-.05-.082-.101-.12-.152.8-.885 1.262-1.459 1.262-1.459l-3.652.21s-2.82 5.787-8.638 9.533c-.091.057-.18.114-.27.169-.349.217-.702.429-1.07.629l.193.39c1.554-.74 3.132-1.71 4.638-2.79l-.093.094c3.034-2.06 5.619-4.606 7.21-6.318.13.219.263.438.41.655v.017l.023.02c2.008 2.938 5.4 5.716 8.974 7.47.148-.486.681-.875 1.29-.972l.047-.364h-.001l.064-.508z" mask="url(#d)"/>
    </g>
</svg>
