<svg xmlns="http://www.w3.org/2000/svg" xmlns:xlink="http://www.w3.org/1999/xlink" width="22" height="48" viewBox="0 0 22 48">
    <defs>
        <path id="a" d="M.133.234h5.32v2.438H.133z"/>
        <path id="c" d="M.174.04h3.917v5.348H.174z"/>
        <path id="e" d="M.217.058h8.655v8.258H.217z"/>
        <path id="g" d="M0 .17h4.627v3.356H0z"/>
    </defs>
    <g fill="none" fill-rule="evenodd">
        <path fill="#AD7984" d="M18.278 22.296a.23.23 0 0 1-.022.12c-.023.039-.067.06-.11.072-.248.075-.51-.05-.738-.173-.307-.167-.624-.35-.812-.647-.14-.221-.195-.486-.227-.746a5.101 5.101 0 0 1-.008-1.182c.034-.318.101-.637.257-.915.392-.7 1.462-.87 1.635.049.203 1.072.025 2.332.025 3.422"/>
        <path fill="#DDC9BC" d="M9.09 39.187c.05.182.095.402-.03.543-.08.09-.207.117-.325.14l-.389.074a.46.46 0 0 1-.226.004c-.108-.035-.173-.144-.227-.245-.373-.7-.653-1.448-.93-2.192-.53-1.424-1.058-2.85-1.525-4.295-.319-.989-.61-1.986-.872-2.992.518-.163 1.014.435 1.552.366.254-.033.44-.205.658-.32.332-.178.38-.205.48.153.187.683.216 1.451.338 2.152a67.776 67.776 0 0 0 1.496 6.612"/>
        <path fill="#F0DDCE" d="M6.268 33.89c-.383.968-.94 1.853-1.5 2.728-.418.654-.843 1.309-1.366 1.88-.128.14-.263.276-.361.439-.144.238-.2.518-.317.77-.117.253-.328.494-.602.512-.166.01-.325-.065-.476-.137-.259-.125-.56-.318-.54-.607a.738.738 0 0 1 .11-.294l2.155-3.948c.291-.533.587-1.081.68-1.683.082-.533 0-1.077-.101-1.606-.137-.72-.31-1.433-.544-2.126l2.391.105c.494.022 1.165.015 1.256.652.06.418-.226.901-.303 1.305-.131.692-.22 1.348-.482 2.01M8.032 4.622c.099.413.09.843.079 1.268-.006.246-.013.497-.091.731-.07.209-.192.394-.327.567a4.14 4.14 0 0 1-2.422 1.496c-.66-.184-1.42-.458-1.626-1.12-.176-.565.143-1.161.504-1.628a7.446 7.446 0 0 1 2.046-1.818c.897-.539 1.537-.742 1.837.504"/>
        <g transform="translate(16.44 44.269)">
            <mask id="b" fill="#fff">
                <use xlink:href="#a"/>
            </mask>
            <path fill="#0D172C" d="M4.369.287c.423.01.951.105 1.064.518.055.2-.015.412-.089.606-.085.226-.183.459-.368.612-.213.177-.503.216-.778.248l-3.36.394c-.08.009-.165.017-.235-.024-.066-.04-.101-.114-.13-.186C.31 2.068-.035 1.227.226.848.376.632 1.182.453 1.444.385 2.375.143 3.416.257 4.369.287" mask="url(#b)"/>
        </g>
        <g transform="translate(9.912 42.31)">
            <mask id="d" fill="#fff">
                <use xlink:href="#c"/>
            </mask>
            <path fill="#0D172C" d="M3.452 3.59c.185.267.422.499.555.795.132.296.124.695-.131.893-.33.255-.8.019-1.137-.227-.836-.612-1.633-1.303-2.215-2.165-.195-.288-.37-.616-.348-.963.018-.3.18-.568.336-.823l.547-.892c.055-.089.139-.19.24-.163.048.013.083.055.116.094.9 1.112 1.345 2.224 2.037 3.452" mask="url(#d)"/>
        </g>
        <path fill="#1D2D33" d="M13.502 32.318c.359.602.85 1.125 1.13 1.77.216.5.295 1.049.37 1.59l1.333 9.47a4.27 4.27 0 0 0 1.695-.472c-.08-3.214-.163-6.45-.825-9.595-.538-2.555-1.475-5.181-3.072-7.264-1.002-1.305-1.421-.844-1.448.63-.023 1.333.123 2.707.817 3.87"/>
        <path fill="#114759" d="M19.04 35.226c-.053.681-.137 1.383-.47 1.977-.39.694-1.072 1.159-1.703 1.638a19.818 19.818 0 0 0-4.414 4.663c-.59.304-1.301-.352-1.328-1.02-.026-.67.38-1.268.768-1.81l1.932-2.702c.64-.895 1.287-1.801 1.698-2.825.344-.859.507-1.86.119-2.7-.271-.587-.775-1.021-1.207-1.5-1.823-2.015-2.416-5.087-1.477-7.65-.078.213 5.235 3.354 5.6 4.066.501.979.437 2.711.507 3.799a28.79 28.79 0 0 1-.025 4.064"/>
        <path fill="#EADEC7" d="M11.291 22.53c.047.473.122.954.345 1.371.222.418.618.767 1.084.817a8.647 8.647 0 0 1-.035-3.532c.175-.91.845-2.177-.246-2.682-2.094-.97-1.241 3.073-1.148 4.027"/>
        <path fill="#AD7984" d="M18.95 13.153c.723.77 1.443 1.68 1.442 2.743 0 .304-.066.616-.242.862-.173.24-.435.397-.685.554-.765.482-1.515 1.076-1.872 1.914-.357.838-.183 1.966.591 2.433.332.2.767.289.955.63.122.222.103.491.081.743l-.448 5.106a16.556 16.556 0 0 0-5.702-3.606c-.406-.152-.861-.325-1.043-.723-.102-.223-.097-.479-.09-.725.014-.42.455-4.263.251-4.38-.543-.314-.484-1.107-.412-1.736.147-1.29.037-2.614.367-3.867.108-.408.264-.809.513-1.147.477-.653 1.266-1.025 2.063-1.11 2.048-.217 2.952.945 4.231 2.309"/>
        <path fill="#EADEC7" d="M15.83 8.15c.031-.1.054-.193.067-.269.088-.475.068-.964.109-1.446.037-.437.125-.87.262-1.288.042-.128.09-.257.17-.363.1-.131.244-.22.39-.297.76-.4 1.546-.414 2.381-.42.169 0 .346 0 .492.086.17.1.26.295.336.48.557 1.363 1.406 3.676.31 4.932-.461.53-1.34.435-1.869.896-1.029.9-.894 3.058-2.98 2.25-1.309-.508-.91-2.463-.6-3.494.466.064.79-.594.933-1.067"/>
        <path fill="#4D5763" d="M20.26 3.432c-.024-.381-.203-.774-.538-.952-.23-.123-.501-.13-.761-.134l-3.393-.056c-.169-.003-.341-.005-.5.05-.358.126-.56.502-.699.859-.544 1.4-.617 2.943-.51 4.443.047.65.18 1.388.732 1.723.404.246.955.182 1.323-.116.368-.299.551-.8.509-1.275-.038-.424-.236-.819-.282-1.242-.047-.422.137-.934.549-1.018.138-.028.287-.003.42-.054.103-.039.184-.12.267-.193.514-.461 1.129-.677 1.799-.766.196-.026.636.003.804-.124.262-.2.302-.815.28-1.145"/>
        <path fill="#8A86AD" d="M7.216 12.17c.13 1.607-1.415 3.012-1.215 4.611.158 1.26 1.327 2.112 1.896 3.243.578 1.149.502 2.506.472 3.794-.056 2.36.089 4.724.431 7.058-1.712.236-3.47.132-5.143-.303-.935-.244-1.942-.68-2.307-1.585-.17-.417-.176-.88-.18-1.331l-.052-5.344c-.004-.346-.005-.701.12-1.022.145-.37.444-.657.619-1.014.269-.545.222-1.189.169-1.796l-.473-5.41c-.083-.95-.13-2.017.488-2.736 1.408-1.638 5.006-.241 5.175 1.835"/>
        <path fill="#F0DDCE" d="M7.329 13c.468.415.591 1.096.645 1.724.113 1.336.039 2.686.215 4.014.177 1.328.646 2.683 1.64 3.567.653.582 1.59 1.094 1.588 1.975-.001.242-.095.499-.297.628-.362.231-.826-.04-1.155-.316-.85-.718-1.605-1.542-2.357-2.364-.408-.447-.822-.9-1.105-1.438-.268-.51-.409-1.077-.534-1.64-.334-1.516-.904-3.505-.726-5.065.109-.961 1.05-2.006 2.086-1.086M.562 13.346c-.109.173-.12.39-.127.596L.396 15.07c-.036 1.087-.063 2.224.4 3.206.267.566.751 1.088 1.368 1.153.062.006-.421-3.794-.454-4.131-.046-.464.209-1.702.028-2.057-.198-.388-.953-.25-1.176.105"/>
        <path fill="#4C3E25" d="M5.232 10.111c-.006.795-.013 1.593-.135 2.379a8.176 8.176 0 0 1-.436 1.65c-.22.578-.531 1.16-1.058 1.476-.528.315-1.313.25-1.635-.277-.103-.17-.15-.37-.185-.566-.215-1.223-.013-2.476-.002-3.719.007-.719-.05-1.445.079-2.153.129-.707.48-1.416 1.101-1.765.458-.257 2.044-.597 2.29.065.127.344-.003.95-.006 1.313l-.013 1.597"/>
        <g transform="translate(0 .187)">
            <mask id="f" fill="#fff">
                <use xlink:href="#e"/>
            </mask>
            <path fill="#116B60" d="M8.865 1.918c.067 1.08-.323 2.156-.943 3.037-.62.881-1.458 1.584-2.35 2.18-1.278.854-2.876 1.523-4.314.992C.754 7.941.26 7.542.22 7.001c-.04-.518.336-.962.688-1.34 1.42-1.53 2.857-3.066 4.551-4.292C5.981.993 6.733.073 7.41.058c.946-.022 1.407 1.067 1.456 1.86" mask="url(#f)"/>
        </g>
        <path fill="#141311" d="M5.35.698a.479.479 0 0 0-.17-.19.41.41 0 0 0-.25-.022c-.31.046-.6.18-.884.313C3.018 1.277 1.938 1.8 1.31 2.754a.479.479 0 0 0-.102.262c.002.104.064.196.125.28l1.48 2.08a.225.225 0 0 0 .085.083c.039.017.083.01.124.003a5.047 5.047 0 0 0 2.754-1.513c.341-.362.82-.861.734-1.35-.103-.58-.85-1.392-1.16-1.9"/>
        <g transform="translate(0 39.126)">
            <mask id="h" fill="#fff">
                <use xlink:href="#g"/>
            </mask>
            <path fill="#41314C" d="M3.102 1.853c.132.247.249.541.507.645.287.115.663-.05.898.154.223.195.111.6-.14.756-.252.155-.57.13-.861.08A6.672 6.672 0 0 1 .428 2.082c-.177-.145-.355-.313-.41-.537-.044-.178-.002-.368.066-.538.151-.38.454-.72.848-.813.533-.124.717.249 1.045.553.414.382.841.576 1.125 1.106" mask="url(#h)"/>
        </g>
        <path fill="#41314C" d="M10.38 39.182c.201-.077.404-.163.57-.304.135-.115.25-.269.42-.315.035-.01.075-.013.104.009.026.02.036.054.044.085.084.356.117.724.095 1.088a.84.84 0 0 1-.06.302c-.083.178-.264.283-.436.373-.363.191-.734.365-1.113.52-.32.133-.651.253-.996.285-.345.032-.71-.033-.988-.242a.377.377 0 0 1-.123-.137.442.442 0 0 1-.032-.152c-.026-.32-.11-.682.157-.884.153-.116.443-.14.63-.176.59-.116 1.161-.237 1.727-.452"/>
        <path fill="#EADEC7" d="M20.855 28.885a.655.655 0 0 1-.035.231c-.105.256-.491.268-.7.088-.208-.18-.284-.468-.349-.737-.385-1.591-.797-3.192-1.534-4.65-.099-.197-.205-.393-.248-.61a2.208 2.208 0 0 1-.024-.494c.036-1.354-.038-2.765.108-4.11.066-.603.986-1.657 1.75-1.24.588.32.344 2.593.402 3.237.115 1.31.284 2.613.418 3.921.148 1.45.259 2.906.212 4.364"/>
        <path fill="#AD7984" d="M20.452 19.226a.366.366 0 0 1-.015.175c-.037.085-.13.126-.215.16a47.53 47.53 0 0 1-1.884.706c-.125.043-.272.084-.38.006a.413.413 0 0 1-.116-.165 8.535 8.535 0 0 1-.57-1.593.748.748 0 0 1-.032-.234c.016-.21.192-.366.359-.493.355-.27.731-.522 1.01-.872.214-.268.366-.59.616-.825.181-.17.548-.357.797-.226.294.154.216.534.24.846l.19 2.515"/>
    </g>
</svg>
