<svg xmlns="http://www.w3.org/2000/svg" xmlns:xlink="http://www.w3.org/1999/xlink" width="16" height="43" viewBox="0 0 16 43">
    <defs>
        <path id="a" d="M.085.224h3.69V7.28H.085z"/>
    </defs>
    <g fill="none" fill-rule="evenodd">
        <path fill="#090A01" d="M8.51 40.862c.033.133.072.273.17.369.184.18.484.127.732.058.44-.123.878-.258 1.312-.404.22-.074.458-.165.575-.368.118-.205.072-.478-.067-.67-.138-.192-.353-.315-.573-.397-.308-.115-.67-.185-.85-.461a.996.996 0 0 1-.132-.41c-.066-.458-.027-.924-.052-1.385a5 5 0 0 0-.395-1.69c.05.12-1.102.365-1.178.456-.24.285-.073 1.115-.054 1.472.061 1.156.233 2.307.512 3.43"/>
        <g transform="translate(1.577 35.579)">
            <mask id="b" fill="#fff">
                <use xlink:href="#a"/>
            </mask>
            <path fill="#090A01" d="M1.973 4.585c-.227.46-.455 1.012-.21 1.462.182.337.615.64.461.99-.078.178-.294.26-.486.24-.192-.018-.366-.116-.533-.213C.746 6.799.251 6.476.119 5.958c-.143-.563.199-1.121.503-1.615a19.382 19.382 0 0 0 1.466-2.881c.175-.428.383-1.01.86-1.179.551-.195.866.106.824.643-.043.54-.645 1.324-.887 1.813l-.912 1.846" mask="url(#b)"/>
        </g>
        <path fill="#353535" d="M3.6 35.877c.012.187.029.388.14.533.135.176.367.22.58.241 1.242.122 2.492-.145 3.74-.107.627.02 1.251.117 1.879.135.092.003.191.001.263-.059.092-.076.106-.215.112-.339.048-.98.07-1.961.067-2.942-.279-.035-.561-.016-.842 0-1.468.084-2.94.103-4.41.058-.523-.016-1.428-.294-1.661.253-.209.487.098 1.692.132 2.227"/>
        <path fill="#060000" d="M13.212 27.724c.052.126.158.22.27.298.537.37 1.375.355 1.752-.18.186-.266.232-.604.263-.929.062-.645.461-3.572-.986-2.535-.496.356-1.505 2.841-1.299 3.346M.272 26.831c.037.322.098.67.336.888.282.258.745.235 1.055.012.827-.598.769-2.575-.102-3.132C-.003 23.598.178 26.01.272 26.83"/>
        <path fill="#EFB59C" d="M0 25.603c.272.219.693.14.963-.081.27-.222.425-.553.572-.872l1.873-4.074c.61 2.027.367 4.2.188 6.311a96.507 96.507 0 0 0-.346 7.905c1.968.124 3.95.007 5.89-.35.479-.087 1.008-.225 1.264-.643.18-.295.181-.663.181-1.01a33.604 33.604 0 0 1 2.231-12.016 11.55 11.55 0 0 1 .792 4.47 10.44 10.44 0 0 0 1.664-.745c.14-.078.284-.164.369-.3.088-.142.1-.316.11-.483a32.003 32.003 0 0 0-2.127-13.326c-.23-.59-.503-1.206-1.02-1.566-.612-.426-1.416-.397-2.157-.352-1.297.079-2.76.17-3.896.877-.877.545-1.157 1.83-1.619 2.72A56.158 56.158 0 0 0 0 25.604"/>
        <path fill="#15493B" d="M12.868 13.465c-.333 1.786-1.42 3.393-1.545 5.207-.04.576.031 1.19.37 1.654.341.465 1.007.718 1.512.448.591-.316.692-1.113.72-1.787l.106-2.45c.055-1.295.111-2.591.12-3.889.007-1.125.168-2.544-.19-3.627-.42-1.274-1.02-.246-1.02.605 0 1.281.165 2.568-.073 3.839"/>
        <path fill="#492317" d="M12.523.666c-.042-.2-.095-.42-.256-.544-.118-.09-.273-.114-.42-.12-1.082-.046-2.083.653-2.722 1.535-.639.881-.989 1.936-1.38 2.955a33.268 33.268 0 0 1-2.839 5.69c-.15.239-.304.482-.373.756-.108.43.008.887.198 1.287.791 1.657 2.985 2.457 4.642 1.692 1.123-.518 1.888-1.578 2.6-2.597.366-.524.733-1.053 1.013-1.63 1.354-2.785.13-6.185-.463-9.024"/>
    </g>
</svg>
