<svg xmlns="http://www.w3.org/2000/svg" xmlns:xlink="http://www.w3.org/1999/xlink" width="24" height="54" viewBox="0 0 24 54">
    <defs>
        <path id="a" d="M.13.05h1.574v3.252H.13z"/>
        <path id="c" d="M.14.151h8.223v6.7H.139z"/>
        <path id="e" d="M0 .066h11.403v25.468H0z"/>
        <path id="g" d="M2.614.247c-.082.047-.125.14-.16.228-.378.96-.422 2.02-.732 3.003C1.335 4.703.547 5.777.206 7.015c-.017.061-.032.13-.002.187.026.05.08.076.131.1L.8 7.52c.482.225.968.452 1.487.566.73.16 1.547.107 2.148.549.39.286.707.78 1.19.762.315-.012.607-.255.914-.19.139.03.255.117.377.188.327.19.721.263 1.095.203a.19.19 0 0 0 .098-.037c.035-.031.043-.083.048-.13.107-.978.148-1.962.122-2.945-.022-.865-.13-1.712-.217-2.57-.026-.263.113-.529.068-.773-.058-.318-.486-.558-.728-.724C6.046 1.493 4.51.882 2.991.278a.712.712 0 0 0-.25-.062.254.254 0 0 0-.127.03"/>
        <path id="i" d="M2.614.247c-.082.047-.125.14-.16.228-.378.96-.422 2.02-.732 3.003C1.335 4.703.547 5.777.206 7.015c-.017.061-.032.13-.002.187.026.05.08.076.131.1L.8 7.52c.482.225.968.452 1.487.566.73.16 1.547.107 2.148.549.39.286.707.78 1.19.762.315-.012.607-.255.914-.19.139.03.255.117.377.188.327.19.721.263 1.095.203a.19.19 0 0 0 .098-.037c.035-.031.043-.083.048-.13.107-.978.148-1.962.122-2.945-.022-.865-.13-1.712-.217-2.57-.026-.263.113-.529.068-.773-.058-.318-.486-.558-.728-.724C6.046 1.493 4.51.882 2.991.278a.712.712 0 0 0-.25-.062.254.254 0 0 0-.127.03"/>
        <path id="k" d="M2.614.247c-.082.047-.125.14-.16.228-.378.96-.422 2.02-.732 3.003C1.335 4.703.547 5.777.206 7.015c-.017.061-.032.13-.002.187.026.05.08.076.131.1L.8 7.52c.482.225.968.452 1.487.566.73.16 1.547.107 2.148.549.39.286.707.78 1.19.762.315-.012.607-.255.914-.19.139.03.255.117.377.188.327.19.721.263 1.095.203a.19.19 0 0 0 .098-.037c.035-.031.043-.083.048-.13.107-.978.148-1.962.122-2.945-.022-.865-.13-1.712-.217-2.57-.026-.263.113-.529.068-.773-.058-.318-.486-.558-.728-.724C6.046 1.493 4.51.882 2.991.278a.712.712 0 0 0-.25-.062.254.254 0 0 0-.127.03"/>
        <path id="m" d="M2.614.247c-.082.047-.125.14-.16.228-.378.96-.422 2.02-.732 3.003C1.335 4.703.547 5.777.206 7.015c-.017.061-.032.13-.002.187.026.05.08.076.131.1L.8 7.52c.482.225.968.452 1.487.566.73.16 1.547.107 2.148.549.39.286.707.78 1.19.762.315-.012.607-.255.914-.19.139.03.255.117.377.188.327.19.721.263 1.095.203a.19.19 0 0 0 .098-.037c.035-.031.043-.083.048-.13.107-.978.148-1.962.122-2.945-.022-.865-.13-1.712-.217-2.57-.026-.263.113-.529.068-.773-.058-.318-.486-.558-.728-.724C6.046 1.493 4.51.882 2.991.278a.712.712 0 0 0-.25-.062.254.254 0 0 0-.127.03"/>
        <path id="o" d="M2.614.247c-.082.047-.125.14-.16.228-.378.96-.422 2.02-.732 3.003C1.335 4.703.547 5.777.206 7.015c-.017.061-.032.13-.002.187.026.05.08.076.131.1L.8 7.52c.482.225.968.452 1.487.566.73.16 1.547.107 2.148.549.39.286.707.78 1.19.762.315-.012.607-.255.914-.19.139.03.255.117.377.188.327.19.721.263 1.095.203a.19.19 0 0 0 .098-.037c.035-.031.043-.083.048-.13.107-.978.148-1.962.122-2.945-.022-.865-.13-1.712-.217-2.57-.026-.263.113-.529.068-.773-.058-.318-.486-.558-.728-.724C6.046 1.493 4.51.882 2.991.278a.712.712 0 0 0-.25-.062.254.254 0 0 0-.127.03"/>
        <path id="q" d="M2.614.247c-.082.047-.125.14-.16.228-.378.96-.422 2.02-.732 3.003C1.335 4.703.547 5.777.206 7.015c-.017.061-.032.13-.002.187.026.05.08.076.131.1L.8 7.52c.482.225.968.452 1.487.566.73.16 1.547.107 2.148.549.39.286.707.78 1.19.762.315-.012.607-.255.914-.19.139.03.255.117.377.188.327.19.721.263 1.095.203a.19.19 0 0 0 .098-.037c.035-.031.043-.083.048-.13.107-.978.148-1.962.122-2.945-.022-.865-.13-1.712-.217-2.57-.026-.263.113-.529.068-.773-.058-.318-.486-.558-.728-.724C6.046 1.493 4.51.882 2.991.278a.712.712 0 0 0-.25-.062.254.254 0 0 0-.127.03"/>
        <path id="s" d="M2.614.247c-.082.047-.125.14-.16.228-.378.96-.422 2.02-.732 3.003C1.335 4.703.547 5.777.206 7.015c-.017.061-.032.13-.002.187.026.05.08.076.131.1L.8 7.52c.482.225.968.452 1.487.566.73.16 1.547.107 2.148.549.39.286.707.78 1.19.762.315-.012.607-.255.914-.19.139.03.255.117.377.188.327.19.721.263 1.095.203a.19.19 0 0 0 .098-.037c.035-.031.043-.083.048-.13.107-.978.148-1.962.122-2.945-.022-.865-.13-1.712-.217-2.57-.026-.263.113-.529.068-.773-.058-.318-.486-.558-.728-.724C6.046 1.493 4.51.882 2.991.278a.712.712 0 0 0-.25-.062.254.254 0 0 0-.127.03"/>
        <path id="u" d="M2.614.247c-.082.047-.125.14-.16.228-.378.96-.422 2.02-.732 3.003C1.335 4.703.547 5.777.206 7.015c-.017.061-.032.13-.002.187.026.05.08.076.131.1L.8 7.52c.482.225.968.452 1.487.566.73.16 1.547.107 2.148.549.39.286.707.78 1.19.762.315-.012.607-.255.914-.19.139.03.255.117.377.188.327.19.721.263 1.095.203a.19.19 0 0 0 .098-.037c.035-.031.043-.083.048-.13.107-.978.148-1.962.122-2.945-.022-.865-.13-1.712-.217-2.57-.026-.263.113-.529.068-.773-.058-.318-.486-.558-.728-.724C6.046 1.493 4.51.882 2.991.278a.712.712 0 0 0-.25-.062.254.254 0 0 0-.127.03"/>
        <path id="w" d="M2.614.247c-.082.047-.125.14-.16.228-.378.96-.422 2.02-.732 3.003C1.335 4.703.547 5.777.206 7.015c-.017.061-.032.13-.002.187.026.05.08.076.131.1L.8 7.52c.482.225.968.452 1.487.566.73.16 1.547.107 2.148.549.39.286.707.78 1.19.762.315-.012.607-.255.914-.19.139.03.255.117.377.188.327.19.721.263 1.095.203a.19.19 0 0 0 .098-.037c.035-.031.043-.083.048-.13.107-.978.148-1.962.122-2.945-.022-.865-.13-1.712-.217-2.57-.026-.263.113-.529.068-.773-.058-.318-.486-.558-.728-.724C6.046 1.493 4.51.882 2.991.278a.712.712 0 0 0-.25-.062.254.254 0 0 0-.127.03"/>
        <path id="y" d="M2.614.247c-.082.047-.125.14-.16.228-.378.96-.422 2.02-.732 3.003C1.335 4.703.547 5.777.206 7.015c-.017.061-.032.13-.002.187.026.05.08.076.131.1L.8 7.52c.482.225.968.452 1.487.566.73.16 1.547.107 2.148.549.39.286.707.78 1.19.762.315-.012.607-.255.914-.19.139.03.255.117.377.188.327.19.721.263 1.095.203a.19.19 0 0 0 .098-.037c.035-.031.043-.083.048-.13.107-.978.148-1.962.122-2.945-.022-.865-.13-1.712-.217-2.57-.026-.263.113-.529.068-.773-.058-.318-.486-.558-.728-.724C6.046 1.493 4.51.882 2.991.278a.712.712 0 0 0-.25-.062.254.254 0 0 0-.127.03"/>
        <path id="A" d="M2.614.247c-.082.047-.125.14-.16.228-.378.96-.422 2.02-.732 3.003C1.335 4.703.547 5.777.206 7.015c-.017.061-.032.13-.002.187.026.05.08.076.131.1L.8 7.52c.482.225.968.452 1.487.566.73.16 1.547.107 2.148.549.39.286.707.78 1.19.762.315-.012.607-.255.914-.19.139.03.255.117.377.188.327.19.721.263 1.095.203a.19.19 0 0 0 .098-.037c.035-.031.043-.083.048-.13.107-.978.148-1.962.122-2.945-.022-.865-.13-1.712-.217-2.57-.026-.263.113-.529.068-.773-.058-.318-.486-.558-.728-.724C6.046 1.493 4.51.882 2.991.278a.712.712 0 0 0-.25-.062.254.254 0 0 0-.127.03"/>
        <path id="C" d="M2.614.247c-.082.047-.125.14-.16.228-.378.96-.422 2.02-.732 3.003C1.335 4.703.547 5.777.206 7.015c-.017.061-.032.13-.002.187.026.05.08.076.131.1L.8 7.52c.482.225.968.452 1.487.566.73.16 1.547.107 2.148.549.39.286.707.78 1.19.762.315-.012.607-.255.914-.19.139.03.255.117.377.188.327.19.721.263 1.095.203a.19.19 0 0 0 .098-.037c.035-.031.043-.083.048-.13.107-.978.148-1.962.122-2.945-.022-.865-.13-1.712-.217-2.57-.026-.263.113-.529.068-.773-.058-.318-.486-.558-.728-.724C6.046 1.493 4.51.882 2.991.278a.712.712 0 0 0-.25-.062.254.254 0 0 0-.127.03"/>
        <path id="E" d="M2.614.247c-.082.047-.125.14-.16.228-.378.96-.422 2.02-.732 3.003C1.335 4.703.547 5.777.206 7.015c-.017.061-.032.13-.002.187.026.05.08.076.131.1L.8 7.52c.482.225.968.452 1.487.566.73.16 1.547.107 2.148.549.39.286.707.78 1.19.762.315-.012.607-.255.914-.19.139.03.255.117.377.188.327.19.721.263 1.095.203a.19.19 0 0 0 .098-.037c.035-.031.043-.083.048-.13.107-.978.148-1.962.122-2.945-.022-.865-.13-1.712-.217-2.57-.026-.263.113-.529.068-.773-.058-.318-.486-.558-.728-.724C6.046 1.493 4.51.882 2.991.278a.712.712 0 0 0-.25-.062.254.254 0 0 0-.127.03"/>
        <path id="G" d="M2.614.247c-.082.047-.125.14-.16.228-.378.96-.422 2.02-.732 3.003C1.335 4.703.547 5.777.206 7.015c-.017.061-.032.13-.002.187.026.05.08.076.131.1L.8 7.52c.482.225.968.452 1.487.566.73.16 1.547.107 2.148.549.39.286.707.78 1.19.762.315-.012.607-.255.914-.19.139.03.255.117.377.188.327.19.721.263 1.095.203a.19.19 0 0 0 .098-.037c.035-.031.043-.083.048-.13.107-.978.148-1.962.122-2.945-.022-.865-.13-1.712-.217-2.57-.026-.263.113-.529.068-.773-.058-.318-.486-.558-.728-.724C6.046 1.493 4.51.882 2.991.278a.712.712 0 0 0-.25-.062.254.254 0 0 0-.127.03"/>
        <path id="I" d="M2.614.247c-.082.047-.125.14-.16.228-.378.96-.422 2.02-.732 3.003C1.335 4.703.547 5.777.206 7.015c-.017.061-.032.13-.002.187.026.05.08.076.131.1L.8 7.52c.482.225.968.452 1.487.566.73.16 1.547.107 2.148.549.39.286.707.78 1.19.762.315-.012.607-.255.914-.19.139.03.255.117.377.188.327.19.721.263 1.095.203a.19.19 0 0 0 .098-.037c.035-.031.043-.083.048-.13.107-.978.148-1.962.122-2.945-.022-.865-.13-1.712-.217-2.57-.026-.263.113-.529.068-.773-.058-.318-.486-.558-.728-.724C6.046 1.493 4.51.882 2.991.278a.712.712 0 0 0-.25-.062.254.254 0 0 0-.127.03"/>
        <path id="K" d="M2.614.247c-.082.047-.125.14-.16.228-.378.96-.422 2.02-.732 3.003C1.335 4.703.547 5.777.206 7.015c-.017.061-.032.13-.002.187.026.05.08.076.131.1L.8 7.52c.482.225.968.452 1.487.566.73.16 1.547.107 2.148.549.39.286.707.78 1.19.762.315-.012.607-.255.914-.19.139.03.255.117.377.188.327.19.721.263 1.095.203a.19.19 0 0 0 .098-.037c.035-.031.043-.083.048-.13.107-.978.148-1.962.122-2.945-.022-.865-.13-1.712-.217-2.57-.026-.263.113-.529.068-.773-.058-.318-.486-.558-.728-.724C6.046 1.493 4.51.882 2.991.278a.712.712 0 0 0-.25-.062.254.254 0 0 0-.127.03"/>
        <path id="M" d="M2.614.247c-.082.047-.125.14-.16.228-.378.96-.422 2.02-.732 3.003C1.335 4.703.547 5.777.206 7.015c-.017.061-.032.13-.002.187.026.05.08.076.131.1L.8 7.52c.482.225.968.452 1.487.566.73.16 1.547.107 2.148.549.39.286.707.78 1.19.762.315-.012.607-.255.914-.19.139.03.255.117.377.188.327.19.721.263 1.095.203a.19.19 0 0 0 .098-.037c.035-.031.043-.083.048-.13.107-.978.148-1.962.122-2.945-.022-.865-.13-1.712-.217-2.57-.026-.263.113-.529.068-.773-.058-.318-.486-.558-.728-.724C6.046 1.493 4.51.882 2.991.278a.712.712 0 0 0-.25-.062.254.254 0 0 0-.127.03"/>
        <path id="O" d="M2.614.247c-.082.047-.125.14-.16.228-.378.96-.422 2.02-.732 3.003C1.335 4.703.547 5.777.206 7.015c-.017.061-.032.13-.002.187.026.05.08.076.131.1L.8 7.52c.482.225.968.452 1.487.566.73.16 1.547.107 2.148.549.39.286.707.78 1.19.762.315-.012.607-.255.914-.19.139.03.255.117.377.188.327.19.721.263 1.095.203a.19.19 0 0 0 .098-.037c.035-.031.043-.083.048-.13.107-.978.148-1.962.122-2.945-.022-.865-.13-1.712-.217-2.57-.026-.263.113-.529.068-.773-.058-.318-.486-.558-.728-.724C6.046 1.493 4.51.882 2.991.278a.712.712 0 0 0-.25-.062.254.254 0 0 0-.127.03"/>
        <path id="Q" d="M2.614.247c-.082.047-.125.14-.16.228-.378.96-.422 2.02-.732 3.003C1.335 4.703.547 5.777.206 7.015c-.017.061-.032.13-.002.187.026.05.08.076.131.1L.8 7.52c.482.225.968.452 1.487.566.73.16 1.547.107 2.148.549.39.286.707.78 1.19.762.315-.012.607-.255.914-.19.139.03.255.117.377.188.327.19.721.263 1.095.203a.19.19 0 0 0 .098-.037c.035-.031.043-.083.048-.13.107-.978.148-1.962.122-2.945-.022-.865-.13-1.712-.217-2.57-.026-.263.113-.529.068-.773-.058-.318-.486-.558-.728-.724C6.046 1.493 4.51.882 2.991.278a.712.712 0 0 0-.25-.062.254.254 0 0 0-.127.03"/>
        <path id="S" d="M2.614.247c-.082.047-.125.14-.16.228-.378.96-.422 2.02-.732 3.003C1.335 4.703.547 5.777.206 7.015c-.017.061-.032.13-.002.187.026.05.08.076.131.1L.8 7.52c.482.225.968.452 1.487.566.73.16 1.547.107 2.148.549.39.286.707.78 1.19.762.315-.012.607-.255.914-.19.139.03.255.117.377.188.327.19.721.263 1.095.203a.19.19 0 0 0 .098-.037c.035-.031.043-.083.048-.13.107-.978.148-1.962.122-2.945-.022-.865-.13-1.712-.217-2.57-.026-.263.113-.529.068-.773-.058-.318-.486-.558-.728-.724C6.046 1.493 4.51.882 2.991.278a.712.712 0 0 0-.25-.062.254.254 0 0 0-.127.03"/>
    </defs>
    <g fill="none" fill-rule="evenodd">
        <g transform="translate(19.034 50.67)">
            <mask id="b" fill="#fff">
                <use xlink:href="#a"/>
            </mask>
            <path fill="#F9D1E9" d="M1.213 1.208c.154.416.362.814.46 1.246.062.28.049.63-.196.781-.174.109-.402.07-.591-.01a.793.793 0 0 1-.324-.23c-.11-.143-.14-.33-.167-.509C.275 1.678.153.867.13.05c.002.063.828-.07.907.085.056.107.002.39.023.52a3 3 0 0 0 .153.553" mask="url(#b)"/>
        </g>
        <path fill="#F9D1E9" d="M17.34 53.126c0 .029-.003.06-.023.08-.02.019-.05.02-.076.022l-.17.008c-.056.002-.116.003-.16-.03a.241.241 0 0 1-.065-.09l-.643-1.279a.592.592 0 0 1-.082-.253c0-.09.052-.186.14-.205.048-.01.1.004.146-.011.089-.028.117-.137.13-.228.046-.32.079-.64.097-.962-.01.157.567.326.663.407.173.145.126.342.119.552l-.075 1.99"/>
        <path fill="#EFC4B9" d="M20.307 50.567c-.01.122-.03.263-.133.33a.407.407 0 0 1-.209.045l-.573.023c-.091.003-.191.005-.266-.049-.121-.087-.115-.266-.097-.414.14-1.149.21-2.305.213-3.462.002-1.183-.212-2.376-.197-3.547.537-.093 1.47-.016 1.753.553.197.397-.02.955-.067 1.366-.196 1.71-.283 3.44-.424 5.155M17.669 50.245c-.015.162-.045.35-.189.43-.083.045-.185.04-.28.033l-.42-.03c-.077-.005-.16-.012-.222-.06-.085-.065-.104-.181-.114-.287-.074-.795.025-1.595.105-2.39.169-1.671.254-3.35.257-5.03 0-.063 1.34.005 1.438.489.13.641-.117 1.545-.172 2.196-.13 1.55-.265 3.1-.403 4.649M22.759 42.018c-.01.204-.05.454-.244.52a.41.41 0 0 1-.225-.004c-.59-.143-.916-.78-1.035-1.375-.098-.486-.11-.985-.11-1.48 0-1.416.094-2.832.281-4.235.067-.5.145-.998.249-1.49.083-.397.243-.856.635-.966.464-.132 1.008.359 1.155.775.171.483-.106 1.29-.168 1.791a82.472 82.472 0 0 0-.538 6.464M15.417 31.046c-.016.21-.032.451.119.6.137.135.354.133.547.123.025.298.036.598.03.897a.59.59 0 0 1-.047.266.576.576 0 0 1-.205.197c-.17.114-.353.22-.555.26-.202.04-.429.001-.577-.141-.192-.185-.205-.484-.204-.75l.007-2.755c0-.277-.002-.617.175-.849.195-.256.388-.252.505.018.264.61.253 1.486.205 2.134"/>
        <g transform="translate(15.448 28.384)">
            <mask id="d" fill="#fff">
                <use xlink:href="#c"/>
            </mask>
            <path fill="#EADAE4" d="M7.505.873c.144.094.288.196.389.335.142.196.184.445.218.684.162 1.118.246 2.248.25 3.377.001.057 0 .117-.03.165-.041.064-.122.087-.196.104-.464.11-.98.236-1.24.635-.056.086-.105.19-.2.23a.38.38 0 0 1-.21.005c-.814-.142-1.61-.633-2.413-.433-.428.106-.781.396-1.164.614-.383.219-.863.367-1.258.17L1.66 5.39c0-.181 0-.368-.07-.536-.07-.167-.23-.31-.412-.305-.146.005-.295.102-.43.044-.076-.034-.124-.11-.165-.182a4.956 4.956 0 0 1-.384-.856c-.04-.118-.076-.244-.05-.366.03-.146.143-.258.25-.362.37-.358.748-.722 1.207-.957.257-.132.536-.222.778-.378.207-.133.381-.312.587-.447C3.5.698 4.178.674 4.81.737c.63.062 1.263.199 1.893.13-.052.006-.395-.402-.454-.455-.146-.13-.356-.26-.07-.26.374-.002 1.024.52 1.326.72" mask="url(#d)"/>
        </g>
        <path fill="#FABDD6" d="M17.929 29.54a.258.258 0 0 0-.03-.119c-.04-.062-.123-.078-.196-.088-.212-.03-.475-.04-.588.143-.059.095-.054.216-.048.328l.083 1.428c.03.494.059.994.198 1.47.046.157.11.318.24.417.18.136.839.295.947.007.076-.201-.292-.785-.347-.998-.216-.844-.186-1.726-.26-2.588M22.594 30.09a.307.307 0 0 1 .078-.139c.073-.062.182-.043.275-.02.14.034.304.088.348.226.027.083 0 .173-.027.256a10.956 10.956 0 0 1-.816 1.874c-.15.273-.479 1.175-.872.832-.42-.368-.028-.89.173-1.229.339-.57.621-1.174.84-1.8"/>
        <path fill="#9F7072" d="M9.4 48.135c.092.163.186.335.186.522 0 .185-.094.355-.185.517l-.45.797c-.145.257-.29.514-.467.75-.212.285-.466.536-.719.786-.123.121-.266.251-.439.25-.221-.002-.376-.214-.477-.41a4.054 4.054 0 0 1-.34-.929c-.032-.136-.057-.282-.01-.413.042-.115.133-.204.22-.29l1.313-1.27c.191-.184.339-.33.558-.41.142-.05.41-.184.56-.149.118.028.19.144.25.249zM4.207 50.952c.078.152.08.33.06.5-.037.305-.136.598-.238.888-.069.195-.14.393-.266.557-.154.201-.376.336-.594.467-.299.18-.633.367-.976.302-.19-.036-.356-.146-.517-.253-.35-.235-.73-.509-.82-.92-.06-.268.016-.545.097-.808.061-.2.126-.4.194-.6.021-.063.045-.129.097-.17.087-.069.213-.04.322-.015.547.127 1.026.03 1.566-.053.34-.052.876-.282 1.075.105"/>
        <g transform="translate(0 26.458)">
            <mask id="f" fill="#fff">
                <use xlink:href="#e"/>
            </mask>
            <path fill="#242355" d="M10.65 8.447c-.127.635-.272 1.267-.363 1.909-.19 1.346-.141 2.715-.223 4.072-.146 2.435-.712 4.826-1.382 7.173-.228.8-.5 1.646-1.147 2.17-.307.25-.73.413-1.102.278-.303-.11-.51-.392-.643-.685-.434-.965-.224-2.08-.053-3.124.62-3.8.594-7.706-.076-11.498-.393 1.685.182 3.519-.398 5.148-.168.472-.428.908-.583 1.384-.167.509-.208 1.05-.249 1.584-.116 1.532-.23 3.064-.341 4.597-.024.33-.047.661-.01.989.038.333.14.658.157.992.057 1.108-.98 2.147-2.091 2.096-.437-.02-.898-.216-1.092-.607-.212-.427-.052-.933-.022-1.409.035-.53-.098-1.056-.23-1.57l-.488-1.903C.162 19.451.009 18.851 0 18.24c-.007-.507.086-1.01.13-1.514.059-.655.037-1.313.026-1.97C.078 10.015.568 5.276 1.43.615c.047-.255.182-.577.44-.547.109.014.197.093.28.166 1.197 1.045 2.891 1.276 4.48 1.342 1.001.041 4.312-.238 4.689.948.242.764-.112 2.124-.2 2.915a35.366 35.366 0 0 1-.47 3.008" mask="url(#f)"/>
        </g>
        <path fill="#D8B8AD" d="M14.686 20.379c.112.512.225 1.026.259 1.548.028.435 0 .872.02 1.308.033.734.197 1.455.297 2.183a12.524 12.524 0 0 1-.003 3.417c-.04.28-.115.599-.367.728-.286.146-.65-.052-.803-.333-.153-.282-.157-.616-.174-.936a9.284 9.284 0 0 0-.108-1.008c-.277-1.693-1.015-3.27-1.527-4.907-.326-1.046-.56-2.118-.793-3.188l-.683-3.127c-.001-.004 1.634.084 1.787.106.479.07 1.084.05 1.283.51.232.536.276 1.255.401 1.827l.411 1.872"/>
        <path fill="#EABCB0" d="M7.983 3.575c.086-.16.196-.333.373-.372.16-.035.325.055.423.185.098.13.14.292.174.45.208.99.156 2.033-.15 2.996-.121.382-.31.782-.674.953-.284.132-.615.096-.926.056a.781.781 0 0 1-.265-.066c-.565-.292-.077-1.385.047-1.797a12.9 12.9 0 0 1 .998-2.405"/>
        <path fill="#D8B8AD" d="M7.76 7.741c.287.463.606.987.47 1.513A15.67 15.67 0 0 1 4.357 9.1a.5.5 0 0 1-.216-.071c-.131-.095-.142-.283-.137-.444.014-.578.055-1.156.122-1.73a.22.22 0 0 1 .03-.1c.024-.036.066-.054.107-.07.605-.235 1.59-.704 2.254-.547.638.15.938 1.113 1.244 1.604"/>
        <path fill="#24202C" d="M8.753 2.482c.17.265.345.595.2.875-.061.12-.174.206-.272.3-.915.877-.632 2.563-1.602 3.378-.48.403-1.152.482-1.778.464-.748-.02-1.537-.173-2.088-.678-.297-.274-.504-.633-.659-1.006-.46-1.112-.45-2.477.277-3.435.264-.348.606-.627.958-.886C4.556.928 5.676.245 6.676.276c1.007.032 1.617 1.492 2.077 2.206"/>
        <path fill="#F5D8EA" d="M9.399 9.46l1.054.893c1.393 1.18 2.844 2.442 3.443 4.163a5.14 5.14 0 0 1 .28 1.93l-2.708.116.002 2.646v.814l.005 8.698a23.25 23.25 0 0 1-8.808-1.258c-.278-.097-.57-.21-.744-.447-.239-.322-.187-.766-.133-1.162.495-3.616.27-7.327-.658-10.856C.764 13.592.28 12.183.34 10.733c.005-.127.016-.258.078-.368.073-.129.206-.21.334-.286l1.306-.776c.279-.166.562-.333.874-.42.316-.088.648-.09.976-.092 1.088-.006 2.211.07 3.296-.018.325-.026.607-.149.935-.08.478.1.9.461 1.26.767"/>
        <path fill="#201924" d="M5.019 11.966l-.1-.064.015-.05c.042-.144.108-.295.243-.361a.581.581 0 0 1 .293-.036c.215.014.452.054.585.222.111.142.118.336.126.516.002.03.007.064.014.1a1.062 1.062 0 0 1-.39.026c-.287-.036-.542-.197-.786-.353m-2.063-.63c.166.283.35.592.294.913-.056.311-.32.534-.524.776-.653.774-.74 1.863-.796 2.874l-.2 3.564c-.062 1.09-.122 2.189.02 3.272.141 1.082.5 2.161 1.196 3.005.496.601 1.141 1.06 1.778 1.51.18.128.365.258.576.324.296.092.617.05.92-.019 1-.227 1.943-.752 2.603-1.536.607-.72.955-1.663.919-2.6.159.003.286-.127.39-.248l1.132-1.303c.008-.01.015-.02.023-.028.068.762.16 1.524.32 2.273.033.151.073.31.179.422.106.113.302.156.416.05a.14.14 0 0 0 .044-.07c.01-.041-.008-.084-.025-.124a6.225 6.225 0 0 1-.472-2.248c-.008-.325-.016-.69.067-1.005.092-.345.276-.586.21-.97-.016-.093-.064-.2-.157-.21-.097-.01-.164.09-.21.176a6.734 6.734 0 0 1-1.496 1.885c-.164.144-.408.278-.575.449-.078-.303-.168-.603-.237-.908-.16-.7-.2-1.419-.24-2.135l-.114-2.042c-.074-1.324-.148-2.65-.142-3.977 0-.163-.004-.343-.116-.461-.115-.123-.302-.135-.466-.172-.165-.038-.348-.152-.336-.32.006-.092.07-.167.132-.236l1.458-1.633c.223-.25 1.229-1.206.262-1.27-.263-.017-.504.136-.716.293a7.688 7.688 0 0 0-1.472 1.437c-.237.304-.454.629-.743.884a1.93 1.93 0 0 1-.155.123c-.095-.308-.25-.639-.317-.787a.923.923 0 0 0-.149-.249c-.123-.134-.307-.193-.484-.24-.287-.076-.603-.133-.871-.007-.217.103-.366.313-.447.539a1.66 1.66 0 0 0-.064.243l-.153-.098a1.685 1.685 0 0 1-.35-.27c-.137-.151-.214-.346-.292-.534-.216-.52-.46-1.028-.731-1.52-.115-.209-.293-.445-.528-.407-.168.027-.283.197-.3.366-.018.168.039.335.098.494.23.607.511 1.196.84 1.756"/>
        <path fill="#4887C4" d="M22.225 44.692c-.005.047-.012.1-.048.131a.188.188 0 0 1-.098.037 1.672 1.672 0 0 1-1.095-.203c-.122-.071-.238-.159-.376-.188-.308-.065-.6.178-.914.19-.484.018-.8-.476-1.19-.762-.602-.442-1.42-.39-2.149-.55-.52-.113-1.006-.34-1.487-.565l-.464-.217c-.05-.024-.105-.051-.131-.1-.03-.057-.015-.126.002-.187.34-1.238 1.13-2.313 1.516-3.537.31-.984.354-2.043.732-3.003.035-.088.078-.182.16-.229.114-.064.256-.017.378.032 1.517.604 3.054 1.214 4.41 2.14.241.165.669.406.727.724.044.244-.094.51-.068.772.086.859.195 1.706.217 2.57.026.984-.015 1.968-.122 2.945"/>
        <path fill="#FFF" d="M16.71 35.71c.533 0 .534-.825 0-.825-.532 0-.532.825 0 .825"/>
        <g>
            <g transform="translate(14.069 35.263)">
                <mask id="h" fill="#fff">
                    <use xlink:href="#g"/>
                </mask>
                <path fill="#FFF" d="M6.996 6.9c.633.052.551 1.033-.083.98-.632-.053-.55-1.034.083-.98" mask="url(#h)"/>
            </g>
            <g transform="translate(14.069 35.263)">
                <mask id="j" fill="#fff">
                    <use xlink:href="#i"/>
                </mask>
                <path fill="#FFF" d="M4.016 5.334c.633.053.551 1.034-.083.98-.633-.053-.55-1.033.083-.98" mask="url(#j)"/>
            </g>
            <g transform="translate(14.069 35.263)">
                <mask id="l" fill="#fff">
                    <use xlink:href="#k"/>
                </mask>
                <path fill="#FFF" d="M6.154 2.94c.632.054.55 1.035-.083.981-.633-.053-.551-1.034.083-.98" mask="url(#l)"/>
            </g>
            <g transform="translate(14.069 35.263)">
                <mask id="n" fill="#fff">
                    <use xlink:href="#m"/>
                </mask>
                <path fill="#FFF" d="M7.175 4.789c.633.053.55 1.034-.083.98-.633-.053-.55-1.034.083-.98" mask="url(#n)"/>
            </g>
            <g transform="translate(14.069 35.263)">
                <mask id="p" fill="#fff">
                    <use xlink:href="#o"/>
                </mask>
                <path fill="#FFF" d="M2.967 3.148c.633.053.551 1.034-.083.98-.632-.053-.55-1.034.083-.98" mask="url(#p)"/>
            </g>
            <g transform="translate(14.069 35.263)">
                <mask id="r" fill="#fff">
                    <use xlink:href="#q"/>
                </mask>
                <path fill="#FFF" d="M3.465 1.912c-.633-.053-.551-1.034.083-.98.632.052.55 1.034-.083.98" mask="url(#r)"/>
            </g>
            <g transform="translate(14.069 35.263)">
                <mask id="t" fill="#fff">
                    <use xlink:href="#s"/>
                </mask>
                <path fill="#FFF" d="M5.071 4.136c.633.053.551 1.034-.083.98-.633-.052-.55-1.033.083-.98" mask="url(#t)"/>
            </g>
            <g transform="translate(14.069 35.263)">
                <mask id="v" fill="#fff">
                    <use xlink:href="#u"/>
                </mask>
                <path fill="#FFF" d="M1.982 6.178c-.633-.053-.55-1.034.083-.98.633.053.55 1.034-.083.98" mask="url(#v)"/>
            </g>
            <g transform="translate(14.069 35.263)">
                <mask id="x" fill="#fff">
                    <use xlink:href="#w"/>
                </mask>
                <path fill="#FFF" d="M1.14 5.847c.634.053.552 1.034-.082.98-.633-.053-.551-1.033.083-.98" mask="url(#x)"/>
            </g>
            <g transform="translate(14.069 35.263)">
                <mask id="z" fill="#fff">
                    <use xlink:href="#y"/>
                </mask>
                <path fill="#FFF" d="M1.905 7.421c.633.054.55 1.035-.083.981-.633-.053-.551-1.034.083-.98" mask="url(#z)"/>
            </g>
            <g transform="translate(14.069 35.263)">
                <mask id="B" fill="#fff">
                    <use xlink:href="#A"/>
                </mask>
                <path fill="#FFF" d="M3.488 7.275c.632.053.55 1.034-.084.98-.632-.052-.55-1.033.084-.98" mask="url(#B)"/>
            </g>
            <g transform="translate(14.069 35.263)">
                <mask id="D" fill="#fff">
                    <use xlink:href="#C"/>
                </mask>
                <path fill="#FFF" d="M5.203 6.552c.633.054.551 1.035-.083.981-.633-.053-.55-1.034.083-.98" mask="url(#D)"/>
            </g>
            <g transform="translate(14.069 35.263)">
                <mask id="F" fill="#fff">
                    <use xlink:href="#E"/>
                </mask>
                <path fill="#FFF" d="M8.283 5.944c.633.054.551 1.035-.083.981-.633-.053-.55-1.034.083-.98" mask="url(#F)"/>
            </g>
            <g transform="translate(14.069 35.263)">
                <mask id="H" fill="#fff">
                    <use xlink:href="#G"/>
                </mask>
                <path fill="#FFF" d="M7.809 3.928c-.633-.053-.551-1.034.083-.981.633.053.55 1.034-.083.98" mask="url(#H)"/>
            </g>
            <g transform="translate(14.069 35.263)">
                <mask id="J" fill="#fff">
                    <use xlink:href="#I"/>
                </mask>
                <path fill="#FFF" d="M6.517 1.293c.633.053.551 1.034-.083.981-.632-.053-.55-1.034.083-.98" mask="url(#J)"/>
            </g>
            <g transform="translate(14.069 35.263)">
                <mask id="L" fill="#fff">
                    <use xlink:href="#K"/>
                </mask>
                <path fill="#FFF" d="M4.568 2.788c-.633-.053-.55-1.034.083-.98.633.053.551 1.033-.083.98" mask="url(#L)"/>
            </g>
            <g transform="translate(14.069 35.263)">
                <mask id="N" fill="#fff">
                    <use xlink:href="#M"/>
                </mask>
                <path fill="#FFF" d="M1.99 2.767c-.633-.053-.55-1.034.083-.98.633.052.551 1.033-.083.98" mask="url(#N)"/>
            </g>
            <g transform="translate(14.069 35.263)">
                <mask id="P" fill="#fff">
                    <use xlink:href="#O"/>
                </mask>
                <path fill="#FFF" d="M5.285 8.573c.632.053.55 1.034-.084.98-.632-.052-.55-1.033.084-.98" mask="url(#P)"/>
            </g>
            <g transform="translate(14.069 35.263)">
                <mask id="R" fill="#fff">
                    <use xlink:href="#Q"/>
                </mask>
                <path fill="#FFF" d="M7.287 8.434c.633.053.551 1.034-.083.98-.633-.053-.55-1.034.083-.98" mask="url(#R)"/>
            </g>
            <g transform="translate(14.069 35.263)">
                <mask id="T" fill="#fff">
                    <use xlink:href="#S"/>
                </mask>
                <path fill="#FFF" d="M8.615 8.322c.632.053.55 1.034-.083.98-.633-.052-.551-1.034.083-.98" mask="url(#T)"/>
            </g>
        </g>
        <g>
            <path fill="#F9628E" d="M19.857 32.032a.63.63 0 0 1 .086-.259c.073-.11.225-.182.343-.12a.34.34 0 0 1 .128.138c.027.045.047.156.069.285a2.524 2.524 0 0 0-.626-.044m-2.835 5.47c.03.107.065.214.122.31.077.126.19.224.31.313 1.008.75 2.351.83 3.609.876.154.006.316.01.452-.061.153-.08.246-.24.32-.394.552-1.139.611-2.456.492-3.715-.057-.602-.157-1.215-.45-1.745a1.979 1.979 0 0 0-.918-.857c-.015-.372-.17-.858-.213-1.05-.047-.211-.123-.455-.327-.526-.223-.078-.452.105-.583.3-.148.224-.239.479-.318.735-.04.129-.076.266-.096.403a3.064 3.064 0 0 0-1.269.596c-.684.547-1.124 1.364-1.294 2.222-.169.858-.08 1.753.163 2.593"/>
            <path fill="#2D2837" d="M21.518 23.17c.161.1.271.262.376.42.216.325.434.652.583 1.013.166.406.242.846.44 1.238.121.24.289.461.362.72.058.208.054.427.046.642a36.728 36.728 0 0 1-.217 2.907l-1.332-.127c-.12-.012-.247-.025-.35-.09-.093-.06-.158-.16-.254-.215-.233-.135-.516.025-.78.076-.363.07-.734-.076-1.103-.06-.425.02-.831.253-1.253.202-.37-.044-.687-.307-.878-.626-.19-.319-.273-.69-.334-1.057-.046-.278-.077-.579.056-.827.085-.157.226-.274.334-.416.351-.457.318-1.086.344-1.66.03-.687.202-1.423.73-1.863.449-.374 1.062-.46 1.627-.48.465-.018 1.206-.044 1.603.203"/>
        </g>
    </g>
</svg>
