<svg xmlns="http://www.w3.org/2000/svg" xmlns:xlink="http://www.w3.org/1999/xlink" width="99" height="152" viewBox="0 0 99 152">
    <defs>
        <path id="a" d="M.232.013H8.1v7.253H.232z"/>
        <path id="c" d="M0 .12h5.692v15.274H0z"/>
        <path id="e" d="M.075.187h7.44v11.077H.076z"/>
        <path id="g" d="M.237.024h6.925V6.5H.237z"/>
        <path id="i" d="M2.32.62c-.112.087-.18.217-.284.313-.27.247-.386-.016-.59-.155A.785.785 0 0 0 .671.714C.2.95.138 1.592.177 2.118c.078 1.075.302 2.156.151 3.223-.028.199-.07.397-.07.598-.003.626.411 1.217.974 1.494.562.277 1.245.26 1.826.023.451-.183.897-.61.787-1.085-.065-.283-.309-.484-.52-.684-.213-.199-.42-.46-.38-.748.03-.22.202-.396.391-.51.19-.116.403-.187.596-.298.52-.298.833-.854.974-1.421.16-.644.352-1.884-.238-2.383a1.245 1.245 0 0 0-.826-.283c-.547 0-1.132.27-1.523.577"/>
        <path id="k" d="M0 .232h7.05V14.62H0z"/>
        <path id="m" d="M.085.215h30.721v34.553H.085z"/>
    </defs>
    <g fill="none" fill-rule="evenodd">
        <path fill="#7F7F60" d="M53.34 149.724c-.286.134-.361.501-.4.816a.513.513 0 0 0 .013.263c.049.115.171.177.284.229a14.624 14.624 0 0 0 1.983.73c.079.022.16.044.24.027a.517.517 0 0 0 .222-.133c.645-.555 1.224-1.325.23-1.832-.673-.343-1.877-.424-2.571-.1M50.116 150.17c-.514.065-1.074.352-1.17.861a.424.424 0 0 0 .003.199c.02.07.067.128.117.181.396.42 1.022.508 1.596.559.159.014.319.027.477.006.406-.056.768-.358.895-.747.455-1.386-1.102-1.162-1.918-1.059"/>
        <path fill="#C3CAD1" d="M52.123 150.778c-.559.177-1.19-.056-1.6-.475-.41-.42-.625-.994-.734-1.57-.183-.967-.096-1.963.007-2.942.148-1.408.33-2.814.543-4.214.024-.16.067-.347.214-.416.087-.04.189-.028.284-.014.58.084 2.061.053 2.074.787.006.37-.353.924-.46 1.287-.144.487-.25.984-.328 1.486-.311 2.008-.16 4.056 0 6.07M54.672 149.309c.105.286.227.577.447.787.243.231.582.337.916.37.153.015.32.012.442-.08.135-.104.176-.286.208-.453.41-2.13.82-4.272.875-6.44.013-.495.005-1.001-.166-1.465-.05-.134-.118-.27-.236-.352-.123-.085-.28-.1-.43-.11-.69-.052-1.724-.413-2.126.246-.393.646-.467 1.748-.542 2.485-.172 1.68.02 3.426.612 5.012"/>
        <path fill="#8C4F26" d="M54.774 108.391c-.119-.18-.314-.324-.53-.325-.235 0-.444.174-.55.384-.106.21-.127.453-.134.688a7.137 7.137 0 0 0 1.156 4.112c.176.27.375.531.637.72.261.188.572.294.884.378.53.143 1.084.229 1.627.149.543-.08 1.075-.346 1.391-.794a.37.37 0 0 0 .074-.16c.026-.188-.191-.307-.369-.376-1.186-.462-2.106-1.224-2.967-2.141-.262-.28-.528-.514-.675-.877-.226-.556-.21-1.25-.544-1.758"/>
        <g transform="translate(53.351 106.37)">
            <mask id="b" fill="#fff">
                <use xlink:href="#a"/>
            </mask>
            <path fill="#000" d="M1.696.85c.708-.3 1.5-.393 2.27-.526C5.057.136 6.177-.14 7.264.12a.737.737 0 0 1 .274.11c.102.076.156.191.203.303.39.94.447 1.976.249 2.95-.198.972-.643 1.886-1.218 2.71-.32.456-.723.914-1.298 1.04-.481.105-.996-.047-1.443-.266-.446-.219-.855-.505-1.312-.703-.312-.135-.648-.23-.925-.421-.344-.237-.561-.596-.767-.943C.6 4.184.23 3.64.232 2.826c.003-.95.591-1.562 1.464-1.975" mask="url(#b)"/>
        </g>
        <path fill="#A09F6A" d="M60.896 116.766c-.619-1.08-1.452-2.525-2.76-2.876-1.182-.317-2.832.064-4.047.093-.481.011-.97.024-1.43.167-1.185.368-1.939 1.507-2.54 2.594-1.53 2.768-2.738 5.858-2.503 9.012.108 1.448.516 2.856.744 4.29.44 2.778.2 5.638.743 8.398.214 1.09.61 2.24 1.532 2.858.662.444 1.49.54 2.285.6 1.52.116 3.047.146 4.57.09.404-.015.833-.044 1.162-.279.256-.183.418-.467.557-.75a9.37 9.37 0 0 0 .772-2.247c.127-.614.191-1.24.256-1.863l.333-3.225c.12-1.166.241-2.341.125-3.508-.215-2.166-1.236-4.204-1.352-6.378.269.677.538 1.355.794 2.037l1.478-7.328a14.995 14.995 0 0 0-.72-1.685"/>
        <g transform="translate(47.385 114.013)">
            <mask id="d" fill="#fff">
                <use xlink:href="#c"/>
            </mask>
            <path fill="#7F7F60" d="M5.071.125c.148-.013.31-.013.429.097.136.127.168.356.18.563.108 1.847-.54 3.616-1.02 5.374-.47 1.72-.79 3.5-.952 5.3-.061.678-.101 1.364-.263 2.018-.162.653-.461 1.283-.936 1.654-.185.146-.398.25-.62.262-.57.03-1.046-.539-1.32-1.144C.083 13.176-.01 11.91 0 10.688.036 6.638.879.493 5.07.125" mask="url(#d)"/>
        </g>
        <path fill="#7F7F60" d="M57.596 116.556c-.11-.352-.25-.699-.288-1.065-.037-.367.045-.769.315-1.019.304-.28.782-.303 1.164-.147.383.155.685.459.947.778.63.77 1.082 1.666 1.493 2.571 1.572 3.456 2.625 7.14 3.222 10.89.095.602.165 1.271-.18 1.772-.189.275-.479.46-.765.63-.588.348-1.393.645-1.898.185-.157-.142-.254-.337-.344-.528-.819-1.726-1.534-3.613-1.77-5.518-.216-1.737-1.1-3.26-1.33-5.009-.156-1.184-.206-2.393-.566-3.54"/>
        <path fill="#FFF" d="M54.5 117.917c.087.144.18.293.327.374.256.143.575.033.84-.093a8.303 8.303 0 0 0 2.913-2.306c.277-.347.727-.757 1.09-.502.184.13.235.39.18.608-.056.219-.195.404-.33.583l-.808 1.063c-.22.29-.443.586-.558.931-.21.632-.028 1.317.112 1.967.47 2.192.38 4.66-.976 6.444-.269.353-.595.68-1.008.842-.352.138-.739.145-1.116.146-.759.004-1.543-.01-2.236-.317-1.045-.463-1.72-1.54-1.972-2.655-.253-1.115-.143-2.278.003-3.413.055-.426.117-.858.287-1.252.34-.784 1.063-1.325 1.555-2.022a.647.647 0 0 0 .131-.275c.044-.325-.292-.73-.393-1.032a3.394 3.394 0 0 1-.187-1.053c-.002-.28.046-1.33.351-1.485.334-.17.455.886.568 1.167.323.803.776 1.545 1.226 2.28"/>
        <path fill="#986978" d="M67.887 124.503c.157.006.356-.002.416-.147.02-.045.02-.096.02-.145-.002-.513.046-1.057-.017-1.563-.365-.035-1.233.255-1.449.594-.253.398-.173 1.183-.21 1.63.35-.294.79-.385 1.24-.369"/>
        <path fill="#D7E8DD" d="M66.295 149.119c.448-.125 1.024.203 1.348-.132.091-.094.136-.224.173-.35.357-1.213.273-5.132.258-6.397a33.7 33.7 0 0 1 .363-5.364c-.02.121-1.591.193-1.848.579-.385.579-.178 2.16-.207 2.848-.088 2.062-.117 6.752-.087 8.816M69.538 149.197l1.959-.005c-.09-3.258.115-9.112.133-12.356-2.059.335-2.027 1.235-2.042 3.154-.004.546-.04 9.207-.05 9.207"/>
        <path fill="#009697" d="M62.086 127.384c-.359.631-.614 1.374-.441 2.08.173.704.908 1.3 1.607 1.105-.323-1.03.616-2.235 1.692-2.173l.232 10.145c.003.126.01.263.092.358.104.12.283.126.441.124l5.88-.082c.148-.002.312-.01.42-.114.088-.085.115-.215.134-.337.293-1.86-.146-3.747-.464-5.603-.485-2.826-.387-5.629-.644-8.452-1.452-.32-3.56-.117-5.04.201-1.578.34-3.106 1.335-3.91 2.748"/>
        <path fill="#0E7774" d="M64.754 124.985c-.867.529-1.651 1.184-2.406 1.865-.228.205-.457.417-.613.682-.24.407-.283.898-.284 1.371 0 .439.038.9.277 1.268.24.368.738.6 1.133.41.536-.258.555-1.051 1.007-1.439.333-.286.827-.288 1.203-.513.553-.33.724-1.038.844-1.67.21-1.098.642-2.876-1.161-1.974M73.573 125.555c.256.234.493.49.77.698.18.135.379.25.52.424.412.51.17 1.268-.129 1.851a14.015 14.015 0 0 1-3.025 3.96c-.048.045-.11.092-.173.071-.039-.013-.065-.05-.088-.084l-.465-.704a.529.529 0 0 1-.088-.18c-.033-.158.08-.306.184-.429a28.46 28.46 0 0 0 1.88-2.49c.089-.133.181-.285.15-.442-.023-.116-.11-.209-.2-.286a2.115 2.115 0 0 0-1.074-.492c-.4-.058-.834-.007-1.18-.214-.447-.267-.568-.848-.647-1.362-.044-.288-.411-1.486-.252-1.704.201-.275.836-.069 1.153.003a5.882 5.882 0 0 1 2.664 1.38"/>
        <path fill="#3D3228" d="M66.238 148.844l-.3 2.313c-.01.072-.017.151.021.214.052.085.166.103.266.109a3.44 3.44 0 0 0 1.347-.197c.171-.062.344-.142.462-.281.174-.205.195-.496.197-.764.004-.455-.022-.91-.077-1.362-.019-.15-.047-.313-.159-.415-.198-.18-.512-.063-.75.06l-1.132.592M70.01 150.914c.035.11.08.226.178.289a.5.5 0 0 0 .284.054c.34-.008.68-.069 1.002-.18.11-.039.225-.087.3-.178.087-.11.102-.26.11-.4.026-.424.035-.85.028-1.274-.002-.09-.007-.187-.065-.255-.376-.44-1.34-.453-1.783-.061-.538.475-.252 1.4-.055 2.005"/>
        <path fill="#11200C" d="M65.1 119.334c-.665.79-.75 2.016-.198 2.89.55.873 1.694 1.324 2.692 1.062.343-.09.663-.253.966-.438.253-.154.504-.332.654-.587.127-.217.17-.472.202-.721.08-.614.104-1.235.075-1.853-.012-.26-.036-.528-.165-.754a1.286 1.286 0 0 0-.45-.438c-1.125-.699-2.96-.128-3.776.839"/>
        <path fill="#1E2D18" d="M64.754 123.878c.34-.19.874.326 1.079.585a.51.51 0 0 1 .106.186c.03.123-.027.25-.085.362-.123.24-.271.485-.507.617s-.583.1-.72-.133c-.059-.102-.07-.224-.08-.342l-.034-.384c-.019-.214-.036-.436.042-.636a.474.474 0 0 1 .199-.255"/>
        <path fill="#1E2D18" d="M64.626 124.01c.14.164.383.175.598.174.177 0 .368-.006.506-.116.123-.097.178-.257.208-.41.096-.496.036-1.418-.694-1.254-.518.116-.976 1.185-.618 1.606M65.216 126.935c.171.255.474.453.775.393a.3.3 0 0 0 .114-.045.31.31 0 0 0 .067-.07c.137-.184.176-.423.18-.652.009-.47-.316-1.365-.95-1.106-.554.227-.455 1.077-.186 1.48M65.921 129.402a4.308 4.308 0 0 0-.01.796c.009.101.024.21.095.282a.39.39 0 0 0 .217.093c.23.038.479.009.678-.113a.692.692 0 0 0 .34-.58c-.003-.197-.105-.381-.242-.523a2.353 2.353 0 0 0-.473-.349c-.15-.093-.3-.258-.451-.136-.11.088-.154.4-.154.53"/>
        <path fill="#1E2D18" d="M65.62 127.395c-.084.244-.1.506-.113.764-.007.15-.013.302.026.446a.734.734 0 0 0 .402.469c.094.042.203.063.297.024.114-.046.179-.165.227-.278.099-.235.164-.497.103-.745-.072-.295-.3-.505-.472-.742-.055-.076-.141-.302-.248-.296-.113.006-.193.272-.222.358M66.341 131.492c-.031.158-.047.331.027.474.038.072.095.13.153.186.115.109.247.215.404.23.207.021.394-.117.549-.256.14-.126.278-.263.354-.437a.551.551 0 0 0 .001-.472.822.822 0 0 0-.17-.203c-.172-.163-.605-.63-.872-.527-.26.1-.399.77-.446 1.005M66.9 133.902c.045.039.115.002.158-.04s.093-.093.152-.081c.04.008.066.043.098.067.118.089.288.03.415-.046.128-.075.267-.167.411-.132a1.473 1.473 0 0 1 .02-.273c.004-.028.011-.057.034-.073.018-.013.04-.014.062-.014l.195-.002c.028-.062-.023-.13-.07-.178l-.51-.523a.377.377 0 0 0-.154-.112c-.1-.029-.202.028-.294.076-.239.126-.469.098-.52.373-.02.111-.07.897.002.958"/>
        <path fill="#FFCBF8" d="M67.44 132.777c.108-.04.22-.086.292-.177.111-.143.082-.346.048-.524-.163-.067-.332.062-.483.15-.271.16-.701.149-.697.536.006.5.57.118.84.015"/>
        <path fill="#986978" d="M63.031 130.055l.34.193c.273.156.578.356.612.669.028.25-.143.491-.367.603-.225.112-.49.114-.736.068-.197-.036-.398-.107-.534-.255-.236-.257-.207-.654-.163-1 .008-.07.023-.15.085-.184a.223.223 0 0 1 .115-.02l.76.014"/>
        <g>
            <g transform="translate(91.4 24.721)">
                <mask id="f" fill="#fff">
                    <use xlink:href="#e"/>
                </mask>
                <path fill="#2D4211" d="M2.382.187c.488-.014.971.286 1.175.73.185.401.172.92.51 1.204.146.122.335.178.517.235.81.253 1.596.582 2.344.983.155.083.317.177.4.333.067.127.071.277.074.421l.112 5.67c.007.355.006.736-.197 1.027-.188.27-.52.408-.846.454-.333.046-.677.01-.992-.106-.334-.122-.629-.328-.92-.532L.765 7.95c-.225-.158-.46-.326-.583-.572-.136-.271-.114-.592-.088-.894l.348-4.152c.079-.937.87-2.114 1.94-2.145" mask="url(#f)"/>
            </g>
            <path fill="#2A1735" d="M93.889 43.693a23.1 23.1 0 0 1-.052 1.275c-.008.124-.024.26-.116.343-.088.082-.221.088-.342.09l-2.355.031c-.095.002-.195.001-.276-.048-.096-.058-.142-.171-.177-.278-.225-.687-.266-1.418-.305-2.139-.098-1.822-.189-3.646-.283-5.468-.094-1.795-.625-3.518-1.155-5.225-.597 4.32-.663 8.808-.727 13.165-.003.217-.01.45-.142.622-.143.187-.392.252-.622.302-.5.109-1.048.2-1.504-.03-.712-.361-.858-1.296-.915-2.092l-1.19-16.462c.024.33 6.012-.328 6.562-.416.71-.113 1.93-.65 2.552-.116.579.496.396 1.844.425 2.496l.35 7.763c.092 2.042.3 4.13.272 6.187"/>
            <path fill="#403542" d="M92.978 12.04c1.473 1.503 1.477 3.49 1.428 5.341l-.21 7.717-.915-.026c-.206-1.05.043-2.122.205-3.182.276-1.806.285-3.635-.069-5.425a12.812 12.812 0 0 0-.812-2.621c-.376-.866-1.04-1.64-1.444-2.486-.593-1.243 1.496.355 1.817.683"/>
            <path fill="#C6C6C6" d="M88.384 10.65c-.589-.003-1.187-.003-1.75.169-.55.167-1.038.492-1.497.838-.359.272-.715.571-.924.97-.207.39-.255.843-.3 1.283-.37 3.645-.74 7.325-.306 10.963.036.303.077.607.08.913.002.597-.149 1.197-.052 1.786.015.096.04.195.107.265.09.095.234.11.365.12 2.662.2 5.341.17 7.998-.09a.713.713 0 0 0 .311-.08c.117-.072.18-.203.237-.327 1.238-2.76 1.472-5.872 1.29-8.89a14.059 14.059 0 0 0-.221-1.915 8.801 8.801 0 0 0-.603-1.88c-.258-.574-.577-1.119-.831-1.695a5.535 5.535 0 0 1-.34-.96c-.047-.196-.017-.52-.124-.69-.547-.872-2.577-.778-3.44-.78"/>
            <path fill="#F6FFFF" d="M91.404 11.693c-.06-.295-.171-.576-.37-.799-.144-.162-.866-.12-1.083-.147-.436-.053-.871-.107-1.31-.13-.48-.026-.954-.004-1.433.035-.116.01-.246.03-.31.127a.288.288 0 0 0-.037.17c.005.143.066.278.126.409.25.543.478 1.094.793 1.598.163.262.302.543.452.812.109.194.446.595.453.811l2.056 3.686c.029.05.065.083.12.086.142-.512.23-1.032.303-1.558.068-.49-.004-.97.024-1.468.058-1.056.332-2.097.274-3.16a3.316 3.316 0 0 0-.058-.472"/>
            <path fill="#DB8346" d="M94.42 46.663a.425.425 0 0 1-.079.238c-.063.077-.165.108-.262.134-.521.143-1.06.257-1.599.215-.539-.042-1.083-.258-1.424-.677-.447-.55-.531-1.436-.424-2.107 1.452-.154 3.73.452 3.788 2.197M89.489 47.507c.042.159.067.334-.005.482-.103.209-.359.286-.589.327-.312.057-.634.089-.947.035-.334-.059-.643-.213-.936-.381-.578-.332-1.14-.756-1.418-1.36-.182-.397-.226-.84-.268-1.273.088.913-.977-.85 2.478.42.795.292 1.463.917 1.685 1.75"/>
            <path fill="#000E0A" d="M95.476 15.694c.061-.067.124-.14.21-.166.112-.033.228.02.331.072l1.032.514-1.385 1.087a.276.276 0 0 1-.093.054c-.07.02-.14-.019-.202-.056-.23-.138-.865-.392-.785-.708.065-.261.702-.586.892-.797"/>
            <path fill="#E0C3AD" d="M94.622 24.807c.16.253.197.563.206.862a.875.875 0 0 1-.036.333.63.63 0 0 1-.155.226c-.364.358-1.035.326-1.365-.064-.329-.391-.246-1.057.17-1.355.417-.3.82-.574 1.18-.002M95.331 16.478a.989.989 0 0 1 .411.039c.266.101.408.389.485.662.07.245.108.5.114.755a.48.48 0 0 1-.036.234c-.045.087-.133.142-.219.19-.94.525-2.026.788-3.103.75-.072-.547-.227-1.557.186-1.984.448-.462 1.56-.607 2.162-.646"/>
            <path fill="#403542" d="M86.025 14.57l.596 2.25c.063.235.128.477.274.673.325.432.934.51 1.475.528 1.65.055 3.31-.111 4.916-.493.058.467.088.937.09 1.407 0 .122-.003.253-.072.353-.076.112-.214.162-.342.205-1.067.354-2.133.71-3.2 1.065-.355.118-.712.237-1.081.302-1.513.265-3.083-.433-4.156-1.532a5.25 5.25 0 0 1-1.068-1.552c-.317-.727-.43-1.518-.472-2.303-.039-.706-.2-1.692.228-2.3.379-.54.94-.745 1.546-.474.783.35 1.062 1.1 1.266 1.872"/>
            <path fill="#E0C3AD" d="M91.24 9.576c-.193.11-.406.181-.596.297-.19.115-.36.291-.392.51-.04.289.168.55.38.749.212.2.455.4.52.684.11.474-.335.901-.786 1.085-.581.236-1.264.254-1.826-.023-.563-.278-.978-.868-.975-1.495.001-.2.042-.399.07-.597.152-1.068-.072-2.148-.15-3.223-.04-.527.022-1.17.495-1.404a.786.786 0 0 1 .773.064c.205.139.32.401.59.154.104-.095.173-.225.284-.312.605-.474 1.677-.862 2.349-.293.59.499.398 1.738.238 2.382-.141.567-.454 1.124-.974 1.422"/>
            <g transform="translate(86.138 2.816)">
                <mask id="h" fill="#fff">
                    <use xlink:href="#g"/>
                </mask>
                <path fill="#7A3939" d="M6.044.987C5.252.179 4.004-.198 2.93.158a3.398 3.398 0 0 0-.797.398C1.28 1.121.625 1.992.363 2.981c-.26.988-.116 2.086.43 2.951.133.21.297.414.525.515.228.1.531.065.677-.137.203-.279.015-.658-.108-.98a2.4 2.4 0 0 1-.155-.766c-.004-.099 0-.2.039-.291a.4.4 0 0 1 .538-.182.4.4 0 0 1 .13.552c.18.1.443.185.559.015.046-.067.048-.153.056-.234.046-.473.344-.913.765-1.132a1.46 1.46 0 0 1 1.366.022c.304.171.54.45.854.601.203.098.908.303 1.067.108.145-.177-.035-.913-.078-1.122-.144-.712-.472-1.393-.984-1.914" mask="url(#h)"/>
            </g>
            <g transform="translate(87.308 5.445)">
                <mask id="j" fill="#fff">
                    <use xlink:href="#i"/>
                </mask>
                <path fill="#E8CBB8" d="M3.447 4.506c-.383.069-.77.111-1.159.127-.418.017-.851 0-1.23-.179a1.547 1.547 0 0 1-.567-.457 2.937 2.937 0 0 1-.303-.533c-.336-.706-.646-1.432-.79-2.2C.292.894 1.024.225 1.804-.351c.78-.577 1.681-1.087 2.65-1.057.227.007.455.045.663.136.234.103.435.27.598.467.2.24.343.522.464.809.24.572.396 1.179.462 1.796.03.283.041.573-.02.852-.097.448-.372.834-.652 1.196-.292.38-.612.759-1.041.97a1.726 1.726 0 0 1-1.244.104.788.788 0 0 0-.147-.36c-.026-.033-.05-.063-.091-.055" mask="url(#j)"/>
            </g>
        </g>
        <g>
            <path fill="#0E0E09" d="M13.793 45.493a2.828 2.828 0 0 1-1.678.348c-.134-.014-.272-.04-.377-.123-.112-.088-.17-.225-.217-.358-.476-1.366-.22-3.308 1.667-2.727 1.016.313 1.642 2.274.605 2.86"/>
            <path fill="#9CA09C" d="M10.937 43.69a22.71 22.71 0 0 0 2.396.03c.225-.009.463-.025.646-.157.278-.2.329-.586.354-.927.326-4.397.36-8.816.098-13.218-.007-.114-.016-.235-.08-.33-.094-.136-.273-.179-.435-.21l-2.3-.452c-.442-.087-.897-.174-1.337-.081-1.375.288-.861 2.002-.833 3.012.04 1.407.05 2.814.103 4.22.105 2.747.38 5.531 1.388 8.112"/>
            <path fill="#0E0E09" d="M8.425 46.552c-.506.286-1.101.41-1.678.348-.134-.014-.272-.04-.378-.123-.11-.088-.17-.225-.216-.358-.476-1.366-.22-3.308 1.667-2.727 1.016.313 1.642 2.274.605 2.86"/>
            <path fill="#9CA09C" d="M5.569 44.748a22.78 22.78 0 0 0 2.396.031c.224-.009.463-.026.646-.157.278-.2.328-.586.354-.927.326-4.397.359-8.816.098-13.218-.007-.114-.016-.235-.081-.33-.093-.136-.272-.178-.434-.21l-2.3-.452c-.442-.087-.898-.174-1.338-.082-1.374.29-.86 2.002-.832 3.013.04 1.406.05 2.814.103 4.22.105 2.748.38 5.531 1.388 8.112"/>
            <path fill="#E8E3DD" d="M15.362 9.858c.785 1.75 1.568 3.522 1.941 5.404.339 1.708.33 3.463.32 5.204-.73-.189-1.625.35-2.203-.136-.226-.189-.324-.485-.41-.766a49.302 49.302 0 0 1-1.534-6.648c.703 3.155.825 6.413.738 9.645-.04 1.515.685 5.415.217 6.857-.468 1.441-2.172.433-3.492 1.18-2.192 1.238-4.926.547-7.334-.19-.204-.062-.42-.132-.555-.297-.125-.152-.158-.357-.187-.553l-.829-5.668c-.23-1.578-.462-3.169-.377-4.761.059-1.114.272-2.214.485-3.31l.735-3.788c.185-.951.371-1.908.718-2.813.562-1.461 1.568-2.777 2.923-3.561 3.88-2.247 7.304.769 8.844 4.201"/>
            <path fill="#7E5C33" d="M13.993 21.78c.158.318.423.568.678.816.896.875 1.725 1.82 2.475 2.824.258.344.507.697.803 1.009.387.407.846.738 1.286 1.088.601.478 1.171.997 1.704 1.552l-.02-1.597a1.266 1.266 0 0 0-.047-.393c-.054-.158-.167-.287-.277-.412l-2.859-3.236c-.647-.732-1.313-1.475-2.127-2.028-.335-.227-1.725-.727-1.725-.727s-.104.676.109 1.104"/>
            <path fill="#170C05" d="M27.108 51.992c-.01.353-.03.727-.227 1.02-.303.45-.913.555-1.455.592-.93.065-1.82-.162-2.12-1.113l-.446-1.41c-.222-.701-.446-1.413-.468-2.147-.031-.994.193-1.976.19-2.98a76.974 76.974 0 0 1 .061-3.266c.01-.231.025-.478.162-.664.115-.155.297-.244.48-.305 5.225-1.748 3.888 8.145 3.823 10.273"/>
            <path fill="#564636" d="M39.4 44.712L21.629 28.405l-9.764 1.464 14.159 16.567 12.855-1.462z"/>
            <path fill="#564636" d="M39.41 44.652l-23.323-23.84-2.204-.136 24.57 23.977z"/>
            <path fill="#BF738C" d="M26.286 28.502l.007 1.738c0 .21-.01.447-.17.584a.705.705 0 0 1-.27.124 8.774 8.774 0 0 1-4.076.19c-.538-.103-1.143-.327-1.314-.847-.183-.556 0-1.605 0-1.605"/>
            <path fill="#BF738C" d="M26.286 27.107l.007 1.737c0 .21-.01.448-.17.585a.7.7 0 0 1-.27.124 8.774 8.774 0 0 1-4.076.19c-.538-.103-1.143-.327-1.314-.847-.183-.556 0-1.605 0-1.605"/>
            <path fill="#BF738C" d="M26.286 25.501l.007 1.738c0 .21-.01.448-.17.584a.708.708 0 0 1-.27.124 8.774 8.774 0 0 1-4.076.19c-.538-.103-1.143-.327-1.314-.846-.183-.557.235-1.147.166-1.729M26.286 30.157l.007 1.738c0 .21-.01.447-.17.584a.708.708 0 0 1-.27.124 8.774 8.774 0 0 1-4.076.19c-.538-.103-1.143-.327-1.314-.847-.183-.556 0-1.605 0-1.605"/>
            <path fill="#BEBEB5" d="M25.762 32.243h-.272c-.027-1.644-.054-4.476-.081-6.12.184-.054.301-.14.413.005.08.103.009.585.01.721.005.472.005.943.002 1.415-.002.234-.036 3.98-.072 3.98"/>
            <path fill="#7C7F7C" d="M25.668 25.837c.174.283.353.581.374.913.002.03.002.061-.013.087-.03.05-.1.053-.158.04a.566.566 0 0 1-.384-.343.793.793 0 0 1-.01-.526c.034-.105.13-.225.232-.179"/>
            <path fill="#A05872" d="M20.554 25.548c0 .443 1.295.803 2.892.803 1.596 0 2.89-.36 2.89-.803 0-.444-1.294-.804-2.89-.804-1.597 0-2.892.36-2.892.804"/>
            <path fill="#7C7F7C" d="M32.104 33.558l.007 1.737c0 .21-.01.448-.17.585a.708.708 0 0 1-.27.124 8.774 8.774 0 0 1-4.076.19c-.538-.103-1.144-.327-1.314-.847-.183-.556 0-1.606 0-1.606"/>
            <path fill="#BEBEB5" d="M32.104 32.162l.007 1.738c0 .21-.01.448-.17.584a.705.705 0 0 1-.27.124 8.777 8.777 0 0 1-4.076.19c-.538-.103-1.144-.326-1.314-.846-.183-.557 0-1.606 0-1.606"/>
            <path fill="#7C7F7C" d="M32.104 30.557l.007 1.738c0 .21-.01.447-.17.584a.7.7 0 0 1-.27.124 8.774 8.774 0 0 1-4.076.19c-.538-.103-1.144-.327-1.314-.847-.183-.556.235-1.147.165-1.728"/>
            <path fill="#BEBEB5" d="M26.372 30.604c0 .443 1.294.803 2.891.803s2.891-.36 2.891-.803c0-.444-1.294-.804-2.89-.804-1.598 0-2.892.36-2.892.804"/>
            <path fill="#7C7F7C" d="M35.169 40.306l.007 1.738c0 .21-.01.447-.17.584a.705.705 0 0 1-.27.124 8.777 8.777 0 0 1-4.076.19c-.538-.103-1.144-.327-1.315-.847-.182-.556 0-1.605 0-1.605"/>
            <path fill="#BEBEB5" d="M35.169 38.651l.007 1.738c0 .21-.01.448-.17.584a.704.704 0 0 1-.27.124 8.77 8.77 0 0 1-4.076.19c-.538-.103-1.144-.327-1.315-.846-.182-.557 0-1.606 0-1.606"/>
            <path fill="#7C7F7C" d="M35.169 37.256l.007 1.737c0 .21-.01.448-.17.585a.708.708 0 0 1-.27.124 8.774 8.774 0 0 1-4.076.19c-.538-.103-1.144-.327-1.315-.847-.182-.556 0-1.605 0-1.605"/>
            <path fill="#BEBEB5" d="M35.169 35.65l.007 1.738c0 .21-.01.448-.17.584a.705.705 0 0 1-.27.124 8.774 8.774 0 0 1-4.076.19c-.538-.103-1.144-.326-1.315-.846-.182-.557.235-1.147.166-1.729"/>
            <path fill="#7C7F7C" d="M29.437 35.697c0 .444 1.294.804 2.89.804 1.598 0 2.892-.36 2.892-.804 0-.444-1.294-.804-2.891-.804s-2.891.36-2.891.804"/>
            <path fill="#E1846A" d="M30.698 35.566l.007 1.737c0 .21-.01.448-.17.585a.705.705 0 0 1-.27.124 8.774 8.774 0 0 1-4.076.19c-.538-.103-1.143-.327-1.314-.847-.183-.556 0-1.605 0-1.605"/>
            <path fill="#E1846A" d="M30.698 34.17l.007 1.738c0 .21-.01.447-.17.584a.7.7 0 0 1-.27.124 8.774 8.774 0 0 1-4.076.19c-.538-.103-1.143-.327-1.314-.846-.183-.557 0-1.606 0-1.606"/>
            <path fill="#E1846A" d="M30.698 32.565l.007 1.737c0 .21-.01.448-.17.585a.708.708 0 0 1-.27.124 8.774 8.774 0 0 1-4.076.19c-.538-.103-1.143-.327-1.314-.847-.183-.556.235-1.147.166-1.728M30.698 37.22l.007 1.738c0 .21-.01.448-.17.585a.708.708 0 0 1-.27.124 8.774 8.774 0 0 1-4.076.19c-.538-.103-1.143-.327-1.314-.847-.183-.556 0-1.606 0-1.606"/>
            <path fill="#BEBEB5" d="M28.835 33.385c-.091 0-.176-.041-.262-.055-.027 1.644-.073 4.928-.1 6.572.184.054.301.14.413-.004.08-.104.01-.585.01-.722.005-.471.006-.943.002-1.414-.002-.235-.027-4.377-.063-4.377"/>
            <path fill="#7C7F7C" d="M30.08 32.9c.174.284.353.582.374.914.002.03.002.06-.013.086-.03.05-.1.054-.158.041a.566.566 0 0 1-.384-.343.793.793 0 0 1-.01-.526c.033-.106.13-.225.232-.18"/>
            <path fill="#C16752" d="M24.966 32.611c0 .444 1.295.804 2.891.804 1.597 0 2.892-.36 2.892-.804 0-.443-1.295-.803-2.892-.803-1.596 0-2.89.36-2.89.803"/>
            <path fill="#7C7F7C" d="M19.234 32.857l.007 1.737c0 .21-.01.448-.17.585a.708.708 0 0 1-.27.124 8.774 8.774 0 0 1-4.076.19c-.538-.103-1.143-.327-1.314-.847-.183-.556 0-1.605 0-1.605"/>
            <path fill="#BEBEB5" d="M19.234 31.202l.007 1.737c0 .21-.01.448-.17.585a.705.705 0 0 1-.27.124 8.774 8.774 0 0 1-4.076.19c-.538-.103-1.143-.327-1.314-.847-.183-.556 0-1.605 0-1.605"/>
            <path fill="#7C7F7C" d="M19.234 29.807l.007 1.737c0 .21-.01.448-.17.584a.7.7 0 0 1-.27.124 8.774 8.774 0 0 1-4.076.19c-.538-.103-1.143-.326-1.314-.846-.183-.557 0-1.606 0-1.606"/>
            <path fill="#BEBEB5" d="M19.234 28.201l.007 1.738c0 .21-.01.447-.17.584a.708.708 0 0 1-.27.124 8.777 8.777 0 0 1-4.076.19c-.538-.103-1.143-.327-1.314-.846-.183-.557.235-1.148.166-1.729"/>
            <path fill="#7C7F7C" d="M13.502 28.248c0 .443 1.295.803 2.892.803 1.596 0 2.89-.36 2.89-.803 0-.444-1.294-.804-2.89-.804-1.597 0-2.892.36-2.892.804"/>
            <path fill="#BEBEB5" d="M24.582 35.563l.007 1.738c0 .21-.01.448-.17.584a.708.708 0 0 1-.27.124 8.777 8.777 0 0 1-4.076.19c-.538-.103-1.144-.326-1.314-.846-.183-.557 0-1.606 0-1.606"/>
            <path fill="#7C7F7C" d="M25.052 35.318l.007 1.737c0 .21-.01.448-.17.585a.705.705 0 0 1-.27.124 8.775 8.775 0 0 1-4.076.19c-.538-.103-1.143-.327-1.314-.847-.183-.556 0-1.605 0-1.605"/>
            <path fill="#BEBEB5" d="M25.052 33.923l.007 1.737c0 .21-.01.448-.17.584a.7.7 0 0 1-.27.124 8.775 8.775 0 0 1-4.076.19c-.538-.103-1.143-.326-1.314-.846-.183-.557 0-1.606 0-1.606"/>
            <path fill="#7C7F7C" d="M25.052 32.317l.007 1.738c0 .21-.01.447-.17.584a.708.708 0 0 1-.27.124 8.778 8.778 0 0 1-4.076.19c-.538-.103-1.143-.327-1.314-.846-.183-.557.235-1.148.165-1.729"/>
            <path fill="#BEBEB5" d="M19.32 32.364c0 .443 1.294.803 2.891.803s2.891-.36 2.891-.803c0-.444-1.294-.804-2.89-.804-1.598 0-2.892.36-2.892.804M23.65 38.974l.008 1.738c0 .21-.01.447-.17.584a.705.705 0 0 1-.27.124 8.777 8.777 0 0 1-4.076.19c-.538-.103-1.144-.327-1.314-.847-.183-.556 0-1.605 0-1.605"/>
            <path fill="#7C7F7C" d="M23.65 37.32l.008 1.737c0 .21-.01.447-.17.584a.7.7 0 0 1-.27.124 8.774 8.774 0 0 1-4.076.19c-.538-.103-1.144-.327-1.314-.847-.183-.556 0-1.605 0-1.605"/>
            <path fill="#BEBEB5" d="M23.65 35.924l.008 1.737c0 .21-.01.448-.17.585a.7.7 0 0 1-.27.124 8.77 8.77 0 0 1-4.076.19c-.538-.103-1.144-.327-1.314-.847-.183-.556 0-1.605 0-1.605"/>
            <path fill="#7C7F7C" d="M23.65 34.318l.008 1.738c0 .21-.01.448-.17.584a.705.705 0 0 1-.27.124 8.777 8.777 0 0 1-4.076.19c-.538-.103-1.144-.326-1.314-.846-.183-.557.234-1.147.165-1.729"/>
            <path fill="#BEBEB5" d="M17.919 34.365c0 .444 1.294.803 2.89.803 1.598 0 2.892-.36 2.892-.803 0-.444-1.294-.804-2.891-.804s-2.891.36-2.891.804M28.117 42.066l.007 1.738c0 .21-.01.448-.17.584a.704.704 0 0 1-.27.124 8.77 8.77 0 0 1-4.076.19c-.538-.103-1.144-.327-1.314-.846-.183-.557 0-1.606 0-1.606"/>
            <path fill="#7C7F7C" d="M28.117 40.412l.007 1.737c0 .21-.01.448-.17.584a.705.705 0 0 1-.27.124 8.777 8.777 0 0 1-4.076.19c-.538-.103-1.144-.326-1.314-.846-.183-.557 0-1.606 0-1.606"/>
            <path fill="#BEBEB5" d="M28.117 39.016l.007 1.738c0 .21-.01.447-.17.584a.705.705 0 0 1-.27.124 8.774 8.774 0 0 1-4.076.19c-.538-.103-1.144-.327-1.314-.847-.183-.556 0-1.605 0-1.605"/>
            <path fill="#7C7F7C" d="M28.117 37.41l.007 1.738c0 .21-.01.448-.17.585a.708.708 0 0 1-.27.124 8.774 8.774 0 0 1-4.076.19c-.538-.103-1.144-.327-1.314-.847-.183-.556.234-1.147.165-1.729"/>
            <path fill="#BEBEB5" d="M22.385 37.457c0 .444 1.294.804 2.891.804s2.891-.36 2.891-.804c0-.444-1.294-.803-2.891-.803s-2.891.36-2.891.803M33.464 44.773l.007 1.737c.001.21-.01.448-.17.585a.708.708 0 0 1-.269.124 8.774 8.774 0 0 1-4.077.19c-.538-.103-1.143-.327-1.314-.847-.182-.556 0-1.605 0-1.605"/>
            <path fill="#7C7F7C" d="M33.464 43.118l.007 1.737c.001.21-.01.448-.17.585a.705.705 0 0 1-.269.124 8.777 8.777 0 0 1-4.077.19c-.538-.103-1.143-.327-1.314-.847-.182-.556 0-1.605 0-1.605"/>
            <path fill="#BEBEB5" d="M33.464 41.723l.007 1.737c.001.21-.01.448-.17.584a.705.705 0 0 1-.269.124 8.774 8.774 0 0 1-4.077.19c-.538-.103-1.143-.326-1.314-.846-.182-.557 0-1.606 0-1.606"/>
            <path fill="#7C7F7C" d="M33.464 40.117l.007 1.738c.001.21-.01.447-.17.584a.708.708 0 0 1-.269.124 8.774 8.774 0 0 1-4.077.19c-.538-.103-1.143-.327-1.314-.847-.182-.556.235-1.147.166-1.728"/>
            <path fill="#BEBEB5" d="M27.733 40.164c0 .443 1.294.803 2.89.803 1.597 0 2.892-.36 2.892-.803 0-.444-1.295-.804-2.891-.804-1.597 0-2.891.36-2.891.804"/>
            <path fill="#170C05" d="M39.375 52.128c-.497.894-1.625 1.526-2.563 1.117-.946-.414-1.235-1.591-1.406-2.61l-.527-3.149c-.072-.433 4.334-.975 4.913-.118.656.972.093 3.845-.417 4.76"/>
            <path fill="#BAA68C" d="M9.957 8.736c-.456-.2-.926-.41-1.265-.775-.412-.445-.577-1.074-.576-1.68.001-.605.154-1.2.305-1.787 1.012.057 2.317-.035 2.6 1.09.094.375-.434 3.428-1.064 3.152"/>
            <path fill="#CCBA9F" d="M11.844 2.548c.11.835.217 1.697-.014 2.507-.232.81-.896 1.558-1.737 1.613-.991.065-1.773-.788-2.391-1.565-.225-.283-.452-.57-.605-.896-.34-.729-.28-1.573-.211-2.375"/>
            <path fill="#1A2020" d="M8.424 2.177c.05-.115.1-.23.148-.346-.327.74-.758 1.57-1.548 1.749a2.585 2.585 0 0 1-.144-1.972.482.482 0 0 1 .142-.237c.09-.071.215-.075.331-.074.33.002.66.014.99.036"/>
            <path fill="#879993" d="M11.835 2.607a18.875 18.875 0 0 0-.27-1.915c-.028-.147-.063-.303-.168-.41-.117-.121-.294-.155-.46-.179a10.14 10.14 0 0 0-2.963.012c-.238.035-.487.086-.672.24-.185.154-.279.39-.348.62-.12.405-.227.859-.143 1.263.893-.319 1.534-.27 2.454.006.167.05 2.607.777 2.57.363"/>
            <g transform="translate(0 6.45)">
                <mask id="l" fill="#fff">
                    <use xlink:href="#k"/>
                </mask>
                <path fill="#9CA09C" d="M4.164.759c-.828.502-1.461 1.272-1.99 2.084a13.636 13.636 0 0 0-1.985 9.63c.086.504.21 1.023.54 1.414.644.763 1.797.769 2.794.712.068-.78-.243-1.533-.45-2.288-.754-2.738-.09-5.827 1.725-8.013.636-.766 2.381-2.085 2.244-3.207C6.873-.291 4.918.3 4.164.759" mask="url(#l)"/>
            </g>
            <path fill="#BF738C" d="M7.143 9.06c.056.412.112.826.103 1.242-.008.413-.08.823-.152 1.23l-.296 1.688a4.884 4.884 0 0 0-2.848.397c.28-1.807-.02-3.7-.843-5.333-.036-.07-.074-.145-.073-.225 0-.112.075-.208.15-.292.481-.55 1.723-1.7 2.538-1.591 1.107.147 1.307 2.046 1.42 2.884"/>
            <path fill="#7E5C33" d="M37.15 47.741c.574.01 2.157-1.712 2.157-1.712l1.864 2.384s.614.225.868.437l3.116 2.605c.163.136-.654 2.411-.828 2.605-.64.71-1.056-.132-1.643-.727-1.36-1.38-4.241-4.15-5.535-5.592"/>
            <path fill="#A18A65" d="M27.808 46.272c-.937.018-2.798.225-2.798.225l1.02 4.54 13.505-.832-.228-4.176s-2.309.072-3.327.091l-8.172.152"/>
            <path fill="#564636" d="M44.33 52.623c.028-.183.048-.372 0-.55-.069-.25-.259-.443-.44-.626-1.717-1.734-2.981-3.775-4.694-5.606-1.713-1.832-1.937-3.217-1.31-3.172 1.283 1.368 5.755 6.042 7.038 7.41.2.214.405.435.507.71.071.193.088.401.101.606.087 1.322.443 3.782-1.697 3.036.183-.6.402-1.179.496-1.808"/>
            <path fill="#1F9995" d="M33.034 40.769l-.007 1.737c0 .21.01.448.17.585a.708.708 0 0 0 .27.124 8.774 8.774 0 0 0 4.076.19c.538-.103 1.143-.327 1.314-.847.183-.556 0-1.606 0-1.606"/>
            <path fill="#1F9995" d="M33.034 39.373l-.007 1.738c0 .21.01.447.17.584a.708.708 0 0 0 .27.124 8.777 8.777 0 0 0 4.076.19c.538-.103 1.143-.327 1.314-.846.183-.557 0-1.606 0-1.606"/>
            <path fill="#1F9995" d="M33.034 37.768l-.007 1.737c0 .21.01.448.17.585a.705.705 0 0 0 .27.124 8.774 8.774 0 0 0 4.076.19c.538-.103 1.143-.327 1.314-.847.183-.556-.235-1.147-.166-1.728M33.034 42.424l-.007 1.737c0 .21.01.448.17.584a.705.705 0 0 0 .27.124 8.774 8.774 0 0 0 4.076.19c.538-.103 1.143-.326 1.314-.846.183-.557 0-1.606 0-1.606"/>
            <path fill="#BEBEB5" d="M33.55 44.907c.09 0 .175.041.261.055.027-1.644.073-4.928.1-6.572-.184-.054-.301-.14-.413.004-.08.104-.01.585-.01.722-.005.471-.006.943-.002 1.414.002.235.028 4.377.063 4.377"/>
            <path fill="#7C7F7C" d="M33.652 38.104c-.174.283-.353.58-.374.913a.152.152 0 0 0 .013.086c.03.05.1.054.157.041a.567.567 0 0 0 .385-.343.793.793 0 0 0 .009-.526c-.033-.106-.13-.225-.23-.18"/>
            <path fill="#217A76" d="M38.766 37.814c0 .444-1.295.804-2.891.804-1.597 0-2.892-.36-2.892-.804 0-.444 1.295-.803 2.892-.803 1.596 0 2.89.36 2.89.803"/>
            <path fill="#8C784A" d="M26.03 51.037l-15.355-15.69.265-4.784 15.083 15.873z"/>
            <path fill="#8C784A" d="M26.023 46.436l-.164-1.994c2.593-.235 5.372.22 7.974.133 2.227-.074 5.618-.282 5.618-.282l.01 1.683s-8.565.5-13.438.46"/>
            <path fill="#564636" d="M17.03 35.224c.566.615 1.133 1.23 1.74 1.806.906.861 1.898 1.629 2.822 2.473 3.493 3.193 9.365 10.335 12.758 13.633-.592-.022-1.166.278-1.757.23-.76-.06-4.789-3.607-5.281-4.188-.753-.887-1.462-1.811-2.181-2.727A153.97 153.97 0 0 0 8.027 28.002c-1.97-1.803-4.463-3.99-5.474-6.547 1.282-.516 1.45-.378 2.377.628l2.926 3.178 5.901 6.409 3.273 3.554"/>
            <g transform="translate(1.817 21.24)">
                <mask id="n" fill="#fff">
                    <use xlink:href="#m"/>
                </mask>
                <path fill="#7E5C33" d="M.736.215l-.651 1.37c.43.762 1.093 1.362 1.735 1.958 4.575 4.239 25.62 27.819 28.318 31.226.185-.607.364-1.405.55-2.01.085-.28.17-.58.079-.857-.064-.192-.205-.347-.342-.496C21.716 21.942 10.718 8.326.735.215" mask="url(#n)"/>
            </g>
            <path fill="#BAA68C" d="M17.628 20.404c.134.614.243 1.337-.178 1.805-.274.304-.699.41-1.097.5-.102.023-.21.046-.309.012a.57.57 0 0 1-.2-.144c-.45-.438-.934-.95-.928-1.577.003-.272.126-.566.376-.676M3.717 20.756c.134.614.242 1.336-.178 1.804-.274.304-.699.41-1.097.5-.102.024-.21.047-.309.013a.57.57 0 0 1-.2-.145c-.451-.437-.934-.949-.928-1.576.002-.273.126-.567.376-.676"/>
            <path fill="#564636" d="M34.264 55.853a10.546 10.546 0 0 1-.042-2.672c-.598-.381-1.334-.46-2.04-.53-.003.52-.126 1.028-.237 1.534-.078.357-.35 1.079-.164 1.425.27.505 2.464.11 2.483.243"/>
        </g>
    </g>
</svg>
