<svg xmlns="http://www.w3.org/2000/svg" xmlns:xlink="http://www.w3.org/1999/xlink" width="17" height="61" viewBox="0 0 17 61">
    <defs>
        <path id="a" d="M2.363.694c-.53.236-.413.714-.412 1.226a50.648 50.648 0 0 1-.459 6.89c-.132.975-.295 1.954-.648 2.871-.254.661-.608 1.297-.69 2-.066.563.05 1.129.163 1.684.059.283.144.603.402.734.208.105.471.042.656-.1.185-.143.305-.353.407-.563.707-1.468.7-3.17 1.133-4.74.27-.98.71-1.905.982-2.885.197-.706.304-1.434.385-2.163.21-1.86.256-3.739.14-5.607-.673.213-1.415.367-2.059.653"/>
        <path id="c" d="M.034.04h11.934v9.665H.034z"/>
        <path id="e" d="M2.435 1.139c-.485.515-.743 1.2-.962 1.873C.888 4.817.5 6.68.112 8.538a5.747 5.747 0 0 1 2.85 1.05l.465-1.277c.797 1.44.722 3.218.303 4.811-.418 1.593-1.15 3.087-1.622 4.665a18.238 18.238 0 0 0-.636 3.24l1.684 1.277c.29.22.585.443.918.59.328.146.686.215 1.043.253 2.322.25 4.64-.76 6.435-2.259.234-.195.467-.406.6-.682.102-.213.138-.453.17-.688a53.48 53.48 0 0 0 .39-11.018c.504-.145 1.041-.021 1.565.028.523.049 1.118-.01 1.459-.41.284-.334.311-.81.324-1.25.027-.896.051-1.81-.2-2.67-.39-1.327-1.425-2.41-2.66-3.028C11.964.554 10.545.372 9.168.464c.26.442.039 1.003-.197 1.459C8.364 3.1 7.584 4.307 6.35 4.783l-.562-2.092C5.631 2.107 5.562 1.1 5.225.604c-.172-.252-.451-.35-.771-.35-.727 0-1.664.508-2.019.885"/>
        <path id="g" d="M2.435 1.139c-.485.515-.743 1.2-.962 1.873C.888 4.817.5 6.68.112 8.538a5.747 5.747 0 0 1 2.85 1.05l.465-1.277c.797 1.44.722 3.218.303 4.811-.418 1.593-1.15 3.087-1.622 4.665a18.238 18.238 0 0 0-.636 3.24l1.684 1.277c.29.22.585.443.918.59.328.146.686.215 1.043.253 2.322.25 4.64-.76 6.435-2.259.234-.195.467-.406.6-.682.102-.213.138-.453.17-.688a53.48 53.48 0 0 0 .39-11.018c.504-.145 1.041-.021 1.565.028.523.049 1.118-.01 1.459-.41.284-.334.311-.81.324-1.25.027-.896.051-1.81-.2-2.67-.39-1.327-1.425-2.41-2.66-3.028C11.964.554 10.545.372 9.168.464c.26.442.039 1.003-.197 1.459C8.364 3.1 7.584 4.307 6.35 4.783l-.562-2.092C5.631 2.107 5.562 1.1 5.225.604c-.172-.252-.451-.35-.771-.35-.727 0-1.664.508-2.019.885"/>
        <path id="i" d="M2.435 1.139c-.485.515-.743 1.2-.962 1.873C.888 4.817.5 6.68.112 8.538a5.747 5.747 0 0 1 2.85 1.05l.465-1.277c.797 1.44.722 3.218.303 4.811-.418 1.593-1.15 3.087-1.622 4.665a18.238 18.238 0 0 0-.636 3.24l1.684 1.277c.29.22.585.443.918.59.328.146.686.215 1.043.253 2.322.25 4.64-.76 6.435-2.259.234-.195.467-.406.6-.682.102-.213.138-.453.17-.688a53.48 53.48 0 0 0 .39-11.018c.504-.145 1.041-.021 1.565.028.523.049 1.118-.01 1.459-.41.284-.334.311-.81.324-1.25.027-.896.051-1.81-.2-2.67-.39-1.327-1.425-2.41-2.66-3.028C11.964.554 10.545.372 9.168.464c.26.442.039 1.003-.197 1.459C8.364 3.1 7.584 4.307 6.35 4.783l-.562-2.092C5.631 2.107 5.562 1.1 5.225.604c-.172-.252-.451-.35-.771-.35-.727 0-1.664.508-2.019.885"/>
        <path id="k" d="M2.435 1.139c-.485.515-.743 1.2-.962 1.873C.888 4.817.5 6.68.112 8.538a5.747 5.747 0 0 1 2.85 1.05l.465-1.277c.797 1.44.722 3.218.303 4.811-.418 1.593-1.15 3.087-1.622 4.665a18.238 18.238 0 0 0-.636 3.24l1.684 1.277c.29.22.585.443.918.59.328.146.686.215 1.043.253 2.322.25 4.64-.76 6.435-2.259.234-.195.467-.406.6-.682.102-.213.138-.453.17-.688a53.48 53.48 0 0 0 .39-11.018c.504-.145 1.041-.021 1.565.028.523.049 1.118-.01 1.459-.41.284-.334.311-.81.324-1.25.027-.896.051-1.81-.2-2.67-.39-1.327-1.425-2.41-2.66-3.028C11.964.554 10.545.372 9.168.464c.26.442.039 1.003-.197 1.459C8.364 3.1 7.584 4.307 6.35 4.783l-.562-2.092C5.631 2.107 5.562 1.1 5.225.604c-.172-.252-.451-.35-.771-.35-.727 0-1.664.508-2.019.885"/>
        <path id="m" d="M2.435 1.139c-.485.515-.743 1.2-.962 1.873C.888 4.817.5 6.68.112 8.538a5.747 5.747 0 0 1 2.85 1.05l.465-1.277c.797 1.44.722 3.218.303 4.811-.418 1.593-1.15 3.087-1.622 4.665a18.238 18.238 0 0 0-.636 3.24l1.684 1.277c.29.22.585.443.918.59.328.146.686.215 1.043.253 2.322.25 4.64-.76 6.435-2.259.234-.195.467-.406.6-.682.102-.213.138-.453.17-.688a53.48 53.48 0 0 0 .39-11.018c.504-.145 1.041-.021 1.565.028.523.049 1.118-.01 1.459-.41.284-.334.311-.81.324-1.25.027-.896.051-1.81-.2-2.67-.39-1.327-1.425-2.41-2.66-3.028C11.964.554 10.545.372 9.168.464c.26.442.039 1.003-.197 1.459C8.364 3.1 7.584 4.307 6.35 4.783l-.562-2.092C5.631 2.107 5.562 1.1 5.225.604c-.172-.252-.451-.35-.771-.35-.727 0-1.664.508-2.019.885"/>
        <path id="o" d="M2.435 1.139c-.485.515-.743 1.2-.962 1.873C.888 4.817.5 6.68.112 8.538a5.747 5.747 0 0 1 2.85 1.05l.465-1.277c.797 1.44.722 3.218.303 4.811-.418 1.593-1.15 3.087-1.622 4.665a18.238 18.238 0 0 0-.636 3.24l1.684 1.277c.29.22.585.443.918.59.328.146.686.215 1.043.253 2.322.25 4.64-.76 6.435-2.259.234-.195.467-.406.6-.682.102-.213.138-.453.17-.688a53.48 53.48 0 0 0 .39-11.018c.504-.145 1.041-.021 1.565.028.523.049 1.118-.01 1.459-.41.284-.334.311-.81.324-1.25.027-.896.051-1.81-.2-2.67-.39-1.327-1.425-2.41-2.66-3.028C11.964.554 10.545.372 9.168.464c.26.442.039 1.003-.197 1.459C8.364 3.1 7.584 4.307 6.35 4.783l-.562-2.092C5.631 2.107 5.562 1.1 5.225.604c-.172-.252-.451-.35-.771-.35-.727 0-1.664.508-2.019.885"/>
        <path id="q" d="M2.435 1.139c-.485.515-.743 1.2-.962 1.873C.888 4.817.5 6.68.112 8.538a5.747 5.747 0 0 1 2.85 1.05l.465-1.277c.797 1.44.722 3.218.303 4.811-.418 1.593-1.15 3.087-1.622 4.665a18.238 18.238 0 0 0-.636 3.24l1.684 1.277c.29.22.585.443.918.59.328.146.686.215 1.043.253 2.322.25 4.64-.76 6.435-2.259.234-.195.467-.406.6-.682.102-.213.138-.453.17-.688a53.48 53.48 0 0 0 .39-11.018c.504-.145 1.041-.021 1.565.028.523.049 1.118-.01 1.459-.41.284-.334.311-.81.324-1.25.027-.896.051-1.81-.2-2.67-.39-1.327-1.425-2.41-2.66-3.028C11.964.554 10.545.372 9.168.464c.26.442.039 1.003-.197 1.459C8.364 3.1 7.584 4.307 6.35 4.783l-.562-2.092C5.631 2.107 5.562 1.1 5.225.604c-.172-.252-.451-.35-.771-.35-.727 0-1.664.508-2.019.885"/>
        <path id="s" d="M2.435 1.139c-.485.515-.743 1.2-.962 1.873C.888 4.817.5 6.68.112 8.538a5.747 5.747 0 0 1 2.85 1.05l.465-1.277c.797 1.44.722 3.218.303 4.811-.418 1.593-1.15 3.087-1.622 4.665a18.238 18.238 0 0 0-.636 3.24l1.684 1.277c.29.22.585.443.918.59.328.146.686.215 1.043.253 2.322.25 4.64-.76 6.435-2.259.234-.195.467-.406.6-.682.102-.213.138-.453.17-.688a53.48 53.48 0 0 0 .39-11.018c.504-.145 1.041-.021 1.565.028.523.049 1.118-.01 1.459-.41.284-.334.311-.81.324-1.25.027-.896.051-1.81-.2-2.67-.39-1.327-1.425-2.41-2.66-3.028C11.964.554 10.545.372 9.168.464c.26.442.039 1.003-.197 1.459C8.364 3.1 7.584 4.307 6.35 4.783l-.562-2.092C5.631 2.107 5.562 1.1 5.225.604c-.172-.252-.451-.35-.771-.35-.727 0-1.664.508-2.019.885"/>
        <path id="u" d="M2.435 1.139c-.485.515-.743 1.2-.962 1.873C.888 4.817.5 6.68.112 8.538a5.747 5.747 0 0 1 2.85 1.05l.465-1.277c.797 1.44.722 3.218.303 4.811-.418 1.593-1.15 3.087-1.622 4.665a18.238 18.238 0 0 0-.636 3.24l1.684 1.277c.29.22.585.443.918.59.328.146.686.215 1.043.253 2.322.25 4.64-.76 6.435-2.259.234-.195.467-.406.6-.682.102-.213.138-.453.17-.688a53.48 53.48 0 0 0 .39-11.018c.504-.145 1.041-.021 1.565.028.523.049 1.118-.01 1.459-.41.284-.334.311-.81.324-1.25.027-.896.051-1.81-.2-2.67-.39-1.327-1.425-2.41-2.66-3.028C11.964.554 10.545.372 9.168.464c.26.442.039 1.003-.197 1.459C8.364 3.1 7.584 4.307 6.35 4.783l-.562-2.092C5.631 2.107 5.562 1.1 5.225.604c-.172-.252-.451-.35-.771-.35-.727 0-1.664.508-2.019.885"/>
        <path id="w" d="M2.435 1.139c-.485.515-.743 1.2-.962 1.873C.888 4.817.5 6.68.112 8.538a5.747 5.747 0 0 1 2.85 1.05l.465-1.277c.797 1.44.722 3.218.303 4.811-.418 1.593-1.15 3.087-1.622 4.665a18.238 18.238 0 0 0-.636 3.24l1.684 1.277c.29.22.585.443.918.59.328.146.686.215 1.043.253 2.322.25 4.64-.76 6.435-2.259.234-.195.467-.406.6-.682.102-.213.138-.453.17-.688a53.48 53.48 0 0 0 .39-11.018c.504-.145 1.041-.021 1.565.028.523.049 1.118-.01 1.459-.41.284-.334.311-.81.324-1.25.027-.896.051-1.81-.2-2.67-.39-1.327-1.425-2.41-2.66-3.028C11.964.554 10.545.372 9.168.464c.26.442.039 1.003-.197 1.459C8.364 3.1 7.584 4.307 6.35 4.783l-.562-2.092C5.631 2.107 5.562 1.1 5.225.604c-.172-.252-.451-.35-.771-.35-.727 0-1.664.508-2.019.885"/>
        <path id="y" d="M2.435 1.139c-.485.515-.743 1.2-.962 1.873C.888 4.817.5 6.68.112 8.538a5.747 5.747 0 0 1 2.85 1.05l.465-1.277c.797 1.44.722 3.218.303 4.811-.418 1.593-1.15 3.087-1.622 4.665a18.238 18.238 0 0 0-.636 3.24l1.684 1.277c.29.22.585.443.918.59.328.146.686.215 1.043.253 2.322.25 4.64-.76 6.435-2.259.234-.195.467-.406.6-.682.102-.213.138-.453.17-.688a53.48 53.48 0 0 0 .39-11.018c.504-.145 1.041-.021 1.565.028.523.049 1.118-.01 1.459-.41.284-.334.311-.81.324-1.25.027-.896.051-1.81-.2-2.67-.39-1.327-1.425-2.41-2.66-3.028C11.964.554 10.545.372 9.168.464c.26.442.039 1.003-.197 1.459C8.364 3.1 7.584 4.307 6.35 4.783l-.562-2.092C5.631 2.107 5.562 1.1 5.225.604c-.172-.252-.451-.35-.771-.35-.727 0-1.664.508-2.019.885"/>
        <path id="A" d="M2.435 1.139c-.485.515-.743 1.2-.962 1.873C.888 4.817.5 6.68.112 8.538a5.747 5.747 0 0 1 2.85 1.05l.465-1.277c.797 1.44.722 3.218.303 4.811-.418 1.593-1.15 3.087-1.622 4.665a18.238 18.238 0 0 0-.636 3.24l1.684 1.277c.29.22.585.443.918.59.328.146.686.215 1.043.253 2.322.25 4.64-.76 6.435-2.259.234-.195.467-.406.6-.682.102-.213.138-.453.17-.688a53.48 53.48 0 0 0 .39-11.018c.504-.145 1.041-.021 1.565.028.523.049 1.118-.01 1.459-.41.284-.334.311-.81.324-1.25.027-.896.051-1.81-.2-2.67-.39-1.327-1.425-2.41-2.66-3.028C11.964.554 10.545.372 9.168.464c.26.442.039 1.003-.197 1.459C8.364 3.1 7.584 4.307 6.35 4.783l-.562-2.092C5.631 2.107 5.562 1.1 5.225.604c-.172-.252-.451-.35-.771-.35-.727 0-1.664.508-2.019.885"/>
        <path id="C" d="M2.435 1.139c-.485.515-.743 1.2-.962 1.873C.888 4.817.5 6.68.112 8.538a5.747 5.747 0 0 1 2.85 1.05l.465-1.277c.797 1.44.722 3.218.303 4.811-.418 1.593-1.15 3.087-1.622 4.665a18.238 18.238 0 0 0-.636 3.24l1.684 1.277c.29.22.585.443.918.59.328.146.686.215 1.043.253 2.322.25 4.64-.76 6.435-2.259.234-.195.467-.406.6-.682.102-.213.138-.453.17-.688a53.48 53.48 0 0 0 .39-11.018c.504-.145 1.041-.021 1.565.028.523.049 1.118-.01 1.459-.41.284-.334.311-.81.324-1.25.027-.896.051-1.81-.2-2.67-.39-1.327-1.425-2.41-2.66-3.028C11.964.554 10.545.372 9.168.464c.26.442.039 1.003-.197 1.459C8.364 3.1 7.584 4.307 6.35 4.783l-.562-2.092C5.631 2.107 5.562 1.1 5.225.604c-.172-.252-.451-.35-.771-.35-.727 0-1.664.508-2.019.885"/>
        <path id="E" d="M2.435 1.139c-.485.515-.743 1.2-.962 1.873C.888 4.817.5 6.68.112 8.538a5.747 5.747 0 0 1 2.85 1.05l.465-1.277c.797 1.44.722 3.218.303 4.811-.418 1.593-1.15 3.087-1.622 4.665a18.238 18.238 0 0 0-.636 3.24l1.684 1.277c.29.22.585.443.918.59.328.146.686.215 1.043.253 2.322.25 4.64-.76 6.435-2.259.234-.195.467-.406.6-.682.102-.213.138-.453.17-.688a53.48 53.48 0 0 0 .39-11.018c.504-.145 1.041-.021 1.565.028.523.049 1.118-.01 1.459-.41.284-.334.311-.81.324-1.25.027-.896.051-1.81-.2-2.67-.39-1.327-1.425-2.41-2.66-3.028C11.964.554 10.545.372 9.168.464c.26.442.039 1.003-.197 1.459C8.364 3.1 7.584 4.307 6.35 4.783l-.562-2.092C5.631 2.107 5.562 1.1 5.225.604c-.172-.252-.451-.35-.771-.35-.727 0-1.664.508-2.019.885"/>
        <path id="G" d="M2.435 1.139c-.485.515-.743 1.2-.962 1.873C.888 4.817.5 6.68.112 8.538a5.747 5.747 0 0 1 2.85 1.05l.465-1.277c.797 1.44.722 3.218.303 4.811-.418 1.593-1.15 3.087-1.622 4.665a18.238 18.238 0 0 0-.636 3.24l1.684 1.277c.29.22.585.443.918.59.328.146.686.215 1.043.253 2.322.25 4.64-.76 6.435-2.259.234-.195.467-.406.6-.682.102-.213.138-.453.17-.688a53.48 53.48 0 0 0 .39-11.018c.504-.145 1.041-.021 1.565.028.523.049 1.118-.01 1.459-.41.284-.334.311-.81.324-1.25.027-.896.051-1.81-.2-2.67-.39-1.327-1.425-2.41-2.66-3.028C11.964.554 10.545.372 9.168.464c.26.442.039 1.003-.197 1.459C8.364 3.1 7.584 4.307 6.35 4.783l-.562-2.092C5.631 2.107 5.562 1.1 5.225.604c-.172-.252-.451-.35-.771-.35-.727 0-1.664.508-2.019.885"/>
        <path id="I" d="M2.435 1.139c-.485.515-.743 1.2-.962 1.873C.888 4.817.5 6.68.112 8.538a5.747 5.747 0 0 1 2.85 1.05l.465-1.277c.797 1.44.722 3.218.303 4.811-.418 1.593-1.15 3.087-1.622 4.665a18.238 18.238 0 0 0-.636 3.24l1.684 1.277c.29.22.585.443.918.59.328.146.686.215 1.043.253 2.322.25 4.64-.76 6.435-2.259.234-.195.467-.406.6-.682.102-.213.138-.453.17-.688a53.48 53.48 0 0 0 .39-11.018c.504-.145 1.041-.021 1.565.028.523.049 1.118-.01 1.459-.41.284-.334.311-.81.324-1.25.027-.896.051-1.81-.2-2.67-.39-1.327-1.425-2.41-2.66-3.028C11.964.554 10.545.372 9.168.464c.26.442.039 1.003-.197 1.459C8.364 3.1 7.584 4.307 6.35 4.783l-.562-2.092C5.631 2.107 5.562 1.1 5.225.604c-.172-.252-.451-.35-.771-.35-.727 0-1.664.508-2.019.885"/>
        <path id="K" d="M2.435 1.139c-.485.515-.743 1.2-.962 1.873C.888 4.817.5 6.68.112 8.538a5.747 5.747 0 0 1 2.85 1.05l.465-1.277c.797 1.44.722 3.218.303 4.811-.418 1.593-1.15 3.087-1.622 4.665a18.238 18.238 0 0 0-.636 3.24l1.684 1.277c.29.22.585.443.918.59.328.146.686.215 1.043.253 2.322.25 4.64-.76 6.435-2.259.234-.195.467-.406.6-.682.102-.213.138-.453.17-.688a53.48 53.48 0 0 0 .39-11.018c.504-.145 1.041-.021 1.565.028.523.049 1.118-.01 1.459-.41.284-.334.311-.81.324-1.25.027-.896.051-1.81-.2-2.67-.39-1.327-1.425-2.41-2.66-3.028C11.964.554 10.545.372 9.168.464c.26.442.039 1.003-.197 1.459C8.364 3.1 7.584 4.307 6.35 4.783l-.562-2.092C5.631 2.107 5.562 1.1 5.225.604c-.172-.252-.451-.35-.771-.35-.727 0-1.664.508-2.019.885"/>
        <path id="M" d="M2.435 1.139c-.485.515-.743 1.2-.962 1.873C.888 4.817.5 6.68.112 8.538a5.747 5.747 0 0 1 2.85 1.05l.465-1.277c.797 1.44.722 3.218.303 4.811-.418 1.593-1.15 3.087-1.622 4.665a18.238 18.238 0 0 0-.636 3.24l1.684 1.277c.29.22.585.443.918.59.328.146.686.215 1.043.253 2.322.25 4.64-.76 6.435-2.259.234-.195.467-.406.6-.682.102-.213.138-.453.17-.688a53.48 53.48 0 0 0 .39-11.018c.504-.145 1.041-.021 1.565.028.523.049 1.118-.01 1.459-.41.284-.334.311-.81.324-1.25.027-.896.051-1.81-.2-2.67-.39-1.327-1.425-2.41-2.66-3.028C11.964.554 10.545.372 9.168.464c.26.442.039 1.003-.197 1.459C8.364 3.1 7.584 4.307 6.35 4.783l-.562-2.092C5.631 2.107 5.562 1.1 5.225.604c-.172-.252-.451-.35-.771-.35-.727 0-1.664.508-2.019.885"/>
        <path id="O" d="M.04.186h5.994v6.936H.04z"/>
    </defs>
    <g fill="none" fill-rule="evenodd">
        <path fill="#585282" d="M13.374 11.116c.434.221.782.579 1.107.941.94 1.05 1.78 2.236 2.146 3.597.2.75.251 1.532.29 2.307.148 2.9.135 5.895-.952 8.587-.073.182-.157.37-.311.492-.182.142-.425.166-.654.186-.28.024-.592.039-.813-.136-.195-.154-.265-.415-.324-.657l-1.15-4.748a44.067 44.067 0 0 0-.499-1.933c-.201-.692-.436-1.373-.621-2.069-.18-.675-.312-1.362-.444-2.048l-.705-3.653c-.306-1.59 2.029-1.326 2.93-.866"/>
        <path fill="#CCB0B0" d="M12.62 26.73c-.133.975-.295 1.954-.649 2.87-.254.662-.608 1.298-.69 2.001-.065.563.05 1.129.164 1.683.058.284.143.604.401.735.208.105.471.042.656-.1.185-.143.306-.353.407-.564.708-1.467.701-3.169 1.133-4.74.27-.98.71-1.905.982-2.884.197-.706.304-1.434.386-2.163.209-1.86.255-3.739.14-5.607-.673.213-1.415.367-2.06.653-.53.236-.412.714-.412 1.226a50.52 50.52 0 0 1-.459 6.89"/>
        <g transform="translate(11.127 17.92)">
            <mask id="b" fill="#fff">
                <use xlink:href="#a"/>
            </mask>
            <path fill="#272231" d="M2.035 12.905c-.036-.355-.25-.85-.603-.913-.208-.037-.35.034-.447.157-.017-.018-.035-.033-.051-.052-.05-.058-.117-.194-.203-.205-.333-.042-.146.504-.038.624.036.04.08.072.122.106-.02.148-.02.296-.01.412.003.05.007.102.03.148.03.06.088.101.148.131.12.062.254.092.387.118.202.04.445.06.578-.097l.003-.005.066.04c.15.09.31.185.487.189a.52.52 0 0 0 .428-.214c-.048.068-.481-.178-.897-.439" mask="url(#b)"/>
        </g>
        <path fill="#CCB0B0" d="M1.826 29.12c.006.183.072.427.254.416a.343.343 0 0 0 .156-.065c.472-.297.968-.62 1.203-1.127.13-.28.168-.594.192-.903a12.65 12.65 0 0 0-.13-3.071c-.133-.798-.342-1.585-.419-2.39-.098-1.03.023-2.07-.04-3.102-.004-.06-.011-.124-.054-.165-.042-.04-.105-.045-.163-.048-.456-.02-1.966-.237-2.105.23-.097.327.031.878.054 1.218.027.405.064.81.108 1.213.183 1.682.485 3.347.7 5.025.119.92.212 1.843.244 2.77"/>
        <path fill="#262433" d="M2.491 42.52c.093 1.124.25 2.243.292 3.37.029.815-.003 1.63-.003 2.446 0 1.986.19 3.973.567 5.923a4.14 4.14 0 0 0 1.438-.138c.126-.035.26-.084.328-.196a.555.555 0 0 0 .055-.274 16806.085 16806.085 0 0 0 .207-7.343c.02-.72.04-1.44 0-2.16-.12-2.112-.766-4.213-.486-6.31.008-.06-1.648-.15-1.8-.15-.79 0-.729.178-.727.924.003 1.303.022 2.608.13 3.908"/>
        <path fill="#1A1725" d="M7.244 54.567l1.557-.05c.093-.004.193-.01.265-.069.062-.05.09-.13.115-.205.432-1.29.867-2.591 1.005-3.943.076-.745.06-1.495.097-2.243.028-.583.087-1.164.146-1.745l.674-6.601c-.026.246-2.997-.232-3.273-.062-.523.322-.147 2.627-.142 3.24a126.339 126.339 0 0 1-.444 11.678"/>
        <path fill="#272231" d="M1.13 34.747a11.672 11.672 0 0 0-.33 4.17c.01.11.025.226.088.319.065.095.171.151.276.2 1.287.61 2.754.68 4.178.738.177.007.36.014.525-.054.453-.186.575-.843 1.035-1.012l.334 1.036c.03.093.065.193.143.252.073.056.17.065.26.073l5.135.427c-.741-3.824-1.015-7.721-1.287-11.607a13.933 13.933 0 0 1-5.265 2.084c-.713.124-1.435.19-2.157.228-.545.028-1.423-.14-1.925.086-.443.199-.414.606-.487 1.034-.116.69-.344 1.35-.523 2.026"/>
        <path fill="#CCB0B0" d="M5.504 9.226l-.208 1.933c-.026.246-.052.5.028.734.06.178.178.331.26.501.205.42.18.91.217 1.376.045.549.182 1.09.404 1.595.03.069.067.141.133.178.104.058.233.002.336-.058 1.081-.627 1.846-1.67 2.577-2.685.1-.139.203-.282.245-.448.056-.22 0-.45-.051-.672a14.27 14.27 0 0 1-.36-3.017c-1.23.043-2.467.086-3.683-.102"/>
        <path fill="#E5C6C6" d="M5.24 4.448c-.296.821-.296 1.717-.273 2.59.021.807.092 1.695.663 2.265.263.263.611.43.973.518 1.321.32 2.746-.431 3.49-1.571.746-1.14.9-2.582.74-3.935-.157-1.33-1.025-3.388-2.71-3.248-.636.052-1.037.686-1.406 1.136-.567.691-1.168 1.392-1.477 2.245"/>
        <path fill="#1A1725" d="M9.553 4.784a1.129 1.129 0 0 0-.074-.4.752.752 0 0 0-.451-.395 1.164 1.164 0 0 0-.553-.037l.018.122a.893.893 0 0 0-.25.072.95.95 0 0 0-.304.235c-.166.188-.265.42-.29.653-.097 0-.195-.003-.293-.008.02-.271-.05-.552-.205-.786a.801.801 0 0 0-.236-.243c-.253-.16-.861-.18-1.142-.036-.432.222-.412.83-.4 1.194l.001.049a.967.967 0 0 0 .06.363c.039.09.102.175.188.251.182.16.422.246.666.246.117 0 .236-.02.35-.06.292-.107.525-.352.64-.65.131.006.262.013.393.013a.9.9 0 0 0 .64.668c.091.022.181.028.264.028l.088-.002c.141-.005.304-.016.455-.093.199-.101.347-.307.408-.564.05-.211.038-.429.027-.62"/>
        <g transform="translate(2.164 .27)">
            <mask id="d" fill="#fff">
                <use xlink:href="#c"/>
            </mask>
            <path fill="#2B2731" d="M11.758 5.076A17.152 17.152 0 0 1 9.367 2.42c-.385-.529-.75-1.092-1.278-1.478C7.704.661 7.001.315 6.51.46c-.142.041-.222.105-.261.182C5.942.24 5.386.022 4.898.04c-.697.027-1.334.438-1.801.958-.468.52-.796 1.147-1.147 1.752-.502.866-1.058 1.7-1.666 2.494-.113.148-.233.307-.248.493-.015.18.07.353.155.514l.919 1.758c.318.61.72 1.284 1.392 1.421.223.046.498 0 .603-.203a.633.633 0 0 0 .054-.254C3.246 7.58 2.627 6.157 3 4.812c.15-.542.454-1.026.753-1.503.328-.522.666-1.055 1.153-1.433.296-.23.636-.392.983-.53.197-.077.383-.105.475-.184.132.21.317.416.41.549.464.663.933 1.336 1.208 2.098.105.291.181.594.198.903.015.272-.015.544-.046.814L8.001 6.7c-.035.31-.07.622-.13.929-.039.2-.089.4-.193.575-.19.32-.537.514-.778.798-.023.027-.046.058-.045.094 0 .045.038.08.074.109.224.182.46.36.736.448.275.089.6.072.824-.11.13-.105.216-.255.302-.398.182-.301.382-.591.6-.867.081-.104.168-.208.282-.274.114-.065.247-.087.376-.111.242-.045.487-.102.702-.223.216-.12.401-.313.463-.552.06-.234-.003-.48-.017-.721-.015-.242.04-.52.251-.64.174-.099.444-.089.508-.279.051-.15-.08-.296-.198-.402" mask="url(#d)"/>
        </g>
        <path fill="#CAC5C4" d="M2.435 11.627c-.485.515-.743 1.2-.961 1.873-.586 1.806-.975 3.668-1.362 5.526a5.747 5.747 0 0 1 2.85 1.05c.156-.425.31-.851.465-1.277.797 1.44.722 3.218.304 4.811-.419 1.593-1.15 3.087-1.623 4.665a18.212 18.212 0 0 0-.636 3.24l1.684 1.277c.29.22.584.443.918.591a3.49 3.49 0 0 0 1.043.253c2.322.25 4.64-.762 6.435-2.26.234-.195.467-.406.6-.681.102-.214.138-.453.17-.689.51-3.646.64-7.344.39-11.018.504-.145 1.041-.02 1.565.028.523.05 1.118-.009 1.459-.41.285-.334.311-.81.324-1.249.027-.896.05-1.81-.2-2.67-.389-1.328-1.424-2.411-2.66-3.028-1.236-.617-2.655-.799-4.033-.707.26.443.04 1.003-.195 1.46-.608 1.176-1.389 2.382-2.622 2.86l-.562-2.093c-.157-.584-.226-1.591-.563-2.087-.561-.824-2.278-.008-2.79.535"/>
        <g>
            <g transform="translate(0 10.488)">
                <mask id="f" fill="#fff">
                    <use xlink:href="#e"/>
                </mask>
                <path fill="#B5AEAC" d="M2.371 1.226c.576-.002 1.143-.08 1.672.153.476.209.967.22 1.479.2.637-.024.64-1.019 0-.995-.314.012-.65.043-.954-.06-.225-.076-.411-.21-.644-.264C3.436.147 2.868.23 2.371.232c-.639.003-.64.997 0 .994" mask="url(#f)"/>
            </g>
            <g transform="translate(0 10.488)">
                <mask id="h" fill="#fff">
                    <use xlink:href="#g"/>
                </mask>
                <path fill="#B5AEAC" d="M.723 2.548c.688.408 1.387.451 2.173.367.51-.055 1.004-.145 1.517-.098.423.038.803.137 1.23.1.632-.053.638-1.047 0-.994-.676.057-1.335-.153-2.026-.093-.83.072-1.622.316-2.393-.14-.55-.328-1.05.531-.5.858" mask="url(#h)"/>
            </g>
            <g transform="translate(0 10.488)">
                <mask id="j" fill="#fff">
                    <use xlink:href="#i"/>
                </mask>
                <path fill="#B5AEAC" d="M.26 4.318c.772.155 1.564.318 2.356.262.39-.027.778-.158 1.171-.093.342.057.649.233.998.284.625.09.895-.868.264-.96-.617-.089-1.122-.382-1.761-.323-.98.09-1.788.067-2.764-.129-.624-.125-.89.834-.264.96" mask="url(#j)"/>
            </g>
            <g transform="translate(0 10.488)">
                <mask id="l" fill="#fff">
                    <use xlink:href="#k"/>
                </mask>
                <path fill="#B5AEAC" d="M-.143 5.647c1.336.199 2.584-.164 3.917.025.624.088.894-.87.263-.96-.639-.09-1.295-.171-1.94-.092-.69.085-1.271.173-1.976.068-.625-.092-.894.866-.264.96" mask="url(#l)"/>
            </g>
            <g transform="translate(0 10.488)">
                <mask id="n" fill="#fff">
                    <use xlink:href="#m"/>
                </mask>
                <path fill="#B5AEAC" d="M-1.012 7.168c.6.387 1.016.452 1.712.365.756-.096 1.555-.032 2.318-.032.639 0 .64-.994 0-.995-.583 0-1.166-.003-1.748 0-.656.003-1.182.19-1.78-.197-.539-.348-1.037.513-.502.86" mask="url(#n)"/>
            </g>
            <g transform="translate(0 10.488)">
                <mask id="p" fill="#fff">
                    <use xlink:href="#o"/>
                </mask>
                <path fill="#B5AEAC" d="M2.977 8.128c-1.001-.003-2.23-.246-3.08.387-.508.377-.014 1.24.5.858.65-.482 1.8-.252 2.58-.25.64 0 .64-.994 0-.995" mask="url(#p)"/>
            </g>
            <g transform="translate(0 10.488)">
                <mask id="r" fill="#fff">
                    <use xlink:href="#q"/>
                </mask>
                <path fill="#B5AEAC" d="M10.59 1.738c1.05-.333 2.081-.247 3.164-.261.915-.012 1.767-.17 2.646-.424.613-.178.352-1.138-.264-.96-1.92.556-3.921.087-5.81.686-.607.193-.348 1.153.264.96" mask="url(#r)"/>
            </g>
            <g transform="translate(0 10.488)">
                <mask id="t" fill="#fff">
                    <use xlink:href="#s"/>
                </mask>
                <path fill="#B5AEAC" d="M14.261 1.956c-.905-.034-1.807.07-2.714.01-.637-.04-.635.954 0 .995.907.06 1.809-.05 2.714-.01.838.036 1.59.417 2.42.418.64.002.64-.993 0-.994-.811-.002-1.59-.388-2.42-.42" mask="url(#t)"/>
            </g>
            <g transform="translate(0 10.488)">
                <mask id="v" fill="#fff">
                    <use xlink:href="#u"/>
                </mask>
                <path fill="#B5AEAC" d="M11.287 3.705a.462.462 0 0 0-.19.07c-.068-.312-.38-.558-.698-.316-1.474 1.124-3.075 1.645-4.885 1.936-.63.1-.363 1.06.263.959 1.883-.302 3.593-.87 5.123-2.036.02-.015.036-.032.053-.049.07.235.29.442.598.395 1.604-.248 3.384-.039 5.008-.037.638 0 .64-.995 0-.995-1.719-.001-3.57-.19-5.272.073" mask="url(#v)"/>
            </g>
            <g transform="translate(0 10.488)">
                <mask id="x" fill="#fff">
                    <use xlink:href="#w"/>
                </mask>
                <path fill="#B5AEAC" d="M17.044 5.455c-1.588-.111-3.132-.267-4.728-.184a.488.488 0 0 0-.468.42.444.444 0 0 0-.422.035c-.478.286-1.148.226-1.683.355-.535.129-1.005.337-1.556.409-1.239.16-2.546.06-3.794.067-.639.004-.64.998 0 .994.922-.005 1.89.053 2.836.022-.83.097-1.656.225-2.48.401-.623.134-.36 1.093.265.959 2.141-.458 4.31-.572 6.492-.66a.473.473 0 0 0 .44-.313c.087.205.292.36.57.288 1.104-.285 2.228-.248 3.357-.198.64.028.638-.966 0-.995-1.221-.054-2.428-.074-3.62.234a.445.445 0 0 0-.312.252.426.426 0 0 0-.435-.263c-.96.039-1.917.086-2.87.161.684-.123 1.315-.395 2.009-.494.487-.07.848-.1 1.282-.36a.458.458 0 0 0 .231-.338.5.5 0 0 0 .158.018c1.596-.082 3.14.074 4.728.185.637.045.635-.95 0-.995" mask="url(#x)"/>
            </g>
            <g transform="translate(0 10.488)">
                <mask id="z" fill="#fff">
                    <use xlink:href="#y"/>
                </mask>
                <path fill="#B5AEAC" d="M13.637 9.483c-1.6-.195-3.219-.36-4.79.094-1.732.5-3.236.442-5.02.539-.636.034-.64 1.029 0 .994 1.496-.081 2.964.171 4.421-.274 1.85-.564 3.47-.592 5.389-.359.632.078.627-.918 0-.994" mask="url(#z)"/>
            </g>
            <g transform="translate(0 10.488)">
                <mask id="B" fill="#fff">
                    <use xlink:href="#A"/>
                </mask>
                <path fill="#B5AEAC" d="M2.897 12.437c1.806.019 3.617.034 5.414-.183 1.72-.208 3.387-.801 5.133-.642.636.058.632-.937 0-.995-1.612-.147-3.093.333-4.67.577-1.94.301-3.92.268-5.877.248-.64-.006-.64.988 0 .995" mask="url(#B)"/>
            </g>
            <g transform="translate(0 10.488)">
                <mask id="D" fill="#fff">
                    <use xlink:href="#C"/>
                </mask>
                <path fill="#B5AEAC" d="M14.184 12.94c-3.82-.602-7.655.45-11.526.188-.637-.043-.635.952 0 .994 1.9.129 3.8.124 5.696-.071 1.915-.197 3.63-.458 5.566-.153.625.099.894-.86.264-.959" mask="url(#D)"/>
            </g>
            <g transform="translate(0 10.488)">
                <mask id="F" fill="#fff">
                    <use xlink:href="#E"/>
                </mask>
                <path fill="#B5AEAC" d="M13.367 14.52c-2.27.097-4.307-.133-6.502.57-2.045.653-4.12.213-6.176.716-.62.152-.358 1.11.264.959 1.867-.456 3.789-.006 5.653-.549 1.117-.326 2.078-.666 3.27-.715 1.164-.047 2.326.064 3.49.014.637-.028.64-1.022 0-.995" mask="url(#F)"/>
            </g>
            <g transform="translate(0 10.488)">
                <mask id="H" fill="#fff">
                    <use xlink:href="#G"/>
                </mask>
                <path fill="#B5AEAC" d="M12.96 16.354c-1.03-.07-2.068-.14-3.091.045-1.091.197-2.034.743-3.155.84-1.974.169-3.865-.052-5.836.348-.626.127-.36 1.086.264.959 2.06-.418 4.08-.081 6.126-.37.687-.098 1.3-.375 1.956-.58 1.254-.394 2.447-.336 3.737-.247.637.044.635-.951 0-.995" mask="url(#H)"/>
            </g>
            <g transform="translate(0 10.488)">
                <mask id="J" fill="#fff">
                    <use xlink:href="#I"/>
                </mask>
                <path fill="#B5AEAC" d="M12.887 18.285c-2.4.195-4.681-.168-7.017.571-2.646.837-5.158.274-7.863.329-.638.012-.64 1.007 0 .994 2.372-.047 4.801.53 7.142-.055 1.217-.305 2.304-.752 3.586-.818 1.386-.07 2.764.086 4.152-.026.632-.051.638-1.046 0-.995" mask="url(#J)"/>
            </g>
            <g transform="translate(0 10.488)">
                <mask id="L" fill="#fff">
                    <use xlink:href="#K"/>
                </mask>
                <path fill="#B5AEAC" d="M12.025 21.144a46.09 46.09 0 0 1-5.372.196c-1.529-.027-2.793.486-4.283.609-.632.052-.637 1.047 0 .995 1.468-.122 2.78-.636 4.283-.609 1.8.032 3.58-.02 5.372-.196.63-.062.636-1.058 0-.995" mask="url(#L)"/>
            </g>
            <g transform="translate(0 10.488)">
                <mask id="N" fill="#fff">
                    <use xlink:href="#M"/>
                </mask>
                <path fill="#2B2731" d="M9.565-.198c-.636.6-.996 1.34-1.365 2.122-.406.855-.89 1.567-1.605 2.138-.29-.564-.598-1.146-.749-1.745-.176-.7-.122-1.448-.238-2.16-.101-.63-1.058-.363-.957.264.13.808.054 1.64.319 2.425.257.763.668 1.485 1.013 2.21.113.236.467.313.68.178.823-.524 1.51-1.189 2.002-2.038.531-.917.811-1.946 1.601-2.691.467-.44-.236-1.142-.701-.703" mask="url(#N)"/>
            </g>
        </g>
        <g>
            <path fill="#544F60" d="M3.428 57.338c-.072.447-.239.868-.638 1.132-.21.139-.46.195-.687.301-.583.274-.98.906-.971 1.552 0 .065.006.134.045.187.048.066.134.09.213.106 1.014.206 2.048-.15 3.022-.5.157-.057.323-.12.427-.251.08-.102.112-.233.14-.36.406-1.774.586-3.6.535-5.42-.006-.19-.037-.29-.225-.313-.223-.027-.461-.01-.684.005a6.192 6.192 0 0 0-1.315.226c.002-.001.146 1.117.155 1.22.033.42.046.842.04 1.263a6.005 6.005 0 0 1-.057.852"/>
            <g transform="translate(3.09 53.839)">
                <mask id="P" fill="#fff">
                    <use xlink:href="#O"/>
                </mask>
                <path fill="#635F70" d="M3.376 4.225c-.065.267-.133.542-.299.76-.357.47-1.079.312-1.584.278-.315-.021-.646-.011-.925.138A1.04 1.04 0 0 0 .07 6.545a.645.645 0 0 0 .088.204c.096.14.26.22.424.27.375.113.775.107 1.167.1.906-.018 1.935-.366 2.748-.75.164-.079.332-.168.437-.316.089-.124.124-.278.157-.427.37-1.67.68-3.354.932-5.046.015-.101.025-.217-.045-.29C5.92.228 5.828.22 5.744.216 4.59.159 4.378.055 4.096 1.23c-.24.998-.472 1.999-.72 2.995" mask="url(#P)"/>
            </g>
            <path fill="#6E6A82" d="M3.846 10.64c-.177.26-.194.592-.205.906-.08 2.188-.16 4.38-.063 6.567a40.36 40.36 0 0 0 .378 3.997c.36-.244.37-.759.351-1.193-.145-3.3.16-6.62.902-9.84.219-.948-.892-1.13-1.363-.437M11.226 10.643c.09 0 .191.004.25.072.048.056.051.136.052.21.01 1.18.027 2.365.209 3.53.317 2.036 1.136 3.98 1.311 6.034.046.541.047 1.085.048 1.628 0 .483-.09 1.094-.554 1.224-.43-1.04-.863-2.083-1.158-3.17-.244-.899-.393-1.82-.568-2.736-.372-1.947-.865-3.868-1.368-5.785-.35-1.33.917-1.002 1.778-1.007"/>
        </g>
    </g>
</svg>
