<svg xmlns="http://www.w3.org/2000/svg" xmlns:xlink="http://www.w3.org/1999/xlink" width="21" height="27" viewBox="0 0 21 27">
    <defs>
        <path id="a" d="M.048.184h18.155v12.158H.048z"/>
    </defs>
    <g fill="none" fill-rule="evenodd">
        <path fill="#281313" d="M16.95 1.368c.171.342.234.727.265 1.108.073.89-.024 1.813-.41 2.619-.388.806-1.09 1.485-1.953 1.722.394-.565.453-1.294.453-1.983 0-.632-.04-1.264-.12-1.892-.064-.515-.297-1.132-.222-1.653.165-1.134 1.594-.702 1.987.08"/>
        <path fill="#353535" d="M16.226 23.676c-.452-.672-.796-1.416-1.294-2.056-.422-.54-.95-1-1.545-1.342-.06-.034-.128-.076-.139-.145-.012-.073.046-.136.098-.187l1.299-1.257 1.208 1.029.438.373 1.782 1.517c.407.346.817.697 1.137 1.125.32.428.545.947.528 1.48-.004.158-.037.326-.15.434a.732.732 0 0 1-.273.14c-.671.232-1.16.55-1.814.171-.308-.178-1.275-.879-1.275-1.282M2.984 18.455c-.256-.11-.551-.276-.563-.554-.013-.285.281-.478.547-.583 1.03-.409 2.171-.407 3.28-.4.448.004.899.007 1.335.103.644.141 1.227.475 1.78.834.57.37 1.12.77 1.649 1.199.36.292.301.34.156.771l-.351 1.046c-.011.033-.024.07-.053.09-.032.021-.075.018-.113.014a8.42 8.42 0 0 1-1.052-.153c-.537-.125-1.03-.369-1.552-.535-.57-.182-1.143-.353-1.71-.546a47.24 47.24 0 0 1-3.353-1.286"/>
        <g transform="translate(2.655 13.183)">
            <mask id="b" fill="#fff">
                <use xlink:href="#a"/>
            </mask>
            <path fill="#21160A" d="M12.842 2.028c.435.06.874.076 1.313.081.467.005 1.383.011 1.71-.399.024-.03.047-.066.084-.077.073-.022.129.064.157.134.511 1.291.885 2.67 1.291 4.003.395 1.296.799 2.692.799 4.058.019.455.006.92-.137 1.351-.143.433-.431.833-.845 1.025-.666.309-1.528.054-2.124-.307-.612-.37-.639-1.112-.738-1.778a7.918 7.918 0 0 0-1.149-3.079c-.337-.529-.746-1.026-1.273-1.365-.376-.242-.801-.397-1.23-.525-.96-.284-1.955-.438-2.946-.59l-2.757-.424c-.884-.135-1.814-.267-2.652.044-.42.156-.797.417-1.227.542-.346.1-.784.074-.98-.228-.149-.227-.1-.54.046-.769.147-.228.373-.392.594-.55.555-.396 1.18-.76 1.674-1.23.414-.392.726-.587 1.326-.67.28-.038.564-.043.846-.055a16.802 16.802 0 0 0 3.38-.492c.183-.046.375-.097.542-.187.112-.061.323-.327.412-.35.318-.078.655.462.915.647a6.713 6.713 0 0 0 2.97 1.19" mask="url(#b)"/>
        </g>
        <path fill="#C59371" d="M12.464 14.526c.142.12.295.226.446.317a5.787 5.787 0 0 0 4.6.568c.325-.099.67-.2.95-.4.208-.147.223-.174.09-.372a1.62 1.62 0 0 1-.227-.449c-.056-.188.012-.436-.174-.528-.288-.142-.726.158-.993.244-.208.068-.418.142-.636.147-.255.005-.501-.085-.74-.173l-2.579-.954c-.1-.036-1.372-.303-1.386-.238-.04.192-.255.54-.22.723.018.086.13.15.178.218.073.104.112.23.181.337.134.205.313.395.51.56"/>
        <path fill="#DCA27C" d="M.496 17.323c-.166.264-.205.564-.283.965-.02.106-.04.22.002.319.043.1.176.167.264.103a1.27 1.27 0 0 0 .218-.855.268.268 0 0 1 .21.037c.048.127-.046.258-.13.364-.338.432-.657.907-.777 1.448.16.064.335.086.506.063.327-.046.608-.251.854-.471 1.116-.997 1.967-2.316 2.957-3.435l3.747-4.236c.96-1.086 1.94-2.202 2.47-3.55a6.24 6.24 0 0 0 .418-2.706.484.484 0 0 0-.043-.197c-.106-.198-.397-.167-.607-.09-.885.33-1.613 1.004-2.136 1.79-.523.786-.856 1.682-1.124 2.587-.081.276-.158.556-.296.808-.22.402-.58.705-.895 1.039-.839.888-1.372 2.014-2.073 3.014a10.335 10.335 0 0 1-1.679 1.873c-.36.313-.822.463-1.21.735a1.394 1.394 0 0 0-.393.395"/>
        <path fill="#C59371" d="M9.974 18.614c-.131-.051-.29-.187-.203-.298.329.06.65-.106.973-.183.805-.19 1.677.163 2.466-.087.216-.068.418-.18.638-.232.221-.052.48-.032.637.131.25.26.112.691.2 1.041a.937.937 0 0 0-.803.574c-.074.184-.087.391-.174.57-.087.18-.295.331-.479.254-.055-.023-.1-.063-.145-.102-.905-.79-2.006-1.236-3.11-1.668"/>
        <path fill="#DCA27C" d="M10.942 19.685c.05-.12.104-.239.184-.34.235-.3.645-.385 1.02-.45.125-.021.254-.043.375-.009.281.08.397.404.504.676.163.415.401.801.7 1.134.142.158.297.305.43.47a2.34 2.34 0 0 1 .471 1.862c-.041.228-.135.47-.34.578-.182-.722-.952-1.105-1.638-1.395-.312-.132-.629-.267-.896-.475-.193-.15-.355-.337-.55-.484-.14-.107-.46-.184-.562-.296-.252-.277.157-.932.302-1.271"/>
        <path fill="#C59371" d="M16.028 5.785c.034.153.01.311-.016.465a13.892 13.892 0 0 1-1.969 5.11c-.11.173-.23.35-.413.441-.154.079-.334.086-.507.092l-.912.03c-.187.007-.383.012-.554-.067a1.01 1.01 0 0 1-.34-.292c-.63-.77-.83-1.82-.754-2.812.076-.992.4-1.946.723-2.887.097-.283.202-.578.417-.787.15-.145.343-.236.536-.315.626-.253 1.756-.646 2.409-.32.38.188 1.287.932 1.38 1.342"/>
        <path fill="#1F9894" d="M14.405 9.616c-.209.456-.43.92-.784 1.274-.354.355-.873.587-1.361.472-.772-.181-1.116-1.084-1.199-1.871a7.04 7.04 0 0 1 .412-3.21c.075-.196.12-.332.119-.533-.002-.181.018-.35.093-.517.039-.084.089-.17.08-.262a1.601 1.601 0 0 1-.519-.33c-.268.149-.383.632-.498.903-.146.349-.277.704-.392 1.065-.23.72-.396 1.462-.503 2.21-.021.152-.04.305-.04.459.002.286.074.568.146.846.253.984.54 2.025 1.289 2.713.414.38.939.619 1.462.826 1.045.412 2.129.725 3.233.933.227.042.506.062.645-.122.085-.114.085-.269.08-.41l-.06-2.107c-.727.03-1.188-.803-1.236-1.528-.07-1.064.35-2.1.87-3.032.147-.265.258-.521.517-.703.171-.12.392-.183.593-.126l-.35-.334c-.27-.258-.57-.572-.928-.702-.162.256-.283.612-.4.9-.141.353-.277.71-.412 1.065-.27.713-.54 1.427-.857 2.121"/>
        <path fill="#3E2826" d="M12.217.635c.202-.169.423-.313.645-.424.8-.4 1.688-.205 2.353.362.609.52 1.04 1.275 1.064 2.075.025.8-.4 1.623-1.118 1.978-.152.075-.327.13-.488.08-.19-.059-.308-.241-.43-.399-.528-.68-1.34-1.032-2.015-1.536-.441-.33-1.005-.652-.726-1.243a2.71 2.71 0 0 1 .715-.893"/>
        <path fill="#DCA27C" d="M11.06 2.71c-.352 1.28.093 2.64.65 3.845.067.144.145.298.288.368a.645.645 0 0 0 .307.044 3.223 3.223 0 0 0 2.538-1.437c.03-.047.061-.096.106-.131.051-.04.116-.058.178-.08.52-.174.916-.672.968-1.217.02-.203-.045-.458-.244-.5-.339-.073-.456.514-.794.59l-.408-.893c-.107-.233-.215-.469-.38-.665a1.475 1.475 0 0 0-1.723-.367c.149-.072-.536-.665-.8-.591-.372.105-.596.71-.686 1.034M17.079 21.693c-.192-.95-.405-1.897-.574-2.858-.197-1.126-.353-2.262-.408-3.405-.014-.291.16-3.309.167-3.306-.6-.252-.937-.92-.984-1.568-.029-.407.038-.812.135-1.206.092-.376.114-.782.255-1.138l.583-1.478a.528.528 0 0 1 .107-.188.417.417 0 0 1 .146-.087c.683-.262 1.051.253 1.25.823.29.835.505 1.695.644 2.568.098.611.157 1.23.141 1.849-.026 1.042-.267 2.073-.248 3.115.019 1.046.174 2.076.321 3.111a17.85 17.85 0 0 1 .171 3.344c-.048.977-.147 1.846.04 2.83.118.63.618 1.704.255 2.308-.1.167-.25.299-.397.427-.375.323-.386-.3-.445-.563-.066-.297-.03-.856-.262-1.063-.086.091-.095.225-.047.357.066.184.202.338.249.527.129.53-.285.333-.418-.036-.234-.651-.218-1.418-.3-2.102-.092-.76-.23-1.512-.381-2.26"/>
    </g>
</svg>
