<?xml version="1.0" encoding="UTF-8"?>
<svg width="52px" height="51px" viewBox="0 0 52 51" version="1.1" xmlns="http://www.w3.org/2000/svg" xmlns:xlink="http://www.w3.org/1999/xlink">
    <!-- Generator: sketchtool 52.4 (67378) - http://www.bohemiancoding.com/sketch -->
    <title>D4B299FC-22C8-404C-87BB-6B3BEB17188D</title>
    <desc>Created with sketchtool.</desc>
    <defs>
        <polygon id="path-1" points="0.20881356 0.0213019354 18.277358 0.0213019354 18.277358 12.4173859 0.20881356 12.4173859"></polygon>
    </defs>
    <g id="Page-1" stroke="none" stroke-width="1" fill="none" fill-rule="evenodd">
        <g id="Final" transform="translate(-371.000000, -6128.000000)">
            <g id="Group-42" transform="translate(371.000000, 6128.000000)">
                <path d="M22.5399457,1.809225 C22.7678469,2.260575 22.8516247,2.7699375 22.8930321,3.27324375 C22.9899704,4.4516625 22.8612543,5.6705625 22.3463901,6.73678125 C21.8315259,7.803 20.8980938,8.70028125 19.749921,9.0136125 C20.2744148,8.26614375 20.3530568,7.3025625 20.3524148,6.391575 C20.3517728,5.5558125 20.2984889,4.71973125 20.1938469,3.890025 C20.1081432,3.209175 19.7983901,2.39349375 19.8985383,1.70499375 C20.1168099,0.20495625 22.0180198,0.77551875 22.5399457,1.809225" id="Fill-1" fill="#281313"></path>
                <path d="M21.5775605,31.3054256 C20.9769926,30.4157944 20.5183012,29.4324506 19.8561037,28.5871256 C19.2953383,27.8715319 18.5933383,27.2649506 17.8021037,26.8126444 C17.7218568,26.7670631 17.6319802,26.7109631 17.6172148,26.6201194 C17.6018074,26.5241756 17.6778815,26.4403444 17.7481778,26.3727694 L19.4747704,24.7108069 C20.0104988,25.1640694 20.5462272,25.6176506 21.0816346,26.0712319 C21.2758321,26.2357069 21.4700296,26.3998631 21.6642272,26.5643381 L24.033437,28.5702319 C24.5746222,29.0282756 25.1206222,29.4917381 25.5459309,30.0578381 C25.9709185,30.6239381 26.270721,31.3102069 26.2482519,32.0159194 C26.2418321,32.2237444 26.1991407,32.4465506 26.0473136,32.5893506 C25.9478074,32.6827444 25.8139556,32.7299194 25.6845975,32.7742256 C24.7922519,33.0811819 24.1432148,33.5019319 23.2726963,33.0005381 C22.863116,32.7646631 21.5775605,31.8380569 21.5775605,31.3054256" id="Fill-3" fill="#353535"></path>
                <path d="M3.96869136,24.4021931 C3.62780247,24.2571619 3.23523457,24.0369056 3.2188642,23.6690681 C3.20217284,23.2926244 3.59377778,23.0366681 3.94654321,22.8976931 C5.31748148,22.3580494 6.83446914,22.3605994 8.30908642,22.3704806 C8.90387654,22.3746244 9.50348148,22.3790869 10.0844691,22.5056306 C10.9402222,22.6920994 11.7157284,23.1338869 12.4504691,23.6078681 C13.209284,24.0968306 13.9414568,24.6265931 14.6434568,25.1933306 C15.1223704,25.5802931 15.0443704,25.6437244 14.8514568,26.2136494 C14.6954568,26.6745619 14.5400988,27.1351556 14.3840988,27.5963869 C14.3693333,27.6400556 14.352321,27.6875494 14.3138025,27.7140056 C14.2711111,27.7430119 14.2149383,27.7388681 14.1635802,27.7334494 C13.6946173,27.6856369 13.2243704,27.6371869 12.765358,27.5310431 C12.0511605,27.3665681 11.3950617,27.0439931 10.7010864,26.8237369 C9.94259259,26.5827619 9.1805679,26.3567681 8.4265679,26.1017681 C6.91953086,25.5914494 5.43207407,25.0247119 3.96869136,24.4021931" id="Fill-5" fill="#353535"></path>
                <path d="M20.6084667,20.1127744 C21.1865654,20.1915056 21.770763,20.2131806 22.3539975,20.2198744 C22.9757506,20.2265681 24.1929358,20.2348556 24.628516,19.6923431 C24.6606148,19.6524994 24.6907877,19.6046869 24.7402198,19.5903431 C24.837158,19.5616556 24.9113062,19.6748119 24.9485407,19.7682056 C25.6283926,21.4747931 26.1262444,23.2989994 26.6661457,25.0600931 C27.1912815,26.7733744 27.7276519,28.6195744 27.7276519,30.4262494 C27.7530099,31.0274119 27.7363185,31.6413244 27.5462938,32.2128431 C27.3562691,32.7843619 26.9720469,33.3141244 26.4221951,33.5678494 C25.5369111,33.9758494 24.3900222,33.6386119 23.5978247,33.1617619 C22.783479,32.6718431 22.7484914,31.6913681 22.6168864,30.8103431 C22.4011827,29.3670431 21.8766889,27.9702806 21.0883432,26.7395869 C20.6405654,26.0402494 20.0964914,25.3836244 19.3951333,24.9348244 C18.8950346,24.6147994 18.3297753,24.4095244 17.7597012,24.2412244 C16.4821704,23.8647806 15.1600222,23.6620556 13.8426889,23.4609244 C12.6206889,23.2741369 11.3983679,23.0870306 10.1760469,22.9002431 C9.00026914,22.7207869 7.76382469,22.5464306 6.64903457,22.9582556 C6.09115802,23.1641681 5.58945432,23.5093744 5.0180963,23.6741681 C4.55812099,23.8064494 3.97520741,23.7720244 3.71360247,23.3739056 C3.51651605,23.0730056 3.58135556,22.6595869 3.77587407,22.3570931 C3.97039259,22.0545994 4.2718,21.8381681 4.56582469,21.6293869 C5.30313333,21.1056806 6.1335284,20.6240494 6.7912321,20.0037619 C7.34172593,19.4848369 7.75644198,19.2272869 8.55473827,19.1173181 C8.92740494,19.0663181 9.30424444,19.0596244 9.68012099,19.0436869 C11.1958247,18.9796181 12.7044667,18.7615931 14.1758741,18.3937556 C14.4182198,18.3331931 14.6734049,18.2656181 14.8948864,18.1464056 C15.0447877,18.0657619 15.3246889,17.7138619 15.4437753,17.6845369 C15.8655531,17.5806244 16.3146148,18.2939869 16.6596765,18.5397431 C17.0477506,18.8164181 17.4579728,19.0615369 17.8852074,19.2728681 C18.7396765,19.6958494 19.662516,19.9833619 20.6084667,20.1127744" id="Fill-7" fill="#21160A"></path>
                <path d="M16.5747432,19.2069506 C16.7641259,19.3650506 16.9663481,19.5059381 17.1676074,19.6264256 C18.9805457,20.7089006 21.2602,20.9887631 23.2840272,20.3770819 C23.7173605,20.2460756 24.1754099,20.1115631 24.5493605,19.8485944 C24.8247679,19.6541569 24.8449901,19.6178194 24.667484,19.3554881 C24.5403728,19.1671069 24.430916,18.9825506 24.3657556,18.7629319 C24.2916074,18.5133506 24.3821259,18.1859944 24.1346444,18.0645506 C23.7513852,17.8768069 23.1691136,18.2733319 22.8144222,18.3874444 C22.5380519,18.4763756 22.2587926,18.5748694 21.9679778,18.5806069 C21.6290148,18.5879381 21.3016074,18.4693631 20.9835086,18.3520631 C19.8404716,17.9322694 18.6977556,17.5121569 17.5547185,17.0917256 C17.4218296,17.0429569 15.7308667,16.6897819 15.7122494,16.7768006 C15.6583235,17.0305256 15.3720025,17.4911194 15.4201506,17.7317756 C15.4432617,17.8458881 15.590916,17.9297194 15.6557556,18.0212006 C15.7533358,18.1582631 15.8053358,18.3243319 15.8971383,18.4655381 C16.0749654,18.7377506 16.3128173,18.9882881 16.5747432,19.2069506" id="Fill-9" fill="#C69471"></path>
                <path d="M0.660046914,22.9046419 C0.438244444,23.2539919 0.38688642,23.6505169 0.283207407,24.1805981 C0.255923457,24.3208481 0.229281481,24.4712981 0.286417284,24.6026231 C0.343232099,24.7339481 0.520096296,24.8228794 0.636614815,24.7384106 C0.865158025,24.4120106 0.970762963,24.0027356 0.92742963,23.6078044 C1.0218,23.5854919 1.12547901,23.6036606 1.20604691,23.6578481 C1.26992346,23.8248731 1.14441728,23.9985919 1.03367654,24.1391606 C0.58397284,24.7090856 0.15962716,25.3376606 9.62962963e-05,26.0529356 C0.21162716,26.1383606 0.445948148,26.1670481 0.672244444,26.1361294 C1.1075037,26.0755669 1.48177531,25.8039919 1.80918272,25.5129731 C3.29214568,24.1955794 4.42491111,22.4513794 5.74096049,20.9723794 C7.40175062,19.1054606 9.06286173,17.2385419 10.7236519,15.3713044 C12.0011827,13.9353356 13.3034296,12.4598419 14.0092815,10.6767544 C14.4577012,9.54455438 14.6486889,8.31258562 14.5642691,7.09878563 C14.5581704,7.00921687 14.5495037,6.91709813 14.5071333,6.83804813 C14.3662198,6.57699188 13.9791086,6.61715438 13.6998494,6.72074812 C12.5224667,7.15616063 11.5546889,8.04770438 10.8594296,9.08651062 C10.1638494,10.1256356 9.72056543,11.3107481 9.36491111,12.5073356 C9.25673827,12.8716669 9.1546642,13.2423731 8.97073827,13.5754669 C8.67799753,14.1071419 8.19908395,14.5078106 7.78051605,14.9489606 C6.66540494,16.1232356 5.95602222,17.6121169 5.02355309,18.9339731 C4.38382469,19.8408169 3.63431852,20.6851856 2.79172593,21.4112981 C2.3115284,21.8250356 1.69844198,22.0232981 1.1829358,22.3822106 C0.939948148,22.5517856 0.776565432,22.7216794 0.660046914,22.9046419" id="Fill-11" fill="#DDA37C"></path>
                <path d="M13.2631457,24.6116756 C13.0888494,24.5441006 12.8786025,24.3640069 12.994158,24.2183381 C13.4303802,24.2961131 13.8569728,24.0777694 14.2877383,23.9760881 C15.3575901,23.7236381 16.5176395,24.1909256 17.5663062,23.8613381 C17.8539111,23.7708131 18.1219358,23.6225944 18.4156395,23.5540631 C18.7090222,23.4848944 19.052479,23.5123069 19.261763,23.7277819 C19.5959111,24.0707569 19.4113432,24.6413194 19.5288247,25.1041444 C19.0672444,25.1274131 18.6323062,25.4359631 18.4602568,25.8621319 C18.3617136,26.1066131 18.3450222,26.3801006 18.2291457,26.6172506 C18.1139111,26.8547194 17.8368988,27.0542569 17.5923062,26.9522569 C17.519442,26.9219756 17.4590963,26.8684256 17.3993926,26.8171069 C16.1953679,25.7732006 14.7319852,25.1825569 13.2631457,24.6116756" id="Fill-13" fill="#C69471"></path>
                <path d="M14.5510123,26.0280094 C14.6184198,25.8705469 14.689037,25.7124469 14.795284,25.5776156 C15.1076049,25.1817281 15.653284,25.0692094 16.1524198,24.9834656 C16.3177284,24.9550969 16.4894568,24.9270469 16.6509136,24.9719906 C17.0245432,25.0774969 17.1779753,25.5058969 17.3201728,25.8648094 C17.5374815,26.4143344 17.8546173,26.9246531 18.250716,27.3645281 C18.4397778,27.5742656 18.6464938,27.7680656 18.823679,27.9870469 C19.3738519,28.6675781 19.6084938,29.5897219 19.4502469,30.4481156 C19.394716,30.7496531 19.2701728,31.0703156 18.9966914,31.2121594 C18.7553086,30.2578219 17.732,29.7519656 16.8197531,29.3681906 C16.4040741,29.1935156 15.9832593,29.0153344 15.627284,28.7399344 C15.3711358,28.5416719 15.1554321,28.2943219 14.896716,28.0998844 C14.7099012,27.9589969 14.2855556,27.8569969 14.1494568,27.7081406 C13.8146667,27.3422156 14.3584198,26.4768094 14.5510123,26.0280094" id="Fill-15" fill="#DDA37C"></path>
                <path d="M21.3136123,7.64977688 C21.3591926,7.85090813 21.3280568,8.06032688 21.2933901,8.26337063 C20.8831679,10.6584581 19.9872914,12.9709894 18.6744519,15.0215081 C18.5290444,15.2487769 18.3679086,15.4824206 18.125884,15.6041831 C17.9204519,15.7077769 17.681637,15.7176581 17.4511679,15.7253081 C17.0470444,15.7386956 16.642921,15.7524019 16.2387975,15.7657894 C15.9890691,15.7740769 15.7284272,15.7804519 15.5014889,15.6759019 C15.3198099,15.5920706 15.1766494,15.4441706 15.0498593,15.2905331 C14.2124025,14.2718081 13.9463037,12.8826956 14.0467728,11.5716769 C14.147242,10.2603394 14.5796123,8.99936438 15.0081309,7.75528312 C15.1374889,7.38011437 15.2761556,6.99028313 15.5631185,6.71424563 C15.7624519,6.52299563 16.018921,6.40187063 16.2757111,6.29827687 C17.1077111,5.96327063 18.6112173,5.44370813 19.4788469,5.87370188 C19.9834395,6.12360187 21.1903531,7.10662687 21.3136123,7.64977688" id="Fill-17" fill="#C69471"></path>
                <path d="M19.1552593,12.7145869 C18.8782469,13.3176619 18.5845432,13.9299806 18.1133333,14.3994994 C17.6421235,14.8690181 16.952642,15.1753369 16.302963,15.0232931 C15.2774074,14.7832744 14.82,13.5892369 14.7095802,12.5488369 C14.5574321,11.1176494 14.7468148,9.65203688 15.2575062,8.30531813 C15.3560494,8.04553688 15.4163951,7.86576188 15.4144691,7.60024312 C15.4128642,7.36086188 15.4388642,7.13805563 15.5393333,6.91716188 C15.5900494,6.80559937 15.6568148,6.69212438 15.6449383,6.57068063 C15.3894321,6.47123063 15.1538272,6.32173687 14.9554568,6.13399312 C14.5985185,6.33066188 14.4450864,6.96943688 14.2932593,7.32803063 C14.0980988,7.78862437 13.9247654,8.25878062 13.7719753,8.73531187 C13.4663951,9.68869313 13.2449136,10.6685306 13.103037,11.6588869 C13.0741481,11.8596994 13.0487901,12.0617869 13.0500741,12.2645119 C13.052321,12.6435056 13.1479753,13.0154869 13.2429877,13.3830056 C13.5800247,14.6841431 13.961358,16.0614619 14.9573827,16.9708556 C15.5088395,17.4741619 16.2057037,17.7890869 16.9019259,18.0625744 C18.2914815,18.6082744 19.733037,19.0220119 21.2012346,19.2961369 C21.503284,19.3525556 21.8737037,19.3786931 22.0582716,19.1348494 C22.1722222,18.9843994 22.1715802,18.7800806 22.1661235,18.5920181 C22.1388395,17.6638181 22.1115556,16.7352994 22.0842716,15.8070994 C21.1180988,15.8463056 20.5053333,14.7453431 20.4414568,13.7871806 C20.3477284,12.3802181 20.9081728,11.0092744 21.5989383,9.77730563 C21.7947407,9.42795562 21.9420741,9.08848688 22.2864938,8.84814938 C22.5137531,8.68973062 22.8077778,8.60621812 23.0751605,8.68208062 C22.9198025,8.53481813 22.7647654,8.38787437 22.6097284,8.24061188 C22.2495802,7.89923063 21.8518765,7.48326188 21.3752099,7.31177438 C21.1595062,7.64996812 20.9986914,8.12076187 20.8446173,8.50198688 C20.6555556,8.96927438 20.4754815,9.44006813 20.2957284,9.91054313 C19.9352593,10.8530869 19.576716,11.7969056 19.1552593,12.7145869" id="Fill-19" fill="#1F9995"></path>
                <path d="M16.2465333,0.83990625 C16.5152,0.61614375 16.8085827,0.42553125 17.1038914,0.27890625 C18.1679654,-0.24958125 19.348237,0.00796875 20.232558,0.75766875 C21.0427309,1.444575 21.6150519,2.4435375 21.6481136,3.50115 C21.6808543,4.558125 21.115916,5.6476125 20.1612988,6.1168125 C19.9597185,6.215625 19.7270025,6.28798125 19.5119407,6.22231875 C19.2593235,6.1448625 19.1026815,5.90325 18.9405827,5.695425 C18.2389037,4.7959125 17.1594222,4.3305375 16.2612988,3.6637125 C15.6742123,3.22798125 14.9247062,2.80149375 15.2957679,2.02055625 C15.5072988,1.57558125 15.8494716,1.1710875 16.2465333,0.83990625" id="Fill-21" fill="#3E2826"></path>
                <path d="M14.7079753,3.583515 C14.2396543,5.27639625 14.8315556,7.07319 15.5717531,8.66725875 C15.6606667,8.85819 15.7646667,9.0615525 15.9546914,9.15399 C16.0795556,9.21423375 16.224,9.2171025 16.3626667,9.2120025 C17.706,9.16259625 19.005358,8.43138375 19.7381728,7.31257125 C19.7792593,7.2497775 19.8197037,7.1847525 19.8790864,7.13853375 C19.9474568,7.08498375 20.0341235,7.061715 20.1166173,7.03398375 C20.8083457,6.80289 21.3338025,6.14467125 21.4037778,5.42334 C21.4297778,5.15559 21.3437531,4.81803375 21.0786173,4.76193375 C20.6285926,4.66630875 20.4719506,5.44278375 20.0228889,5.541915 C19.8418519,5.14825875 19.6608148,4.75492125 19.4800988,4.36158375 C19.3385432,4.05430875 19.1944198,3.7422525 18.9758272,3.48310875 C18.4356049,2.84242125 17.4405432,2.6317275 16.6839753,2.9976525 C16.8817037,2.90170875 15.9704198,2.11758375 15.6195802,2.2160775 C15.1255802,2.354415 14.8267407,3.15479625 14.7079753,3.583515" id="Fill-23" fill="#DDA37C"></path>
                <path d="M22.7115136,28.6832288 C22.4566494,27.4273537 22.1728963,26.1746663 21.9488469,24.9041288 C21.685958,23.4149288 21.479563,21.9129788 21.4057358,20.4021038 C21.3867975,20.016735 21.6182296,16.0266225 21.6275383,16.0307663 C20.8308469,15.6973537 20.3817852,14.8131413 20.3198346,13.9569788 C20.2809951,13.4189288 20.3695877,12.8837475 20.4983037,12.3625913 C20.621242,11.8653413 20.6510938,11.3282475 20.8375877,10.8580913 C21.0963037,10.206885 21.3550198,9.55536 21.6137358,8.903835 C21.6490444,8.81490375 21.685958,8.7234225 21.7549704,8.65521 C21.8088963,8.6022975 21.8785506,8.5678725 21.9494889,8.54077875 C22.857884,8.19334125 23.3477111,8.87482875 23.610921,9.62835375 C23.9964272,10.732185 24.2840321,11.8698038 24.468921,13.0239975 C24.598279,13.8320288 24.677563,14.6505788 24.6563778,15.4684913 C24.6207481,16.8461288 24.3010444,18.2097413 24.3260815,19.5880163 C24.3511185,20.9701162 24.5568716,22.332135 24.753316,23.7008475 C24.9593901,25.134585 25.0531185,26.6741475 24.9805753,28.12191 C24.9160568,29.4138037 24.7847728,30.5628975 25.0328963,31.86531 C25.1911432,32.6975662 25.8559086,34.11696 25.3725012,34.9160663 C25.2389704,35.13696 25.040921,35.3109975 24.8441556,35.479935 C24.3463037,35.90706 24.3312173,35.0827725 24.2532173,34.73661 C24.1646247,34.3432725 24.2130938,33.6037725 23.9046247,33.3299662 C23.7906741,33.45141 23.7781556,33.6276788 23.8417111,33.8029912 C23.9296617,34.04556 24.1113407,34.2498788 24.1726494,34.5000975 C24.3446988,35.2013475 23.793563,34.9402913 23.6176617,34.452285 C23.3066247,33.5910225 23.3278099,32.5764413 23.2183531,31.6724662 C23.0966988,30.6687225 22.9124519,29.673585 22.7115136,28.6832288" id="Fill-25" fill="#DDA37C"></path>
                <path d="M40.6506148,39.6471131 C39.6000222,39.6605006 38.5503926,39.7946944 37.5309358,40.0525631 C36.3220963,40.3588819 35.1119728,40.8717506 34.2944173,41.8209881 C33.4765407,42.7708631 33.1558741,44.2374319 33.7997753,45.3144881 C34.4520222,46.4055694 35.8287383,46.7880694 37.084121,46.9184381 C40.6814296,47.2910569 44.4000716,46.3217381 47.3685654,44.2374319 C48.6781951,43.3181569 49.1811827,40.9998881 47.4131827,40.2760069 C46.5266148,39.9129506 45.2333556,40.0522444 44.284837,39.9333506 C43.0779235,39.7822631 41.869084,39.6314944 40.6506148,39.6471131" id="Fill-27" fill="#83938A"></path>
                <path d="M44.3265333,50.0534719 C42.7341136,49.6990219 41.1044593,50.2663969 39.5036938,50.5784531 C38.9272,50.6909719 38.3198914,50.7687469 37.7613728,50.5861031 C36.8234469,50.2794656 36.2623605,49.3372406 35.7844099,48.4667344 C35.702558,48.3178781 35.6178173,48.1562719 35.6357926,47.9866969 C35.6550519,47.8040531 35.7879407,47.6567906 35.9205086,47.5315219 C36.8648543,46.6367906 38.1038667,46.1382656 39.3249037,45.7028531 C41.8847802,44.7899531 45.7735457,44.0173031 48.0031259,46.1969156 C48.8829531,47.0572219 48.9991506,48.3899156 48.287521,49.4245781 C47.2805827,50.8885969 45.7446568,50.3693531 44.3265333,50.0534719" id="Fill-29" fill="#83938A"></path>
                <g id="Group-33" transform="translate(33.703704, 36.989025)">
                    <mask id="mask-2" fill="white">
                        <use xlink:href="#path-1"></use>
                    </mask>
                    <g id="Clip-32"></g>
                    <path d="M17.9489556,5.23454437 C18.6172519,6.33805687 18.171079,8.13325687 17.4568815,9.12488812 C16.3648815,10.6405444 14.4107086,10.5618131 12.7277704,10.5006131 C10.7023383,10.4276194 8.46184444,9.71298187 6.55228889,10.7119444 C5.49335062,11.2659319 4.63470864,12.3334256 3.44416543,12.4127944 C1.98944938,12.5093756 0.894239506,11.0654381 0.422708642,9.67281937 C0.256437037,9.18194437 0.130288889,8.64899437 0.266708642,8.14887562 C0.483375309,7.35327562 1.28231358,6.88375687 2.03374568,6.55926937 C3.11515309,6.09261937 4.24856049,5.74964437 5.40604198,5.53926937 C6.22391852,5.39009437 7.14900494,5.25239437 7.63690617,4.57313812 C7.8442642,4.28466937 7.94409136,3.92798812 8.15465926,3.64206937 C8.45349877,3.23630062 8.93530123,3.02050687 9.39527654,2.82128812 C10.502684,2.34188812 11.6100914,1.86216937 12.7174988,1.38276937 C13.5819185,1.00823812 14.4594988,0.201800625 15.4051284,0.060275625 C16.1954,-0.057980625 16.1068074,0.061550625 16.1758198,0.858425625 C16.2413012,1.62023812 16.3318198,2.37535687 16.636758,3.08585062 C16.9680173,3.85754437 17.5133753,4.51512562 17.9489556,5.23454437" id="Fill-31" fill="#A9C9B8" mask="url(#mask-2)"></path>
                </g>
                <path d="M48.2525012,27.8315606 C49.271958,29.3883356 50.1636617,31.0308544 50.4252667,32.7725044 C50.5777358,33.7883606 50.5119333,34.8160106 50.5283037,35.8395169 C50.5523778,37.3676044 50.7597358,38.8940981 51.1465259,40.3912669 C51.2668963,40.8572794 51.405563,41.3283919 51.3622296,41.8023731 C51.3192173,42.2763544 51.0621062,42.7653169 50.5536617,43.0180856 C50.2191926,43.1838356 49.8153901,43.2316481 49.4237852,43.2698981 C48.1343778,43.3951669 46.8343778,43.4528606 45.5353407,43.4429794 C44.1910444,43.4321419 42.7604025,43.3240856 41.6972914,42.6725606 C40.1440321,41.7207731 39.8920568,39.9730669 39.7649457,38.4210731 C39.7338099,38.0382544 39.7023531,37.6551169 39.6712173,37.2722981 C39.4324025,34.3541419 39.211563,31.3333481 40.5041802,28.5943294 C41.1711926,27.1806731 42.3707235,25.8014419 44.1566988,25.1696794 C46.2389457,24.4333669 47.4285259,26.5737731 48.2525012,27.8315606" id="Fill-34" fill="#96B2B1"></path>
                <path d="M48.3542222,35.1204806 C48.5339753,34.1642306 48.7143704,33.1961869 48.593679,32.2338806 C48.4729877,31.2718931 48.0181481,30.3009806 47.1097531,29.6551931 C46.201358,29.0090869 44.7883704,28.7649244 43.7181975,29.2302994 C42.6521975,29.6940806 42.1694321,30.6959119 41.9158519,31.6381369 C41.4122222,33.5088806 41.521358,35.5689619 42.8030617,37.1901244 C43.1506914,37.6299994 43.576963,38.0284369 43.9249136,38.4683119 C44.8811358,39.6763744 45.2008395,41.1349744 45.2778765,42.5597869 C45.3545926,43.9842806 45.2095062,45.4132369 45.3282716,46.8361369 C45.3539506,47.1440494 45.4062716,47.4771431 45.6784691,47.6977181 C46.2145185,48.1324931 47.1335062,47.8437056 47.7937778,47.5341994 C48.0679012,47.7117431 48.4932099,47.3805619 48.4713827,47.1006994 C48.4495556,46.8208369 48.2970864,46.5071869 48.5092593,46.2831056 C48.594963,46.1922619 48.7268889,46.1364806 48.8222222,46.0526494 C49.0045432,45.8923181 49.0279753,45.6583556 49.0420988,45.4428806 C49.115284,44.3240681 49.1887901,43.2049369 49.2622963,42.0861244 C49.3338765,40.9902619 49.4016049,39.8666681 48.984,38.8202119 C48.7288148,38.1814369 48.2983704,37.5888806 48.0939012,36.9383119 C47.8897531,36.2877431 47.736,35.5785244 48.3542222,35.1204806" id="Fill-36" fill="#776F68"></path>
                <path d="M37.9224444,26.36853 C37.1992593,26.0606175 36.4680494,25.5748425 36.217358,24.8350237 C36.0250864,24.268605 36.1566914,23.6473612 36.4365926,23.1408675 C36.7164938,22.6346925 37.1328148,22.22223 37.544,21.81678 C38.558963,20.8152675 39.6605926,19.767855 41.0899506,19.5198675 C42.430716,19.2868612 43.9188148,19.8669862 44.7912593,20.9622112 C45.4065926,21.7348612 45.707679,22.6962112 45.9506667,23.64003 C46.0508148,24.0292237 46.1429383,24.4429612 46.0241728,24.8162175 C45.9243457,25.12923 45.6877778,25.3743487 45.4383704,25.5847237 C43.5339506,27.1924987 40.2614815,27.36303 37.9224444,26.36853" id="Fill-38" fill="#2D2321"></path>
                <path d="M36.8940321,23.2638412 C36.6542543,23.14431 36.3839827,22.9766475 36.3788469,22.7117662 C36.376279,22.569285 36.454921,22.4363662 36.531316,22.3126912 C36.9360815,21.6554287 37.3552914,20.9914725 37.936921,20.4722287 C38.9178593,19.595985 40.2470691,19.2243225 41.5217111,18.8813475 C41.7974395,18.8073975 42.0799086,18.7321725 42.3623778,18.75321 C43.3089704,18.8226975 43.7779333,19.85226 44.0581556,20.7275475 C44.3890938,21.7599787 44.7200321,22.7927287 45.0509704,23.8257975 C45.3629704,24.7995787 45.6653407,25.8986287 45.1697358,26.8223662 C44.8907975,27.342885 44.383637,27.730485 43.8254395,27.9501037 C42.3883778,28.5162037 42.1087975,26.748735 41.3294395,25.9881975 C40.0891432,24.7779037 38.4434395,24.035535 36.8940321,23.2638412" id="Fill-40" fill="#CFBF94"></path>
            </g>
        </g>
    </g>
</svg>