<svg xmlns="http://www.w3.org/2000/svg" xmlns:xlink="http://www.w3.org/1999/xlink" width="26" height="41" viewBox="0 0 26 41">
    <defs>
        <path id="a" d="M.113.251h4.056v8.52H.113z"/>
        <path id="c" d="M.085.048h3.759v3.74H.085z"/>
    </defs>
    <g fill="none" fill-rule="evenodd">
        <path fill="#F2E2D9" d="M1.683 18.303c-.038 2.221-.15 4.442-.17 6.663-.01 1.111.004 2.228.19 3.323.143.842.386 1.665.554 2.502.145.73.233 1.472.434 2.189.201.716.527 1.419 1.072 1.931.058.054.124.11.203.116.162.015.265-.162.326-.31l.688-1.692c.2-.49.398-.98.546-1.486.18-.616.282-1.251.37-1.886.19-1.346.322-2.7.397-4.057.062-1.103.086-2.209.222-3.305.209-1.677.679-3.338.585-5.024-1.93.438-3.736 1.482-5.715 1.513"/>
        <path fill="#E4DAD7" d="M4.268 34.057c-.111.377-.232.76-.21 1.151.043.796.686 1.47 1.438 1.756.752.286 1.59.248 2.385.117 1.007-.167 2.112-.58 2.497-1.515.179-.434.172-.918.179-1.386.052-3.614 1.073-7.232.516-10.803-.096-.616-.239-1.233-.202-1.855.028-.473.159-.958.022-1.412-.16-.527-.64-.887-1.106-1.19-1.059-.689-2.447-1.356-3.656-.6-.863.54-.46 1.43-.447 2.272.045 2.894-.04 5.814-.423 8.685a31.69 31.69 0 0 1-.993 4.78"/>
        <path fill="#D3B9A5" d="M4.155 4.995c-.102.353-.236.703-.25 1.07a.337.337 0 0 0 .027.17c.047.088.153.125.25.15.336.082.683.108 1.028.133.564.04 1.156.077 1.668-.16.16-.073.314-.179.394-.335.06-.119.073-.256.084-.389l.186-2.259c.005-.057.008-.12-.025-.166-.036-.051-.104-.068-.166-.08-.489-.101-.978-.2-1.468-.296-.309-.06-1.036-.348-1.325-.206-.294.144-.154.771-.17 1.03a6.276 6.276 0 0 1-.233 1.338"/>
        <path fill="#2B1D42" d="M1.958 8.49c-.546.818-.86 1.773-1.007 2.743-.05.338-.082.679-.148 1.014-.068.342-.172.676-.273 1.01-.25.83-.486 1.672-.525 2.536-.015.337 0 .678.085 1.005.083.32.23.62.377.916.219.442.44.89.768 1.261.1.114.228.227.38.224.213-.004.348-.22.432-.414.701-1.606.747-3.412 1.221-5.098.09-.318.194-.63.28-.95.156-.572.253-1.159.35-1.744l.565-3.438c.057-.341.236-.808-.266-.803-.4.003-.81.304-1.111.533A4.965 4.965 0 0 0 1.958 8.49M11.116 9.134c.208.372.175.823.174 1.248-.003 1.199.29 2.377.408 3.57.188 1.897-.063 3.816-.523 5.666-.04.164-.084.33-.183.469a.722.722 0 0 1-.703.282c-.48-.09-.72-.616-.87-1.076a24.56 24.56 0 0 1-.822-3.288c-.064-.361-.12-.726-.104-1.093.02-.422.136-.833.208-1.25.195-1.134.066-2.328.452-3.413.124-.349.3-.678.48-1.002.137-.246.395-.733.73-.736.286-.003.627.398.753.623"/>
        <path fill="#D2E7F9" d="M16.946 39.407c0 .212 0 .426.05.633.011.048.032.103.08.119.043.014.089-.01.127-.035.51-.324.913-.785 1.309-1.239l.544-.623c.04-.046.081-.096.084-.156.002-.053-.025-.101-.053-.146-.29-.481-.608-.946-.953-1.39.025.031-1.07.87-1.144 1.069-.081.22-.042.498-.042.726l-.002 1.042"/>
        <path fill="#7C7498" d="M14.388 36.129c0 .404.014.838.258 1.162.406.538 1.216.508 1.89.425l.948-.117c.294-.036.604-.08.831-.267.29-.238.365-.643.394-1.015.138-1.769-.322-3.647.415-5.265.232.75.152 1.553.14 2.337-.017 1.009.085 2.017.243 3.013.122.766.334 1.611.994 2.029.765.482 1.786.171 2.565-.29.701-.414 1.347-.955 1.75-1.658.27-.47.423-.998.518-1.53.491-2.759-.514-5.53-1.159-8.256a32.53 32.53 0 0 1-.807-5.42c-.02-.312-.05-.656-.276-.875-.134-.13-.318-.194-.497-.251a15.53 15.53 0 0 0-4.75-.73c-1.149.003-1.722.33-1.977 1.457-.705 3.126-1.05 6.38-1.278 9.57a78.86 78.86 0 0 0-.202 5.68"/>
        <path fill="#C48E82" d="M17.729 4.087c-.022.165-.034.336.02.494.062.186.207.33.344.472.238.248.461.51.67.782.15.197.303.41.531.508.133.058.28.072.424.078.185.007.376 0 .545-.074.152-.067.275-.185.38-.314.311-.38.48-.86.556-1.345.077-.485.068-.978.058-1.468-.562-.037-1.126.017-1.69.024a6.19 6.19 0 0 1-.739-.028c-.214-.023-.455-.122-.668-.112-.37.017-.396.715-.431.983"/>
        <path fill="#301D44" d="M22.095 7.129c-.223-.278-.364-.649-.687-.804-.213-.102-.462-.086-.697-.064-.81.074-1.686.228-2.226.829-.96 1.068-.321 2.592-.418 3.838a28.105 28.105 0 0 1-.865 5.05c-.272 1.018-.604 2.048-.533 3.098.03.449.176.627.589.664.471.044.93.166 1.4.273 1.007.229 2.022.426 3.043.59.306.05.647.089.902-.085.203-.14.302-.383.385-.614a23.901 23.901 0 0 0 1.424-7.592c.028-1.193.147-2.752-.228-3.9-.34-1.043-1.44-.475-2.089-1.283"/>
        <path fill="#200F35" d="M16.398 8.174c-.227.24-.316.573-.386.894-.275 1.259-.39 2.564-.884 3.756-.238.574-.56 1.114-.734 1.71-.391 1.34.017 2.768.424 4.104.125.413.284.868.67 1.07.407.213.905.058 1.34-.1.122-.044.249-.091.346-.178.115-.104.176-.253.223-.4.252-.785.204-1.63.34-2.443.1-.613.306-1.204.463-1.806.531-2.036.508-4.169.482-6.273-.011-.905-1.778-.868-2.284-.334"/>
        <g transform="translate(21.667 6.652)">
            <mask id="b" fill="#fff">
                <use xlink:href="#a"/>
            </mask>
            <path fill="#200F35" d="M1.339.492c.392.087.795.183 1.12.418.428.312.655.821.84 1.315.337.889.603 1.804.795 2.734.052.25.098.507.062.76-.033.233-.134.449-.234.66-.236.496-.477.989-.724 1.479-.118.235-.242.474-.433.657-.191.182-.466.3-.724.24.197-1.509.332-3.046.079-4.547a7.46 7.46 0 0 0-.697-2.153 6.006 6.006 0 0 0-.61-.964C.65.884.125.503.113.266c.332-.073.88.149 1.226.226" mask="url(#b)"/>
        </g>
        <path fill="#A29798" d="M19.02 37.535c-.554.717-1.112 1.437-1.777 2.056-.364.34-.8.663-1.3.67-.06.237.085.497.304.612.22.114.492.097.72 0 .227-.099.414-.27.574-.458.16-.188.295-.394.45-.586.214-.264.461-.499.676-.762.125-.153.237-.314.35-.476l.319-.456c.07-.1.142-.205.162-.326.025-.145-.039-.391-.154-.493-.144-.128-.229.097-.324.22M20.832 39.439c.207-.165.547.02.767-.125.112-.075.157-.214.186-.345.06-.273.08-.554.058-.832-.003-.04-.008-.084-.038-.11a.165.165 0 0 0-.075-.032 8.343 8.343 0 0 0-.962-.17c-.219-.025-.525-.104-.645.14-.114.23.067.469.18.658.168.277.344.55.53.816"/>
        <path fill="#200F35" d="M18.379 2.144c.345-.418.727-.806 1.108-1.193a.473.473 0 0 1 .101-.085c.142-.079.324.007.434.125.11.118.186.268.313.368.202.16.492.162.712.298.21.13.329.368.377.609.049.24.038.487.045.732.006.178.02.359-.024.531-.045.172-.165.338-.34.38a.739.739 0 0 1-.243.005c-.588-.053-1.176-.106-1.763-.176-.322-.038-.648-.085-.973-.068-.165.009-.505.084-.641-.027-.25-.201.733-1.305.894-1.5"/>
        <path fill="#4B3B63" d="M4.17 6.116a1.572 1.572 0 0 0-.216.808c-.207-.12-.488.016-.606.223-.119.206-.119.457-.117.695.009 1.23-.02 2.459-.05 3.688-.019.754-.037 1.51-.167 2.253-.155.887-.467 1.739-.739 2.598-.279.884-.517 1.78-.713 2.685 1.338.399 2.755.427 4.152.451 1.12.02 2.255.038 3.347-.211.1-.023.205-.05.279-.121.122-.117.121-.308.11-.475a26.927 26.927 0 0 0-.35-2.917c-.1-.571-.22-1.143-.223-1.723-.01-1.746 1.012-3.308 1.635-4.942.09-.237.17-.516.039-.734-.082-.136-.23-.217-.37-.292L8.6 7.256c-.188-.1-.385-.208-.494-.39-.093-.152-.115-.342-.232-.476-.133-.153-.352-.192-.554-.216-.602-.07-1.189-.047-1.791-.033-.217.004-1.285-.152-1.36-.025"/>
        <g transform="translate(4.063 .22)">
            <mask id="d" fill="#fff">
                <use xlink:href="#c"/>
            </mask>
            <path fill="#2B1D42" d="M.624 3.26l-.493-.034c-.054-.483-.102-.998.118-1.433.093-.184.23-.342.365-.498C.982.869 1.357.438 1.827.126c.07-.046.152-.092.235-.075.051.01.094.044.135.077.455.36.922.734 1.202 1.239.246.444.33.955.409 1.455.025.16.05.323.025.483-.026.16-.112.319-.259.391a.751.751 0 0 1-.263.06 6.847 6.847 0 0 1-3.097-.421" mask="url(#d)"/>
        </g>
        <path fill="#BC6343" d="M6.135 36.156c.01.21.076.411.141.61l.714 2.173c.031.095.066.196.143.262.066.057.156.08.243.096.368.064.756.013 1.095-.143.189-.087.375-.221.434-.42.063-.212-.034-.434-.12-.639a6.825 6.825 0 0 1-.49-1.917c-.068-.659-.246-1.324-1.068-1.276-.602.036-1.12.666-1.092 1.254"/>
    </g>
</svg>
