<svg xmlns="http://www.w3.org/2000/svg" xmlns:xlink="http://www.w3.org/1999/xlink" width="48" height="32" viewBox="0 0 48 32">
    <defs>
        <path id="a" d="M0 .019h5.894v3.647H0z"/>
        <path id="c" d="M.003.194h18.609v12.589H.002z"/>
    </defs>
    <g fill="none" fill-rule="evenodd">
        <path fill="#373A36" d="M12.734 20.772c1.034.013 2.066.147 3.07.403 1.189.304 2.38.814 3.183 1.758.805.944 1.12 2.402.487 3.472-.642 1.085-1.996 1.465-3.231 1.594-3.54.37-7.198-.593-10.118-2.664-1.288-.914-1.783-3.219-.044-3.938.872-.36 2.145-.222 3.078-.341 1.187-.15 2.376-.3 3.575-.284"/>
        <path fill="#B68765" d="M16.453 20.762c.312.112.628.226.898.42.27.192.49.478.532.807.005.048.007.1-.02.14-.03.046-.09.064-.143.076-.5.108-1.017-.015-1.512-.138l-.83-.204c-.398-.098-.872-.276-.931-.682"/>
        <path fill="#C9D5E2" d="M13.133 11.048a8.462 8.462 0 0 1 1.573 4.547c.02.457.002.918.065 1.37.188 1.357 1.067 2.502 1.932 3.56.087.106.18.232.154.366-.027.14-.167.222-.296.279a3.734 3.734 0 0 1-3.354-.192"/>
        <g transform="translate(0 27.635)">
            <mask id="b" fill="#fff">
                <use xlink:href="#a"/>
            </mask>
            <path fill="#B68765" d="M1.58 1.815c-.358.235-.775.371-1.111.637-.337.265-.584.733-.414 1.13.853.075 1.718.149 2.559-.011 1.027-.196 2.038-.738 3.063-.53.312.063.219-1.769.142-1.96C5.622.597 5.166.126 4.644.04 3.383-.168 2.488 1.22 1.58 1.815" mask="url(#b)"/>
        </g>
        <path fill="#373A36" d="M9.118 31.116c1.566-.353 3.17.211 4.745.521.567.112 1.164.19 1.714.008.922-.305 1.475-1.241 1.945-2.107.08-.148.164-.308.146-.477-.02-.181-.15-.328-.28-.452-.93-.89-2.148-1.385-3.35-1.818-2.518-.907-6.344-1.676-8.537.491-.866.855-.98 2.18-.28 3.208.99 1.456 2.502.94 3.897.626"/>
        <path fill="#1B1D1C" d="M1.91 23.333c-.657 1.097-.218 2.881.484 3.867 1.075 1.506 2.997 1.428 4.653 1.367 1.993-.072 4.197-.783 6.075.21 1.042.55 1.887 1.612 3.058 1.69 1.431.097 2.509-1.338 2.973-2.723.163-.488.287-1.017.153-1.514-.213-.791-.999-1.258-1.738-1.58a15.16 15.16 0 0 0-3.318-1.014c-.805-.149-1.715-.285-2.195-.96-.203-.287-.302-.642-.509-.926-.294-.403-.768-.618-1.22-.816l-3.269-1.43c-.85-.372-1.714-1.174-2.644-1.314-.778-.118-.69 0-.758.793-.065.757-.154 1.508-.454 2.214-.326.767-.862 1.42-1.29 2.136"/>
        <path fill="#7C695C" d="M25.993 24.733c.17.09.365.12.556.144 2.057.267 4.166.116 6.164-.44.527-.147 1.087-.35 1.389-.81.3-.458.15-1.23-.385-1.346-.277-.06-.556.067-.819.174-1.283.523-2.688.638-4.069.747-.82.065-2.073-.076-2.833.224-.558.22-.634.973-.003 1.307"/>
        <path fill="#8F9BA8" d="M37.246 24.289c.565.113 1.162.163 1.71-.015.71-.23 1.26-.823 1.57-1.503.31-.68.404-1.439.416-2.186.005-.258 0-.523-.087-.766a1.986 1.986 0 0 0-.336-.558c-1.248-1.576-3.347-2.428-5.337-2.166-1.642.215-4.296 1.893-3.052 3.814 1.12 1.73 3.12 2.981 5.116 3.38"/>
        <path fill="#B6BABE" d="M28.894 24.162l2.358-.191c.504-.04 1.016-.083 1.49-.26.474-.178.914-.512 1.103-.982.255-.633-.046-1.438-.654-1.745-.355-.18-.767-.197-1.164-.21-1.887-.062-3.61.03-5.072 1.303-.491.427-2.074 1.274-1.24 1.886.735.54 2.34.267 3.179.199"/>
        <path fill="#C9D5E2" d="M23.036 13.568c-.056.277-.08.566-.017.842.06.268.2.51.341.745 1.285 2.121 3.051 4.045 3.581 6.473 1.43.476 2.965.48 4.47.48.552-.001 1.115-.003 1.64-.179.523-.176 1.01-.56 1.165-1.094.095-.327.059-.677.007-1.014-.315-2.046-1.211-3.987-2.513-5.589a12.022 12.022 0 0 0-1.915-1.881c-.234-.183-.428-.424-.7-.554-.157-.075-.33-.108-.49-.173-.233-.093-.434-.251-.659-.363-.507-.25-1.084-.247-1.636-.256a12.167 12.167 0 0 1-.847-.052c-.223-.02-.435.099-.634.203a3.541 3.541 0 0 0-1.793 2.411"/>
        <path fill="#B6BABE" d="M38.37 25.495c-.006.292.012.589-.057.872-.058.235-.173.45-.27.672a4.574 4.574 0 0 0-.38 2.036c.014.317.069.648.268.894.284.35.775.432 1.222.49.707.091 1.54.138 2.01-.4.46-.526.323-1.325.453-2.012.09-.478.32-.918.468-1.382.153-.48.218-.984.261-1.487.02-.232.035-.473-.046-.692-.119-.326-.435-.549-.767-.646-.333-.096-.686-.087-1.032-.077-.43.013-1.302-.14-1.684.095-.417.256-.445 1.206-.445 1.637"/>
        <path fill="#373A36" d="M41.139 11.604c-.062-.137-.132-.283-.263-.357a.716.716 0 0 0-.187-.063l-4.245-1.019c-1.047-.251-2.172-.498-3.174-.105-1.263.494-1.391 2.427-1.454 3.62-.064 1.2.281 2.618.948 3.613.317.473.716.885 1.113 1.293.163.167.33.339.54.44.148.072.312.105.475.134 1.033.185 2.094.21 3.134.077a8.558 8.558 0 0 1 2.04-2.088c.103-.073.206-.145.292-.237.086-.09.151-.199.215-.306l.703-1.171c.151-.251.303-.505.398-.782.344-1-.1-2.084-.535-3.049"/>
        <path fill="#9EA990" d="M32.51 21.164c-.13-.19-.26-.38-.414-.552-.16-.181-.346-.342-.485-.541-.11-.159-.188-.34-.309-.49-.176-.222-.587-.035-.727.148-.052.069-.09.148-.148.213-.232.26-.632.185-.932.29-.486.17-.082.567.102.832.389.556.696 1.166.95 1.796.52.09.981.379 1.468.584.127.054.266.103.402.072.089-.02.167-.073.243-.125l.255-.174c.04-.028.082-.056.117-.09a.905.905 0 0 0 .107-.132c.08-.11.261-.282.278-.422.018-.149-.16-.32-.239-.435l-.668-.974"/>
        <path fill="#C9D5E2" d="M38.476 16.904c-.313.682-.622 1.376-.746 2.116-.231 1.383.205 2.8.837 4.05.096.189.2.38.364.515.15.123.34.189.529.231 1.104.249 2.245-.207 3.213-.795a11.641 11.641 0 0 0 2.507-2.055c.167-.182.332-.374.428-.602.12-.29.122-.614.12-.928l-.008-2.524c0-.16-.001-.323-.057-.473-.067-.176-.202-.316-.339-.445-.984-.932-2.69-2.095-4.108-2.12-1.357-.026-2.272 2.008-2.74 3.03"/>
        <path fill="#090601" d="M31.011 15.628c.223.01.475-.01.617-.182.14-.17.118-.416.075-.63-.065-.318-.162-.635-.35-.897-.331-.458-.904-.69-1.465-.734-.649-.052-2.366.08-1.683 1.099.567.847 1.839 1.298 2.806 1.344"/>
        <path fill="#7F4B38" d="M28.997 13.46c-.179 1.136-.764 2.159-1.2 3.222-.098.241-.19.489-.217.748-.04.375.059.748.156 1.111.049.18.107.376.26.483.095.067.23.325.346.345.324.057.568.229.892.285.111.02.291-.312.4-.344.306-.09.608-.491.85-.7.102-.087 0-.146.096-.24.14-.135.184-.34.222-.53.077-.394.154-.797.09-1.193-.05-.323-.194-.624-.275-.94a2.554 2.554 0 0 1 .07-1.497"/>
        <path fill="#1C201E" d="M33.645 8.537a2.919 2.919 0 0 0-.218-.731.692.692 0 0 0-.197-.283c-.112-.083-.258-.1-.397-.107a4.87 4.87 0 0 0-3.063.89c-.583.413-1.605 1.52-1.661 2.264-.032.42.24.816.221 1.237-.022.518-.478.946-.484 1.465a.42.42 0 0 0 .041.207c.091.167.316.191.505.2.902.045 1.874.242 2.47.922.204.234.493.549.754.382a.467.467 0 0 0 .16-.213c.312-.703-.045-1.543.166-2.282.168-.583.677-1.058.698-1.664.011-.33-.13-.623-.35-.867l.468.176c.197-.175.385-.361.563-.556.119-.13.235-.27.296-.435.07-.192.06-.403.028-.605"/>
        <path fill="#7C695C" d="M38.525 29.616c.501.043.998.155 1.5.153.504-.003 1.131-.142 1.47-.516.135.446-.252.935-.658 1.162-.406.226-.893.245-1.356.222a7.242 7.242 0 0 1-.925-.103c-.14-.026-.285-.058-.4-.143a.904.904 0 0 1-.239-.3c-.083-.15-.39-.598-.168-.723.066-.037.626.235.776.248"/>
        <path fill="#678145" d="M35.852 25.703c.084-.1.164-.208.206-.333.154-.459.022-1.148-.412-1.36-.918-.452-2.303-.146-3.238-.56a3.095 3.095 0 0 1-1.54-1.513c-.429-.925-1.025-1.828-1.985-2.163-.254.575-.254 1.975-.142 4.095.02.38-.329.715-.27 1.09.073.481.512.805.902 1.094A16.258 16.258 0 0 1 32.3 28.84c.175.214.349.437.578.59.369.247.834.287 1.277.305.385.015.79.014 1.126-.174.533-.299.73-1.001.622-1.604-.106-.588-.44-1.105-.773-1.602.268-.185.512-.404.722-.653"/>
        <path fill="#95684E" d="M29.644 19.159a.927.927 0 0 1 .372.146c.108.082.19.216.188.372-.002.156-.106.326-.244.355-.083.018-.162-.014-.238-.046-.218-.094-.448-.202-.565-.428M36.191 23.83c-.18.067-.356.147-.545.179-.206.035-.417.01-.624-.014-.94-.112-1.896-.228-2.761-.61-.09-.19.166-.327.343-.439 2.147-1.346 2.535-.918 3.827-1.303.234-.07.476-.14.72-.118.616.055 1.405.928 1.173 1.583-.25.703-1.553.507-2.133.722"/>
        <path fill="#678145" d="M33.33 22.624a18.438 18.438 0 0 1-1.64-2.382l-.017-.03c-.25-.434-.51-.882-.932-1.05-.214-.084-.48-.096-.79-.035-.24.047-.419.122-.549.227-.147.119-.256.53-.245.684l-.327-.12c-.02-.272.108-.648.348-.843.176-.142.407-.24.704-.299.378-.074.712-.056.99.054.538.212.841.738 1.11 1.202l.017.03a18.06 18.06 0 0 0 1.607 2.336l-.276.226z"/>
        <path fill="#95684E" d="M29.72 19.183c.233-.218.49-.41.764-.572a.774.774 0 0 1 .257-.11c.092-.015.194.002.261.068.096.168.001.383-.125.529-.221.257-.549.424-.887.43"/>
        <path fill="#282B2A" d="M42.342 13.48c-.236-.909-1.001-1.617-1.875-1.952-.875-.334-1.845-.336-2.77-.192-.526.082-1.086.234-1.418.652-.434.546-.33 1.331-.514 2.004-.375 1.373-2.28 3-1.238 4.545.706 1.048 2.906 1.013 3.853.45.715-.426 1.225-1.244 2.045-1.387.185-.032.384-.029.542-.13.116-.074.193-.194.267-.31.705-1.115 1.44-2.403 1.108-3.68"/>
        <path fill="#1C201E" d="M47.452 17.494c-.064-.349-.33-.62-.493-.933-.469-.897-.058-1.973.152-2.963.033-.156.06-.32.014-.472-.085-.276-.376-.422-.58-.627-.686-.686-.408-2.074-1.252-2.552-.278-.158-.614-.166-.934-.158-.689.016-1.413.099-1.973.501-.712.512-1.315 1.607-1.766 2.348-.524.86.045 2.346.555 3.132.23.355.516.691.607 1.104.127.577-.152 1.154-.311 1.722a4.334 4.334 0 0 0-.128 1.689l-3.42.878c-.199.05-.428.129-.49.324-.059.184.06.371.17.53.552.81.96 1.72 1.587 2.476.626.755 1.557 1.359 2.529 1.243.179-.634.674-1.135 1.227-1.49.554-.354 1.175-.587 1.765-.875.779-.38 1.535-.885 1.975-1.633.614-1.045.5-2.345.712-3.54.042-.233.096-.471.054-.704"/>
        <g transform="translate(29.368 .704)">
            <mask id="d" fill="#fff">
                <use xlink:href="#c"/>
            </mask>
            <path fill="#EAE2D9" d="M18.095 6.87V6.87a6.821 6.821 0 0 0-.955-1.343C15.195 3.048 12.123.194 12.123.194S7.49.484 3.94 1.448a8.015 8.015 0 0 0-1.254.389l-.035.011.004.001C1.356 2.384.439 3.229.122 4.336c-.816 2.847 2.635 6.341 7.708 7.805 5.073 1.462 9.847.34 10.663-2.507.254-.885.094-1.833-.398-2.763" mask="url(#d)"/>
        </g>
        <path fill="#EAE2D9" d="M32.02 2.552l2.482 3.68 9.738 1.176 3.224.167"/>
        <path fill="#DFDFDF" d="M35.575 13.978c0 .103-.06.186-.134.186-.074 0-.134-.083-.134-.186 0-.102.06-.186.134-.186.074 0 .134.084.134.186M35.122 14.856c-.047.09-.147.133-.223.093-.076-.04-.099-.146-.052-.237.047-.091.147-.133.223-.093.076.04.1.145.052.237M34.657 15.75c-.047.09-.155.128-.24.084-.086-.045-.117-.155-.07-.246.048-.091.155-.129.241-.084.086.044.117.154.07.246M34.25 16.764c-.05.09-.16.123-.243.074-.084-.048-.11-.16-.059-.249.052-.089.16-.121.244-.073.084.048.11.16.058.248"/>
        <path fill="#B68765" d="M5.468 28.127c-.494.483-.443 1.405.101 1.83.197.154.438.243.68.303.222.054.453.085.678.048.561-.092.997-.639 1.012-1.21.016-.57-.358-1.118-.874-1.36-.516-.24-1.144-.189-1.643.087"/>
        <path fill="#B79AB0" d="M5.255 9.027c-1.003 1.548-1.88 3.18-2.137 4.912-.15 1.01-.085 2.03-.101 3.048a19.468 19.468 0 0 1-.609 4.525c-.118.463-.254.931-.212 1.402.042.471.295.957.796 1.209.329.164.726.212 1.111.25 1.269.124 2.548.182 3.826.172 1.322-.01 2.73-.118 3.776-.766 1.528-.946 1.775-2.683 1.9-4.226l.093-1.142c.235-2.9.452-5.903-.82-8.625-.656-1.406-1.836-2.777-3.593-3.405-2.049-.731-3.219 1.396-4.03 2.646"/>
        <path fill="#C9D5E2" d="M5.155 16.272c-.177-.95-.354-1.912-.235-2.869.118-.956.566-1.921 1.46-2.563.893-.642 2.284-.885 3.336-.422 1.049.46 1.524 1.457 1.773 2.393.496 1.86.389 3.907-.872 5.519-.342.437-.762.833-1.104 1.27-.94 1.2-1.255 2.65-1.33 4.067-.077 1.416.066 2.836-.05 4.25-.026.307-.077.638-.345.857-.527.432-1.432.145-2.081-.163-.27.177-.688-.152-.667-.43.022-.279.172-.59-.037-.813-.085-.09-.214-.146-.308-.23-.18-.159-.203-.391-.216-.605l-.217-3.337c-.07-1.09-.137-2.206.274-3.246.25-.635.674-1.224.875-1.87.201-.647.353-1.352-.256-1.808"/>
        <path fill="#B68765" d="M15.202 7.42c-.027.067-.057.131-.093.194-.247.429-.785.529-1.177.8-.217.15-.41.347-.635.479-.436.254-.921.225-1.335.108-.641-.182-1.19-.55-1.699-.953-.726-.575-1.41-1.263-1.682-2.218-.273-.954-.036-2.233.792-3.033.416-.402.93-.643 1.43-.865.446-.198.901-.39 1.357-.46 1.001-.153 1.866.298 2.67.74.782.428 1.83 1.05 1.642 2.212-.138.849-.853 1.526-1.076 2.34-.06.22-.108.447-.194.657"/>
        <path fill="#492317" d="M15.418 7.573c.712-.306 1.431-.789 1.678-1.524.189-.563.06-1.18-.216-1.684-.275-.503-.685-.913-1.09-1.316-.998-.996-2.082-2.037-3.488-2.283-1.32-.232-2.783.345-3.641 1.433-.606.768-.902 1.724-1.14 2.662-.1.387-.19.798-.073 1.17.098.31.33.554.576.763 1.874 1.598 5.093 1.768 7.394.779"/>
        <path fill="#DDCF6B" d="M9.26 9.105c.118.374.452.627.734.898 1.461 1.412 1.668 3.65 1.785 5.682.057.972.111 1.959-.093 2.91-.065.3-.155.6-.132.904.022.305.189.625.48.716.256.08.543-.04.731-.233.423-.432.417-1.114.384-1.718l-.2-3.673c-.033-.612-.067-1.229-.217-1.823-.161-.64-.453-1.239-.643-1.87-.275-.913-.376-2.448-1.307-3.002-.765-.457-1.817.266-1.521 1.21"/>
        <path fill="#E3E882" d="M16.43 4.487c.236-.119.502-.285.507-.549.002-.141-.075-.273-.15-.396-.398-.654-.81-1.314-1.383-1.83-.965-.87-2.273-1.24-3.526-1.58-.272-.074-.55-.15-.828-.128-.931.069-1.392 1.092-1.668 1.962l-.977 3.08c-.307.968-.604 2.06-.117 2.978.275.518.774.903 1.323 1.121 1.414.563 1.689-1.194 2.455-1.95 1.22-1.203 2.84-1.94 4.364-2.708"/>
    </g>
</svg>
