<svg xmlns="http://www.w3.org/2000/svg" xmlns:xlink="http://www.w3.org/1999/xlink" width="63" height="90" viewBox="0 0 63 90">
    <defs>
        <path id="a" d="M.2.041h4.05V5.5H.2z"/>
        <path id="c" d="M.146.173h4.785V3.6H.146z"/>
        <path id="e" d="M0 .227h4.534v5.557H0z"/>
    </defs>
    <g fill="none" fill-rule="evenodd">
        <path fill="#DED7D7" d="M19.813 69.676c.093-.718-.377-1.422-1.001-1.79-.624-.369-1.373-.458-2.097-.47-.459-.007-.926.014-1.358.167-.432.153-.83.454-1.009.876-.184.433-.176 1.02-.595 1.235-.16.082-.347.084-.527.084l-2.116.002a5.7 5.7 0 0 0 .036 1.844c.026.14.06.286.15.397.185.23.529.235.824.218l2.163-.12c.116-.006.237-.01.341.04.11.054.183.16.246.265.262.428.467.891.607 1.373.075.254.133.518.263.749.13.23.35.43.615.454.24.023.47-.102.675-.23a9.925 9.925 0 0 0 1.387-1.037c.333-.298.987-.772 1.058-1.243.054-.36-.216-.72-.204-1.093.02-.619.464-1.116.542-1.72"/>
        <path fill="#D0C4C5" d="M30.6 82.579a4.621 4.621 0 0 1-.567.637c-.378.377-.762.757-1.217 1.036-.297.181-.659.366-.717.71-.07.41.395.752.811.72.416-.034.765-.314 1.078-.59 1.034-.909 1.998-1.92 2.685-3.114.197-.343.356-.818.075-1.097-.191-.19-.503-.186-.763-.113-.5.14-.665.138-.874.551-.207.411-.237.863-.512 1.26"/>
        <path fill="#B17C87" d="M35.269 65.982c-1.467 1.489-3.053 2.898-4.911 3.853-3.028 1.555-6.548 1.794-9.952 1.818-.298.001-.62.01-.86.188s-.315.595-.067.76c.112.075.255.08.39.081 1.946.024 3.902.048 5.83-.224 1.927-.271 3.842-.851 5.452-1.945.605-.411 1.161-.89 1.715-1.368a560.807 560.807 0 0 0 3-2.613c.2-.177.8-.743.545-1.065-.282-.355-.95.32-1.142.515"/>
        <path fill="#DDC9BC" d="M53.53 81.064c-.052.186-.098.41.032.554.083.091.214.119.336.142l.402.076a.475.475 0 0 0 .233.005c.112-.036.18-.147.236-.25.386-.716.674-1.478.961-2.238.548-1.454 1.094-2.909 1.577-4.385.33-1.01.63-2.028.902-3.054-.536-.166-1.049.444-1.605.374-.262-.034-.455-.21-.68-.328-.344-.18-.394-.208-.496.157-.194.698-.224 1.481-.35 2.197a68.264 68.264 0 0 1-1.547 6.75"/>
        <path fill="#F0DDCE" d="M56.449 75.656c.396.988.972 1.892 1.55 2.786.434.667.873 1.335 1.414 1.918.132.143.272.282.374.448.148.243.206.53.327.787.12.258.339.504.622.522.173.01.337-.066.492-.14.268-.127.58-.324.559-.62a.75.75 0 0 0-.114-.3l-2.228-4.03c-.302-.544-.608-1.103-.703-1.718-.085-.544 0-1.099.104-1.64.142-.734.32-1.462.562-2.17l-2.472.108c-.51.022-1.204.015-1.299.666-.062.426.234.92.313 1.332.136.706.228 1.376.499 2.05M54.625 45.78c-.102.42-.092.86-.081 1.292.006.252.013.509.093.747.072.213.199.403.338.579a4.288 4.288 0 0 0 2.505 1.527c.683-.188 1.468-.468 1.681-1.143.182-.577-.147-1.186-.52-1.662a7.676 7.676 0 0 0-2.117-1.856c-.927-.55-1.59-.758-1.899.515"/>
        <path fill="#0D172C" d="M41.413 86.544c-.438.012-.984.107-1.1.53-.057.204.015.42.091.618.089.23.19.468.38.624.221.181.522.22.805.254l3.475.402c.082.01.171.017.243-.024.068-.04.105-.117.135-.19.168-.395.523-1.254.254-1.64-.154-.221-.987-.404-1.258-.473-.964-.248-2.04-.131-3.025-.1"/>
        <g transform="translate(48.25 84.251)">
            <mask id="b" fill="#fff">
                <use xlink:href="#a"/>
            </mask>
            <path fill="#0D172C" d="M.86 3.666c-.19.271-.435.508-.572.81-.137.303-.129.71.135.912.341.26.827.02 1.175-.232.865-.625 1.689-1.33 2.291-2.21.201-.294.382-.628.36-.983-.019-.306-.185-.58-.347-.84-.19-.303-.378-.607-.567-.91-.056-.09-.143-.195-.247-.167-.05.013-.087.056-.12.096C2.037 1.278 1.577 2.412.86 3.666" mask="url(#b)"/>
        </g>
        <path fill="#769BAC" d="M48.969 74.052c-.371.614-.88 1.148-1.168 1.805-.225.512-.306 1.072-.384 1.625l-1.378 9.667a4.458 4.458 0 0 1-1.753-.481c.083-3.282.169-6.586.854-9.796.556-2.608 1.524-5.29 3.177-7.415 1.035-1.332 1.469-.862 1.496.642.025 1.362-.127 2.764-.844 3.953"/>
        <path fill="#A4CBE0" d="M43.242 77.02c.055.695.14 1.411.486 2.018.403.71 1.108 1.183 1.76 1.672a20.347 20.347 0 0 1 4.566 4.76c.609.31 1.345-.359 1.372-1.041.027-.683-.392-1.294-.793-1.848l-2-2.758c-.66-.913-1.33-1.838-1.754-2.883-.356-.877-.525-1.9-.123-2.757.28-.598.8-1.043 1.248-1.53 1.885-2.058 2.498-5.194 1.526-7.81.082.218-5.412 3.424-5.79 4.15-.518 1-.452 2.768-.524 3.878a28.945 28.945 0 0 0 .026 4.149"/>
        <path fill="#FFD8D3" d="M51.254 64.06c-.048.482-.125.973-.356 1.4-.23.426-.639.782-1.12.833a8.717 8.717 0 0 0 .035-3.606c-.181-.93-.873-2.221.255-2.737 2.165-.99 1.284 3.137 1.186 4.11"/>
        <path fill="#D76675" d="M43.334 54.487c-.747.786-1.492 1.715-1.49 2.8 0 .31.068.63.25.88.18.246.45.406.709.566.79.492 1.566 1.099 1.935 1.954.37.855.19 2.007-.611 2.483-.344.204-.794.295-.988.644-.126.226-.106.5-.084.758l.464 5.212a17.154 17.154 0 0 1 5.896-3.68c.42-.156.89-.332 1.079-.739.106-.227.1-.489.092-.74-.014-.428-.47-4.352-.259-4.472.562-.32.5-1.13.426-1.772-.152-1.315-.038-2.668-.38-3.947-.111-.417-.273-.825-.53-1.171-.493-.666-1.31-1.046-2.133-1.132-2.118-.223-3.053.964-4.376 2.356"/>
        <path fill="#FFD8D3" d="M42.006 61.03c-.01.202-.022.41-.106.592-.144.315-.467.5-.771.666-1.276.692-2.561 1.367-3.855 2.025-.382.195-.78.4-1.04.742-.26.342-.335.865-.052 1.189.364.416 1.03.275 1.555.1.654-.22 1.307-.442 1.962-.657.668-.22 1.03-.514 1.614-.898 1.079-.711 2.321-1.123 3.433-1.776.203-.12.41-.257.515-.469.095-.193.088-.421.057-.635-.151-1.043-.796-1.941-1.452-2.767-.241-.305-.493-.611-.822-.82-2.075-1.315-1.002 1.893-1.038 2.709M46.56 49.38a2.442 2.442 0 0 1-.069-.274c-.09-.486-.069-.984-.112-1.476a5.723 5.723 0 0 0-.271-1.316 1.23 1.23 0 0 0-.177-.37 1.161 1.161 0 0 0-.401-.303c-.787-.408-1.6-.423-2.463-.429-.174-.001-.358 0-.509.088-.176.102-.27.301-.348.49-.575 1.392-1.453 3.753-.32 5.035.477.54 1.386.443 1.933.915 1.063.917.925 3.121 3.081 2.295 1.354-.518.942-2.513.621-3.566-.482.066-.816-.606-.965-1.089"/>
        <path fill="#4D5763" d="M41.98 44.564c.025-.39.21-.79.556-.972.238-.125.519-.132.788-.137l3.508-.057c.174-.003.353-.005.518.052.37.127.579.512.722.875.562 1.43.638 3.005.527 4.537-.048.663-.187 1.416-.757 1.758-.417.251-.987.186-1.368-.118-.38-.305-.57-.816-.526-1.302.039-.432.243-.836.292-1.267.048-.431-.142-.954-.568-1.04-.143-.028-.297-.003-.434-.054-.107-.04-.19-.123-.276-.198-.532-.47-1.168-.69-1.86-.781-.204-.027-.66.002-.832-.128-.271-.204-.313-.831-.29-1.168"/>
        <path fill="#6ECEC4" d="M55.469 53.484c-.136 1.64 1.463 3.074 1.256 4.707-.163 1.286-1.372 2.156-1.96 3.311-.598 1.172-.52 2.557-.488 3.873a42.237 42.237 0 0 1-.447 7.205c1.771.24 3.588.135 5.32-.31.966-.249 2.007-.695 2.385-1.618.175-.426.182-.899.186-1.359l.054-5.455c.003-.353.005-.716-.125-1.044-.15-.377-.458-.67-.64-1.034-.277-.557-.229-1.214-.174-1.833l.489-5.523c.085-.97.135-2.06-.505-2.794-1.456-1.671-5.177-.246-5.351 1.874"/>
        <path fill="#F0DDCE" d="M55.352 54.33c-.484.425-.612 1.12-.667 1.761-.118 1.363-.04 2.741-.223 4.098-.182 1.356-.667 2.738-1.695 3.641-.675.594-1.645 1.117-1.642 2.016 0 .247.098.51.307.64.374.237.854-.039 1.193-.322.88-.732 1.66-1.574 2.438-2.413.423-.456.85-.92 1.143-1.468.277-.52.423-1.099.552-1.674.346-1.547.935-3.578.751-5.17-.113-.982-1.085-2.048-2.157-1.108M62.35 54.684c.112.177.123.399.131.609l.04 1.151c.037 1.11.065 2.27-.413 3.273-.276.578-.777 1.11-1.415 1.177-.064.006.436-3.873.47-4.217.047-.474-.217-1.738-.03-2.1.206-.396.986-.255 1.216.107"/>
        <path fill="#141311" d="M57.52 51.382c.007.811.014 1.626.14 2.428.09.575.241 1.14.45 1.684.228.59.55 1.185 1.095 1.508.545.321 1.358.255 1.69-.284.108-.173.156-.376.192-.577.222-1.249.014-2.528.002-3.796-.007-.734.052-1.476-.082-2.198-.133-.722-.496-1.446-1.138-1.802-.473-.263-2.114-.61-2.368.066-.132.351.003.97.006 1.34l.013 1.631"/>
        <path fill="#FEB6A3" d="M53.764 43.21c-.07 1.102.333 2.2.974 3.1.641.9 1.509 1.616 2.43 2.225 1.322.872 2.975 1.555 4.462 1.013.521-.19 1.03-.597 1.073-1.15.041-.528-.348-.982-.71-1.367-1.47-1.562-2.956-3.13-4.708-4.381-.539-.385-1.317-1.324-2.016-1.34-.978-.022-1.455 1.09-1.505 1.9"/>
        <path fill="#EC734B" d="M57.398 41.773a.493.493 0 0 1 .176-.195.433.433 0 0 1 .259-.022c.32.047.62.184.914.32 1.063.488 2.18 1.022 2.83 1.995.054.081.106.17.104.268-.001.106-.066.2-.128.286l-1.531 2.124a.234.234 0 0 1-.088.084c-.04.017-.086.01-.129.003a5.24 5.24 0 0 1-2.847-1.544c-.353-.37-.849-.88-.76-1.378.107-.592.88-1.422 1.2-1.941"/>
        <g transform="translate(58 81.001)">
            <mask id="d" fill="#fff">
                <use xlink:href="#c"/>
            </mask>
            <path fill="#B36D6A" d="M1.724 1.891c-.137.253-.258.553-.525.66-.297.117-.686-.052-.928.156-.231.2-.116.613.144.772.26.158.59.132.89.081a6.943 6.943 0 0 0 3.183-1.434c.183-.148.368-.32.424-.549.046-.182.002-.375-.069-.55C4.687.64 4.374.292 3.967.198c-.551-.127-.741.254-1.081.564-.427.39-.87.588-1.162 1.13" mask="url(#d)"/>
        </g>
        <path fill="#B36D6A" d="M52.198 81.058c-.21-.078-.42-.166-.59-.31-.14-.117-.26-.275-.436-.321-.035-.01-.077-.013-.106.008-.028.02-.038.056-.045.088a3.754 3.754 0 0 0-.099 1.11.853.853 0 0 0 .063.308c.085.182.272.29.45.382.375.194.759.371 1.15.53.332.136.674.259 1.03.291.358.033.734-.033 1.022-.247a.39.39 0 0 0 .128-.14.451.451 0 0 0 .032-.155c.028-.326.115-.696-.161-.903-.16-.118-.459-.142-.652-.179-.61-.118-1.2-.243-1.786-.462"/>
        <path fill="#D0C4C5" d="M17.08 77.425a3.25 3.25 0 0 1-1.49.819c-1.057.255-2.291 0-3.151.665a1.793 1.793 0 0 0-.677 1.542c.021.26.112.53.314.697.202.166.533.19.714 0 .102-.108.14-.26.216-.388.278-.475.941-.506 1.49-.474 1.172.068 2.355.16 3.513-.032 1.157-.191 2.309-.701 3.027-1.63.93-1.204.336-2.368-.994-2.857-1.372-.504-2.134.857-2.963 1.658"/>
        <path fill="#DED7D7" d="M18.72 78.792c.127.941-.051 1.894-.229 2.827l-1.006 5.285c.39.34 1.033.2 1.404-.16.372-.36.54-.877.695-1.37l1.713-5.453a.442.442 0 0 1 .094-.188c.092-.092.24-.087.368-.075l4.186.379c1.343.12 2.772.227 3.968-.398-.076.837.392 1.64.997 2.224.605.584 1.346 1.003 2.02 1.506.673.503 1.306 1.132 1.544 1.938.116.392.239.913.646.944.206.016.39-.117.553-.243l.432-.334c.07-.054.143-.114.166-.199.03-.108-.03-.218-.089-.314a28.495 28.495 0 0 1-2-3.979c-.196-.483-.383-1.004-.281-1.515.07-.349.267-.656.402-.985.218-.531.269-1.13.144-1.69a4.351 4.351 0 0 0 3.08-1.829 4.35 4.35 0 0 0 .618-3.527c.144.965-.194 1.974-.828 2.715-.634.742-1.543 1.224-2.5 1.417a3.073 3.073 0 0 1-1.01.056c-.543-.071-1.035-.341-1.53-.572-2.123-.985-4.494-1.29-6.83-1.434-.892-.055-1.802-.093-2.644-.394-.907-.325-1.773-.96-2.73-.84-.986.124-2.883 1.58-2.982 2.626-.063.664.519 1.14.863 1.634.365.524.767 1.288.767 1.948"/>
        <path fill="#6E5055" d="M16.118 75.701a.58.58 0 0 0 .265.156c.198.04.384-.097.54-.226a67.753 67.753 0 0 0 3.25-2.898c.057-.055.118-.115.137-.193.02-.084-.013-.172-.047-.252-.25-.59-.461-1.05-1.027-.465-.674.698-1.237 1.356-2.109 1.835-.896.493-2.146 1.006-1.01 2.043"/>
        <path fill="#D0C4C5" d="M17.01 71.573c-.01.057-.018.123.018.17.032.038.086.05.136.057.674.112 1.384.221 2.025-.015a.717.717 0 0 0 .307-.191c.117-.138.136-.331.15-.512l.123-1.578c.025-.328.047-.675-.103-.967-.177-.343-.553-.534-.921-.65-.323-.102-.873-.318-1.026-.016-.126.248-.014.918-.073 1.233-.158.836-.48 1.632-.636 2.469"/>
        <g>
            <g transform="translate(0 30.502)">
                <mask id="f" fill="#fff">
                    <use xlink:href="#e"/>
                </mask>
                <path fill="#353535" d="M.55.345a.829.829 0 0 0-.248.106C.173.541.097.691.053.843c-.165.573.077 1.19.415 1.682.05.073.107.148.188.186.076.035.163.032.246.045.373.058.614.418.787.755.247.481.454.987.777 1.422.323.434.789.798 1.327.847.293.027.641-.086.723-.368.068-.231-.07-.465-.166-.686-.384-.883-.128-1.953-.543-2.822C3.553 1.372 3.077.98 2.59.649 1.941.206 1.304.125.55.345" mask="url(#f)"/>
            </g>
            <path fill="#B1B1B2" d="M6.206 28.298c-.807.247-1.669.438-2.308.988-.407.35-.78.864-1.316.842-.189-.007-.372-.085-.56-.067-.356.033-.599.411-.607.77-.008.357.156.693.32 1.01.265.51.555 1.034 1.028 1.36.472.325 1.18.383 1.585-.024.165-.166.264-.39.434-.552.197-.186.467-.269.727-.347a78.552 78.552 0 0 0 5.566-1.903c.521-.2 1.06-.42 1.427-.841.49-.562.57-1.416.286-2.105-.53-1.282-1.564-1.775-2.683-1.028-1.214.81-2.5 1.468-3.9 1.897"/>
            <path fill="#E2CDB5" d="M16.057 16.17c.115-.246-.018-.55-.23-.722-.732-.595-2.784-1.017-2.323.52.114.38.407.843.836.901.368.051 1.547-.334 1.717-.698"/>
            <path fill="#21160A" d="M9.565 9.901l1.146 2.275c.165.328.336.664.61.908.282.253.65.386.973.584.427.261.786.642 1.254.82.531.2 1.262.205 1.46.737.066.473-.192.946-.553 1.259-.362.312-.816.494-1.263.662-.382.143-.766.281-1.151.414-.071.024-.148.049-.22.029-.126-.034-.18-.178-.219-.302a8.894 8.894 0 0 0-1.984-3.418"/>
            <path fill="#E0A16C" d="M4.15 10.74c.11-.234 1.058-1.886 1.047-1.638-.031.708.056 1.416.142 2.117.017.137.036.28.118.39.143.194.418.22.658.216 1.024-.016 1.26 2.099 1.145 2.632-.393 1.795-1.298 3.604-2.916 4.475-.32.172-.676.305-1.039.286-.309-.017-.6-.144-.883-.27-.567-.256-1.147-.532-1.56-.997C.238 17.25.1 16.219.29 15.3c.19-.918.668-1.748 1.161-2.545.186-.3.379-.6.64-.837.531-.48 1.256-.581 1.835-.972.25-.169.249-.238.31-.523a4.35 4.35 0 0 1 .402-1.1c.239-.47.494-.958.922-1.266.536-.385 1.239-.417 1.898-.434"/>
            <path fill="#E2CDB5" d="M6.53 28.708c.264.065.536-.125.664-.366.441-.834.456-2.929-.961-2.178-.351.186-.748.563-.723.996.022.37.629 1.452 1.02 1.548"/>
            <path fill="#353535" d="M12.713 39.106c.332.61 1.126.757 1.816.838l3.112.362c.582.067 1.218.123 1.71-.195.089-.057.179-.141.179-.248a.33.33 0 0 0-.054-.157c-.294-.509-.877-.763-1.42-.986l-1.595-.652c-.317-.13-.648-.27-.858-.54-.106-.135-.174-.296-.266-.441-.378-.597-1.512-1.035-2.121-.514-.542.464-.838 1.916-.503 2.533"/>
            <path fill="#EAEAEF" d="M7.483 24.304l2.164 2.318c.475.51.953 1.023 1.313 1.62.75 1.244.925 2.74 1.083 4.185.128 1.17.256 1.389.384 2.56.119 1.085.236 2.203-.058 3.256a7.73 7.73 0 0 0 2.844.007c.261-.048.543-.125.697-.342.112-.158.133-.36.143-.553.085-1.659-.443-2.34-.462-4.002-.008-.717.08-1.432.078-2.15-.003-1.487-.385-2.944-.765-4.382l-1.147-4.345c-.19-.715-.41-1.48-.985-1.942-.432-.348-.998-.468-1.542-.579-.94-.19-1.9-.383-2.853-.263-.868.109-2.147.636-2.394 1.582-.287 1.1.83 2.313 1.5 3.03"/>
            <path fill="#E2CDB5" d="M8.28 4.994c-.344.975-1.593 1.495-1.724 2.52-.015.119-.012.247.053.348.038.06.095.104.151.147.948.716 2.09 1.647 3.268 1.488.209-.028.538-.7.628-.891.079-.167.012-.366-.082-.524-.093-.16-.215-.308-.255-.488-.05-.232.046-.468.076-.703.054-.423-.113-.86-.406-1.17-.294-.309-.703-.496-1.125-.56"/>
            <path fill="#F7E0C4" d="M7.274 4.666a.412.412 0 0 0-.155.539c.07.129.207.208.3.323.163.203.174.496.333.702.083.107.199.182.312.255l1.003.643c.188.12.38.243.595.304.215.062.46.055.645-.072.157-.106.25-.282.337-.45.091-.178.183-.355.27-.534.28-.573.52-1.172.613-1.802.093-.63.029-1.297-.272-1.858a.793.793 0 0 0-.25-.303.947.947 0 0 0-.358-.113c-.449-.078-.933-.152-1.343.046-.29.14-.502.397-.692.656-.27.366-.518.76-.654 1.196-.038.123-.05.51-.16.555-.12.049-.315-.202-.524-.087"/>
            <path fill="#E1846A" d="M9.406 5.038c.12-.045.226-.118.332-.19.627-.43 1.27-.876 1.7-1.504.15-.216.274-.465.267-.727-.012-.428-.355-.763-.674-1.048-.462-.412-.928-.827-1.466-1.133C9.396.341 9.214.254 9.02.25c-.165-.003-.324.053-.48.108-.71.254-1.463.539-1.913 1.145-.511.687-1.2 2.707-.512 3.444.324.346.846.388 1.288.342.598-.06 1.447-.044 2.003-.25"/>
            <path fill="#353535" d="M13.416 22.057c.038-.035.042-.093.042-.145.044-4.064-.602-8.044-1.784-11.932a4.225 4.225 0 0 0-1.034-1.778c-.041.04-.03.109-.028.167.006.23-.16.259-.306.36-.121.084-.184.247-.322.321-.513.276-.56.307-.712.938a22.751 22.751 0 0 0-.405 8.49c.145 1.03.23 2.637 1.123 3.345.39.31 1.002.438 1.493.416.188-.008.366-.067.554-.066.175 0 1.239.015 1.38-.116"/>
            <path fill="#21160A" d="M6.356 7.02c.206-.092.415-.183.579-.34-.145.128-.059.252.024.37.118.167.153.315.223.509.135.377.364.722.662.99.545.493 1.339.715 2.02.373.134-.068.264-.153.407-.175.45-.067.747.492.908.98.967 2.94 1.167 6.196.936 9.382a36.787 36.787 0 0 1-.236 2.27c-.056.415-.154.885-.47 1.089-.295.189-.649.063-.961-.052a10.425 10.425 0 0 0-4.931-.554c-.457-.31-.606-1.003-.595-1.63.012-.627.142-1.26.071-1.878-.09-.781-.486-1.448-.746-2.169-.303-.84-.414-1.752-.544-2.65-.105-.732-.536-1.728-.514-2.44.017-.587.463-1.141.799-1.59.617-.823 1.169-1.83 2.087-2.347.09-.05.185-.094.28-.137"/>
            <path fill="#353535" d="M9.465 12.813c.217.987-.204 1.986-.459 2.964-.182.7-.28 1.417-.379 2.133l-1.024 7.48c-.068.495-.14 1.003-.386 1.437-.246.434-.71.782-1.206.741a.517.517 0 0 1-.326-.128c-.094-.093-.127-.231-.155-.361l-.799-3.69c-.215-.992-.43-1.998-.375-3.01.026-.483.114-.96.117-1.443.01-1.607-.908-3.071-1.177-4.656a5.887 5.887 0 0 1 .465-3.446c.159-.34.515-.62.859-.771.522-.231 1.06-.442 1.625-.526a3.798 3.798 0 0 1 2.333.407c.188.101.37.221.503.388.157.199.231.448.302.691.158.543.175 1.848.082 1.79"/>
            <path fill="#F7E0C4" d="M7.854 5.333c.094-.107-.113-.422-.222-.515-.108-.092-.255-.12-.395-.145-.053-.01-.112-.018-.158.01-.04.025-.06.072-.075.118-.14.442.055.914.247 1.336.033.074.08.158.16.167a.207.207 0 0 0 .12-.034.775.775 0 0 0 .323-.937"/>
            <path fill="#E1846A" d="M4.917 10.153a3.942 3.942 0 0 0-1.696 2.898l-.352.017a4.317 4.317 0 0 1 .124-1.976c.189-.62.537-1.215 1.077-1.575.413-.274.906-.393 1.391-.498.332-.072.667-.14 1.006-.15.695-.022 1.88.262 2.197.955-1.223-.51-2.636-.421-3.747.33"/>
        </g>
    </g>
</svg>
