<svg xmlns="http://www.w3.org/2000/svg" xmlns:xlink="http://www.w3.org/1999/xlink" width="30" height="68" viewBox="0 0 30 68">
    <defs>
        <path id="a" d="M.1.298h14.211v21.943H.101z"/>
    </defs>
    <g fill="none" fill-rule="evenodd">
        <path fill="#F7E0C4" d="M21.391 16.21c-.054-.004-.112-.006-.16.02-.056.033-.083.099-.104.16a2.67 2.67 0 0 0-.04 1.572.409.409 0 0 0 .092.187c.077.076.195.083.303.087.595.018 1.194.03 1.785.115.45.064.92.265 1.378.21.959-.114 1.006-1.331.92-2.088-1.342-.237-2.81-.182-4.174-.263"/>
        <path fill="#000" d="M26.355 63.298c.002.95-.033 1.899-.105 2.846-.013.166-.046.362-.195.436a.482.482 0 0 1-.238.028l-.507-.024c-.15-.007-.304-.016-.436-.086-.115-.061-.202-.163-.299-.25-.38-.345-.905-.46-1.39-.627-.862-.297-1.644-.785-2.418-1.27-.193-.12-.413-.3-.367-.524.052-.25.375-.306.629-.31a64.201 64.201 0 0 0 4.761-.24c.283-.026.286.075.565.021M20.42 64.852c.11.77.134 1.553.07 2.33a.823.823 0 0 1-.058.282c-.097.208-.35.304-.578.287-.229-.017-.44-.123-.646-.222a14.758 14.758 0 0 0-4.945-1.376c-.333-.033-.683-.059-.965-.24-.282-.182-.459-.58-.282-.865.185-.297.603-.304.951-.294a10.33 10.33 0 0 0 2.33-.198c.706-.142 1.42-.359 2.134-.257.308.044.604.147.911.198.266.044.545.05.79.163s.451.379.385.641"/>
        <path fill="#B78865" d="M26.12 37.579c.253-.139.53-.281.814-.239.557.084.768.776.796 1.34.057 1.135-.137 2.266-.3 3.39-.866 6-.857 12.104-.383 18.148.076.965.16 1.959-.132 2.88-.052.165-.119.33-.24.454-.154.159-.376.227-.59.279-.68.165-1.387.22-2.084.166-.208-.017-.43-.049-.586-.188-.21-.186-.236-.5-.247-.78-.14-3.684-.039-7.439-1.094-10.968-.37-1.237-.88-2.438-1.104-3.71-.425-2.418.221-4.86 1.057-7.116.308-.83.546-2.004 1.411-2.39.904-.402 1.794-.782 2.682-1.266"/>
        <g transform="translate(15.667 17.172)">
            <mask id="b" fill="#fff">
                <use xlink:href="#a"/>
            </mask>
            <path fill="#B29FBC" d="M10.34 1.286c.436.304.757.737 1.065 1.165.515.716 1.02 1.444 1.41 2.233.982 1.98 1.186 4.23 1.375 6.422.097 1.118.193 2.245.046 3.357-.284 2.145-1.444 4.07-2.58 5.928-.173.283-.35.571-.604.79-.403.346-.95.475-1.474.589-1.489.324-3.023.618-4.531.391-1.508-.226-3.005-1.073-3.586-2.45-.228-.54-.305-1.127-.38-1.706l-.63-4.895C.215 11.289-.02 9.45.168 7.625c.189-1.825.842-3.663 2.16-4.97C3.426 1.572 4.963.836 6.44.388c1.05-.32 3.007.277 3.9.9" mask="url(#b)"/>
        </g>
        <path fill="#E0A16C" d="M24.399 38.466c-.4 3.078-2.137 5.842-2.65 8.904-.201 1.205-.209 2.433-.223 3.655-.047 4.115-.173 8.23-.377 12.34-.03.618-.09 1.3-.53 1.732-.612.6-1.61.422-2.436.203-.255-.068-.523-.142-.713-.326-.236-.23-.304-.579-.347-.906-.252-1.92-.06-3.866.046-5.8.393-7.199-.418-14.483.775-21.592 2.064.939 4.198 1.593 6.455 1.79"/>
        <path fill="#F7E0C4" d="M24.87 37.657c.047.346.081.738-.138 1.01-.504.625-2.532.385-3.12-.008-.548-.366-.486-.924-.187-1.46.846-1.522 3.2-1.383 3.445.458"/>
        <path fill="#9472A3" d="M20.846 18.57c.167.255.21.57.24.873.24 2.432-.107 4.88-.162 7.322-.055 2.444.224 5.005 1.561 7.046.165.25.348.5.423.79.073.287.035.588-.007.88-.073.51-.16 1.017-.26 1.523-.078.398-.183.825-.495 1.083-.26.214-.613.268-.948.288-1.259.077-2.641-.266-3.398-1.28-.39-.522-.575-1.168-.745-1.798-.766-2.838-1.393-5.746-1.361-8.687.023-2.195.432-4.417 1.378-6.406.32-.675.706-1.641 1.422-1.98.681-.32 1.896-.35 2.352.346"/>
        <path fill="#47301D" d="M21.265 16.046c-.159-.331-.16-.713-.228-1.074-.118-.623-.441-1.186-.654-1.783-.333-.937-.372-2.04.161-2.877.22-.344.547-.64.946-.722.312-.065.634.006.945.08.54.129 1.079.267 1.615.414.677.186 1.392.415 1.835.962.325.402.457.925.544 1.435.144.84.19 1.697.136 2.547-.025.398-.085.825-.355 1.117-.395.427-1.06.402-1.64.37a19.884 19.884 0 0 0-2.018-.007c-.502.023-1.027.078-1.287-.462"/>
        <path fill="#BCA4A4" d="M8.09 45.328c-.023 1.176-.047 2.359-.261 3.515-.058.31-.129.617-.151.93-.025.362.014.723.027 1.085a7.257 7.257 0 0 1-.681 3.32c-.107.227-.24.463-.468.566-.187-.924-.116-1.878-.075-2.82.193-4.396-.28-8.824.276-13.188.017-.139.67-.054.755-.03.27.073.517.236.679.469.35.503.183.976.05 1.5-.173.692-.087 1.489-.102 2.198l-.048 2.455z"/>
        <path fill="#E2C3C3" d="M7.185 48.918c-.088 1.892-.057 3.816-.286 5.688l-1.674.126c-.096.007-.201.012-.277-.047-.112-.088-.099-.259-.076-.4.45-2.767.274-5.594.098-8.393-.127-2.02-.504-4.202-.362-6.211 0 .003 1.657-.236 1.7-.202.04.032.084.075.136.066.517-.087 1.01.334 1.194.828.182.494.131 1.04.08 1.565a167.33 167.33 0 0 0-.533 6.98"/>
        <path fill="#292831" d="M7.392 54.825c.892.36 1.783.72 2.674 1.078.269.109.59.314.503.572-.071.213-.368.265-.61.276-1.03.05-2.064.045-3.094-.015l-.049.472c-.51.06-1.028.08-1.543.059.039-.637.077-1.282-.058-1.908-.043-.198-.103-.397-.077-.597.021-.17.102-.326.171-.485.19-.438.291-.91.295-1.382.363.01 1.571-.224 1.803.072.19.242-.23 1.772-.015 1.858"/>
        <path fill="#3E3C42" d="M12.254 1.256c.449.637.575 1.456.525 2.235-.05.78-.26 1.537-.43 2.3-.488 2.187-.634 4.523.116 6.635.16.451.362.893.44 1.366.112.67-.03 1.354-.171 2.018-.227 1.068-.454 2.137-.762 3.184-.096.321-.21.659-.463.877-.254.218-.693.253-.895-.015a.917.917 0 0 1-.13-.298c-.326-1.09-.6-2.197-.822-3.314-.239.563-.482 1.14-.521 1.75-.037.575.048 1.288-.438 1.595a13.403 13.403 0 0 1-1.281-3.158c-.136-.513-.24-1.035-.374-1.549a14.174 14.174 0 0 0-1.792-4.09c-.128-.198-.265-.397-.458-.53-.193-.135-.457-.19-.665-.08-.337-.632.073-1.39.457-1.995a41.856 41.856 0 0 0 2.703-4.983c.213-.466.419-.939.7-1.368.408-.623 1.242-1.78 2.047-1.73.855.053 1.71.433 2.214 1.15"/>
        <path fill="#262130" d="M6.646 13.95c.338.642.716 1.267.982 1.943.294.747.446 1.542.597 2.332.224 1.175.449 2.353.567 3.544.406 4.079-.437 8.221.12 12.282.238 1.738.733 3.455.7 5.21-.006.268-.03.555-.199.763-.136.168-.346.256-.548.332a10.12 10.12 0 0 1-6.366.212c.03-2.087.06-4.183-.203-6.254-.214-1.682-.622-3.375-.391-5.055.094-.685.293-1.35.437-2.027.332-1.562.37-3.17.528-4.759.277-2.79.926-5.528 1.573-8.256.114-.478.389-2.387.92-2.572.39-.135 1.057 1.875 1.283 2.305"/>
        <path fill="#E2C3C3" d="M6.595 11.703c-.022-.512-.155-1.032-.462-1.441-.308-.408-.81-.688-1.318-.644-.644.056-1.14.587-1.506 1.123a8.568 8.568 0 0 0-1.463 5.3l2.58.5c.09.018.187.04.25.107.066.07.08.174.09.27l.318 3.138c.032.315.065.634.163.935.118.367.327.696.505 1.038.565 1.092.8 2.322 1.129 3.508.4 1.441.948 2.835 1.515 4.218.118.29.243.586.466.804.222.219.57.34.851.208.276-.128.41-.46.397-.766-.013-.306-.143-.592-.272-.869l-1.549-3.34c-.122-.264-.245-.53-.31-.812-.088-.377-.071-.77-.08-1.157-.034-1.362-.396-2.691-.6-4.038-.32-2.126-.245-4.29-.144-6.438.04-.86.046-1.83-.558-2.442"/>
        <path fill="#E1E5E5" d="M4.832 16.452c-.071 4.189-.012 8.38.176 12.566.043.943.02 2.05-.735 2.612-.341.254-.775.343-1.197.388-.575.062-1.18.05-1.698-.208C.554 31.4.12 30.45.026 29.53c-.093-.92.088-1.841.169-2.762.102-1.167.042-2.343.128-3.512.1-1.345.393-2.673.447-4.02.052-1.27-.368-3.18.265-4.327 1.3.64 2.27 1.405 3.797 1.543"/>
        <path fill="#C3C9C9" d="M2.92 14.143c.224-1.406.69-2.765 1.257-4.07.196-.45.53-.972 1.016-.915.176.588-.135 1.196-.376 1.76-.851 1.998-.899 4.305-1.971 6.192-.056.099-.124.204-.23.24-.806.275-.163-1.012-.104-1.167.25-.649.299-1.36.407-2.04"/>
        <path fill="#3E3C42" d="M7.542 1.01c-.526.512-.884 1.17-1.225 1.822-.3.572-.594 1.146-.888 1.721-.441.864-.885 1.731-1.207 2.648-.26.739-.44 1.504-.682 2.249-.656 2.021-1.771 3.906-2.086 6.01.257-.133.345-.451.416-.733.385-1.546 1.011-3.041 1.934-4.338.623-.875 1.374-1.653 1.984-2.539C6.98 6.116 7.626 3.975 9.164 2.54c.401-.375.857-.693 1.214-1.11.217-.255.616-.778.447-1.138-.158-.335-.664-.299-.965-.281-.856.049-1.699.4-2.318 1"/>
        <path fill="#E2C3C3" d="M11.301 3.15a8.605 8.605 0 0 1-1.096 3.079c-.124.211-.263.422-.46.565-.175.126-.384.191-.59.255-.386.12-.85.224-1.158-.04-.276-.236-.284-.655-.27-1.02.03-.712.057-1.424.085-2.136.013-.327-.132-1.425.217-1.582.282-.126.943.312 1.221.388.677.184 1.37.317 2.051.492"/>
        <path fill="#3A3A42" d="M6.884 55.406a.114.114 0 0 0 .012.024c.063.095.323.145.428.187l2.187.882c.269.108.59.314.503.572-.072.212-.368.264-.61.276-1.03.05-2.064.044-3.094-.015l-.05.471c-.51.06-1.027.08-1.542.06.039-.638.076-1.283-.058-1.909-.043-.197-.103-.397-.077-.597.02-.169.102-.326.17-.484.191-.439.292-.91.296-1.383 0-.122 1.705-.03 1.836 0 .036.01.075.02.096.051.018.028.017.064.015.097-.024.398-.074.795-.095 1.193-.007.124-.07.442-.017.575"/>
    </g>
</svg>
