<svg xmlns="http://www.w3.org/2000/svg" xmlns:xlink="http://www.w3.org/1999/xlink" width="37" height="54" viewBox="0 0 37 54">
    <defs>
        <path id="a" d="M0 53.677h36.912V.108H0z"/>
    </defs>
    <g fill="none" fill-rule="evenodd">
        <path fill="#B3B9BA" d="M34.296 51.068l-4.866-5.795.263-.22 4.866 5.795z"/>
        <path fill="#B3B9BA" d="M35.761 46.92l-5.988-1.705 3.986-2.216.167.298-3.263 1.815 5.192 1.478z"/>
        <path fill="#B3B9BA" d="M30.048 45.188l-.972-6.857.34-.048.972 6.856zM29.412 45.247l-4.498-7.99.3-.167 4.497 7.99z"/>
        <g transform="translate(0 .215)">
            <path fill="#475F60" d="M10.903 39.045a3.7 3.7 0 0 1-3.323-.531c-.322-.24-.602-.531-.874-.827-1.287-1.4-2.432-2.924-3.493-4.501-.304-.452-.604-.913-.795-1.423-.165-.44-.244-.908-.306-1.374a20.401 20.401 0 0 1-.175-3.16c.016-.7.074-1.425.4-2.047.286-.545.755-.968 1.214-1.38-.373.24-.879.072-1.298.215-.262.09-.468.292-.646.504-.42.499-.743 1.083-.922 1.71-.122.427-.178.869-.234 1.309-.213 1.695-.415 3.483.254 5.057.29.684.736 1.297.988 1.996.239.663.3 1.392.642 2.008.276.497.714.882 1.152 1.247.747.624 1.524 1.225 2.401 1.65.65.314 1.343.525 2.034.736.51.155 1.025.312 1.556.342.995.058 2-.348 2.695-1.06.387-.396 1.408-1.848.92-2.398-.323.307-.521.808-.877 1.139a3.62 3.62 0 0 1-1.313.788"/>
            <path fill="#B3B9BA" d="M6.604 31.101l-4.815-5.62.262-.222 4.814 5.62z"/>
            <mask id="b" fill="#fff">
                <use xlink:href="#a"/>
            </mask>
            <path fill="#B3B9BA" d="M7.179 30.742h.343v-6.09h-.343zM7.742 31.63l-.125-.32 3.693-1.439.125.319zM12.955 33.858l-5.012-.924.063-.336 5.012.923z" mask="url(#b)"/>
            <path fill="#1E4039" d="M5.722 22.93c1.305.06 2.633.46 3.606 1.329.491.439.876.981 1.256 1.518l1.708 2.41c.43.607.863 1.219 1.174 1.894.431.936.615 1.963.795 2.977l.208 1.173c.192 1.085.382 2.218.052 3.269-.156.495-.42.947-.683 1.395-.309.527-.624 1.062-1.074 1.475a5.636 5.636 0 0 0 .872-3.402c-.039-.568-.164-1.126-.29-1.682l-.36-1.597c-.114-.505-.228-1.013-.415-1.497-.239-.617-.59-1.183-.94-1.746l-1.32-2.123c-.315-.506-.63-1.013-1.003-1.478a7.682 7.682 0 0 0-5.365-2.822c-.376-.027-.762-.025-1.12.093-.835.276-1.34 1.117-1.658 1.934a9.79 9.79 0 0 0-.334 6.014c-1.198-2.15-1.007-4.866-.024-7.122.322-.739.726-1.437 1.54-1.64 1.088-.27 2.254-.423 3.375-.371" mask="url(#b)"/>
            <path fill="#071416" d="M.796 32.836c1.57 4.521 5.37 9.575 10.329 8.09 3.15-.944 3.304-4.154 2.472-6.873a62.239 62.239 0 0 1-.574 2.286c-.311 1.147-.716 2.374-1.694 3.054-.84.584-1.884.608-2.863.49-1.069-.13-1.569-.517-2.244-1.343-.703-.86-1.599-1.542-2.345-2.365-2.438-2.689-2.64-5.954-3.195-9.327-.026.573-.408 1.046-.546 1.591-.147.581-.1 1.2-.009 1.785.126.81.352 1.7.669 2.612" mask="url(#b)"/>
            <path fill="#475F60" d="M33.114 51.53a3.7 3.7 0 0 1-3.323-.53c-.322-.24-.602-.531-.873-.826-1.288-1.4-2.432-2.925-3.493-4.502-.305-.452-.605-.913-.795-1.423-.165-.44-.244-.908-.307-1.374a20.397 20.397 0 0 1-.174-3.16c.016-.7.074-1.424.4-2.046.285-.545.754-.969 1.213-1.38-.373.239-.878.071-1.298.214-.262.09-.468.293-.646.504-.42.5-.742 1.083-.922 1.71-.122.427-.178.87-.233 1.31-.214 1.694-.416 3.482.253 5.056.29.684.737 1.298.989 1.996.238.663.299 1.392.641 2.008.276.498.715.882 1.152 1.247.748.624 1.525 1.226 2.402 1.65.65.314 1.343.525 2.034.736.509.155 1.024.312 1.556.343.994.058 2-.349 2.694-1.06.388-.397 1.408-1.849.92-2.399-.323.307-.52.808-.876 1.139a3.62 3.62 0 0 1-1.314.788" mask="url(#b)"/>
            <path fill="#1E4039" d="M27.933 35.417c1.306.06 2.633.458 3.606 1.328.491.44.876.982 1.257 1.518l1.707 2.41c.43.608.863 1.22 1.175 1.895.43.936.614 1.962.794 2.976l.208 1.174c.193 1.084.382 2.218.052 3.268-.155.495-.42.948-.683 1.396-.308.526-.624 1.061-1.074 1.475a5.636 5.636 0 0 0 .873-3.402c-.04-.569-.165-1.127-.29-1.682l-.36-1.597c-.114-.506-.229-1.014-.416-1.497-.238-.618-.59-1.184-.94-1.746l-1.32-2.124c-.315-.505-.63-1.012-1.002-1.478a7.681 7.681 0 0 0-5.366-2.821c-.376-.028-.762-.026-1.12.092-.835.276-1.34 1.117-1.657 1.935a9.79 9.79 0 0 0-.334 6.014c-1.199-2.15-1.007-4.866-.024-7.123.322-.738.725-1.437 1.54-1.64 1.088-.27 2.253-.423 3.374-.371" mask="url(#b)"/>
            <path fill="#21251D" d="M8.082 30.49l-2.024.214.302 2.488h2.239l1.292-1.351-.775-1.61z" mask="url(#b)"/>
            <path fill="#E6A300" d="M12.087 23.946L7.35 30.49l2.369.501 3.356-5.471z" mask="url(#b)"/>
            <path fill="#A57D23" d="M29.615 33.493l1.938 10.597-1.335.858-1.593-11.238z" mask="url(#b)"/>
            <path fill="#B7BCBB" d="M21.794 25.094c.455.398 1.012.7 1.347 1.202.316.474.391 1.098.195 1.632.714.148 1.44.296 2.166.23.726-.066 1.464-.379 1.872-.98.43-.635.425-1.457.39-2.22-.021-.439-.048-.885-.204-1.296-.217-.574-.67-1.03-1.157-1.405a7.33 7.33 0 0 0-2.532-1.26s-.793 1.027-.886 1.12c-.362.355-.77.653-1.208.91-.347.202-.643.298-.683.732-.047.504.345 1.025.7 1.335" mask="url(#b)"/>
            <path fill="#21251D" d="M20.727 29.588l.475.901 12.504-6.918-.603-1.448z" mask="url(#b)"/>
            <path fill="#D8C0AD" d="M14.268 38.34a.602.602 0 0 0-.063.273.526.526 0 0 0 .086.22c.326.547.888.95 1.513 1.083.104.022.216.036.313-.007a.532.532 0 0 0 .19-.172c.418-.539.678-1.18.933-1.81l1.775-4.4c.33-.817.664-1.657.675-2.537-.003.185-2.523.003-2.751.02-.74.053-.716 1.294-.882 1.921a46.082 46.082 0 0 1-1.79 5.41" mask="url(#b)"/>
            <path fill="#B7BCBB" d="M11.55 22.296c-.114.238-.218.49-.224.753-.011.48.299.901.61 1.266a16.09 16.09 0 0 0 1.807 1.806c.608.518 1.268 1.005 1.694 1.68.67 1.063.652 2.401.612 3.655l3.667.014c.06 0 .124-.002.17-.039.04-.033.057-.088.07-.14.276-1.118.101-2.297-.168-3.416-.27-1.12-.633-2.224-.738-3.37-.014-.15-.024-.306-.094-.44-.077-.147-.218-.25-.353-.348-.825-.594-1.657-1.193-2.586-1.606-.862-.382-1.8-.6-2.62-1.076-.479-.277-.618-.598-1.03-.092-.33.403-.592.886-.816 1.353" mask="url(#b)"/>
            <path fill="#D8C0AD" d="M26.533 16.457c.015.193.033.391.12.563.095.187.26.327.414.469 1.465 1.35 2.155 3.31 3.01 5.106.185.391.391.79.727 1.065.337.274.84.392 1.212.17.364-.219.5-.699.431-1.117-.068-.417-.3-.789-.53-1.145a65.256 65.256 0 0 0-2.388-3.448c-.295-.4-.599-.801-.777-1.263-.197-.513-.23-1.07-.293-1.615a13.999 13.999 0 0 0-.42-2.147c.01.04-1.451.855-1.56 1.079-.257.535.008 1.698.054 2.283" mask="url(#b)"/>
            <path fill="#397C74" d="M21.457 8.056c.113-.01.236-.012.33.053.114.08.145.232.173.368.114.557.317 1.097.6 1.591.233.405.637.827 1.092.715.398-.098.583-.544.709-.932l.444-1.37c.03-.09.063-.188.141-.244a.47.47 0 0 1 .237-.066c.67-.06 1.426-.092 1.92.362.215.198.35.466.47.732.46 1.024.759 2.148.652 3.265-.045.471-.17.953-.478 1.313-.308.36-.83.568-1.275.403a.76.76 0 0 1-.062-.413l-.93 4.75c-.204 1.04-.412 2.094-.862 3.056-.227.485-.513.94-.843 1.362a4.093 4.093 0 0 1-.707.73c-.854.66-2 .77-3.078.856-.862.068-1.745.135-2.58-.092-.788-.213-1.484-.676-2.148-1.15a40.918 40.918 0 0 1-2.588-2.009c-.102-.086-.207-.176-.264-.298-.12-.257.012-.556.143-.809a138.052 138.052 0 0 0 3.58-7.516c.532-1.207 1.053-2.076 2.1-2.864 1.077-.81 1.76-1.669 3.224-1.793" mask="url(#b)"/>
            <path fill="#D8C0AD" d="M21.935 8.739c.041.395.2.767.372 1.126.242.51.601 1.072 1.166 1.126.425.041.83-.242 1.048-.608.218-.365.283-.8.321-1.223a12.24 12.24 0 0 0 .038-1.63c-.002-.052-.005-.109-.036-.153-.031-.044-.084-.067-.134-.088l-1.627-.676c-.57-.237-.907-.279-.996.308-.086.57-.212 1.243-.152 1.818" mask="url(#b)"/>
            <path fill="#EACDB2" d="M22.067 5.92c-.11.366.018.775.261 1.07.243.295.588.49.944.634 1.278.517 2.817.394 3.95-.39 1.132-.783 1.791-2.228 1.556-3.582a1.023 1.023 0 0 0-.152-.426c-.129-.18-.344-.274-.548-.36-.82-.345-1.653-.693-2.535-.824-.881-.13-1.832-.022-2.564.484s-1.182 1.465-.925 2.315" mask="url(#b)"/>
            <path fill="#C76103" d="M28.085 1.157C27.513.514 26.653.164 25.792.114c-.861-.049-1.721.182-2.498.554-.465.223-.924.515-1.179.962-.155.273-.223.586-.276.896-.149.877-.19 1.768-.19 2.657 0 .246.004.498.094.727.09.229.287.432.533.46.343.038.64-.282.716-.618.077-.336-.002-.684-.047-1.026-.045-.341-.048-.716.153-.996s.674-.378.888-.108c.18.228.092.57.22.83.148.295.516.39.84.455l1.507.296c.74.145 1.516.29 2.239.075.762-.225 1.633-1.136 1.112-1.935-.25-.385-.703-.623-.986-.993-.295-.386-.509-.828-.833-1.193" mask="url(#b)"/>
            <path fill="#D8C0AD" d="M19.867 20.872c0 .306.001.613.048.915.063.406.208.794.366 1.174.889 2.14 2.185 4.084 3.471 6.013.08.119.162.244.179.386.046.384-.397.659-.785.666-.859.015-1.521-.715-2.058-1.383-.761-.948-1.534-1.915-1.978-3.045-.275-.7-.425-1.462-.858-2.078-.204-.29-.47-.545-.603-.874-.123-.304-.12-.642-.116-.97.02-1.494-.083-3.058.078-4.54.62-.085 1.702.092 2.067.677.48.767.189 2.201.19 3.06" mask="url(#b)"/>
            <path fill="#11635B" d="M20.746 11.058c.631 2.13.606 4.447-.07 6.563-.035.107-.075.22-.162.29-.1.083-.238.095-.367.102a37.891 37.891 0 0 1-3.55.028c-.133-.005-.286-.021-.36-.132-.053-.077-.05-.177-.044-.27.119-1.997.238-3.996.498-5.98.117-.893.544-1.907 1.592-1.907 1.066 0 2.133.189 2.463 1.306" mask="url(#b)"/>
            <path fill="#E6A300" d="M27.221 30.03l-7.535 5.946.614.771 2.334-.425 6.252-5.325zM8.771 31.47l7.42 3.994-.48 1.283-8.576-4.413z" mask="url(#b)"/>
            <path fill="#21251D" d="M23.758 34.436l1.077 1.546-.9.765-1.34-1.495zM18.242 35.814c-.135 0-.265.024-.387.074-.772.313-1.014 1.513-.54 2.676.475 1.162 1.49 1.852 2.262 1.54.357-.145.614-.491.724-.975.117-.518.051-1.122-.185-1.7-.236-.58-.613-1.057-1.06-1.346-.274-.178-.553-.269-.814-.269m.956 4.876c-.906 0-1.88-.761-2.36-1.932-.581-1.425-.212-2.925.823-3.345.518-.21 1.113-.125 1.677.24.534.345.98.908 1.255 1.583.276.674.35 1.387.21 2.006-.147.653-.514 1.128-1.032 1.337-.184.075-.377.11-.573.11" mask="url(#b)"/>
            <path fill="#655643" d="M17.536 42.982c.041.26.039.554-.136.753-.29.33-.836.186-1.21-.046-.976-.603-1.637-1.591-2.267-2.549-.123-.187-.249-.38-.3-.597-.048-.204-.028-.418-.001-.626.062-.493.156-.982.283-1.464.008-.032 2.196 1.162 2.397 1.418.29.369.406.973.605 1.399.257.552.534 1.104.63 1.712" mask="url(#b)"/>
            <path fill="#071416" d="M23.007 45.322c1.57 4.522 5.37 9.575 10.329 8.09 3.151-.943 3.305-4.154 2.472-6.872a62.404 62.404 0 0 1-.574 2.285c-.31 1.148-.716 2.374-1.694 3.054-.84.584-1.884.608-2.863.49-1.068-.13-1.568-.517-2.244-1.342-.703-.86-1.599-1.542-2.344-2.365-2.439-2.69-2.64-5.954-3.195-9.328-.026.574-.409 1.047-.546 1.591-.147.582-.1 1.2-.01 1.785.127.81.353 1.7.67 2.612" mask="url(#b)"/>
            <path fill="#B3B9BA" d="M29.498 45.107l-5.627-2.231.127-.318 5.627 2.231z" mask="url(#b)"/>
            <path fill="#B3B9BA" d="M25.239 46.7l-.118-.321 4.382-1.591.118.32z" mask="url(#b)"/>
            <path fill="#B3B9BA" d="M27.525 49.414l-.308-.152 2.19-4.39.308.152zM30.325 51.777l-.408-6.022.343-.023.408 6.022zM1.92 31.816h4.253v-.342H1.92zM4.197 35.146l-.283-.228 2.382-2.726.282.228zM7.206 38.455l-.343-.005.1-6.118.343.004zM10.843 39.53l-2.766-6.5.313-.142 2.767 6.5z" mask="url(#b)"/>
            <path fill="#E6A300" d="M26.6 26.885l2.24 19.007 1.378-.944-1.971-11.155 1.368-.3-1.206-7.42z" mask="url(#b)"/>
        </g>
    </g>
</svg>
