<svg xmlns="http://www.w3.org/2000/svg" xmlns:xlink="http://www.w3.org/1999/xlink" width="53" height="69" viewBox="0 0 53 69">
    <defs>
        <path id="a" d="M.254.134h2.788V8.44H.254z"/>
    </defs>
    <g fill="none" fill-rule="evenodd">
        <path fill="#B78865" d="M23.508 39.195l.314.472c.095.143.191.334.09.473-.1.139-.32.107-.464.013-.143-.094-.259-.234-.421-.289a.903.903 0 0 0-.35-.02c-.165.01-.33.022-.495.034-.517.036-.95-.047-1.101-.6-.098-.359-.027-.745.281-.974.841-.624 1.709.236 2.146.891"/>
        <path fill="#492317" d="M23.685 63.88c1.357.327 2.709-.11 4.075-.21.548-.039 1.204-.064 1.44-.42.137-.206.073-.476-.105-.688-.18-.212-.459-.373-.754-.494-.809-.333-1.757-.397-2.613-.278-.809.112-1.808.38-2.463.732-.714.383-.493 1.139.42 1.358"/>
        <path fill="#4F332F" d="M24.405 67.3c.44.512 1.22.561 1.885.44.665-.12 1.321-.37 1.995-.311.403.035.791.18 1.195.202a2.02 2.02 0 0 0 1.642-.718c.101-.123.19-.266.197-.425a.7.7 0 0 0-.072-.306c-.313-.705-1.097-1.077-1.85-1.242-.88-.193-1.713-.271-2.557-.598-.517-.2-1.143-.609-1.727-.417-1.063.348-1.38 2.596-.708 3.376"/>
        <path fill="#21160A" d="M26.505 62.648c.026.373.231.706.39 1.044.159.339.273.74.116 1.08-.195.418-.719.566-1.18.575-.377.008-.772-.05-1.078-.27-.62-.447-.65-1.342-.62-2.105.008-.216.018-.44.11-.637.127-.274.391-.455.643-.622.154-.102.314-.207.497-.236.332-.054.662.16.844.443.183.283.248.623.31.954"/>
        <path fill="#4F332F" d="M4.77 65.843c-.127-.137-.228-.296-.355-.432-.308-.328-.743-.499-1.163-.66-.617-.236-1.309-.472-1.918-.218-.478.2-.79.66-1.022 1.122-.211.419-.381.891-.284 1.35.127.594.746 1.037 1.35.968.334-.039.659-.214.99-.157.209.036.39.16.568.273.62.393 1.312.697 2.044.764.73.066 1.505-.124 2.049-.616.613-.553.736-1.483-.102-1.78-.762-.27-1.492.106-2.157-.614"/>
        <path fill="#21160A" d="M2.03 64.67c-.24.328-.082.823.232 1.08.315.256.736.332 1.14.386.294.039.61.067.874-.07.16-.084.286-.222.398-.364.427-.544.716-1.256.543-1.926-.574-2.226-2.576.058-3.187.895"/>
        <path fill="#8A6359" d="M20.371 49.231l1.828 3.442c.14.263.281.528.479.75.211.238.48.417.712.636.876.825 1.133 2.087 1.595 3.197.473 1.135 1.225 2.278 2.189 3.06.95.77 1.857 1.252 2.123 2.576-.562.262-1.213.014-1.814-.136-1.02-.254-2.156-.195-3.05.357-.39.24-.751.577-1.207.625-.693.072-1.071-.485-1.54-.875a9.177 9.177 0 0 1-1.296-1.3 19.488 19.488 0 0 1-2.144-3.307c-1.239-2.379-2.078-4.944-2.788-7.522-.225-.819-.442-1.682-.24-2.507a2.61 2.61 0 0 1 1.535-1.768c2.401-.968 2.777 1.19 3.618 2.772M9.328 52.04c-.976 2.471-3.349 4.167-4.428 6.596-.583 1.313-.8 2.854-1.822 3.867-.317.315-.742.719-.549 1.122.068.142.202.238.331.328.961.661 1.99 1.224 3.066 1.678.31.13.677.25.968.082.164-.094.269-.261.366-.422a183.09 183.09 0 0 0 6.408-11.425c.833-1.619 1.656-3.517.944-5.192-.455-1.07-2.38-2.57-3.623-1.867-1.25.71-1.17 3.987-1.661 5.232"/>
        <path fill="#B78865" d="M13.693 52.688c-.47.456-.422 1.328.095 1.73a1.7 1.7 0 0 0 .647.286c.21.051.43.08.643.046.534-.087.948-.604.962-1.144.015-.54-.34-1.058-.83-1.286-.49-.228-1.088-.178-1.561.082"/>
        <path fill="#9CBD9C" d="M13.49 29.84c-.953 1.834-1.786 3.769-2.03 5.82-.143 1.198-.082 2.409-.097 3.615a28.515 28.515 0 0 1-.578 5.363c-.112.549-.242 1.104-.202 1.662.04.559.281 1.135.756 1.432.313.196.69.253 1.056.297 1.206.148 2.42.216 3.635.204 1.257-.012 2.594-.14 3.588-.908 1.452-1.12 1.688-3.18 1.806-5.009l.088-1.353c.223-3.438.43-6.998-.779-10.225-.623-1.666-1.745-3.29-3.414-4.035-1.947-.868-3.059 1.654-3.829 3.136"/>
        <path fill="#CAD6E3" d="M13.395 38.427c-.168-1.126-.336-2.267-.224-3.4.113-1.134.538-2.278 1.387-3.04.85-.76 2.17-1.048 3.17-.5.998.547 1.449 1.727 1.686 2.838.47 2.203.369 4.63-.83 6.54-.325.52-.723.989-1.048 1.507-.894 1.424-1.193 3.142-1.265 4.82-.072 1.679.064 3.363-.047 5.04-.024.362-.073.754-.327 1.015-.501.512-1.36.171-1.978-.193-.256.209-.654-.181-.633-.511.02-.33.163-.7-.036-.964-.08-.106-.203-.172-.292-.271-.17-.189-.193-.464-.206-.718l-.206-3.955c-.067-1.291-.13-2.615.26-3.848.239-.753.641-1.45.832-2.218.191-.766.335-1.602-.243-2.142"/>
        <path fill="#B78865" d="M23.82 25.179c.014.062.026.124.034.187.048.437-.27.79-.402 1.19-.073.22-.106.463-.194.674-.17.411-.52.644-.865.776-.535.205-1.101.227-1.659.204-.795-.032-1.618-.168-2.295-.71-.676-.543-1.167-1.583-1.005-2.59.082-.506.312-.947.543-1.367.207-.377.422-.752.701-1.04.612-.634 1.44-.762 2.22-.865.758-.102 1.8-.203 2.264.728.34.68.193 1.54.455 2.24.071.19.154.378.202.573"/>
        <path fill="#492317" d="M23.418 24.477c.334-.591.583-1.313.377-1.97-.158-.502-.563-.878-1.01-1.095-.448-.217-.94-.297-1.425-.374-1.198-.192-2.478-.372-3.574.186-1.028.523-1.742 1.702-1.777 2.932-.025.867.26 1.707.575 2.505.13.329.278.671.548.876.227.172.512.225.788.247 2.11.166 4.417-1.395 5.498-3.307"/>
        <path fill="#E1846A" d="M18.79 27.802c.111.353.43.592.696.849 1.39 1.335 1.586 3.45 1.697 5.372.054.919.106 1.851-.089 2.751-.06.283-.146.567-.125.855.02.288.18.59.456.677.244.076.516-.038.695-.22.401-.41.396-1.054.365-1.625l-.19-3.472c-.032-.579-.064-1.162-.206-1.725-.154-.604-.43-1.17-.611-1.767-.262-.863-.358-2.315-1.242-2.839-.727-.43-1.726.252-1.446 1.144"/>
        <path fill="#EA9581" d="M22.537 21.735c.102-.208.2-.467.069-.658-.071-.103-.192-.158-.307-.207-.609-.26-1.23-.517-1.89-.589-1.11-.12-2.201.299-3.24.71-.225.089-.455.18-.636.34-.607.537-.401 1.512-.146 2.28l.901 2.72c.284.854.638 1.793 1.444 2.197.453.227.995.243 1.485.112 1.263-.335.554-1.74.696-2.682.226-1.5.965-2.876 1.624-4.223"/>
        <path fill="#CEBBAE" d="M44.346 6.356c-.31.383-.455.896-.39 1.384.01.072.02.154-.025.21-.03.035-.075.052-.118.067-.32.11-.645.221-.983.23-.338.008-.697-.101-.908-.365-.136-.168-.2-.384-.233-.599-.051-.33-.03-.688.152-.97.162-.249.43-.409.704-.525.412-.175.857-.27 1.303-.278.17-.003.373.029.44.183"/>
        <path fill="#823725" d="M44.09 44.204c.426.444 1.14.386 1.749.295l2.747-.411c.513-.077 1.07-.176 1.418-.562.063-.07.12-.163.095-.254a.287.287 0 0 0-.082-.121c-.37-.367-.927-.45-1.444-.514l-1.516-.187c-.301-.038-.617-.08-.86-.263-.121-.09-.217-.213-.33-.315-.461-.423-1.533-.534-1.934.052-.356.521-.273 1.83.158 2.28"/>
        <path fill="#CEBBAE" d="M44.165 43.634c.425.445 1.139.387 1.748.295l2.747-.411c.513-.077 1.07-.176 1.418-.562.063-.07.12-.162.095-.253a.287.287 0 0 0-.082-.122c-.37-.366-.927-.45-1.444-.513l-1.516-.188c-.301-.037-.617-.08-.86-.262-.121-.092-.217-.213-.33-.316-.461-.422-1.533-.534-1.934.052-.356.521-.272 1.83.158 2.28"/>
        <path fill="#823725" d="M48.115 43.833c.187-.287.447-.647.8-.889.337-.23.932-.328 1.258-.241l-.367-.323c-.436-.116-.673-.049-1.107.248-.41.28-.7.68-.905.996l.321.21zM37.314 42.967c.426.444 1.14.386 1.748.295l2.747-.411c.514-.077 1.07-.176 1.418-.562.063-.07.12-.163.096-.253a.285.285 0 0 0-.083-.122c-.37-.367-.927-.45-1.444-.514l-1.516-.187c-.3-.037-.617-.08-.859-.263-.122-.091-.218-.212-.33-.315-.462-.423-1.534-.534-1.934.052-.356.521-.273 1.83.157 2.28"/>
        <path fill="#CEBBAE" d="M37.388 42.397c.426.444 1.14.387 1.748.295l2.747-.411c.514-.077 1.071-.176 1.418-.562.063-.07.12-.162.096-.253a.288.288 0 0 0-.083-.122c-.37-.367-.927-.45-1.444-.513l-1.515-.188c-.302-.037-.618-.08-.86-.262-.122-.092-.217-.213-.33-.316-.462-.422-1.534-.534-1.934.052-.356.521-.273 1.831.157 2.28"/>
        <path fill="#823725" d="M41.339 42.596c.186-.287.446-.647.8-.888.337-.23.932-.328 1.258-.242l-.368-.323c-.436-.116-.672-.048-1.107.249-.41.28-.699.679-.905.996l.322.208zM49.12 42.728l.103-.37c-.108-.03-.213-.08-.325-.133a3.68 3.68 0 0 0-.24-.107c-.292-.116-.559-.12-.77-.015l.171.343c.141-.07.328-.024.46.028.072.029.143.063.213.096.122.058.248.119.388.158"/>
        <path fill="#CEBBAE" d="M50.145 20.293c.315.891.411 1.968.267 2.957-.095.644-.436 1.36-.834 1.156-.562-.287-.312-1.791-.75-2.423"/>
        <path fill="#E2CDBF" d="M40.061 3.743c-.183-.564.04-1.312.515-1.67.41-.311.905-.496 1.316-.806.07-.052.142-.11.227-.116.082-.006.157.035.231.07.862.395 2.111.032 2.676.998.288.495.239 1.14.56 1.613.167.243.43.444.466.735.037.303-.186.568-.296.853-.118.306-.103.65-.209.961-.224.666-1.222.667-1.798.561-.66-.122-1.263-.46-1.911-.623a1.656 1.656 0 0 1-1.155-.998c-.19-.487-.45-1.052-.622-1.578"/>
        <path fill="#252A2B" d="M52.788 39.466c.12.384.243.798.116 1.18-.194.585-.869.835-1.462 1.008-2.647.777-5.383 1.562-8.124 1.241-2-.233-4.037-1.047-5.96-.455-.347.106-.694.26-1.055.232-.313-.024-.597-.18-.87-.333l-2.906-1.626c-.205-.115-.43-.254-.485-.483-.033-.135.003-.278.04-.412a18.142 18.142 0 0 1 2.34-5.176c1.41-2.142 3.356-7.7 3.376-10.263.007-.956-.25-1.99.227-2.818.278-.484.762-.807 1.23-1.112l2.577-1.685c.301-.197.61-.397.96-.482.34-.083.697-.05 1.042.004a8.18 8.18 0 0 1 4.016 1.872c1.46 1.252 1.577 2.435 1.949 4.25.798 3.903 1.797 11.257 2.99 15.058"/>
        <path fill="#9D6AA0" d="M51.845 19.017c-.047.636-.307 1.234-.564 1.817a.932.932 0 0 1-.178.297c-.207.204-.54.172-.822.242-.663.166-.999.883-1.262 1.513-.483 1.16-1.016 2.297-1.549 3.435-.818 1.747-1.637 6.985-2.456 8.732l-1.852 3.952c-.216.46-.627 1.009-1.103.83-.296-.11-.418-.45-.574-.723-.267-.47-.706-.813-1.063-1.22-.898-1.023-1.252-2.434-1.232-3.794.02-1.36.38-6.181.763-7.487.055-.19.112-.38.215-.548.108-.174.26-.314.406-.456 1.269-1.234 2.223-2.778 3.59-3.902.462-.38.967-.709 1.42-1.102.865-.75 1.527-1.728 2.46-2.394 1.293-.922 3.983-1.68 3.8.808"/>
        <path fill="#904596" d="M51.278 16.016c.085.41.145.846.007 1.242-.293.848-1.3 1.152-2.097 1.567a5.088 5.088 0 0 0-1.577 1.278c-.392.477-.694 1.021-1.052 1.524-.381.536-.825 1.024-1.268 1.51l-1.631 1.79c-1.128 1.236-2.353 2.533-3.979 2.934-.917-.975-.903-2.546-.357-3.767.546-1.222 1.522-2.19 2.426-3.176a38.486 38.486 0 0 0 4.437-5.881c.098-.16.198-.324.347-.437.163-.123.368-.173.567-.22.827-.196 2.068-.745 2.934-.58.932.178 1.081 1.449 1.243 2.216"/>
        <path fill="#604F4B" d="M44.615 2.34c.208-.572.394-1.254-.038-1.597-.448-.357-1.267-.117-1.94.133l-.902.336c-.333.124-.684.26-.932.506-.269.267-.362.613-.408.934-.162 1.134.108 2.206.588 3.15.39.769.993 2.28 2.03.818.845-1.193 1.136-2.998 1.602-4.28"/>
        <path fill="#252A2B" d="M38.082 7.785c-.068.386-.043.781-.02 1.172l.333 5.357c.047.755.096 1.522.349 2.234.253.713.74 1.378 1.44 1.67-.877-2.126-.498-4.544.03-6.781.068-.287.14-.577.276-.837.437-.832 1.482-1.274 1.75-2.173.207-.701-.156-1.476-.72-1.942-.476-.394-1.532-.972-2.171-.747-.66.233-1.157 1.418-1.267 2.047"/>
        <path fill="#904596" d="M42.952 5.422a40.751 40.751 0 0 0-.916-4.667 4.986 4.986 0 0 0-3.289 2.2 4.97 4.97 0 0 0-.6 3.906c.055.204.125.41.253.578.192.25.49.394.78.522 1.136.502 2.423.937 3.681.752.927-.136.81-.352.532-1.106-.258-.7-.34-1.45-.44-2.185"/>
        <g transform="translate(40.433 .138)">
            <mask id="b" fill="#fff">
                <use xlink:href="#a"/>
            </mask>
            <path fill="#BBA7BC" d="M3.032 7.866c-.308-1.2-.258-2.458-.3-3.696-.042-1.238-.194-2.521-.846-3.573C1.76.392 1.591.183 1.352.142.941.07.64.524.512.922.114 2.16.214 3.512.565 4.76c.287 1.019.726 1.999 1.21 2.937.128.248.253.654.56.73.318.078.783-.224.697-.561" mask="url(#b)"/>
        </g>
        <path fill="#BBA7BC" d="M44.13 20.41c1.188-1.26 2.228-2.67 3.559-3.78.931-.78 2.043-1.46 2.513-2.578.157-.374.224-.83 0-1.168-.317-.481-1.03-.49-1.48-.851-.443-.357-.595-1.034-1.115-1.267-.285-.128-.614-.088-.924-.045-.551.077-1.13.164-1.572.5-.29.221-.497.53-.697.834l-.978 1.477c-1.088 1.645-2.21 3.385-2.36 5.35-.064.849.079 2.058.753 2.672.749.683 1.76-.57 2.3-1.143"/>
        <path fill="#9D6AA0" d="M47.429 9.684c-.192-.217-.436-.38-.677-.54l-.854-.564c-.583-.385-1.203-.784-1.901-.816-.53-.024-1.044.167-1.53.38-.897.396-1.772.893-2.429 1.621-1.403 1.557-1.56 3.834-1.645 5.926l-.274 6.765c-.018.443-.03.915.196 1.298.1.168.24.31.35.47.571.833.37 2.18 1.246 2.683.03-.638.416-1.197.787-1.718.562-.788 1.124-1.577 1.72-2.341.3-.388.615-.777.794-1.234.537-1.378-.283-2.955.053-4.394.133-.566.437-1.076.628-1.626.226-.65.29-1.392.667-1.981.451-.705 1.223-.88 1.99-1.066.484-.118 1.154-.167 1.401-.673.294-.601-.118-1.733-.522-2.19"/>
    </g>
</svg>
