<svg xmlns="http://www.w3.org/2000/svg" xmlns:xlink="http://www.w3.org/1999/xlink" width="22" height="47" viewBox="0 0 22 47">
    <defs>
        <path id="a" d="M.133.229h5.32v2.387H.133z"/>
        <path id="c" d="M.174.04h3.917v5.236H.174z"/>
        <path id="e" d="M.217.056h8.655v8.087H.217z"/>
        <path id="g" d="M0 .166h4.627v3.287H0z"/>
    </defs>
    <g fill="none" fill-rule="evenodd">
        <path fill="#AD7984" d="M18.278 21.832c0 .04 0 .083-.022.117-.023.038-.067.058-.11.07-.248.074-.51-.048-.738-.17-.307-.162-.624-.342-.812-.632-.14-.217-.195-.476-.227-.731a4.891 4.891 0 0 1-.008-1.157c.034-.311.101-.624.257-.896.392-.686 1.462-.852 1.635.047.203 1.05.025 2.284.025 3.352"/>
        <path fill="#DDC9BC" d="M9.09 38.37c.05.18.095.394-.03.532-.08.088-.207.114-.325.136l-.389.073a.47.47 0 0 1-.226.005c-.108-.035-.173-.141-.227-.24-.373-.686-.653-1.418-.93-2.147-.53-1.394-1.058-2.79-1.525-4.205-.319-.968-.61-1.945-.872-2.93.518-.159 1.014.426 1.552.359.254-.032.44-.2.658-.314.332-.174.38-.2.48.15.187.67.216 1.421.338 2.107A65.154 65.154 0 0 0 9.09 38.37"/>
        <path fill="#F0DDCE" d="M6.268 33.184c-.383.947-.94 1.815-1.5 2.671-.418.64-.843 1.282-1.366 1.84-.128.138-.263.271-.361.43-.144.233-.2.508-.317.755-.117.247-.328.484-.602.5-.166.01-.325-.062-.476-.133-.259-.122-.56-.311-.54-.595a.713.713 0 0 1 .11-.287l2.155-3.866c.291-.522.587-1.059.68-1.648.082-.522 0-1.054-.101-1.573a15.375 15.375 0 0 0-.544-2.082l2.391.104c.494.021 1.165.014 1.256.638.06.41-.226.883-.303 1.278-.131.677-.22 1.32-.482 1.968M8.032 4.526c.099.404.09.825.079 1.24-.006.243-.013.488-.091.717-.07.204-.192.386-.327.555-.6.75-1.475 1.28-2.422 1.465-.66-.18-1.42-.448-1.626-1.096-.176-.554.143-1.138.504-1.595a7.398 7.398 0 0 1 2.046-1.78c.897-.527 1.537-.726 1.837.494"/>
        <g transform="translate(16.44 43.347)">
            <mask id="b" fill="#fff">
                <use xlink:href="#a"/>
            </mask>
            <path fill="#0D172C" d="M4.369.28c.423.012.951.104 1.064.508.055.197-.015.404-.089.594-.085.22-.183.449-.368.599-.213.173-.503.21-.778.243l-3.36.385c-.08.01-.165.017-.235-.023-.066-.038-.101-.112-.13-.182C.31 2.025-.035 1.202.226.83.376.62 1.182.444 1.444.377 2.375.14 3.416.251 4.369.281" mask="url(#b)"/>
        </g>
        <g transform="translate(9.912 41.428)">
            <mask id="d" fill="#fff">
                <use xlink:href="#c"/>
            </mask>
            <path fill="#0D172C" d="M3.452 3.516c.185.26.422.488.555.778.132.29.124.68-.131.874-.33.25-.8.019-1.137-.223-.836-.599-1.633-1.275-2.215-2.12-.195-.281-.37-.602-.348-.942.018-.293.18-.556.336-.806l.547-.873c.055-.087.139-.187.24-.16.048.012.083.054.116.092.9 1.09 1.345 2.178 2.037 3.38" mask="url(#d)"/>
        </g>
        <path fill="#1D2D33" d="M13.502 31.645c.359.59.85 1.102 1.13 1.732.216.49.295 1.028.37 1.558l1.333 9.272a4.34 4.34 0 0 0 1.695-.461c-.08-3.148-.163-6.317-.825-9.396-.538-2.502-1.475-5.073-3.072-7.112-1.002-1.278-1.421-.827-1.448.616-.023 1.306.123 2.65.817 3.79"/>
        <path fill="#114759" d="M19.04 34.492c-.053.667-.137 1.354-.47 1.936-.39.68-1.072 1.135-1.703 1.604a19.583 19.583 0 0 0-4.414 4.566c-.59.297-1.301-.345-1.328-1-.026-.655.38-1.24.768-1.771l1.932-2.646c.64-.876 1.287-1.764 1.698-2.766.344-.841.507-1.821.119-2.644-.271-.574-.775-1-1.207-1.468-1.823-1.973-2.416-4.982-1.477-7.491-.078.209 5.235 3.284 5.6 3.981.501.959.437 2.655.507 3.72.087 1.324.08 2.655-.025 3.979"/>
        <path fill="#EADEC7" d="M11.291 22.061c.047.463.122.933.345 1.342.222.41.618.75 1.084.8a8.295 8.295 0 0 1-.035-3.458c.175-.892.845-2.132-.246-2.626-2.094-.95-1.241 3.008-1.148 3.942"/>
        <path fill="#AD7984" d="M18.95 12.879c.723.754 1.443 1.645 1.442 2.686 0 .297-.066.603-.242.844-.173.236-.435.389-.685.543-.765.472-1.515 1.053-1.872 1.874-.357.82-.183 1.925.591 2.381.332.197.767.284.955.619.122.216.103.48.081.726l-.448 5a16.607 16.607 0 0 0-5.702-3.531c-.406-.149-.861-.318-1.043-.708-.102-.218-.097-.469-.09-.71.014-.41.455-4.174.251-4.289-.543-.307-.484-1.084-.412-1.7.147-1.262.037-2.56.367-3.786.108-.4.264-.792.513-1.124.477-.638 1.266-1.002 2.063-1.085 2.048-.213 2.952.925 4.231 2.26"/>
        <path fill="#EADEC7" d="M15.83 7.98c.031-.099.054-.189.067-.263.088-.465.068-.944.109-1.416.037-.428.125-.853.262-1.261.042-.125.09-.251.17-.356.1-.128.244-.216.39-.29.76-.392 1.546-.406 2.381-.412.169 0 .346 0 .492.085.17.098.26.289.336.47.557 1.334 1.406 3.6.31 4.829-.461.519-1.34.425-1.869.877-1.029.88-.894 2.995-2.98 2.203-1.309-.497-.91-2.411-.6-3.42.466.062.79-.582.933-1.046"/>
        <path fill="#4D5763" d="M20.26 3.36c-.024-.373-.203-.758-.538-.932-.23-.12-.501-.126-.761-.13l-3.393-.056c-.169-.003-.341-.005-.5.05-.358.122-.56.491-.699.84-.544 1.37-.617 2.882-.51 4.351.047.636.18 1.358.732 1.687.404.24.955.178 1.323-.114s.551-.783.509-1.248c-.038-.415-.236-.802-.282-1.216-.047-.414.137-.915.549-.997.138-.028.287-.003.42-.053.103-.038.184-.117.267-.19.514-.45 1.129-.662 1.799-.749.196-.025.636.003.804-.122.262-.195.302-.797.28-1.12"/>
        <path fill="#8A86AD" d="M7.216 11.917c.13 1.573-1.415 2.949-1.215 4.515.158 1.233 1.327 2.068 1.896 3.175.578 1.125.502 2.453.472 3.715-.056 2.31.089 4.625.431 6.91-1.712.232-3.47.13-5.143-.296-.935-.239-1.942-.667-2.307-1.552-.17-.408-.176-.862-.18-1.304l-.052-5.232c-.004-.338-.005-.686.12-1.001.145-.362.444-.643.619-.992.269-.534.222-1.164.169-1.759L1.553 12.8c-.083-.93-.13-1.975.488-2.68 1.408-1.603 5.006-.236 5.175 1.798"/>
        <path fill="#F0DDCE" d="M7.329 12.729c.468.407.591 1.073.645 1.688.113 1.308.039 2.63.215 3.93.177 1.301.646 2.627 1.64 3.494.653.57 1.59 1.07 1.588 1.933-.001.237-.095.488-.297.615-.362.226-.826-.038-1.155-.31-.85-.702-1.605-1.51-2.357-2.314-.408-.438-.822-.882-1.105-1.408-.268-.5-.409-1.054-.534-1.606-.334-1.484-.904-3.432-.726-4.96.109-.94 1.05-1.963 2.086-1.062M.562 13.068c-.109.17-.12.382-.127.584l-.039 1.104c-.036 1.065-.063 2.177.4 3.139.267.555.751 1.065 1.368 1.129.062.006-.421-3.715-.454-4.045-.046-.454.209-1.666.028-2.014-.198-.38-.953-.245-1.176.103"/>
        <path fill="#4C3E25" d="M5.232 9.9c-.006.779-.013 1.56-.135 2.33a7.873 7.873 0 0 1-.436 1.615c-.22.567-.531 1.137-1.058 1.446-.528.308-1.313.245-1.635-.272a1.566 1.566 0 0 1-.185-.554c-.215-1.197-.013-2.425-.002-3.64.007-.705-.05-1.417.079-2.11.129-.692.48-1.386 1.101-1.728.458-.251 2.044-.585 2.29.064.127.337-.003.93-.006 1.285l-.013 1.565"/>
        <g transform="translate(0 .183)">
            <mask id="f" fill="#fff">
                <use xlink:href="#e"/>
            </mask>
            <path fill="#116B60" d="M8.865 1.878c.067 1.057-.323 2.111-.943 2.974-.62.863-1.458 1.55-2.35 2.134-1.278.837-2.876 1.492-4.314.972C.754 7.776.26 7.385.22 6.855c-.04-.507.336-.942.688-1.312 1.42-1.497 2.857-3.002 4.551-4.202C5.981.97 6.733.07 7.41.057c.946-.022 1.407 1.045 1.456 1.821" mask="url(#f)"/>
        </g>
        <path fill="#141311" d="M5.35.684a.473.473 0 0 0-.17-.187.419.419 0 0 0-.25-.022c-.31.046-.6.177-.884.307-1.028.469-2.108.98-2.736 1.914-.053.078-.103.163-.102.257.002.102.064.192.125.275l1.48 2.036a.223.223 0 0 0 .085.081c.039.017.083.01.124.003a5.078 5.078 0 0 0 2.754-1.48c.341-.356.82-.845.734-1.323-.103-.567-.85-1.364-1.16-1.861"/>
        <g transform="translate(0 38.311)">
            <mask id="h" fill="#fff">
                <use xlink:href="#g"/>
            </mask>
            <path fill="#41314C" d="M3.102 1.814c.132.243.249.53.507.632.287.113.663-.05.898.151.223.19.111.587-.14.74-.252.152-.57.127-.861.078A6.739 6.739 0 0 1 .428 2.04c-.177-.142-.355-.307-.41-.526-.044-.175-.002-.36.066-.527C.235.613.538.28.932.19c.533-.122.717.243 1.045.541.414.375.841.564 1.125 1.083" mask="url(#h)"/>
        </g>
        <path fill="#41314C" d="M10.38 38.366c.201-.076.404-.16.57-.298.135-.113.25-.263.42-.308.035-.01.075-.013.104.008.026.02.036.053.044.084.084.348.117.708.095 1.065a.808.808 0 0 1-.06.296c-.083.174-.264.277-.436.365-.363.187-.734.357-1.113.51-.32.129-.651.247-.996.278-.345.032-.71-.032-.988-.237a.372.372 0 0 1-.123-.134.425.425 0 0 1-.032-.149c-.026-.313-.11-.668.157-.865.153-.114.443-.137.63-.172.59-.114 1.161-.233 1.727-.443"/>
        <path fill="#EADEC7" d="M20.855 28.283a.63.63 0 0 1-.035.227c-.105.25-.491.262-.7.086-.208-.176-.284-.458-.349-.722-.385-1.558-.797-3.126-1.534-4.554-.099-.192-.205-.384-.248-.596a2.118 2.118 0 0 1-.024-.484c.036-1.326-.038-2.707.108-4.025.066-.59.986-1.622 1.75-1.214.588.314.344 2.54.402 3.17.115 1.282.284 2.559.418 3.84.148 1.418.259 2.844.212 4.272"/>
        <path fill="#AD7984" d="M20.452 18.826a.351.351 0 0 1-.015.17c-.037.084-.13.124-.215.157-.623.244-1.251.474-1.884.692-.125.042-.272.082-.38.006a.404.404 0 0 1-.116-.162 8.244 8.244 0 0 1-.57-1.56.718.718 0 0 1-.032-.229c.016-.206.192-.358.359-.482.355-.264.731-.512 1.01-.854.214-.263.366-.578.616-.808.181-.167.548-.35.797-.222.294.152.216.523.24.828l.19 2.464"/>
    </g>
</svg>
