<?xml version="1.0" encoding="UTF-8"?>
<svg width="82px" height="117px" viewBox="0 0 82 117" version="1.1" xmlns="http://www.w3.org/2000/svg" xmlns:xlink="http://www.w3.org/1999/xlink">
    <!-- Generator: sketchtool 52.4 (67378) - http://www.bohemiancoding.com/sketch -->
    <title>81C000AE-60AB-4C77-B4C5-BF362632151B</title>
    <desc>Created with sketchtool.</desc>
    <defs>
        <polygon id="path-1" points="0.260548441 0.0534366518 5.53281418 0.0534366518 5.53281418 7.15 0.260548441 7.15"></polygon>
        <polygon id="path-3" points="0.190421885 0.224986137 6.41780159 0.224986137 6.41780159 4.67943751 0.190421885 4.67943751"></polygon>
        <polygon id="path-5" points="0 0.295680255 5.90189128 0.295680255 5.90189128 7.51901626 0 7.51901626"></polygon>
    </defs>
    <g id="Page-1" stroke="none" stroke-width="1" fill="none" fill-rule="evenodd">
        <g id="Final" transform="translate(-826.000000, -5815.000000)">
            <g id="Group-92" transform="translate(826.000000, 5815.000000)">
                <g id="Group-57" transform="translate(14.317460, 53.626950)">
                    <path d="M11.4707587,36.9523375 C11.5921317,36.0182875 10.9797349,35.1027625 10.1675444,34.6243625 C9.35535397,34.1456375 8.38111587,34.0292875 7.43811587,34.0136875 C6.8413381,34.0042625 6.23382222,34.0325375 5.67153651,34.2314375 C5.1089254,34.4300125 4.59154444,34.8209875 4.35823492,35.3695875 C4.11809206,35.9321625 4.12817937,36.6959125 3.58346508,36.9750875 C3.37521111,37.0816875 3.13116349,37.0842875 2.89720317,37.0846125 C1.97958413,37.0855875 1.06163968,37.0862375 0.143369841,37.0872125 C0.0285047619,37.8818375 0.0441238095,38.6953125 0.189901587,39.4847375 C0.224068254,39.6673875 0.267671429,39.8562125 0.384488889,40.0008375 C0.625933333,40.3004875 1.07335397,40.3053625 1.45797302,40.2842375 C2.39641746,40.2325625 3.33453651,40.1805625 4.27298095,40.1285625 C4.42363968,40.1204375 4.58178254,40.1136125 4.71747302,40.1795875 C4.86064762,40.2494625 4.9550127,40.3882375 5.03766349,40.5240875 C5.37802857,41.0808125 5.64485397,41.6830375 5.82772698,42.3089875 C5.92436984,42.6398375 6.0001873,42.9820625 6.16939365,43.2826875 C6.3389254,43.5826625 6.6256,43.8420125 6.96954444,43.8735375 C7.28355238,43.9024625 7.58063968,43.7409375 7.84876667,43.5751875 C8.48817143,43.1793375 9.09275873,42.7272625 9.65374286,42.2261125 C10.0871714,41.8387125 10.9384095,41.2225125 11.0308222,40.6095625 C11.1017587,40.1418875 10.7496794,39.6745375 10.764973,39.1886625 C10.790354,38.3846125 11.3689095,37.7388375 11.4707587,36.9523375" id="Fill-1" fill="#DED7D7"></path>
                    <path d="M25.5104603,53.725685 C25.300254,54.03021 25.0360317,54.29281 24.7731111,54.553785 C24.2807857,55.04356 23.7819524,55.537885 23.1890794,55.90026 C22.8028333,56.136535 22.3319841,56.37671 22.2558413,56.82261 C22.1644048,57.35691 22.7702937,57.801835 23.3114286,57.75861 C23.8522381,57.715385 24.3077937,57.351385 24.7151905,56.99356 C26.060381,55.81121 27.3157619,54.495935 28.209627,52.94471 C28.4663651,52.49881 28.6723413,51.880985 28.3075714,51.518285 C28.0583175,51.270635 27.6518968,51.277135 27.3134841,51.371385 C26.6639921,51.55241 26.4479286,51.55111 26.1765476,52.08801 C25.9067937,52.62231 25.8674206,53.209585 25.5104603,53.725685" id="Fill-3" fill="#D0C4C5"></path>
                    <path d="M31.5878317,32.1496825 C29.679054,34.0847325 27.6150619,35.9170825 25.1957365,37.1582575 C21.2545302,39.1800825 16.673919,39.4904575 12.2433159,39.5213325 C11.8544667,39.5236075 11.4360063,39.5343325 11.1242762,39.7657325 C10.8122206,39.9971325 10.7129746,40.5398825 11.036419,40.7553575 C11.1818714,40.8522075 11.367673,40.8577325 11.5427365,40.8600075 C14.0766016,40.8908825 16.622181,40.9217575 19.1313159,40.5688075 C21.6404508,40.2161825 24.1323397,39.4615325 26.228546,38.0396575 C27.0163317,37.5053575 27.7396889,36.8833075 28.4601175,36.2612575 C29.7656095,35.1338325 31.0671968,34.0012075 32.3648794,32.8643575 C32.6264984,32.6345825 33.4071254,31.8991075 33.0745698,31.4801825 C32.708173,31.0186825 31.8380619,31.8965075 31.5878317,32.1496825" id="Fill-5" fill="#B17C87"></path>
                    <path d="M55.3576794,51.7556975 C55.2890206,51.9978225 55.229473,52.2893475 55.3986794,52.4758975 C55.5067111,52.5948475 55.6765683,52.6309225 55.8350365,52.6608225 C56.0097746,52.6939725 56.1845127,52.7267975 56.3592508,52.7596225 C56.4597984,52.7784725 56.565227,52.7973225 56.6625206,52.7657975 C56.8082984,52.7189975 56.896481,52.5750225 56.9693698,52.4401475 C57.4711317,51.5106475 57.8469651,50.5193975 58.2201952,49.5313975 C58.9337905,47.6421725 59.6441317,45.7503475 60.272473,43.8312225 C60.7023222,42.5195225 61.0937746,41.1954725 61.4461794,39.8606975 C60.748854,39.6455475 60.0817905,40.4382225 59.3577825,40.3468975 C59.0164413,40.3036725 58.7649095,40.0751975 58.471727,39.9211475 C58.0249571,39.6864975 57.9595524,39.6507475 57.8274413,40.1252475 C57.5746079,41.0319975 57.5349095,42.0508725 57.3709095,42.9806975 C57.0390048,44.8601725 56.6462508,46.7292475 56.1936238,48.5836975 C55.9346079,49.6461225 55.6560683,50.7036725 55.3576794,51.7556975" id="Fill-7" fill="#DDC9BC"></path>
                    <path d="M59.1556786,44.7256875 C59.6711071,46.0104125 60.4208214,47.1856125 61.1744405,48.3471625 C61.7377024,49.2145875 62.3090992,50.0833125 63.0132579,50.8412125 C63.1860437,51.0271125 63.3676151,51.2074875 63.5000516,51.4236125 C63.6926865,51.7395125 63.7691548,52.1116375 63.925996,52.4467125 C64.0831627,52.7814625 64.3669087,53.1022375 64.7362341,53.1246625 C64.9604325,53.1383125 65.1738929,53.0398375 65.3762897,52.9436375 C65.7251151,52.7778875 66.1305595,52.5217875 66.1032262,52.1373125 C66.0928135,51.9978875 66.0238294,51.8704875 65.9558214,51.7482875 C64.9890675,50.0014125 64.0219881,48.2548625 63.0549087,46.5083125 C62.6628056,45.8004625 62.2645198,45.0737625 62.1398929,44.2745875 C62.0292579,43.5677125 62.1402183,42.8462125 62.2762341,42.1438875 C62.4607341,41.1887125 62.6924167,40.2416625 63.0077262,39.3219125 C61.9352183,39.3687125 60.8623849,39.4151875 59.789877,39.4619875 C59.1250913,39.4912375 58.2224405,39.4811625 58.0994405,40.3274625 C58.0187421,40.8812625 58.4030357,41.5231375 58.5065119,42.0590625 C58.6835278,42.9768625 58.8035992,43.8478625 59.1556786,44.7256875" id="Fill-9" fill="#F0DDCE"></path>
                    <path d="M56.7819413,5.885945 C56.6485286,6.433245 56.6618698,7.003945 56.6758619,7.56717 C56.6839968,7.89477 56.6931079,8.227895 56.7978857,8.53827 C56.8909492,8.814845 57.0562508,9.06152 57.2374968,9.289995 C58.0451317,10.30692 59.2227429,11.02387 60.497973,11.275095 C61.3869571,11.03167 62.4083778,10.66767 62.6862667,9.78952 C62.9231556,9.039745 62.4942825,8.248045 62.0084651,7.62892 C61.2506159,6.66367 60.3095683,5.84272 59.2536556,5.216445 C58.0474095,4.50177 57.1851079,4.23137 56.7819413,5.885945" id="Fill-11" fill="#F0DDCE"></path>
                    <path d="M39.5854675,58.88064 C39.0156976,58.89559 38.3043802,59.01974 38.1527452,59.56834 C38.0788802,59.834515 38.1732452,60.115315 38.2724913,60.37304 C38.3873563,60.672365 38.5194675,60.98144 38.7674198,61.18424 C39.0547452,61.419215 39.4455468,61.47089 39.8145468,61.513465 C41.3221103,61.687665 42.8296738,61.861865 44.3372373,62.036065 C44.4442929,62.048415 44.5601341,62.05914 44.6531976,62.004865 C44.7423563,61.952865 44.7898643,61.853415 44.8298881,61.758515 C45.047904,61.244365 45.5106183,60.128315 45.1595151,59.625215 C44.9597214,59.33889 43.8748484,59.10164 43.5224437,59.010965 C42.2683643,58.689215 40.8678563,58.840665 39.5854675,58.88064" id="Fill-13" fill="#0D172C"></path>
                    <g id="Group-17" transform="translate(48.484127, 55.900000)">
                        <mask id="mask-2" fill="white">
                            <use xlink:href="#path-1"></use>
                        </mask>
                        <g id="Clip-16"></g>
                        <path d="M1.12034127,4.76528 C0.872063492,5.11823 0.552849206,5.42633 0.374531746,5.819255 C0.196214286,6.21218 0.207277778,6.742255 0.550571429,7.00388 C0.994738095,7.342855 1.62730952,7.029555 2.0802619,6.702605 C3.20548413,5.890755 4.27831746,4.973605 5.06219841,3.829605 C5.32381746,3.448055 5.55907937,3.013205 5.53044444,2.551705 C5.50571429,2.154555 5.289,1.79803 5.07814286,1.459705 C4.83246825,1.06548 4.58711905,0.67093 4.34144444,0.276705 C4.26790476,0.15873 4.15466667,0.02353 4.01995238,0.05928 C3.95389683,0.076505 3.90638889,0.13208 3.86278571,0.185055 C2.65100794,1.66088 2.05195238,3.136705 1.12034127,4.76528" id="Fill-15" fill="#0D172C" mask="url(#mask-2)"></path>
                    </g>
                    <path d="M49.4195127,42.6401625 C48.9366238,43.4390125 48.2757429,44.1332125 47.8995841,44.9876375 C47.6073778,45.6522625 47.5016238,46.3809125 47.3994492,47.0994875 C46.8016952,51.2880875 46.2039413,55.4773375 45.6061873,59.6662625 C44.8135206,59.6171875 44.0309413,59.4030125 43.3245048,59.0409625 C43.4328619,54.7750125 43.544473,50.4801375 44.4357349,46.3064875 C45.1597429,42.9160875 46.4200048,39.4307875 48.5708778,36.6669875 C49.918346,34.9350625 50.4832349,35.5467125 50.5183778,37.5022375 C50.5505921,39.2721875 50.3534016,41.0951125 49.4195127,42.6401625" id="Fill-18" fill="#769BAC"></path>
                    <path d="M41.9659079,46.4988875 C42.0368444,47.4030375 42.1491063,48.3338375 42.598154,49.1226125 C43.123019,50.0443125 44.0399873,50.6605125 44.8895984,51.2965375 C47.1898286,53.0183875 49.2056619,55.1175625 50.8316698,57.4845375 C51.6246619,57.8875375 52.5823048,57.0178375 52.617773,56.1302625 C52.6535667,55.2423625 52.1075508,54.4483875 51.5856143,53.7288375 C50.7184317,52.5338125 49.8509238,51.3387875 48.9837413,50.1434375 C48.1224159,48.9558875 47.2523048,47.7533875 46.699781,46.3948875 C46.2357651,45.2544625 46.016773,43.9261875 46.5393603,42.8114375 C46.9041302,42.0330625 47.5819317,41.4555375 48.1634159,40.8217875 C50.6172333,38.1470375 51.4154317,34.0692625 50.1506143,30.6684625 C50.2563683,30.9518625 43.1054476,35.1196625 42.6144238,36.0647625 C41.9392254,37.3637875 42.0261063,39.6621875 41.9317413,41.1051875 C41.814273,42.9011375 41.8250111,44.7045625 41.9659079,46.4988875" id="Fill-20" fill="#A4CBE0"></path>
                    <path d="M52.3944857,29.65157 C52.3320095,30.27817 52.2308111,30.916145 51.9311206,31.47027 C51.6314302,32.024395 51.0994063,32.48752 50.4723667,32.553495 C50.822819,31.01007 50.8224937,29.417245 50.5188984,27.86667 C50.2829857,26.65832 49.3819619,24.978395 50.849827,24.30792 C53.6677635,23.019945 52.5210651,28.385695 52.3944857,29.65157" id="Fill-22" fill="#FFD8D3"></path>
                    <path d="M42.0860119,17.2057275 C41.1134008,18.2281775 40.1437183,19.4362025 40.1456706,20.8463775 C40.1463214,21.2493775 40.2348294,21.6640775 40.4717183,21.9903775 C40.7047024,22.3101775 41.0574325,22.5175275 41.3938929,22.7261775 C42.423123,23.3657775 43.4331548,24.1542275 43.9131151,25.2660525 C44.3934008,26.3778775 44.1594405,27.8751525 43.1175198,28.4939525 C42.6704246,28.7598025 42.0847103,28.8777775 41.8315516,29.3318025 C41.667877,29.6249525 41.6932579,29.9824525 41.722869,30.3165525 C41.9239643,32.5753025 42.1250595,34.8340525 42.3261548,37.0924775 C44.5216071,34.9968775 47.1511389,33.3569275 50.0003135,32.3075025 C50.547631,32.1060025 51.1597024,31.8765525 51.4047262,31.3481025 C51.542369,31.0520275 51.5358611,30.7120775 51.525123,30.3861025 C51.5065754,29.8287275 50.913377,24.7285025 51.1880119,24.5725025 C51.919504,24.1565025 51.8388056,23.1038275 51.7421627,22.2685775 C51.5436706,20.5584275 51.692377,18.8001775 51.2475595,17.1371525 C51.1027579,16.5957025 50.8925516,16.0643275 50.558369,15.6145275 C49.9157103,14.7487275 48.8536151,14.2553775 47.7807817,14.1429275 C45.0246706,13.8540025 43.8076865,15.3964525 42.0860119,17.2057275" id="Fill-24" fill="#D76675"></path>
                    <path d="M40.3563976,25.7128625 C40.3450087,25.9751375 40.3284135,26.2439125 40.2187548,26.4821375 C40.0310008,26.8906625 39.6105881,27.1327875 39.2149056,27.3469625 C37.554731,28.2468875 35.8821913,29.1247125 34.1982627,29.9801125 C33.7000802,30.2332875 33.1826992,30.4991375 32.8446119,30.9440625 C32.5061992,31.3889875 32.407604,32.0695375 32.7759532,32.4897625 C33.249731,33.0305625 34.1182151,32.8472625 34.8002468,32.6191125 C35.6514849,32.3347375 36.501096,32.0458125 37.3536357,31.7659875 C38.2234214,31.4803125 38.6955722,31.0977875 39.454723,30.5985875 C40.8594611,29.6742875 42.4760325,29.1390125 43.9233976,28.2897875 C44.1872944,28.1344375 44.4580246,27.9553625 44.5933897,27.6807375 C44.7167151,27.4288625 44.707604,27.1327875 44.6672548,26.8552375 C44.4710405,25.4986875 43.6311913,24.3309625 42.7780008,23.2571625 C42.4636675,22.8616375 42.1356675,22.4628625 41.708096,22.1924625 C39.0073024,20.4823125 40.4032548,24.6523875 40.3563976,25.7128625" id="Fill-26" fill="#FFD8D3"></path>
                    <path d="M46.2850302,10.5673425 C46.2437048,10.4334425 46.2134429,10.3105925 46.1952206,10.2104925 C46.077427,9.5796675 46.1047603,8.9312925 46.0494429,8.2916925 C45.9993317,7.7105925 45.8805619,7.1353425 45.6960619,6.5818675 C45.6397683,6.4122175 45.5753397,6.2415925 45.4660063,6.0998925 C45.3319429,5.9260175 45.1393079,5.8073925 44.9437444,5.7066425 C43.9190698,5.1759175 42.8618556,5.1567425 41.7376095,5.1489425 C41.5111333,5.1473175 41.2719667,5.1489425 41.075427,5.2630175 C40.8460222,5.3962675 40.7243238,5.6546425 40.6231254,5.8996925 C39.8737365,7.7092925 38.7309429,10.7785925 40.2053159,12.4451925 C40.8271492,13.1481675 42.0102921,13.0217425 42.7216095,13.6346925 C44.106173,14.8271175 43.9255778,17.6923175 46.7327762,16.6191675 C48.4944746,15.9457675 47.9582206,13.3512925 47.5410619,11.9830425 C46.9133714,12.0681925 46.4779905,11.1952425 46.2850302,10.5673425" id="Fill-28" fill="#FFD8D3"></path>
                    <path d="M40.3223937,4.3063475 C40.3559095,3.7996725 40.597354,3.2780475 41.0473778,3.0424225 C41.3571556,2.8799225 41.7219254,2.8704975 42.0720524,2.8646475 C43.5942587,2.8399475 45.1161397,2.8152475 46.638346,2.7902225 C46.8651476,2.7866475 47.0978063,2.7833975 47.3125683,2.8574975 C47.7938302,3.0232475 48.0661873,3.5234225 48.2526397,3.9959725 C48.9841317,5.8533475 49.0830524,7.9024725 48.9385762,9.8930975 C48.8757746,10.7549975 48.694854,11.7345475 47.9536,12.1794725 C47.4098619,12.5057725 46.6679571,12.4209475 46.1723778,12.0250975 C45.6767984,11.6295725 45.4311238,10.9642975 45.4880683,10.3334725 C45.5385048,9.7708975 45.8046794,9.2466725 45.8678063,8.6860475 C45.9306079,8.1250975 45.682981,7.4455225 45.1288302,7.3343725 C44.9420524,7.2969975 44.7425841,7.3298225 44.5642667,7.2631975 C44.4249968,7.2108725 44.3153381,7.1039475 44.2040524,7.0057975 C43.5116079,6.3944725 42.6844492,6.1084725 41.7824492,5.9904975 C41.5179016,5.9553975 40.9256794,5.9940725 40.7001794,5.8250725 C40.3474492,5.5598725 40.2937587,4.7441225 40.3223937,4.3063475" id="Fill-30" fill="#4D5763"></path>
                    <path d="M57.8798302,15.90225 C57.7037905,18.0349 59.7850286,19.898775 59.5152746,22.02135 C59.3031159,23.693475 57.7291714,24.82415 56.9631873,26.32565 C56.1858143,27.849575 56.2876635,29.650075 56.3283381,31.360225 C56.402854,34.49095 56.2082667,37.6285 55.7475048,40.726725 C58.0522905,41.0397 60.4176,40.9019 62.6706476,40.323725 C63.9283063,40.000675 65.2835841,39.420875 65.7762349,38.22065 C66.0033619,37.667175 66.0121476,37.052275 66.0183302,36.454275 C66.0414333,34.090225 66.0645365,31.726175 66.0879651,29.36245 C66.0925206,28.903875 66.094473,28.4323 65.9259175,28.0059 C65.7313302,27.5145 65.3291397,27.133925 65.0929016,26.66105 C64.7317111,25.937275 64.7945127,25.083175 64.8661,24.2775 C65.0779333,21.8842 65.2897667,19.491225 65.5019254,17.097925 C65.6135365,15.836925 65.6782905,14.4209 64.8452746,13.466375 C62.9498381,11.2931 58.1072825,13.14625 57.8798302,15.90225" id="Fill-32" fill="#6ECEC4"></path>
                    <path d="M57.7282603,17.0029275 C57.0979667,17.5544525 56.9316889,18.4576275 56.8597762,19.2915775 C56.7068397,21.0638025 56.8080381,22.8552025 56.570173,24.6183275 C56.3326333,26.3811275 55.7013635,28.1780525 54.3636571,29.3526025 C53.4844349,30.1244775 52.2218952,30.8037275 52.2258,31.9730775 C52.2271016,32.2945025 52.3533556,32.6347775 52.6253873,32.8060525 C53.112181,33.1128525 53.7369429,32.7547025 54.1791571,32.3868025 C55.3235778,31.4348775 56.3394667,30.3402775 57.3517762,29.2495775 C57.9020222,28.6561275 58.4584508,28.0545525 58.8394905,27.3411775 C59.2000302,26.6648525 59.3900619,25.9128025 59.5576413,25.1649775 C60.0083159,23.1532275 60.7749508,20.5129275 60.5361095,18.4433275 C60.3890302,17.1677025 59.1229111,15.7819025 57.7282603,17.0029275" id="Fill-34" fill="#F0DDCE"></path>
                    <path d="M66.8355643,17.462185 C66.9826437,17.692935 66.9969611,17.98056 67.0070484,18.253885 C67.0249452,18.75276 67.0418659,19.251635 67.0591119,19.75051 C67.107596,21.19351 67.1437151,22.70151 66.5209056,24.00476 C66.1616675,24.757135 65.510223,25.448735 64.6798103,25.535185 C64.5968341,25.543635 65.2466516,20.500285 65.291231,20.05276 C65.3524056,19.43721 65.0094373,17.79401 65.2534849,17.323085 C65.5199849,16.80861 66.5355484,16.991585 66.8355643,17.462185" id="Fill-36" fill="#F0DDCE"></path>
                    <path d="M60.5503619,13.169585 C60.5591476,14.224535 60.5682587,15.284035 60.7322587,16.32631 C60.8494016,17.074135 61.0462667,17.80896 61.317973,18.51551 C61.6140841,19.283485 62.033846,20.056335 62.7432111,20.47526 C63.4529016,20.893535 64.5107667,20.807735 64.943219,20.107035 C65.0828143,19.88116 65.1456159,19.61726 65.192473,19.35596 C65.4817508,17.733235 65.2103698,16.069885 65.1947508,14.42181 C65.1859651,13.46696 65.2627587,12.502685 65.0889968,11.564085 C64.9155603,10.62516 64.4424333,9.68461 63.6068143,9.221485 C62.9911635,8.880235 60.8562349,8.42881 60.5256317,9.30761 C60.3538222,9.76391 60.5288857,10.56796 60.5324651,11.04961 C60.5386476,11.75616 60.5441794,12.46271 60.5503619,13.169585" id="Fill-38" fill="#141311"></path>
                    <path d="M55.6608516,2.5451725 C55.5710421,3.9784225 56.094931,5.4061475 56.928923,6.5754975 C57.7635659,7.7451725 58.8923675,8.6772725 60.0921056,9.4683225 C61.8124786,10.6022475 63.9633516,11.4901475 65.8997881,10.7852225 C66.5779151,10.5385475 67.2407484,10.0094475 67.2963913,9.2908725 C67.349431,8.6038225 66.8434389,8.0142725 66.3706373,7.5127975 C64.4579548,5.4831725 62.5244468,3.4431475 60.2440659,1.8174975 C59.5425103,1.3169975 58.5302008,0.0972725 57.6203913,0.0764725 C56.3471135,0.0478725 55.7265817,1.4934725 55.6608516,2.5451725" id="Fill-40" fill="#FEB6A3"></path>
                    <path d="M60.390527,0.678015 C60.4513762,0.57954 60.516781,0.47684 60.6196063,0.42419 C60.7221063,0.37219 60.8434794,0.379015 60.9567175,0.39559 C61.3735508,0.457015 61.7637016,0.635115 62.1463683,0.811265 C63.5299556,1.44664 64.984154,2.14084 65.8298603,3.405415 C65.9004714,3.510715 65.968154,3.62674 65.9662016,3.753165 C65.9642492,3.891615 65.879646,4.013815 65.7986222,4.12594 C65.1341619,5.04569 64.470027,5.96609 63.8058921,6.886165 C63.7743286,6.929065 63.7408127,6.974565 63.6916778,6.99569 C63.6392889,7.018115 63.5800667,7.00934 63.5244238,6.99959 C62.115781,6.750315 60.803781,6.02459 59.8178286,4.99239 C59.359019,4.51204 58.7137571,3.84904 58.8299238,3.20099 C58.9682175,2.43139 59.9736937,1.352715 60.390527,0.678015" id="Fill-42" fill="#EC734B"></path>
                    <g id="Group-46" transform="translate(61.174603, 51.675000)">
                        <mask id="mask-4" fill="white">
                            <use xlink:href="#path-3"></use>
                        </mask>
                        <g id="Clip-45"></g>
                        <path d="M2.24331825,2.4588525 C2.06500079,2.7874275 1.90815952,3.1777525 1.55998492,3.3152275 C1.17341349,3.4683025 0.667096032,3.2482775 0.352111905,3.5196525 C0.0517706349,3.7786775 0.201778571,4.3159025 0.540516667,4.5222775 C0.879254762,4.7283275 1.30812778,4.6948525 1.69925476,4.6285525 C3.20877063,4.3727775 4.64995317,3.7237525 5.84123095,2.7633775 C6.07942143,2.5713025 6.31988968,2.3477025 6.39375476,2.0506525 C6.45297698,1.8137275 6.39570714,1.5621775 6.30394524,1.3356525 C6.10089762,0.8312525 5.69350079,0.3798275 5.16277857,0.2576275 C4.44560397,0.0925275 4.19862778,0.5871775 3.7560881,0.9908275 C3.19998492,1.4984775 2.62468333,1.7555525 2.24331825,2.4588525" id="Fill-44" fill="#B36D6A" mask="url(#mask-4)"></path>
                    </g>
                    <path d="M53.6223381,51.749035 C53.3503063,51.64731 53.076973,51.532585 52.854727,51.34571 C52.6728302,51.193285 52.5172905,50.988535 52.2875603,50.92776 C52.241354,50.91541 52.1876635,50.91086 52.1489413,50.939135 C52.113473,50.965135 52.1004571,51.01096 52.0903698,51.05321 C51.9758302,51.52446 51.9328778,52.01261 51.9621635,52.496535 C51.9706238,52.63336 51.9859175,52.772785 52.0435127,52.896935 C52.1541476,53.13321 52.3975444,53.272635 52.6289016,53.392885 C53.1173222,53.64541 53.6174571,53.875835 54.1270286,54.08286 C54.5588302,54.25836 55.0036476,54.41826 55.4683143,54.460835 C55.9326556,54.503085 56.4230286,54.417285 56.7975603,54.13941 C56.8645921,54.09001 56.9286952,54.03216 56.9641635,53.957085 C56.9931238,53.894685 57.0002825,53.824485 57.0058143,53.755585 C57.0416079,53.33146 57.154846,52.85046 56.7959333,52.582335 C56.5886556,52.42796 56.1991556,52.397735 55.9476238,52.34931 C55.1533302,52.195585 54.3844175,52.033735 53.6223381,51.749035" id="Fill-47" fill="#B36D6A"></path>
                    <path d="M7.913,47.02542 C7.37674603,47.543795 6.69959524,47.914945 5.97428571,48.089795 C4.59785714,48.421295 2.99234921,48.089795 1.87265873,48.95527 C1.27034921,49.42067 0.927055556,50.200995 0.991484127,50.958895 C1.01979365,51.29787 1.1375873,51.648545 1.40050794,51.864995 C1.66375397,52.081445 2.09457937,52.11167 2.32951587,51.86532 C2.46292857,51.725245 2.51303968,51.52797 2.61065873,51.36092 C2.9725,50.74342 3.83577778,50.703445 4.5506746,50.74472 C6.07580952,50.833445 7.6155873,50.95272 9.1225,50.70377 C10.6294127,50.45482 12.1281905,49.791495 13.0624048,48.584445 C14.2738571,47.01892 13.4997381,45.50572 11.7696032,44.870345 C9.98284921,44.214495 8.99169048,45.98412 7.913,47.02542" id="Fill-49" fill="#D0C4C5"></path>
                    <path d="M10.0493603,48.802455 C10.2136857,50.02608 9.98167778,51.26433 9.75032063,52.47723 C9.3136381,54.767505 8.87728095,57.05778 8.44092381,59.34838 C8.94951905,59.790055 9.7851381,59.609355 10.2686778,59.14038 C10.7522175,58.67108 10.9712095,58.000605 11.1729556,57.358405 C11.9161619,54.995655 12.6593683,52.632905 13.4025746,50.27048 C13.4302333,50.182405 13.4598444,50.090755 13.5252492,50.025755 C13.644019,49.906155 13.8363286,49.913305 14.0039079,49.92858 C15.8199476,50.092705 17.6359873,50.256505 19.452027,50.42063 C21.2003841,50.578255 23.0606778,50.71573 24.6164,49.90323 C24.5181302,50.991655 25.127273,52.036205 25.9147333,52.79508 C26.7018683,53.553955 27.6669952,54.098655 28.5432889,54.75288 C29.4199079,55.406455 30.2431619,56.22383 30.5539159,57.27163 C30.7049,57.78123 30.864019,58.45918 31.3947413,58.499805 C31.6622175,58.519955 31.9017095,58.347055 32.114519,58.18293 C32.3016222,58.038305 32.4887254,57.89368 32.6758286,57.74873 C32.7662889,57.678855 32.862281,57.60118 32.8928683,57.49068 C32.9312651,57.35028 32.8521937,57.20728 32.777027,57.082805 C31.7761063,55.429855 30.905019,53.698255 30.1745032,51.910105 C29.9177651,51.282205 29.6743683,50.604905 29.8074556,49.939955 C29.8979159,49.48658 30.1556302,49.08748 30.331019,48.65978 C30.6144397,47.969155 30.6808206,47.191105 30.5181222,46.46278 C32.1122413,46.29443 33.6152492,45.402955 34.5260349,44.085405 C35.4368206,42.768505 35.7387889,41.048605 35.3313921,39.500305 C35.5184952,40.754805 35.0792095,42.065855 34.2543286,43.029805 C33.4291222,43.99408 32.2450032,44.62003 31.0003603,44.87093 C30.5675825,44.958355 30.1217889,45.00288 29.6841302,44.944705 C28.9783444,44.85143 28.3382889,44.50043 27.693027,44.201105 C24.9300825,42.920605 21.844019,42.524755 18.8041619,42.336255 C17.6424952,42.26443 16.4587016,42.216005 15.3627651,41.82373 C14.1815746,41.40123 13.0550508,40.575405 11.8100825,40.73173 C10.5254159,40.893255 8.05663016,42.78703 7.92809841,44.14553 C7.84642381,45.009705 8.60329683,45.62883 9.05071746,46.27038 C9.52612222,46.951905 10.0493603,47.94478 10.0493603,48.802455" id="Fill-51" fill="#DED7D7"></path>
                    <path d="M6.66097063,44.7843825 C6.76086746,44.8753825 6.87345476,44.9608575 7.00621667,44.9875075 C7.26425635,45.0391825 7.50635159,44.8607575 7.70809762,44.6927325 C9.15806587,43.4827575 10.5693119,42.2259825 11.9382563,40.9256575 C12.0137484,40.8538325 12.0924944,40.7761575 12.1172246,40.6747575 C12.1435817,40.5652325 12.100304,40.4514825 12.05605,40.3474825 C11.7316294,39.5801575 11.4563437,38.9821575 10.720296,39.7429825 C9.84270079,40.6497325 9.10925635,41.5061075 7.97492302,42.1288075 C6.80870079,42.7687325 5.18171667,43.4362825 6.66097063,44.7843825" id="Fill-53" fill="#6E5055"></path>
                    <path d="M7.82306032,39.417755 C7.80906825,39.492505 7.79865556,39.578305 7.84648889,39.63778 C7.88748889,39.688805 7.9581,39.70278 8.02285397,39.713505 C8.90012381,39.85878 9.82425079,40.00048 10.6585683,39.693355 C10.8072746,39.63843 10.955981,39.565955 11.058481,39.445055 C11.2107667,39.265655 11.2354968,39.01443 11.2540444,38.780105 C11.3070841,38.09598 11.3601238,37.411855 11.4134889,36.72773 C11.4466794,36.302305 11.4749889,35.851205 11.2794254,35.471605 C11.0493698,35.02538 10.5596476,34.777405 10.0806635,34.625955 C9.66025079,34.493355 8.94470317,34.212555 8.74523492,34.60548 C8.58123492,34.928205 8.7270127,35.799205 8.65021905,36.208055 C8.44521905,37.295505 8.02545714,38.32933 7.82306032,39.417755" id="Fill-55" fill="#D0C4C5"></path>
                </g>
                <g id="Group-91" transform="translate(0.000000, 0.001950)">
                    <g id="Group-60" transform="translate(0.000000, 39.650000)">
                        <mask id="mask-6" fill="white">
                            <use xlink:href="#path-5"></use>
                        </mask>
                        <g id="Clip-59"></g>
                        <path d="M0.715807937,0.448565 C0.602895238,0.48139 0.48998254,0.519415 0.393665079,0.58669 C0.225109524,0.704015 0.126188889,0.89869 0.0692444444,1.09564 C-0.145842857,1.84119 0.169466667,2.642315 0.609728571,3.281915 C0.67545873,3.377465 0.748998413,3.47529 0.854426984,3.523715 C0.953022222,3.56954 1.06658571,3.565965 1.17429206,3.582865 C1.66010952,3.658265 1.97346667,4.12659 2.19831587,4.563715 C2.51948254,5.189665 2.7895619,5.84779 3.20964921,6.412315 C3.62973651,6.97684 4.23627619,7.450365 4.93750635,7.514065 C5.31822063,7.54884 5.77182381,7.401615 5.87855397,7.035015 C5.96641111,6.734715 5.78679206,6.43084 5.66183968,6.14419 C5.16170476,4.995315 5.49523651,3.60529 4.95507778,2.474615 C4.6248,1.783015 4.00556984,1.27569 3.37169683,0.843765 C2.52696667,0.26819 1.69753016,0.16289 0.715807937,0.448565" id="Fill-58" fill="#353535" mask="url(#mask-6)"></path>
                    </g>
                    <path d="M8.07758571,36.785385 C7.02720476,37.106485 5.9058873,37.35511 5.07352222,38.070435 C4.54442698,38.52511 4.05763333,39.192985 3.36030794,39.165035 C3.11528413,39.15561 2.87644286,39.053885 2.63206984,39.07696 C2.16870476,39.120185 1.85241905,39.612235 1.84200635,40.07731 C1.83126825,40.54206 2.04537937,40.97886 2.25916508,41.391935 C2.60278413,42.054285 2.98089524,42.73581 3.59622063,43.15896 C4.21122063,43.582435 5.13274444,43.657835 5.65923651,43.12841 C5.87432381,42.912285 6.00285556,42.620435 6.22445079,42.411135 C6.48086349,42.168685 6.83261746,42.061435 7.17037937,41.960035 C9.61508571,41.22586 12.0321333,40.40036 14.4150143,39.485485 C15.0931413,39.22516 15.795673,38.938835 16.2730302,38.39186 C16.9108079,37.66126 17.0152603,36.55171 16.6443079,35.65601 C15.9544667,33.989085 14.6092762,33.34851 13.1521492,34.319935 C11.5720222,35.37326 9.89850635,36.22801 8.07758571,36.785385" id="Fill-61" fill="#B1B1B2"></path>
                    <path d="M20.8992944,21.020025 C21.0493024,20.698925 20.8765167,20.3034 20.601231,20.080125 C19.6474929,19.306625 16.9766357,18.75835 17.5766675,20.7558 C17.7250484,21.2498 18.1064135,21.8517 18.6647944,21.9284 C19.1434532,21.99405 20.6776992,21.493875 20.8992944,21.020025" id="Fill-63" fill="#E2CDB5"></path>
                    <path d="M12.4494873,12.8699675 C12.9463683,13.8556925 13.4439,14.8414175 13.940781,15.8274675 C14.1555429,16.2535425 14.3787651,16.6903425 14.7344238,17.0078675 C15.102773,17.3361175 15.580781,17.5086925 16.0018444,17.7660925 C16.5579476,18.1063675 17.0245667,18.6013425 17.6343603,18.8320925 C18.3251778,19.0933925 19.2769635,19.0989175 19.5346778,19.7905175 C19.6199317,20.4057425 19.2844476,21.0203175 18.8139238,21.4268925 C18.3434,21.8334675 17.752154,22.0694175 17.170019,22.2881425 C16.6731381,22.4743675 16.1739794,22.6537675 15.6722175,22.8260175 C15.5794794,22.8575425 15.4799079,22.8897175 15.3848921,22.8637175 C15.2221937,22.8191925 15.1515825,22.6323175 15.1014714,22.4711175 C14.5889714,20.8217425 13.6990111,19.2903425 12.5191222,18.0277175" id="Fill-65" fill="#21160A"></path>
                    <path d="M5.40227063,13.9589125 C5.54479444,13.6556875 6.7790246,11.5077625 6.76470714,11.8301625 C6.72403254,12.7505625 6.83661984,13.6709625 6.94888175,14.5829125 C6.97068333,14.7603625 6.99606429,14.9465875 7.10279444,15.0905625 C7.28827063,15.3417875 7.64620714,15.3755875 7.9585881,15.3707125 C9.29173889,15.3499125 9.60021508,18.0990875 9.44890556,18.7916625 C8.93770714,21.1254875 7.76042143,23.4778375 5.65347698,24.6091625 C5.23664365,24.8327625 4.77458016,25.0066375 4.30210397,24.9809625 C3.89991349,24.9591875 3.52050079,24.7944125 3.15280238,24.6296375 C2.41415159,24.2978125 1.65890556,23.9386875 1.1210246,23.3341875 C0.310461111,22.4235375 0.13019127,21.0822625 0.377818254,19.8891875 C0.624794444,18.6957875 1.24630238,17.6171125 1.88896111,16.5813375 C2.13073095,16.1919875 2.38128651,15.8003625 2.72165159,15.4932375 C3.41311984,14.8689125 4.35611984,14.7372875 5.11006429,14.2289875 C5.43578651,14.0096125 5.43383413,13.9199125 5.51258016,13.5487625 C5.6212627,13.0355875 5.79795317,12.5883875 6.03614365,12.1203875 C6.34787381,11.5087375 6.67945317,10.8733625 7.23718333,10.4729625 C7.93385794,9.9731125 8.8495246,9.9315125 9.70694524,9.9087625" id="Fill-67" fill="#E0A16C"></path>
                    <path d="M8.49864921,37.3179625 C8.84324444,37.4024625 9.19760159,37.1564375 9.36355397,36.8431375 C9.93820476,35.7582875 9.95707778,33.0351125 8.11240317,34.0110875 C7.65554603,34.2525625 7.13881587,34.7436375 7.17200635,35.3055625 C7.20064127,35.7872125 7.99005397,37.1931625 8.49864921,37.3179625" id="Fill-69" fill="#E2CDB5"></path>
                    <path d="M16.5474373,50.835915 C16.9789135,51.628915 18.0130246,51.82034 18.9107944,51.92499 L22.9613341,52.395265 C23.7185325,52.48334 24.5460167,52.55614 25.1863976,52.14274 C25.3025643,52.067665 25.4193817,51.958465 25.4193817,51.820015 C25.4190563,51.747215 25.3855405,51.678965 25.3494214,51.61559 C24.9667548,50.95454 24.2085802,50.623365 23.5008421,50.334115 C22.808723,50.05169 22.1169294,49.769265 21.4248103,49.48684 C21.0128579,49.31849 20.5813817,49.136165 20.3080484,48.785165 C20.170731,48.60869 20.0815722,48.40004 19.9618262,48.211215 C19.4701516,47.43544 17.9941516,46.865715 17.2014849,47.543015 C16.4960246,48.145565 16.1107548,50.033815 16.5474373,50.835915" id="Fill-71" fill="#353535"></path>
                    <path d="M9.73951746,31.5930225 C10.6782873,32.5979225 11.6170571,33.6028225 12.555827,34.6070725 C13.174081,35.2694225 13.7972159,35.9369725 14.2654619,36.7124225 C15.2423032,38.3299475 15.4697556,40.2747475 15.6754063,42.1525975 C15.8420095,43.6742475 16.0086127,43.9582975 16.1752159,45.4799475 C16.3297794,46.8920725 16.4814143,48.3454725 16.099073,49.7140475 C17.3180095,49.9457725 18.5802238,49.9490225 19.8004619,49.7234725 C20.140827,49.6604225 20.5082,49.5603225 20.708319,49.2782225 C20.853446,49.0734725 20.8814302,48.8105475 20.894446,48.5599725 C21.0044302,46.4032725 20.3175175,45.5163475 20.2934381,43.3570475 C20.2827,42.4249475 20.3965889,41.4954475 20.3946365,40.5630225 C20.3907317,38.6292725 19.8932,36.7345225 19.3989222,34.8647975 C18.9007397,32.9820725 18.4032079,31.0993475 17.9053508,29.2166225 C17.6596762,28.2877725 17.3730016,27.2935975 16.6232873,26.6916975 C16.0610016,26.2402725 15.3243032,26.0832975 14.6172159,25.9396475 C13.3933984,25.6913475 12.1428984,25.4414225 10.9034619,25.5970975 C9.77335873,25.7387975 8.10927937,26.4245475 7.78713651,27.6543475 C7.41325556,29.0836975 8.86810476,30.6605975 9.73951746,31.5930225" id="Fill-73" fill="#EAEAEF"></path>
                    <path d="M10.7761016,6.49025 C10.3296571,7.757425 8.7043,8.434075 8.53314127,9.766575 C8.51329206,9.92095 8.51817302,10.087675 8.6021254,10.21865 C8.65191111,10.296 8.72545079,10.3545 8.79899048,10.410075 C10.0332206,11.340225 11.5196333,12.551175 13.0522524,12.34415 C13.3239587,12.307425 13.7525063,11.433175 13.8696492,11.185525 C13.9721492,10.969075 13.8849429,10.710375 13.7632444,10.504 C13.641546,10.297625 13.4827524,10.10425 13.4316651,9.869925 C13.3659349,9.568975 13.4905619,9.2625 13.5299349,8.956675 C13.6008714,8.40645 13.383181,7.83835 13.0011651,7.436 C12.6191492,7.03365 12.0864746,6.79055 11.5378556,6.707025" id="Fill-75" fill="#E2CDB5"></path>
                    <path d="M9.46784365,6.0636875 C9.23095476,6.1936875 9.1346373,6.5277875 9.26544683,6.7640625 C9.35818492,6.9320875 9.53585159,7.0347875 9.65624841,7.1842875 C9.86840714,7.4481875 9.8827246,7.8294125 10.0900024,8.0975375 C10.1973833,8.2363125 10.3483675,8.3338125 10.4960976,8.4283875 C10.9311532,8.7072375 11.3662087,8.9857625 11.8009389,9.2646125 C12.0459627,9.4215875 12.2955421,9.5805125 12.5757087,9.6601375 C12.85555,9.7404125 13.1754151,9.7306625 13.4158833,9.5665375 C13.6199071,9.4277625 13.7409548,9.1992875 13.8538675,8.9802375 C13.9729627,8.7498125 14.0920579,8.5193875 14.2059468,8.2863625 C14.5690897,7.5424375 14.8821214,6.7634125 15.003169,5.9447375 C15.1238913,5.1254125 15.0409151,4.2583125 14.6488119,3.5293375 C14.5671373,3.3775625 14.4685421,3.2283875 14.3240659,3.1351125 C14.1860976,3.0463875 14.0198198,3.0161625 13.8580976,2.9882125 C13.2736849,2.8864875 12.6440421,2.7899625 12.1097405,3.0476875 C11.7332563,3.2290375 11.4560183,3.5644375 11.2087167,3.9008125 C10.8585897,4.3759625 10.5344944,4.8888125 10.3581294,5.4559375 C10.3089944,5.6148625 10.2937008,6.1186125 10.1508516,6.1767875 C9.99303413,6.2404875 9.73955,5.9138625 9.46784365,6.0636875" id="Fill-77" fill="#F7E0C4"></path>
                    <path d="M12.2429254,6.54771 C12.3987905,6.489535 12.5374095,6.394635 12.674727,6.30071 C13.491473,5.740735 14.3274175,5.161585 14.8884016,4.34551 C15.0820127,4.06406 15.2437349,3.74101 15.2346238,3.39976 C15.219981,2.84401 14.7728857,2.40851 14.3576794,2.03801 C13.7569968,1.502735 13.1504571,0.96226 12.4502032,0.565435 C12.2302349,0.44096 11.9926952,0.32851 11.7398619,0.32331 C11.5257508,0.31876 11.3181476,0.391885 11.1164016,0.46371 C10.190973,0.79391 9.21087778,1.16376 8.62516349,1.95156 C7.96037778,2.84531 7.06293333,5.471635 7.95940159,6.429085 C8.38079048,6.879535 9.05989365,6.93316 9.63617143,6.874335 C10.4135444,6.795035 11.5185921,6.81681 12.2429254,6.54771" id="Fill-79" fill="#E1846A"></path>
                    <path d="M17.4626159,28.67215 C17.5120762,28.626 17.5163063,28.5506 17.5169571,28.483 C17.574227,23.200125 16.7334016,18.026775 15.1952508,12.971725 C14.9267984,12.09 14.500854,11.324625 13.8494095,10.660975 C13.7950683,10.7133 13.8110127,10.802025 13.8129651,10.87775 C13.8204492,11.175775 13.6034095,11.214125 13.4137032,11.345425 C13.2562111,11.454625 13.1745365,11.6662 12.9949175,11.76305 C12.3275286,12.122175 12.2657032,12.162475 12.0681873,12.982775 C11.198727,16.58475 11.0217111,20.3515 11.540719,24.020425 C11.7301,25.358125 11.8407349,27.447875 13.002727,28.368275 C13.5109968,28.771275 14.3072429,28.937675 14.9456714,28.9094 C15.1903698,28.898675 15.4220524,28.8223 15.667727,28.822625 C15.8955048,28.823275 17.2794175,28.84245 17.4626159,28.67215" id="Fill-81" fill="#353535"></path>
                    <path d="M8.27240079,9.12483 C8.54085317,9.00393 8.81255952,8.88563 9.02634524,8.683155 C8.83826587,8.84793 8.94987698,9.00913 9.05790873,9.16253 C9.21117063,9.379955 9.25737698,9.572355 9.3478373,9.82423 C9.52420238,10.31498 9.82194048,10.76348 10.2094881,11.112855 C10.9188532,11.753105 11.9519881,12.04138 12.8390198,11.59613 C13.0127817,11.508705 13.1826389,11.39723 13.3684405,11.36928 C13.9544802,11.28153 14.341377,12.009205 14.5499563,12.64263 C15.8085913,16.466255 16.0698849,20.69743 15.7692183,24.83988 C15.6973056,25.82658 15.5948056,26.81133 15.4617183,27.791855 C15.3881786,28.32973 15.2615992,28.941705 14.848996,29.206255 C14.4656786,29.451955 14.0052421,29.288155 13.598496,29.13898 C11.5471944,28.38628 9.3475119,28.139605 7.18069444,28.41878 C6.58586905,28.01643 6.39193254,27.11488 6.40690079,26.29978 C6.42186905,25.484355 6.59140079,24.662755 6.49931349,23.858705 C6.38282143,22.842755 5.86576587,21.976305 5.52735317,21.03868 C5.13362302,19.94668 4.98849603,18.760755 4.82026587,17.59303 C4.68294841,16.64208 4.12228968,15.347605 4.15027381,14.422655 C4.17337698,13.658255 4.75290873,12.938055 5.19024206,12.35468 C5.99332143,11.28478 6.71179762,9.974705 7.90763095,9.30293 C8.02412302,9.23728 8.14809921,9.18073 8.27240079,9.12483" id="Fill-83" fill="#21160A"></path>
                    <path d="M12.3201421,16.65443 C12.6022611,17.93818 12.0539675,19.23623 11.7220627,20.50828 C11.4851738,21.417305 11.3569675,22.350705 11.2290865,23.281505 C10.7845944,26.523055 10.3401024,29.764605 9.89561032,33.006155 C9.80742778,33.648355 9.71371349,34.30843 9.39384841,34.87263 C9.07365794,35.43683 8.47037222,35.890205 7.82348333,35.83658 C7.66891984,35.823905 7.51012619,35.779055 7.40014206,35.670505 C7.27681667,35.54863 7.23451508,35.369555 7.19807063,35.20023 C6.85119762,33.601555 6.5043246,32.002555 6.15777698,30.403555 C5.87826111,29.114605 5.59711825,27.80648 5.66935635,26.489905 C5.70352302,25.863305 5.8180627,25.241905 5.82164206,24.614655 C5.83465794,22.52523 4.63980079,20.622355 4.28999921,18.562505 C4.0339119,17.053855 4.24802302,15.469155 4.8955627,14.082055 C5.10186429,13.63973 5.56588016,13.276705 6.0129754,13.07943 C6.69305476,12.77913 7.39298333,12.50483 8.12870556,12.395955 C9.16281667,12.243205 10.2444357,12.431705 11.1653087,12.92538 C11.4096817,13.05668 11.6475468,13.21268 11.8193563,13.42978 C12.0237056,13.688155 12.1203484,14.012505 12.2124357,14.328405 C12.4190627,15.034305 12.4408643,16.73048 12.3201421,16.65443" id="Fill-85" fill="#353535"></path>
                    <path d="M10.2228619,6.931405 C10.3445603,6.792305 10.0754571,6.38183 9.93423492,6.261905 C9.79366349,6.142305 9.60200476,6.10558 9.41978254,6.07308 C9.35014762,6.06073 9.27367937,6.049355 9.21348095,6.086405 C9.16076667,6.118905 9.13473492,6.180005 9.1161873,6.23883 C8.93363968,6.81408 9.1877746,7.42703 9.43735397,7.976605 C9.48095714,8.07248 9.54180635,8.18168 9.64658413,8.19338 C9.70125079,8.19923 9.75526667,8.17583 9.8034254,8.14853 C10.211473,7.916805 10.4018302,7.364955 10.2228619,6.931405" id="Fill-87" fill="#F7E0C4"></path>
                    <path d="M6.39944921,13.1971775 C5.15122698,14.0395775 4.31593333,15.4647025 4.19195714,16.9639275 C4.03934603,16.9714025 3.88640952,16.9792025 3.73412381,16.9866775 C3.58769524,16.1329025 3.64398889,15.2459775 3.89617143,14.4175525 C4.14152063,13.6105775 4.59414762,12.8377275 5.29700476,12.3707025 C5.83456032,12.0138525 6.47721905,11.8588275 7.10816349,11.7223275 C7.53996508,11.6287275 7.97567143,11.5403275 8.41723492,11.5266775 C9.32248889,11.4990525 10.8638937,11.8679275 11.2771476,12.7688275 C9.68530635,12.1058275 7.8458381,12.2215275 6.39944921,13.1971775" id="Fill-89" fill="#E1846A"></path>
                </g>
            </g>
        </g>
    </g>
</svg>