<svg xmlns="http://www.w3.org/2000/svg" xmlns:xlink="http://www.w3.org/1999/xlink" width="46" height="60" viewBox="0 0 46 60">
    <defs>
        <path id="a" d="M.22.117h2.42v7.222H.22z"/>
    </defs>
    <g fill="none" fill-rule="evenodd">
        <path fill="#B78865" d="M20.403 34.083l.273.41c.083.124.166.29.078.412-.087.12-.278.092-.403.01-.124-.08-.225-.203-.366-.25a.782.782 0 0 0-.303-.019l-.43.03c-.448.032-.825-.04-.956-.522-.084-.311-.023-.647.245-.846.73-.543 1.483.205 1.862.775"/>
        <path fill="#492317" d="M20.557 55.548c1.178.284 2.351-.097 3.537-.182.475-.034 1.045-.056 1.25-.365.118-.18.063-.415-.092-.6-.155-.184-.398-.324-.654-.429-.702-.29-1.525-.345-2.268-.242-.702.098-1.57.33-2.138.637-.62.333-.428.99.365 1.181"/>
        <path fill="#4F332F" d="M21.182 58.522c.382.445 1.058.488 1.635.383.578-.105 1.148-.322 1.732-.271.35.03.687.156 1.037.175a1.751 1.751 0 0 0 1.426-.624c.088-.106.165-.231.17-.37a.61.61 0 0 0-.062-.266c-.272-.612-.952-.936-1.606-1.08-.763-.167-1.487-.235-2.219-.52-.449-.174-.992-.529-1.499-.362-.923.303-1.197 2.257-.614 2.935"/>
        <path fill="#21160A" d="M23.005 54.477c.022.324.2.613.338.907.138.295.237.644.1.939-.168.364-.623.493-1.024.5-.327.008-.67-.044-.935-.235-.539-.388-.565-1.166-.54-1.83.009-.188.017-.382.096-.553.111-.239.34-.396.56-.542.133-.088.272-.18.43-.205.289-.047.575.14.733.386.159.246.216.541.27.829"/>
        <path fill="#4F332F" d="M4.14 57.255c-.11-.12-.198-.258-.308-.376-.267-.285-.645-.433-1.01-.573-.535-.206-1.135-.411-1.664-.19-.415.173-.686.573-.887.975-.184.365-.331.775-.246 1.175.11.515.647.901 1.17.84.29-.033.573-.185.86-.135.182.031.338.139.493.237.538.342 1.14.606 1.774.664.635.058 1.306-.108 1.779-.536.531-.48.639-1.29-.089-1.548-.662-.234-1.295.093-1.872-.533"/>
        <path fill="#21160A" d="M1.762 56.235c-.208.285-.072.715.201.938.274.223.64.29.989.337.256.033.53.058.76-.062.139-.072.247-.192.344-.316.372-.472.622-1.092.472-1.675-.499-1.935-2.236.05-2.766.778"/>
        <path fill="#8A6359" d="M17.68 42.81l1.587 2.993c.121.228.244.46.415.652.184.207.417.363.619.553.76.717.983 1.815 1.384 2.78.41.987 1.063 1.98 1.9 2.66.824.67 1.612 1.09 1.843 2.24-.488.228-1.053.013-1.575-.118-.886-.22-1.87-.17-2.647.31-.338.21-.652.503-1.047.544-.602.063-.93-.422-1.337-.76a7.973 7.973 0 0 1-1.125-1.13 16.95 16.95 0 0 1-1.86-2.877c-1.076-2.068-1.804-4.3-2.42-6.54-.196-.712-.384-1.463-.208-2.18a2.269 2.269 0 0 1 1.331-1.538c2.084-.841 2.411 1.034 3.14 2.41M8.096 45.251c-.847 2.15-2.907 3.625-3.843 5.737-.506 1.142-.695 2.482-1.581 3.362-.276.274-.645.626-.477.976.06.123.175.207.288.285a14.94 14.94 0 0 0 2.66 1.46c.27.113.588.217.84.07.143-.08.234-.226.319-.366a159.294 159.294 0 0 0 5.56-9.935c.724-1.407 1.438-3.058.82-4.515-.395-.93-2.066-2.235-3.145-1.623-1.085.616-1.015 3.466-1.441 4.55"/>
        <path fill="#B78865" d="M11.884 45.816c-.408.396-.366 1.154.083 1.504.163.126.361.2.562.249.182.044.372.07.558.04.463-.076.823-.526.835-.995.012-.47-.296-.92-.721-1.118-.426-.199-.944-.155-1.355.071"/>
        <path fill="#9CBD9C" d="M11.709 25.947c-.828 1.595-1.551 3.278-1.763 5.062-.124 1.042-.07 2.095-.084 3.143a24.841 24.841 0 0 1-.501 4.664c-.098.477-.21.96-.176 1.445.036.486.244.987.657 1.245.271.17.598.22.916.259 1.046.128 2.101.187 3.155.177 1.09-.01 2.251-.122 3.114-.79 1.26-.974 1.465-2.765 1.568-4.355l.076-1.177c.193-2.99.373-6.085-.676-8.891-.541-1.449-1.515-2.862-2.964-3.51-1.689-.754-2.654 1.44-3.322 2.728"/>
        <path fill="#CAD6E3" d="M11.626 33.415c-.146-.98-.292-1.971-.194-2.957.098-.986.467-1.98 1.204-2.642.737-.662 1.883-.913 2.751-.436.865.476 1.257 1.502 1.463 2.467.408 1.917.32 4.028-.72 5.689-.282.45-.628.859-.91 1.31-.776 1.237-1.036 2.731-1.098 4.191-.062 1.46.055 2.924-.04 4.382-.022.315-.064.656-.285.882-.435.446-1.18.15-1.716-.167-.223.181-.568-.158-.55-.444.018-.287.141-.609-.03-.838-.07-.093-.177-.15-.255-.236-.148-.165-.167-.404-.178-.625l-.179-3.44c-.058-1.122-.113-2.273.226-3.345.207-.655.556-1.262.722-1.928.166-.667.29-1.394-.211-1.863"/>
        <path fill="#B78865" d="M20.673 21.895c.013.053.024.107.03.163.043.38-.235.686-.349 1.033-.063.193-.091.404-.168.588-.147.357-.45.56-.75.674-.465.178-.956.198-1.44.178-.69-.029-1.405-.147-1.992-.618-.587-.472-1.013-1.377-.872-2.253.07-.44.27-.823.47-1.188.18-.327.367-.654.61-.905.53-.55 1.249-.661 1.925-.752.66-.088 1.563-.176 1.966.634.294.591.167 1.34.395 1.948.062.165.133.328.175.498"/>
        <path fill="#492317" d="M20.325 21.284c.29-.514.506-1.142.327-1.713-.137-.437-.488-.763-.877-.952-.388-.188-.815-.258-1.236-.325-1.04-.167-2.15-.324-3.102.161-.892.456-1.512 1.48-1.543 2.55-.021.754.226 1.485.5 2.179.112.285.24.583.475.762.197.149.445.195.684.214 1.831.145 3.834-1.213 4.772-2.876"/>
        <path fill="#E1846A" d="M16.308 24.176c.097.307.373.515.605.738 1.205 1.16 1.376 3 1.472 4.67.047.8.092 1.611-.077 2.394-.053.246-.127.492-.109.743.019.25.156.513.396.588.212.067.448-.033.604-.191.348-.356.343-.916.316-1.413l-.164-3.019c-.028-.503-.056-1.01-.18-1.5-.133-.525-.373-1.018-.53-1.536-.227-.751-.31-2.013-1.078-2.469-.63-.375-1.498.22-1.255.995"/>
        <path fill="#EA9581" d="M19.56 18.9c.089-.181.174-.406.06-.573-.061-.089-.166-.136-.266-.179-.528-.226-1.068-.45-1.64-.512-.964-.104-1.91.26-2.813.617-.195.077-.394.157-.552.296-.526.467-.348 1.314-.127 1.983l.783 2.364c.246.743.553 1.56 1.253 1.911.394.198.863.211 1.29.098 1.095-.292.48-1.513.603-2.333.196-1.305.837-2.5 1.41-3.672"/>
        <path fill="#CEBBAE" d="M38.49 5.527c-.27.333-.396.779-.34 1.204.009.062.019.133-.022.182-.025.03-.064.045-.102.058-.277.096-.56.192-.853.2-.293.008-.604-.088-.788-.317a1.087 1.087 0 0 1-.202-.52c-.044-.288-.026-.6.132-.844.14-.217.373-.356.611-.457a3.053 3.053 0 0 1 1.131-.242c.147-.002.324.025.382.16"/>
        <path fill="#823725" d="M38.267 38.438c.37.387.99.336 1.518.257l2.384-.358c.445-.067.929-.153 1.23-.488.055-.061.105-.142.083-.22a.25.25 0 0 0-.071-.107c-.32-.318-.805-.39-1.253-.446l-1.316-.163c-.261-.033-.536-.07-.746-.228-.106-.08-.189-.185-.287-.275-.4-.367-1.33-.464-1.678.045-.31.454-.237 1.592.136 1.983"/>
        <path fill="#CEBBAE" d="M38.332 37.943c.369.386.988.336 1.517.257.795-.12 1.59-.24 2.384-.358.446-.067.93-.153 1.23-.489.055-.06.105-.141.084-.22a.25.25 0 0 0-.072-.106c-.32-.319-.805-.39-1.253-.447l-1.316-.163c-.261-.032-.536-.07-.746-.228-.106-.08-.189-.185-.286-.274-.401-.367-1.331-.465-1.68.045-.308.453-.235 1.592.138 1.983"/>
        <path fill="#823725" d="M41.76 38.116c.162-.25.388-.563.695-.773.292-.2.809-.285 1.092-.21l-.32-.28c-.378-.102-.583-.043-.96.215-.356.243-.607.59-.786.866l.28.182zM32.386 37.363c.37.386.989.336 1.517.256l2.384-.358c.446-.066.93-.153 1.23-.488.056-.061.105-.141.084-.22a.248.248 0 0 0-.072-.106c-.32-.319-.804-.391-1.253-.447l-1.316-.163c-.26-.032-.535-.07-.746-.228-.105-.08-.188-.185-.286-.274-.4-.368-1.331-.465-1.679.045-.309.453-.236 1.592.137 1.983"/>
        <path fill="#CEBBAE" d="M32.45 36.867c.37.386.99.336 1.517.257l2.385-.358c.445-.067.929-.153 1.23-.488.055-.061.105-.142.083-.22a.25.25 0 0 0-.071-.107c-.321-.318-.805-.39-1.254-.446l-1.315-.163c-.262-.033-.536-.07-.746-.228-.106-.08-.189-.185-.287-.275-.4-.367-1.33-.464-1.678.046-.31.453-.237 1.592.136 1.982"/>
        <path fill="#823725" d="M35.879 37.04c.162-.25.387-.563.694-.773.293-.2.81-.285 1.092-.21l-.319-.28c-.378-.101-.584-.043-.96.216-.356.243-.607.59-.786.866l.279.181zM42.632 37.155l.09-.321c-.094-.026-.185-.07-.282-.117a3.19 3.19 0 0 0-.208-.093c-.254-.1-.486-.104-.67-.013l.15.298c.122-.061.284-.02.398.025.063.025.125.054.186.084.105.05.215.103.336.137"/>
        <path fill="#CEBBAE" d="M43.522 17.646c.273.775.357 1.711.231 2.572-.082.56-.377 1.182-.723 1.005-.488-.25-.27-1.558-.65-2.108"/>
        <path fill="#E2CDBF" d="M34.77 3.255c-.16-.491.035-1.141.447-1.453.356-.27.786-.43 1.142-.7.06-.045.123-.095.197-.1.07-.006.137.03.2.059.748.345 1.833.029 2.323.869.25.43.207.99.487 1.402.144.211.373.386.404.64.032.263-.162.493-.257.74-.102.268-.09.566-.181.837-.195.579-1.06.58-1.561.488-.574-.106-1.096-.4-1.659-.542a1.438 1.438 0 0 1-1.003-.868c-.164-.424-.39-.915-.539-1.372"/>
        <path fill="#252A2B" d="M45.816 34.318c.104.334.211.694.1 1.026-.168.509-.754.726-1.268.877-2.298.676-4.673 1.358-7.052 1.08-1.734-.204-3.503-.912-5.172-.397-.3.093-.602.226-.916.202-.271-.02-.518-.157-.755-.29l-2.522-1.414c-.178-.1-.373-.22-.421-.42-.028-.117.003-.24.035-.358a15.79 15.79 0 0 1 2.03-4.5c1.224-1.863 2.913-6.696 2.93-8.925.007-.831-.216-1.73.198-2.45.24-.42.661-.702 1.067-.967l2.237-1.465c.262-.172.53-.346.833-.42.295-.072.605-.044.905.004a7.094 7.094 0 0 1 3.486 1.627c1.266 1.09 1.368 2.118 1.69 3.696.694 3.394 1.56 9.789 2.595 13.094"/>
        <path fill="#9D6AA0" d="M44.997 16.536c-.04.553-.266 1.073-.489 1.58a.81.81 0 0 1-.154.259c-.18.177-.47.15-.714.21-.575.145-.867.768-1.095 1.316-.419 1.008-.882 1.997-1.344 2.986-.71 1.52-1.422 6.075-2.132 7.594l-1.608 3.437c-.187.4-.544.877-.957.721-.257-.096-.363-.39-.498-.629-.232-.408-.613-.707-.923-1.06-.779-.89-1.086-2.117-1.069-3.3.018-1.182.33-5.375.662-6.51.048-.165.097-.33.187-.477.093-.15.225-.272.352-.396 1.101-1.073 1.93-2.415 3.115-3.393.402-.331.84-.616 1.233-.958.751-.653 1.326-1.503 2.136-2.082 1.122-.802 3.456-1.46 3.298.702"/>
        <path fill="#904596" d="M44.506 13.927c.074.357.125.736.006 1.08-.255.737-1.13 1.002-1.82 1.363a4.418 4.418 0 0 0-1.369 1.11c-.34.416-.602.889-.913 1.326-.331.466-.717.89-1.101 1.313l-1.416 1.556c-.978 1.075-2.042 2.203-3.453 2.552-.795-.848-.784-2.214-.31-3.276.474-1.062 1.321-1.903 2.106-2.761a33.46 33.46 0 0 0 3.851-5.115c.085-.138.172-.281.301-.38.142-.106.32-.15.492-.19.718-.17 1.795-.649 2.547-.505.808.155.938 1.26 1.079 1.927"/>
        <path fill="#604F4B" d="M38.723 2.035c.18-.497.341-1.09-.033-1.389-.39-.31-1.1-.102-1.684.116l-.783.292c-.29.108-.594.226-.81.44-.232.232-.313.533-.353.812-.14.986.094 1.919.51 2.739.34.669.862 1.982 1.761.711.735-1.037.987-2.607 1.392-3.72"/>
        <path fill="#252A2B" d="M33.052 6.77c-.058.335-.037.679-.016 1.019l.288 4.658c.04.657.083 1.323.303 1.943.22.62.643 1.198 1.25 1.451-.762-1.848-.433-3.95.026-5.896.059-.25.12-.501.24-.728.379-.723 1.286-1.107 1.517-1.89.181-.61-.134-1.283-.624-1.688-.413-.342-1.33-.845-1.884-.65-.573.203-1.004 1.233-1.1 1.78"/>
        <path fill="#904596" d="M37.28 4.715a35.495 35.495 0 0 0-.796-4.058 4.327 4.327 0 0 0-2.854 1.912 4.329 4.329 0 0 0-.522 3.397c.048.178.109.356.22.502.167.219.426.343.677.454.986.437 2.103.815 3.195.654.805-.118.703-.306.462-.961-.224-.61-.296-1.261-.383-1.9"/>
        <g transform="translate(35.093 .12)">
            <mask id="b" fill="#fff">
                <use xlink:href="#a"/>
            </mask>
            <path fill="#BBA7BC" d="M2.631 6.84c-.266-1.043-.223-2.137-.26-3.214C2.336 2.55 2.204 1.434 1.638.52c-.11-.178-.256-.36-.463-.396C.817.062.555.456.444.803.099 1.877.186 3.052.49 4.138c.25.886.63 1.738 1.05 2.554.112.216.22.569.487.635.276.068.68-.195.604-.488" mask="url(#b)"/>
        </g>
        <path fill="#BBA7BC" d="M38.301 17.748c1.032-1.096 1.935-2.322 3.09-3.288.808-.677 1.772-1.269 2.18-2.241.137-.325.195-.721.001-1.016-.275-.418-.895-.425-1.285-.74-.385-.31-.517-.899-.968-1.101-.247-.112-.533-.077-.801-.04-.479.067-.98.143-1.365.436-.252.192-.431.461-.605.725l-.849 1.284c-.944 1.43-1.918 2.943-2.048 4.652-.056.738.068 1.79.654 2.324.65.593 1.527-.496 1.996-.995"/>
        <path fill="#9D6AA0" d="M41.165 8.42c-.167-.188-.379-.33-.588-.468l-.741-.491c-.506-.335-1.044-.682-1.65-.71-.46-.021-.906.145-1.327.33-.78.345-1.539.777-2.109 1.41-1.218 1.354-1.354 3.334-1.428 5.154l-.237 5.882c-.016.385-.026.795.17 1.128.086.147.207.27.304.41.495.724.32 1.895 1.08 2.332.028-.555.362-1.04.684-1.493.487-.686.976-1.372 1.492-2.037.262-.337.535-.675.69-1.072.466-1.198-.246-2.57.046-3.821.115-.493.38-.936.545-1.414.196-.565.251-1.21.579-1.723.391-.612 1.062-.765 1.726-.927.421-.102 1.002-.145 1.217-.585.255-.522-.103-1.507-.453-1.905"/>
    </g>
</svg>
