<svg xmlns="http://www.w3.org/2000/svg" xmlns:xlink="http://www.w3.org/1999/xlink" width="30" height="68" viewBox="0 0 30 68">
    <defs>
        <path id="a" d="M.162.062H2.13v4.08H.162z"/>
        <path id="c" d="M.174.19h10.28v8.405H.173z"/>
        <path id="e" d="M0 .083h14.254v31.95H0z"/>
        <path id="g" d="M3.268.31c-.103.058-.157.175-.2.286C2.595 1.8 2.54 3.13 2.152 4.363 1.67 5.9.683 7.247.257 8.801c-.02.077-.04.163-.003.234.034.062.102.096.165.126l.58.272c.602.283 1.21.567 1.859.71.912.2 1.933.134 2.685.689.487.359.884.98 1.488.956.393-.015.758-.32 1.142-.238.173.036.319.146.471.235.41.238.901.33 1.368.255a.237.237 0 0 0 .124-.046c.043-.04.053-.105.06-.164.133-1.226.184-2.461.152-3.694-.028-1.085-.164-2.148-.272-3.225-.032-.33.14-.663.085-.969-.072-.399-.607-.7-.91-.908C7.558 1.873 5.637 1.106 3.74.35a.888.888 0 0 0-.313-.078.317.317 0 0 0-.16.039"/>
        <path id="i" d="M3.268.31c-.103.058-.157.175-.2.286C2.595 1.8 2.54 3.13 2.152 4.363 1.67 5.9.683 7.247.257 8.801c-.02.077-.04.163-.003.234.034.062.102.096.165.126l.58.272c.602.283 1.21.567 1.859.71.912.2 1.933.134 2.685.689.487.359.884.98 1.488.956.393-.015.758-.32 1.142-.238.173.036.319.146.471.235.41.238.901.33 1.368.255a.237.237 0 0 0 .124-.046c.043-.04.053-.105.06-.164.133-1.226.184-2.461.152-3.694-.028-1.085-.164-2.148-.272-3.225-.032-.33.14-.663.085-.969-.072-.399-.607-.7-.91-.908C7.558 1.873 5.637 1.106 3.74.35a.888.888 0 0 0-.313-.078.317.317 0 0 0-.16.039"/>
        <path id="k" d="M3.268.31c-.103.058-.157.175-.2.286C2.595 1.8 2.54 3.13 2.152 4.363 1.67 5.9.683 7.247.257 8.801c-.02.077-.04.163-.003.234.034.062.102.096.165.126l.58.272c.602.283 1.21.567 1.859.71.912.2 1.933.134 2.685.689.487.359.884.98 1.488.956.393-.015.758-.32 1.142-.238.173.036.319.146.471.235.41.238.901.33 1.368.255a.237.237 0 0 0 .124-.046c.043-.04.053-.105.06-.164.133-1.226.184-2.461.152-3.694-.028-1.085-.164-2.148-.272-3.225-.032-.33.14-.663.085-.969-.072-.399-.607-.7-.91-.908C7.558 1.873 5.637 1.106 3.74.35a.888.888 0 0 0-.313-.078.317.317 0 0 0-.16.039"/>
        <path id="m" d="M3.268.31c-.103.058-.157.175-.2.286C2.595 1.8 2.54 3.13 2.152 4.363 1.67 5.9.683 7.247.257 8.801c-.02.077-.04.163-.003.234.034.062.102.096.165.126l.58.272c.602.283 1.21.567 1.859.71.912.2 1.933.134 2.685.689.487.359.884.98 1.488.956.393-.015.758-.32 1.142-.238.173.036.319.146.471.235.41.238.901.33 1.368.255a.237.237 0 0 0 .124-.046c.043-.04.053-.105.06-.164.133-1.226.184-2.461.152-3.694-.028-1.085-.164-2.148-.272-3.225-.032-.33.14-.663.085-.969-.072-.399-.607-.7-.91-.908C7.558 1.873 5.637 1.106 3.74.35a.888.888 0 0 0-.313-.078.317.317 0 0 0-.16.039"/>
        <path id="o" d="M3.268.31c-.103.058-.157.175-.2.286C2.595 1.8 2.54 3.13 2.152 4.363 1.67 5.9.683 7.247.257 8.801c-.02.077-.04.163-.003.234.034.062.102.096.165.126l.58.272c.602.283 1.21.567 1.859.71.912.2 1.933.134 2.685.689.487.359.884.98 1.488.956.393-.015.758-.32 1.142-.238.173.036.319.146.471.235.41.238.901.33 1.368.255a.237.237 0 0 0 .124-.046c.043-.04.053-.105.06-.164.133-1.226.184-2.461.152-3.694-.028-1.085-.164-2.148-.272-3.225-.032-.33.14-.663.085-.969-.072-.399-.607-.7-.91-.908C7.558 1.873 5.637 1.106 3.74.35a.888.888 0 0 0-.313-.078.317.317 0 0 0-.16.039"/>
        <path id="q" d="M3.268.31c-.103.058-.157.175-.2.286C2.595 1.8 2.54 3.13 2.152 4.363 1.67 5.9.683 7.247.257 8.801c-.02.077-.04.163-.003.234.034.062.102.096.165.126l.58.272c.602.283 1.21.567 1.859.71.912.2 1.933.134 2.685.689.487.359.884.98 1.488.956.393-.015.758-.32 1.142-.238.173.036.319.146.471.235.41.238.901.33 1.368.255a.237.237 0 0 0 .124-.046c.043-.04.053-.105.06-.164.133-1.226.184-2.461.152-3.694-.028-1.085-.164-2.148-.272-3.225-.032-.33.14-.663.085-.969-.072-.399-.607-.7-.91-.908C7.558 1.873 5.637 1.106 3.74.35a.888.888 0 0 0-.313-.078.317.317 0 0 0-.16.039"/>
        <path id="s" d="M3.268.31c-.103.058-.157.175-.2.286C2.595 1.8 2.54 3.13 2.152 4.363 1.67 5.9.683 7.247.257 8.801c-.02.077-.04.163-.003.234.034.062.102.096.165.126l.58.272c.602.283 1.21.567 1.859.71.912.2 1.933.134 2.685.689.487.359.884.98 1.488.956.393-.015.758-.32 1.142-.238.173.036.319.146.471.235.41.238.901.33 1.368.255a.237.237 0 0 0 .124-.046c.043-.04.053-.105.06-.164.133-1.226.184-2.461.152-3.694-.028-1.085-.164-2.148-.272-3.225-.032-.33.14-.663.085-.969-.072-.399-.607-.7-.91-.908C7.558 1.873 5.637 1.106 3.74.35a.888.888 0 0 0-.313-.078.317.317 0 0 0-.16.039"/>
        <path id="u" d="M3.268.31c-.103.058-.157.175-.2.286C2.595 1.8 2.54 3.13 2.152 4.363 1.67 5.9.683 7.247.257 8.801c-.02.077-.04.163-.003.234.034.062.102.096.165.126l.58.272c.602.283 1.21.567 1.859.71.912.2 1.933.134 2.685.689.487.359.884.98 1.488.956.393-.015.758-.32 1.142-.238.173.036.319.146.471.235.41.238.901.33 1.368.255a.237.237 0 0 0 .124-.046c.043-.04.053-.105.06-.164.133-1.226.184-2.461.152-3.694-.028-1.085-.164-2.148-.272-3.225-.032-.33.14-.663.085-.969-.072-.399-.607-.7-.91-.908C7.558 1.873 5.637 1.106 3.74.35a.888.888 0 0 0-.313-.078.317.317 0 0 0-.16.039"/>
        <path id="w" d="M3.268.31c-.103.058-.157.175-.2.286C2.595 1.8 2.54 3.13 2.152 4.363 1.67 5.9.683 7.247.257 8.801c-.02.077-.04.163-.003.234.034.062.102.096.165.126l.58.272c.602.283 1.21.567 1.859.71.912.2 1.933.134 2.685.689.487.359.884.98 1.488.956.393-.015.758-.32 1.142-.238.173.036.319.146.471.235.41.238.901.33 1.368.255a.237.237 0 0 0 .124-.046c.043-.04.053-.105.06-.164.133-1.226.184-2.461.152-3.694-.028-1.085-.164-2.148-.272-3.225-.032-.33.14-.663.085-.969-.072-.399-.607-.7-.91-.908C7.558 1.873 5.637 1.106 3.74.35a.888.888 0 0 0-.313-.078.317.317 0 0 0-.16.039"/>
        <path id="y" d="M3.268.31c-.103.058-.157.175-.2.286C2.595 1.8 2.54 3.13 2.152 4.363 1.67 5.9.683 7.247.257 8.801c-.02.077-.04.163-.003.234.034.062.102.096.165.126l.58.272c.602.283 1.21.567 1.859.71.912.2 1.933.134 2.685.689.487.359.884.98 1.488.956.393-.015.758-.32 1.142-.238.173.036.319.146.471.235.41.238.901.33 1.368.255a.237.237 0 0 0 .124-.046c.043-.04.053-.105.06-.164.133-1.226.184-2.461.152-3.694-.028-1.085-.164-2.148-.272-3.225-.032-.33.14-.663.085-.969-.072-.399-.607-.7-.91-.908C7.558 1.873 5.637 1.106 3.74.35a.888.888 0 0 0-.313-.078.317.317 0 0 0-.16.039"/>
        <path id="A" d="M3.268.31c-.103.058-.157.175-.2.286C2.595 1.8 2.54 3.13 2.152 4.363 1.67 5.9.683 7.247.257 8.801c-.02.077-.04.163-.003.234.034.062.102.096.165.126l.58.272c.602.283 1.21.567 1.859.71.912.2 1.933.134 2.685.689.487.359.884.98 1.488.956.393-.015.758-.32 1.142-.238.173.036.319.146.471.235.41.238.901.33 1.368.255a.237.237 0 0 0 .124-.046c.043-.04.053-.105.06-.164.133-1.226.184-2.461.152-3.694-.028-1.085-.164-2.148-.272-3.225-.032-.33.14-.663.085-.969-.072-.399-.607-.7-.91-.908C7.558 1.873 5.637 1.106 3.74.35a.888.888 0 0 0-.313-.078.317.317 0 0 0-.16.039"/>
        <path id="C" d="M3.268.31c-.103.058-.157.175-.2.286C2.595 1.8 2.54 3.13 2.152 4.363 1.67 5.9.683 7.247.257 8.801c-.02.077-.04.163-.003.234.034.062.102.096.165.126l.58.272c.602.283 1.21.567 1.859.71.912.2 1.933.134 2.685.689.487.359.884.98 1.488.956.393-.015.758-.32 1.142-.238.173.036.319.146.471.235.41.238.901.33 1.368.255a.237.237 0 0 0 .124-.046c.043-.04.053-.105.06-.164.133-1.226.184-2.461.152-3.694-.028-1.085-.164-2.148-.272-3.225-.032-.33.14-.663.085-.969-.072-.399-.607-.7-.91-.908C7.558 1.873 5.637 1.106 3.74.35a.888.888 0 0 0-.313-.078.317.317 0 0 0-.16.039"/>
        <path id="E" d="M3.268.31c-.103.058-.157.175-.2.286C2.595 1.8 2.54 3.13 2.152 4.363 1.67 5.9.683 7.247.257 8.801c-.02.077-.04.163-.003.234.034.062.102.096.165.126l.58.272c.602.283 1.21.567 1.859.71.912.2 1.933.134 2.685.689.487.359.884.98 1.488.956.393-.015.758-.32 1.142-.238.173.036.319.146.471.235.41.238.901.33 1.368.255a.237.237 0 0 0 .124-.046c.043-.04.053-.105.06-.164.133-1.226.184-2.461.152-3.694-.028-1.085-.164-2.148-.272-3.225-.032-.33.14-.663.085-.969-.072-.399-.607-.7-.91-.908C7.558 1.873 5.637 1.106 3.74.35a.888.888 0 0 0-.313-.078.317.317 0 0 0-.16.039"/>
        <path id="G" d="M3.268.31c-.103.058-.157.175-.2.286C2.595 1.8 2.54 3.13 2.152 4.363 1.67 5.9.683 7.247.257 8.801c-.02.077-.04.163-.003.234.034.062.102.096.165.126l.58.272c.602.283 1.21.567 1.859.71.912.2 1.933.134 2.685.689.487.359.884.98 1.488.956.393-.015.758-.32 1.142-.238.173.036.319.146.471.235.41.238.901.33 1.368.255a.237.237 0 0 0 .124-.046c.043-.04.053-.105.06-.164.133-1.226.184-2.461.152-3.694-.028-1.085-.164-2.148-.272-3.225-.032-.33.14-.663.085-.969-.072-.399-.607-.7-.91-.908C7.558 1.873 5.637 1.106 3.74.35a.888.888 0 0 0-.313-.078.317.317 0 0 0-.16.039"/>
        <path id="I" d="M3.268.31c-.103.058-.157.175-.2.286C2.595 1.8 2.54 3.13 2.152 4.363 1.67 5.9.683 7.247.257 8.801c-.02.077-.04.163-.003.234.034.062.102.096.165.126l.58.272c.602.283 1.21.567 1.859.71.912.2 1.933.134 2.685.689.487.359.884.98 1.488.956.393-.015.758-.32 1.142-.238.173.036.319.146.471.235.41.238.901.33 1.368.255a.237.237 0 0 0 .124-.046c.043-.04.053-.105.06-.164.133-1.226.184-2.461.152-3.694-.028-1.085-.164-2.148-.272-3.225-.032-.33.14-.663.085-.969-.072-.399-.607-.7-.91-.908C7.558 1.873 5.637 1.106 3.74.35a.888.888 0 0 0-.313-.078.317.317 0 0 0-.16.039"/>
        <path id="K" d="M3.268.31c-.103.058-.157.175-.2.286C2.595 1.8 2.54 3.13 2.152 4.363 1.67 5.9.683 7.247.257 8.801c-.02.077-.04.163-.003.234.034.062.102.096.165.126l.58.272c.602.283 1.21.567 1.859.71.912.2 1.933.134 2.685.689.487.359.884.98 1.488.956.393-.015.758-.32 1.142-.238.173.036.319.146.471.235.41.238.901.33 1.368.255a.237.237 0 0 0 .124-.046c.043-.04.053-.105.06-.164.133-1.226.184-2.461.152-3.694-.028-1.085-.164-2.148-.272-3.225-.032-.33.14-.663.085-.969-.072-.399-.607-.7-.91-.908C7.558 1.873 5.637 1.106 3.74.35a.888.888 0 0 0-.313-.078.317.317 0 0 0-.16.039"/>
        <path id="M" d="M3.268.31c-.103.058-.157.175-.2.286C2.595 1.8 2.54 3.13 2.152 4.363 1.67 5.9.683 7.247.257 8.801c-.02.077-.04.163-.003.234.034.062.102.096.165.126l.58.272c.602.283 1.21.567 1.859.71.912.2 1.933.134 2.685.689.487.359.884.98 1.488.956.393-.015.758-.32 1.142-.238.173.036.319.146.471.235.41.238.901.33 1.368.255a.237.237 0 0 0 .124-.046c.043-.04.053-.105.06-.164.133-1.226.184-2.461.152-3.694-.028-1.085-.164-2.148-.272-3.225-.032-.33.14-.663.085-.969-.072-.399-.607-.7-.91-.908C7.558 1.873 5.637 1.106 3.74.35a.888.888 0 0 0-.313-.078.317.317 0 0 0-.16.039"/>
        <path id="O" d="M3.268.31c-.103.058-.157.175-.2.286C2.595 1.8 2.54 3.13 2.152 4.363 1.67 5.9.683 7.247.257 8.801c-.02.077-.04.163-.003.234.034.062.102.096.165.126l.58.272c.602.283 1.21.567 1.859.71.912.2 1.933.134 2.685.689.487.359.884.98 1.488.956.393-.015.758-.32 1.142-.238.173.036.319.146.471.235.41.238.901.33 1.368.255a.237.237 0 0 0 .124-.046c.043-.04.053-.105.06-.164.133-1.226.184-2.461.152-3.694-.028-1.085-.164-2.148-.272-3.225-.032-.33.14-.663.085-.969-.072-.399-.607-.7-.91-.908C7.558 1.873 5.637 1.106 3.74.35a.888.888 0 0 0-.313-.078.317.317 0 0 0-.16.039"/>
        <path id="Q" d="M3.268.31c-.103.058-.157.175-.2.286C2.595 1.8 2.54 3.13 2.152 4.363 1.67 5.9.683 7.247.257 8.801c-.02.077-.04.163-.003.234.034.062.102.096.165.126l.58.272c.602.283 1.21.567 1.859.71.912.2 1.933.134 2.685.689.487.359.884.98 1.488.956.393-.015.758-.32 1.142-.238.173.036.319.146.471.235.41.238.901.33 1.368.255a.237.237 0 0 0 .124-.046c.043-.04.053-.105.06-.164.133-1.226.184-2.461.152-3.694-.028-1.085-.164-2.148-.272-3.225-.032-.33.14-.663.085-.969-.072-.399-.607-.7-.91-.908C7.558 1.873 5.637 1.106 3.74.35a.888.888 0 0 0-.313-.078.317.317 0 0 0-.16.039"/>
        <path id="S" d="M3.268.31c-.103.058-.157.175-.2.286C2.595 1.8 2.54 3.13 2.152 4.363 1.67 5.9.683 7.247.257 8.801c-.02.077-.04.163-.003.234.034.062.102.096.165.126l.58.272c.602.283 1.21.567 1.859.71.912.2 1.933.134 2.685.689.487.359.884.98 1.488.956.393-.015.758-.32 1.142-.238.173.036.319.146.471.235.41.238.901.33 1.368.255a.237.237 0 0 0 .124-.046c.043-.04.053-.105.06-.164.133-1.226.184-2.461.152-3.694-.028-1.085-.164-2.148-.272-3.225-.032-.33.14-.663.085-.969-.072-.399-.607-.7-.91-.908C7.558 1.873 5.637 1.106 3.74.35a.888.888 0 0 0-.313-.078.317.317 0 0 0-.16.039"/>
    </defs>
    <g fill="none" fill-rule="evenodd">
        <g transform="translate(23.793 63.569)">
            <mask id="b" fill="#fff">
                <use xlink:href="#a"/>
            </mask>
            <path fill="#F9D1E9" d="M1.517 1.516c.192.522.452 1.02.574 1.563.078.351.061.79-.244.98-.218.136-.504.087-.74-.014a.99.99 0 0 1-.404-.288c-.138-.179-.176-.414-.21-.638C.344 2.105.192 1.088.163.062c.002.08 1.035-.087 1.134.107.07.134.003.489.03.653.038.237.108.469.19.694" mask="url(#b)"/>
        </g>
        <path fill="#F9D1E9" d="M21.676 66.65c-.002.035-.004.075-.03.1-.024.023-.061.025-.095.027l-.213.01c-.07.003-.145.004-.2-.038a.302.302 0 0 1-.08-.113l-.804-1.604a.744.744 0 0 1-.102-.317c-.001-.112.064-.234.174-.257.06-.014.124.004.183-.015.11-.034.146-.17.163-.286.057-.4.097-.803.12-1.207-.01.197.709.41.83.511.215.182.157.43.147.692l-.093 2.496"/>
        <path fill="#EFC4B9" d="M25.384 63.439c-.012.153-.038.329-.167.412a.507.507 0 0 1-.26.058c-.24.01-.478.02-.717.028-.114.005-.239.007-.332-.06-.152-.11-.144-.334-.122-.52a36.71 36.71 0 0 0 .266-4.343c.003-1.484-.265-2.981-.246-4.45.672-.117 1.838-.02 2.192.694.246.497-.025 1.198-.084 1.713-.245 2.146-.355 4.316-.53 6.468M22.086 63.034c-.018.204-.057.44-.236.539-.104.058-.23.05-.35.042l-.524-.037c-.098-.006-.201-.016-.279-.075-.105-.082-.13-.228-.142-.36-.092-.998.031-2.001.131-2.999.211-2.096.318-4.203.321-6.31 0-.08 1.676.007 1.798.613.161.805-.147 1.938-.215 2.755-.163 1.944-.331 3.888-.504 5.832M28.448 52.714c-.01.255-.062.57-.304.65a.51.51 0 0 1-.281-.003c-.738-.18-1.146-.98-1.295-1.725-.122-.61-.136-1.236-.136-1.858 0-1.776.116-3.552.35-5.312.084-.627.182-1.251.311-1.87.105-.498.305-1.073.794-1.212.58-.164 1.26.451 1.445.973.213.606-.134 1.618-.21 2.248a103.83 103.83 0 0 0-.674 8.109M19.271 38.948c-.02.264-.04.567.148.753.172.17.444.168.685.155.032.374.045.75.038 1.125a.741.741 0 0 1-.06.333c-.055.107-.156.18-.256.247-.213.144-.44.278-.694.327-.252.05-.536.002-.72-.177-.241-.232-.256-.606-.256-.94l.009-3.457c0-.348-.003-.774.219-1.065.244-.322.485-.317.63.022.33.765.317 1.864.257 2.677"/>
        <g transform="translate(19.31 35.61)">
            <mask id="d" fill="#fff">
                <use xlink:href="#c"/>
            </mask>
            <path fill="#EADAE4" d="M9.382 1.095c.18.119.36.246.485.42.178.247.23.558.273.858.202 1.403.307 2.82.314 4.238 0 .071-.001.146-.04.206-.05.08-.152.109-.244.13-.58.14-1.224.297-1.55.797-.07.109-.131.238-.251.288a.473.473 0 0 1-.261.007c-1.019-.177-2.013-.794-3.017-.544-.534.134-.976.497-1.455.771-.478.274-1.078.46-1.572.214l.01-1.718c0-.227 0-.462-.088-.672-.088-.21-.287-.39-.515-.383-.182.006-.369.127-.536.055-.096-.042-.156-.137-.208-.229A6.228 6.228 0 0 1 .248 4.46C.198 4.312.153 4.154.185 4c.039-.182.179-.323.313-.453.463-.45.935-.906 1.509-1.201.32-.165.669-.278.972-.474.258-.167.476-.391.733-.56.663-.437 1.51-.467 2.3-.388.789.078 1.579.25 2.367.164-.066.008-.494-.504-.568-.57C7.63.352 7.366.19 7.725.19c.466-.002 1.278.654 1.657.905" mask="url(#d)"/>
        </g>
        <path fill="#FABDD6" d="M22.41 37.06a.324.324 0 0 0-.037-.15c-.05-.077-.153-.098-.244-.11-.265-.04-.594-.05-.735.179-.074.12-.068.27-.06.412l.104 1.79c.036.621.073 1.248.247 1.845.057.197.137.4.3.523.225.171 1.048.37 1.184.01.094-.253-.366-.985-.434-1.253-.27-1.059-.232-2.165-.324-3.246M28.242 37.75a.385.385 0 0 1 .098-.175c.09-.077.227-.054.343-.025.177.043.38.11.436.283.034.105 0 .217-.033.321a13.77 13.77 0 0 1-1.02 2.352c-.188.342-.6 1.474-1.09 1.044-.527-.462-.036-1.118.215-1.542a12.54 12.54 0 0 0 1.051-2.258"/>
        <path fill="#9F7072" d="M11.75 60.388c.115.204.233.42.232.654 0 .232-.117.446-.231.649l-.563 1a8.82 8.82 0 0 1-.583.942c-.265.357-.582.671-.898.984-.154.153-.333.316-.55.314-.276-.002-.47-.268-.596-.514a5.097 5.097 0 0 1-.425-1.165c-.04-.17-.07-.354-.011-.519.052-.144.165-.256.274-.362l1.641-1.594c.239-.231.424-.416.698-.514.177-.064.512-.232.7-.187.147.035.237.18.312.312zM5.259 63.922c.097.19.1.415.074.627-.045.383-.17.75-.297 1.114-.086.244-.175.493-.332.698-.192.253-.47.423-.742.587-.374.225-.793.46-1.221.378-.237-.045-.445-.182-.646-.317-.438-.294-.911-.638-1.026-1.154-.074-.337.021-.684.122-1.013.077-.252.158-.504.243-.754.026-.078.056-.16.121-.213.11-.086.267-.05.402-.019.684.16 1.283.038 1.958-.066.425-.065 1.095-.354 1.344.132"/>
        <g transform="translate(0 33.193)">
            <mask id="f" fill="#fff">
                <use xlink:href="#e"/>
            </mask>
            <path fill="#242355" d="M13.312 10.597c-.159.797-.34 1.59-.453 2.395-.239 1.689-.177 3.406-.279 5.109-.182 3.055-.89 6.054-1.728 8.998-.285 1.004-.625 2.065-1.433 2.724-.384.313-.912.517-1.378.347-.378-.137-.638-.491-.803-.859-.543-1.21-.28-2.61-.067-3.92a43.306 43.306 0 0 0-.095-14.424c-.49 2.114.228 4.414-.498 6.46-.21.59-.534 1.137-.728 1.734-.208.64-.26 1.318-.311 1.988-.146 1.922-.288 3.845-.427 5.767-.03.413-.059.83-.012 1.241.048.418.175.825.196 1.245.071 1.39-1.224 2.693-2.614 2.63-.545-.026-1.122-.272-1.364-.762-.265-.537-.066-1.171-.028-1.768.043-.666-.123-1.325-.288-1.97l-.61-2.387c-.19-.743-.38-1.496-.392-2.264-.008-.635.107-1.265.163-1.899.073-.821.046-1.647.032-2.471C.097 12.564.71 6.619 1.788.77c.06-.32.228-.723.55-.685.137.016.247.117.351.207 1.497 1.31 3.614 1.601 5.6 1.684 1.251.052 5.39-.299 5.86 1.189.303.958-.139 2.665-.25 3.658a44.517 44.517 0 0 1-.587 3.773" mask="url(#f)"/>
        </g>
        <path fill="#D8B8AD" d="M18.357 25.566c.14.642.282 1.287.324 1.943.035.546.001 1.094.026 1.64.04.921.246 1.826.37 2.74.194 1.42.193 2.867-.004 4.286-.048.352-.143.751-.459.913-.357.183-.811-.066-1.003-.418-.191-.353-.196-.773-.217-1.174a11.688 11.688 0 0 0-.136-1.264c-.346-2.124-1.268-4.103-1.907-6.157-.408-1.312-.7-2.657-.993-4l-.853-3.922c-.001-.005 2.042.105 2.234.133.598.087 1.355.064 1.604.64.29.672.344 1.574.5 2.292l.514 2.348"/>
        <path fill="#EABCB0" d="M9.979 4.485c.107-.2.244-.418.466-.467.199-.044.407.07.529.232.122.163.175.367.217.566a7.446 7.446 0 0 1-.187 3.758c-.152.478-.389.981-.843 1.195-.355.166-.768.12-1.157.07a.974.974 0 0 1-.332-.082c-.706-.367-.096-1.738.059-2.254a16.216 16.216 0 0 1 1.248-3.018"/>
        <path fill="#D8B8AD" d="M9.7 9.712c.359.58.758 1.237.588 1.898-1.614.137-3.245.07-4.843-.195a.624.624 0 0 1-.27-.09c-.164-.118-.177-.354-.172-.556.018-.726.07-1.45.153-2.17a.277.277 0 0 1 .037-.127c.03-.044.084-.067.134-.087.756-.295 1.988-.883 2.819-.686.796.188 1.172 1.396 1.554 2.013"/>
        <path fill="#24202C" d="M10.941 3.114c.213.332.432.747.251 1.097-.078.152-.218.259-.341.377-1.143 1.1-.79 3.215-2.003 4.238-.6.505-1.439.604-2.222.582-.935-.025-1.922-.217-2.61-.851-.372-.344-.63-.794-.823-1.262-.575-1.395-.563-3.107.346-4.31.33-.436.758-.786 1.197-1.111.959-.71 2.36-1.567 3.609-1.528 1.259.04 2.02 1.872 2.596 2.768"/>
        <path fill="#F5D8EA" d="M11.748 11.868l1.319 1.12c1.74 1.48 3.554 3.064 4.303 5.223.27.775.389 1.602.35 2.421l-3.385.145.002 3.32v1.022l.007 10.911a28.966 28.966 0 0 1-11.01-1.578c-.347-.121-.713-.264-.93-.56-.299-.405-.234-.96-.166-1.459a35.186 35.186 0 0 0-.822-13.619c-.461-1.762-1.066-3.53-.992-5.35.006-.158.02-.323.097-.46.091-.162.258-.264.417-.359l1.633-.974c.349-.208.702-.418 1.093-.527.395-.11.81-.113 1.22-.116 1.36-.006 2.764.088 4.12-.021.406-.033.759-.187 1.168-.101.597.125 1.125.578 1.576.962"/>
        <path fill="#201924" d="M6.273 15.011l-.123-.08.017-.063c.053-.18.136-.37.304-.452.112-.055.242-.052.367-.045.268.017.564.067.73.279.14.178.148.421.158.647a.79.79 0 0 0 .018.124c-.159.04-.322.055-.487.034-.36-.046-.679-.247-.984-.444m-2.578-.789c.207.354.439.742.367 1.145-.069.39-.4.67-.654.973-.817.972-.925 2.337-.996 3.606l-.25 4.472c-.077 1.368-.152 2.745.025 4.104.177 1.358.626 2.712 1.496 3.77.62.754 1.426 1.33 2.222 1.895.226.16.456.323.72.406.37.115.772.063 1.15-.024 1.251-.285 2.43-.944 3.254-1.927.759-.904 1.194-2.086 1.148-3.262.199.003.358-.16.489-.31.47-.546.942-1.09 1.414-1.636l.03-.035c.084.957.2 1.912.4 2.852.04.19.09.388.222.53.133.14.378.195.52.063a.177.177 0 0 0 .055-.088c.012-.052-.01-.106-.03-.156a7.834 7.834 0 0 1-.591-2.82c-.01-.409-.02-.867.085-1.261.114-.433.344-.736.26-1.218-.02-.116-.078-.25-.195-.263-.121-.012-.205.114-.262.221a8.443 8.443 0 0 1-1.87 2.364c-.206.182-.51.35-.719.564-.098-.38-.21-.757-.297-1.14-.2-.876-.25-1.779-.3-2.677l-.142-2.562c-.092-1.662-.185-3.325-.178-4.99.002-.204-.004-.43-.144-.578-.144-.154-.378-.169-.583-.216-.206-.048-.435-.19-.42-.4.008-.116.089-.211.165-.298l1.822-2.048c.28-.314 1.537-1.513.329-1.592-.33-.022-.631.17-.896.367a9.626 9.626 0 0 0-1.84 1.803c-.296.381-.567.788-.928 1.109a2.414 2.414 0 0 1-.194.153c-.12-.386-.314-.8-.397-.987a1.16 1.16 0 0 0-.185-.312c-.154-.169-.385-.242-.605-.3-.359-.097-.755-.169-1.09-.01-.27.129-.457.393-.558.676-.036.1-.06.202-.08.305l-.191-.123a2.108 2.108 0 0 1-.438-.34c-.171-.189-.268-.432-.365-.668-.27-.652-.575-1.29-.914-1.909-.143-.26-.366-.557-.66-.51-.21.034-.353.248-.375.46-.023.211.049.42.123.62.287.762.639 1.5 1.05 2.202"/>
        <path fill="#4887C4" d="M27.782 56.069c-.007.059-.016.123-.06.164a.234.234 0 0 1-.124.046 2.084 2.084 0 0 1-1.367-.255c-.153-.089-.3-.2-.472-.236-.384-.082-.749.223-1.142.238-.604.024-1-.597-1.488-.956-.751-.554-1.773-.488-2.685-.689-.65-.142-1.257-.427-1.859-.71l-.58-.271c-.063-.03-.131-.065-.164-.127-.037-.07-.018-.157.003-.234.426-1.553 1.411-2.9 1.894-4.437.388-1.234.443-2.563.916-3.767.043-.111.097-.228.2-.287.142-.08.32-.021.472.04 1.897.757 3.818 1.523 5.512 2.685.302.207.837.509.91.908.055.306-.118.64-.085.968.107 1.078.243 2.14.271 3.225a27.651 27.651 0 0 1-.152 3.695"/>
        <path fill="#FFF" d="M20.889 44.8c.665 0 .667-1.036 0-1.036-.666 0-.667 1.036 0 1.036"/>
        <g>
            <g transform="translate(17.586 44.239)">
                <mask id="h" fill="#fff">
                    <use xlink:href="#g"/>
                </mask>
                <path fill="#FFF" d="M8.746 8.655c.79.067.688 1.298-.104 1.23-.791-.066-.689-1.297.104-1.23" mask="url(#h)"/>
            </g>
            <g transform="translate(17.586 44.239)">
                <mask id="j" fill="#fff">
                    <use xlink:href="#i"/>
                </mask>
                <path fill="#FFF" d="M5.02 6.691c.791.067.689 1.298-.103 1.23-.791-.066-.689-1.296.103-1.23" mask="url(#j)"/>
            </g>
            <g transform="translate(17.586 44.239)">
                <mask id="l" fill="#fff">
                    <use xlink:href="#k"/>
                </mask>
                <path fill="#FFF" d="M7.692 3.689c.791.067.689 1.298-.104 1.23-.79-.066-.688-1.297.104-1.23" mask="url(#l)"/>
            </g>
            <g transform="translate(17.586 44.239)">
                <mask id="n" fill="#fff">
                    <use xlink:href="#m"/>
                </mask>
                <path fill="#FFF" d="M8.969 6.007c.79.067.688 1.298-.104 1.231-.791-.067-.689-1.298.104-1.23" mask="url(#n)"/>
            </g>
            <g transform="translate(17.586 44.239)">
                <mask id="p" fill="#fff">
                    <use xlink:href="#o"/>
                </mask>
                <path fill="#FFF" d="M3.71 3.95c.79.066.688 1.297-.105 1.23-.79-.067-.688-1.298.104-1.23" mask="url(#p)"/>
            </g>
            <g transform="translate(17.586 44.239)">
                <mask id="r" fill="#fff">
                    <use xlink:href="#q"/>
                </mask>
                <path fill="#FFF" d="M4.33 2.399c-.79-.067-.688-1.298.104-1.23.792.066.69 1.297-.103 1.23" mask="url(#r)"/>
            </g>
            <g transform="translate(17.586 44.239)">
                <mask id="t" fill="#fff">
                    <use xlink:href="#s"/>
                </mask>
                <path fill="#FFF" d="M6.339 5.189c.79.067.688 1.297-.104 1.23-.791-.066-.689-1.297.104-1.23" mask="url(#t)"/>
            </g>
            <g transform="translate(17.586 44.239)">
                <mask id="v" fill="#fff">
                    <use xlink:href="#u"/>
                </mask>
                <path fill="#FFF" d="M2.477 7.751c-.79-.066-.688-1.298.104-1.23.791.066.689 1.297-.104 1.23" mask="url(#v)"/>
            </g>
            <g transform="translate(17.586 44.239)">
                <mask id="x" fill="#fff">
                    <use xlink:href="#w"/>
                </mask>
                <path fill="#FFF" d="M1.426 7.335c.79.067.689 1.298-.104 1.23-.79-.066-.689-1.297.104-1.23" mask="url(#x)"/>
            </g>
            <g transform="translate(17.586 44.239)">
                <mask id="z" fill="#fff">
                    <use xlink:href="#y"/>
                </mask>
                <path fill="#FFF" d="M2.381 9.31c.791.067.689 1.298-.104 1.231-.79-.067-.688-1.297.104-1.23" mask="url(#z)"/>
            </g>
            <g transform="translate(17.586 44.239)">
                <mask id="B" fill="#fff">
                    <use xlink:href="#A"/>
                </mask>
                <path fill="#FFF" d="M4.36 9.127c.79.066.688 1.297-.104 1.23-.791-.066-.689-1.297.103-1.23" mask="url(#B)"/>
            </g>
            <g transform="translate(17.586 44.239)">
                <mask id="D" fill="#fff">
                    <use xlink:href="#C"/>
                </mask>
                <path fill="#FFF" d="M6.504 8.22c.79.067.688 1.298-.104 1.23-.791-.066-.689-1.297.104-1.23" mask="url(#D)"/>
            </g>
            <g transform="translate(17.586 44.239)">
                <mask id="F" fill="#fff">
                    <use xlink:href="#E"/>
                </mask>
                <path fill="#FFF" d="M10.354 7.458c.79.066.688 1.297-.104 1.23-.791-.067-.689-1.297.104-1.23" mask="url(#F)"/>
            </g>
            <g transform="translate(17.586 44.239)">
                <mask id="H" fill="#fff">
                    <use xlink:href="#G"/>
                </mask>
                <path fill="#FFF" d="M9.76 4.928c-.79-.067-.688-1.298.105-1.23.79.066.688 1.297-.104 1.23" mask="url(#H)"/>
            </g>
            <g transform="translate(17.586 44.239)">
                <mask id="J" fill="#fff">
                    <use xlink:href="#I"/>
                </mask>
                <path fill="#FFF" d="M8.147 1.622c.79.067.688 1.298-.104 1.23-.791-.066-.689-1.297.104-1.23" mask="url(#J)"/>
            </g>
            <g transform="translate(17.586 44.239)">
                <mask id="L" fill="#fff">
                    <use xlink:href="#K"/>
                </mask>
                <path fill="#FFF" d="M5.71 3.498c-.79-.067-.688-1.298.104-1.23.791.066.689 1.297-.104 1.23" mask="url(#L)"/>
            </g>
            <g transform="translate(17.586 44.239)">
                <mask id="N" fill="#fff">
                    <use xlink:href="#M"/>
                </mask>
                <path fill="#FFF" d="M2.488 3.471c-.791-.066-.689-1.297.103-1.23.791.067.69 1.297-.103 1.23" mask="url(#N)"/>
            </g>
            <g transform="translate(17.586 44.239)">
                <mask id="P" fill="#fff">
                    <use xlink:href="#O"/>
                </mask>
                <path fill="#FFF" d="M6.606 10.755c.79.067.688 1.298-.104 1.23-.791-.066-.689-1.297.104-1.23" mask="url(#P)"/>
            </g>
            <g transform="translate(17.586 44.239)">
                <mask id="R" fill="#fff">
                    <use xlink:href="#Q"/>
                </mask>
                <path fill="#FFF" d="M9.11 10.58c.79.067.688 1.298-.105 1.231-.79-.067-.688-1.297.104-1.23" mask="url(#R)"/>
            </g>
            <g transform="translate(17.586 44.239)">
                <mask id="T" fill="#fff">
                    <use xlink:href="#S"/>
                </mask>
                <path fill="#FFF" d="M10.768 10.44c.791.067.689 1.298-.103 1.23-.792-.066-.69-1.297.103-1.23" mask="url(#T)"/>
            </g>
        </g>
        <g>
            <path fill="#F9628E" d="M24.82 40.185a.792.792 0 0 1 .109-.324c.091-.139.28-.228.428-.152.071.037.12.105.16.174.034.057.059.196.086.357a3.144 3.144 0 0 0-.782-.055m-3.544 6.864c.039.133.081.268.154.387.095.159.237.282.385.394 1.261.941 2.94 1.04 4.513 1.099.192.008.395.012.565-.077.191-.1.307-.3.4-.495.69-1.428.764-3.08.615-4.66-.072-.756-.197-1.524-.563-2.189a2.477 2.477 0 0 0-1.147-1.075c-.018-.467-.213-1.076-.267-1.318-.058-.264-.153-.57-.408-.66-.279-.097-.566.132-.729.378-.185.28-.299.6-.398.92-.05.163-.095.335-.12.507a3.824 3.824 0 0 0-1.585.747c-.856.686-1.406 1.712-1.618 2.788-.211 1.076-.101 2.2.203 3.254"/>
            <path fill="#2D2837" d="M26.898 29.068c.201.125.338.329.47.527.27.407.542.818.728 1.27.208.51.302 1.062.55 1.553.152.302.361.58.453.905.073.26.067.534.057.804a46.241 46.241 0 0 1-.271 3.647l-1.665-.16c-.15-.014-.309-.031-.437-.113-.117-.075-.198-.199-.318-.269-.29-.169-.645.032-.975.096-.454.088-.917-.096-1.379-.075-.531.024-1.039.317-1.566.253-.463-.056-.858-.385-1.097-.786-.239-.4-.342-.865-.418-1.325-.058-.349-.097-.726.07-1.038.106-.197.283-.344.418-.522.438-.573.397-1.362.429-2.083.039-.86.253-1.785.913-2.337.56-.469 1.328-.576 2.034-.603.581-.022 1.508-.054 2.004.256"/>
        </g>
    </g>
</svg>
