<svg xmlns="http://www.w3.org/2000/svg" xmlns:xlink="http://www.w3.org/1999/xlink" width="117" height="179" viewBox="0 0 117 179">
    <defs>
        <path id="a" d="M.274.015h9.299v8.541H.274z"/>
        <path id="c" d="M0 .14h6.727v17.988H0z"/>
        <path id="e" d="M.088.22h8.794v13.044H.088z"/>
        <path id="g" d="M.28.028h8.184v7.628H.28z"/>
        <path id="i" d="M2.741.73c-.131.103-.213.256-.335.368-.319.292-.456-.018-.698-.181A.93.93 0 0 0 .795.84c-.56.276-.632 1.034-.586 1.654.093 1.266.357 2.538.179 3.794-.034.235-.083.468-.084.705-.003.738.487 1.433 1.152 1.76.665.326 1.471.305 2.158.027.533-.216 1.06-.72.93-1.278-.077-.334-.365-.57-.615-.805-.25-.235-.496-.542-.449-.882.036-.258.239-.466.463-.601.224-.136.476-.22.704-.35.614-.35.985-1.006 1.151-1.674.19-.758.416-2.218-.281-2.806C5.236.148 4.895.052 4.54.052c-.646 0-1.338.319-1.8.679"/>
        <path id="k" d="M0 .273h8.332v16.944H0z"/>
        <path id="m" d="M.1.253h36.307v40.691H.1z"/>
    </defs>
    <g fill="none" fill-rule="evenodd">
        <path fill="#7F7F60" d="M63.04 176.32c-.34.158-.429.59-.475.96-.013.105-.025.214.016.31.057.136.202.21.336.27a17.317 17.317 0 0 0 2.343.859c.093.027.19.052.284.033.101-.02.184-.09.262-.157.762-.654 1.447-1.56.272-2.157-.796-.405-2.219-.5-3.039-.118M59.228 176.845c-.608.076-1.269.414-1.382 1.014a.497.497 0 0 0 .003.234.544.544 0 0 0 .138.213c.468.495 1.207.598 1.887.658.187.017.376.032.563.007.48-.065.907-.42 1.058-.879.537-1.632-1.303-1.368-2.267-1.247"/>
        <path fill="#C3CAD1" d="M61.6 177.56c-.66.21-1.408-.065-1.892-.559-.484-.493-.738-1.17-.866-1.849-.217-1.138-.114-2.311.008-3.464.175-1.659.389-3.313.641-4.962.03-.19.08-.409.254-.49.103-.048.223-.034.335-.017.686.099 2.436.063 2.451.926.008.436-.417 1.089-.544 1.517-.17.573-.295 1.159-.387 1.75-.368 2.364-.188 4.776 0 7.148M64.613 175.83c.123.338.267.68.528.928.287.272.688.397 1.082.436.18.018.379.014.523-.096.16-.121.208-.335.246-.532.483-2.508.969-5.03 1.034-7.585.015-.582.005-1.178-.197-1.724-.059-.159-.14-.318-.278-.415-.146-.1-.332-.117-.508-.13-.817-.06-2.038-.486-2.513.29-.465.76-.552 2.06-.641 2.927-.203 1.978.025 4.035.724 5.902"/>
        <path fill="#8C4F26" d="M64.732 127.645c-.14-.212-.37-.382-.625-.383-.278 0-.525.205-.65.452-.125.248-.15.533-.16.81a8.383 8.383 0 0 0 1.367 4.843c.209.317.444.625.753.847.31.222.677.347 1.044.445.626.169 1.282.27 1.924.176.641-.095 1.27-.407 1.644-.935a.436.436 0 0 0 .087-.187c.031-.223-.226-.362-.436-.444-1.401-.544-2.489-1.441-3.506-2.522-.31-.33-.624-.604-.798-1.032-.267-.655-.25-1.471-.644-2.07"/>
        <g transform="translate(63.051 125.266)">
            <mask id="b" fill="#fff">
                <use xlink:href="#a"/>
            </mask>
            <path fill="#000" d="M2.004 1.002C2.841.647 3.777.539 4.688.382 5.974.16 7.298-.166 8.584.14c.114.027.23.06.324.13.12.089.184.225.24.357.46 1.107.527 2.327.293 3.473-.233 1.145-.759 2.221-1.44 3.191-.376.537-.853 1.077-1.533 1.225-.569.124-1.177-.055-1.705-.312-.528-.258-1.01-.596-1.55-.829-.37-.159-.767-.27-1.094-.496-.406-.278-.663-.7-.907-1.11C.71 4.928.272 4.287.274 3.33c.003-1.12.699-1.84 1.73-2.327" mask="url(#b)"/>
        </g>
        <path fill="#A09F6A" d="M71.968 137.507c-.731-1.271-1.716-2.974-3.262-3.387-1.397-.373-3.347.076-4.783.11-.568.013-1.146.028-1.69.196-1.4.434-2.291 1.775-3.001 3.056-1.808 3.259-3.236 6.898-2.959 10.612.128 1.705.61 3.363.88 5.052.52 3.271.237 6.64.878 9.89.253 1.283.72 2.638 1.81 3.366.782.522 1.762.635 2.7.707 1.797.135 3.601.17 5.402.105.477-.017.984-.051 1.373-.328.302-.215.494-.55.658-.883.415-.839.723-1.73.913-2.647.15-.723.226-1.46.302-2.194l.394-3.797c.142-1.373.285-2.757.147-4.131-.254-2.552-1.46-4.95-1.598-7.511.318.797.636 1.595.939 2.398l1.746-8.629a17.625 17.625 0 0 0-.85-1.985"/>
        <g transform="translate(56 134.266)">
            <mask id="d" fill="#fff">
                <use xlink:href="#c"/>
            </mask>
            <path fill="#7F7F60" d="M5.993.147c.175-.015.367-.015.507.114.16.15.198.42.213.664.128 2.174-.637 4.258-1.206 6.329a35.773 35.773 0 0 0-1.125 6.24c-.072.799-.12 1.607-.31 2.377-.192.769-.546 1.51-1.106 1.948-.22.171-.472.293-.733.308-.675.037-1.237-.634-1.56-1.347-.575-1.263-.685-2.754-.672-4.194C.043 7.818 1.038.58 5.993.147" mask="url(#d)"/>
        </g>
        <path fill="#7F7F60" d="M68.067 137.26c-.13-.414-.295-.823-.34-1.255-.043-.431.054-.905.373-1.199.359-.33.924-.356 1.376-.174.452.184.81.54 1.119.917.744.906 1.278 1.962 1.765 3.028 1.857 4.07 3.102 8.408 3.807 12.825.112.708.195 1.496-.213 2.086-.223.323-.566.542-.904.741-.695.41-1.646.76-2.243.219-.185-.168-.3-.398-.407-.623-.967-2.032-1.812-4.254-2.092-6.497-.255-2.046-1.298-3.839-1.571-5.9-.185-1.394-.244-2.817-.67-4.168"/>
        <path fill="#FFF" d="M64.408 138.863c.104.17.215.345.388.44.302.168.679.039.992-.109a9.807 9.807 0 0 0 3.443-2.716c.328-.408.859-.892 1.288-.591.218.152.277.46.212.716-.065.257-.23.476-.39.687l-.954 1.251c-.26.341-.524.69-.66 1.097-.248.744-.032 1.55.133 2.317.556 2.58.45 5.486-1.154 7.587-.317.416-.703.802-1.19.993-.417.161-.874.17-1.32.171-.897.005-1.823-.012-2.643-.374-1.235-.545-2.032-1.812-2.33-3.125-.299-1.314-.168-2.684.004-4.02.065-.501.138-1.01.34-1.475.4-.922 1.255-1.56 1.837-2.38a.761.761 0 0 0 .155-.324c.052-.383-.345-.86-.465-1.216a3.984 3.984 0 0 1-.221-1.24c-.002-.33.054-1.567.415-1.75.395-.198.537 1.045.67 1.376.382.945.919 1.82 1.45 2.685"/>
        <path fill="#986978" d="M80.23 146.619c.186.007.42-.002.492-.173.023-.054.023-.113.023-.171-.002-.604.054-1.244-.02-1.84-.431-.043-1.457.3-1.712.699-.3.468-.205 1.393-.248 1.92.413-.347.934-.455 1.466-.435"/>
        <path fill="#D7E8DD" d="M78.348 175.607c.53-.147 1.211.24 1.594-.155.107-.111.16-.264.204-.413.422-1.428.323-6.043.305-7.532a39.549 39.549 0 0 1 .43-6.317c-.024.143-1.881.227-2.185.681-.455.682-.21 2.544-.245 3.354-.104 2.428-.138 7.952-.103 10.382M82.181 175.699l2.315-.006c-.106-3.837.137-10.73.157-14.551-2.432.395-2.395 1.455-2.412 3.715-.005.643-.048 10.842-.06 10.842"/>
        <path fill="#009697" d="M73.374 150.012c-.424.743-.726 1.618-.521 2.448.205.83 1.074 1.532 1.9 1.302-.382-1.212.728-2.632 2-2.559.09 3.983.182 7.965.273 11.947.003.148.012.31.11.422.122.14.334.149.52.146l6.948-.097c.176-.002.37-.012.497-.134.105-.1.136-.253.16-.397.345-2.191-.174-4.412-.55-6.598-.572-3.328-.457-6.629-.76-9.953-1.716-.378-4.207-.138-5.956.237-1.866.399-3.672 1.571-4.621 3.236"/>
        <path fill="#0E7774" d="M76.527 147.186c-1.025.623-1.95 1.395-2.843 2.196-.27.242-.54.492-.724.803-.283.48-.335 1.059-.336 1.615 0 .517.045 1.06.328 1.494.283.433.871.707 1.339.483.633-.305.655-1.239 1.189-1.695.394-.337.977-.34 1.422-.605.654-.388.856-1.222.998-1.967.247-1.292.758-3.386-1.373-2.324M86.95 147.858c.303.275.582.577.91.822.213.158.448.294.615.5.487.6.2 1.492-.153 2.18a16.511 16.511 0 0 1-3.575 4.662c-.057.053-.13.108-.204.084-.047-.016-.077-.059-.104-.1l-.55-.828a.622.622 0 0 1-.104-.212c-.039-.187.094-.36.217-.505a33.526 33.526 0 0 0 2.222-2.932c.106-.157.215-.337.178-.522-.028-.136-.13-.245-.236-.336a2.504 2.504 0 0 0-1.27-.58c-.472-.068-.986-.008-1.395-.252-.527-.314-.671-.998-.764-1.603-.052-.34-.487-1.75-.298-2.007.238-.324.987-.081 1.362.003a6.96 6.96 0 0 1 3.15 1.626"/>
        <path fill="#3D3228" d="M78.281 175.283l-.354 2.724c-.011.085-.02.178.025.252.061.1.196.122.313.128.54.03 1.084-.05 1.593-.232.202-.072.407-.166.546-.33.205-.242.23-.584.233-.9a12.132 12.132 0 0 0-.092-1.603c-.022-.177-.055-.37-.187-.49-.235-.211-.605-.074-.886.072l-1.338.696M82.738 177.721c.043.13.097.266.211.34.098.063.22.067.337.064.402-.01.803-.081 1.183-.212.131-.045.266-.102.354-.21.104-.13.12-.306.131-.471.031-.5.042-1 .032-1.5-.002-.105-.008-.22-.076-.3-.444-.518-1.583-.533-2.107-.072-.636.56-.298 1.648-.065 2.361"/>
        <path fill="#11200C" d="M76.937 140.531c-.787.93-.887 2.375-.235 3.404.651 1.028 2.002 1.56 3.182 1.25.406-.105.783-.298 1.141-.515.299-.182.596-.39.773-.691.15-.256.202-.556.24-.85.093-.723.122-1.454.088-2.181-.014-.306-.043-.623-.195-.889-.124-.216-.32-.384-.533-.515-1.33-.824-3.498-.151-4.461.987"/>
        <path fill="#1E2D18" d="M76.527 145.882c.403-.222 1.034.384 1.276.69a.6.6 0 0 1 .124.219c.036.144-.03.293-.1.426-.145.283-.32.572-.599.726-.279.155-.688.118-.85-.156-.07-.12-.084-.264-.096-.402l-.04-.453c-.022-.252-.042-.514.05-.749.062-.154.142-.25.235-.3"/>
        <path fill="#1E2D18" d="M76.377 146.038c.164.193.452.206.706.205.209 0 .435-.007.598-.136.145-.115.21-.303.245-.484.115-.584.043-1.67-.82-1.476-.612.137-1.153 1.395-.73 1.891M77.074 149.483c.201.3.56.534.915.462a.355.355 0 0 0 .135-.053.366.366 0 0 0 .08-.082c.161-.216.207-.498.212-.767.01-.554-.374-1.609-1.123-1.303-.654.267-.538 1.268-.22 1.743M77.907 152.388a5.055 5.055 0 0 0-.012.938c.01.119.028.247.113.332a.46.46 0 0 0 .256.109c.272.045.565.01.801-.134.236-.144.406-.406.401-.682-.003-.232-.124-.45-.285-.616-.162-.166-.362-.29-.56-.411-.178-.11-.354-.304-.532-.16-.13.103-.182.47-.182.624"/>
        <path fill="#1E2D18" d="M77.55 150.025c-.098.287-.118.596-.133.9-.008.175-.015.354.031.524.067.242.246.45.476.552.11.05.239.074.35.029.135-.054.212-.194.268-.327.117-.278.194-.586.122-.878-.085-.347-.355-.594-.558-.874-.065-.09-.167-.355-.293-.348-.133.007-.228.32-.262.422M78.403 154.849c-.037.187-.056.39.032.559a.867.867 0 0 0 .181.218c.136.129.292.253.478.272.244.024.465-.139.648-.302.166-.149.329-.31.418-.514.077-.177.092-.387.002-.557a.968.968 0 0 0-.202-.239c-.203-.192-.714-.741-1.03-.62-.308.118-.471.905-.527 1.183M79.063 157.687c.054.046.136.003.187-.047.051-.049.11-.11.18-.096.046.01.078.051.116.08.14.104.34.034.49-.054.151-.089.316-.197.486-.156a1.729 1.729 0 0 1 .023-.322c.006-.032.014-.067.04-.086.022-.015.049-.015.074-.016l.231-.002c.033-.074-.027-.153-.083-.21l-.602-.616a.445.445 0 0 0-.183-.132c-.118-.034-.238.034-.347.09-.283.148-.554.115-.615.439-.024.131-.082 1.056.003 1.128"/>
        <path fill="#FFCBF8" d="M79.701 156.363c.128-.049.262-.102.345-.209.132-.168.098-.408.057-.618-.191-.078-.391.073-.57.178-.32.187-.83.175-.824.63.007.59.673.14.992.019"/>
        <path fill="#986978" d="M74.492 153.157l.401.227c.323.183.683.42.724.788.032.293-.17.579-.435.71-.265.132-.578.134-.87.08-.232-.042-.47-.126-.63-.3-.28-.303-.245-.77-.194-1.178.01-.083.029-.176.101-.217a.265.265 0 0 1 .137-.022l.898.015"/>
        <g>
            <g transform="translate(108.018 29.112)">
                <mask id="f" fill="#fff">
                    <use xlink:href="#e"/>
                </mask>
                <path fill="#2D4211" d="M2.815.22a1.52 1.52 0 0 1 1.389.859c.219.473.203 1.083.603 1.418.172.144.395.21.61.277a15.99 15.99 0 0 1 2.77 1.158c.184.098.375.208.473.392.08.15.085.327.088.496l.132 6.677c.009.418.008.867-.232 1.21-.223.318-.615.48-1 .534-.393.055-.8.012-1.173-.125-.394-.144-.743-.386-1.087-.626L.904 9.362C.638 9.176.361 8.98.216 8.69.055 8.37.08 7.992.11 7.635l.412-4.889C.616 1.643 1.55.256 2.815.221" mask="url(#f)"/>
            </g>
            <path fill="#2A1735" d="M110.96 51.455a27.108 27.108 0 0 1-.061 1.501c-.01.145-.03.306-.137.404-.105.096-.262.104-.405.105l-2.784.037c-.111.002-.23.002-.325-.056-.114-.069-.168-.202-.209-.328-.267-.808-.315-1.67-.36-2.518-.116-2.147-.224-4.294-.336-6.44-.11-2.113-.738-4.143-1.365-6.153-.705 5.087-.782 10.373-.858 15.504-.004.255-.014.53-.169.732-.169.22-.462.296-.734.355-.592.129-1.239.237-1.779-.036-.841-.424-1.013-1.525-1.08-2.462-.47-6.462-.938-12.925-1.407-19.387.028.39 7.106-.386 7.756-.49.84-.132 2.28-.765 3.016-.137.683.585.468 2.173.502 2.94l.413 9.142c.109 2.405.355 4.863.321 7.287"/>
            <path fill="#403542" d="M109.883 14.18c1.741 1.77 1.746 4.108 1.687 6.289l-.247 9.088-1.081-.031c-.244-1.237.05-2.5.241-3.748.327-2.127.338-4.28-.08-6.388a15.049 15.049 0 0 0-.96-3.087c-.445-1.02-1.23-1.932-1.707-2.928-.701-1.463 1.767.419 2.147.804"/>
            <path fill="#C6C6C6" d="M104.454 12.541c-.696-.002-1.403-.003-2.068.2-.65.197-1.227.579-1.77.987-.424.32-.844.672-1.092 1.14-.244.461-.301.995-.354 1.513-.438 4.292-.875 8.626-.362 12.91.042.357.092.715.094 1.075.003.703-.175 1.41-.06 2.104.018.113.047.23.126.311.107.112.277.131.432.143 3.146.235 6.312.2 9.451-.106.128-.013.26-.027.368-.094.138-.085.213-.24.28-.386 1.463-3.25 1.74-6.916 1.525-10.47-.046-.756-.113-1.512-.262-2.254a10.338 10.338 0 0 0-.712-2.215c-.306-.676-.682-1.317-.983-1.995a6.503 6.503 0 0 1-.402-1.132c-.054-.23-.02-.612-.145-.812-.647-1.027-3.047-.916-4.066-.919"/>
            <path fill="#F6FFFF" d="M108.023 13.77c-.071-.348-.203-.679-.437-.94-.17-.192-1.024-.143-1.28-.174-.515-.062-1.03-.126-1.548-.153a12.555 12.555 0 0 0-1.694.04c-.137.012-.291.036-.366.15a.338.338 0 0 0-.045.2c.007.17.08.328.15.482.294.64.565 1.29.937 1.883.193.308.357.639.535.955.127.229.526.701.535.956.81 1.447 1.619 2.894 2.43 4.34.033.06.077.098.141.102a13.93 13.93 0 0 0 .358-1.836c.08-.577-.004-1.142.028-1.728.069-1.243.393-2.469.324-3.72a3.892 3.892 0 0 0-.068-.557"/>
            <path fill="#DB8346" d="M111.587 54.952a.499.499 0 0 1-.093.28c-.075.09-.196.127-.31.158-.616.168-1.252.302-1.89.253-.636-.05-1.28-.303-1.683-.797-.528-.647-.627-1.69-.5-2.482 1.716-.18 4.409.532 4.476 2.588M105.76 55.946c.05.187.079.394-.007.567-.12.247-.423.337-.695.386-.37.067-.75.104-1.12.04-.394-.068-.76-.25-1.106-.448-.683-.391-1.348-.89-1.676-1.603-.214-.466-.267-.987-.317-1.498.105 1.076-1.154-1 2.93.496.938.343 1.728 1.078 1.99 2.06"/>
            <path fill="#000E0A" d="M112.836 18.482c.071-.08.146-.165.248-.195.131-.039.268.023.39.084l1.22.605-1.636 1.28a.327.327 0 0 1-.11.065c-.083.022-.166-.023-.24-.066-.271-.163-1.021-.462-.927-.835.077-.307.83-.69 1.055-.938"/>
            <path fill="#E0C3AD" d="M111.826 29.214c.189.297.233.663.244 1.014.004.133.003.268-.043.393a.741.741 0 0 1-.183.266c-.431.422-1.224.384-1.613-.076-.39-.46-.291-1.244.2-1.595.494-.354.97-.677 1.395-.002M112.664 19.406c.164-.01.332-.013.486.045.314.119.481.458.573.78.083.289.128.588.135.888a.563.563 0 0 1-.044.277c-.052.102-.157.166-.258.222a7.07 7.07 0 0 1-3.667.885c-.085-.645-.269-1.835.22-2.337.53-.544 1.842-.715 2.555-.76"/>
            <path fill="#403542" d="M101.666 17.16l.704 2.647c.074.278.152.563.325.793.383.51 1.103.6 1.742.622 1.951.065 3.911-.131 5.81-.58.069.55.104 1.103.107 1.656 0 .144-.004.298-.086.417-.09.131-.252.19-.404.24l-3.781 1.255c-.42.14-.842.28-1.278.355-1.789.312-3.644-.509-4.912-1.804a6.183 6.183 0 0 1-1.262-1.828c-.374-.855-.508-1.787-.558-2.711-.045-.831-.236-1.993.27-2.709.447-.635 1.112-.877 1.826-.559.926.414 1.256 1.296 1.497 2.205"/>
            <path fill="#E0C3AD" d="M107.829 11.277c-.228.13-.48.213-.704.35-.224.135-.427.342-.463.601-.047.34.198.647.449.881.25.236.537.472.615.806.13.558-.397 1.061-.93 1.277-.687.278-1.493.3-2.158-.027-.665-.326-1.155-1.022-1.152-1.76.001-.236.05-.47.083-.704.18-1.257-.085-2.529-.178-3.795-.046-.62.026-1.377.585-1.653a.932.932 0 0 1 .914.076c.242.163.38.472.697.18.123-.111.205-.264.336-.367.715-.557 1.982-1.015 2.775-.345.698.588.471 2.047.282 2.805-.167.668-.537 1.324-1.151 1.675"/>
            <g transform="translate(101.8 3.316)">
                <mask id="h" fill="#fff">
                    <use xlink:href="#g"/>
                </mask>
                <path fill="#7A3939" d="M7.143 1.162C6.207.21 4.733-.233 3.463.187c-.334.11-.648.275-.942.468C1.512 1.32.739 2.345.43 3.51.12 4.674.292 5.967.937 6.986c.157.247.352.488.621.606.27.118.627.076.8-.16.24-.33.017-.776-.128-1.156a2.818 2.818 0 0 1-.183-.901.778.778 0 0 1 .046-.343c.1-.23.415-.337.636-.215a.47.47 0 0 1 .154.651c.212.119.523.218.66.018.054-.08.057-.181.066-.276a1.717 1.717 0 0 1 .904-1.334 1.732 1.732 0 0 1 1.615.027c.359.201.637.53 1.009.708.24.115 1.073.356 1.261.127.172-.21-.041-1.076-.092-1.322-.17-.839-.558-1.64-1.163-2.254" mask="url(#h)"/>
            </g>
            <g transform="translate(103.182 6.412)">
                <mask id="j" fill="#fff">
                    <use xlink:href="#i"/>
                </mask>
                <path fill="#E8CBB8" d="M4.073 5.306c-.452.081-.91.132-1.369.15-.494.02-1.006 0-1.454-.21a1.827 1.827 0 0 1-.67-.539 3.456 3.456 0 0 1-.358-.628c-.397-.83-.763-1.686-.934-2.59C.346 1.051 1.212.264 2.133-.415c.921-.679 1.987-1.28 3.133-1.244.268.008.537.053.782.16.277.12.515.319.707.55.236.283.406.614.548.952.284.674.469 1.389.547 2.115.036.334.048.675-.023 1.004-.116.527-.44.982-.771 1.409-.346.446-.724.893-1.231 1.142a2.046 2.046 0 0 1-1.47.122.926.926 0 0 0-.174-.424c-.03-.04-.058-.073-.108-.065" mask="url(#j)"/>
            </g>
        </g>
        <g>
            <path fill="#0E0E09" d="M16.3 53.574a3.353 3.353 0 0 1-1.983.41c-.157-.017-.32-.048-.445-.145-.132-.103-.2-.265-.256-.422-.562-1.608-.26-3.895 1.97-3.211 1.201.368 1.94 2.677.715 3.368"/>
            <path fill="#9CA09C" d="M12.925 51.45c.943.062 1.888.074 2.832.036.266-.01.548-.03.764-.185.328-.236.388-.69.418-1.092.386-5.178.424-10.382.116-15.565-.008-.135-.019-.277-.096-.389-.11-.16-.321-.21-.513-.248l-2.718-.532c-.522-.102-1.06-.204-1.58-.096-1.625.34-1.018 2.358-.984 3.548.047 1.656.058 3.314.121 4.97.125 3.235.45 6.513 1.64 9.553"/>
            <path fill="#0E0E09" d="M9.956 54.821c-.597.337-1.3.482-1.983.41-.158-.017-.32-.048-.446-.145-.13-.103-.2-.265-.255-.422-.563-1.608-.26-3.895 1.97-3.21 1.2.367 1.94 2.677.714 3.367"/>
            <path fill="#9CA09C" d="M6.581 52.697c.942.062 1.888.074 2.832.037.265-.011.548-.03.764-.186.328-.236.388-.69.418-1.092.385-5.178.424-10.382.115-15.565-.008-.135-.018-.277-.095-.389-.11-.16-.321-.21-.513-.248l-2.719-.532c-.521-.102-1.06-.204-1.58-.096-1.624.34-1.017 2.358-.983 3.548.047 1.656.058 3.314.121 4.97.124 3.235.449 6.513 1.64 9.553"/>
            <path fill="#E8E3DD" d="M18.155 11.61c.928 2.06 1.854 4.147 2.294 6.363.4 2.011.39 4.078.379 6.128-.864-.222-1.922.412-2.605-.16-.266-.222-.382-.57-.484-.902a57.885 57.885 0 0 1-1.813-7.829c.831 3.716.975 7.553.873 11.358-.048 1.785.809 6.378.256 8.076-.553 1.697-2.567.51-4.127 1.388-2.59 1.46-5.822.645-8.667-.222-.241-.073-.497-.156-.657-.35-.147-.18-.186-.421-.22-.651l-.98-6.676c-.273-1.858-.546-3.731-.446-5.606.07-1.313.322-2.608.573-3.897l.87-4.461c.217-1.12.438-2.248.848-3.313.663-1.721 1.852-3.27 3.454-4.195 4.584-2.646 8.633.906 10.452 4.949"/>
            <path fill="#7E5C33" d="M16.537 25.648c.186.376.5.67.801.962a28.54 28.54 0 0 1 2.925 3.325c.305.406.6.82.95 1.188.457.48 1 .87 1.519 1.281.71.564 1.384 1.175 2.014 1.829l-.024-1.882a1.486 1.486 0 0 0-.055-.462c-.063-.186-.197-.338-.328-.485l-3.378-3.81c-.765-.863-1.552-1.738-2.514-2.389-.396-.267-2.04-.856-2.04-.856s-.122.795.13 1.3"/>
            <path fill="#170C05" d="M32.037 61.227c-.013.416-.035.857-.268 1.202-.359.53-1.08.653-1.72.697-1.1.077-2.15-.191-2.506-1.31l-.527-1.662c-.262-.825-.526-1.663-.553-2.528-.037-1.17.228-2.327.225-3.508-.003-1.283.02-2.565.072-3.847.011-.272.03-.563.192-.782.135-.183.35-.288.567-.36 6.175-2.058 4.595 9.593 4.518 12.098"/>
            <path fill="#564636" d="M46.565 52.654L25.56 33.45l-11.539 1.724 16.734 19.51 15.191-1.72z"/>
            <path fill="#564636" d="M46.577 52.583L19.012 24.51l-2.604-.16 29.037 28.236z"/>
            <path fill="#BF738C" d="M31.065 33.565l.009 2.046c0 .247-.013.527-.2.688a.834.834 0 0 1-.32.146c-1.558.45-3.224.528-4.818.224-.635-.121-1.35-.385-1.552-.997-.216-.655 0-1.89 0-1.89"/>
            <path fill="#BF738C" d="M31.065 31.922l.009 2.046c0 .247-.013.527-.2.688a.83.83 0 0 1-.32.146c-1.558.45-3.224.528-4.818.224-.635-.122-1.35-.385-1.552-.997-.216-.655 0-1.89 0-1.89"/>
            <path fill="#BF738C" d="M31.065 30.031l.009 2.046c0 .247-.013.528-.2.689a.839.839 0 0 1-.32.146c-1.558.45-3.224.527-4.818.223-.635-.12-1.35-.385-1.552-.997-.216-.655.277-1.35.195-2.035M31.065 35.514l.009 2.046c0 .247-.013.527-.2.688a.839.839 0 0 1-.32.146c-1.558.45-3.224.528-4.818.224-.635-.121-1.35-.385-1.552-.997-.216-.655 0-1.89 0-1.89"/>
            <path fill="#BEBEB5" d="M30.446 37.97h-.322c-.032-1.935-.064-5.27-.096-7.206.219-.064.357-.165.49.005.094.122.01.689.011.85.006.555.006 1.11.002 1.665-.003.276-.042 4.687-.085 4.687"/>
            <path fill="#7C7F7C" d="M30.334 30.427c.206.333.418.684.443 1.075a.177.177 0 0 1-.016.102c-.034.058-.118.063-.186.048a.668.668 0 0 1-.454-.404.93.93 0 0 1-.011-.62c.039-.124.154-.265.273-.21"/>
            <path fill="#A05872" d="M24.291 30.086c0 .522 1.53.946 3.417.946 1.887 0 3.417-.424 3.417-.946 0-.523-1.53-.946-3.417-.946-1.887 0-3.417.423-3.417.946"/>
            <path fill="#7C7F7C" d="M37.94 39.519l.009 2.046c0 .247-.012.527-.2.688a.839.839 0 0 1-.32.146c-1.557.45-3.223.528-4.817.224-.636-.121-1.351-.385-1.553-.997-.216-.655 0-1.89 0-1.89"/>
            <path fill="#BEBEB5" d="M37.94 37.875l.009 2.046c0 .248-.012.528-.2.689a.834.834 0 0 1-.32.146c-1.557.45-3.223.528-4.817.224-.636-.122-1.351-.385-1.553-.997-.216-.656 0-1.891 0-1.891"/>
            <path fill="#7C7F7C" d="M37.94 35.985l.009 2.046c0 .247-.012.527-.2.688a.83.83 0 0 1-.32.146c-1.557.45-3.223.528-4.817.224-.636-.121-1.351-.385-1.553-.997-.216-.655.278-1.35.196-2.035"/>
            <path fill="#BEBEB5" d="M31.167 36.04c0 .522 1.53.946 3.417.946 1.887 0 3.417-.424 3.417-.946 0-.523-1.53-.947-3.417-.947-1.887 0-3.417.424-3.417.947"/>
            <path fill="#7C7F7C" d="M41.563 47.466l.008 2.046c.001.247-.012.527-.2.688a.834.834 0 0 1-.319.146c-1.558.45-3.224.528-4.818.224-.636-.121-1.351-.385-1.553-.997-.216-.655 0-1.89 0-1.89"/>
            <path fill="#BEBEB5" d="M41.563 45.517l.008 2.046c.001.247-.012.527-.2.688a.834.834 0 0 1-.319.146 10.4 10.4 0 0 1-4.818.224c-.636-.121-1.351-.385-1.553-.997-.216-.655 0-1.89 0-1.89"/>
            <path fill="#7C7F7C" d="M41.563 43.874l.008 2.046c.001.247-.012.527-.2.688a.839.839 0 0 1-.319.146c-1.558.45-3.224.528-4.818.224-.636-.121-1.351-.385-1.553-.997-.216-.655 0-1.89 0-1.89"/>
            <path fill="#BEBEB5" d="M41.563 41.983l.008 2.046c.001.247-.012.528-.2.689a.834.834 0 0 1-.319.146c-1.558.45-3.224.528-4.818.223-.636-.121-1.351-.384-1.553-.997-.216-.655.278-1.35.196-2.035"/>
            <path fill="#7C7F7C" d="M34.789 42.038c0 .523 1.53.946 3.417.946 1.887 0 3.417-.423 3.417-.946 0-.523-1.53-.947-3.417-.947-1.887 0-3.417.424-3.417.947"/>
            <path fill="#E1846A" d="M36.28 41.884l.008 2.046c0 .246-.013.527-.2.688a.834.834 0 0 1-.32.146c-1.558.45-3.224.528-4.818.223-.635-.121-1.35-.384-1.552-.997-.216-.655 0-1.89 0-1.89"/>
            <path fill="#E1846A" d="M36.28 40.24l.008 2.046c0 .247-.013.527-.2.688a.83.83 0 0 1-.32.146c-1.558.45-3.224.528-4.818.224-.635-.121-1.35-.385-1.552-.997-.216-.655 0-1.89 0-1.89"/>
            <path fill="#E1846A" d="M36.28 38.35l.008 2.046c0 .247-.013.527-.2.688a.839.839 0 0 1-.32.146c-1.558.45-3.224.528-4.818.223-.635-.12-1.35-.384-1.552-.996-.216-.655.277-1.351.195-2.036M36.28 43.832l.008 2.046c0 .248-.013.528-.2.689a.839.839 0 0 1-.32.146c-1.558.45-3.224.527-4.818.223-.635-.12-1.35-.385-1.552-.997-.216-.655 0-1.89 0-1.89"/>
            <path fill="#BEBEB5" d="M34.077 39.315c-.107 0-.207-.048-.309-.065-.032 1.936-.086 5.804-.119 7.74.219.064.357.165.49-.005.094-.122.01-.69.011-.85.006-.555.007-1.11.002-1.666-.002-.276-.032-5.154-.075-5.154"/>
            <path fill="#7C7F7C" d="M35.549 38.745c.205.333.417.684.442 1.075a.177.177 0 0 1-.016.102c-.034.059-.118.063-.186.048a.668.668 0 0 1-.454-.404.93.93 0 0 1-.011-.62c.039-.124.154-.265.273-.21"/>
            <path fill="#C16752" d="M29.505 38.404c0 .523 1.53.947 3.417.947 1.887 0 3.417-.424 3.417-.947 0-.522-1.53-.946-3.417-.946-1.887 0-3.417.424-3.417.946"/>
            <path fill="#7C7F7C" d="M22.731 38.693l.008 2.046c.001.248-.012.528-.2.689a.839.839 0 0 1-.319.146c-1.558.45-3.224.528-4.818.223-.635-.12-1.35-.384-1.552-.997-.216-.655 0-1.89 0-1.89"/>
            <path fill="#BEBEB5" d="M22.731 36.745l.008 2.046c.001.246-.012.527-.2.688a.834.834 0 0 1-.319.146c-1.558.45-3.224.528-4.818.223-.635-.12-1.35-.384-1.552-.997-.216-.655 0-1.89 0-1.89"/>
            <path fill="#7C7F7C" d="M22.731 35.101l.008 2.046c.001.247-.012.527-.2.688a.83.83 0 0 1-.319.146c-1.558.45-3.224.528-4.818.224-.635-.121-1.35-.385-1.552-.997-.216-.655 0-1.89 0-1.89"/>
            <path fill="#BEBEB5" d="M22.731 33.21l.008 2.047c.001.247-.012.527-.2.688a.839.839 0 0 1-.319.146c-1.558.45-3.224.528-4.818.224-.635-.121-1.35-.385-1.552-.997-.216-.655.277-1.351.195-2.036"/>
            <path fill="#7C7F7C" d="M15.957 33.265c0 .523 1.53.947 3.417.947 1.887 0 3.417-.424 3.417-.947 0-.522-1.53-.946-3.417-.946-1.887 0-3.417.424-3.417.946"/>
            <path fill="#BEBEB5" d="M29.051 41.88l.008 2.047c.001.247-.012.527-.2.688a.839.839 0 0 1-.319.146c-1.558.45-3.224.528-4.818.224-.635-.122-1.35-.385-1.553-.997-.216-.655 0-1.891 0-1.891"/>
            <path fill="#7C7F7C" d="M29.607 41.592l.008 2.046c.001.247-.012.527-.2.688a.834.834 0 0 1-.32.146c-1.558.45-3.223.528-4.817.224-.636-.122-1.351-.385-1.553-.998-.216-.655 0-1.89 0-1.89"/>
            <path fill="#BEBEB5" d="M29.607 39.948l.008 2.046c.001.247-.012.528-.2.689a.83.83 0 0 1-.32.146c-1.558.45-3.223.528-4.817.223-.636-.121-1.351-.384-1.553-.997-.216-.655 0-1.89 0-1.89"/>
            <path fill="#7C7F7C" d="M29.607 38.058l.008 2.046c.001.247-.012.527-.2.688a.839.839 0 0 1-.32.146 10.41 10.41 0 0 1-4.817.224c-.636-.121-1.351-.385-1.553-.997-.216-.655.277-1.35.196-2.036"/>
            <path fill="#BEBEB5" d="M22.833 38.112c0 .523 1.53.947 3.417.947 1.887 0 3.417-.424 3.417-.947 0-.522-1.53-.946-3.417-.946-1.887 0-3.417.424-3.417.946M27.95 45.897l.009 2.046c0 .247-.012.528-.2.689a.834.834 0 0 1-.32.146c-1.558.45-3.224.527-4.817.223-.636-.121-1.351-.384-1.553-.997-.216-.655 0-1.89 0-1.89"/>
            <path fill="#7C7F7C" d="M27.95 43.948l.009 2.046c0 .247-.012.527-.2.689a.83.83 0 0 1-.32.146c-1.558.45-3.224.528-4.817.223-.636-.121-1.351-.384-1.553-.997-.216-.655 0-1.89 0-1.89"/>
            <path fill="#BEBEB5" d="M27.95 42.305l.009 2.046c0 .247-.012.528-.2.688a.83.83 0 0 1-.32.146 10.4 10.4 0 0 1-4.817.224c-.636-.121-1.351-.385-1.553-.997-.216-.655 0-1.89 0-1.89"/>
            <path fill="#7C7F7C" d="M27.95 40.415l.009 2.046c0 .247-.012.527-.2.688a.834.834 0 0 1-.32.146c-1.558.45-3.224.528-4.817.224-.636-.122-1.351-.385-1.553-.997-.216-.655.277-1.35.196-2.036"/>
            <path fill="#BEBEB5" d="M21.177 40.47c0 .522 1.53.945 3.416.945 1.888 0 3.418-.423 3.418-.946 0-.522-1.53-.946-3.418-.946-1.886 0-3.416.424-3.416.946M33.229 49.539l.008 2.046c.001.247-.012.527-.2.688a.834.834 0 0 1-.319.146 10.4 10.4 0 0 1-4.818.224c-.636-.121-1.351-.385-1.553-.997-.216-.655 0-1.89 0-1.89"/>
            <path fill="#7C7F7C" d="M33.229 47.59l.008 2.046c.001.247-.012.527-.2.688a.834.834 0 0 1-.319.146c-1.558.45-3.224.528-4.818.224-.636-.121-1.351-.385-1.553-.997-.216-.655 0-1.891 0-1.891"/>
            <path fill="#BEBEB5" d="M33.229 45.947l.008 2.046c.001.247-.012.527-.2.688a.834.834 0 0 1-.319.146c-1.558.45-3.224.528-4.818.224-.636-.122-1.351-.385-1.553-.997-.216-.656 0-1.89 0-1.89"/>
            <path fill="#7C7F7C" d="M33.229 44.056l.008 2.046c.001.247-.012.527-.2.689a.839.839 0 0 1-.319.146c-1.558.45-3.224.527-4.818.223-.636-.121-1.351-.385-1.553-.997-.216-.655.278-1.35.196-2.035"/>
            <path fill="#BEBEB5" d="M26.455 44.11c0 .523 1.53.947 3.417.947 1.887 0 3.417-.424 3.417-.946 0-.523-1.53-.947-3.417-.947-1.887 0-3.417.424-3.417.947M39.549 52.726l.008 2.046c0 .247-.012.527-.2.688a.839.839 0 0 1-.32.146c-1.558.45-3.224.528-4.817.224-.636-.121-1.351-.385-1.553-.997-.216-.655 0-1.89 0-1.89"/>
            <path fill="#7C7F7C" d="M39.549 50.777l.008 2.046c0 .247-.012.527-.2.688a.834.834 0 0 1-.32.146c-1.558.45-3.224.528-4.817.224-.636-.121-1.351-.385-1.553-.997-.216-.655 0-1.89 0-1.89"/>
            <path fill="#BEBEB5" d="M39.549 49.134l.008 2.046c0 .247-.012.527-.2.688a.834.834 0 0 1-.32.146c-1.558.45-3.224.528-4.817.224-.636-.122-1.351-.385-1.553-.997-.216-.655 0-1.89 0-1.89"/>
            <path fill="#7C7F7C" d="M39.549 47.243l.008 2.046c0 .247-.012.528-.2.689a.839.839 0 0 1-.32.146c-1.558.45-3.224.527-4.817.223-.636-.12-1.351-.385-1.553-.997-.216-.655.277-1.35.195-2.035"/>
            <path fill="#BEBEB5" d="M32.775 47.298c0 .522 1.53.946 3.417.946 1.887 0 3.417-.424 3.417-.946 0-.523-1.53-.946-3.417-.946-1.887 0-3.417.423-3.417.946"/>
            <path fill="#170C05" d="M46.535 61.388c-.588 1.052-1.922 1.796-3.03 1.315-1.118-.487-1.46-1.874-1.661-3.073l-.623-3.709c-.086-.51 5.122-1.148 5.805-.139.776 1.145.11 4.528-.491 5.606"/>
            <path fill="#BAA68C" d="M11.768 10.287c-.54-.235-1.095-.482-1.495-.912-.487-.524-.683-1.264-.681-1.978.001-.713.181-1.413.36-2.104 1.196.066 2.739-.042 3.073 1.283.111.441-.513 4.037-1.257 3.711"/>
            <path fill="#CCBA9F" d="M13.997 3c.13.983.257 2-.016 2.953-.274.953-1.06 1.835-2.053 1.9-1.171.076-2.095-.929-2.826-1.844-.266-.333-.534-.67-.715-1.055-.403-.858-.33-1.852-.25-2.796"/>
            <path fill="#1A2020" d="M9.956 2.563l.175-.406c-.387.871-.897 1.847-1.83 2.059a3.034 3.034 0 0 1-.17-2.323c.035-.104.08-.212.167-.279.108-.083.255-.088.392-.087.39.003.78.017 1.17.043"/>
            <path fill="#879993" d="M13.987 3.07a22.154 22.154 0 0 0-.32-2.255c-.033-.173-.074-.357-.198-.484-.138-.142-.348-.182-.544-.21a12.025 12.025 0 0 0-3.501.014c-.282.042-.576.101-.795.283-.218.181-.329.459-.41.73-.143.477-.269 1.011-.17 1.487 1.056-.375 1.814-.317 2.901.008.197.059 3.08.915 3.037.427"/>
            <g transform="translate(0 7.597)">
                <mask id="l" fill="#fff">
                    <use xlink:href="#k"/>
                </mask>
                <path fill="#9CA09C" d="M4.921.894c-.979.59-1.727 1.497-2.35 2.454C.408 6.66-.448 10.795.222 14.689c.102.593.25 1.205.639 1.664.76.899 2.123.906 3.302.84.08-.918-.288-1.806-.533-2.695-.89-3.225-.105-6.862 2.04-9.437.75-.901 2.814-2.455 2.652-3.776-.2-1.628-2.51-.93-3.402-.391" mask="url(#l)"/>
            </g>
            <path fill="#BF738C" d="M8.442 10.67c.066.485.132.973.122 1.462-.01.487-.095.969-.18 1.448l-.35 1.988a5.79 5.79 0 0 0-3.365.468 10.465 10.465 0 0 0-.997-6.28c-.043-.084-.087-.171-.087-.265.001-.132.09-.245.177-.345.57-.646 2.037-2 3-1.873 1.308.173 1.546 2.41 1.68 3.397"/>
            <path fill="#7E5C33" d="M43.904 56.222c.679.01 2.55-2.016 2.55-2.016l2.203 2.806s.726.265 1.026.515l3.682 3.068c.192.16-.773 2.84-.979 3.068-.755.837-1.248-.156-1.941-.857-1.608-1.625-5.012-4.886-6.541-6.584"/>
            <path fill="#A18A65" d="M32.864 54.492c-1.107.02-3.307.264-3.307.264l1.207 5.346 15.959-.98-.27-4.916s-2.728.084-3.93.106l-9.659.18"/>
            <path fill="#564636" d="M52.39 61.97c.033-.215.056-.438 0-.648-.081-.293-.306-.52-.52-.737-2.029-2.042-3.524-4.445-5.548-6.602-2.023-2.156-2.288-3.787-1.548-3.735 1.516 1.612 6.801 7.116 8.318 8.727.236.252.479.512.6.836.084.227.103.472.119.714.103 1.556.523 4.453-2.006 3.575.216-.707.475-1.388.586-2.13"/>
            <path fill="#1F9995" d="M39.04 48.01l-.008 2.046c-.001.248.012.528.2.689.09.076.206.113.319.146 1.558.45 3.224.528 4.818.223.636-.12 1.351-.384 1.553-.996.216-.656 0-1.891 0-1.891"/>
            <path fill="#1F9995" d="M39.04 46.367l-.008 2.046c-.001.247.012.528.2.689.09.076.206.113.319.146 1.558.45 3.224.527 4.818.223.636-.121 1.351-.385 1.553-.997.216-.655 0-1.89 0-1.89"/>
            <path fill="#1F9995" d="M39.04 44.477l-.008 2.046c-.001.247.012.527.2.688.09.077.206.113.319.146 1.558.45 3.224.528 4.818.224.636-.122 1.351-.385 1.553-.997.216-.655-.278-1.35-.196-2.036M39.04 49.96l-.008 2.046c-.001.246.012.527.2.688.09.076.206.113.319.146 1.558.45 3.224.528 4.818.223.636-.12 1.351-.384 1.553-.997.216-.655 0-1.89 0-1.89"/>
            <path fill="#BEBEB5" d="M39.65 52.884c.107 0 .207.048.308.065.033-1.936.087-5.804.12-7.74-.22-.064-.358-.165-.49.005-.094.122-.01.69-.012.85a94.22 94.22 0 0 0-.001 1.666c.002.276.032 5.154.074 5.154"/>
            <path fill="#7C7F7C" d="M39.77 44.872c-.205.334-.417.684-.442 1.075a.179.179 0 0 0 .016.102c.035.059.119.063.186.048a.669.669 0 0 0 .455-.404.93.93 0 0 0 .01-.62c-.039-.124-.154-.265-.273-.21"/>
            <path fill="#217A76" d="M45.814 44.531c0 .523-1.53.947-3.417.947-1.887 0-3.417-.424-3.417-.947 0-.522 1.53-.946 3.417-.946 1.887 0 3.417.424 3.417.946"/>
            <path fill="#8C784A" d="M30.764 60.102L12.616 41.626l.313-5.635 17.826 18.694z"/>
            <path fill="#8C784A" d="M30.755 54.685l-.194-2.349c3.065-.276 6.348.258 9.423.157 2.632-.087 6.64-.332 6.64-.332l.012 1.981s-10.122.59-15.881.543"/>
            <path fill="#564636" d="M20.126 41.481c.67.724 1.34 1.449 2.056 2.127 1.072 1.014 2.244 1.918 3.335 2.912 4.129 3.76 11.068 12.17 15.079 16.055-.7-.026-1.379.327-2.077.271-.898-.071-5.66-4.248-6.241-4.932-.89-1.046-1.728-2.133-2.578-3.211A181.57 181.57 0 0 0 9.487 32.976c-2.328-2.123-5.274-4.7-6.47-7.71 1.515-.608 1.714-.445 2.81.74l3.457 3.742 6.974 7.547 3.868 4.186"/>
            <g transform="translate(2.148 25.013)">
                <mask id="n" fill="#fff">
                    <use xlink:href="#m"/>
                </mask>
                <path fill="#7E5C33" d="M.87.253L.1 1.866c.51.898 1.292 1.605 2.051 2.306 5.406 4.992 30.277 32.76 33.467 36.773.219-.714.43-1.654.65-2.368.1-.328.2-.682.093-1.008-.075-.227-.242-.409-.404-.584C25.665 25.84 12.667 9.805.87.253" mask="url(#n)"/>
            </g>
            <path fill="#BAA68C" d="M20.833 24.028c.159.724.287 1.574-.21 2.126-.324.357-.826.482-1.297.589-.12.027-.248.054-.364.014a.673.673 0 0 1-.238-.17c-.532-.516-1.103-1.118-1.096-1.856.003-.321.149-.668.444-.796M4.393 24.442c.158.724.286 1.575-.21 2.126-.324.358-.826.482-1.297.589-.12.027-.248.054-.365.015a.673.673 0 0 1-.237-.17c-.533-.516-1.103-1.118-1.096-1.857.003-.321.149-.667.444-.796"/>
            <path fill="#564636" d="M40.494 65.775a12.376 12.376 0 0 1-.05-3.147c-.707-.45-1.576-.543-2.41-.625-.004.613-.15 1.21-.28 1.806-.093.421-.414 1.271-.195 1.68.32.594 2.913.13 2.935.286"/>
        </g>
    </g>
</svg>
