<svg xmlns="http://www.w3.org/2000/svg" xmlns:xlink="http://www.w3.org/1999/xlink" width="27" height="58" viewBox="0 0 27 58">
    <defs>
        <path id="a" d="M.163.282h6.529V3.23H.162z"/>
        <path id="c" d="M.214.049H5.02V6.51H.214z"/>
        <path id="e" d="M.266.07H10.89v9.979H.266z"/>
        <path id="g" d="M0 .205h5.678v4.056H0z"/>
    </defs>
    <g fill="none" fill-rule="evenodd">
        <path fill="#AD7984" d="M22.432 26.941c0 .05 0 .103-.027.145-.028.047-.082.072-.134.087-.306.09-.626-.06-.907-.21-.377-.2-.766-.422-.997-.78-.171-.268-.238-.588-.278-.902a6.07 6.07 0 0 1-.01-1.429c.043-.383.125-.77.315-1.105.482-.846 1.795-1.051 2.008.059.249 1.295.03 2.818.03 4.135"/>
        <path fill="#DDC9BC" d="M11.156 47.35c.062.221.117.487-.038.657-.098.108-.253.14-.397.168l-.478.09a.574.574 0 0 1-.277.006c-.133-.043-.213-.174-.28-.297-.457-.846-.8-1.749-1.14-2.649-.651-1.72-1.298-3.442-1.872-5.19a64.33 64.33 0 0 1-1.07-3.615c.636-.196 1.245.526 1.904.443.312-.04.541-.248.808-.388.408-.213.467-.246.588.186.23.826.267 1.754.416 2.6a80.79 80.79 0 0 0 1.836 7.99"/>
        <path fill="#F0DDCE" d="M7.693 40.95c-.47 1.17-1.154 2.24-1.841 3.297-.514.79-1.035 1.581-1.677 2.271-.157.17-.323.334-.443.53-.176.288-.246.627-.389.932-.143.305-.402.597-.739.617-.204.013-.399-.077-.583-.164-.318-.151-.688-.384-.663-.735.009-.126.072-.242.134-.354l2.645-4.771c.358-.644.721-1.306.835-2.034.1-.643 0-1.3-.125-1.94-.168-.87-.38-1.732-.667-2.57l2.934.128c.607.027 1.43.018 1.542.788.073.505-.277 1.09-.371 1.577-.162.836-.271 1.629-.592 2.428M9.857 5.585c.122.5.11 1.019.097 1.532-.007.298-.016.601-.111.884a2.307 2.307 0 0 1-.401.684 5.093 5.093 0 0 1-2.973 1.808c-.81-.222-1.742-.553-1.995-1.353-.216-.683.175-1.403.617-1.967a9.094 9.094 0 0 1 2.513-2.197c1.1-.65 1.885-.897 2.253.61"/>
        <g transform="translate(20.176 53.492)">
            <mask id="b" fill="#fff">
                <use xlink:href="#a"/>
            </mask>
            <path fill="#0D172C" d="M5.361.347c.52.013 1.169.126 1.307.626.067.242-.019.498-.11.733-.104.272-.224.553-.45.738-.263.214-.619.26-.955.3l-4.124.476C.93 3.23.825 3.24.74 3.19.66 3.144.616 3.053.579 2.967.381 2.5-.04 1.483.28 1.024.461.764 1.45.548 1.772.465 2.915.172 4.192.31 5.362.347" mask="url(#b)"/>
        </g>
        <g transform="translate(12.165 51.124)">
            <mask id="d" fill="#fff">
                <use xlink:href="#c"/>
            </mask>
            <path fill="#0D172C" d="M4.237 4.339c.226.321.518.602.68.96.162.357.153.84-.16 1.078-.406.309-.982.023-1.395-.274-1.026-.74-2.005-1.574-2.72-2.616C.405 3.139.19 2.743.217 2.324c.022-.362.22-.687.412-.995L1.3.252c.067-.108.17-.23.293-.198.06.016.104.066.143.114 1.105 1.344 1.652 2.688 2.501 4.17" mask="url(#d)"/>
        </g>
        <path fill="#1D2D33" d="M16.57 39.05c.44.729 1.043 1.36 1.386 2.139.267.604.363 1.268.456 1.922l1.635 11.443a5.303 5.303 0 0 0 2.081-.57c-.099-3.884-.2-7.795-1.013-11.595-.66-3.087-1.81-6.26-3.77-8.777-1.23-1.577-1.744-1.02-1.777.761-.029 1.612.15 3.271 1.002 4.678"/>
        <path fill="#114759" d="M23.367 42.564c-.065.824-.168 1.671-.577 2.39-.478.839-1.315 1.4-2.089 1.979a24.107 24.107 0 0 0-5.418 5.634c-.723.367-1.596-.425-1.629-1.233-.032-.809.465-1.531.941-2.186l2.373-3.265c.785-1.081 1.579-2.176 2.082-3.413.423-1.038.623-2.248.147-3.263-.333-.709-.951-1.234-1.481-1.812-2.238-2.435-2.965-6.148-1.812-9.245-.097.258 6.424 4.053 6.872 4.914.615 1.183.536 3.276.622 4.59a34.253 34.253 0 0 1-.031 4.91"/>
        <path fill="#EADEC7" d="M13.858 27.225c.057.57.149 1.15.422 1.656.274.504.759.926 1.33.986a10.291 10.291 0 0 1-.042-4.267c.215-1.1 1.037-2.63-.302-3.241-2.57-1.172-1.523 3.713-1.408 4.866"/>
        <path fill="#AD7984" d="M23.257 15.893c.887.93 1.771 2.03 1.77 3.315-.001.366-.082.744-.298 1.04-.212.292-.534.481-.84.671-.94.582-1.86 1.3-2.298 2.313-.438 1.012-.224 2.375.726 2.939.407.242.942.35 1.172.763.15.266.126.592.1.896-.184 2.057-.368 4.113-.55 6.17a20.364 20.364 0 0 0-6.998-4.357c-.5-.184-1.057-.393-1.28-.873-.126-.27-.12-.58-.11-.877.016-.507.557-5.15.307-5.293-.667-.379-.593-1.337-.505-2.098.18-1.557.045-3.158.45-4.672.133-.493.324-.977.629-1.386.586-.788 1.555-1.238 2.533-1.34 2.513-.263 3.622 1.141 5.192 2.789"/>
        <path fill="#EADEC7" d="M19.429 9.848c.037-.122.065-.233.081-.325.108-.574.083-1.164.133-1.747a6.774 6.774 0 0 1 .322-1.557c.052-.154.11-.31.21-.438.123-.159.299-.267.477-.359.934-.483 1.898-.5 2.923-.508.206 0 .425 0 .603.105.21.12.32.356.413.579.683 1.648 1.726 4.443.381 5.96-.567.64-1.646.525-2.294 1.083-1.263 1.086-1.098 3.695-3.658 2.718-1.606-.614-1.117-2.976-.737-4.222.573.078.97-.717 1.146-1.289"/>
        <path fill="#4D5763" d="M24.865 4.147c-.03-.46-.25-.936-.66-1.15-.283-.149-.616-.157-.935-.162l-4.164-.068c-.207-.003-.419-.006-.614.061-.44.151-.688.606-.857 1.037-.668 1.691-.758 3.557-.626 5.37.057.784.222 1.676.898 2.081.496.297 1.173.22 1.624-.14.452-.36.676-.967.624-1.541-.046-.512-.289-.99-.346-1.5-.058-.51.168-1.13.674-1.23.17-.035.352-.005.514-.065.127-.048.227-.145.329-.235.631-.556 1.386-.817 2.208-.924.241-.032.781.003.987-.15.321-.242.37-.985.344-1.384"/>
        <path fill="#8A86AD" d="M8.856 14.706c.16 1.941-1.737 3.639-1.491 5.571.193 1.523 1.629 2.552 2.327 3.92.709 1.387.616 3.026.579 4.583-.068 2.851.11 5.708.53 8.529-2.102.285-4.259.16-6.313-.367-1.147-.294-2.383-.822-2.832-1.915-.207-.504-.215-1.064-.22-1.609l-.064-6.457c-.004-.417-.006-.847.148-1.235.177-.447.544-.794.76-1.224.329-.66.271-1.437.206-2.17l-.58-6.538c-.102-1.148-.16-2.437.599-3.306 1.728-1.979 6.144-.292 6.351 2.218"/>
        <path fill="#F0DDCE" d="M8.994 15.708c.575.502.727 1.325.792 2.084.14 1.613.048 3.245.264 4.85.217 1.605.792 3.241 2.012 4.31.802.703 1.953 1.322 1.95 2.386-.001.293-.117.603-.365.759-.444.28-1.013-.047-1.417-.382-1.043-.867-1.97-1.863-2.893-2.856-.501-.54-1.009-1.088-1.356-1.738-.329-.616-.502-1.3-.655-1.982-.41-1.831-1.11-4.235-.892-6.12.134-1.161 1.289-2.423 2.56-1.311M.69 16.126c-.134.21-.147.472-.156.72-.017.455-.032.91-.047 1.364-.045 1.314-.078 2.687.49 3.873.328.685.922 1.315 1.679 1.393.075.008-.517-4.584-.558-4.991-.056-.56.257-2.057.035-2.486-.243-.468-1.17-.302-1.443.127"/>
        <path fill="#4C3E25" d="M6.421 12.218c-.008.96-.016 1.925-.165 2.874a9.758 9.758 0 0 1-.535 1.993c-.27.7-.653 1.403-1.3 1.784s-1.611.303-2.005-.335c-.127-.206-.185-.446-.228-.684-.264-1.477-.016-2.992-.002-4.492.008-.87-.062-1.748.097-2.602.158-.855.59-1.712 1.351-2.133.562-.31 2.508-.722 2.81.078.156.416-.003 1.148-.007 1.586l-.016 1.93"/>
        <g transform="translate(0 .226)">
            <mask id="f" fill="#fff">
                <use xlink:href="#e"/>
            </mask>
            <path fill="#116B60" d="M10.88 2.318c.081 1.304-.396 2.605-1.157 3.67-.76 1.064-1.79 1.913-2.884 2.633-1.569 1.032-3.53 1.841-5.296 1.2C.925 9.594.321 9.113.27 8.458c-.048-.625.413-1.162.844-1.619C2.858 4.993 4.62 3.135 6.7 1.655 7.34 1.199 8.263.088 9.092.07c1.162-.027 1.727 1.29 1.788 2.248" mask="url(#f)"/>
        </g>
        <path fill="#141311" d="M6.567.844c-.056-.09-.115-.184-.21-.231a.511.511 0 0 0-.306-.026c-.38.056-.736.218-1.085.378-1.262.578-2.588 1.21-3.359 2.362-.064.096-.126.201-.124.317.002.126.079.237.153.339l1.817 2.513c.028.04.06.081.104.1.047.02.102.012.152.003a6.222 6.222 0 0 0 3.38-1.827c.419-.437 1.007-1.041.9-1.631-.125-.7-1.042-1.683-1.422-2.297"/>
        <g transform="translate(0 47.277)">
            <mask id="h" fill="#fff">
                <use xlink:href="#g"/>
            </mask>
            <path fill="#41314C" d="M3.806 2.239c.163.299.306.654.623.78.353.139.814-.062 1.102.186.274.235.137.725-.172.912-.309.188-.7.158-1.056.098A8.249 8.249 0 0 1 .526 2.516c-.217-.175-.437-.378-.504-.649-.054-.215-.002-.444.082-.65C.289.756.66.345 1.144.234c.654-.15.88.3 1.283.667.507.463 1.032.697 1.38 1.337" mask="url(#h)"/>
        </g>
        <path fill="#41314C" d="M12.738 47.345c.248-.093.497-.197.7-.367.166-.14.308-.325.517-.38.043-.012.091-.017.127.01.032.023.044.065.053.103.104.43.144.874.117 1.314a1.001 1.001 0 0 1-.074.365c-.1.215-.323.342-.534.451a16.4 16.4 0 0 1-1.366.629c-.394.16-.8.305-1.223.344-.423.039-.87-.04-1.212-.293a.458.458 0 0 1-.152-.166.526.526 0 0 1-.038-.183c-.032-.387-.136-.824.192-1.068.188-.14.544-.168.773-.212.724-.14 1.425-.288 2.12-.547"/>
        <path fill="#EADEC7" d="M25.595 34.902a.78.78 0 0 1-.044.28c-.129.31-.602.324-.858.107-.256-.218-.348-.566-.428-.891-.473-1.923-.978-3.858-1.883-5.62-.122-.237-.252-.474-.305-.735a2.627 2.627 0 0 1-.029-.598c.044-1.636-.047-3.34.133-4.967.08-.728 1.21-2.002 2.148-1.498.72.388.422 3.133.492 3.912.142 1.582.35 3.157.514 4.738.182 1.75.317 3.51.26 5.272"/>
        <path fill="#AD7984" d="M25.1 23.232a.436.436 0 0 1-.019.21c-.045.103-.159.153-.263.194-.765.3-1.536.585-2.312.853-.153.053-.335.101-.466.007a.499.499 0 0 1-.142-.2 10.21 10.21 0 0 1-.701-1.924.89.89 0 0 1-.039-.282c.02-.255.236-.443.44-.596.436-.326.898-.63 1.24-1.053.263-.325.45-.713.756-.997.223-.206.672-.432.979-.274.36.187.264.646.293 1.022l.234 3.04"/>
    </g>
</svg>
