<svg xmlns="http://www.w3.org/2000/svg" xmlns:xlink="http://www.w3.org/1999/xlink" width="24" height="55" viewBox="0 0 24 55">
    <defs>
        <path id="a" d="M.08.241H11.45v17.748H.08z"/>
    </defs>
    <g fill="none" fill-rule="evenodd">
        <path fill="#F7E0C4" d="M17.113 13.11c-.044-.002-.09-.004-.128.018-.045.026-.066.079-.083.129a2.182 2.182 0 0 0-.033 1.271.332.332 0 0 0 .074.152c.062.06.156.067.242.07.477.014.956.024 1.428.092.36.053.736.215 1.103.17.767-.091.805-1.076.736-1.688-1.073-.192-2.247-.147-3.34-.213"/>
        <path fill="#000" d="M21.084 51.197c.001.768-.027 1.536-.084 2.301-.01.135-.037.294-.156.353a.382.382 0 0 1-.19.023l-.406-.02c-.12-.005-.243-.012-.349-.069-.092-.05-.161-.132-.239-.203-.304-.278-.724-.371-1.111-.506-.69-.24-1.316-.635-1.935-1.027-.155-.098-.331-.244-.294-.425.041-.201.3-.247.503-.25a50.805 50.805 0 0 0 3.81-.195c.225-.02.228.062.451.018M16.336 52.454c.088.623.107 1.256.057 1.884a.672.672 0 0 1-.047.228c-.078.169-.28.246-.463.232-.183-.013-.351-.099-.517-.179a11.707 11.707 0 0 0-3.955-1.113c-.267-.027-.547-.047-.773-.194-.225-.147-.366-.469-.225-.7.148-.24.482-.245.76-.237a8.177 8.177 0 0 0 1.864-.16c.565-.115 1.137-.29 1.708-.208.246.035.483.119.729.16.213.035.435.04.632.131.196.092.36.307.308.52"/>
        <path fill="#B78865" d="M20.896 30.394c.203-.111.424-.227.651-.192.446.067.614.627.637 1.083.046.919-.11 1.833-.24 2.743-.693 4.853-.685 9.789-.306 14.678.06.78.128 1.584-.106 2.33a.908.908 0 0 1-.191.366c-.124.129-.302.184-.474.226a5.26 5.26 0 0 1-1.666.134c-.167-.013-.344-.04-.469-.152-.168-.15-.19-.404-.198-.631-.112-2.98-.03-6.016-.875-8.871-.296-1-.704-1.972-.883-3-.34-1.956.177-3.931.845-5.756.247-.672.438-1.62 1.13-1.933.723-.326 1.435-.633 2.145-1.025"/>
        <g transform="translate(12.533 13.889)">
            <mask id="b" fill="#fff">
                <use xlink:href="#a"/>
            </mask>
            <path fill="#B29FBC" d="M8.272 1.04c.349.246.605.596.852.942.412.58.817 1.168 1.129 1.806.784 1.602.948 3.422 1.1 5.195.076.904.153 1.816.035 2.715-.227 1.735-1.155 3.293-2.063 4.795-.139.229-.28.462-.483.638-.323.28-.76.385-1.18.477-1.19.262-2.418.5-3.624.317-1.207-.183-2.404-.868-2.87-1.982-.181-.437-.243-.912-.303-1.38l-.505-3.96C.172 9.131-.016 7.643.135 6.167s.673-2.962 1.729-4.02C2.74 1.27 3.969.677 5.152.314c.84-.258 2.404.224 3.12.727" mask="url(#b)"/>
        </g>
        <path fill="#E0A16C" d="M19.52 31.112c-.32 2.49-1.71 4.726-2.12 7.202-.162.975-.168 1.968-.179 2.956a264.485 264.485 0 0 1-.302 9.98c-.024.501-.072 1.052-.424 1.402-.49.485-1.288.341-1.948.164-.205-.055-.419-.115-.571-.264-.19-.185-.243-.468-.278-.732-.201-1.553-.047-3.127.037-4.691.315-5.823-.334-11.714.62-17.465 1.651.76 3.358 1.289 5.164 1.448"/>
        <path fill="#F7E0C4" d="M19.896 30.458c.037.28.065.596-.11.816-.403.506-2.026.312-2.496-.005-.439-.297-.39-.748-.15-1.182.677-1.23 2.56-1.118 2.756.37"/>
        <path fill="#9472A3" d="M16.677 15.02c.133.206.168.46.192.706.192 1.967-.086 3.946-.13 5.923-.043 1.976.18 4.047 1.25 5.698.131.203.278.404.337.64.059.231.029.475-.005.71-.059.413-.128.824-.208 1.232-.063.323-.147.668-.397.877-.207.173-.49.216-.758.233-1.007.062-2.113-.216-2.718-1.036-.312-.422-.46-.944-.596-1.454-.613-2.296-1.115-4.648-1.09-7.026.02-1.775.347-3.572 1.104-5.181.256-.546.564-1.328 1.137-1.601.545-.26 1.517-.284 1.882.279"/>
        <path fill="#47301D" d="M17.012 12.978c-.127-.267-.128-.576-.182-.868-.095-.504-.354-.96-.524-1.443-.266-.758-.297-1.649.13-2.326.175-.279.437-.518.756-.585.25-.052.507.006.756.066.432.104.863.215 1.292.334.541.15 1.114.336 1.468.778.26.325.366.749.435 1.161.115.68.152 1.373.109 2.06-.02.322-.068.667-.284.903-.316.346-.849.326-1.312.3a15.734 15.734 0 0 0-1.615-.006c-.401.019-.82.063-1.029-.374"/>
        <path fill="#BCA4A4" d="M6.472 36.663c-.018.95-.038 1.907-.21 2.843-.045.25-.102.498-.12.752-.02.292.012.585.022.877a5.925 5.925 0 0 1-.545 2.686c-.085.183-.192.374-.374.457-.15-.747-.093-1.519-.06-2.281.154-3.555-.224-7.136.22-10.666.014-.113.537-.044.605-.025.216.06.413.192.543.38.28.406.146.789.04 1.213-.139.56-.07 1.204-.082 1.778l-.039 1.986z"/>
        <path fill="#E2C3C3" d="M5.748 39.566c-.07 1.53-.046 3.087-.228 4.6l-1.34.103c-.076.006-.161.01-.221-.039-.09-.07-.08-.209-.061-.323.359-2.238.22-4.525.078-6.788-.101-1.634-.403-3.399-.29-5.024 0 .002 1.326-.19 1.36-.164.033.027.068.061.109.054.414-.07.809.27.955.67.146.4.105.841.065 1.265a136.805 136.805 0 0 0-.427 5.646"/>
        <path fill="#292831" d="M5.914 44.344l2.14.872c.214.088.471.254.402.463-.058.172-.295.214-.488.223-.825.04-1.652.036-2.476-.012l-.04.381a7.758 7.758 0 0 1-1.233.048c.03-.515.06-1.037-.047-1.543-.034-.16-.082-.322-.061-.483.017-.137.081-.264.136-.392.153-.355.233-.737.236-1.119.29.008 1.257-.18 1.443.06.151.194-.184 1.432-.012 1.502"/>
        <path fill="#3E3C42" d="M9.803 1.016c.36.515.46 1.178.42 1.808-.04.63-.208 1.243-.344 1.86-.39 1.769-.507 3.658.093 5.366.128.365.29.723.352 1.106.09.541-.024 1.094-.137 1.631-.181.864-.363 1.729-.61 2.575-.076.26-.167.534-.37.71-.203.176-.554.205-.716-.012a.746.746 0 0 1-.103-.241 29.402 29.402 0 0 1-.658-2.68c-.192.455-.386.921-.417 1.415-.03.465.038 1.042-.35 1.29a10.91 10.91 0 0 1-1.026-2.554c-.108-.415-.192-.837-.299-1.253a11.529 11.529 0 0 0-1.433-3.308c-.102-.16-.212-.322-.367-.43-.154-.108-.365-.152-.532-.064-.27-.511.059-1.123.366-1.613a33.974 33.974 0 0 0 2.162-4.03c.17-.378.336-.76.56-1.107.327-.504.994-1.44 1.638-1.4.684.044 1.367.35 1.771.93"/>
        <path fill="#262130" d="M5.317 11.283c.27.52.572 1.025.785 1.571.236.605.357 1.248.478 1.887.18.95.359 1.903.454 2.866.324 3.3-.35 6.65.095 9.934.191 1.406.587 2.795.56 4.214-.004.217-.024.45-.159.617-.109.136-.276.208-.438.269-1.62.61-3.436.67-5.093.172.024-1.689.048-3.384-.162-5.059-.172-1.36-.498-2.73-.313-4.089.075-.554.234-1.092.35-1.64.265-1.262.296-2.563.422-3.848.222-2.257.741-4.471 1.259-6.678.09-.387.31-1.93.736-2.08.311-.11.845 1.516 1.026 1.864"/>
        <path fill="#E2C3C3" d="M5.276 9.465c-.018-.413-.124-.834-.37-1.165-.246-.33-.648-.556-1.054-.52-.515.045-.912.474-1.205.907a6.987 6.987 0 0 0-1.17 4.288l2.064.404c.072.015.15.032.2.086.053.057.064.141.071.22l.256 2.536c.025.256.051.513.13.757.094.297.262.563.403.84.453.883.64 1.877.904 2.837.32 1.166.758 2.293 1.212 3.412.095.233.195.474.372.65.178.177.456.275.682.168.22-.104.328-.373.317-.62-.01-.247-.115-.478-.217-.702l-1.24-2.702c-.097-.213-.195-.428-.248-.657-.07-.305-.057-.622-.065-.935-.026-1.102-.316-2.177-.479-3.266-.257-1.72-.196-3.47-.115-5.208.033-.695.037-1.48-.447-1.974"/>
        <path fill="#E1E5E5" d="M3.866 13.306c-.057 3.389-.01 6.779.14 10.164.035.763.016 1.658-.588 2.113-.272.206-.62.278-.957.314-.46.05-.944.04-1.358-.168-.66-.331-1.007-1.101-1.082-1.845-.075-.743.07-1.489.135-2.233.082-.944.033-1.896.102-2.84.08-1.089.315-2.163.358-3.253.041-1.027-.294-2.57.212-3.499 1.04.517 1.816 1.136 3.038 1.247"/>
        <path fill="#C3C9C9" d="M2.335 11.439c.18-1.137.553-2.236 1.007-3.291.156-.365.424-.787.813-.741.14.476-.109.967-.301 1.424-.681 1.616-.72 3.482-1.577 5.008-.045.08-.1.165-.185.194-.644.223-.13-.818-.082-.944.2-.525.239-1.1.325-1.65"/>
        <path fill="#3E3C42" d="M6.034.818c-.421.413-.707.946-.98 1.473-.24.462-.475.927-.71 1.392-.354.699-.709 1.4-.966 2.141-.209.598-.352 1.216-.546 1.819-.525 1.635-1.417 3.16-1.669 4.86.206-.106.276-.363.333-.591.308-1.25.81-2.46 1.547-3.509.498-.708 1.1-1.337 1.587-2.053.955-1.404 1.471-3.135 2.701-4.296.321-.303.686-.56.971-.898.174-.206.493-.629.358-.92-.126-.271-.531-.241-.772-.227a2.903 2.903 0 0 0-1.854.809"/>
        <path fill="#E2C3C3" d="M9.04 2.549a7.01 7.01 0 0 1-.876 2.489c-.1.17-.21.341-.369.457-.14.102-.306.155-.47.206-.31.097-.681.182-.927-.032-.221-.191-.227-.53-.216-.825l.068-1.728c.01-.264-.106-1.152.173-1.279.226-.102.754.252.977.313.542.15 1.097.257 1.64.399"/>
        <path fill="#3A3A42" d="M5.507 44.814a.092.092 0 0 0 .01.019c.05.077.258.117.342.151l1.75.714c.215.087.472.253.402.462-.057.172-.294.214-.488.224-.824.04-1.651.035-2.475-.013l-.04.382c-.408.048-.822.064-1.233.047.03-.515.06-1.037-.047-1.543-.035-.16-.082-.321-.062-.483.017-.136.082-.263.137-.392.152-.354.233-.736.236-1.118 0-.099 1.364-.025 1.47 0 .028.007.06.017.076.041.014.023.014.052.012.079-.02.322-.06.642-.077.965-.005.1-.056.357-.013.465"/>
    </g>
</svg>
