<svg xmlns="http://www.w3.org/2000/svg" xmlns:xlink="http://www.w3.org/1999/xlink" width="14" height="51" viewBox="0 0 14 51">
    <defs>
        <path id="a" d="M1.946.58c-.437.197-.34.597-.34 1.025a42.986 42.986 0 0 1-.377 5.761c-.109.815-.243 1.633-.534 2.4-.21.553-.501 1.085-.568 1.673-.054.47.04.943.134 1.407.048.237.119.505.331.614.172.088.388.035.54-.084.152-.12.252-.295.336-.47.582-1.228.577-2.65.933-3.964.222-.819.584-1.593.808-2.411.162-.59.25-1.2.318-1.809.172-1.555.21-3.126.115-4.688-.554.178-1.166.307-1.696.546"/>
        <path id="c" d="M.028.033h9.828v8.081H.028z"/>
        <path id="e" d="M2.006.952c-.4.43-.612 1.003-.793 1.566C.731 4.028.411 5.585.092 7.138a4.69 4.69 0 0 1 2.348.878l.382-1.068c.657 1.205.595 2.69.25 4.023-.345 1.332-.947 2.58-1.336 3.9-.26.883-.424 1.793-.524 2.71.463.355.925.71 1.387 1.067.24.184.482.37.756.494.27.121.565.179.86.21 1.911.21 3.82-.636 5.298-1.888.193-.163.385-.34.494-.57.085-.179.114-.379.141-.576.419-3.048.526-6.14.32-9.211.416-.122.858-.018 1.29.023.43.04.92-.008 1.2-.343.235-.279.257-.677.268-1.044.022-.75.042-1.514-.166-2.233-.32-1.11-1.172-2.015-2.19-2.531C9.853.463 8.684.31 7.55.389c.214.369.032.838-.162 1.219-.5.983-1.143 1.993-2.159 2.391L4.767 2.25C4.637 1.761 4.58.92 4.303.505 4.16.295 3.93.212 3.668.212c-.599 0-1.37.425-1.662.74"/>
        <path id="g" d="M2.006.952c-.4.43-.612 1.003-.793 1.566C.731 4.028.411 5.585.092 7.138a4.69 4.69 0 0 1 2.348.878l.382-1.068c.657 1.205.595 2.69.25 4.023-.345 1.332-.947 2.58-1.336 3.9-.26.883-.424 1.793-.524 2.71.463.355.925.71 1.387 1.067.24.184.482.37.756.494.27.121.565.179.86.21 1.911.21 3.82-.636 5.298-1.888.193-.163.385-.34.494-.57.085-.179.114-.379.141-.576.419-3.048.526-6.14.32-9.211.416-.122.858-.018 1.29.023.43.04.92-.008 1.2-.343.235-.279.257-.677.268-1.044.022-.75.042-1.514-.166-2.233-.32-1.11-1.172-2.015-2.19-2.531C9.853.463 8.684.31 7.55.389c.214.369.032.838-.162 1.219-.5.983-1.143 1.993-2.159 2.391L4.767 2.25C4.637 1.761 4.58.92 4.303.505 4.16.295 3.93.212 3.668.212c-.599 0-1.37.425-1.662.74"/>
        <path id="i" d="M2.006.952c-.4.43-.612 1.003-.793 1.566C.731 4.028.411 5.585.092 7.138a4.69 4.69 0 0 1 2.348.878l.382-1.068c.657 1.205.595 2.69.25 4.023-.345 1.332-.947 2.58-1.336 3.9-.26.883-.424 1.793-.524 2.71.463.355.925.71 1.387 1.067.24.184.482.37.756.494.27.121.565.179.86.21 1.911.21 3.82-.636 5.298-1.888.193-.163.385-.34.494-.57.085-.179.114-.379.141-.576.419-3.048.526-6.14.32-9.211.416-.122.858-.018 1.29.023.43.04.92-.008 1.2-.343.235-.279.257-.677.268-1.044.022-.75.042-1.514-.166-2.233-.32-1.11-1.172-2.015-2.19-2.531C9.853.463 8.684.31 7.55.389c.214.369.032.838-.162 1.219-.5.983-1.143 1.993-2.159 2.391L4.767 2.25C4.637 1.761 4.58.92 4.303.505 4.16.295 3.93.212 3.668.212c-.599 0-1.37.425-1.662.74"/>
        <path id="k" d="M2.006.952c-.4.43-.612 1.003-.793 1.566C.731 4.028.411 5.585.092 7.138a4.69 4.69 0 0 1 2.348.878l.382-1.068c.657 1.205.595 2.69.25 4.023-.345 1.332-.947 2.58-1.336 3.9-.26.883-.424 1.793-.524 2.71.463.355.925.71 1.387 1.067.24.184.482.37.756.494.27.121.565.179.86.21 1.911.21 3.82-.636 5.298-1.888.193-.163.385-.34.494-.57.085-.179.114-.379.141-.576.419-3.048.526-6.14.32-9.211.416-.122.858-.018 1.29.023.43.04.92-.008 1.2-.343.235-.279.257-.677.268-1.044.022-.75.042-1.514-.166-2.233-.32-1.11-1.172-2.015-2.19-2.531C9.853.463 8.684.31 7.55.389c.214.369.032.838-.162 1.219-.5.983-1.143 1.993-2.159 2.391L4.767 2.25C4.637 1.761 4.58.92 4.303.505 4.16.295 3.93.212 3.668.212c-.599 0-1.37.425-1.662.74"/>
        <path id="m" d="M2.006.952c-.4.43-.612 1.003-.793 1.566C.731 4.028.411 5.585.092 7.138a4.69 4.69 0 0 1 2.348.878l.382-1.068c.657 1.205.595 2.69.25 4.023-.345 1.332-.947 2.58-1.336 3.9-.26.883-.424 1.793-.524 2.71.463.355.925.71 1.387 1.067.24.184.482.37.756.494.27.121.565.179.86.21 1.911.21 3.82-.636 5.298-1.888.193-.163.385-.34.494-.57.085-.179.114-.379.141-.576.419-3.048.526-6.14.32-9.211.416-.122.858-.018 1.29.023.43.04.92-.008 1.2-.343.235-.279.257-.677.268-1.044.022-.75.042-1.514-.166-2.233-.32-1.11-1.172-2.015-2.19-2.531C9.853.463 8.684.31 7.55.389c.214.369.032.838-.162 1.219-.5.983-1.143 1.993-2.159 2.391L4.767 2.25C4.637 1.761 4.58.92 4.303.505 4.16.295 3.93.212 3.668.212c-.599 0-1.37.425-1.662.74"/>
        <path id="o" d="M2.006.952c-.4.43-.612 1.003-.793 1.566C.731 4.028.411 5.585.092 7.138a4.69 4.69 0 0 1 2.348.878l.382-1.068c.657 1.205.595 2.69.25 4.023-.345 1.332-.947 2.58-1.336 3.9-.26.883-.424 1.793-.524 2.71.463.355.925.71 1.387 1.067.24.184.482.37.756.494.27.121.565.179.86.21 1.911.21 3.82-.636 5.298-1.888.193-.163.385-.34.494-.57.085-.179.114-.379.141-.576.419-3.048.526-6.14.32-9.211.416-.122.858-.018 1.29.023.43.04.92-.008 1.2-.343.235-.279.257-.677.268-1.044.022-.75.042-1.514-.166-2.233-.32-1.11-1.172-2.015-2.19-2.531C9.853.463 8.684.31 7.55.389c.214.369.032.838-.162 1.219-.5.983-1.143 1.993-2.159 2.391L4.767 2.25C4.637 1.761 4.58.92 4.303.505 4.16.295 3.93.212 3.668.212c-.599 0-1.37.425-1.662.74"/>
        <path id="q" d="M2.006.952c-.4.43-.612 1.003-.793 1.566C.731 4.028.411 5.585.092 7.138a4.69 4.69 0 0 1 2.348.878l.382-1.068c.657 1.205.595 2.69.25 4.023-.345 1.332-.947 2.58-1.336 3.9-.26.883-.424 1.793-.524 2.71.463.355.925.71 1.387 1.067.24.184.482.37.756.494.27.121.565.179.86.21 1.911.21 3.82-.636 5.298-1.888.193-.163.385-.34.494-.57.085-.179.114-.379.141-.576.419-3.048.526-6.14.32-9.211.416-.122.858-.018 1.29.023.43.04.92-.008 1.2-.343.235-.279.257-.677.268-1.044.022-.75.042-1.514-.166-2.233-.32-1.11-1.172-2.015-2.19-2.531C9.853.463 8.684.31 7.55.389c.214.369.032.838-.162 1.219-.5.983-1.143 1.993-2.159 2.391L4.767 2.25C4.637 1.761 4.58.92 4.303.505 4.16.295 3.93.212 3.668.212c-.599 0-1.37.425-1.662.74"/>
        <path id="s" d="M2.006.952c-.4.43-.612 1.003-.793 1.566C.731 4.028.411 5.585.092 7.138a4.69 4.69 0 0 1 2.348.878l.382-1.068c.657 1.205.595 2.69.25 4.023-.345 1.332-.947 2.58-1.336 3.9-.26.883-.424 1.793-.524 2.71.463.355.925.71 1.387 1.067.24.184.482.37.756.494.27.121.565.179.86.21 1.911.21 3.82-.636 5.298-1.888.193-.163.385-.34.494-.57.085-.179.114-.379.141-.576.419-3.048.526-6.14.32-9.211.416-.122.858-.018 1.29.023.43.04.92-.008 1.2-.343.235-.279.257-.677.268-1.044.022-.75.042-1.514-.166-2.233-.32-1.11-1.172-2.015-2.19-2.531C9.853.463 8.684.31 7.55.389c.214.369.032.838-.162 1.219-.5.983-1.143 1.993-2.159 2.391L4.767 2.25C4.637 1.761 4.58.92 4.303.505 4.16.295 3.93.212 3.668.212c-.599 0-1.37.425-1.662.74"/>
        <path id="u" d="M2.006.952c-.4.43-.612 1.003-.793 1.566C.731 4.028.411 5.585.092 7.138a4.69 4.69 0 0 1 2.348.878l.382-1.068c.657 1.205.595 2.69.25 4.023-.345 1.332-.947 2.58-1.336 3.9-.26.883-.424 1.793-.524 2.71.463.355.925.71 1.387 1.067.24.184.482.37.756.494.27.121.565.179.86.21 1.911.21 3.82-.636 5.298-1.888.193-.163.385-.34.494-.57.085-.179.114-.379.141-.576.419-3.048.526-6.14.32-9.211.416-.122.858-.018 1.29.023.43.04.92-.008 1.2-.343.235-.279.257-.677.268-1.044.022-.75.042-1.514-.166-2.233-.32-1.11-1.172-2.015-2.19-2.531C9.853.463 8.684.31 7.55.389c.214.369.032.838-.162 1.219-.5.983-1.143 1.993-2.159 2.391L4.767 2.25C4.637 1.761 4.58.92 4.303.505 4.16.295 3.93.212 3.668.212c-.599 0-1.37.425-1.662.74"/>
        <path id="w" d="M2.006.952c-.4.43-.612 1.003-.793 1.566C.731 4.028.411 5.585.092 7.138a4.69 4.69 0 0 1 2.348.878l.382-1.068c.657 1.205.595 2.69.25 4.023-.345 1.332-.947 2.58-1.336 3.9-.26.883-.424 1.793-.524 2.71.463.355.925.71 1.387 1.067.24.184.482.37.756.494.27.121.565.179.86.21 1.911.21 3.82-.636 5.298-1.888.193-.163.385-.34.494-.57.085-.179.114-.379.141-.576.419-3.048.526-6.14.32-9.211.416-.122.858-.018 1.29.023.43.04.92-.008 1.2-.343.235-.279.257-.677.268-1.044.022-.75.042-1.514-.166-2.233-.32-1.11-1.172-2.015-2.19-2.531C9.853.463 8.684.31 7.55.389c.214.369.032.838-.162 1.219-.5.983-1.143 1.993-2.159 2.391L4.767 2.25C4.637 1.761 4.58.92 4.303.505 4.16.295 3.93.212 3.668.212c-.599 0-1.37.425-1.662.74"/>
        <path id="y" d="M2.006.952c-.4.43-.612 1.003-.793 1.566C.731 4.028.411 5.585.092 7.138a4.69 4.69 0 0 1 2.348.878l.382-1.068c.657 1.205.595 2.69.25 4.023-.345 1.332-.947 2.58-1.336 3.9-.26.883-.424 1.793-.524 2.71.463.355.925.71 1.387 1.067.24.184.482.37.756.494.27.121.565.179.86.21 1.911.21 3.82-.636 5.298-1.888.193-.163.385-.34.494-.57.085-.179.114-.379.141-.576.419-3.048.526-6.14.32-9.211.416-.122.858-.018 1.29.023.43.04.92-.008 1.2-.343.235-.279.257-.677.268-1.044.022-.75.042-1.514-.166-2.233-.32-1.11-1.172-2.015-2.19-2.531C9.853.463 8.684.31 7.55.389c.214.369.032.838-.162 1.219-.5.983-1.143 1.993-2.159 2.391L4.767 2.25C4.637 1.761 4.58.92 4.303.505 4.16.295 3.93.212 3.668.212c-.599 0-1.37.425-1.662.74"/>
        <path id="A" d="M2.006.952c-.4.43-.612 1.003-.793 1.566C.731 4.028.411 5.585.092 7.138a4.69 4.69 0 0 1 2.348.878l.382-1.068c.657 1.205.595 2.69.25 4.023-.345 1.332-.947 2.58-1.336 3.9-.26.883-.424 1.793-.524 2.71.463.355.925.71 1.387 1.067.24.184.482.37.756.494.27.121.565.179.86.21 1.911.21 3.82-.636 5.298-1.888.193-.163.385-.34.494-.57.085-.179.114-.379.141-.576.419-3.048.526-6.14.32-9.211.416-.122.858-.018 1.29.023.43.04.92-.008 1.2-.343.235-.279.257-.677.268-1.044.022-.75.042-1.514-.166-2.233-.32-1.11-1.172-2.015-2.19-2.531C9.853.463 8.684.31 7.55.389c.214.369.032.838-.162 1.219-.5.983-1.143 1.993-2.159 2.391L4.767 2.25C4.637 1.761 4.58.92 4.303.505 4.16.295 3.93.212 3.668.212c-.599 0-1.37.425-1.662.74"/>
        <path id="C" d="M2.006.952c-.4.43-.612 1.003-.793 1.566C.731 4.028.411 5.585.092 7.138a4.69 4.69 0 0 1 2.348.878l.382-1.068c.657 1.205.595 2.69.25 4.023-.345 1.332-.947 2.58-1.336 3.9-.26.883-.424 1.793-.524 2.71.463.355.925.71 1.387 1.067.24.184.482.37.756.494.27.121.565.179.86.21 1.911.21 3.82-.636 5.298-1.888.193-.163.385-.34.494-.57.085-.179.114-.379.141-.576.419-3.048.526-6.14.32-9.211.416-.122.858-.018 1.29.023.43.04.92-.008 1.2-.343.235-.279.257-.677.268-1.044.022-.75.042-1.514-.166-2.233-.32-1.11-1.172-2.015-2.19-2.531C9.853.463 8.684.31 7.55.389c.214.369.032.838-.162 1.219-.5.983-1.143 1.993-2.159 2.391L4.767 2.25C4.637 1.761 4.58.92 4.303.505 4.16.295 3.93.212 3.668.212c-.599 0-1.37.425-1.662.74"/>
        <path id="E" d="M2.006.952c-.4.43-.612 1.003-.793 1.566C.731 4.028.411 5.585.092 7.138a4.69 4.69 0 0 1 2.348.878l.382-1.068c.657 1.205.595 2.69.25 4.023-.345 1.332-.947 2.58-1.336 3.9-.26.883-.424 1.793-.524 2.71.463.355.925.71 1.387 1.067.24.184.482.37.756.494.27.121.565.179.86.21 1.911.21 3.82-.636 5.298-1.888.193-.163.385-.34.494-.57.085-.179.114-.379.141-.576.419-3.048.526-6.14.32-9.211.416-.122.858-.018 1.29.023.43.04.92-.008 1.2-.343.235-.279.257-.677.268-1.044.022-.75.042-1.514-.166-2.233-.32-1.11-1.172-2.015-2.19-2.531C9.853.463 8.684.31 7.55.389c.214.369.032.838-.162 1.219-.5.983-1.143 1.993-2.159 2.391L4.767 2.25C4.637 1.761 4.58.92 4.303.505 4.16.295 3.93.212 3.668.212c-.599 0-1.37.425-1.662.74"/>
        <path id="G" d="M2.006.952c-.4.43-.612 1.003-.793 1.566C.731 4.028.411 5.585.092 7.138a4.69 4.69 0 0 1 2.348.878l.382-1.068c.657 1.205.595 2.69.25 4.023-.345 1.332-.947 2.58-1.336 3.9-.26.883-.424 1.793-.524 2.71.463.355.925.71 1.387 1.067.24.184.482.37.756.494.27.121.565.179.86.21 1.911.21 3.82-.636 5.298-1.888.193-.163.385-.34.494-.57.085-.179.114-.379.141-.576.419-3.048.526-6.14.32-9.211.416-.122.858-.018 1.29.023.43.04.92-.008 1.2-.343.235-.279.257-.677.268-1.044.022-.75.042-1.514-.166-2.233-.32-1.11-1.172-2.015-2.19-2.531C9.853.463 8.684.31 7.55.389c.214.369.032.838-.162 1.219-.5.983-1.143 1.993-2.159 2.391L4.767 2.25C4.637 1.761 4.58.92 4.303.505 4.16.295 3.93.212 3.668.212c-.599 0-1.37.425-1.662.74"/>
        <path id="I" d="M2.006.952c-.4.43-.612 1.003-.793 1.566C.731 4.028.411 5.585.092 7.138a4.69 4.69 0 0 1 2.348.878l.382-1.068c.657 1.205.595 2.69.25 4.023-.345 1.332-.947 2.58-1.336 3.9-.26.883-.424 1.793-.524 2.71.463.355.925.71 1.387 1.067.24.184.482.37.756.494.27.121.565.179.86.21 1.911.21 3.82-.636 5.298-1.888.193-.163.385-.34.494-.57.085-.179.114-.379.141-.576.419-3.048.526-6.14.32-9.211.416-.122.858-.018 1.29.023.43.04.92-.008 1.2-.343.235-.279.257-.677.268-1.044.022-.75.042-1.514-.166-2.233-.32-1.11-1.172-2.015-2.19-2.531C9.853.463 8.684.31 7.55.389c.214.369.032.838-.162 1.219-.5.983-1.143 1.993-2.159 2.391L4.767 2.25C4.637 1.761 4.58.92 4.303.505 4.16.295 3.93.212 3.668.212c-.599 0-1.37.425-1.662.74"/>
        <path id="K" d="M2.006.952c-.4.43-.612 1.003-.793 1.566C.731 4.028.411 5.585.092 7.138a4.69 4.69 0 0 1 2.348.878l.382-1.068c.657 1.205.595 2.69.25 4.023-.345 1.332-.947 2.58-1.336 3.9-.26.883-.424 1.793-.524 2.71.463.355.925.71 1.387 1.067.24.184.482.37.756.494.27.121.565.179.86.21 1.911.21 3.82-.636 5.298-1.888.193-.163.385-.34.494-.57.085-.179.114-.379.141-.576.419-3.048.526-6.14.32-9.211.416-.122.858-.018 1.29.023.43.04.92-.008 1.2-.343.235-.279.257-.677.268-1.044.022-.75.042-1.514-.166-2.233-.32-1.11-1.172-2.015-2.19-2.531C9.853.463 8.684.31 7.55.389c.214.369.032.838-.162 1.219-.5.983-1.143 1.993-2.159 2.391L4.767 2.25C4.637 1.761 4.58.92 4.303.505 4.16.295 3.93.212 3.668.212c-.599 0-1.37.425-1.662.74"/>
        <path id="M" d="M2.006.952c-.4.43-.612 1.003-.793 1.566C.731 4.028.411 5.585.092 7.138a4.69 4.69 0 0 1 2.348.878l.382-1.068c.657 1.205.595 2.69.25 4.023-.345 1.332-.947 2.58-1.336 3.9-.26.883-.424 1.793-.524 2.71.463.355.925.71 1.387 1.067.24.184.482.37.756.494.27.121.565.179.86.21 1.911.21 3.82-.636 5.298-1.888.193-.163.385-.34.494-.57.085-.179.114-.379.141-.576.419-3.048.526-6.14.32-9.211.416-.122.858-.018 1.29.023.43.04.92-.008 1.2-.343.235-.279.257-.677.268-1.044.022-.75.042-1.514-.166-2.233-.32-1.11-1.172-2.015-2.19-2.531C9.853.463 8.684.31 7.55.389c.214.369.032.838-.162 1.219-.5.983-1.143 1.993-2.159 2.391L4.767 2.25C4.637 1.761 4.58.92 4.303.505 4.16.295 3.93.212 3.668.212c-.599 0-1.37.425-1.662.74"/>
        <path id="O" d="M.033.155h4.936v5.8H.033z"/>
    </defs>
    <g fill="none" fill-rule="evenodd">
        <path fill="#585282" d="M11.014 9.294c.357.185.644.483.911.787.775.877 1.467 1.869 1.767 3.007.166.627.208 1.28.24 1.929.122 2.424.11 4.928-.784 7.179-.06.152-.13.31-.257.41-.149.12-.35.14-.538.156-.231.02-.487.033-.67-.113-.16-.13-.218-.347-.266-.55l-.948-3.969a37.299 37.299 0 0 0-.41-1.616c-.166-.578-.36-1.148-.512-1.73-.148-.564-.257-1.138-.366-1.712l-.58-3.054c-.252-1.33 1.67-1.109 2.413-.724"/>
        <path fill="#CCB0B0" d="M10.392 22.348c-.108.815-.242 1.633-.533 2.4-.21.553-.502 1.085-.569 1.673-.053.47.041.943.135 1.407.048.237.118.505.33.614.172.088.389.035.541-.084.152-.12.251-.295.335-.47.583-1.227.577-2.65.933-3.964.223-.819.585-1.592.81-2.411.161-.59.25-1.2.317-1.809.171-1.555.21-3.126.114-4.687-.554.177-1.165.306-1.695.546-.437.197-.34.596-.34 1.024a42.876 42.876 0 0 1-.378 5.761"/>
        <g transform="translate(9.164 14.982)">
            <mask id="b" fill="#fff">
                <use xlink:href="#a"/>
            </mask>
            <path fill="#272231" d="M1.676 10.79c-.03-.297-.206-.71-.497-.764-.171-.031-.288.028-.368.131-.014-.014-.029-.027-.042-.043-.041-.048-.096-.162-.167-.171-.275-.036-.12.421-.031.521.03.034.065.06.1.089a1.777 1.777 0 0 0-.009.344c.003.042.007.086.026.124.024.05.072.085.122.11.1.051.209.076.318.098.166.034.367.05.477-.081l.002-.004.054.033c.124.076.256.155.401.158a.425.425 0 0 0 .353-.179c-.04.058-.397-.149-.739-.367" mask="url(#b)"/>
        </g>
        <path fill="#CCB0B0" d="M1.504 24.347c.005.152.06.356.209.347a.28.28 0 0 0 .129-.054c.388-.248.797-.52.99-.942.107-.235.138-.497.158-.755.067-.856.031-1.72-.107-2.568-.11-.668-.281-1.325-.345-1.998-.08-.862.019-1.73-.033-2.594-.003-.05-.01-.103-.044-.138-.035-.033-.087-.038-.134-.04-.376-.016-1.62-.198-1.734.193-.08.272.026.734.045 1.018.022.338.052.676.089 1.014.15 1.406.399 2.799.576 4.201.098.769.174 1.541.2 2.316"/>
        <path fill="#262433" d="M2.052 35.55c.076.94.206 1.875.24 2.817.024.681-.002 1.363-.002 2.045 0 1.66.156 3.322.467 4.952.397.032.8-.007 1.184-.115.103-.03.214-.07.27-.164a.47.47 0 0 0 .045-.23 14264.7 14264.7 0 0 0 .17-6.138c.017-.602.034-1.205 0-1.806-.099-1.766-.63-3.523-.4-5.276.007-.05-1.357-.126-1.481-.126-.652 0-.601.15-.6.773.003 1.09.018 2.18.107 3.267"/>
        <path fill="#1A1725" d="M5.965 45.621l1.283-.042c.076-.002.16-.007.218-.057.05-.042.074-.109.095-.172.356-1.077.714-2.166.828-3.296.062-.623.05-1.25.08-1.875.022-.488.071-.974.12-1.46l.554-5.518c-.02.205-2.468-.194-2.695-.052-.43.27-.121 2.196-.117 2.709a107.232 107.232 0 0 1-.366 9.763"/>
        <path fill="#272231" d="M.93 29.05a9.902 9.902 0 0 0-.272 3.487c.01.093.021.19.073.267a.54.54 0 0 0 .227.168c1.06.51 2.269.567 3.441.616.146.006.297.011.433-.045.373-.156.473-.704.852-.846l.275.866c.025.078.053.161.118.21.06.047.14.055.214.062l4.228.357c-.61-3.197-.835-6.456-1.06-9.704a11.375 11.375 0 0 1-4.335 1.742c-.587.103-1.182.16-1.776.19-.45.024-1.172-.116-1.586.072-.364.166-.34.507-.4.865-.097.577-.284 1.13-.431 1.694"/>
        <path fill="#CCB0B0" d="M4.533 7.713L4.362 9.33c-.022.205-.043.417.022.613.05.15.147.277.215.42.168.35.148.76.179 1.15.036.459.149.911.332 1.333.025.058.055.118.11.149.085.048.191.001.276-.049.89-.523 1.52-1.396 2.123-2.245.082-.116.166-.235.2-.374.047-.184 0-.377-.041-.562a12.104 12.104 0 0 1-.296-2.522c-1.013.036-2.032.071-3.033-.085"/>
        <path fill="#E5C6C6" d="M4.316 3.72c-.245.685-.244 1.434-.226 2.164.018.675.076 1.418.546 1.894.217.22.504.359.802.433 1.088.268 2.261-.36 2.875-1.314.613-.953.74-2.158.608-3.29C8.791 2.497 8.077.775 6.69.892c-.524.044-.855.574-1.158.95-.468.578-.962 1.164-1.216 1.877"/>
        <path fill="#1A1725" d="M7.867 4a.957.957 0 0 0-.061-.334.623.623 0 0 0-.371-.331.945.945 0 0 0-.456-.031l.015.102a.727.727 0 0 0-.205.06.784.784 0 0 0-.25.197.983.983 0 0 0-.24.546 5.8 5.8 0 0 1-.241-.007 1.07 1.07 0 0 0-.169-.657.665.665 0 0 0-.194-.203c-.208-.134-.71-.15-.94-.03-.357.186-.34.694-.33.998v.04a.82.82 0 0 0 .05.305.594.594 0 0 0 .155.21.823.823 0 0 0 .836.154.926.926 0 0 0 .528-.543c.108.006.215.011.323.011a.747.747 0 0 0 .528.559.913.913 0 0 0 .29.021.85.85 0 0 0 .374-.077.694.694 0 0 0 .336-.472c.041-.176.031-.358.022-.518"/>
        <g transform="translate(1.782 .226)">
            <mask id="d" fill="#fff">
                <use xlink:href="#c"/>
            </mask>
            <path fill="#2B2731" d="M9.683 4.244a14.268 14.268 0 0 1-1.97-2.22C7.398 1.58 7.097 1.11 6.663.788 6.344.552 5.766.263 5.36.384c-.116.035-.182.088-.215.153C4.894.2 4.435.019 4.035.034c-.575.022-1.1.365-1.485.8-.385.435-.655.96-.944 1.465A19.755 19.755 0 0 1 .234 4.384c-.093.124-.192.257-.204.413-.013.15.058.294.127.43l.757 1.47c.262.508.593 1.073 1.147 1.187.183.039.41 0 .496-.17a.536.536 0 0 0 .044-.212c.072-1.165-.438-2.354-.13-3.479.125-.453.374-.858.62-1.256.27-.437.549-.882.95-1.199.244-.192.524-.328.81-.442.162-.065.315-.088.39-.155.11.176.262.349.338.46.382.554.769 1.117.995 1.754a2.7 2.7 0 0 1 .164.755c.012.227-.013.454-.039.68l-.11.981c-.029.26-.058.52-.107.777a1.494 1.494 0 0 1-.159.481c-.157.268-.442.43-.64.667-.02.023-.038.05-.038.079 0 .038.032.067.06.09.186.153.38.302.607.376.227.074.494.06.68-.092.106-.089.177-.213.248-.333.15-.252.314-.494.493-.725a.86.86 0 0 1 .233-.229c.094-.055.203-.073.31-.093.2-.038.4-.085.578-.186.177-.1.33-.262.38-.462.05-.196-.001-.401-.013-.603-.013-.202.034-.435.207-.535.143-.082.365-.074.418-.233.042-.126-.066-.247-.163-.336" mask="url(#d)"/>
        </g>
        <path fill="#CAC5C4" d="M2.005 9.721c-.4.43-.611 1.003-.791 1.566-.483 1.51-.803 3.067-1.122 4.62a4.69 4.69 0 0 1 2.348.878l.382-1.068c.657 1.205.595 2.69.25 4.023-.344 1.332-.947 2.58-1.336 3.9-.26.882-.424 1.793-.523 2.709l1.386 1.067c.24.185.481.37.756.494.27.122.565.18.86.212 1.911.209 3.82-.637 5.298-1.89.193-.162.385-.339.494-.57.085-.178.114-.378.141-.575.419-3.048.526-6.14.32-9.212.416-.12.858-.017 1.29.024.43.04.92-.008 1.201-.343.234-.28.256-.677.267-1.044.022-.75.042-1.514-.165-2.233-.32-1.11-1.173-2.016-2.19-2.531-1.018-.516-2.187-.668-3.321-.591.214.37.032.838-.162 1.22-.5.983-1.143 1.992-2.158 2.391l-.463-1.75c-.13-.488-.186-1.33-.464-1.745-.462-.688-1.876-.006-2.298.448"/>
        <g>
            <g transform="translate(0 8.769)">
                <mask id="f" fill="#fff">
                    <use xlink:href="#e"/>
                </mask>
                <path fill="#B5AEAC" d="M1.953 1.025c.474-.002.941-.067 1.377.128.391.174.796.183 1.217.167.525-.02.527-.852 0-.831-.258.01-.535.035-.785-.05-.185-.064-.339-.176-.53-.221-.402-.095-.87-.026-1.28-.024-.525.002-.526.834 0 .831" mask="url(#f)"/>
            </g>
            <g transform="translate(0 8.769)">
                <mask id="h" fill="#fff">
                    <use xlink:href="#g"/>
                </mask>
                <path fill="#B5AEAC" d="M.596 2.13c.566.342 1.141.377 1.789.307.42-.046.827-.121 1.25-.082.348.032.66.114 1.012.084.52-.044.525-.876 0-.831-.557.047-1.1-.128-1.668-.078-.684.06-1.336.264-1.97-.118-.454-.273-.866.445-.413.718" mask="url(#h)"/>
            </g>
            <g transform="translate(0 8.769)">
                <mask id="j" fill="#fff">
                    <use xlink:href="#i"/>
                </mask>
                <path fill="#B5AEAC" d="M.214 3.61c.636.13 1.288.266 1.94.22.32-.024.641-.133.965-.078.281.047.534.194.822.236.514.076.736-.725.217-.802-.508-.074-.924-.319-1.45-.27-.807.076-1.473.056-2.276-.108-.514-.104-.734.697-.218.802" mask="url(#j)"/>
            </g>
            <g transform="translate(0 8.769)">
                <mask id="l" fill="#fff">
                    <use xlink:href="#k"/>
                </mask>
                <path fill="#B5AEAC" d="M-.117 4.722c1.1.165 2.127-.138 3.225.02.514.074.737-.727.217-.802-.526-.076-1.067-.144-1.598-.077C1.158 3.934.68 4.007.1 3.92c-.515-.078-.737.723-.217.802" mask="url(#l)"/>
            </g>
            <g transform="translate(0 8.769)">
                <mask id="n" fill="#fff">
                    <use xlink:href="#m"/>
                </mask>
                <path fill="#B5AEAC" d="M-.833 5.993c.493.324.837.378 1.41.305.622-.08 1.28-.027 1.908-.027.527 0 .527-.831 0-.831-.48 0-.96-.003-1.44 0-.54.002-.973.158-1.465-.165-.444-.29-.854.429-.413.718" mask="url(#n)"/>
            </g>
            <g transform="translate(0 8.769)">
                <mask id="p" fill="#fff">
                    <use xlink:href="#o"/>
                </mask>
                <path fill="#B5AEAC" d="M2.452 6.795C1.627 6.793.615 6.59-.086 7.12c-.418.315-.01 1.037.413.718.535-.403 1.482-.212 2.125-.21.526.001.527-.83 0-.832" mask="url(#p)"/>
            </g>
            <g transform="translate(0 8.769)">
                <mask id="r" fill="#fff">
                    <use xlink:href="#q"/>
                </mask>
                <path fill="#B5AEAC" d="M8.72 1.453c.866-.278 1.715-.207 2.607-.218.754-.01 1.455-.143 2.179-.355.504-.148.29-.95-.218-.802-1.58.464-3.229.073-4.784.573-.5.161-.287.965.217.802" mask="url(#r)"/>
            </g>
            <g transform="translate(0 8.769)">
                <mask id="t" fill="#fff">
                    <use xlink:href="#s"/>
                </mask>
                <path fill="#B5AEAC" d="M11.745 1.635c-.746-.028-1.489.059-2.235.01-.526-.035-.524.796 0 .83.746.05 1.489-.041 2.235-.008.69.03 1.309.349 1.993.35.526.001.527-.83 0-.831-.669-.002-1.31-.325-1.993-.351" mask="url(#t)"/>
            </g>
            <g transform="translate(0 8.769)">
                <mask id="v" fill="#fff">
                    <use xlink:href="#u"/>
                </mask>
                <path fill="#B5AEAC" d="M9.295 3.098a.377.377 0 0 0-.157.059c-.055-.262-.312-.467-.574-.265-1.214.94-2.533 1.376-4.023 1.618-.519.085-.299.886.217.802 1.55-.252 2.959-.727 4.219-1.702.016-.012.029-.027.043-.04.058.196.239.369.492.33 1.322-.208 2.788-.033 4.124-.032.527 0 .527-.831 0-.832-1.415 0-2.94-.158-4.341.062" mask="url(#v)"/>
            </g>
            <g transform="translate(0 8.769)">
                <mask id="x" fill="#fff">
                    <use xlink:href="#w"/>
                </mask>
                <path fill="#B5AEAC" d="M14.036 4.561c-1.307-.093-2.58-.223-3.893-.154-.226.011-.355.173-.386.35a.361.361 0 0 0-.347.03c-.394.24-.946.19-1.386.297-.44.108-.828.282-1.282.342-1.02.134-2.096.05-3.125.056-.525.003-.527.835 0 .831.76-.004 1.556.044 2.336.019-.683.08-1.364.188-2.041.335-.515.112-.297.913.217.802 1.764-.384 3.55-.479 5.347-.553a.39.39 0 0 0 .362-.261c.071.172.24.3.47.24.909-.238 1.834-.206 2.764-.165.526.024.525-.808 0-.831-1.006-.045-2-.063-2.982.195a.368.368 0 0 0-.256.211.35.35 0 0 0-.358-.22c-.791.032-1.58.072-2.365.134.564-.103 1.084-.33 1.655-.412.402-.058.699-.084 1.056-.302a.383.383 0 0 0 .19-.282c.04.01.083.018.13.015 1.315-.069 2.587.061 3.894.155.525.037.523-.794 0-.832" mask="url(#x)"/>
            </g>
            <g transform="translate(0 8.769)">
                <mask id="z" fill="#fff">
                    <use xlink:href="#y"/>
                </mask>
                <path fill="#B5AEAC" d="M11.23 7.928c-1.317-.163-2.65-.301-3.945.079-1.425.418-2.664.37-4.134.45-.523.029-.526.86 0 .832 1.233-.068 2.442.143 3.642-.23 1.523-.47 2.857-.495 4.437-.3.521.065.517-.767 0-.83" mask="url(#z)"/>
            </g>
            <g transform="translate(0 8.769)">
                <mask id="B" fill="#fff">
                    <use xlink:href="#A"/>
                </mask>
                <path fill="#B5AEAC" d="M2.386 10.398c1.487.016 2.979.029 4.458-.153 1.417-.174 2.79-.67 4.227-.537.524.049.521-.783 0-.831-1.327-.123-2.547.278-3.845.482-1.599.252-3.228.224-4.84.208-.527-.006-.527.826 0 .831" mask="url(#B)"/>
            </g>
            <g transform="translate(0 8.769)">
                <mask id="D" fill="#fff">
                    <use xlink:href="#C"/>
                </mask>
                <path fill="#B5AEAC" d="M11.68 10.818c-3.145-.503-6.303.376-9.49.158-.526-.036-.524.795 0 .831 1.564.107 3.128.103 4.69-.06 1.577-.164 2.99-.382 4.583-.127.515.082.737-.719.218-.802" mask="url(#D)"/>
            </g>
            <g transform="translate(0 8.769)">
                <mask id="F" fill="#fff">
                    <use xlink:href="#E"/>
                </mask>
                <path fill="#B5AEAC" d="M11.008 12.14c-1.87.08-3.547-.111-5.354.476-1.684.546-3.393.178-5.087.599-.51.127-.294.928.218.802 1.537-.382 3.12-.005 4.655-.46.92-.272 1.712-.556 2.694-.597.958-.04 1.915.053 2.874.011.524-.023.527-.854 0-.831" mask="url(#F)"/>
            </g>
            <g transform="translate(0 8.769)">
                <mask id="H" fill="#fff">
                    <use xlink:href="#G"/>
                </mask>
                <path fill="#B5AEAC" d="M10.674 13.673c-.85-.059-1.704-.117-2.547.038-.898.164-1.675.621-2.598.701-1.626.142-3.183-.042-4.806.292-.515.106-.297.908.218.802 1.696-.35 3.359-.068 5.045-.31.565-.081 1.07-.313 1.61-.485 1.033-.329 2.015-.28 3.078-.206.525.036.522-.795 0-.832" mask="url(#H)"/>
            </g>
            <g transform="translate(0 8.769)">
                <mask id="J" fill="#fff">
                    <use xlink:href="#I"/>
                </mask>
                <path fill="#B5AEAC" d="M10.613 15.288c-1.977.162-3.855-.141-5.78.477-2.178.7-4.247.23-6.475.275-.525.01-.527.842 0 .831 1.954-.04 3.954.443 5.882-.046 1.003-.255 1.898-.629 2.954-.684 1.141-.06 2.276.072 3.419-.022.52-.043.525-.874 0-.831" mask="url(#J)"/>
            </g>
            <g transform="translate(0 8.769)">
                <mask id="L" fill="#fff">
                    <use xlink:href="#K"/>
                </mask>
                <path fill="#B5AEAC" d="M9.903 17.678a37.391 37.391 0 0 1-4.424.164c-1.259-.023-2.3.406-3.527.509-.52.044-.525.875 0 .831 1.209-.101 2.29-.531 3.527-.508a37.395 37.395 0 0 0 4.424-.165c.519-.052.524-.884 0-.831" mask="url(#L)"/>
            </g>
            <g transform="translate(0 8.769)">
                <mask id="N" fill="#fff">
                    <use xlink:href="#M"/>
                </mask>
                <path fill="#2B2731" d="M7.877-.166c-.524.501-.82 1.121-1.124 1.774-.334.716-.733 1.311-1.322 1.788-.239-.471-.492-.958-.616-1.459-.146-.586-.101-1.21-.196-1.806-.084-.527-.872-.303-.789.221.108.676.045 1.37.263 2.028.212.637.55 1.241.834 1.847.093.198.385.262.56.15.678-.439 1.244-.995 1.65-1.705.436-.766.667-1.627 1.318-2.25.384-.367-.195-.954-.578-.588" mask="url(#N)"/>
            </g>
        </g>
        <g>
            <path fill="#544F60" d="M2.823 47.938c-.06.374-.197.726-.526.947-.172.116-.378.163-.565.252a1.45 1.45 0 0 0-.8 1.297.27.27 0 0 0 .037.157c.04.055.11.074.176.088.835.172 1.687-.125 2.488-.418.13-.048.266-.1.352-.21a.751.751 0 0 0 .116-.3c.334-1.484.482-3.011.44-4.533-.005-.159-.03-.242-.185-.261-.184-.022-.38-.008-.564.004a5.03 5.03 0 0 0-1.083.189c.002 0 .12.934.128 1.02.027.351.038.704.033 1.056-.004.228-.01.474-.047.712"/>
            <g transform="translate(2.545 45.013)">
                <mask id="P" fill="#fff">
                    <use xlink:href="#O"/>
                </mask>
                <path fill="#635F70" d="M2.78 3.532c-.053.223-.109.453-.246.636-.294.393-.888.26-1.305.232-.259-.017-.532-.01-.761.116a.874.874 0 0 0-.41.956c.015.06.037.12.072.17.08.118.215.184.35.226.308.095.637.09.96.083.747-.014 1.594-.305 2.263-.627.135-.065.274-.14.36-.263a.97.97 0 0 0 .13-.357c.304-1.397.56-2.805.767-4.22.013-.084.02-.18-.037-.242-.048-.05-.124-.057-.193-.06-.949-.049-1.124-.136-1.357.846-.197.835-.388 1.672-.593 2.504" mask="url(#P)"/>
            </g>
            <path fill="#6E6A82" d="M3.167 8.896c-.145.217-.16.495-.169.757-.066 1.83-.132 3.662-.051 5.49.049 1.119.153 2.235.311 3.342.296-.203.305-.634.29-.997-.12-2.76.13-5.535.742-8.226.18-.793-.734-.945-1.123-.366M9.245 8.899c.074 0 .158.003.206.06.04.046.042.113.043.175.009.987.022 1.977.171 2.952.262 1.702.936 3.327 1.08 5.044.038.453.039.907.04 1.361 0 .404-.074.915-.456 1.024-.355-.87-.71-1.742-.954-2.65-.201-.752-.323-1.523-.467-2.288-.307-1.628-.713-3.234-1.127-4.837-.288-1.112.755-.837 1.464-.841"/>
        </g>
    </g>
</svg>
