<svg xmlns="http://www.w3.org/2000/svg" xmlns:xlink="http://www.w3.org/1999/xlink" width="23" height="61" viewBox="0 0 23 61">
    <defs>
        <path id="a" d="M.123.317h5.304v10.011H.123z"/>
    </defs>
    <g fill="none" fill-rule="evenodd">
        <path fill="#090A01" d="M12.233 57.967c.048.189.103.387.244.523.265.256.696.18 1.052.083A39.166 39.166 0 0 0 15.416 58c.316-.105.658-.235.826-.523.17-.29.103-.677-.095-.95-.2-.272-.508-.446-.825-.563-.442-.163-.962-.263-1.222-.654-.114-.172-.16-.378-.19-.582-.094-.65-.038-1.31-.074-1.964a7.016 7.016 0 0 0-.568-2.397c.073.168-1.584.518-1.693.646-.344.404-.106 1.581-.078 2.088a25.55 25.55 0 0 0 .736 4.866"/>
        <g transform="translate(2.268 50.472)">
            <mask id="b" fill="#fff">
                <use xlink:href="#a"/>
            </mask>
            <path fill="#090A01" d="M2.836 6.504c-.326.652-.653 1.436-.303 2.075.262.477.886.906.664 1.403-.112.253-.422.37-.698.342-.276-.026-.526-.166-.767-.303-.66-.376-1.371-.834-1.56-1.568-.207-.8.285-1.592.723-2.291A27.36 27.36 0 0 0 3 2.074c.251-.608.55-1.433 1.237-1.672.792-.277 1.245.15 1.184.911-.062.767-.927 1.88-1.275 2.573l-1.31 2.618" mask="url(#b)"/>
        </g>
        <path fill="#353535" d="M5.175 50.896c.018.265.041.55.201.755.194.25.528.313.833.342 1.787.173 3.583-.206 5.377-.15.902.027 1.799.164 2.701.19.132.004.275.002.379-.083.131-.108.151-.306.16-.48.07-1.391.102-2.784.097-4.176-.401-.049-.807-.022-1.21 0-2.11.12-4.226.147-6.339.084-.753-.023-2.053-.418-2.39.358-.299.691.142 2.4.191 3.16"/>
        <path fill="#060000" d="M18.993 39.33c.073.179.226.313.387.422.773.524 1.976.503 2.518-.256.269-.376.335-.857.38-1.317.089-.915.662-5.067-1.419-3.596-.713.504-2.163 4.03-1.866 4.747M.392 38.063c.053.456.14.95.482 1.26.405.365 1.072.333 1.516.016 1.19-.847 1.105-3.652-.146-4.443-2.249-1.42-1.987 2.002-1.852 3.167"/>
        <path fill="#EFB59C" d="M0 36.32c.391.311.996.2 1.384-.115.388-.315.611-.783.822-1.236l2.693-5.78c.876 2.876.527 5.96.27 8.954-.32 3.729-.486 7.47-.496 11.213 2.828.177 5.677.01 8.466-.495.688-.125 1.449-.32 1.817-.914.26-.418.26-.94.26-1.432a47.117 47.117 0 0 1 3.207-17.047c.8 2.01 1.189 4.18 1.138 6.341a15.106 15.106 0 0 0 2.393-1.056c.2-.11.407-.233.53-.427.126-.2.145-.447.158-.683a44.86 44.86 0 0 0-3.058-18.905c-.33-.838-.723-1.71-1.466-2.222-.88-.604-2.035-.563-3.1-.5-1.865.113-3.967.242-5.6 1.245-1.261.774-1.664 2.595-2.328 3.86A79.092 79.092 0 0 0 0 36.32"/>
        <path fill="#15493B" d="M18.498 19.101c-.478 2.534-2.041 4.814-2.222 7.387-.057.817.046 1.688.534 2.347.489.659 1.446 1.019 2.172.635.85-.449.995-1.578 1.036-2.535l.151-3.474c.08-1.839.16-3.678.172-5.518.011-1.596.242-3.609-.272-5.146-.604-1.807-1.468-.348-1.467.859.001 1.817.237 3.642-.104 5.445"/>
        <path fill="#492317" d="M18.001.945c-.06-.285-.135-.595-.368-.772-.169-.128-.391-.161-.604-.17-1.554-.066-2.993.926-3.912 2.177-.918 1.25-1.422 2.747-1.984 4.192a46.95 46.95 0 0 1-4.08 8.072c-.215.34-.438.684-.537 1.073-.156.609.011 1.259.285 1.825 1.137 2.351 4.291 3.486 6.673 2.4 1.614-.734 2.714-2.238 3.736-3.683.527-.744 1.055-1.494 1.458-2.312 1.945-3.951.186-8.775-.667-12.802"/>
    </g>
</svg>
