<svg xmlns="http://www.w3.org/2000/svg" xmlns:xlink="http://www.w3.org/1999/xlink" width="19" height="31" viewBox="0 0 19 31">
    <defs>
        <path id="a" d="M2.04.081c-.177.016-.487.016-.64.11-.145.09-.218.32-.283.473-.335.79-.4 1.66-.493 2.503a48.145 48.145 0 0 1-.588 3.746c-.017.088-.028.192.038.251a.259.259 0 0 0 .132.05l.24.042c.038.007.077.012.11-.005.037-.021.053-.067.065-.108.484-1.6 1.55-2.963 2.127-4.53.29-.786.452-1.612.614-2.434.015-.075-.859-.1-1.198-.1-.063 0-.107 0-.124.002z"/>
        <path id="c" d="M.998.59C.72.665.146.622.169.987c.026.4.31.9.451 1.277a37.015 37.015 0 0 0 1.096 2.625c.165.357.336.713.477 1.081.059.154.117.318.242.425.125.107.342.127.44-.006.065-.087.059-.206.05-.314-.172-1.986-.347-3.98-.796-5.922.02.089-1.025.408-1.131.437"/>
        <path id="e" d="M.107.038h2.564v1.297H.107z"/>
        <path id="g" d="M3.003.5c-.264-.02-.731-.158-.96.031-.256.211-.332.91-.436 1.214-.304.883-.65 1.752-1.038 2.603-.187.41-.388.832-.39 1.283-.004.451.255.94.695 1.04.678-.86 1.196-1.835 1.71-2.802l-.028 5.34c-.003.614-.006 1.233.102 1.838.017.1.042.205.119.27.087.074.214.072.328.065l3.732-.207c.543-.03 1.089-.06 1.623-.164a5.953 5.953 0 0 0 1.533-.524c.156-.078.317-.172.396-.328.076-.15.061-.33.044-.497-.329-3.238-.662-6.498-1.57-9.623-1.915.455-3.9.61-5.86.462"/>
        <path id="i" d="M3.003.5c-.264-.02-.731-.158-.96.031-.256.211-.332.91-.436 1.214-.304.883-.65 1.752-1.038 2.603-.187.41-.388.832-.39 1.283-.004.451.255.94.695 1.04.678-.86 1.196-1.835 1.71-2.802l-.028 5.34c-.003.614-.006 1.233.102 1.838.017.1.042.205.119.27.087.074.214.072.328.065l3.732-.207c.543-.03 1.089-.06 1.623-.164a5.953 5.953 0 0 0 1.533-.524c.156-.078.317-.172.396-.328.076-.15.061-.33.044-.497-.329-3.238-.662-6.498-1.57-9.623-1.915.455-3.9.61-5.86.462"/>
        <path id="k" d="M3.003.5c-.264-.02-.731-.158-.96.031-.256.211-.332.91-.436 1.214-.304.883-.65 1.752-1.038 2.603-.187.41-.388.832-.39 1.283-.004.451.255.94.695 1.04.678-.86 1.196-1.835 1.71-2.802l-.028 5.34c-.003.614-.006 1.233.102 1.838.017.1.042.205.119.27.087.074.214.072.328.065l3.732-.207c.543-.03 1.089-.06 1.623-.164a5.953 5.953 0 0 0 1.533-.524c.156-.078.317-.172.396-.328.076-.15.061-.33.044-.497-.329-3.238-.662-6.498-1.57-9.623-1.915.455-3.9.61-5.86.462"/>
        <path id="m" d="M3.003.5c-.264-.02-.731-.158-.96.031-.256.211-.332.91-.436 1.214-.304.883-.65 1.752-1.038 2.603-.187.41-.388.832-.39 1.283-.004.451.255.94.695 1.04.678-.86 1.196-1.835 1.71-2.802l-.028 5.34c-.003.614-.006 1.233.102 1.838.017.1.042.205.119.27.087.074.214.072.328.065l3.732-.207c.543-.03 1.089-.06 1.623-.164a5.953 5.953 0 0 0 1.533-.524c.156-.078.317-.172.396-.328.076-.15.061-.33.044-.497-.329-3.238-.662-6.498-1.57-9.623-1.915.455-3.9.61-5.86.462"/>
        <path id="o" d="M3.003.5c-.264-.02-.731-.158-.96.031-.256.211-.332.91-.436 1.214-.304.883-.65 1.752-1.038 2.603-.187.41-.388.832-.39 1.283-.004.451.255.94.695 1.04.678-.86 1.196-1.835 1.71-2.802l-.028 5.34c-.003.614-.006 1.233.102 1.838.017.1.042.205.119.27.087.074.214.072.328.065l3.732-.207c.543-.03 1.089-.06 1.623-.164a5.953 5.953 0 0 0 1.533-.524c.156-.078.317-.172.396-.328.076-.15.061-.33.044-.497-.329-3.238-.662-6.498-1.57-9.623-1.915.455-3.9.61-5.86.462"/>
        <path id="q" d="M3.003.5c-.264-.02-.731-.158-.96.031-.256.211-.332.91-.436 1.214-.304.883-.65 1.752-1.038 2.603-.187.41-.388.832-.39 1.283-.004.451.255.94.695 1.04.678-.86 1.196-1.835 1.71-2.802l-.028 5.34c-.003.614-.006 1.233.102 1.838.017.1.042.205.119.27.087.074.214.072.328.065l3.732-.207c.543-.03 1.089-.06 1.623-.164a5.953 5.953 0 0 0 1.533-.524c.156-.078.317-.172.396-.328.076-.15.061-.33.044-.497-.329-3.238-.662-6.498-1.57-9.623-1.915.455-3.9.61-5.86.462"/>
        <path id="s" d="M3.003.5c-.264-.02-.731-.158-.96.031-.256.211-.332.91-.436 1.214-.304.883-.65 1.752-1.038 2.603-.187.41-.388.832-.39 1.283-.004.451.255.94.695 1.04.678-.86 1.196-1.835 1.71-2.802l-.028 5.34c-.003.614-.006 1.233.102 1.838.017.1.042.205.119.27.087.074.214.072.328.065l3.732-.207c.543-.03 1.089-.06 1.623-.164a5.953 5.953 0 0 0 1.533-.524c.156-.078.317-.172.396-.328.076-.15.061-.33.044-.497-.329-3.238-.662-6.498-1.57-9.623-1.915.455-3.9.61-5.86.462"/>
        <path id="u" d="M3.003.5c-.264-.02-.731-.158-.96.031-.256.211-.332.91-.436 1.214-.304.883-.65 1.752-1.038 2.603-.187.41-.388.832-.39 1.283-.004.451.255.94.695 1.04.678-.86 1.196-1.835 1.71-2.802l-.028 5.34c-.003.614-.006 1.233.102 1.838.017.1.042.205.119.27.087.074.214.072.328.065l3.732-.207c.543-.03 1.089-.06 1.623-.164a5.953 5.953 0 0 0 1.533-.524c.156-.078.317-.172.396-.328.076-.15.061-.33.044-.497-.329-3.238-.662-6.498-1.57-9.623-1.915.455-3.9.61-5.86.462"/>
        <path id="w" d="M3.003.5c-.264-.02-.731-.158-.96.031-.256.211-.332.91-.436 1.214-.304.883-.65 1.752-1.038 2.603-.187.41-.388.832-.39 1.283-.004.451.255.94.695 1.04.678-.86 1.196-1.835 1.71-2.802l-.028 5.34c-.003.614-.006 1.233.102 1.838.017.1.042.205.119.27.087.074.214.072.328.065l3.732-.207c.543-.03 1.089-.06 1.623-.164a5.953 5.953 0 0 0 1.533-.524c.156-.078.317-.172.396-.328.076-.15.061-.33.044-.497-.329-3.238-.662-6.498-1.57-9.623-1.915.455-3.9.61-5.86.462"/>
        <path id="y" d="M3.003.5c-.264-.02-.731-.158-.96.031-.256.211-.332.91-.436 1.214-.304.883-.65 1.752-1.038 2.603-.187.41-.388.832-.39 1.283-.004.451.255.94.695 1.04.678-.86 1.196-1.835 1.71-2.802l-.028 5.34c-.003.614-.006 1.233.102 1.838.017.1.042.205.119.27.087.074.214.072.328.065l3.732-.207c.543-.03 1.089-.06 1.623-.164a5.953 5.953 0 0 0 1.533-.524c.156-.078.317-.172.396-.328.076-.15.061-.33.044-.497-.329-3.238-.662-6.498-1.57-9.623-1.915.455-3.9.61-5.86.462"/>
        <path id="A" d="M3.003.5c-.264-.02-.731-.158-.96.031-.256.211-.332.91-.436 1.214-.304.883-.65 1.752-1.038 2.603-.187.41-.388.832-.39 1.283-.004.451.255.94.695 1.04.678-.86 1.196-1.835 1.71-2.802l-.028 5.34c-.003.614-.006 1.233.102 1.838.017.1.042.205.119.27.087.074.214.072.328.065l3.732-.207c.543-.03 1.089-.06 1.623-.164a5.953 5.953 0 0 0 1.533-.524c.156-.078.317-.172.396-.328.076-.15.061-.33.044-.497-.329-3.238-.662-6.498-1.57-9.623-1.915.455-3.9.61-5.86.462"/>
        <path id="C" d="M3.003.5c-.264-.02-.731-.158-.96.031-.256.211-.332.91-.436 1.214-.304.883-.65 1.752-1.038 2.603-.187.41-.388.832-.39 1.283-.004.451.255.94.695 1.04.678-.86 1.196-1.835 1.71-2.802l-.028 5.34c-.003.614-.006 1.233.102 1.838.017.1.042.205.119.27.087.074.214.072.328.065l3.732-.207c.543-.03 1.089-.06 1.623-.164a5.953 5.953 0 0 0 1.533-.524c.156-.078.317-.172.396-.328.076-.15.061-.33.044-.497-.329-3.238-.662-6.498-1.57-9.623-1.915.455-3.9.61-5.86.462"/>
        <path id="E" d="M3.003.5c-.264-.02-.731-.158-.96.031-.256.211-.332.91-.436 1.214-.304.883-.65 1.752-1.038 2.603-.187.41-.388.832-.39 1.283-.004.451.255.94.695 1.04.678-.86 1.196-1.835 1.71-2.802l-.028 5.34c-.003.614-.006 1.233.102 1.838.017.1.042.205.119.27.087.074.214.072.328.065l3.732-.207c.543-.03 1.089-.06 1.623-.164a5.953 5.953 0 0 0 1.533-.524c.156-.078.317-.172.396-.328.076-.15.061-.33.044-.497-.329-3.238-.662-6.498-1.57-9.623-1.915.455-3.9.61-5.86.462"/>
        <path id="G" d="M3.003.5c-.264-.02-.731-.158-.96.031-.256.211-.332.91-.436 1.214-.304.883-.65 1.752-1.038 2.603-.187.41-.388.832-.39 1.283-.004.451.255.94.695 1.04.678-.86 1.196-1.835 1.71-2.802l-.028 5.34c-.003.614-.006 1.233.102 1.838.017.1.042.205.119.27.087.074.214.072.328.065l3.732-.207c.543-.03 1.089-.06 1.623-.164a5.953 5.953 0 0 0 1.533-.524c.156-.078.317-.172.396-.328.076-.15.061-.33.044-.497-.329-3.238-.662-6.498-1.57-9.623-1.915.455-3.9.61-5.86.462"/>
        <path id="I" d="M3.003.5c-.264-.02-.731-.158-.96.031-.256.211-.332.91-.436 1.214-.304.883-.65 1.752-1.038 2.603-.187.41-.388.832-.39 1.283-.004.451.255.94.695 1.04.678-.86 1.196-1.835 1.71-2.802l-.028 5.34c-.003.614-.006 1.233.102 1.838.017.1.042.205.119.27.087.074.214.072.328.065l3.732-.207c.543-.03 1.089-.06 1.623-.164a5.953 5.953 0 0 0 1.533-.524c.156-.078.317-.172.396-.328.076-.15.061-.33.044-.497-.329-3.238-.662-6.498-1.57-9.623-1.915.455-3.9.61-5.86.462"/>
        <path id="K" d="M3.003.5c-.264-.02-.731-.158-.96.031-.256.211-.332.91-.436 1.214-.304.883-.65 1.752-1.038 2.603-.187.41-.388.832-.39 1.283-.004.451.255.94.695 1.04.678-.86 1.196-1.835 1.71-2.802l-.028 5.34c-.003.614-.006 1.233.102 1.838.017.1.042.205.119.27.087.074.214.072.328.065l3.732-.207c.543-.03 1.089-.06 1.623-.164a5.953 5.953 0 0 0 1.533-.524c.156-.078.317-.172.396-.328.076-.15.061-.33.044-.497-.329-3.238-.662-6.498-1.57-9.623-1.915.455-3.9.61-5.86.462"/>
        <path id="M" d="M3.003.5c-.264-.02-.731-.158-.96.031-.256.211-.332.91-.436 1.214-.304.883-.65 1.752-1.038 2.603-.187.41-.388.832-.39 1.283-.004.451.255.94.695 1.04.678-.86 1.196-1.835 1.71-2.802l-.028 5.34c-.003.614-.006 1.233.102 1.838.017.1.042.205.119.27.087.074.214.072.328.065l3.732-.207c.543-.03 1.089-.06 1.623-.164a5.953 5.953 0 0 0 1.533-.524c.156-.078.317-.172.396-.328.076-.15.061-.33.044-.497-.329-3.238-.662-6.498-1.57-9.623-1.915.455-3.9.61-5.86.462"/>
        <path id="O" d="M3.003.5c-.264-.02-.731-.158-.96.031-.256.211-.332.91-.436 1.214-.304.883-.65 1.752-1.038 2.603-.187.41-.388.832-.39 1.283-.004.451.255.94.695 1.04.678-.86 1.196-1.835 1.71-2.802l-.028 5.34c-.003.614-.006 1.233.102 1.838.017.1.042.205.119.27.087.074.214.072.328.065l3.732-.207c.543-.03 1.089-.06 1.623-.164a5.953 5.953 0 0 0 1.533-.524c.156-.078.317-.172.396-.328.076-.15.061-.33.044-.497-.329-3.238-.662-6.498-1.57-9.623-1.915.455-3.9.61-5.86.462"/>
        <path id="Q" d="M3.003.5c-.264-.02-.731-.158-.96.031-.256.211-.332.91-.436 1.214-.304.883-.65 1.752-1.038 2.603-.187.41-.388.832-.39 1.283-.004.451.255.94.695 1.04.678-.86 1.196-1.835 1.71-2.802l-.028 5.34c-.003.614-.006 1.233.102 1.838.017.1.042.205.119.27.087.074.214.072.328.065l3.732-.207c.543-.03 1.089-.06 1.623-.164a5.953 5.953 0 0 0 1.533-.524c.156-.078.317-.172.396-.328.076-.15.061-.33.044-.497-.329-3.238-.662-6.498-1.57-9.623-1.915.455-3.9.61-5.86.462"/>
        <path id="S" d="M3.003.5c-.264-.02-.731-.158-.96.031-.256.211-.332.91-.436 1.214-.304.883-.65 1.752-1.038 2.603-.187.41-.388.832-.39 1.283-.004.451.255.94.695 1.04.678-.86 1.196-1.835 1.71-2.802l-.028 5.34c-.003.614-.006 1.233.102 1.838.017.1.042.205.119.27.087.074.214.072.328.065l3.732-.207c.543-.03 1.089-.06 1.623-.164a5.953 5.953 0 0 0 1.533-.524c.156-.078.317-.172.396-.328.076-.15.061-.33.044-.497-.329-3.238-.662-6.498-1.57-9.623-1.915.455-3.9.61-5.86.462"/>
        <path id="U" d="M3.003.5c-.264-.02-.731-.158-.96.031-.256.211-.332.91-.436 1.214-.304.883-.65 1.752-1.038 2.603-.187.41-.388.832-.39 1.283-.004.451.255.94.695 1.04.678-.86 1.196-1.835 1.71-2.802l-.028 5.34c-.003.614-.006 1.233.102 1.838.017.1.042.205.119.27.087.074.214.072.328.065l3.732-.207c.543-.03 1.089-.06 1.623-.164a5.953 5.953 0 0 0 1.533-.524c.156-.078.317-.172.396-.328.076-.15.061-.33.044-.497-.329-3.238-.662-6.498-1.57-9.623-1.915.455-3.9.61-5.86.462"/>
        <path id="W" d="M3.003.5c-.264-.02-.731-.158-.96.031-.256.211-.332.91-.436 1.214-.304.883-.65 1.752-1.038 2.603-.187.41-.388.832-.39 1.283-.004.451.255.94.695 1.04.678-.86 1.196-1.835 1.71-2.802l-.028 5.34c-.003.614-.006 1.233.102 1.838.017.1.042.205.119.27.087.074.214.072.328.065l3.732-.207c.543-.03 1.089-.06 1.623-.164a5.953 5.953 0 0 0 1.533-.524c.156-.078.317-.172.396-.328.076-.15.061-.33.044-.497-.329-3.238-.662-6.498-1.57-9.623-1.915.455-3.9.61-5.86.462"/>
        <path id="Y" d="M3.003.5c-.264-.02-.731-.158-.96.031-.256.211-.332.91-.436 1.214-.304.883-.65 1.752-1.038 2.603-.187.41-.388.832-.39 1.283-.004.451.255.94.695 1.04.678-.86 1.196-1.835 1.71-2.802l-.028 5.34c-.003.614-.006 1.233.102 1.838.017.1.042.205.119.27.087.074.214.072.328.065l3.732-.207c.543-.03 1.089-.06 1.623-.164a5.953 5.953 0 0 0 1.533-.524c.156-.078.317-.172.396-.328.076-.15.061-.33.044-.497-.329-3.238-.662-6.498-1.57-9.623-1.915.455-3.9.61-5.86.462"/>
        <path id="aa" d="M5.685.14c-.305.086-.61.534-.835.746-.636.598-1.297 1.174-2.025 1.656-.803.533-1.693.948-2.649 1.107A8.298 8.298 0 0 1 .503 8.74c2.112.161 4.109 1.43 5.154 3.276 2.3-.256 4.616-.364 6.93-.321.154.003.31.006.458-.038.142-.043.267-.127.39-.208a15.28 15.28 0 0 1 4.907-2.093c-.04-1.145-.063-2.29-.07-3.436-.005-.612.002-1.25.275-1.796A9.127 9.127 0 0 1 13.582.493c-.059-.086-.122-.18-.218-.22-.087-.035-.186-.022-.28-.008-1.987.29-4.013.31-6.006.063C6.763.29 6.265.116 5.895.116a.78.78 0 0 0-.21.025"/>
    </defs>
    <g fill="none" fill-rule="evenodd">
        <g fill="#F5D2B1">
            <path d="M7.858 25.203a48.073 48.073 0 0 1-.587 3.746c-.017.087-.028.192.038.251a.26.26 0 0 0 .131.05l.241.042c.037.006.077.012.11-.006.037-.02.052-.066.065-.107.484-1.6 1.549-2.963 2.126-4.53.29-.787.453-1.613.614-2.434.018-.089-1.211-.108-1.322-.098-.177.016-.486.016-.64.11-.145.09-.217.319-.283.473-.334.79-.4 1.66-.493 2.503M13.9 26.352c.165.358.337.714.478 1.082.058.154.117.318.242.424.125.108.341.127.44-.005.065-.087.058-.206.049-.314-.171-1.986-.347-3.98-.796-5.922.02.089-1.024.408-1.13.437-.278.075-.853.032-.83.397.027.4.311.9.452 1.277a37.442 37.442 0 0 0 1.095 2.624"/>
        </g>
        <g transform="translate(7.235 22.036)">
            <mask id="b" fill="#fff">
                <use xlink:href="#a"/>
            </mask>
            <path fill="#EAEAEF" d="M2.977 1.855c-.063.147.178.233.248.378a.391.391 0 0 1 .024.178 8.888 8.888 0 0 1-.703 3.238C2.2 6.462 1.706 7.25.952 7.71c-.236.144-.503.254-.78.25-.276-.003-.562-.14-.687-.388a1.216 1.216 0 0 1-.1-.413c-.069-.59-.125-1.192-.014-1.776.088-.458.276-.89.42-1.335.134-.417.228-.846.341-1.269.095-.35.179-.84.404-1.135.224-.296.674-.097.982-.044l1.459.256z" mask="url(#b)"/>
        </g>
        <g transform="translate(12.185 21.464)">
            <mask id="d" fill="#fff">
                <use xlink:href="#c"/>
            </mask>
            <path fill="#EAEAEF" d="M2.79 1.756c.055-.016.114-.032.168-.014.05.017.087.062.119.105.282.383.447.839.58 1.296.172.586.295 1.186.37 1.793.05.401.076.818-.052 1.201-.134.402-.424.73-.726 1.026-.146.143-.316.29-.52.295-.176.004-.336-.102-.468-.22-.617-.555-.847-1.409-1.087-2.204-.13-.426-.27-.85-.422-1.269-.1-.275-.48-.88-.362-1.166.121-.292.765-.354 1.026-.432l1.375-.41" mask="url(#d)"/>
        </g>
        <g transform="translate(5.14 28.9)">
            <mask id="f" fill="#fff">
                <use xlink:href="#e"/>
            </mask>
            <path fill="#620000" d="M.198.203C.171.205.141.209.122.23.088.268.12.328.154.366c.19.2.473.275.743.323.37.064.747.095 1.122.09a.506.506 0 0 1 .066.295c-.005.06-.02.125.013.175a.162.162 0 0 0 .06.052c.15.08.36.012.435-.141A.624.624 0 0 0 2.64.917C2.654.678 2.664.44 2.671.2 2.682-.153.463.175.198.203" mask="url(#f)"/>
        </g>
        <path fill="#620000" d="M12.927 28.357c-.098.037-.217.112-.191.214.022.089.135.112.226.116a7.38 7.38 0 0 0 1.79-.135c.028-.006.06-.01.085.003.027.014.04.045.047.074.032.117.03.264.133.328.1.062.239-.007.293-.11.055-.104.048-.228.039-.345-.036-.464-.033-.978-.632-.825-.606.155-1.205.455-1.79.68"/>
        <path fill="#3B3B3D" d="M5.71 15.514c-.188.41-.388.833-.391 1.284-.004.451.256.94.695 1.04.678-.861 1.196-1.835 1.71-2.802l-.028 5.34c-.003.614-.006 1.233.102 1.838.017.1.042.205.12.27.087.074.213.072.327.065l3.732-.207c.544-.03 1.09-.06 1.624-.164a5.952 5.952 0 0 0 1.532-.524c.156-.078.317-.172.396-.328.076-.15.061-.33.044-.497-.329-3.238-.662-6.498-1.57-9.623-1.914.455-3.899.61-5.86.462-.264-.02-.73-.16-.96.03-.256.211-.331.91-.435 1.214-.305.883-.651 1.752-1.039 2.602"/>
        <path fill="#F5D2B1" d="M4.776 17.733c-.149.163-.3.327-.407.52-.178.32-.226.698-.226 1.064 0 .022 0 .046.014.064.014.018.038.025.06.03.312.063.638-.075.876-.286.238-.212.405-.49.567-.764l.28-.47c.173-.292-.234-.525-.488-.599-.312-.09-.485.232-.676.44"/>
        <g>
            <g transform="translate(5.14 11.167)">
                <mask id="h" fill="#fff">
                    <use xlink:href="#g"/>
                </mask>
                <path fill="#EAEAEF" d="M6.481 5.646c-.06-.126-.046-.384.093-.457.173-.091.392-.007.519.122.138.14.241.384.097.518a.317.317 0 0 1-.162.071c-.212.038-.455-.058-.547-.254" mask="url(#h)"/>
            </g>
            <g transform="translate(5.14 11.167)">
                <mask id="j" fill="#fff">
                    <use xlink:href="#i"/>
                </mask>
                <path fill="#EAEAEF" d="M9.204 4.946c.184.029.346.164.409.339.032.089.037.196-.02.271a.277.277 0 0 1-.148.093.471.471 0 0 1-.489-.156.473.473 0 0 1-.04-.512c.09-.052.186-.052.288-.035" mask="url(#j)"/>
            </g>
            <g transform="translate(5.14 11.167)">
                <mask id="l" fill="#fff">
                    <use xlink:href="#k"/>
                </mask>
                <path fill="#EAEAEF" d="M9.381 2.913c-.04-.15-.082-.308-.039-.457.044-.148.207-.272.351-.215a.302.302 0 0 1 .155.17c.07.166.037.387-.113.488-.151.1-.403.007-.414-.174" mask="url(#l)"/>
            </g>
            <g transform="translate(5.14 11.167)">
                <mask id="n" fill="#fff">
                    <use xlink:href="#m"/>
                </mask>
                <path fill="#EAEAEF" d="M6.984 3.439a.388.388 0 0 0 .147.214c.123.081.29.05.423-.013.224-.108.413-.33.4-.58-.01-.175-.19-.395-.377-.39-.169.004-.406.061-.512.207a.688.688 0 0 0-.08.562" mask="url(#n)"/>
            </g>
            <g transform="translate(5.14 11.167)">
                <mask id="p" fill="#fff">
                    <use xlink:href="#o"/>
                </mask>
                <path fill="#EAEAEF" d="M6.707 1.218a.594.594 0 0 1-.236.72c-.114.067-.268.09-.377.014a.382.382 0 0 1-.13-.184 1.177 1.177 0 0 1-.011-.722.22.22 0 0 1 .044-.091c.036-.04.094-.05.148-.054a.545.545 0 0 1 .562.317" mask="url(#p)"/>
            </g>
            <g transform="translate(5.14 11.167)">
                <mask id="r" fill="#fff">
                    <use xlink:href="#q"/>
                </mask>
                <path fill="#EAEAEF" d="M3.722 1.624c.086.214.343.32.572.3a.398.398 0 0 0 .265-.112c.11-.122.071-.326-.038-.437-.126-.129-.485-.31-.665-.21-.12.066-.183.336-.134.459" mask="url(#r)"/>
            </g>
            <g transform="translate(5.14 11.167)">
                <mask id="t" fill="#fff">
                    <use xlink:href="#s"/>
                </mask>
                <path fill="#EAEAEF" d="M2.139 1.184C2.07.829 1.654.98 1.418 1.029c-.12.025-.224.03-.246.183-.018.12.067.238.175.295a.743.743 0 0 0 .356.061.562.562 0 0 0 .299-.066.318.318 0 0 0 .137-.318" mask="url(#t)"/>
            </g>
            <g transform="translate(5.14 11.167)">
                <mask id="v" fill="#fff">
                    <use xlink:href="#u"/>
                </mask>
                <path fill="#EAEAEF" d="M.71 3.96a.46.46 0 0 1-.023-.187c.035-.38.56-.152.722.002.17.162.197.492-.007.608-.13.074-.302.032-.419-.062a.82.82 0 0 1-.273-.36" mask="url(#v)"/>
            </g>
            <g transform="translate(5.14 11.167)">
                <mask id="x" fill="#fff">
                    <use xlink:href="#w"/>
                </mask>
                <path fill="#EAEAEF" d="M2.947 3.504c.13.018.268.023.384-.037a.39.39 0 0 0 .198-.415.404.404 0 0 0-.533-.282.573.573 0 0 0-.219.174.593.593 0 0 0-.128.226c-.057.222.109.306.298.334" mask="url(#x)"/>
            </g>
            <g transform="translate(5.14 11.167)">
                <mask id="z" fill="#fff">
                    <use xlink:href="#y"/>
                </mask>
                <path fill="#EAEAEF" d="M2.657 5.92c.174-.021.279-.226.246-.398a.61.61 0 0 0-.332-.423c-.147-.062-.389-.038-.467.12a.405.405 0 0 0-.026.238.584.584 0 0 0 .084.239c.087.133.337.244.495.225" mask="url(#z)"/>
            </g>
            <g transform="translate(5.14 11.167)">
                <mask id="B" fill="#fff">
                    <use xlink:href="#A"/>
                </mask>
                <path fill="#EAEAEF" d="M3.864 5.702c.113.059.25.055.376.036.091-.013.191-.04.239-.119.056-.093.012-.216-.055-.302-.09-.11-.247-.293-.408-.271a.31.31 0 0 0-.2.13c-.112.152-.145.426.048.526" mask="url(#B)"/>
            </g>
            <g transform="translate(5.14 11.167)">
                <mask id="D" fill="#fff">
                    <use xlink:href="#C"/>
                </mask>
                <path fill="#EAEAEF" d="M5.054 3.423c.006.212.268.37.457.274.189-.095.22-.399.055-.53-.165-.133-.454-.033-.504.173" mask="url(#D)"/>
            </g>
            <g transform="translate(5.14 11.167)">
                <mask id="F" fill="#fff">
                    <use xlink:href="#E"/>
                </mask>
                <path fill="#EAEAEF" d="M5.529 7.133c-.07-.162-.05-.375.149-.435.158-.049.369.088.463.204.099.12.18.258.103.406-.06.115-.178.205-.31.198-.194-.01-.329-.194-.405-.373" mask="url(#F)"/>
            </g>
            <g transform="translate(5.14 11.167)">
                <mask id="H" fill="#fff">
                    <use xlink:href="#G"/>
                </mask>
                <path fill="#EAEAEF" d="M3.943 7.578c-.224.029-.754-.417-.372-.556.2-.073.574.04.607.277.019.134-.101.262-.235.279" mask="url(#H)"/>
            </g>
            <g transform="translate(5.14 11.167)">
                <mask id="J" fill="#fff">
                    <use xlink:href="#I"/>
                </mask>
                <path fill="#EAEAEF" d="M4.868 10.039c-.249-.027-.422-.26-.474-.487a.214.214 0 0 1 .011-.154.21.21 0 0 1 .06-.063.455.455 0 0 1 .422-.059c.11.041.17.186.23.28.046.07.092.147.091.231-.002.16-.182.269-.34.252" mask="url(#J)"/>
            </g>
            <g transform="translate(5.14 11.167)">
                <mask id="L" fill="#fff">
                    <use xlink:href="#K"/>
                </mask>
                <path fill="#EAEAEF" d="M6.83 9.066a.072.072 0 0 1 .008-.005c.125-.068.434-.035.538.067.146.144.164.406.02.558-.137.146-.405.145-.532-.01a.479.479 0 0 1-.091-.32c.002-.085-.026-.236.057-.29" mask="url(#L)"/>
            </g>
            <g transform="translate(5.14 11.167)">
                <mask id="N" fill="#fff">
                    <use xlink:href="#M"/>
                </mask>
                <path fill="#EAEAEF" d="M8.426 7.652c.125-.126.141-.328.104-.495-.038-.176-.287-.157-.431-.149a.409.409 0 0 0-.141.027c-.095.041-.156.198-.169.295-.015.116.02.24.103.323.14.14.395.139.534-.001" mask="url(#N)"/>
            </g>
            <g transform="translate(5.14 11.167)">
                <mask id="P" fill="#fff">
                    <use xlink:href="#O"/>
                </mask>
                <path fill="#EAEAEF" d="M10.597 7.52c.11-.169.054-.468-.143-.554-.172-.075-.47-.019-.544.169a.422.422 0 0 0 .116.473c.169.135.451.093.57-.089" mask="url(#P)"/>
            </g>
            <g transform="translate(5.14 11.167)">
                <mask id="R" fill="#fff">
                    <use xlink:href="#Q"/>
                </mask>
                <path fill="#EAEAEF" d="M9.32 9.212c.062.145.257.27.41.184.138-.077.068-.356.022-.472a.339.339 0 0 0-.061-.104c-.09-.097-.266-.239-.342-.07-.065.145-.093.316-.03.462" mask="url(#R)"/>
            </g>
            <g transform="translate(5.14 11.167)">
                <mask id="T" fill="#fff">
                    <use xlink:href="#S"/>
                </mask>
                <path fill="#EAEAEF" d="M9.211 10.876c.218-.248-.163-.753-.453-.728-.127.01-.231.118-.27.24-.082.262.132.568.406.597a.371.371 0 0 0 .317-.109" mask="url(#T)"/>
            </g>
            <g transform="translate(5.14 11.167)">
                <mask id="V" fill="#fff">
                    <use xlink:href="#U"/>
                </mask>
                <path fill="#EAEAEF" d="M5.815 11.034c.077-.175-.062-.397-.25-.43-.187-.031-.38.106-.437.288-.043.133-.011.3.108.373a.383.383 0 0 0 .209.043c.14-.003.289-.045.374-.156.085-.11.067-.302-.06-.36" mask="url(#V)"/>
            </g>
            <g transform="translate(5.14 11.167)">
                <mask id="X" fill="#fff">
                    <use xlink:href="#W"/>
                </mask>
                <path fill="#EAEAEF" d="M3.192 11.285c.094-.072.088-.168.064-.267-.025-.1-.025-.224-.104-.302-.069-.067-.181-.105-.273-.067-.08.033-.131.116-.155.2a.415.415 0 0 0 .085.395c.098.1.272.128.383.041" mask="url(#X)"/>
            </g>
            <g transform="translate(5.14 11.167)">
                <mask id="Z" fill="#fff">
                    <use xlink:href="#Y"/>
                </mask>
                <path fill="#EAEAEF" d="M2.398 9.29c-.15-.15-.23-.362-.008-.477.187-.096.419-.053.588.06.124.085.21.24.171.386-.04.146-.201.237-.353.231a.618.618 0 0 1-.398-.2" mask="url(#Z)"/>
            </g>
        </g>
        <path fill="#D1D2D4" d="M.176 3.756a8.3 8.3 0 0 1 .327 5.092c2.112.161 4.109 1.43 5.154 3.276 2.3-.256 4.616-.363 6.93-.32.154.002.31.005.458-.04.142-.042.267-.126.39-.206a15.274 15.274 0 0 1 4.907-2.093c-.04-1.145-.063-2.291-.07-3.437-.005-.611.002-1.249.275-1.796A9.129 9.129 0 0 1 13.582.601c-.059-.087-.122-.18-.218-.22-.087-.036-.186-.022-.28-.009-1.987.29-4.013.31-6.006.064C6.698.388 6.05.146 5.685.248c-.305.086-.61.533-.835.746-.636.597-1.297 1.173-2.025 1.655-.803.533-1.693.948-2.649 1.107"/>
        <g transform="translate(0 .107)">
            <mask id="ab" fill="#fff">
                <use xlink:href="#aa"/>
            </mask>
            <path fill="#B1B1B2" d="M20.722 9.473c-3.146-.79-5.99-2.172-8.715-3.911-.638-.408-1.253-.793-1.83-1.222a41.153 41.153 0 0 1 9.266-.068c.365.038.362-.534 0-.572a41.551 41.551 0 0 0-9.208.061c.952-1.296 1.961-2.558 2.918-3.84.22-.294-.276-.58-.494-.288-1.031 1.382-2.143 2.744-3.164 4.158A7.9 7.9 0 0 1 8.402 2.63 16.395 16.395 0 0 0 5.564-.294c-.285-.227-.692.175-.404.405 1.195.952 2.126 2.034 3.066 3.231.173.22.361.42.557.61-1.566.35-2.925.857-4.278 1.833a80.184 80.184 0 0 0-4.6 3.59c-.282.237.124.64.404.405A78.006 78.006 0 0 1 4.794 6.28c1.322-.955 2.669-1.45 4.205-1.788a26.362 26.362 0 0 0-1.081 1.695c-.644 1.107-1.182 2.274-1.709 3.44-.479 1.06-.886 2.114-.856 3.293.009.368.58.37.57 0-.034-1.373.579-2.58 1.144-3.797.515-1.109 1.05-2.211 1.706-3.244.215-.338.44-.672.669-1.003.32 1.464 1.472 2.603 2.227 3.872 1.076 1.813 1.856 3.777 2.593 5.746.128.342.68.194.55-.152-.633-1.694-1.295-3.383-2.145-4.982a20.562 20.562 0 0 0-1.436-2.32c-.468-.653-.967-1.296-1.187-2.062.544.376 1.113.72 1.674 1.078 2.769 1.767 5.658 3.168 8.852 3.97.357.089.51-.463.152-.552" mask="url(#ab)"/>
        </g>
    </g>
</svg>
