<svg xmlns="http://www.w3.org/2000/svg" xmlns:xlink="http://www.w3.org/1999/xlink" width="25" height="51" viewBox="0 0 25 51">
    <defs>
        <path id="a" d="M0 .148h11.442v18.083H0z"/>
        <path id="c" d="M.175.09H6.95v5.976H.175z"/>
    </defs>
    <g fill="none" fill-rule="evenodd">
        <path fill="#595E5F" d="M3.789 44.694c.63.517 1.483.666 2.297.688.125.003.256.003.367-.054.143-.072.23-.226.267-.382.104-.456-.16-.913-.452-1.278a6.256 6.256 0 0 0-1.659-1.444c-.282-.17-.587-.318-.915-.352-.364-.038-.725.07-1.076.176-.112.034-.23.073-.304.164-.147.185.418.965.53 1.18.248.479.523.955.945 1.302M9.254 40.768c.185.174.4.315.624.434.537.285 1.161.45 1.755.326.165-.034.332-.095.443-.222.171-.197.155-.507.028-.735-.126-.228-.34-.393-.554-.543-.431-.305-.881-.582-1.346-.83a2.605 2.605 0 0 0-.554-.236c-.403-.106-.972-.075-1.343.106.134.599.497 1.278.947 1.7"/>
        <path fill="#00596F" d="M1.98 31.53c-.11 1.718-.341 3.429-.346 5.15-.003.835.048 1.67.099 2.505l.157 2.582c.014.226.029.457.116.665.173.416.61.674 1.053.753.443.08.897.009 1.341-.062.16-.025.337-.06.432-.19.067-.091.08-.21.088-.321.062-.934-.117-1.865-.155-2.8-.024-.605.01-1.21.047-1.814.202-3.275.487-6.546.855-9.806.032-.283.184-.656.46-.589.965 1.775 1.307 3.824 1.448 5.84.14 2.017.098 4.049.363 6.053.056.426 1.581.273 1.96.27.166-.001.348-.011.475-.12.148-.126.175-.342.18-.537.022-.757-.11-1.51-.176-2.265-.067-.763-.066-1.53-.065-2.298l.008-8.951c0-.648.001-1.297-.059-1.942-1.162.302-2.334.57-3.52.764-1.099.18-2.255.379-3.349.058-.498-.145-.986-.422-1.5-.352-.38 1.213-.026 2.15.071 3.358.108 1.347.102 2.702.016 4.05"/>
        <path fill="#FFC39D" d="M6.365 2.756c-.397.025-.8.043-1.18.16-.38.116-.744.345-.932.697-.164.306-.179.667-.19 1.014L4.02 5.95c-.043 1.328-.084 2.675.234 3.964.08.325.187.651.393.914.257.328.643.527 1.031.676.642.247 1.43.366 1.968-.062.312-.247.48-.641.534-1.036.054-.395.003-.796-.056-1.19-.06-.408-.131-.819-.291-1.198-.16-.38-.418-.73-.778-.93-.053-.029-.11-.057-.14-.11-.051-.087.002-.206.088-.261.085-.055.191-.063.292-.07.612-.042 1.243-.107 1.777-.408a.875.875 0 0 0 .33-.288c.078-.13.099-.286.112-.437a6.34 6.34 0 0 0-.03-1.389c-.04-.3-.079-1.031-.308-1.248-.244-.23-1.015-.187-1.328-.19-.495-.007-.99.037-1.483.068"/>
        <g transform="translate(0 7.196)">
            <mask id="b" fill="#fff">
                <use xlink:href="#a"/>
            </mask>
            <path fill="#E2938D" d="M2.523 9.107c-.11-.152-.325-.171-.512-.177-.463-.013-1.75.182-1.939-.281-.125-.308-.049-.846-.054-1.177A21.74 21.74 0 0 1 .03 6.287c.023-.613.073-1.233.276-1.812.25-.715.72-1.332 1.237-1.885A11.67 11.67 0 0 1 3.745.75c.14-.09.31-.18.465-.121.157.06.222.244.269.407.15.514.324 1.048.707 1.423.583.57 1.61.593 2.22.052.609-.542.707-1.567.213-2.216.6-.37 1.44.022 1.972.486 1.143.994 1.68 2.538 1.812 4.048.13 1.511-.098 3.027-.238 4.537a39.411 39.411 0 0 0-.09 6.121c.016.256.032.528-.088.755-.084.162-.228.282-.372.393a7.76 7.76 0 0 1-5.456 1.558c-.751-.076-1.486-.262-2.218-.447l-1.468-.373a.526.526 0 0 1-.227-.098c-.1-.088-.118-.234-.13-.368a79.365 79.365 0 0 1-.13-1.895l-.15-2.474c-.014-.243-.2-1.05-.072-1.243.108-.165.84-.228 1.048-.29.133-.04.268-.085.383-.163.21-.143.334-.386.386-.635.052-.249.04-.506.026-.76-.005-.118-.014-.243-.084-.34" mask="url(#b)"/>
        </g>
        <path fill="#EAC3A0" d="M12.082 22.842c-.283.01-.575.023-.828.149-.254.125-.458.397-.413.677.052.32.387.509.697.603.572.176 1.178.196 1.776.215.097.003.2.005.284-.041.107-.059.163-.18.201-.295.095-.289.25-1.163-.064-1.365-.126-.08-.622.02-.775.025l-.878.032"/>
        <path fill="#FFD3A4" d="M16.611 8.432c-.046.623-.091 1.247-.067 1.872.023.602.135 1.25.57 1.668.195.188.441.313.692.415a4.941 4.941 0 0 0 3.02.219c.244-.06.495-.147.659-.337.205-.237.226-.581.205-.895A4.53 4.53 0 0 0 20.155 8.3a4.502 4.502 0 0 0-2.243-1.033c-.29-.045-.76-.154-1.006.056-.266.228-.272.797-.295 1.11"/>
        <path fill="#303C3E" d="M13.418 48.57c-.165.02-.36.063-.422.218-.034.083-.017.178.007.264.163.588.65 1.042 1.198 1.308.547.267 1.156.373 1.756.475.38.065.778.13 1.14 0 .327-.116.582-.374.792-.65.137-.18.263-.377.307-.6.045-.222-.008-.476-.18-.623-.302-.262-.87-.182-1.24-.246-.336-.058-.653-.183-.985-.25-.768-.158-1.605.011-2.373.104M19.255 44.762c-.075.01-.155.023-.21.076-.06.057-.073.148-.08.231-.03.37.003.772.238 1.059.136.164.326.274.517.369.705.35 1.488.541 2.275.557.441.009.9-.043 1.277-.273.377-.231.648-.678.564-1.113a.42.42 0 0 0-.129-.25.539.539 0 0 0-.214-.09c-.598-.153-1.177-.425-1.77-.547-.79-.163-1.673-.122-2.468-.019"/>
        <path fill="#746F70" d="M15.058 46.92c.023.77.05 1.545-.066 2.306 1.075.02 2.148.126 3.206.318.452-1.44.373-2.986.348-4.497a57.906 57.906 0 0 1 .735-10.173c.072-.442.27-.995.718-.999.717 2.347.632 4.852.679 7.306.029 1.498.108 2.996.24 4.49l2.452.175c.165.012.345.02.483-.071.187-.124.227-.378.242-.602.05-.764.012-1.53-.02-2.295a118.402 118.402 0 0 1-.064-7.798c.051-2.076.152-4.195-.427-6.19-.917.825-2.188 1.14-3.417 1.22-1.23.08-2.466-.046-3.696.037-.32.021-1.184-.139-1.43.058-.295.236-.124 1.159-.125 1.504a1112.12 1112.12 0 0 0-.006 3.684c.001 2.475.014 4.949.054 7.423.022 1.368.052 2.737.094 4.105"/>
        <path fill="#EAC3A0" d="M18.91 12.416c.01-.031.021-.064.046-.085.033-.028.08-.027.121-.025l1.323.055c.341.014.705.022.996-.158l.005.978c0 .033 0 .07-.02.096-.026.032-.07.039-.111.042-.887.076-1.76 0-2.644.117.015-.327.185-.7.285-1.02"/>
        <path fill="#FFD3A4" d="M13.4 24.076c-.19 1.904.13 3.84-.146 5.733-.05.349-.108.749.121 1.016.254.294.748.252 1.054.012.305-.24.465-.616.603-.979.688-1.807 1.15-3.695 1.487-5.6.24-1.35.555-2.821.53-4.193-.816-.105-1.913-.214-2.534.454-.794.856-1.004 2.45-1.115 3.557"/>
        <path fill="#238780" d="M21.551 12.783c.196.03.366.148.52.27 1.256 1 2.03 2.513 2.4 4.077.37 1.564.366 3.191.297 4.798a60.313 60.313 0 0 1-.822 7.649c-.027.158-.058.323-.159.447-.097.12-.244.184-.387.241a12.348 12.348 0 0 1-7.914.42c-.264-.074-.542-.17-.71-.386-.14-.182-.181-.421-.204-.65-.11-1.11.094-2.224.296-3.32.12-.65.242-1.305.5-1.912.283-.668.722-1.258 1.044-1.907.98-1.979.79-4.36.095-6.456-.454-1.37.305-2.094 1.517-2.657.418-.194.826-.237 1.28-.281.656-.063 1.623-.424 2.247-.333"/>
        <path fill="#426662" d="M15.658 14.924c-.203.112-.411.23-.55.417-.127.17-.184.38-.238.585-.19.72-.375 1.442-.552 2.165-.13.53-.257 1.08-.167 1.618.016.095.042.193.111.26.063.06.152.083.237.103 1.074.258 2.167.43 3.268.515.146.01-.25-3.864-.313-4.2-.084-.451-.125-1.234-.45-1.598-.379-.424-.936-.09-1.346.135"/>
        <path fill="#764A39" d="M16.706 6.651c-.194.176-.37.387-.43.642-.062.254.017.556.24.692.194.117.445.09.647.19.37.185.417.684.415 1.097l-.005 1.068c.21-.319.506-.579.848-.745.337.301.28.84.15 1.275-.129.433-.3.91-.11 1.32a.49.49 0 0 0 .11.157c.11.1.27.119.418.13.56.044 1.123.053 1.684.025.83-.04 1.757-.219 2.22-.91.277-.414.329-.937.347-1.436.021-.612.004-1.225-.053-1.834-.034-.373-.086-.754-.255-1.089-.216-.428-.612-.746-1.047-.946-.436-.2-.912-.292-1.387-.357-1.419-.195-2.672-.297-3.792.721"/>
        <path fill="#FFC39D" d="M.694 18.455c.32.995.991 1.852 1.798 2.515.806.663 1.746 1.145 2.707 1.552 1.57.664 3.22 1.14 4.903 1.413.368.06.75.11 1.107.001.5-.152.883-.632.922-1.154a.77.77 0 0 0-.101-.48c-.222-.337-.71-.32-1.112-.295A8.06 8.06 0 0 1 5.726 20.5a8.094 8.094 0 0 1-3.05-4.474c-.369-.005-2.32-.232-2.473.04-.086.15.193.971.226 1.172.068.41.137.82.265 1.217"/>
        <g transform="translate(2.616 .201)">
            <mask id="d" fill="#fff">
                <use xlink:href="#c"/>
            </mask>
            <path fill="#6A4D4B" d="M6.75 2.944c-.195.055-.416.015-.61-.061-.24-.095-.46-.24-.706-.319-.5-.158-1.039-.026-1.545.107-.178.047-.36.096-.506.21-.34.265-.158.915-.146 1.29-.215.05-.438.068-.658.052a.74.74 0 0 0-.592-.75.43.43 0 0 0-.315.052c-.135.093-.172.283-.131.443.04.159.143.293.243.423.067.087.167.185.27.145-.01.478-.015.957-.012 1.436.002.286-1.085-.165-1.176-.246-.353-.315-.55-.854-.636-1.308-.16-.857.035-1.77.503-2.505A3.967 3.967 0 0 1 2.752.33c.333-.117.68-.193 1.031-.224.445-.04.9-.007 1.325.13C6.26.606 6.67 1.636 6.94 2.73c.01.037.017.079-.003.111a.13.13 0 0 1-.047.042.586.586 0 0 1-.14.06" mask="url(#d)"/>
        </g>
    </g>
</svg>
