<svg xmlns="http://www.w3.org/2000/svg" xmlns:xlink="http://www.w3.org/1999/xlink" width="26" height="62" viewBox="0 0 26 62">
    <defs>
        <path id="a" d="M.026.27h3.197v3.496H.026z"/>
        <path id="c" d="M.03.158h6.081v4.295H.031z"/>
        <path id="e" d="M0 .105h25.986V10.17H0z"/>
    </defs>
    <g fill="none" fill-rule="evenodd">
        <path fill="#2D1311" d="M10.746 1.758c4.827-.36 9.94.816 13.84 3.18.633.383 1.153 1.018 1.304 1.756.22 1.086-.548 2.128-1.392 2.821-2.698 2.214-6.384 2.55-9.827 2.57-2.72.014-5.479-.118-8.07-.96-1.915-.62-7.866-3.51-5.684-6.292 1.916-2.442 7.068-2.87 9.83-3.075"/>
        <path fill="#88604C" d="M14.59 47.584c.187-2.52.697-5.004 1.206-7.48-.422-.258-.981-.02-1.341.32s-.633.781-1.056 1.038c-.226.138-.497.223-.66.432-.128.161-.171.372-.21.575-.492 2.556-1.003 5.225-.472 7.818.182.893.84 2.326 1.773 1.125.75-.965.674-2.678.76-3.828"/>
        <g transform="translate(12.711 58.076)">
            <mask id="b" fill="#fff">
                <use xlink:href="#a"/>
            </mask>
            <path fill="#31201D" d="M.7.39a.408.408 0 0 0-.222.008C.402.431.353.505.314.578c-.213.4-.247.87-.276 1.324-.023.36-.036.756.185 1.04.124.16.308.261.486.358.342.187.693.377 1.077.444.385.067.816-.01 1.086-.293.218-.23.3-.558.332-.874.055-.55.017-1.792-.496-2.17C2.244.065 1.308.485.7.391" mask="url(#b)"/>
        </g>
        <path fill="#88604C" d="M12.378 16.5a5.307 5.307 0 0 1-1.365 1.721c.385 1.301 1.59 2.317 2.933 2.473.473.055 1.01-.014 1.317-.379.144-.17.221-.387.293-.598.163-.485.446-1.182.247-1.69-.177-.452-.444-.702-.501-1.228-.229-.028-2.936-.275-2.924-.299"/>
        <path fill="#B78865" d="M14.219 52.97c-.133-1.133-.118-2.278-.135-3.418a59.285 59.285 0 0 0-.328-5.396c-.03-.286-.074-.597-.28-.798-.226-.22-.572-.238-.886-.244-.86-.017-1.904.071-2.29.842-.217.433-.141.95-.059 1.427a151.017 151.017 0 0 0 2.81 12.871c.443 1.673 1.977 2.718 2.017.279.03-1.878-.632-3.711-.85-5.563"/>
        <path fill="#21160A" d="M16.486 16.086a3.05 3.05 0 0 1-1.65 1.465c-.705.259-1.509.24-2.201-.052-.405-.17-.776-.437-1.026-.798-.25-.361-.369-.823-.274-1.253.034-.153 2.704.001 2.973.014.495.022.99.054 1.484.097.507.044 1-.075.694.527"/>
        <path fill="#284254" d="M13.835 43.863a26.923 26.923 0 0 0 4.623-10.904c.044-.244.077-.52-.072-.716-.167-.22-.483-.24-.758-.237-3.263.036-6.564.8-9.759.13.111 2.742.44 5.474.983 8.163.179.888.387 1.788.843 2.57.844 1.447 2.908 2.706 4.14.994"/>
        <path fill="#618466" d="M19.242 30.034c.04.84-.006 1.747-.516 2.415-.551.723-1.504.986-2.395 1.162a27.907 27.907 0 0 1-4.528.513c-.745.023-1.506.015-2.218-.21-.712-.224-1.378-.694-1.682-1.377-.366-.822-.17-1.775.731-1.803 1.12-.036 2.328.382 3.487.373 2.408-.018 4.787-.517 7.12-1.073"/>
        <path fill="#B78865" d="M18.753 15.14l2.1.024a10.235 10.235 0 0 1-1.127 5.592c-.324.619-.717 1.217-.865 1.9-.097.449-.082.918-.196 1.363-.113.446-.403.893-.85.995-.358.083-.739-.082-1.004-.338-.266-.255-.438-.591-.598-.923-.326-.676-.63-1.385-.654-2.135-.088-2.717 2.653-4.005 3.194-6.477"/>
        <path fill="#D8D5D4" d="M18.622 24.358a1.56 1.56 0 0 1-1.963-1.162c-.355-1.623-.175-3.404-.252-5.097-.01-.246-.144-.582-.38-.511-.082.025-.14.096-.186.167-.462.71-.34 1.795-1.041 2.269-.634.427-1.503.034-2.06-.488-.558-.523-1.03-1.197-1.754-1.441a.54.54 0 0 0-.266-.036c-.385.069-.32.64-.17 1.003.65 1.586.956 3.314.889 5.029-.028.71-.301 1.604-1.008 1.653-.52.036-1.444.148-1.5-.063-.054-.201-.186.367-.213.573l-.504 3.837c-.038.29-.069.613.103.85.174.242.496.311.789.363 2.91.513 6.006 1.008 8.737-.122.412-.17 1.164-.487 1.346-.94.187-.469-.13-1.21-.212-1.702a26.866 26.866 0 0 1-.355-4.182"/>
        <path fill="#B78865" d="M8.224 16.802c-.627-.754-1.104-1.632-1.797-2.325-1.003-1.003-2.39-1.54-3.783-1.796a.667.667 0 0 0-.25-.012c-.397.082-.321.678-.127 1.035.968 1.78 2.407 3.25 3.593 4.894a20.135 20.135 0 0 1 2.885 5.769c.23.734.493 1.573 1.195 1.882.5.22 1.105.085 1.543-.24.438-.326.727-.817.925-1.327.66-1.707.274-3.636-.784-5.088-.912-1.252-2.422-1.615-3.4-2.792"/>
        <path fill="#E0A16C" d="M13.75 8.572c.128.231-.041.524-.345.598-.08.019-.174.03-.22.083-.124.15.295.34.177.493-.032.04-.094.06-.152.075-1.147.305-2.544.026-3.4-.678-.287-.238-.518-.518-.848-.719-.38-.231-.926-.402-.995-.766-.047-.245.156-.464.349-.654.5-.494.67-.936 1.433-.518.452.248.675.666 1.006.99.326.321.658.57 1.16.732.313.102 1.698.115 1.836.364M10.092 11.274c.337-.257.309-.8-.148-.935-.473-.141-1.152.182-1.423-.15-.09-.11-.077-.248-.12-.372-.098-.282-.483-.467-.858-.5-.374-.034-.742.05-1.097.132-.197-.101-.094-.344.09-.449.184-.104.429-.156.552-.304.28-.334-.325-.75-.85-.776-.525-.025-1.075.121-1.56-.048-.19-.166.024-.41.247-.535.223-.126.497-.295.415-.504-.07-.179-.351-.242-.581-.303-.23-.061-.49-.22-.413-.392.032-.072.115-.12.173-.18.241-.25-.138-.685-.535-.616.259-.38.199-.884-.148-1.24-.347-.357-.962-.548-1.517-.47-.161.022-.323.068-.433.16-.37.305.052.803.47 1.093-.481.09-.721.59-.44.917.148.172.42.363.287.534-.166.214-.702.014-.889.217-.066.07-.06.168-.05.258l.155 1.464c.01.094.021.193.09.274.176.211.586.167.883.27.507.174.565.702.87 1.061.449.53 1.374.632 2.17.767.554.093 1.096.228 1.623.394.953.302 2.114.933 3.037.233"/>
        <path fill="#E0A16C" d="M8.371 5.335c.322.204.739.42 1.108.297a.613.613 0 0 0 .4-.453c.244-1.043-1.55-1.9-1.447-2.96.047-.492.51-.947.352-1.431-.315-.152-.69.056-.941.251l-.932.72c-.353-.149-.177-.726-.573-.751a.406.406 0 0 0-.218.056c-.364.202-.315.623-.395.967-.093.396-.395.735-.597 1.103a2.4 2.4 0 0 0-.29.919 2.038 2.038 0 0 0 .601 1.675c.48.471 1.281.767 2.029.668.058-.007.12-.019.158-.053.036-.032.044-.078.047-.12.02-.275-.099-.558-.324-.777-.202-.197-1.58-1.216-.728-1.434.188-.048 1.437 1.125 1.75 1.323"/>
        <g transform="translate(10.4 .132)">
            <mask id="d" fill="#fff">
                <use xlink:href="#c"/>
            </mask>
            <path fill="#E0A16C" d="M5.198 3.058c.3.081.686.07.846-.131.162-.206.002-.476-.16-.69-.332-.444-.68-.888-1.135-1.263C4.294.6 3.716.294 3.07.192 1.837-.001.572.649.182 1.552c-.39.903.011 1.962.847 2.702.15.134.408.267.58.16.106-.067.11-.19.1-.298-.052-.644-.213-1.321.109-1.906.091-.167.342-.34.533-.224.12.072.116.208.102.322l-.074.57c-.053.403-.02.923.472 1.086.335.11.73-.03.926-.255.197-.226.236-.514.237-.79.002-.25-.033-.494.071-.721.273.362.563.712 1.114.86" mask="url(#d)"/>
        </g>
        <path fill="#E0A16C" d="M21.28 11.958c-.053.363-.397.576-.759.694a.982.982 0 0 1-.496.053c-.332-.064-.622-.358-.954-.443-.197-.05-.385-.02-.572-.01-.974.059-2.108-.421-2.854-1.206-.162-.172-.309-.439-.153-.545l-.833-.524a.634.634 0 0 1-.15-.118.353.353 0 0 1-.074-.248.5.5 0 0 1 .488-.492c.285-.01.637.232.684.503.165-.142.056-.444.163-.63.143-.25.7-.105.816.213.078.217-.034.411-.01.627.037.325.44.656.786.645.449-.013.625-.483 1.047-.565 1.368-.262.696 1.4 1.158 1.652.159.087 1.93-1.103 1.712.394M19.293 8.16c-.28.363-.655.72-1.192.82-.536.1-1.228-.194-1.224-.622.001-.195.137-.368.27-.53l.911-1.12c-.459-.12-.786.297-1.049.597-.345.395-.882.683-1.484.807-.387.079-.932.023-1.03-.282-.106-.324.386-.53.74-.706.386-.192.69-.476.862-.804-1.193.198-1.99 1.232-3.222 1.207-.154-.002-.329-.033-.414-.134-.06-.071-.06-.16-.05-.243.058-.433.393-.831.88-1.043-.445-.05-.89-.1-1.334-.148-.13-.015-.278-.04-.34-.128-.083-.118.047-.253.19-.321.682-.328 1.68-.028 2.357-.361.597-.293.74-.984 1.387-1.208.303-.104.657-.082.994-.058.604.044 1.24.097 1.742.373.427.235.6.597.561.977-.068.662-.422.336.259.872.8.63.775 1.287.186 2.055M21.08 4.42c.209.089.494.08.644-.056.319-.285-.118-.882.314-1.06.086-.036.205-.052.234-.124.038-.096-.114-.17-.233-.217a1.559 1.559 0 0 1-.702-.526c-.137-.192-.207-.408-.357-.594-.324-.4-.945-.581-1.52-.736-.204-.055-.414-.11-.628-.107-.397.006-.726.21-1.024.404-.354.232-.723.479-.874.82-.158.357-.05.754.059 1.13.023.079.049.162.12.223.15.126.42.093.593-.001.175-.094.301-.235.482-.32l.552.568c.12.123.244.25.413.332.849.414.562-.531.995-.587.535-.068.49.666.931.852M23.048 9.085c.164-.025.335-.04.487-.094.252-.088.421-.27.626-.413.205-.143.505-.252.763-.156.21.078.316.274.306.45-.01.177-.115.34-.227.49-.237.321-.516.622-.831.898-.141.123-.293.243-.488.31-.175.061-.372.075-.566.086-.354.02-.722.029-1.059-.07-1.569-.458.195-1.377.989-1.5M24.86 6.843c.09.36-.045.742-.355 1.008-.186.157-.424.272-.66.385-.837.4-2.117 1.089-3.195.867-.753-.154-1.038-.553-.482-.898.509-.317 1.405-.302 1.974-.597.436-.226.718-.58 1.225-.73.141-.041 1.458-.175 1.493-.035"/>
        <path fill="#E0A16C" d="M20.353 5.977c-.357.142-.598.45-.557.764.04.314.387.606.794.638.625.05 1.047-.433 1.582-.668.315-.139.683-.192 1.025-.289.342-.097.681-.259.807-.522.131-.277-.018-.61-.306-.818-.288-.208-.69-.3-1.077-.306-.533-.007-1.07.137-1.589.023-.286-.063-.542-.202-.833-.25-.29-.05-.655.04-.7.263-.029.133.068.265.16.383.47.602.94.886 1.831.787a1.649 1.649 0 0 0-1.137-.005"/>
        <g transform="translate(0 5.636)">
            <mask id="f" fill="#fff">
                <use xlink:href="#e"/>
            </mask>
            <path fill="#7B5932" d="M14.923 5.073c-2.686.386-5.447.481-8.066-.23C4.24 4.132 1.761 2.543.3.105c-.488.898-.282 2.023-.062 3.03C.59 4.751.997 6.47 2.13 7.59c.738.73 1.708 1.122 2.673 1.421 3.698 1.146 7.616 1.156 11.474 1.158 1.387 0 2.794-.002 4.132-.411 1.664-.51 3.128-1.693 4.123-3.214.583-.891 2.195-5.555 1.057-4.713-1.889 1.4-4.008 2.18-5.038 2.418-2.737.634-3.615.534-5.628.824" mask="url(#f)"/>
        </g>
    </g>
</svg>
