<svg xmlns="http://www.w3.org/2000/svg" xmlns:xlink="http://www.w3.org/1999/xlink" width="24" height="58" viewBox="0 0 24 58">
    <defs>
        <path id="a" d="M.024.253h2.951v3.27H.024z"/>
        <path id="c" d="M.029.148H5.64v4.017H.03z"/>
        <path id="e" d="M0 .098h23.987v9.415H0z"/>
    </defs>
    <g fill="none" fill-rule="evenodd">
        <path fill="#2D1311" d="M9.92 1.645c4.455-.336 9.174.763 12.775 2.974.584.359 1.064.953 1.203 1.643.204 1.016-.505 1.991-1.285 2.64-2.49 2.07-5.892 2.385-9.07 2.403-2.512.013-5.058-.11-7.45-.897-1.767-.58-7.26-3.285-5.246-5.887C2.615 2.236 7.37 1.837 9.92 1.645"/>
        <path fill="#88604C" d="M13.467 44.514c.173-2.358.644-4.682 1.114-6.997-.39-.242-.906-.019-1.238.299-.333.318-.584.73-.975.971-.209.13-.458.21-.61.404-.117.151-.157.348-.193.538-.454 2.39-.925 4.888-.436 7.314.169.835.776 2.176 1.638 1.052.69-.903.62-2.505.7-3.581"/>
        <g transform="translate(11.733 54.329)">
            <mask id="b" fill="#fff">
                <use xlink:href="#a"/>
            </mask>
            <path fill="#31201D" d="M.646.365A.372.372 0 0 0 .44.373C.37.403.326.472.29.54.092.915.061 1.355.034 1.78c-.021.336-.033.706.171.972.115.15.284.245.448.335.317.175.64.353.995.415.355.063.753-.01 1.002-.274.201-.215.277-.522.306-.817C3.01 1.896 2.973.734 2.5.38 2.071.061 1.208.454.646.365" mask="url(#b)"/>
        </g>
        <path fill="#88604C" d="M11.425 15.436a4.954 4.954 0 0 1-1.259 1.61c.355 1.217 1.467 2.167 2.707 2.313.437.052.932-.013 1.216-.355.133-.16.204-.362.27-.56.151-.453.412-1.104.228-1.58-.163-.423-.41-.657-.462-1.148-.211-.027-2.71-.258-2.7-.28"/>
        <path fill="#B78865" d="M13.125 49.552c-.123-1.06-.108-2.13-.125-3.197a56.197 56.197 0 0 0-.302-5.048c-.028-.268-.069-.558-.259-.746-.208-.205-.528-.223-.818-.229-.794-.015-1.757.067-2.113.788-.2.405-.13.888-.055 1.335.692 4.05 1.557 8.068 2.594 12.04.409 1.565 1.825 2.543 1.862.261.028-1.756-.583-3.471-.784-5.204"/>
        <path fill="#21160A" d="M15.218 15.049a2.829 2.829 0 0 1-1.523 1.37 2.77 2.77 0 0 1-2.032-.05c-.373-.159-.717-.408-.947-.746-.23-.338-.34-.77-.253-1.171.032-.144 2.496 0 2.744.012.458.02.914.051 1.37.091.468.041.924-.07.64.494"/>
        <path fill="#284254" d="M12.771 41.033a25.365 25.365 0 0 0 4.267-10.2c.04-.228.072-.486-.067-.67-.154-.205-.445-.225-.699-.222-3.012.034-6.06.748-9.008.122.102 2.564.406 5.12.907 7.636.165.831.358 1.673.779 2.404.779 1.354 2.684 2.532 3.821.93"/>
        <path fill="#618466" d="M17.762 28.096c.037.786-.006 1.635-.476 2.26-.51.676-1.389.922-2.21 1.086a25.433 25.433 0 0 1-4.18.48c-.689.022-1.39.014-2.048-.196-.657-.21-1.273-.65-1.553-1.289-.338-.768-.157-1.66.675-1.686 1.035-.033 2.15.357 3.218.35 2.224-.017 4.42-.484 6.574-1.005"/>
        <path fill="#B78865" d="M17.31 14.164l1.938.022a9.684 9.684 0 0 1-1.039 5.231c-.3.578-.662 1.138-.799 1.777-.089.42-.076.859-.181 1.276-.105.416-.371.835-.784.93-.331.077-.682-.077-.927-.316-.246-.239-.404-.553-.552-.864-.3-.631-.582-1.295-.604-1.997-.08-2.541 2.45-3.746 2.948-6.06"/>
        <path fill="#D8D5D4" d="M17.19 22.787c-.8.238-1.634-.26-1.813-1.088-.328-1.518-.16-3.183-.232-4.767-.01-.231-.133-.545-.351-.479-.075.023-.128.09-.171.156-.427.665-.314 1.68-.962 2.123-.585.4-1.387.032-1.901-.457-.515-.489-.952-1.12-1.62-1.348a.492.492 0 0 0-.244-.033c-.356.064-.296.599-.158.938.601 1.484.883 3.1.82 4.704-.025.664-.277 1.501-.93 1.547-.479.033-1.332.138-1.384-.06-.05-.187-.172.344-.196.537l-.465 3.59c-.036.272-.064.573.094.795.16.226.458.291.728.34 2.686.479 5.544.942 8.065-.115.38-.16 1.075-.455 1.243-.88.172-.438-.12-1.13-.196-1.591a25.463 25.463 0 0 1-.328-3.912"/>
        <path fill="#B78865" d="M7.591 15.718c-.579-.705-1.019-1.527-1.659-2.175-.925-.939-2.205-1.441-3.491-1.68a.608.608 0 0 0-.23-.012c-.367.077-.298.635-.118.969.894 1.666 2.222 3.041 3.316 4.578a18.936 18.936 0 0 1 2.664 5.397c.211.686.455 1.472 1.102 1.76.461.206 1.02.08 1.424-.224.405-.305.672-.764.854-1.241.61-1.598.254-3.401-.723-4.76-.842-1.171-2.236-1.511-3.139-2.612"/>
        <path fill="#E0A16C" d="M12.693 8.02c.117.215-.039.49-.319.558-.074.018-.161.028-.203.078-.115.14.272.319.163.461-.03.038-.086.056-.14.07-1.06.286-2.349.025-3.138-.634-.265-.222-.479-.484-.784-.672-.35-.217-.854-.377-.918-.717-.044-.229.144-.434.322-.612.462-.462.62-.875 1.323-.485.417.232.623.624.928.927.302.3.608.533 1.071.684.29.096 1.568.108 1.695.341M9.315 10.546c.312-.24.286-.747-.136-.874-.436-.132-1.063.17-1.314-.14-.082-.103-.07-.233-.11-.349-.09-.264-.446-.436-.792-.468-.345-.031-.685.047-1.013.125-.182-.095-.086-.322.083-.42.17-.098.396-.147.51-.285.258-.312-.3-.702-.785-.726-.484-.023-.992.113-1.439-.045-.176-.155.022-.383.227-.5.206-.118.46-.276.383-.472-.064-.167-.324-.226-.536-.283-.212-.058-.452-.206-.381-.367.03-.067.106-.112.16-.169.222-.232-.128-.64-.495-.575.24-.357.184-.828-.136-1.161-.32-.333-.888-.512-1.4-.44-.15.021-.298.064-.4.15-.34.286.048.751.434 1.023-.445.085-.666.552-.406.858.137.16.387.34.264.5-.152.2-.647.013-.82.202-.06.066-.055.158-.046.241l.142 1.37c.01.088.02.18.083.257.164.197.541.156.816.251.468.164.521.658.802.994.415.496 1.27.59 2.004.717.511.087 1.012.213 1.498.369.88.282 1.951.873 2.803.217"/>
        <path fill="#E0A16C" d="M7.728 4.991c.296.19.68.393 1.022.278.21-.07.329-.247.37-.424.224-.976-1.431-1.778-1.337-2.77.044-.46.47-.885.325-1.338-.29-.142-.636.053-.869.235l-.86.673c-.326-.138-.163-.679-.528-.702a.37.37 0 0 0-.202.052c-.336.19-.29.583-.364.905-.086.37-.365.687-.552 1.032a2.267 2.267 0 0 0-.267.86 1.922 1.922 0 0 0 .555 1.566 2.333 2.333 0 0 0 1.872.626c.054-.007.11-.018.146-.05.034-.03.04-.073.044-.113a.942.942 0 0 0-.3-.727c-.186-.184-1.458-1.137-.672-1.34.174-.046 1.327 1.052 1.617 1.237"/>
        <g transform="translate(9.6 .123)">
            <mask id="d" fill="#fff">
                <use xlink:href="#c"/>
            </mask>
            <path fill="#E0A16C" d="M4.798 2.861c.276.075.633.066.78-.123.15-.192.003-.445-.146-.646-.307-.415-.628-.83-1.048-1.18C3.964.56 3.43.273 2.834.178 1.694 0 .527.608.167 1.452c-.36.844.01 1.835.782 2.528.14.125.376.249.535.149.098-.062.101-.178.093-.278-.048-.603-.197-1.237.1-1.784.084-.156.315-.317.492-.21.11.068.108.196.094.302l-.068.533c-.048.378-.019.864.436 1.016a.841.841 0 0 0 .855-.238c.181-.211.218-.481.218-.74.002-.233-.03-.462.066-.674.252.339.52.666 1.028.805" mask="url(#d)"/>
        </g>
        <path fill="#E0A16C" d="M19.643 11.187c-.049.339-.366.538-.7.648a.896.896 0 0 1-.458.05c-.306-.06-.575-.334-.881-.414-.182-.047-.355-.02-.528-.009-.9.054-1.946-.394-2.634-1.129-.15-.16-.285-.41-.142-.51l-.768-.49a.586.586 0 0 1-.14-.11.333.333 0 0 1-.067-.232.465.465 0 0 1 .45-.46c.264-.01.588.217.631.47.152-.133.052-.415.15-.59.132-.234.647-.097.754.2.073.203-.031.385-.009.586.034.305.405.614.725.604.415-.013.577-.452.967-.528 1.262-.246.643 1.31 1.07 1.545.145.08 1.78-1.032 1.58.369M17.809 7.634c-.258.34-.605.673-1.1.767-.495.093-1.134-.182-1.13-.582.001-.182.127-.344.248-.496l.842-1.048c-.423-.112-.725.278-.968.559-.32.369-.814.639-1.37.754-.357.074-.86.022-.952-.263-.097-.304.357-.496.685-.661.355-.179.636-.445.795-.752-1.102.186-1.838 1.153-2.975 1.13-.142-.003-.303-.031-.381-.126-.056-.067-.056-.15-.046-.227.053-.406.362-.778.811-.976l-1.231-.139c-.12-.013-.256-.036-.314-.12-.076-.11.044-.236.176-.3.63-.306 1.55-.026 2.176-.337.55-.274.682-.92 1.28-1.13.28-.098.606-.077.918-.054.557.041 1.144.09 1.607.348.395.22.555.559.518.915-.063.619-.389.314.239.815.738.59.716 1.204.172 1.923M19.458 4.135c.193.083.457.074.595-.052.294-.267-.11-.826.29-.992.08-.034.19-.049.216-.117.035-.089-.105-.158-.215-.202a1.441 1.441 0 0 1-.649-.493c-.126-.179-.19-.381-.33-.555-.298-.373-.872-.544-1.402-.688-.188-.051-.382-.103-.58-.1-.366.005-.67.196-.944.378-.328.216-.668.448-.807.767-.146.333-.047.705.054 1.056a.401.401 0 0 0 .11.21c.138.117.388.086.548-.002.161-.088.278-.22.445-.3l.51.532a1.4 1.4 0 0 0 .38.31c.784.388.519-.496.919-.548.494-.063.452.623.86.796M21.275 8.5c.152-.025.309-.039.45-.089.233-.083.388-.253.577-.387.19-.134.467-.235.704-.145a.43.43 0 0 1 .283.421c-.01.165-.106.317-.21.458-.218.3-.475.582-.767.84a1.37 1.37 0 0 1-.45.29 1.91 1.91 0 0 1-.522.08c-.327.019-.666.028-.978-.065-1.448-.428.18-1.288.913-1.404M22.947 6.401c.084.337-.04.695-.327.943-.171.148-.391.255-.609.36-.772.375-1.955 1.019-2.95.812-.694-.145-.957-.518-.444-.84.47-.296 1.296-.283 1.822-.559.402-.211.662-.542 1.131-.683.13-.038 1.345-.164 1.377-.033"/>
        <path fill="#E0A16C" d="M18.787 5.592c-.33.132-.552.42-.514.714.038.294.357.567.734.597.576.046.965-.405 1.46-.625.29-.13.63-.18.945-.27.316-.091.63-.242.745-.489.122-.258-.016-.57-.282-.765-.266-.195-.637-.281-.994-.286-.493-.007-.989.128-1.467.021-.264-.059-.5-.188-.768-.234-.268-.046-.606.038-.648.246-.025.125.064.248.15.36.432.562.866.828 1.689.735a1.503 1.503 0 0 0-1.05-.004"/>
        <g transform="translate(0 5.273)">
            <mask id="f" fill="#fff">
                <use xlink:href="#e"/>
            </mask>
            <path fill="#7B5932" d="M13.775 4.745c-2.48.362-5.028.451-7.445-.214C3.913 3.865 1.626 2.379.276.098c-.45.84-.26 1.892-.058 2.834C.545 4.445.92 6.052 1.966 7.1c.681.682 1.577 1.049 2.468 1.329 3.413 1.072 7.03 1.081 10.591 1.083 1.28 0 2.58-.002 3.814-.385 1.536-.477 2.887-1.583 3.806-3.006.538-.834 2.026-5.197.976-4.409-1.744 1.31-3.7 2.039-4.65 2.262-2.527.593-3.337.5-5.196.77" mask="url(#f)"/>
        </g>
    </g>
</svg>
