<svg xmlns="http://www.w3.org/2000/svg" xmlns:xlink="http://www.w3.org/1999/xlink" width="102" height="111" viewBox="0 0 102 111">
    <defs>
        <path id="a" d="M.076.095h8.925v3.067H.076z"/>
        <path id="c" d="M.026.022h14.299v10.533H.025z"/>
    </defs>
    <g fill="none" fill-rule="evenodd">
        <path fill="#A36B58" d="M9.361 53.272c-.105.088-.215.18-.349.211a.88.88 0 0 1-.254.01l-2.538-.151c.693 1.114 1.877 1.808 3.014 2.459l1.046-.875c.379-.317.76-.636 1.079-1.014.176-.208.333-.434.489-.658.54-.781 1.082-1.562 1.623-2.342.24-.346.811-1.327.322-1.711-.36-.283-1.117.876-1.36 1.137a36.835 36.835 0 0 1-3.072 2.934"/>
        <path fill="#151317" d="M10.045 75.83l-.795.844c-.123.13-.246.261-.365.396-.174.2-.337.406-.5.614l-.9 1.144c-.065.082-.76-.223-.76-.223s1.295-1.35 2.136-2.324c.366-.422.71-.863 1.104-1.262.394-.398.835-.75 1.252-1.128a13.519 13.519 0 0 0 2.438-2.925c.054-.087.334.369.344.41.056.237-.03.318-.164.479-.363.437-.833.842-1.23 1.26-.855.904-1.707 1.81-2.56 2.715"/>
        <path fill="#12130F" d="M17.069 75.593c.027-.02.057-.045.063-.08.009-.05-.038-.091-.08-.12l-.234-.165-.77.68c-.154.136-.31.274-.484.382-.153.094-.318.165-.474.253-.178.1-.343.224-.49.366-.03.03-.062.064-.07.106-.011.056.021.111.057.156a.533.533 0 0 0 .29.192c.329.072.78-.59 1.008-.796.38-.342.775-.667 1.184-.974"/>
        <path fill="#8D9FB5" d="M16.934 75.43c.028-.02.058-.045.064-.08.008-.05-.039-.091-.08-.12l-.235-.165-.769.68c-.154.136-.31.274-.485.382-.153.094-.318.164-.474.253-.178.1-.343.224-.489.366-.03.03-.062.064-.07.106-.012.056.02.111.057.156a.533.533 0 0 0 .29.191c.328.072.78-.589 1.008-.795.38-.342.774-.667 1.183-.974"/>
        <path fill="#151317" d="M19.46 80.836l-.678-.334c-.464-.229-.928-.458-1.386-.7a27.5 27.5 0 0 1-2.584-1.551l.2-.333 3.15 1.52c.472.227.946.457 1.371.763.26.188.505.485.357.814-.15-.037-.29-.11-.43-.179M13.855 78.338l-7.117.954.342-.45 6.913-1.233z"/>
        <path fill="#8D9FB5" d="M13.855 77.934l-6.775.908-.126-.454 7.04-1.183z"/>
        <path fill="#12130F" d="M13.585 78.388c.004.016.008.03.015.043.061.121.28.16.398.178.295.049.606.06.894-.03.082-.025.256-.061.313-.13.09-.109.042-.37.07-.51a.806.806 0 0 0-.063-.544c-.165-.32-.629-.364-.95-.326-.193.022-.573.136-.657.301-.107.211-.045.518-.025.742.007.076-.012.194.005.276"/>
        <path fill="#181C1E" d="M21.631 42.863c.204-.713.376-1.453.322-2.196-.054-.743-.366-1.498-.951-1.904-.482-.334-1.083-.398-1.658-.402-.467-.004-1.033.096-1.204.56a.466.466 0 0 0-.031.212c.032.284.359.387.619.456.279.073.555.182.777.377.398.35.557.915.697 1.445.11.42.221.846.23 1.282.005.25-.023.503.014.75.2 1.31 1.027-.028 1.185-.58"/>
        <path fill="#0B0C0C" d="M18.922 38.49a2.234 2.234 0 0 1 2.023.643c.75.79.813 1.996.787 3.087-.01.43-.029.866-.163 1.274-.288.873-1.139 1.528-2.053 1.581-.915.053-1.835-.5-2.221-1.334-.038-.082-.074-.17-.143-.229-.188-.159-.465-.011-.699.069-.252.086-.524.083-.79.079l-2.07-.032c-.06-.001-.126-.004-.171-.045-.038-.034-.052-.088-.06-.14-.04-.271.029-.548.017-.824-.012-.275-.148-.583-.415-.646-.237-.057-.466.1-.681.216a2.244 2.244 0 0 1-1.553.208c-.318-.074-.627-.219-.954-.208-.741.025-1.377.837-2.088.622-.012.289-.33.522-.608.446a44.575 44.575 0 0 1-.07-3.706 5.825 5.825 0 0 0 2.14-1.228c.183-.165.368-.35.609-.406.311-.072.624.09.908.238a14.551 14.551 0 0 0 4.546 1.472c.522.079 1.692.38 2.145.084.234-.153.39-.59.639-.786.27-.214.588-.367.925-.435"/>
        <path fill="#333946" d="M20.506 42.859c-.137.341-.388.672-.747.747-.366.077-.746-.147-.951-.46-.464-.71-.497-2.832.664-2.984 1.19-.155 1.322 1.978 1.034 2.697"/>
        <path fill="#1C201E" d="M15.827 37.223c-.53-.328-1.196-.302-1.818-.265-.568.034-1.144.07-1.684.251a.792.792 0 0 0-.34.191.84.84 0 0 0-.158.304c-.108.31-.191.627-.248.95a.947.947 0 0 0-.008.4.84.84 0 0 0 .152.285c.485.647 1.253.959 2.012 1.149.612.153 1.756.534 2.352.246.53-.257.54-.991.626-1.496.142-.843-.106-1.532-.886-2.015"/>
        <path fill="#333946" d="M17.468 37.206c-.379.309-.904.347-1.392.355a21.272 21.272 0 0 1-4.59-.425l.518-.297c.07-.04.142-.081.22-.104.111-.032.229-.024.344-.018.931.05 1.863.008 2.792-.052.347-.022.638-.02.991.07.123.031 1.11.477 1.117.47"/>
        <path fill="#0B0C0C" d="M12.11 42.423c-.113.36-.139.74-.163 1.117l-.03.447c-.016.241-.026.503.111.701.188.273.566.313.896.327.272.012.584.008.762-.198.102-.118.137-.279.164-.432.069-.391.113-.787.13-1.184.02-.4.005-.824-.206-1.163-.578-.925-1.406-.444-1.665.385M10.539 44.021l1.37-1.576-.14-.122-1.009 1.16c.03-.554.04-1.114.028-1.669l-.186.004c.014.641 0 1.289-.044 1.927l-.02.276z"/>
        <path fill="#0B0C0C" d="M8.901 44.608a.623.623 0 0 0-.207.24.645.645 0 0 0-.027.255l.016.59c.822.125 1.65.2 2.481.224.165.005.336.007.485-.063.317-.147.416-.543.478-.888.028-.156.055-.322-.003-.47-.579-1.472-2.43-.53-3.223.112M10.351 37.997l.186-.007c-.022-.64-.012-1.29.03-1.93.89-.1 1.803-.016 2.686.065.545.05 1.107.102 1.665.111a1.376 1.376 0 0 0-.093.597l.186-.013a1.205 1.205 0 0 1 .133-.632l.072-.137h-.154c-.596-.002-1.204-.058-1.793-.112-.918-.084-1.868-.172-2.8-.055l-.076.01-.005.076c-.048.672-.06 1.354-.037 2.027"/>
        <path fill="#333946" d="M14.626 36.697l.557-.019a25.075 25.075 0 0 1 .02-2.076l-.557-.029a25.56 25.56 0 0 0-.02 2.124"/>
        <path fill="#0B0C0C" d="M9.332 37.191c-.19-.026-.386-.054-.57-.02a.872.872 0 0 0-.622.493l2.332.383-.005-.151c-.004-.217-.01-.44-.147-.555-.122-.102-.461-.118-.71-.13a3.366 3.366 0 0 1-.278-.02zm-1.438.622l.03-.102c.109-.363.432-.654.804-.723.215-.04.435-.009.63.018.067.01.16.014.262.019.304.015.65.03.82.173.202.169.208.448.213.694.002.091.004.177.015.253l.019.127-2.793-.459z"/>
        <path fill="#151317" d="M13.727 77.584c0-.185.283-.334.633-.334.35 0 .633.15.633.334 0 .184-.284.334-.633.334-.35 0-.633-.15-.633-.334"/>
        <path fill="#0B0C0C" d="M15.078 46.421c.003.23.053.458.075.687.022.232.015.465.008.697l-.036 1.251a1.944 1.944 0 0 1-.044.427.995.995 0 0 1-.867.728.984.984 0 0 1-.258-.785c.02-.163.081-.327.049-.488-.03-.153-.14-.277-.202-.42-.172-.401.053-.857.031-1.292-.013-.268-.12-.524-.145-.79-.025-.272.036-.543.096-.808.158-.69.25-1.648 1.156-.97.595.443.125 1.16.137 1.763"/>
        <path fill="#333946" d="M16.28 42.137c0-.066-.004-.14-.047-.191-.048-.057-.13-.07-.203-.078a20.429 20.429 0 0 0-1.82-.12c-.196-.004-.411.001-.563.126-.165.136-.205.369-.231.58-.103.855-.15 1.717-.14 2.577.64.042 2.325.417 2.855-.064.508-.462.162-2.2.15-2.83"/>
        <path fill="#CAD6E3" d="M15.033 49.654v6.484c-.352 0-.7-.002-1.023-.14V49.7c-.039 0-.078-.004-.117-.008.342-.253.797-.291 1.14-.038M15.033 61.81v9.3c-.352 0-.7-.003-1.023-.2v-9.035a.854.854 0 0 1-.117-.01c.342-.365.797-.419 1.14-.055"/>
        <path fill="#1B0F11" d="M15.033 55.765v6.483c-.352 0-.7-.002-1.023-.14V55.81c-.039 0-.078-.004-.117-.008.342-.253.797-.291 1.14-.037"/>
        <path fill="#12130F" d="M20.278 80.393c-2.002-3.015-3.882-6.358-5.545-9.574-.251-.043-.508-.035-.74.07 1.45 2.233 2.956 4.677 4.17 7.047.558 1.09 1.098 2.206 1.885 3.144.137-.25.093-.437.23-.687"/>
        <path fill="#CAD6E3" d="M20.832 80.47s-4.129-6.675-5.754-9.836c-.245-.042-.544.017-.77.12a76.627 76.627 0 0 1 3.906 6.793c.546 1.072 1.843 3.09 1.843 3.09l.775-.167zM9.766 75.83l-.795.844c-.123.13-.246.261-.365.396-.174.2-.337.406-.5.614l-.9 1.144c-.065.082-.135.391-.237.428-.078.03-.524-.65-.524-.65s1.296-1.352 2.138-2.325c.365-.422.709-.863 1.103-1.262.394-.398.835-.75 1.252-1.128a13.533 13.533 0 0 0 2.439-2.925c.053-.087.333.369.343.41.057.237-.03.318-.164.479-.363.437-.833.842-1.23 1.26-.854.904-1.707 1.81-2.56 2.715"/>
        <path fill="#12130F" d="M20.78 80.834a.38.38 0 0 1-.08.19.425.425 0 0 1-.077.062.388.388 0 0 1-.095.053.384.384 0 0 1-.117.012h-.21c-.077 0-.163-.003-.216-.058-.053-.054-.056-.141-.035-.214.022-.072.063-.137.09-.208.005-.013.01-.026.02-.035a.076.076 0 0 1 .022-.013c.172-.074.36-.081.542-.117.101-.02.142-.066.18.025.03.075-.008.226-.023.303"/>
        <path fill="#CAD6E3" d="M14.877 71.518v4.601c0 .429.06.906 0 1.332-.014.097.013.095-.078.162-.176.13-.539.102-.736.058a.34.34 0 0 1-.136-.056c-.185-.141-.072-.862-.072-1.058v-1.833-3.164c-.04 0-.078-.003-.117-.006.342-.239.797-.274 1.14-.036"/>
        <path fill="#151317" d="M6.476 67.014c-.04.002-.088.007-.11.042a.125.125 0 0 0-.012.063l-.018.702c-.004.162-.008.326.028.485a.667.667 0 0 0 .246.406c.155.11.359.121.55.12.079 0 .16-.002.233-.034.11-.048.181-.156.229-.266.102-.234.122-.49.121-.743 0-.19.028-.456-.045-.638-.076-.19-.226-.176-.408-.17l-.814.033"/>
        <path fill="#12130F" d="M13.297 71.11c0-.567.458-1.027 1.023-1.027.566 0 1.024.46 1.024 1.027 0 .568-.458 1.027-1.024 1.027-.565 0-1.023-.46-1.023-1.027"/>
        <path fill="#151317" d="M6.5 78.58c-.01-.003-.021-.006-.03-.003-.013.004-.02.017-.025.028-.08.175-.142.358-.184.546.149.09.317.15.49.17.083.01.175.01.236-.046a.29.29 0 0 0 .067-.11c.065-.163.29-.235.152-.337-.142-.106-.54-.19-.706-.247"/>
        <path fill="#CAD6E3" d="M1.584 79.535C1.115 79.132.817 78.567.4 78.11c-.018-.02-.037-.04-.063-.046-.03-.007-.062.008-.088.024-.226.142-.292.457-.223.715.068.259.24.475.408.683l.342.424c.121.15.242.3.386.428.554.491 1.346.577 2.083.64.678.059 1.225-.525.352-.736-.74-.179-1.394-.175-2.013-.707"/>
        <path fill="#FFF" d="M3.236 80.441l.708-.008c-.017-.222-.173-.414-.363-.53-.19-.115-.41-.167-.625-.217a.544.544 0 0 0 .19.75"/>
        <path fill="#0F1110" d="M3.291 80.353c-.01.064-.031.13-.083.169-.047.034-.11.038-.168.037-.496-.012-.94-.292-1.356-.563a2.874 2.874 0 0 1-.53-.407 2.885 2.885 0 0 1-.307-.41l-.428-.65c-.062-.095-.127-.199-.12-.312.009-.163.165-.282.324-.317.417-.09.797.242 1.095.548.426.437 1.644 1.234 1.573 1.905"/>
        <path fill="#8D9FB5" d="M10.827 69.917c.418.554.913 1.238.637 1.875-.149.343-.484.556-.769.796-.485.41-.853.94-1.271 1.418-.486.557-1.044 1.045-1.598 1.532l-1.95 1.71c-1.003.88-2.008 1.76-3.095 2.532-.103.073-.214.148-.34.155-.204.01-.37-.156-.506-.309L.698 78.232c-.064-.072-.131-.15-.148-.245-.031-.18.12-.333.259-.45l3.113-2.657c.435-.371.872-.743 1.263-1.162.646-.693 1.158-1.5 1.62-2.33.35-.63.674-1.276.97-1.933.258-.573.444-1.646.875-2.089.589-.606.745.103.993.614.33.682.728 1.332 1.184 1.937"/>
        <path fill="#FFF" d="M10.511 85.064c.369.153.401.712.15 1.023-.25.31-.665.428-1.056.506-1.098.22-2.23.267-3.342.14-.165-.018-.335-.043-.478-.128-.144-.084-.255-.245-.233-.41.037-.282.385-.382.665-.42.845-.116 1.66-.278 2.469-.553.528-.18 1.282-.383 1.825-.158"/>
        <path fill="#CAD6E3" d="M10.724 86.314c-.189.203-.47.311-.74.396-1.31.41-2.725.513-4.11.417-.314-.021-.714-.133-.717-.41-.002-.152.135-.283.293-.342.158-.058.335-.06.506-.06.575 0 1.15.05 1.725.033a4.89 4.89 0 0 0 .85-.09c.278-.056.55-.043.822-.118l.544-.152c.139-.038.278-.077.413-.129.148-.057.304-.13.46-.098.058.012.117.043.14.098.019.045.01.096-.005.142a.804.804 0 0 1-.18.313"/>
        <path fill="#0F1110" d="M9.096 84.914c.066-.006.136-.012.197.019.078.04.127.131.17.218.183.362.117.625.113 1.012 0 .132-1.834.458-2.025.473-.51.037-1.046-.076-1.458-.432-.033-.028-.069-.072-.054-.116a.111.111 0 0 1 .037-.047c.4-.347.822-.838 1.317-.984.526-.154 1.163-.093 1.703-.143"/>
        <path fill="#8295A8" d="M4.24 68.918c.121.13.253.257.318.423.057.146.056.308.054.466l-.062 5.52c-.006.56-.013 1.12-.094 1.673-.108.737-.347 1.45-.467 2.184-.123.753-.12 1.52-.118 2.283 0 .855.007 1.71.01 2.564.003.777-.454 3.037.96 2.905.486-.045 1.193-.475 1.662-.655.627-.24 1.243-.549 1.652-1.103a.604.604 0 0 0 .136-.3c.023-.316-.346-.486-.584-.693-.375-.326-.467-.864-.535-1.357L6.93 81.09c-.097-.692-.194-1.388-.175-2.087.014-.52.093-1.035.19-1.546.375-1.975 1.03-3.88 1.565-5.813.257-.929.567-1.901.579-2.863.014-1.081.108-2.168.162-3.249-.924.08-1.86.02-2.768-.176-.382-.083-.764-.19-1.155-.209-.34-.016-.69.033-1.014-.072-.198-.064-.378-.184-.584-.216-.356-.054-.687.398-.768.717-.097.38.038.829.154 1.189.233.727.596 1.586 1.124 2.153"/>
        <path fill="#B67B63" d="M14.451 50.896a.699.699 0 0 1 .38.078c.743.398-1.615 5.046-1.945 5.555-1.142 1.765-3.146 1.327-5.08 1.114-.158-.017-.362-.086-.356-.247.004-.073.055-.134.103-.19.422-.49.843-1.76 1.36-2.068.75-.446 1.872.135 2.722-.244.946-.422 1.34-1.534 1.623-2.534.11-.39.225-.793.49-1.098.177-.203.441-.348.703-.366"/>
        <path fill="#090A0B" d="M7.435 54.136c.566.37 1.177.668 1.815.887-.414.923-.847 1.873-1.587 2.561a5.52 5.52 0 0 0 1.021.141c-.49.406-.491 1.151-.398 1.782.099.665.257 1.329.556 1.93.159.32.357.625.445.97.09.357.057.732.023 1.098-.008.09-.019.186-.074.257a.459.459 0 0 1-.202.128 5.483 5.483 0 0 1-1.07.307c-1.209.216-2.443.013-3.612-.315-.24-.068-.643-.114-.845-.26-.233-.169-.16-.307-.177-.614-.065-1.153-.48-2.286-.73-3.409l-.79-3.558c-.076-.34-.152-.683-.142-1.031.01-.348.117-.706.36-.954.313-.318.786-.401 1.228-.45 1.442-.161 2.927-.287 4.179.53"/>
        <path fill="#B67B63" d="M8.182 49.722c.074.12.047.269-.046.375a.644.644 0 0 0-.122.21c-.082.232-.024.49-.05.735-.04.382-.292.724-.62.923-.327.2-.721.268-1.104.249a.352.352 0 0 1-.173-.041c-.06-.038-.093-.106-.123-.17-.32-.692-.622-1.424-.59-2.185.014-.335.094-.665.192-.986.096-.314.214-.627.412-.888.199-.261.601-.64.929-.725.38-.097.458.386.576.703.057.152.43 1.328.72 1.8"/>
        <path fill="#090A0B" d="M8.024 49.464c-.048.17-.148.323-.295.392a.382.382 0 0 1-.122.036c-.174.02-.334-.116-.403-.277-.19-.441.069-.555-.522-.557-.11 0-1.13.1-1.145.072a.381.381 0 0 1-.002-.328 15.846 15.846 0 0 1 1.883-.14c.272-.003.477.034.587.294a.796.796 0 0 1 .019.508M3.236 65.298c.518.043 1.01.158 1.515.241.95.157 1.94.198 2.923.237.303.013.606.025.91.017.31-.008.523.048.653-.218.096-.199.1-.572.052-.784-.077-.337-.197-.254-.551-.235-.632.034-1.262.115-1.897.104-.732-.014-1.441-.147-2.156-.244-.242-.033-1.215-.223-1.34-.071-.088.108-.042.322-.054.443l-.055.51"/>
        <path fill="#1C201E" d="M3.265 64.346v.035c.448-.096 1.04.136 1.489.207.996.157 2.034.197 3.064.237.317.012.635.024.953.016.142-.003.315.08.414-.066a.55.55 0 0 0 .069-.268l.065-.802c.003-.037.003-.08-.025-.103-.02-.017-.05-.018-.076-.018-.757.003-1.51.137-2.273.124-.767-.014-1.51-.147-2.26-.244-.341-.044-.687-.13-1.032-.127-.57.004-.395.546-.388 1.009"/>
        <path fill="#151317" d="M6.839 68.592c.05-.002.105-.006.144-.038.038-.03.054-.081.067-.129l.46-1.599c.088-.305.176-.61.259-.916.025-.093.102-.287.064-.381-.05-.126-.238-.083-.377-.092a12.163 12.163 0 0 1-.635-.056c-.189-.021-.307-.095-.398.068-.107.193-.146.472-.215.683-.134.412-.29.822-.403 1.24a1.662 1.662 0 0 0-.014.846c.125.465.624.39 1.048.374"/>
        <path fill="#CAD6E3" d="M6.462 67.003c-.11-.05-.221-.098-.332-.147a2.231 2.231 0 0 0-.098.63c0-.008.946.263 1.028.27a2.82 2.82 0 0 0 .074-.282l.065-.303c-.25-.06-.491-.063-.737-.168"/>
        <path fill="#151317" d="M5.732 66.244c-.15.455-.3.91-.448 1.365-.533-.298-1.176-.308-1.753-.51a.22.22 0 0 1-.103-.06c-.038-.048-.032-.116-.037-.177-.022-.262-.273-.489-.216-.745.015-.07.053-.134.089-.197a3.36 3.36 0 0 0 .409-1.259 5.847 5.847 0 0 1 1.478.402c.18.075.627.155.74.326.13.197-.094.658-.16.855"/>
        <path fill="#492317" d="M5.965 50.534c-.021-.247-.036-.504.056-.734.112-.279.363-.475.525-.728.274-.428.27-.973.256-1.482-.003-.105-.01-.22-.08-.297a.374.374 0 0 0-.187-.098c-.382-.101-.802-.01-1.171-.152-.293-.11-.522-.356-.82-.451a1.14 1.14 0 0 0-.667.011c-.558.166-.986.639-1.236 1.167s-.349 1.113-.444 1.69l-.032.194c-.2 1.209-.401 2.422-.425 3.647-.011.605.02 1.21.066 1.814.017.218 3.349.024 3.669-.024.386-.058 1.273-.079 1.289-.556.009-.262-.19-.639-.258-.897a18.06 18.06 0 0 1-.541-3.104"/>
        <path fill="#38130B" d="M6.08 46.322l.876-.014a.572.572 0 0 1 .224.026c.159.065.226.27.181.435-.045.166-.175.296-.317.392-.319.217-.713.305-1.098.295-.338-.01-1.507-.123-1.367-.635.14-.509 1.116-.493 1.502-.499"/>
        <path fill="#663531" d="M33.792 35.606c.028-.451.056-.903.132-1.349.124-.714.374-1.418.337-2.143-.01-.174-.033-.359.045-.515.149-.298.558-.32.89-.299.297.019.602.04.871.167.597.278.868 1.011.827 1.67-.04.66-.325 1.276-.566 1.892a15.392 15.392 0 0 0-.782 2.699c-.024.122-.05.251-.134.341-.104.11-.27.133-.42.138-1.73.053-1.278-1.321-1.2-2.601"/>
        <path fill="#C69B93" d="M33.762 37.763l1.37.099c.054.004.117.012.146.058.022.035.018.08.012.122l-.22 1.631c-.046.341-1.607.23-1.818-.06-.376-.516.36-1.337.51-1.85"/>
        <path fill="#170D0A" d="M32.996 39.69c-.138.261-.244.54-.313.826-.043.178-.072.365-.023.541.072.262.3.446.514.611l.932.72c.236.182.475.366.749.48.274.114.593.152.867.037.274-.115.483-.408.442-.703-.029-.204-.163-.374-.28-.543a4.092 4.092 0 0 1-.717-2.04c-.02-.29-1.946-.354-2.171.071"/>
        <path fill="#663531" d="M27.323 36.695l.026 1.544c0 .074.005.156.056.21.044.046.11.06.172.07l.527.095a.57.57 0 0 0 .271.004.55.55 0 0 0 .232-.18c.606-.693 1.06-1.502 1.428-2.342.324-.743.884-1.808.931-2.623.03-.507-.323-.515-.782-.67-.326-.112-.666-.234-1.011-.264-.665-.057-1.091.25-1.387.837-.51 1.016-.476 2.213-.463 3.319"/>
        <path fill="#070706" d="M32.933 3.644c0-.16.032-.317.064-.472l.163-.784c.074-.359.152-.727.33-1.028.297-.505.839-.74 1.35-.713.512.026.999.278 1.443.586.299.207.592.45.78.798.307.567.27 1.353-.035 1.922-.306.568-.845.919-1.401.998-.72.102-2.694-.025-2.694-1.307"/>
        <path fill="#703E34" d="M33.863 5.323l.017-.02a3.92 3.92 0 0 0 1.763.249c.063-.006.129-.013.188.01.137.055.164.233.184.38.121.89 1.171 1.47 1.165 2.152-.006.766-1.001 1.43-1.643 1.587-1.038.253-3.02-.163-3.297-1.394-.22-.977 1.016-2.278 1.623-2.964"/>
        <path fill="#663531" d="M37.485 19.125c-.083.193-.152.422-.05.606.103.183.45.186.475-.023.027.285.413.404.674.289.261-.116.43-.368.614-.587.474-.56 1.096-.9 1.645-1.356.581-.482 1.037-1.26 1.45-1.887.142-.218.286-.461.258-.72-.017-.156-.097-.298-.176-.435a25.183 25.183 0 0 0-1.544-2.358 6.031 6.031 0 0 0-1.549 1.371l.985 1.502c-1.056 1.12-2.163 2.158-2.782 3.598M29.701 16.973c.17.21.35.427.417.69.069.262-.01.585-.251.708-.344.174-.724-.138-.988-.42a35.545 35.545 0 0 0-3.32-3.122c-.316-.26-.656-.547-.747-.947-.138-.608.362-1.178.894-1.501.07-.042.148-.084.228-.07.065.01.118.055.167.098 1.497 1.332 2.36 3.02 3.6 4.564"/>
        <path fill="#170D0A" d="M36.87 23.878c.443-.188.842-.473 1.292-.646.166.172.177.437.177.677a41.737 41.737 0 0 1-.69 7.45c-.038.208-.084.429-.232.58-.197.204-.512.223-.794.216-1.035-.026-2.223-.343-2.638-1.294-.127-.29-.165-.609-.198-.924-.16-1.535-.472-3.483-.12-5.003.125-.541.399-.724.938-.76.788-.05 1.51.024 2.264-.296"/>
        <path fill="#170D0A" d="M28.563 31.31c-.096.262-.209.537-.16.812.056.32.318.562.587.742a3.72 3.72 0 0 0 3.047.475c.402-.115.797-.31 1.058-.638.462-.58.398-1.4.432-2.142.072-1.59.692-3.095 1.22-4.596.272-.775.52-1.635.22-2.4-.171-.435-.504-.785-.827-1.122l-1.175-1.223c-.111-.116-.23-.236-.383-.28-.151-.045-.312-.009-.465.028-.594.14-1.224.309-1.63.765-.874.983-1.161 2.83-1.225 4.115-.046.942-.074 1.887-.162 2.826-.043.458-.1.914-.19 1.365-.075.385-.347.893-.347 1.272"/>
        <path fill="#C69B93" d="M32.537 7.98c.153.525.637.901 1.156 1.067.52.166 1.077.154 1.621.134.576-.023 1.227-.09 1.58-.549.201-.261.27-.614.506-.845.415-.404 1.144-.219 1.55.194.406.413.603.983.894 1.485.346.598.84 1.123 1.038 1.785.07.237.102.487.2.714.254.583.711.91.61 1.602-.087.58-.451 1.07-.882 1.449-.277.245-.735.583-1.134.516-.417-.07-.567-.54-.785-.887.188 2.531.373 5.107-.182 7.583-.047.21-.101.422-.211.607-.26.435-.774.633-1.25.802-1.07.378-2.223.76-3.314.452-.651-.183-1.21-.596-1.783-.957a12.582 12.582 0 0 0-2.666-1.264 47.423 47.423 0 0 0-.429-8.97c-.676.07-.974.884-1.507 1.307-.089.07-.193.132-.306.132-.106 0-.203-.056-.293-.112-.611-.379-1.701-1.093-1.67-1.859.037-.86.846-1.824 1.424-2.387.714-.694 1.568-1.224 2.428-1.724 1.214-.706 2.561-1.391 3.865-1.86.082.195-.065.331-.19.499-.24.321-.388.677-.27 1.086"/>
        <path fill="#151317" d="M32.696 13.34c-.008.19.037.424.242.496.136.047.298-.001.402-.092a.66.66 0 0 0 .189-.338 1.38 1.38 0 0 0 .008-.683c-.052-.216-.26-.536-.558-.374-.259.143-.274.757-.283.99M36.427 14.676c-.008.192.037.425.242.497.136.048.299 0 .402-.091a.66.66 0 0 0 .19-.339c.06-.224.062-.459.008-.683-.052-.216-.262-.536-.558-.373-.26.142-.275.756-.284.99"/>
        <path stroke="#151317" stroke-width=".5" d="M36.918 13.74c-.153-1.78-.149-3.57.011-5.349M33.198 12.432l-.546-4.852c-.051-.454-.046-1.012.408-1.244M36.903 13.683a69.665 69.665 0 0 1-4.027-4.504"/>
        <path fill="#663531" d="M36.48 2.874c-.307-.002-.602.024-.887-.061-.388-.116-.616-.415-1.075-.344a1.211 1.211 0 0 0-.43.166c-.512.306-.843.84-.988 1.401-.05.193.51 2.249.665 2.41.39.404.837.758 1.326 1.047.579.342.936.397 1.378-.152.239-.296.472-.603.601-.956.138-.378.149-.786.158-1.185l.045-1.962c-.162-.02-.244-.196-.38-.284-.118-.076-.27-.08-.414-.08"/>
        <path fill="#C69B93" d="M27.21 38.208l1.37.1c.054.004.117.012.146.058.022.035.018.08.012.122l-.22 1.631c-.046.341-1.607.23-1.818-.06-.376-.516.36-1.337.51-1.85"/>
        <path fill="#170D0A" d="M26.411 39.69c-.138.261-.243.54-.313.826-.043.178-.072.365-.023.541.073.262.3.446.514.611l.932.72c.236.182.475.366.75.48.274.114.592.152.866.037.274-.115.483-.408.442-.703-.029-.204-.163-.374-.28-.543a4.094 4.094 0 0 1-.717-2.04c-.02-.29-1.945-.354-2.171.071"/>
        <path fill="#141311" d="M29.273 22.303c.008.09.022.182.008.272-.021.135-.102.251-.173.368-.296.492-.422 1.066-.543 1.628l.579.26c.152.07.311.14.478.13.383-.022.608-.43.76-.783l.722-1.68a.912.912 0 0 0 .091-.307c.01-.18-.093-.354-.23-.473-.718-.627-1.803-.615-1.692.585"/>
        <path fill="#6A131A" d="M29.939 23.717a4.691 4.691 0 0 1-.87-.186l-.03.348c.164.027.323.08.47.155.058.03.122.064.184.045.124-.039.114-.24.226-.306"/>
        <path stroke="#141311" stroke-width=".5" d="M30.715 21.878l.43-1.17c.175-.476.351-.955.623-1.381"/>
        <path stroke="#141614" stroke-width=".5" d="M47.311 35.54c-.026.856-.017 1.722.177 2.557.128.55.336 1.079.543 1.605.115.292.23.586.399.852.318.504.804-.992 1.28-.633"/>
        <path fill="#4F301F" d="M52.052 42.863c.034-.125.068-.262.02-.383-.058-.145-.216-.22-.363-.271a3.256 3.256 0 0 0-.664-.154c-.077-.01-.16-.015-.227.025a.36.36 0 0 0-.118.146c-.585 1.08-.708 2.344-.819 3.568l-.093 1.029c-.033.369-.067.746.024 1.105.09.36.33.703.682.815 1.336.424.984-1.531 1.008-2.201.045-1.242.229-2.479.55-3.679"/>
        <path fill="#190C0A" d="M51.688 47.927c-.305.301-.735.47-1.162.457-.16-.005-.333-.03-.467.056-.116.076-.17.217-.205.352-.152.576-.101 1.184-.049 1.777.014.15.034.315.146.416a.59.59 0 0 0 .26.113c1.644.409 3.349.567 5.039.468.124-.007.265-.025.337-.126a.433.433 0 0 0 .06-.224c.047-.642.187-.854-.404-1.034-.481-.147-.966-.142-1.445-.35-.29-.125-2.413-1.467-2.11-1.905"/>
        <path fill="#613927" d="M50.198 46.748a38.65 38.65 0 0 1 1.587-5.332 6.956 6.956 0 0 0-1.554-.354c-.411-.045-.851-.045-1.206.19-.508.339-.688 1.049-.804 1.694a29.286 29.286 0 0 0-.34 7.738c.014.165.04.35.162.445.162.126.382.019.55-.097.494-.341 1.158-.742 1.293-1.397.188-.919.102-1.936.312-2.887"/>
        <path fill="#0B0C0C" d="M54.282 33.4c.299-.039.6.023.894.086.155.92.312 1.845.324 2.778.006.479-.026.957-.049 1.436-.095 1.976-.04.228.166 2.196.048.458.082.984-.24 1.31-.268.272-.687.304-1.066.32l-1.62.069c-.43-3.063-.618-2.427-.561-5.52.021-1.181.867-2.51 2.152-2.675"/>
        <path fill="#0B0C0C" d="M53.524 38.312c.033 1.298.066.733-.05 2.026-.064.731-.176-.407-.219.325a23.144 23.144 0 0 0-.007 1.877c-1.71.332-3.304.306-4.996.138.103-1.17.58-.32.644-1.499.07-1.273.117-.681.14-1.956a4.65 4.65 0 0 0-.029-.764c-.041-.28-.132-.548-.208-.82-.239-.862-.322-1.76-.404-2.652-.025-.269-.05-.542.006-.807.115-.55.562-1.001.601-1.561.76.11 1.454.479 2.164.774.497.207 1.027.383 1.57.397.157.004.55-.111.657-.006.11.11.034.69.037.845l.094 3.683"/>
        <path fill="#190C0A" d="M47.07 52.467c-.01.2-.016.42.11.575.096.118.248.171.393.217a16.98 16.98 0 0 0 5.256.796c.373-.003.81-.053 1-.376.163-.274.06-.644-.153-.882s-.512-.375-.8-.51c-1.027-.482-2.112-1.113-2.49-2.185-.048-.134-.091-.284-.21-.36-.14-.089-.332-.036-.46.07-.127.105-.212.252-.314.382-.554.703-1.021.39-1.711.49-.748.108-.586 1.18-.62 1.783"/>
        <path fill="#4F301F" d="M56.629 24.984c.083-.182.124-.384.235-.55.223-.334.658-.438 1.053-.506.075.143.104.31.082.47-.155-.025-.308.081-.387.217-.08.137-.102.298-.123.455-.053.405.252.653.283 1.06a.263.263 0 0 1-.018.138.288.288 0 0 1-.091.095 3.816 3.816 0 0 1-1.03.518l-.632.2c-.263.084-.571.162-.799.005-.387-.265-.236-1.057.128-1.286.197-.125.486-.094.702-.205.258-.132.476-.346.597-.61"/>
        <path fill="#CAD6E3" d="M47.971 36.49c-.196-.157-.34-.368-.482-.576-.183-.267-.369-.542-.437-.858-.022-.1-.03-.209.02-.297.048-.087.144-.137.24-.165.73-.21 1.314.559 1.625 1.11.401.71-.316 1.305-.966.786"/>
        <path fill="#5E8C6B" d="M48.02 29.909a9.586 9.586 0 0 1-.083 2.053c-.015.098-.031.2-.014.297.019.111.078.21.137.306.373.613.773 1.252 1.397 1.605.373.21.801.303 1.19.483.312.144.596.342.91.48.315.138.68.211 1 .09.618-.233.78-1.012 1.13-1.573a.454.454 0 0 1 .181-.185c.114-.053.246-.013.37.006.535.086 1.08-.22 1.397-.662.316-.442.436-.997.472-1.54.137-2.039-.79-4.013-.816-6.056-.007-.599.059-1.222-.17-1.774-.06-.144-.138-.28-.187-.427-.07-.208-.077-.431-.093-.65-.033-.43-.105-.857-.177-1.283-.085-.506-.193-1.054-.578-1.392-.512-.449-1.28-.344-1.958-.387-.699-.045-1.374-.273-2.07-.345a1.01 1.01 0 0 0-.26-.002c-.298.048-.503.318-.665.573A11.319 11.319 0 0 0 47.5 23.91c-.26 1.741.283 3.483.276 5.243 0 .296.005.581.243.756"/>
        <path fill="#613927" d="M51.684 28.457c.31.065.626.087.942.11l2.606.183c.498.035 1.044.092 1.393.45.136.141.233.335.207.529-.023.165-.13.305-.234.436l-.563.713c-.09.113-.198.236-.342.239-.116.002-.215-.075-.306-.146-.604-.468-1.327-.816-2.089-.844-.368-.014-.733.046-1.1.083-1.394.14-2.797-.066-4.184-.27-.258-.038-.537-.088-.71-.282-.171-.192-.19-.472-.202-.729-.031-.728-.054-1.497.286-2.141.17-.325.791-.412 1.117-.4.153.004 1.162.18 1.138.42-.031.312-.184.67-.18.974.004.323.19.236.484.261.596.05 1.155.293 1.737.414"/>
        <path fill="#516660" d="M50.852 25.152c.211-.45.424-.904.532-1.389.108-.485.104-1.01-.11-1.46-.212-.448-.66-.802-1.155-.811-.465-.009-.883.268-1.25.556-.2.157-.395.321-.556.519-.411.503-.559 1.167-.68 1.806a48.683 48.683 0 0 0-.432 2.68c.017-.127 1.078-.071 1.194-.059.419.045.804.28 1.202.33.375.048.483-.53.63-.843l.625-1.33"/>
        <path fill="#1C201E" d="M47.428 32.624c-.379.227-.48.727-.496 1.17-.016.454.019.91.105 1.356.422-.072.875.07 1.182.37.218.213.39.514.688.576.03.007.064.01.09-.005.031-.018.045-.055.055-.089.17-.557.128-1.162-.022-1.724-.188-.706-.566-2.275-1.602-1.654"/>
        <path stroke="#141614" stroke-width=".569" d="M55.779 50.48c.495-9.056.99-14.382 1.485-23.439l.872-15.97c.154-2.813.313-5.656 1.123-8.352"/>
        <path fill="#613927" d="M58.02 24.407c.253-.062.517.112.642.342.125.23.142.501.148.762.006.23-.002.485-.158.654-.111.12-.277.173-.439.204a.998.998 0 0 1-.267.02c-.357-.03-.628-.377-.67-.733-.065-.537.2-1.116.744-1.25"/>
        <path fill="#8295A8" d="M62.216 3.453c-.748.79-2.187.285-3.088.176-1.374-.167-2.77.227-4.162.157-1.153-.058-1.352-.952-.275-1.672.294-.197.607-.375.95-.463.538-.138 1.103-.045 1.654.022 1.384.168 2.738.117 4.12.002.7-.057.77-.257 1.052.33.188.39.033 1.146-.251 1.448"/>
        <g transform="translate(53.452 .15)">
            <mask id="b" fill="#fff">
                <use xlink:href="#a"/>
            </mask>
            <path fill="#CAD6E3" d="M8.49.154C8.379.086 8.24.092 8.11.1L1.795.488C1.376.514.926.55.592.807c-.586.45-.555 1.33-.468 2.065.01.085.024.177.087.234.073.067.185.06.284.05l5.62-.594c.44-.047.884-.094 1.313-.207.72-.19 2.42-1.365 1.062-2.2" mask="url(#b)"/>
        </g>
        <path fill="#613927" d="M50.641 19.784c.213.136.444.241.674.309l1.099.326c.088.027.189.052.269.006a.348.348 0 0 0 .117-.138c.579-1 1.118-2.024 1.615-3.068-.46-.07-.845-.369-1.255-.588-.41-.22-.932-.36-1.325-.111-.507.32-.61 1.051-.934 1.52-.104.15-.196.524-.325.624-.125.097-.528.042-.705.1-.021.008-.043.017-.055.036-.017.027-.005.062.009.091.168.365.468.671.816.893"/>
        <path fill="#613927" d="M51.77 14.502c-.003-.144.18-.206.323-.222.903-.103 1.815-.13 2.722-.08.086.005.174.01.255.04.129.046.231.148.314.258.483.641.39 1.54.195 2.32-.157.632-.374 1.266-.783 1.771-.41.506-1.042.866-1.688.804a1.105 1.105 0 0 1-.55-.193c-.195-.143-.321-.36-.425-.58-.454-.958-.86-2.683-.027-3.546.272-.283.583-.532.92-.738"/>
        <path fill="#210B0C" d="M52.21 16.642c.075.162.148.361.049.51-.085.126-.255.153-.401.195-.582.164-.981.697-1.259 1.236-.022.042-.05.09-.098.094-.07.005-.102-.087-.097-.156.01-.133.072-.255.107-.383.11-.394-.034-.815-.228-1.175-.193-.36-.439-.698-.557-1.09-.119-.39-.077-.87.233-1.134.198-.169.466-.222.72-.269.242-.045.484-.09.73-.1.548-.026 1.094.116 1.643.09-.288.398-.557.827-.88 1.198-.11.128-.314.257-.277.446.033.167.24.376.315.538"/>
        <path fill="#141311" d="M49.986 15.518a.716.716 0 0 1 1.23-.702c.062.078.105.169.147.259.178.391.557 1.242-.022 1.514-.33.154-.682-.148-.92-.423-.173-.197-.348-.401-.435-.648"/>
        <path stroke="#141311" stroke-width=".5" d="M51.474 16.463c.275.551.464 1.145.56 1.755.046.29.07.591-.02.87-.014.048-.034.097-.074.125a.236.236 0 0 1-.127.032c-.417.02-.828-.102-1.246-.118-.417-.016-.887.11-1.09.477M54.687 16.122l-2.477.52"/>
        <path fill="#1C201E" d="M54.508 16.812c.101.06.217.098.337.124.119.026.243.041.37.031.331-.024.684-.235.837-.541.154-.306.068-.686-.215-.808a1.074 1.074 0 0 0-.25-.063l-.355-.06c-.33-.055-.87-.154-1.037.274-.152.393-.01.851.313 1.043"/>
        <path fill="#1C1413" d="M57.49 14.666c.035.233-.214.4-.431.491-2.127.89-4.586.652-6.75-.14-.29-.105-.613-.262-.68-.563a.812.812 0 0 1 .027-.38c.253-.971 1.13-1.747 2.122-1.878a3.276 3.276 0 0 1 1.123.067c1.231.27 1.418.908 2.125 1.742.396.467.378.425 1.032.548.135.025 1.421.044 1.432.113"/>
        <path fill="#B0BAE7" d="M51.35 13.944c.194-.302.464-.548.751-.762.264-.197.548-.372.861-.47.313-.099.66-.115.967.001-.379-.387-1.027-.388-1.509-.143-.482.245-.834.684-1.158 1.119-.207.279-.417.579-.453.925a.447.447 0 0 0 .045.28c.217.355.22-.176.24-.3.037-.231.13-.454.256-.65"/>
        <path stroke="#1C201E" stroke-width=".5" d="M53.056 15.58l-.981.884"/>
        <path fill="#DEC290" d="M81.733 92.995c.378.07.77-.09 1.063-.34.356-.302 1.64-1.84.686-1.94-.876-.093-1.511 1.695-1.749 2.28"/>
        <path fill="#090A0B" d="M94.052 104.532c.002.154.013.325.124.43.198.187.534.008.67-.228.138-.236.189-.527.384-.717.23-.224.63-.272.762-.566.101-.225-.008-.483-.117-.705-.142-.29-.321-.613-.634-.691-1.609-.401-1.207 1.574-1.19 2.477M87.513 108.313c-.378.312-.868.446-1.347.547-.387.082-.79.153-1.117.374-.328.222-.56.644-.427 1.018.169.478.777.598 1.281.624 1.691.088 3.392-.027 5.056-.341.048-.01.1-.02.133-.057.038-.042.039-.105.038-.162l-.06-4.587c-.006-.468-.032-.986-.357-1.322-.702-.726-2.043-.003-2.373.79-.443 1.061.258 2.222-.827 3.116"/>
        <path fill="#170D0A" d="M90.27 99.702c-.277.693-.54 1.526-.118 2.14.184.269.477.45.654.723.127.197.185.43.246.657.356 1.33.864 2.619 1.512 3.833a10.226 10.226 0 0 0-5.624 1.355l-.06-10.705c-.002-.451-.004-.91.113-1.345.26-.97 1.124-1.73 2.104-1.935.8-.168 2.733.038 2.796 1.118.033.568-.561 1.49-.767 2.009l-.857 2.15M95.462 92.71l-2.492.41c-.07.01-.146.026-.19.08-.044.054-.045.129-.044.198l.095 7.536c.007.531.031 1.112.38 1.511.206.236.502.375.803.458.813.224 1.989.058 2.594-.592.59-.633.207-1.746.112-2.536a63.392 63.392 0 0 0-1.258-7.065"/>
        <path fill="#FFF" d="M87.608 78.033l.032-.71a50.343 50.343 0 0 1 2.451-1.498l.296 1.103a6.948 6.948 0 0 0-2.558 1.334"/>
        <path fill="#492317" d="M95.48 84.248c.209-.085.436-.191.527-.398.064-.144.049-.31.032-.466l-.366-3.486c-.074-.7-.155-1.424-.512-2.029-.493-.836-1.457-1.313-2.42-1.407-.963-.093-1.928.153-2.835.491-1.136.424-2.248 1.022-3.01 1.967-.095.117-.186.243-.215.39-.075.375.255.692.436 1.028.338.632.15 1.405.223 2.118.044.435.187.854.33 1.268.17.5.406 1.964.866 2.206.436.23 1.882-.233 2.355-.323.476-.091 4.589-.91 4.589-1.359M96.308 92.663c.023.198.045.394.065.586.052.487.099 1.007-.123 1.443-.405.796-1.447.933-2.314 1.134-.666.154-1.307.4-1.975.545-1.58.343-3.222.104-4.822-.136-.127-.019-.27-.048-.341-.157-.075-.116-.033-.268.011-.4.359-1.058.894-2.182 1.08-3.282.176-1.033.178-2.158.283-3.209.096-.952-.063-2.007.088-2.918 2.493.075 4.694-.016 6.9-1.39-.035 1.298.097 2.296.38 3.524.365 1.33.603 2.857.768 4.26"/>
        <g transform="translate(87.534 91.215)">
            <mask id="d" fill="#fff">
                <use xlink:href="#c"/>
            </mask>
            <path fill="#CAD6E3" d="M.575.022C.552.005.129.265.086.3-.025.385.042.566.094.677c.052.11.172.209.251.3.188.216.378.43.572.64.383.418.78.821 1.205 1.195.682.6 1.43 1.117 2.177 1.634l1.978 1.368c.694.48 1.389.96 2.12 1.381.527.304 1.073.576 1.597.886 1.4.828 2.725 2.064 4.33 2.474-.618-.996-2.392-1.923-3.358-2.667A811.695 811.695 0 0 0 .575.022" mask="url(#d)"/>
        </g>
        <path fill="#1E1813" d="M87.538 91.786c-.271-.416-.69-1.139-.961-1.555-.057-.088-.117-.187-.099-.29.025-.141.191-.22.332-.198.14.021.26.112.372.201.34.27.93 1.32.968 1.332"/>
        <path fill="#170D0A" d="M89.907 85.524l4.669-1.448c.287-.087.444-.147.69-.335.138.154.124.388.101.595a6.193 6.193 0 0 1-.14.878c-.033.128-.077.259-.169.353-.07.073-.164.118-.255.163-.443.22-.894.383-1.347.55-.52.19-1.082.222-1.635.251l-2.64.14c-.376.02-1.199-.189-.9-.767.131-.257 1.335-.29 1.626-.38"/>
        <path fill="#EAEAEA" d="M95.162 84.036c-.149-.64-.265-1.289-.288-2.005-.021-.692-.007-1.384.003-2.076.005-.4.221-1.605 0-1.926.362.526.93.87 1.364 1.34.971 1.049 1.28 2.706 1.826 3.999.779 1.846.411 3.953.031 5.92-.052.276-.142.596-.405.69-1.957.702-1.815-2.953-2.006-3.822-.162-.74-.363-1.424-.525-2.12M81.622 90.25c.702-.546.975-1.463 1.312-2.289 1.039-2.55 3.024-4.736 3.468-7.456.061-.376.109-.791.388-1.049.385-.357 1.021-.223 1.452.078.856.597 1.25 1.697 1.258 2.743.007 1.047-.316 2.063-.636 3.06l-.579 1.803c-.321 1.003-.649 2.018-1.209 2.909-.642 1.022-1.393 1.914-2.655 1.759-.282-.035-3.124-1.306-2.8-1.558M89.49 77.882c.061-.015.124-.03.186-.043.626-.133 1.134-1.403.182-1.413-.226-.003-2.484.35-2.485.493l-.005 1.19c-.001.215.015.466.19.59.033.022.838-.446.936-.487a5.56 5.56 0 0 1 .987-.305c.335-.074.652-.263.975-.389.376-.147.76-.273 1.15-.377.29-.078.59-.146.843-.311-.944-.06-1.825-.502-2.762-.63"/>
        <path fill="#210B0C" d="M92.35 72.659l.02.05c.373.94 1.036 2.126 1.855 2.731.948.702 1.982 1.313 2.758 2.202.777.889 1.26 2.157.854 3.267l-.505-1.083c.23.55.23 1.193 0 1.743a20.705 20.705 0 0 0-1.423-2.448c-.317-.468-.659-.928-1.105-1.274-.693-.538-1.579-.754-2.444-.892-.969-.154-1.966-.23-2.944-.114-.757.09-1.632.583-2.082-.24-.563-1.03-.05-2.684.292-3.706.172-.512.37-1.172.794-1.51.682-.542 1.83-.702 2.667-.649.084.005.17.013.248.045a.71.71 0 0 1 .271.229c.377.474.525 1.083.745 1.649"/>
        <path fill="#6A131A" d="M88.883 72.343c-.468.1-.952.223-1.32.531-.366.309-.578.857-.36 1.285.21.41 5.096-.554 5.22-1.13.293-1.357-3.05-.792-3.54-.686"/>
    </g>
</svg>
