<svg xmlns="http://www.w3.org/2000/svg" xmlns:xlink="http://www.w3.org/1999/xlink" width="30" height="61" viewBox="0 0 30 61">
    <defs>
        <path id="a" d="M0 .177h13.73v21.628H0z"/>
        <path id="c" d="M.21.108h8.13v7.148H.21z"/>
    </defs>
    <g fill="none" fill-rule="evenodd">
        <path fill="#595E5F" d="M4.547 53.457c.756.618 1.78.797 2.756.823.15.004.307.004.44-.064.173-.086.277-.27.32-.457.126-.546-.19-1.092-.542-1.529a7.5 7.5 0 0 0-1.99-1.727c-.34-.202-.705-.38-1.098-.42-.437-.046-.87.083-1.291.21-.135.04-.277.087-.365.196-.176.22.502 1.155.635 1.411.298.573.628 1.143 1.135 1.557M11.104 48.762c.223.208.48.376.75.519.643.34 1.393.538 2.106.39.197-.04.399-.114.531-.265.206-.236.186-.607.034-.88s-.41-.47-.665-.65a15.115 15.115 0 0 0-1.616-.992 3.132 3.132 0 0 0-.664-.282c-.483-.127-1.166-.09-1.611.126.16.717.595 1.529 1.135 2.034"/>
        <path fill="#00596F" d="M2.375 37.713c-.13 2.054-.408 4.1-.415 6.158-.003 1 .059 2 .12 2.997l.188 3.089c.017.27.035.546.139.795.208.498.732.806 1.264.9.531.096 1.076.011 1.61-.073.191-.03.403-.072.518-.228.08-.109.096-.25.105-.384.074-1.117-.14-2.23-.186-3.349-.029-.723.012-1.447.057-2.17.242-3.917.584-7.829 1.025-11.728.038-.338.222-.785.552-.704C8.511 35.139 8.92 37.589 9.09 40c.17 2.412.117 4.842.436 7.24.067.509 1.897.326 2.35.322.201-.001.419-.013.572-.143.177-.151.21-.41.216-.642.027-.906-.132-1.806-.211-2.71-.08-.913-.08-1.83-.08-2.748l.01-10.707c.002-.775.002-1.551-.07-2.323a46.967 46.967 0 0 1-4.224.915c-1.318.215-2.706.453-4.018.07-.598-.175-1.184-.506-1.8-.422-.456 1.451-.032 2.572.085 4.016.13 1.612.122 3.232.02 4.844"/>
        <path fill="#FFC39D" d="M7.638 3.297c-.477.03-.96.05-1.416.19-.457.14-.893.414-1.119.834-.196.366-.214.798-.227 1.213l-.052 1.584c-.052 1.588-.101 3.2.281 4.741.097.388.225.78.472 1.094.308.392.771.63 1.237.808.77.295 1.715.437 2.361-.074.374-.296.577-.767.641-1.24.065-.472.004-.952-.067-1.423-.073-.488-.158-.98-.35-1.433-.192-.454-.501-.874-.933-1.112-.063-.034-.132-.069-.168-.131-.062-.105.002-.247.105-.313.102-.066.23-.076.351-.084.734-.05 1.492-.128 2.132-.488.154-.087.304-.193.396-.344.094-.155.119-.342.135-.523a7.56 7.56 0 0 0-.037-1.66c-.047-.36-.094-1.234-.37-1.494-.292-.276-1.217-.223-1.592-.227-.595-.008-1.188.045-1.78.082"/>
        <g transform="translate(0 8.607)">
            <mask id="b" fill="#fff">
                <use xlink:href="#a"/>
            </mask>
            <path fill="#E2938D" d="M3.028 10.892c-.132-.181-.39-.204-.615-.21-.556-.017-2.1.217-2.326-.338-.15-.368-.059-1.011-.065-1.407-.009-.473-.004-.945.014-1.417.027-.733.088-1.475.331-2.168.3-.855.865-1.593 1.485-2.254a13.994 13.994 0 0 1 2.642-2.2c.168-.109.371-.217.558-.146.188.073.266.293.323.487.18.615.39 1.254.848 1.702.7.68 1.933.71 2.664.062.73-.647.849-1.874.256-2.65.72-.444 1.727.026 2.366.581 1.371 1.189 2.017 3.035 2.174 4.842.157 1.807-.116 3.62-.285 5.426a46.986 46.986 0 0 0-.108 7.322c.02.306.038.632-.105.903-.102.193-.274.337-.447.47a9.333 9.333 0 0 1-6.547 1.864c-.902-.091-1.784-.314-2.662-.536l-1.761-.445a.632.632 0 0 1-.273-.117c-.12-.106-.142-.281-.155-.44a94.621 94.621 0 0 1-.156-2.267l-.18-2.96c-.018-.29-.24-1.254-.087-1.487.13-.196 1.008-.271 1.257-.346.16-.049.321-.101.46-.195.252-.17.401-.462.463-.76.063-.297.047-.605.032-.909-.007-.14-.017-.29-.1-.407" mask="url(#b)"/>
        </g>
        <path fill="#EAC3A0" d="M14.498 27.32c-.339.013-.69.028-.994.179-.303.15-.549.475-.495.81.062.383.465.608.837.721.686.21 1.413.234 2.13.258.117.003.24.006.342-.05.128-.07.195-.214.24-.353.115-.345.3-1.39-.076-1.632-.151-.097-.746.023-.93.03l-1.054.038"/>
        <path fill="#FFD3A4" d="M19.933 10.085c-.055.746-.109 1.492-.08 2.239.028.72.162 1.496.683 1.995.234.225.53.375.831.497a5.947 5.947 0 0 0 3.625.261c.292-.071.593-.175.79-.402.246-.284.271-.696.246-1.07a5.413 5.413 0 0 0-1.843-3.678 5.41 5.41 0 0 0-2.69-1.235c-.349-.054-.912-.184-1.208.067-.319.272-.327.954-.354 1.326"/>
        <path fill="#303C3E" d="M16.101 58.094c-.198.024-.431.075-.506.26-.04.1-.02.213.008.317.197.703.781 1.245 1.438 1.564.657.319 1.388.445 2.107.568.455.078.934.154 1.37 0 .39-.139.697-.448.949-.778.165-.215.316-.451.369-.718.053-.266-.01-.568-.216-.745-.363-.312-1.046-.218-1.489-.294-.402-.07-.783-.219-1.182-.3-.921-.188-1.925.015-2.848.126M23.106 53.54c-.09.01-.186.026-.252.09-.072.068-.088.176-.096.276-.037.442.003.924.286 1.267.163.196.39.328.62.44a6.483 6.483 0 0 0 2.73.667c.53.01 1.08-.05 1.533-.327.452-.276.777-.81.676-1.33a.502.502 0 0 0-.154-.299.648.648 0 0 0-.258-.108c-.716-.183-1.411-.509-2.123-.655-.949-.194-2.008-.145-2.962-.022"/>
        <path fill="#746F70" d="M18.069 56.12c.028.921.06 1.848-.08 2.758 1.291.024 2.58.151 3.849.38.542-1.723.447-3.571.418-5.378-.066-4.071.23-8.149.882-12.168.085-.529.324-1.19.86-1.195.86 2.808.76 5.803.815 8.738.035 1.793.13 3.584.288 5.37l2.943.21c.199.015.413.025.58-.084.224-.149.272-.453.29-.721.06-.913.014-1.83-.024-2.745a141.156 141.156 0 0 1-.077-9.326c.062-2.484.182-5.018-.512-7.404-1.1.987-2.625 1.363-4.1 1.458-1.476.096-2.96-.054-4.435.045-.384.026-1.421-.166-1.716.07-.355.281-.15 1.386-.151 1.798-.004 1.47-.008 2.938-.007 4.407.002 2.96.017 5.92.065 8.878.026 1.637.062 3.274.112 4.91"/>
        <path fill="#EAC3A0" d="M22.693 14.85c.011-.037.024-.076.054-.101.04-.033.095-.033.146-.03l1.587.066c.41.016.847.026 1.195-.189l.006 1.17c0 .04 0 .083-.025.114-.03.039-.084.046-.132.05-1.065.09-2.112 0-3.173.14.018-.39.223-.836.342-1.22"/>
        <path fill="#FFD3A4" d="M16.08 28.796c-.228 2.278.156 4.593-.175 6.857-.061.418-.13.897.146 1.216.303.352.897.302 1.263.015.366-.287.558-.737.724-1.171.826-2.162 1.38-4.42 1.785-6.698.288-1.615.665-3.375.636-5.016-.98-.125-2.296-.256-3.041.543-.953 1.024-1.204 2.93-1.337 4.254"/>
        <path fill="#238780" d="M25.861 15.29c.235.034.439.176.624.323 1.507 1.196 2.437 3.005 2.88 4.876.444 1.87.44 3.817.356 5.738a71.911 71.911 0 0 1-.986 9.15c-.032.188-.07.385-.19.534-.117.143-.294.22-.465.289a14.863 14.863 0 0 1-9.497.502c-.316-.09-.65-.203-.852-.462-.169-.218-.217-.504-.245-.778-.131-1.327.113-2.66.356-3.97.144-.777.29-1.561.6-2.288.34-.798.866-1.504 1.252-2.28 1.176-2.367.95-5.216.114-7.722-.545-1.639.366-2.505 1.82-3.178.503-.232.992-.284 1.537-.336.787-.076 1.947-.507 2.696-.398"/>
        <path fill="#426662" d="M18.79 17.85c-.244.134-.494.276-.66.5-.152.202-.22.453-.286.698-.229.862-.45 1.725-.663 2.59-.156.635-.308 1.291-.2 1.936.02.113.05.23.133.31.076.072.183.1.285.124 1.288.308 2.6.514 3.921.615.176.013-.3-4.622-.375-5.022-.101-.54-.15-1.477-.54-1.913-.455-.507-1.123-.107-1.615.162"/>
        <path fill="#764A39" d="M20.047 7.956c-.232.21-.443.463-.517.766-.074.304.022.666.29.828.232.141.534.108.776.229.443.22.5.817.498 1.311l-.006 1.278a2.55 2.55 0 0 1 1.017-.891c.405.36.336 1.005.18 1.524-.154.518-.36 1.088-.13 1.579.032.07.074.137.13.188.133.12.323.142.501.156.673.053 1.349.062 2.022.03.995-.049 2.108-.262 2.663-1.088.333-.497.395-1.122.417-1.72.026-.73.005-1.464-.063-2.192-.042-.447-.104-.902-.307-1.303-.26-.512-.734-.892-1.256-1.132-.523-.239-1.095-.348-1.664-.426-1.703-.233-3.207-.356-4.551.863"/>
        <path fill="#FFC39D" d="M.833 22.073c.384 1.19 1.19 2.215 2.158 3.009.967.793 2.094 1.37 3.248 1.856a25.785 25.785 0 0 0 5.884 1.69c.44.072.9.13 1.327.002.6-.182 1.06-.756 1.107-1.381.015-.199-.012-.407-.121-.573-.266-.404-.851-.384-1.334-.353a9.695 9.695 0 0 1-6.23-1.804 9.68 9.68 0 0 1-3.662-5.35c-.441-.006-2.783-.278-2.967.046-.102.181.232 1.163.271 1.403.082.49.165.981.319 1.455"/>
        <g transform="translate(3.14 .24)">
            <mask id="d" fill="#fff">
                <use xlink:href="#c"/>
            </mask>
            <path fill="#6A4D4B" d="M8.1 3.521c-.233.066-.5.018-.73-.073-.29-.113-.554-.287-.85-.38-.599-.19-1.246-.032-1.854.127-.212.056-.432.115-.606.25-.408.318-.19 1.095-.175 1.545-.258.06-.526.08-.79.06a.887.887 0 0 0-.71-.897.516.516 0 0 0-.378.063c-.162.11-.207.34-.158.53.049.19.171.35.292.506.08.105.2.221.324.173a62.68 62.68 0 0 0-.014 1.718c.001.343-1.303-.197-1.412-.294C.615 6.472.38 5.827.276 5.285.084 4.259.318 3.168.88 2.288 1.441 1.408 2.318.742 3.302.395c.4-.14.816-.231 1.238-.269a4.057 4.057 0 0 1 1.59.156c1.382.443 1.874 1.675 2.198 2.985.01.044.02.094-.003.133a.156.156 0 0 1-.057.05.704.704 0 0 1-.168.071" mask="url(#d)"/>
        </g>
    </g>
</svg>
