<svg xmlns="http://www.w3.org/2000/svg" xmlns:xlink="http://www.w3.org/1999/xlink" width="227" height="183" viewBox="0 0 227 183">
    <defs>
        <path id="a" d="M0 182.974h226.866V0H0z"/>
    </defs>
    <g fill="none" fill-rule="evenodd">
        <path fill="#A36B58" d="M122.306 117.947c-.118.1-.243.203-.394.239a.996.996 0 0 1-.288.01l-2.868-.17c.783 1.257 2.12 2.04 3.406 2.775l1.182-.987c.429-.358.86-.718 1.22-1.144.2-.236.377-.49.553-.743l1.835-2.642c.27-.39.917-1.497.364-1.93-.407-.32-1.263.988-1.538 1.282a41.605 41.605 0 0 1-3.472 3.31"/>
        <path fill="#151317" d="M123.079 143.4l-.898.951c-.14.148-.28.295-.413.448-.197.224-.381.458-.566.692l-1.017 1.29c-.074.094-.86-.25-.86-.25s1.465-1.525 2.416-2.623c.413-.476.802-.973 1.248-1.423.445-.45.944-.848 1.415-1.273a15.26 15.26 0 0 0 2.756-3.301c.06-.098.377.416.389.464.063.267-.035.358-.186.54-.41.493-.941.95-1.39 1.422-.966 1.019-1.93 2.04-2.894 3.062"/>
        <path fill="#12130F" d="M131.019 143.132c.031-.024.065-.051.072-.09.01-.057-.044-.103-.091-.137l-.265-.185-.87.767c-.174.154-.35.309-.548.43-.172.107-.36.187-.535.286-.201.114-.387.254-.553.414-.035.034-.07.072-.08.12-.013.063.024.125.065.175a.603.603 0 0 0 .327.216c.372.082.882-.664 1.14-.897.43-.386.876-.753 1.338-1.099"/>
        <path fill="#8D9FB5" d="M130.867 142.948c.031-.023.065-.05.072-.09.01-.057-.044-.103-.091-.136l-.265-.186-.87.767a4.03 4.03 0 0 1-.548.43c-.172.107-.36.187-.535.287-.201.113-.388.253-.553.413-.035.034-.07.072-.08.12-.013.063.024.125.065.175a.603.603 0 0 0 .327.216c.372.082.882-.665 1.14-.897.43-.386.876-.753 1.338-1.1"/>
        <path fill="#151317" d="M133.722 149.047l-.766-.376c-.525-.258-1.05-.517-1.567-.79a31.097 31.097 0 0 1-2.92-1.75l.224-.376 3.562 1.715c.533.256 1.07.515 1.55.861.293.212.57.547.403.919-.17-.043-.329-.125-.486-.203M127.386 146.23l-8.045 1.076.386-.508 7.815-1.391z"/>
        <path fill="#8D9FB5" d="M127.386 145.773l-7.66 1.025-.141-.512 7.957-1.335z"/>
        <path fill="#12130F" d="M127.081 146.286c.004.017.01.034.017.048.069.137.317.18.45.201.333.055.684.066 1.01-.034.093-.028.29-.069.354-.147.101-.122.047-.417.08-.575a.908.908 0 0 0-.072-.614c-.186-.362-.71-.411-1.075-.368-.217.026-.647.154-.742.34-.12.238-.05.584-.028.837.007.086-.013.218.006.312"/>
        <path fill="#181C1E" d="M136.176 106.203c.231-.805.425-1.64.364-2.478-.061-.838-.414-1.69-1.075-2.148-.545-.377-1.224-.449-1.874-.454-.528-.004-1.168.11-1.362.633a.525.525 0 0 0-.034.238c.036.32.405.438.7.515.314.083.627.206.878.426.45.395.63 1.032.787 1.63.125.474.25.954.26 1.446.007.283-.026.568.017.847.225 1.477 1.16-.032 1.34-.655"/>
        <path fill="#0B0C0C" d="M133.114 101.27a2.529 2.529 0 0 1 2.286.724c.848.892.92 2.252.89 3.483-.011.485-.032.978-.184 1.438-.326.985-1.288 1.724-2.321 1.784-1.034.06-2.074-.564-2.51-1.505-.044-.093-.084-.192-.162-.258-.213-.18-.526-.013-.79.077-.285.097-.593.094-.894.089l-2.338-.036c-.069-.001-.144-.005-.195-.05-.042-.04-.058-.1-.066-.158-.047-.307.031-.62.018-.93-.014-.31-.167-.658-.469-.73-.269-.063-.527.114-.77.244a2.541 2.541 0 0 1-1.755.235c-.36-.083-.71-.247-1.08-.234-.837.028-1.556.944-2.359.701-.013.326-.373.59-.688.503a50.2 50.2 0 0 1-.078-4.18 6.588 6.588 0 0 0 2.418-1.386c.207-.187.417-.395.688-.458.353-.082.706.101 1.028.268a16.47 16.47 0 0 0 5.138 1.661c.59.089 1.913.43 2.425.095.264-.173.442-.666.722-.887a2.48 2.48 0 0 1 1.046-.49"/>
        <path fill="#333946" d="M134.904 106.199c-.155.384-.439.758-.844.843-.414.086-.843-.166-1.075-.52-.525-.801-.562-3.195.75-3.366 1.345-.176 1.495 2.231 1.17 3.043"/>
        <path fill="#1C201E" d="M129.616 99.84c-.6-.37-1.353-.341-2.056-.3-.642.04-1.293.079-1.903.284-.14.047-.284.107-.384.216a.948.948 0 0 0-.18.342 6.837 6.837 0 0 0-.28 1.072c-.026.15-.047.305-.01.452.032.118.1.223.173.321.548.73 1.416 1.081 2.274 1.296.692.173 1.986.603 2.66.278.598-.29.61-1.119.706-1.688.162-.951-.119-1.728-1-2.273"/>
        <path fill="#333946" d="M131.47 99.82c-.428.349-1.022.392-1.573.4a24.09 24.09 0 0 1-5.189-.478l.585-.336c.08-.046.161-.092.25-.117.125-.036.258-.027.388-.02 1.053.055 2.106.008 3.156-.06.393-.024.721-.023 1.12.08.14.035 1.255.538 1.263.531"/>
        <path fill="#0B0C0C" d="M125.413 105.706c-.128.406-.156.836-.184 1.26l-.033.505c-.018.272-.03.567.125.792.213.307.64.352 1.012.368.308.014.66.01.862-.223.115-.134.154-.315.185-.488.078-.441.128-.888.148-1.336.02-.45.005-.93-.234-1.312-.653-1.043-1.589-.5-1.881.434M123.637 107.51l1.55-1.778-.159-.138-1.14 1.309c.034-.625.045-1.258.03-1.883l-.21.004c.017.723 0 1.454-.05 2.174l-.02.312z"/>
        <path fill="#0B0C0C" d="M121.786 108.172c-.094.076-.19.159-.235.272a.726.726 0 0 0-.03.286l.019.667c.929.14 1.866.224 2.804.252.186.006.38.008.548-.07.359-.167.47-.614.54-1.003.032-.176.063-.363-.003-.53-.654-1.662-2.747-.598-3.643.126M123.425 100.713l.21-.008a21.377 21.377 0 0 1 .035-2.177c1.006-.113 2.037-.019 3.035.073a25 25 0 0 0 1.882.125 1.55 1.55 0 0 0-.105.673l.21-.014a1.357 1.357 0 0 1 .151-.714l.081-.154h-.173c-.674-.002-1.362-.065-2.027-.126-1.038-.095-2.112-.194-3.166-.062l-.085.01-.007.087a21.625 21.625 0 0 0-.04 2.287"/>
        <path fill="#333946" d="M128.257 99.246l.63-.02a28.24 28.24 0 0 1 .023-2.344l-.63-.032c-.04.796-.048 1.602-.023 2.396"/>
        <path fill="#0B0C0C" d="M122.273 99.803c-.214-.03-.436-.06-.644-.021a.985.985 0 0 0-.703.555l2.636.433-.006-.171c-.005-.245-.01-.497-.166-.626-.138-.115-.521-.133-.802-.147a3.812 3.812 0 0 1-.315-.023zm-1.625.702l.034-.114c.123-.41.488-.74.909-.817.242-.044.491-.01.71.02.077.012.182.017.297.022.345.017.735.035.927.195.229.19.235.505.242.783.002.103.004.2.016.286l.022.143-3.157-.518z"/>
        <path fill="#151317" d="M127.24 145.378c0-.208.321-.377.716-.377.396 0 .716.169.716.377s-.32.377-.716.377c-.395 0-.715-.169-.715-.377"/>
        <path fill="#0B0C0C" d="M128.768 110.218c.004.26.06.516.085.775.025.261.017.524.01.787l-.042 1.41a2.19 2.19 0 0 1-.05.482 1.124 1.124 0 0 1-.98.821 1.109 1.109 0 0 1-.291-.885c.022-.184.092-.369.055-.551-.034-.173-.158-.312-.228-.474-.195-.452.06-.967.035-1.458-.015-.302-.136-.59-.164-.892-.028-.306.04-.611.109-.91.178-.778.282-1.86 1.307-1.095.672.5.14 1.308.154 1.99"/>
        <path fill="#333946" d="M130.128 105.384c-.002-.075-.006-.158-.054-.216-.054-.064-.146-.078-.23-.088-.683-.075-1.37-.12-2.056-.135-.223-.004-.465.001-.638.143-.186.152-.231.415-.26.654a22.25 22.25 0 0 0-.16 2.908c.726.047 2.63.47 3.229-.073.574-.521.183-2.483.169-3.193"/>
        <path fill="#CAD6E3" d="M128.717 113.866v7.315c-.397 0-.79-.002-1.155-.158v-7.106a1.32 1.32 0 0 1-.133-.009c.387-.286.901-.329 1.288-.042M128.717 127.58v10.494c-.397 0-.79-.004-1.155-.226v-10.194a.967.967 0 0 1-.133-.012c.387-.41.901-.472 1.288-.061"/>
        <path fill="#1B0F11" d="M128.717 120.76v7.315c-.397 0-.79-.002-1.155-.158v-7.106a1.32 1.32 0 0 1-.133-.009c.387-.285.901-.328 1.288-.042"/>
        <path fill="#12130F" d="M134.647 148.548c-2.264-3.402-4.388-7.174-6.269-10.802-.283-.049-.574-.04-.835.079 1.638 2.518 3.34 5.276 4.712 7.95.631 1.23 1.242 2.49 2.131 3.547.155-.281.106-.492.26-.774"/>
        <path fill="#CAD6E3" d="M135.273 148.635s-4.667-7.531-6.505-11.098c-.277-.048-.615.019-.87.136a86.416 86.416 0 0 1 4.416 7.664c.617 1.209 2.083 3.487 2.083 3.487l.876-.19zM122.764 143.4l-.898.951c-.14.148-.28.295-.413.448-.197.224-.381.458-.566.692l-1.017 1.29c-.074.094-.153.442-.268.484-.089.033-.592-.735-.592-.735s1.464-1.524 2.416-2.622c.413-.476.802-.973 1.248-1.423.445-.45.944-.848 1.414-1.273a15.276 15.276 0 0 0 2.757-3.301c.06-.098.377.416.389.464.063.267-.035.358-.186.54-.41.493-.942.95-1.39 1.422-.966 1.019-1.93 2.04-2.894 3.062"/>
        <path fill="#12130F" d="M135.215 149.046a.429.429 0 0 1-.091.214.48.48 0 0 1-.087.07.439.439 0 0 1-.107.06.435.435 0 0 1-.133.013h-.238c-.087 0-.183-.004-.244-.065-.06-.061-.063-.16-.039-.242.024-.082.072-.155.102-.235.005-.014.01-.029.022-.04a.086.086 0 0 1 .025-.014c.194-.084.408-.091.613-.132.114-.022.16-.074.202.028.035.085-.008.256-.025.343"/>
        <path fill="#CAD6E3" d="M128.541 138.534v5.192c0 .483.067 1.022 0 1.502-.015.11.015.107-.087.183-.2.146-.61.115-.833.065a.385.385 0 0 1-.154-.063c-.209-.159-.081-.972-.081-1.193v-2.068V138.58c-.044 0-.089-.003-.133-.007.387-.268.901-.309 1.288-.04"/>
        <path fill="#151317" d="M119.045 133.452c-.046.002-.1.008-.124.048a.141.141 0 0 0-.014.07l-.02.793c-.005.183-.01.368.03.547.04.178.13.352.279.458.176.125.406.137.622.136.09 0 .181-.003.263-.039.124-.054.205-.176.26-.3.115-.264.137-.553.136-.838 0-.215.031-.515-.051-.72-.086-.214-.256-.198-.46-.191l-.921.036"/>
        <path fill="#12130F" d="M126.755 138.074a1.158 1.158 0 1 1 1.157 1.159 1.158 1.158 0 0 1-1.157-1.159"/>
        <path fill="#151317" d="M119.071 146.503c-.011-.004-.023-.008-.034-.004-.014.004-.021.019-.027.032-.091.197-.161.404-.209.616.169.102.36.168.555.192.093.011.197.01.266-.053a.328.328 0 0 0 .076-.125c.074-.183.328-.264.172-.38-.161-.119-.61-.214-.799-.278"/>
        <path fill="#CAD6E3" d="M113.515 147.58c-.53-.455-.867-1.092-1.338-1.608-.02-.022-.043-.045-.072-.052-.034-.008-.07.009-.1.027-.255.16-.329.515-.252.807.077.291.271.535.461.77l.388.479c.136.169.273.338.436.482.626.555 1.521.652 2.354.723.767.066 1.385-.593.398-.83-.837-.203-1.576-.198-2.275-.798"/>
        <path fill="#FFF" d="M115.383 148.602l.799-.01c-.018-.25-.196-.466-.41-.597-.214-.13-.463-.189-.707-.245a.614.614 0 0 0 .215.846"/>
        <path fill="#0F1110" d="M115.444 148.503c-.01.072-.035.147-.094.19-.053.039-.123.043-.19.042-.56-.014-1.062-.33-1.532-.635-.212-.137-.426-.277-.6-.46a3.255 3.255 0 0 1-.346-.462l-.484-.734c-.07-.107-.144-.224-.136-.352.01-.183.187-.318.366-.357.472-.102.9.273 1.238.619.482.492 1.858 1.391 1.778 2.149"/>
        <path fill="#8D9FB5" d="M123.963 136.728c.472.625 1.033 1.396.72 2.116-.168.386-.547.626-.87.898-.548.462-.963 1.06-1.436 1.6-.55.628-1.18 1.179-1.807 1.728l-2.204 1.93c-1.134.992-2.27 1.986-3.498 2.856-.117.083-.242.167-.384.174-.231.013-.418-.175-.572-.348l-1.4-1.572c-.071-.082-.147-.17-.166-.277-.035-.203.136-.376.292-.508l3.52-2.997c.492-.42.985-.84 1.427-1.312.731-.781 1.31-1.693 1.83-2.628.397-.712.764-1.44 1.098-2.182.292-.646.501-1.856.989-2.356.666-.684.842.116 1.122.692.374.77.823 1.503 1.339 2.186"/>
        <path fill="#FFF" d="M123.606 153.818c.417.172.453.803.17 1.154-.284.35-.753.483-1.194.571-1.242.248-2.52.302-3.778.159-.187-.022-.38-.05-.541-.145-.162-.096-.288-.277-.263-.464.042-.317.435-.43.752-.473.956-.13 1.876-.314 2.79-.624.597-.202 1.45-.433 2.064-.178"/>
        <path fill="#CAD6E3" d="M123.847 155.229c-.214.228-.532.35-.837.446-1.48.463-3.08.579-4.646.471-.355-.024-.807-.15-.81-.464-.003-.17.152-.319.33-.385.18-.066.379-.067.573-.067.65-.001 1.3.056 1.95.036.321-.01.645-.035.961-.1.314-.065.622-.05.929-.135l.615-.17c.157-.044.314-.088.466-.146.168-.064.344-.148.52-.111.066.013.133.049.16.11.02.051.01.11-.006.162a.907.907 0 0 1-.205.353"/>
        <path fill="#0F1110" d="M122.006 153.648c.075-.007.154-.013.223.022.088.045.143.148.192.246.207.408.132.705.128 1.142 0 .149-2.073.517-2.289.533-.577.042-1.182-.085-1.648-.486-.038-.032-.078-.082-.061-.132a.126.126 0 0 1 .041-.053c.453-.391.93-.945 1.489-1.11.594-.174 1.315-.104 1.925-.162"/>
        <path fill="#8295A8" d="M116.517 135.6c.137.147.286.29.359.478.065.165.064.348.062.525l-.07 6.23c-.008.63-.015 1.262-.106 1.886-.122.832-.393 1.635-.528 2.465-.14.85-.137 1.715-.134 2.575 0 .965.007 1.93.011 2.893.003.877-.513 3.428 1.087 3.278.548-.051 1.347-.536 1.877-.74.709-.27 1.405-.618 1.868-1.243.074-.101.144-.214.153-.34.027-.356-.39-.547-.66-.781-.423-.368-.527-.975-.605-1.53l-.274-1.962c-.109-.781-.218-1.566-.197-2.355.016-.586.105-1.167.214-1.744.424-2.228 1.165-4.377 1.77-6.56.29-1.047.64-2.144.654-3.23.016-1.22.123-2.446.184-3.665a10.55 10.55 0 0 1-3.129-.198c-.433-.094-.863-.215-1.306-.236-.384-.019-.78.037-1.146-.081-.224-.073-.428-.208-.66-.244-.403-.062-.777.448-.869.808-.11.43.043.936.174 1.342.264.82.675 1.79 1.271 2.43"/>
        <path fill="#B67B63" d="M128.06 115.267a.791.791 0 0 1 .43.087c.839.45-1.827 5.694-2.2 6.268-1.29 1.992-3.556 1.497-5.741 1.257-.18-.02-.41-.097-.403-.278.004-.083.062-.152.116-.215.478-.552.953-1.986 1.537-2.333.848-.503 2.117.152 3.078-.276 1.069-.476 1.514-1.73 1.834-2.859.124-.439.255-.894.554-1.239.2-.229.499-.393.795-.412"/>
        <path fill="#090A0B" d="M120.129 118.923a9.27 9.27 0 0 0 2.051 1c-.468 1.042-.957 2.113-1.794 2.89a6.25 6.25 0 0 0 1.155.159c-.555.457-.556 1.299-.45 2.01.111.751.29 1.5.628 2.179.18.36.404.704.503 1.094.103.402.065.825.026 1.238-.009.102-.02.21-.083.29a.519.519 0 0 1-.229.145c-.39.156-.796.272-1.21.346-1.366.243-2.76.015-4.082-.356-.272-.076-.727-.128-.955-.293-.264-.19-.181-.346-.2-.692-.074-1.301-.543-2.58-.825-3.846l-.894-4.015c-.086-.384-.172-.771-.16-1.164.012-.392.132-.796.407-1.076.353-.358.888-.453 1.388-.508 1.63-.181 3.308-.324 4.724.599"/>
        <path fill="#B67B63" d="M120.973 113.942c.083.135.053.304-.051.423a.726.726 0 0 0-.139.236c-.092.263-.026.553-.056.83-.046.432-.33.817-.7 1.042-.37.225-.817.303-1.25.28a.399.399 0 0 1-.195-.046c-.067-.043-.105-.12-.139-.192-.36-.78-.702-1.606-.666-2.464.015-.38.105-.751.216-1.113.11-.354.242-.707.466-1.002.225-.295.68-.722 1.05-.818.43-.11.518.436.651.793.064.172.486 1.499.813 2.031"/>
        <path fill="#090A0B" d="M120.794 113.651c-.054.193-.167.364-.333.442a.432.432 0 0 1-.138.041c-.196.021-.378-.131-.456-.313-.213-.498.079-.626-.59-.628-.123-.001-1.277.113-1.293.081a.43.43 0 0 1-.003-.37 17.946 17.946 0 0 1 2.128-.158c.307-.003.54.038.664.332.07.165.076.38.021.573M115.382 131.517c.585.047 1.142.178 1.712.272 1.075.177 2.194.222 3.305.267.342.014.685.028 1.028.019.35-.01.592.054.738-.246.11-.225.114-.646.059-.885-.087-.38-.222-.287-.622-.265-.715.039-1.427.13-2.144.117-.828-.015-1.63-.165-2.438-.275-.274-.037-1.373-.252-1.514-.08-.1.122-.048.363-.062.5l-.062.576"/>
        <path fill="#1C201E" d="M115.415 130.442v.04c.507-.108 1.175.153 1.683.233 1.126.177 2.3.222 3.463.267.359.014.718.028 1.078.019.16-.004.356.09.468-.075.059-.087.07-.197.078-.302l.073-.905c.003-.042.004-.09-.028-.116-.023-.02-.056-.02-.086-.02-.855.002-1.708.154-2.57.139-.866-.015-1.707-.165-2.554-.275-.385-.05-.777-.146-1.167-.144-.644.005-.446.616-.438 1.139"/>
        <path fill="#151317" d="M119.455 135.233c.057-.002.118-.007.163-.043.043-.035.06-.092.076-.146l.52-1.803c.1-.345.198-.689.292-1.035.029-.104.115-.323.073-.43-.057-.141-.269-.093-.426-.102-.24-.015-.48-.036-.718-.064-.214-.024-.348-.107-.45.077-.122.218-.166.532-.243.77-.152.465-.328.927-.456 1.4-.082.302-.1.648-.016.953.142.525.706.442 1.185.423"/>
        <path fill="#CAD6E3" d="M119.029 133.44l-.375-.166c-.07.223-.108.467-.111.711 0-.01 1.069.297 1.162.304.033-.103.06-.208.083-.317l.074-.342c-.282-.067-.555-.072-.833-.19"/>
        <path fill="#151317" d="M118.203 132.584l-.506 1.54c-.603-.337-1.33-.348-1.98-.575a.25.25 0 0 1-.118-.069c-.043-.053-.036-.13-.042-.199-.024-.296-.308-.551-.244-.841.018-.08.06-.151.1-.222.247-.436.405-.922.463-1.42a6.62 6.62 0 0 1 1.671.453c.203.085.708.175.835.368.147.222-.105.742-.179.965"/>
        <path fill="#492317" d="M118.467 114.858c-.024-.279-.04-.569.063-.828.127-.315.41-.536.593-.821.31-.484.305-1.098.29-1.672-.003-.119-.01-.248-.09-.336a.423.423 0 0 0-.212-.11c-.432-.115-.906-.012-1.324-.171-.33-.126-.59-.403-.926-.51a1.29 1.29 0 0 0-.754.013c-.631.187-1.114.72-1.398 1.316-.283.596-.394 1.257-.502 1.908a51.45 51.45 0 0 0-.036.219c-.226 1.363-.453 2.732-.48 4.114-.013.682.023 1.365.075 2.047.019.246 3.785.026 4.147-.027.436-.066 1.44-.09 1.457-.628.01-.296-.215-.72-.292-1.011a20.344 20.344 0 0 1-.611-3.503"/>
        <path fill="#38130B" d="M118.598 110.106l.99-.017a.647.647 0 0 1 .253.03c.179.074.255.305.204.491-.05.188-.198.334-.358.442-.36.245-.806.345-1.241.333-.383-.01-1.704-.139-1.546-.716.158-.574 1.262-.556 1.698-.563"/>
        <path fill="#663531" d="M149.923 98.015c.031-.509.063-1.02.15-1.521.139-.807.422-1.6.38-2.418-.01-.197-.037-.406.051-.582.168-.337.63-.36 1.006-.337.335.021.68.046.985.188.675.314.98 1.14.935 1.885-.046.745-.368 1.44-.64 2.134a17.341 17.341 0 0 0-.884 3.045c-.027.137-.056.284-.152.385-.118.125-.304.15-.475.156-1.955.06-1.445-1.491-1.356-2.935"/>
        <path fill="#C69B93" d="M149.89 100.448l1.547.112c.062.005.132.014.166.066.025.04.02.091.013.138l-.248 1.84c-.052.385-1.817.26-2.056-.067-.425-.583.406-1.51.577-2.089"/>
        <path fill="#170D0A" d="M149.023 102.623a4.006 4.006 0 0 0-.354.932c-.048.2-.081.412-.026.61.082.296.339.503.581.69l1.054.812c.266.205.537.413.847.541.31.13.67.172.98.042.31-.13.546-.46.5-.793-.033-.23-.185-.422-.318-.612a4.61 4.61 0 0 1-.81-2.303c-.023-.326-2.2-.399-2.454.081"/>
        <path fill="#663531" d="M142.61 99.243l.03 1.742c0 .085.005.177.063.238.05.051.124.067.194.08l.596.106a.645.645 0 0 0 .307.005c.107-.034.188-.12.262-.204.684-.782 1.198-1.694 1.614-2.642.366-.839 1-2.04 1.053-2.96.033-.572-.366-.58-.884-.756-.369-.126-.753-.264-1.144-.297-.751-.064-1.233.282-1.567.944-.577 1.147-.539 2.497-.524 3.744"/>
        <path fill="#070706" d="M148.951 61.952c0-.18.037-.357.074-.532.06-.295.122-.59.184-.885.084-.404.172-.82.372-1.16.336-.57.949-.833 1.527-.804.579.03 1.129.314 1.631.662.337.233.67.507.882.9.346.64.305 1.527-.04 2.168a2.164 2.164 0 0 1-1.584 1.126c-.815.116-3.045-.027-3.046-1.475"/>
        <path fill="#703E34" d="M150.003 63.847l.02-.021c.63.244 1.318.34 1.992.28.072-.007.146-.015.212.012.155.06.187.261.21.427.135 1.005 1.323 1.66 1.316 2.429-.007.864-1.132 1.614-1.858 1.79-1.173.286-3.414-.183-3.727-1.573-.248-1.102 1.149-2.57 1.835-3.344"/>
        <path fill="#663531" d="M154.098 79.42c-.094.218-.173.476-.057.683.116.207.508.21.536-.025.031.321.468.455.763.325s.485-.415.694-.661c.536-.633 1.239-1.017 1.859-1.53.657-.545 1.173-1.422 1.638-2.13.162-.245.325-.52.293-.811-.02-.177-.109-.338-.198-.491a28.408 28.408 0 0 0-1.746-2.661 6.814 6.814 0 0 0-1.751 1.547l1.113 1.694c-1.194 1.263-2.445 2.435-3.144 4.06M145.299 76.991c.191.238.394.482.471.779.077.296-.012.66-.284.799-.389.197-.819-.156-1.117-.473a40.181 40.181 0 0 0-3.753-3.523c-.357-.295-.741-.617-.844-1.069-.156-.686.409-1.33 1.01-1.694.079-.047.168-.094.258-.079a.4.4 0 0 1 .188.112c1.694 1.503 2.67 3.407 4.07 5.148"/>
        <path fill="#170D0A" d="M153.401 84.783c.502-.213.954-.534 1.462-.73.188.195.2.494.2.764a47.006 47.006 0 0 1-.78 8.406c-.043.235-.095.484-.262.656-.223.229-.579.25-.898.242-1.17-.03-2.513-.386-2.982-1.46-.143-.326-.187-.687-.224-1.042-.18-1.732-.533-3.93-.135-5.645.141-.61.45-.817 1.06-.857.891-.057 1.708.026 2.56-.334"/>
        <path fill="#170D0A" d="M144.012 93.167c-.108.296-.236.607-.18.917.063.361.358.634.663.837a4.212 4.212 0 0 0 3.443.536c.456-.13.902-.35 1.198-.72.521-.654.45-1.58.487-2.416.082-1.795.783-3.492 1.38-5.186.307-.874.588-1.845.248-2.707-.194-.492-.57-.887-.935-1.267l-1.328-1.38c-.125-.13-.259-.266-.433-.317-.17-.049-.353-.008-.526.033-.67.159-1.383.348-1.842.863-.988 1.109-1.313 3.193-1.384 4.643-.053 1.063-.084 2.13-.184 3.189a15.233 15.233 0 0 1-.214 1.54c-.086.434-.393 1.008-.393 1.435"/>
        <path fill="#C69B93" d="M148.505 66.845c.172.592.72 1.017 1.306 1.204.587.187 1.217.174 1.833.15.651-.024 1.387-.101 1.786-.618.227-.295.305-.694.572-.953.468-.457 1.292-.248 1.751.218.46.466.682 1.109 1.01 1.675.392.675.95 1.268 1.174 2.015.08.268.116.55.227.805.287.658.804 1.027.688 1.808-.097.655-.509 1.207-.995 1.635-.314.276-.831.657-1.283.582-.471-.079-.64-.61-.887-1 .212 2.855.421 5.76-.206 8.555-.053.237-.114.476-.239.685-.294.49-.875.714-1.413.904-1.208.427-2.512.858-3.746.511-.736-.207-1.367-.673-2.015-1.08a14.234 14.234 0 0 0-3.013-1.427 53.407 53.407 0 0 0-.485-10.12c-.765.08-1.101.997-1.705 1.475-.1.079-.217.15-.345.149-.12-.001-.23-.063-.332-.127-.69-.427-1.923-1.232-1.886-2.097.04-.97.955-2.058 1.609-2.693.806-.784 1.772-1.381 2.744-1.946 1.373-.797 2.895-1.57 4.37-2.099.092.22-.074.375-.215.564-.272.362-.44.764-.305 1.225"/>
        <path fill="#151317" d="M148.684 72.892c-.009.216.041.479.273.56.154.054.338 0 .454-.103a.745.745 0 0 0 .214-.382c.069-.252.071-.517.01-.771-.059-.243-.295-.604-.63-.421-.294.16-.311.854-.321 1.117M152.901 74.4c-.008.217.042.48.274.56a.48.48 0 0 0 .454-.102.745.745 0 0 0 .214-.382c.068-.253.071-.518.01-.771-.059-.244-.295-.605-.63-.421-.294.16-.311.854-.322 1.116"/>
        <path stroke="#151317" stroke-width=".536" d="M153.457 73.344a34.365 34.365 0 0 1 .012-6.035M149.25 71.869l-.616-5.475c-.058-.513-.052-1.142.461-1.404M153.44 73.28a78.65 78.65 0 0 1-4.553-5.082"/>
        <path fill="#663531" d="M152.96 61.084c-.346-.002-.68.027-1.001-.069-.44-.131-.697-.468-1.215-.388a1.37 1.37 0 0 0-.486.188c-.58.345-.954.948-1.117 1.58-.056.218.575 2.538.751 2.72.44.455.947.854 1.5 1.181.653.386 1.057.447 1.557-.172.27-.334.534-.68.68-1.078.156-.427.168-.887.178-1.338l.05-2.213c-.183-.023-.275-.222-.429-.32-.134-.087-.306-.09-.468-.091"/>
        <path fill="#C69B93" d="M142.483 100.951l1.548.112c.062.005.132.014.165.066.025.04.02.091.014.138l-.248 1.84c-.053.385-1.818.26-2.056-.067-.425-.583.406-1.51.577-2.089"/>
        <path fill="#170D0A" d="M141.58 102.623a4.006 4.006 0 0 0-.354.932c-.049.2-.082.412-.026.61.082.296.338.503.58.69l1.055.812c.266.205.536.413.846.541.31.13.67.172.98.042.31-.13.546-.46.5-.793-.033-.23-.185-.422-.318-.612a4.614 4.614 0 0 1-.81-2.303c-.023-.326-2.199-.399-2.454.081"/>
        <path fill="#141311" d="M144.815 83.006c.009.102.025.205.009.307-.024.152-.116.283-.196.414-.335.556-.477 1.203-.614 1.837l.654.295c.172.078.353.157.541.146.433-.026.687-.485.859-.884l.817-1.895c.048-.111.096-.226.103-.347.01-.204-.106-.399-.26-.533-.813-.708-2.039-.695-1.913.66"/>
        <path fill="#6A131A" d="M145.567 84.6a5.311 5.311 0 0 1-.984-.21l-.032.394c.185.03.364.09.53.175.066.033.139.071.208.05.14-.044.129-.27.256-.345"/>
        <path stroke="#141311" stroke-width=".536" d="M146.445 82.525l.486-1.32c.197-.536.397-1.077.704-1.558"/>
        <path fill="#6C7A75" d="M13.016 6.219a2.783 2.783 0 0 1-2.012.125c-.063-.02-.134-.042-.193-.011-.048.025-.073.08-.094.13-.266.636-.496 1.289-.689 1.952-.013.045-.024.098.004.135.021.027.056.037.089.044.473.106.954.056 1.433.047.268-.004.882.153 1.112.006.29-.184.22-.66.242-.956.013-.17-.002-1.42.108-1.472"/>
        <path fill="#1E231C" d="M12.043 44.006c-.015.125-.033.26-.12.352-.097.105-.252.125-.394.138-1.51.139-3.03.09-4.545.042-.39-.012-.801-.03-1.131-.238-.329-.207-.53-.675-.31-.995.162-.235.474-.3.753-.359a11.328 11.328 0 0 0 3.227-1.203c.182-.103.364-.21.56-.278.49-.169 1.577-.24 1.988.18.47.483.042 1.776-.028 2.361"/>
        <path fill="#190C0A" d="M3.718 8.335c.598.72 1.253 1.477 2.154 1.725.399.109.818.11 1.23.1a31.11 31.11 0 0 0 1.984-.104c.543-.046 1.188-.18 1.386-.689.077-.195.068-.413.059-.622-.005-.117-.015-.245-.093-.332-.09-.1-.239-.115-.373-.121-2.06-.096-3.316-.73-5.072-1.71-.518-.29-1.333-.57-1.928-.346-1.148.432.207 1.562.653 2.099"/>
        <path fill="#6C7A75" d="M3.85 6.548c.127-.363-.152-.74-.455-.976-.199-.155-.425-.289-.676-.317-.25-.028-.528.073-.651.293-.147.263-.036.6.144.84s.422.431.584.684c.046.072.09.153.168.19.099.045.215 0 .31-.056.214-.127.397-.307.526-.52"/>
        <path fill="#8D9FB5" d="M12.001 40.399c-.002.422-.014.868-.233 1.23-.218.361-.72.587-1.077.363-.346-.216-.381-.697-.385-1.105-.052-5.9-1.271-11.783-.82-17.665-.035.448 2.595.325 2.846.829.204.406-.093 1.215-.148 1.637a36.11 36.11 0 0 0-.202 2.037c-.194 2.687-.122 5.383-.053 8.073.04 1.533.08 3.067.072 4.6"/>
        <path fill="#8295A8" d="M11.004 41.429c-.024.384-.054.768-.089 1.15-.017.186-.038.381-.148.531-.178.24-.514.282-.811.303-.81.058-1.803.02-2.183-.698-.112-.21-.149-.449-.184-.683l-.49-3.214c-.852-5.606-1.707-11.297-1.017-16.925l2.301.719c.616.192 1.684.306 2.198.69.75.558.12 2.84.095 3.747-.085 3.086.198 6.164.33 9.244.074 1.718-.002 3.42-.002 5.136"/>
        <path fill="#2E362B" d="M10.69 46.656l-7.417-.126a.533.533 0 0 1-.247-.044c-.099-.054-.153-.165-.174-.275-.062-.33.133-.663.397-.867.265-.204.591-.307.907-.417a14.69 14.69 0 0 0 2.628-1.22c.264-.156.528-.322.825-.399.226-.058.462-.062.695-.065.509-.008 2.397-.336 2.65.196.156.328-.078 1.148-.11 1.51l-.154 1.707"/>
        <path fill="#A88E7C" d="M9.35 5.304c-.145-.436-.147-.905-.121-1.364.03-.54.096-1.076.197-1.607.05-.266.122-.55.327-.726.217-.188.529-.206.816-.215.572-.017 1.178-.027 1.674.259.517.297.825.876.925 1.464.101.589.02 1.192-.08 1.78-.156.911-.176 2.41-1.44 2.207-.957-.154-1.987-.858-2.299-1.798"/>
        <path fill="#663531" d="M9.84.738c.09-.18.182-.366.334-.497.257-.223.627-.246.967-.24 1.367.022 2.888.448 3.552 1.646.435.785.405 1.766.101 2.611-.304.846-.854 1.578-1.434 2.263-.095.114-.202.232-.346.267-.168.04-.34-.044-.484-.138a3.068 3.068 0 0 1-1.002-1.065c-.162-.287-.278-.602-.47-.87-.461-.646-1.29-1.033-1.628-1.778-.322-.705.098-1.565.41-2.199"/>
        <path fill="#190C0A" d="M9.16 8.277c.825-.13 1.66-.19 2.495-.182.944.01 1.982.154 2.61.86.709.794.641 1.992.518 3.05-.44 3.783-1.07 7.545-1.883 11.266-.053.24-.118.5-.311.65-.185.145-.437.153-.671.16-1.192.043-2.39.267-3.57.095-1.18-.172-2.395-.865-2.721-2.015-.127-.446-.11-.919-.09-1.382l.153-3.865c.053-1.337.108-2.688.465-3.977.178-.64.46-1.256.612-1.902.101-.433.001-.843.073-1.258.182-1.047 1.415-1.358 2.32-1.5"/>
        <mask id="b" fill="#fff">
            <use xlink:href="#a"/>
        </mask>
        <path fill="#090D01" d="M.834 5.672h1.778V2.11H.834z" mask="url(#b)"/>
        <path fill="#6C7A75" d="M1.623 5.772a.796.796 0 0 0-.293-.357c-.197-.118-.457-.095-.658.016-.2.112-.349.3-.459.503-.224.415-.299.937-.09 1.36.134.269.678.758.994.502a.736.736 0 0 0 .176-.254c.133-.267.325-.543.429-.818.106-.283.024-.69-.1-.952" mask="url(#b)"/>
        <path fill="#190C0A" d="M2.477 7.346c-.293-.524-.718-1.123-1.315-1.07-.55.046-.89.654-.93 1.206-.084 1.169.691 2.207 1.45 3.099.99 1.16 2.155 2.356 3.667 2.55.731.093 1.47-.063 2.185-.24.32-.078.655-.17.896-.396.24-.227.347-.632.143-.893-.225-.285-.656-.248-1.019-.245-.945.009-1.856-.408-2.604-.987-1.072-.83-1.822-1.856-2.473-3.024" mask="url(#b)"/>
        <path stroke="#141614" stroke-width=".536" d="M165.205 97.94c-.03.967-.02 1.944.2 2.885.145.622.38 1.218.614 1.812.13.33.26.661.45.96.36.57.91-1.118 1.447-.714" mask="url(#b)"/>
        <path fill="#4F301F" d="M170.564 106.203c.038-.141.077-.295.023-.432-.065-.163-.244-.249-.41-.306a3.687 3.687 0 0 0-.752-.174c-.086-.01-.18-.016-.255.029a.407.407 0 0 0-.134.165c-.662 1.218-.8 2.644-.926 4.025l-.105 1.161c-.038.416-.075.842.027 1.247.103.406.373.793.771.92 1.51.477 1.112-1.728 1.14-2.484.05-1.401.258-2.797.621-4.15" mask="url(#b)"/>
        <path fill="#190C0A" d="M170.153 111.917c-.345.34-.831.53-1.314.515-.18-.005-.376-.035-.527.064-.132.085-.193.245-.233.397-.172.65-.114 1.335-.055 2.005.016.169.039.355.165.469.08.072.19.101.295.127 1.857.462 3.785.64 5.695.528.14-.008.3-.027.382-.142a.488.488 0 0 0 .066-.252c.054-.725.212-.963-.456-1.167-.544-.165-1.092-.16-1.633-.394-.329-.142-2.728-1.656-2.385-2.15" mask="url(#b)"/>
        <path fill="#613927" d="M168.469 110.586a43.547 43.547 0 0 1 1.794-6.016 7.876 7.876 0 0 0-1.758-.4c-.464-.05-.962-.05-1.362.216-.574.382-.779 1.183-.91 1.911a32.982 32.982 0 0 0-.384 8.73c.016.186.046.395.184.502.182.142.432.021.62-.11.56-.384 1.31-.837 1.462-1.575.213-1.037.116-2.184.354-3.258" mask="url(#b)"/>
        <path fill="#0B0C0C" d="M173.085 95.526c.337-.044.678.026 1.01.098.176 1.038.353 2.08.367 3.134.007.54-.03 1.08-.056 1.62-.107 2.23-.044.257.188 2.478.054.516.092 1.11-.272 1.479-.302.305-.775.342-1.205.36l-1.83.077c-.487-3.455-.699-2.738-.635-6.227.024-1.333.98-2.832 2.433-3.02" mask="url(#b)"/>
        <path fill="#0B0C0C" d="M172.228 101.068c.037 1.464.074.827-.056 2.287-.073.824-.2-.46-.248.366-.04.705-.025 1.412-.008 2.118-1.933.374-3.735.344-5.647.155.116-1.319.654-.362.728-1.69.08-1.437.132-.77.158-2.208.005-.288.01-.578-.033-.862-.047-.315-.15-.618-.235-.925-.27-.973-.364-1.986-.457-2.992-.028-.303-.056-.612.007-.91.13-.62.635-1.13.68-1.763.859.124 1.643.541 2.446.874.561.233 1.16.432 1.773.448.18.004.624-.126.744-.006.124.123.038.777.042.953l.106 4.155" mask="url(#b)"/>
        <path fill="#190C0A" d="M164.933 117.04c-.013.225-.018.473.124.648.108.133.28.193.444.245 1.917.608 3.93.913 5.941.898.422-.003.916-.06 1.131-.424.184-.31.068-.727-.173-.995-.24-.269-.578-.423-.905-.576-1.16-.543-2.387-1.255-2.814-2.465-.054-.151-.103-.32-.238-.406-.158-.1-.374-.04-.519.078-.144.119-.24.285-.356.432-.626.793-1.154.439-1.934.552-.845.122-.662 1.332-.7 2.012" mask="url(#b)"/>
        <path fill="#4F301F" d="M175.738 86.03c.093-.204.14-.433.266-.62.251-.377.744-.495 1.19-.57.084.16.117.349.093.529-.176-.028-.348.092-.438.246-.09.153-.115.335-.139.512-.06.458.285.738.32 1.195a.297.297 0 0 1-.02.157.325.325 0 0 1-.103.107c-.326.24-.782.464-1.165.585l-.714.226c-.298.094-.645.182-.903.006-.438-.3-.267-1.193.144-1.452.223-.141.55-.106.795-.231.29-.149.538-.39.674-.69" mask="url(#b)"/>
        <path fill="#CAD6E3" d="M165.951 99.013c-.222-.177-.385-.415-.545-.65-.206-.301-.417-.612-.494-.969-.024-.112-.034-.235.022-.334.055-.099.164-.155.272-.186.824-.238 1.486.63 1.837 1.252.453.8-.358 1.472-1.092.887" mask="url(#b)"/>
        <path fill="#5E8C6B" d="M166.006 91.587c.052.773.02 1.55-.094 2.317-.016.11-.035.224-.016.335.022.125.09.237.156.345.422.691.874 1.412 1.579 1.81.422.239.905.343 1.345.545.352.163.674.387 1.03.543.355.155.766.238 1.13.101.698-.263.88-1.142 1.277-1.775a.513.513 0 0 1 .204-.208c.129-.06.278-.016.418.007.605.097 1.222-.25 1.58-.748.357-.499.492-1.125.533-1.738.155-2.3-.893-4.527-.922-6.832-.008-.676.066-1.379-.193-2.002-.067-.162-.156-.315-.21-.481-.08-.235-.088-.487-.107-.734-.037-.486-.118-.967-.199-1.448-.096-.57-.218-1.189-.654-1.57-.578-.506-1.446-.388-2.212-.437-.79-.05-1.554-.308-2.342-.389a1.144 1.144 0 0 0-.293-.002c-.337.054-.569.359-.752.647a12.756 12.756 0 0 0-1.846 4.946c-.293 1.964.32 3.929.313 5.915-.002.335.005.656.275.853" mask="url(#b)"/>
        <path fill="#613927" d="M170.148 89.95c.35.072.708.097 1.065.122l2.946.208c.563.04 1.18.103 1.574.508.154.159.264.377.234.596-.026.186-.147.344-.264.492l-.637.804c-.101.128-.224.267-.386.27-.13.002-.243-.084-.346-.164-.683-.528-1.5-.921-2.361-.953-.416-.016-.83.052-1.243.093-1.577.158-3.163-.074-4.73-.304-.292-.043-.607-.099-.803-.319-.194-.216-.216-.531-.228-.821-.035-.822-.062-1.69.323-2.416.193-.366.894-.465 1.262-.452.174.005 1.314.203 1.286.475-.034.35-.207.755-.203 1.098.006.365.216.267.548.295.674.057 1.305.33 1.963.467" mask="url(#b)"/>
        <path fill="#516660" d="M169.208 86.22c.238-.507.48-1.02.602-1.567.122-.548.117-1.14-.124-1.647-.241-.506-.748-.905-1.307-.916-.526-.01-.999.303-1.412.627a3.915 3.915 0 0 0-.63.586c-.465.568-.63 1.317-.768 2.038a54.834 54.834 0 0 0-.488 3.025c.02-.145 1.218-.082 1.35-.068.473.051.908.317 1.357.373.425.053.547-.6.713-.952.235-.5.47-1 .707-1.5" mask="url(#b)"/>
        <path fill="#1C201E" d="M165.337 94.65c-.428.256-.543.821-.56 1.32a6.813 6.813 0 0 0 .118 1.53c.477-.08.99.08 1.336.418.246.24.441.58.778.65.034.008.072.011.103-.006.034-.02.05-.062.061-.1.193-.628.145-1.31-.025-1.945-.213-.796-.64-2.567-1.811-1.867" mask="url(#b)"/>
        <path stroke="#141614" stroke-width=".644" d="M174.777 114.798c.56-10.219 1.119-16.228 1.678-26.446l.987-18.02c.174-3.173.354-6.381 1.27-9.423" mask="url(#b)"/>
        <path fill="#613927" d="M177.31 85.38c.287-.07.585.126.726.385.141.259.16.566.168.86.007.26-.003.547-.18.738-.125.136-.313.195-.495.23a1.13 1.13 0 0 1-.302.023c-.403-.035-.71-.425-.758-.828-.073-.605.226-1.259.842-1.409" mask="url(#b)"/>
        <path fill="#8295A8" d="M182.053 61.737c-.844.892-2.472.322-3.49.199-1.554-.188-3.132.256-4.705.177-1.304-.066-1.528-1.074-.31-1.886.332-.222.686-.424 1.073-.523.608-.156 1.247-.05 1.87.025 1.564.19 3.095.132 4.658.003.79-.066.87-.29 1.188.37.213.442.038 1.295-.284 1.635" mask="url(#b)"/>
        <path fill="#CAD6E3" d="M181.744 58.186c-.126-.077-.283-.07-.43-.062l-7.137.438c-.476.03-.983.07-1.36.36-.664.508-.629 1.5-.53 2.33.012.096.027.2.098.264.083.075.21.068.321.056l6.352-.67c.5-.053 1-.106 1.485-.233.815-.215 2.735-1.54 1.2-2.483" mask="url(#b)"/>
        <path fill="#613927" d="M168.97 80.163c.24.154.501.272.761.349l1.242.368c.1.03.213.058.304.007a.392.392 0 0 0 .132-.156 48.62 48.62 0 0 0 1.827-3.461c-.52-.08-.956-.417-1.42-.665-.463-.248-1.053-.405-1.497-.125-.574.362-.69 1.186-1.056 1.716-.117.169-.222.59-.367.704-.141.11-.598.047-.797.114-.024.008-.05.018-.063.039-.019.03-.005.07.01.103.19.412.53.757.923 1.007" mask="url(#b)"/>
        <path fill="#613927" d="M170.246 74.204c-.004-.163.203-.233.365-.251a18.307 18.307 0 0 1 3.076-.09c.098.005.197.012.288.045a.809.809 0 0 1 .356.29c.545.725.44 1.74.22 2.62-.177.712-.423 1.427-.885 1.997-.463.57-1.178.977-1.908.907a1.25 1.25 0 0 1-.622-.218c-.22-.16-.363-.407-.48-.653-.514-1.082-.973-3.028-.031-4.002.308-.32.659-.6 1.04-.833" mask="url(#b)"/>
        <path fill="#210B0C" d="M170.743 76.618c.085.183.167.408.055.576-.096.142-.288.173-.453.22-.658.185-1.11.786-1.423 1.394-.025.048-.058.102-.112.106-.078.006-.115-.098-.109-.176.012-.15.081-.288.121-.432.124-.444-.039-.92-.257-1.326-.219-.406-.496-.787-.63-1.229-.134-.441-.088-.981.263-1.28.224-.19.526-.25.815-.303.272-.05.546-.101.823-.114.62-.028 1.238.132 1.858.102-.325.45-.63.934-.994 1.352-.125.144-.355.29-.313.504.037.188.271.423.356.606" mask="url(#b)"/>
        <path fill="#141311" d="M168.228 75.35c-.195-.555.205-1.126.808-1.095a.803.803 0 0 1 .583.303c.07.088.119.19.166.292.202.442.63 1.401-.025 1.708-.372.175-.77-.166-1.04-.477-.195-.222-.393-.453-.492-.731" mask="url(#b)"/>
        <path stroke="#141311" stroke-width=".536" d="M169.91 76.416c.311.623.526 1.293.634 1.98.052.327.078.668-.022.983-.016.053-.04.108-.084.14a.267.267 0 0 1-.144.036c-.471.022-.936-.115-1.408-.133-.472-.018-1.003.125-1.233.538M173.543 76.031l-2.8.587" mask="url(#b)"/>
        <path fill="#1C201E" d="M173.34 76.81c.115.068.246.11.381.14.134.03.275.046.419.035.374-.027.772-.266.946-.61.174-.346.077-.774-.243-.913a1.216 1.216 0 0 0-.282-.07l-.402-.067c-.374-.063-.985-.175-1.172.308-.172.444-.012.96.354 1.177" mask="url(#b)"/>
        <path fill="#1C1413" d="M176.711 74.389c.04.263-.242.451-.487.554-2.404 1.005-5.184.735-7.631-.158-.326-.118-.692-.296-.768-.635a.914.914 0 0 1 .03-.428c.287-1.097 1.278-1.972 2.4-2.12a3.71 3.71 0 0 1 1.27.075c1.39.305 1.602 1.025 2.401 1.966.447.527.428.48 1.167.618.152.029 1.606.05 1.618.128" mask="url(#b)"/>
        <path fill="#B0BAE7" d="M169.77 73.574c.22-.34.525-.618.85-.86.298-.222.619-.42.973-.53.354-.111.746-.13 1.093.002-.428-.437-1.16-.438-1.706-.162-.545.277-.943.771-1.309 1.262-.234.315-.471.654-.512 1.044a.504.504 0 0 0 .05.316c.246.401.25-.199.272-.338.041-.261.147-.512.29-.734" mask="url(#b)"/>
        <path stroke="#1C201E" stroke-width=".536" d="M171.699 75.42l-1.11.997" mask="url(#b)"/>
        <path fill="#DEC290" d="M204.116 162.766c.427.079.87-.102 1.201-.383.403-.34 1.853-2.076.776-2.19-.99-.105-1.708 1.913-1.977 2.573" mask="url(#b)"/>
        <path fill="#090A0B" d="M218.04 175.783c.004.174.016.367.141.485.224.211.604.009.759-.257.155-.266.212-.595.433-.809.26-.253.712-.306.861-.638.114-.254-.01-.546-.132-.796-.16-.328-.363-.691-.717-.78-1.818-.452-1.364 1.777-1.344 2.795M210.65 180.05c-.428.351-.982.502-1.523.617-.437.092-.893.172-1.263.421-.37.25-.632.727-.483 1.15.191.538.879.674 1.449.703 1.911.1 3.834-.03 5.715-.385.054-.01.113-.023.15-.064.043-.047.044-.118.044-.183l-.069-5.175c-.007-.528-.036-1.113-.404-1.492-.792-.818-2.308-.003-2.682.89-.5 1.2.292 2.508-.934 3.517" mask="url(#b)"/>
        <path fill="#170D0A" d="M213.765 170.334c-.312.781-.61 1.722-.133 2.414.209.303.54.507.74.816.144.223.21.485.278.741.402 1.501.977 2.955 1.71 4.325a11.577 11.577 0 0 0-6.358 1.529l-.068-12.078c-.003-.51-.005-1.026.127-1.518.294-1.095 1.271-1.952 2.38-2.183.903-.19 3.088.043 3.16 1.262.038.64-.635 1.681-.868 2.265l-.968 2.427M219.635 162.445l-2.816.461c-.08.013-.166.03-.216.092-.05.06-.05.145-.05.223l.108 8.502c.007.6.035 1.255.43 1.706.233.265.567.423.907.516.92.253 2.249.066 2.933-.668.666-.714.233-1.97.126-2.86a71.402 71.402 0 0 0-1.422-7.972" mask="url(#b)"/>
        <path fill="#FFF" d="M210.757 145.884l.036-.801a56.928 56.928 0 0 1 2.771-1.69l.334 1.245a7.859 7.859 0 0 0-2.891 1.505" mask="url(#b)"/>
        <path fill="#492317" d="M219.655 152.898c.237-.097.493-.216.597-.45.071-.163.054-.349.036-.525l-.415-3.934c-.083-.79-.175-1.606-.579-2.29-.556-.942-1.646-1.48-2.734-1.586-1.089-.105-2.18.172-3.205.554-1.284.478-2.541 1.152-3.404 2.219-.106.131-.209.274-.242.44-.084.423.288.78.493 1.16.382.713.17 1.585.252 2.39.05.49.211.963.372 1.43.194.563.46 2.215.98 2.489.493.258 2.127-.263 2.662-.365.539-.103 5.187-1.027 5.187-1.532M220.591 162.392c.027.223.051.444.074.66.06.55.112 1.137-.14 1.63-.457.897-1.635 1.052-2.615 1.279-.752.173-1.478.451-2.232.614-1.787.388-3.643.118-5.45-.153-.145-.021-.307-.054-.387-.177-.085-.13-.037-.303.013-.45.405-1.195 1.01-2.464 1.221-3.705.198-1.165.201-2.435.32-3.62.108-1.074-.072-2.265.098-3.293 2.82.085 5.307-.017 7.8-1.568-.04 1.465.11 2.59.43 3.977.413 1.5.682 3.223.868 4.806" mask="url(#b)"/>
        <path fill="#CAD6E3" d="M211.322 160.784c-.026-.02-.503.273-.552.311-.126.098-.05.301.01.427.058.123.194.236.283.338.213.244.427.486.646.724.433.47.882.925 1.363 1.347.77.677 1.617 1.26 2.46 1.844l2.236 1.543c.785.541 1.57 1.084 2.396 1.558.597.343 1.214.65 1.807 1 1.582.934 3.08 2.33 4.895 2.79-.7-1.122-2.706-2.168-3.798-3.008a895.084 895.084 0 0 0-11.746-8.875" mask="url(#b)"/>
        <path fill="#1E1813" d="M210.678 161.402c-.307-.47-.78-1.285-1.087-1.754-.064-.1-.132-.211-.111-.328.028-.159.216-.247.375-.223.16.024.294.127.42.227.385.305 1.052 1.49 1.095 1.503" mask="url(#b)"/>
        <path fill="#170D0A" d="M213.355 154.337c1.76-.545 3.519-1.09 5.278-1.633.325-.099.502-.166.78-.379.157.174.14.438.115.671a6.975 6.975 0 0 1-.158.991c-.038.144-.087.292-.191.398-.08.083-.186.134-.29.185-.5.247-1.01.431-1.521.62-.588.215-1.224.25-1.849.283l-2.985.159c-.424.022-1.354-.214-1.017-.867.15-.29 1.51-.326 1.838-.428" mask="url(#b)"/>
        <path fill="#EAEAEA" d="M219.296 152.658c-.168-.721-.3-1.454-.325-2.262-.025-.781-.008-1.562.002-2.343.006-.45.25-1.81 0-2.173.41.594 1.053.982 1.543 1.511 1.098 1.185 1.446 3.054 2.064 4.513.88 2.083.465 4.46.035 6.68-.06.31-.161.672-.458.778-2.213.793-2.052-3.332-2.267-4.312-.184-.836-.411-1.607-.594-2.392M203.99 159.669c.794-.616 1.103-1.65 1.483-2.582 1.175-2.879 3.419-5.345 3.92-8.413.07-.424.124-.893.439-1.184.435-.403 1.154-.25 1.641.088.968.674 1.414 1.915 1.422 3.095.009 1.181-.356 2.328-.718 3.452l-.654 2.035c-.364 1.131-.734 2.277-1.367 3.282-.726 1.153-1.575 2.16-3.001 1.984-.32-.039-3.532-1.473-3.165-1.757M212.883 145.715c.07-.017.141-.033.212-.048.708-.151 1.281-1.584.205-1.596-.256-.003-2.808.396-2.809.557l-.005 1.342c-.002.243.017.526.215.666.036.025.946-.503 1.058-.55.366-.154.732-.26 1.116-.344.378-.083.736-.296 1.1-.438a12.37 12.37 0 0 1 1.3-.425c.329-.088.67-.165.954-.352-1.067-.068-2.062-.566-3.122-.71" mask="url(#b)"/>
        <path fill="#210B0C" d="M216.118 139.821l.022.057c.422 1.06 1.171 2.398 2.096 3.082 1.072.791 2.241 1.48 3.119 2.484.877 1.003 1.424 2.434.965 3.686-.19-.408-.38-.815-.572-1.222.26.62.261 1.346.001 1.967a23.35 23.35 0 0 0-1.609-2.762c-.358-.528-.744-1.048-1.248-1.438-.784-.607-1.785-.85-2.763-1.006-1.095-.175-2.223-.26-3.328-.13-.856.102-1.846.659-2.354-.27-.636-1.162-.057-3.028.33-4.181.195-.578.418-1.322.898-1.703.77-.613 2.069-.793 3.015-.733a.873.873 0 0 1 .28.05.803.803 0 0 1 .307.259c.425.535.593 1.222.841 1.86" mask="url(#b)"/>
        <path fill="#6A131A" d="M212.198 139.465c-.529.114-1.076.252-1.49.6-.416.347-.655.966-.408 1.449.237.462 5.76-.625 5.9-1.275.33-1.531-3.449-.893-4.002-.774" mask="url(#b)"/>
    </g>
</svg>
