<svg xmlns="http://www.w3.org/2000/svg" xmlns:xlink="http://www.w3.org/1999/xlink" width="252" height="203" viewBox="0 0 252 203">
    <defs>
        <path id="a" d="M0 202.97h251.851V0H0z"/>
    </defs>
    <g fill="none" fill-rule="evenodd">
        <path fill="#A36B58" d="M135.776 130.837c-.132.111-.27.226-.438.265a1.106 1.106 0 0 1-.32.012l-3.184-.189c.87 1.395 2.355 2.264 3.782 3.078l1.313-1.094c.475-.397.953-.797 1.354-1.27.221-.26.418-.543.613-.824l2.037-2.931c.3-.433 1.018-1.66.404-2.141-.451-.354-1.402 1.096-1.707 1.423a46.172 46.172 0 0 1-3.854 3.671"/>
        <path fill="#151317" d="M136.634 159.071l-.997 1.056c-.155.164-.31.328-.458.497-.219.249-.424.508-.628.767l-1.13 1.432c-.082.104-.954-.278-.954-.278s1.625-1.691 2.682-2.909c.458-.529.89-1.08 1.385-1.58.494-.497 1.048-.94 1.57-1.41a16.93 16.93 0 0 0 3.06-3.663c.067-.108.42.462.432.515.07.296-.038.397-.206.598-.455.547-1.045 1.054-1.543 1.578-1.073 1.13-2.143 2.264-3.213 3.397"/>
        <path fill="#12130F" d="M145.448 158.775c.035-.026.073-.057.08-.1.01-.063-.048-.114-.101-.151l-.294-.207-.965.852a4.5 4.5 0 0 1-.609.478c-.191.117-.399.206-.594.316-.223.127-.43.281-.614.46-.039.037-.078.079-.089.132-.014.07.027.139.072.194.094.115.22.209.364.24.412.09.979-.737 1.265-.995.477-.428.972-.835 1.485-1.22"/>
        <path fill="#8D9FB5" d="M145.28 158.57c.034-.025.072-.056.079-.099.01-.063-.048-.114-.1-.151l-.294-.206-.966.85a4.474 4.474 0 0 1-.609.478c-.191.118-.399.207-.594.317-.223.127-.43.281-.614.46-.039.037-.078.079-.089.132-.014.07.027.139.073.194a.669.669 0 0 0 .363.24c.413.09.979-.737 1.265-.995.477-.428.972-.835 1.485-1.22"/>
        <path fill="#151317" d="M148.45 165.337l-.851-.418c-.583-.286-1.166-.573-1.74-.875a34.527 34.527 0 0 1-3.242-1.943l.25-.416 3.953 1.902c.592.284 1.188.572 1.72.955.327.236.634.607.449 1.019-.188-.047-.365-.139-.54-.224M141.415 162.21l-8.931 1.195.429-.564 8.676-1.543z"/>
        <path fill="#8D9FB5" d="M141.415 161.705l-8.502 1.136-.158-.568 8.834-1.48z"/>
        <path fill="#12130F" d="M141.077 162.273c.004.02.01.038.018.054.077.152.353.199.5.223.37.06.76.073 1.122-.037.103-.032.32-.077.392-.164.113-.136.053-.463.089-.638a1.006 1.006 0 0 0-.08-.681c-.207-.401-.789-.456-1.193-.408-.241.028-.719.17-.824.377-.134.264-.056.648-.03.929.007.095-.016.242.006.345"/>
        <path fill="#181C1E" d="M151.174 117.81c.256-.893.471-1.819.403-2.749-.067-.93-.46-1.874-1.193-2.383-.605-.418-1.359-.497-2.08-.503-.586-.005-1.298.12-1.512.702a.582.582 0 0 0-.038.264c.04.356.45.485.776.57.35.093.697.23.975.473.5.44.7 1.145.875 1.809.138.526.278 1.058.289 1.604.006.314-.03.63.018.94.25 1.638 1.288-.036 1.487-.728"/>
        <path fill="#0B0C0C" d="M147.774 112.337c.908-.182 1.9.132 2.538.804.941.99 1.02 2.498.988 3.864-.013.538-.036 1.084-.205 1.594-.36 1.093-1.429 1.913-2.576 1.98-1.148.066-2.303-.626-2.787-1.67-.048-.103-.093-.213-.18-.286-.236-.2-.583-.015-.876.085-.316.108-.658.104-.992.1l-2.597-.041c-.076-.001-.159-.005-.215-.056-.048-.043-.065-.11-.074-.174-.052-.34.035-.687.02-1.032-.016-.344-.185-.73-.52-.81-.299-.07-.585.127-.856.271-.59.317-1.295.41-1.948.26-.4-.092-.787-.273-1.198-.26-.93.032-1.728 1.048-2.62.779-.014.361-.414.653-.763.557a55.644 55.644 0 0 1-.087-4.637 7.314 7.314 0 0 0 2.685-1.537c.23-.207.462-.438.764-.508.39-.09.783.112 1.14.297a18.294 18.294 0 0 0 5.704 1.843c.656.098 2.124.476 2.692.105.294-.192.49-.739.802-.984.338-.268.738-.46 1.16-.544"/>
        <path fill="#333946" d="M149.762 117.805c-.172.427-.488.842-.938.935-.46.096-.936-.184-1.193-.577-.583-.888-.624-3.544.833-3.734 1.493-.194 1.66 2.476 1.298 3.376"/>
        <path fill="#1C201E" d="M143.89 110.751c-.664-.411-1.501-.378-2.281-.331-.713.042-1.436.086-2.114.314-.156.052-.314.118-.426.24a1.051 1.051 0 0 0-.199.38 7.58 7.58 0 0 0-.31 1.188c-.03.166-.053.338-.011.5.034.132.109.25.19.358.61.81 1.573 1.199 2.526 1.437.767.192 2.204.669 2.951.308.665-.321.679-1.24.785-1.872.18-1.055-.132-1.917-1.11-2.522"/>
        <path fill="#333946" d="M145.95 110.73c-.476.386-1.135.434-1.748.444a26.762 26.762 0 0 1-5.76-.532l.65-.372c.09-.05.179-.102.277-.13.139-.04.287-.03.43-.022 1.17.061 2.34.01 3.505-.065.436-.028.8-.027 1.244.087.154.04 1.392.597 1.401.59"/>
        <path fill="#0B0C0C" d="M139.225 117.259c-.142.45-.174.927-.205 1.398l-.036.56c-.02.301-.033.629.139.878.236.34.71.39 1.124.409.341.015.733.01.957-.249.127-.148.17-.348.205-.54.086-.49.141-.986.164-1.482.023-.5.005-1.031-.26-1.455-.725-1.158-1.764-.556-2.088.48M137.254 119.26l1.72-1.973-.176-.153-1.267 1.452c.04-.693.05-1.395.035-2.089l-.233.005c.018.802 0 1.613-.055 2.412l-.024.346z"/>
        <path fill="#0B0C0C" d="M135.199 119.994c-.105.084-.212.176-.26.301-.04.1-.037.21-.034.318l.02.74c1.031.155 2.072.248 3.114.28.206.006.42.008.608-.079.398-.184.522-.68.6-1.112.035-.195.069-.403-.004-.588-.726-1.843-3.05-.663-4.044.14M137.018 111.72l.234-.009a23.695 23.695 0 0 1 .038-2.415c1.117-.125 2.261-.021 3.37.081.684.063 1.39.128 2.089.139a1.719 1.719 0 0 0-.117.746l.233-.015a1.505 1.505 0 0 1 .168-.792l.09-.17-.193-.001c-.748-.002-1.511-.072-2.25-.14-1.152-.105-2.344-.215-3.514-.069l-.095.012-.007.096a23.97 23.97 0 0 0-.046 2.536"/>
        <path fill="#333946" d="M142.383 110.092l.699-.023c-.028-.86-.02-1.735.025-2.599l-.7-.035a31.908 31.908 0 0 0-.024 2.657"/>
        <path fill="#0B0C0C" d="M135.739 110.711c-.237-.033-.484-.067-.715-.024-.34.062-.638.303-.78.616l2.926.48c-.003-.063-.004-.127-.006-.19-.006-.27-.012-.55-.184-.694-.154-.128-.58-.148-.89-.163a4.235 4.235 0 0 1-.351-.025zm-1.804.778l.038-.127c.136-.455.542-.82 1.009-.905.27-.05.545-.011.789.023.085.012.201.017.33.023.381.019.814.039 1.028.216.254.212.261.56.269.869.002.114.004.222.018.317l.023.159-3.504-.575z"/>
        <path fill="#151317" d="M141.254 161.266c0-.23.356-.417.795-.417.438 0 .794.187.794.417 0 .231-.356.418-.794.418-.44 0-.795-.187-.795-.418"/>
        <path fill="#0B0C0C" d="M142.95 122.263c.004.29.066.573.094.86.027.29.019.582.01.873l-.045 1.565c-.005.18-.011.36-.055.535-.126.49-.585.874-1.089.91a1.23 1.23 0 0 1-.324-.982c.026-.204.103-.409.062-.611-.038-.192-.176-.347-.253-.526-.216-.501.066-1.072.04-1.617-.018-.335-.153-.655-.184-.99-.031-.339.046-.678.122-1.01.197-.862.313-2.062 1.45-1.214.746.555.157 1.451.171 2.207"/>
        <path fill="#333946" d="M144.46 116.902c-.003-.084-.007-.175-.06-.24-.061-.072-.163-.087-.256-.097a25.703 25.703 0 0 0-2.282-.15c-.248-.005-.517 0-.708.158-.207.169-.257.46-.29.726a24.663 24.663 0 0 0-.176 3.225c.805.052 2.918.522 3.583-.081.638-.578.204-2.754.188-3.541"/>
        <path fill="#CAD6E3" d="M142.893 126.31v8.115c-.441 0-.877-.003-1.283-.175v-7.883c-.05 0-.098-.005-.147-.01.43-.317 1-.364 1.43-.047M142.893 141.524v11.64c-.441 0-.877-.004-1.283-.251v-11.308c-.05 0-.098-.006-.147-.013.43-.456 1-.524 1.43-.068"/>
        <path fill="#1B0F11" d="M142.893 133.958v8.115c-.441 0-.877-.003-1.283-.176v-7.883c-.05 0-.098-.004-.147-.01.43-.316 1-.364 1.43-.046"/>
        <path fill="#12130F" d="M149.476 164.782c-2.513-3.773-4.872-7.957-6.96-11.982-.314-.054-.636-.044-.927.088 1.819 2.794 3.709 5.853 5.232 8.819.7 1.365 1.379 2.76 2.365 3.935.172-.313.118-.547.29-.86"/>
        <path fill="#CAD6E3" d="M150.17 164.879s-5.18-8.354-7.22-12.31c-.308-.054-.683.02-.967.15a95.842 95.842 0 0 1 4.903 8.501c.685 1.342 2.312 3.869 2.312 3.869l.973-.21zM136.284 159.071l-.997 1.056c-.155.164-.31.328-.458.497-.219.249-.424.508-.629.767l-1.128 1.432c-.082.104-.17.49-.298.537-.098.036-.657-.815-.657-.815s1.625-1.691 2.682-2.909c.459-.529.89-1.08 1.385-1.58.494-.497 1.048-.94 1.57-1.41a16.948 16.948 0 0 0 3.06-3.663c.068-.108.42.462.432.515.07.296-.038.397-.206.598-.455.547-1.045 1.054-1.543 1.578-1.073 1.13-2.143 2.264-3.213 3.397"/>
        <path fill="#12130F" d="M150.106 165.335a.475.475 0 0 1-.1.238.533.533 0 0 1-.098.077.487.487 0 0 1-.118.066.483.483 0 0 1-.148.015h-.264c-.096 0-.203-.004-.27-.072-.067-.068-.071-.177-.044-.268.027-.09.08-.172.113-.26.006-.017.012-.033.024-.045a.096.096 0 0 1 .028-.016c.216-.093.453-.101.68-.146.128-.025.179-.083.226.03.038.095-.01.284-.029.38"/>
        <path fill="#CAD6E3" d="M142.698 153.674v5.76c0 .536.074 1.134 0 1.666-.017.122.016.12-.098.203-.22.162-.676.128-.924.072a.428.428 0 0 1-.171-.07c-.231-.176-.09-1.078-.09-1.324v-2.294-3.96c-.05 0-.098-.004-.147-.008.43-.298 1-.343 1.43-.045"/>
        <path fill="#151317" d="M132.156 148.037c-.052.003-.111.01-.138.053a.156.156 0 0 0-.015.078l-.023.88c-.005.202-.01.408.034.606.045.198.143.391.309.508.196.139.451.152.69.151.1 0 .202-.003.293-.043.138-.06.227-.195.287-.333.129-.292.154-.613.153-.93-.001-.238.034-.57-.058-.799-.094-.236-.283-.219-.51-.211-.34.012-.682.027-1.022.04"/>
        <path fill="#12130F" d="M140.715 153.164a1.285 1.285 0 1 1 2.57-.001 1.285 1.285 0 0 1-2.57.001"/>
        <path fill="#151317" d="M132.185 162.514c-.013-.004-.026-.008-.038-.004-.015.005-.024.02-.03.035-.101.219-.18.448-.232.683.187.114.399.187.616.214.103.012.22.01.295-.06a.363.363 0 0 0 .085-.137c.082-.203.364-.293.19-.422-.178-.132-.677-.237-.886-.31"/>
        <path fill="#CAD6E3" d="M126.016 163.709c-.588-.505-.962-1.212-1.485-1.784-.023-.024-.047-.05-.08-.057-.038-.01-.077.01-.11.03-.283.177-.366.57-.28.894.085.324.301.595.512.855l.43.53c.151.188.304.376.484.536.695.615 1.69.723 2.614.802.85.073 1.537-.658.441-.922-.929-.224-1.75-.219-2.526-.884"/>
        <path fill="#FFF" d="M128.09 164.843c.296-.004.592-.008.887-.01-.02-.279-.217-.519-.455-.664-.237-.144-.514-.209-.784-.272-.202.303-.083.769.238.939"/>
        <path fill="#0F1110" d="M128.159 164.732c-.013.08-.04.164-.105.211-.059.044-.137.048-.21.047-.622-.015-1.18-.365-1.702-.704-.235-.152-.472-.307-.666-.51a3.611 3.611 0 0 1-.384-.513c-.18-.271-.358-.543-.537-.814-.079-.119-.16-.249-.152-.39.012-.204.208-.354.407-.397.524-.113 1 .303 1.375.686.534.547 2.062 1.544 1.974 2.384"/>
        <path fill="#8D9FB5" d="M137.615 151.67c.525.694 1.147 1.55.8 2.348-.187.428-.608.695-.965.996-.61.513-1.07 1.176-1.595 1.775-.61.696-1.31 1.308-2.006 1.917l-2.448 2.141c-1.258 1.1-2.519 2.203-3.883 3.169-.129.091-.268.184-.426.193-.256.014-.464-.195-.635-.387l-1.553-1.744c-.08-.09-.164-.188-.185-.307-.04-.225.151-.417.325-.564l3.906-3.324c.547-.465 1.095-.931 1.585-1.455.811-.867 1.453-1.879 2.032-2.916a31.99 31.99 0 0 0 1.219-2.42c.323-.717.556-2.06 1.097-2.614.74-.758.935.129 1.246.768.415.854.914 1.668 1.486 2.424"/>
        <path fill="#FFF" d="M137.22 170.629c.462.19.502.89.187 1.28-.314.389-.835.536-1.325.633a13.61 13.61 0 0 1-4.194.176c-.208-.023-.42-.054-.6-.16-.18-.106-.32-.308-.293-.515.047-.352.484-.477.835-.525 1.061-.145 2.083-.348 3.098-.692.663-.224 1.61-.48 2.291-.197"/>
        <path fill="#CAD6E3" d="M137.486 172.193c-.237.254-.59.39-.929.495-1.643.515-3.42.643-5.157.523-.394-.027-.896-.166-.9-.514-.003-.19.17-.354.368-.427.198-.073.42-.075.635-.075.722-.001 1.442.062 2.164.04.358-.01.717-.038 1.068-.111.348-.072.69-.055 1.03-.15.228-.062.456-.126.683-.189.174-.048.35-.096.518-.161.187-.071.382-.164.578-.124.073.015.147.055.176.123.023.057.012.121-.006.179a1.006 1.006 0 0 1-.228.391"/>
        <path fill="#0F1110" d="M135.443 170.44c.083-.007.17-.015.247.025.098.05.16.164.214.272.229.453.146.782.141 1.267 0 .165-2.3.574-2.54.592-.641.046-1.313-.095-1.83-.54-.042-.036-.086-.09-.068-.146a.14.14 0 0 1 .046-.059c.502-.434 1.031-1.049 1.653-1.23.66-.194 1.46-.117 2.137-.18"/>
        <path fill="#8295A8" d="M129.35 150.42c.151.163.317.322.398.53.072.183.07.386.069.583l-.078 6.91c-.008.699-.016 1.4-.118 2.092-.136.923-.436 1.814-.586 2.735-.155.942-.152 1.902-.148 2.856 0 1.07.008 2.14.012 3.21.003.973-.57 3.801 1.206 3.636.609-.057 1.496-.595 2.084-.82.787-.301 1.56-.687 2.073-1.38.083-.113.16-.237.171-.377.03-.395-.434-.607-.733-.867-.47-.408-.585-1.08-.672-1.698l-.304-2.176c-.12-.866-.242-1.737-.218-2.611.017-.65.116-1.296.237-1.935.471-2.472 1.293-4.856 1.965-7.276.322-1.162.71-2.38.726-3.583.018-1.354.136-2.714.204-4.067-1.16.1-2.335.026-3.473-.22-.48-.103-.959-.238-1.45-.261-.427-.021-.866.04-1.272-.09-.249-.08-.475-.231-.734-.27-.446-.07-.861.497-.964.896-.121.476.048 1.038.193 1.488.294.91.75 1.985 1.412 2.695"/>
        <path fill="#B67B63" d="M142.163 127.864a.879.879 0 0 1 .477.097c.932.499-2.027 6.316-2.44 6.953-1.434 2.21-3.949 1.661-6.375 1.395-.2-.022-.455-.109-.447-.31.004-.091.069-.168.129-.237.53-.613 1.058-2.204 1.707-2.589.94-.558 2.349.169 3.416-.305 1.187-.528 1.681-1.92 2.036-3.172.138-.487.283-.992.616-1.374.221-.255.553-.436.881-.458"/>
        <path fill="#090A0B" d="M133.359 131.92c.71.462 1.477.836 2.277 1.11-.52 1.155-1.063 2.344-1.991 3.205.42.098.85.157 1.281.176-.615.508-.616 1.441-.499 2.23.124.833.323 1.664.698 2.417.199.4.448.781.558 1.214.114.446.072.915.029 1.374-.01.113-.024.232-.093.321a.576.576 0 0 1-.254.16 6.895 6.895 0 0 1-1.343.384c-1.516.27-3.065.017-4.532-.394-.301-.085-.806-.143-1.06-.325-.293-.211-.201-.384-.223-.768-.08-1.444-.602-2.862-.915-4.267l-.993-4.453c-.094-.426-.19-.856-.177-1.291.013-.435.146-.883.452-1.194.392-.398.986-.502 1.541-.564 1.809-.2 3.673-.359 5.244.665"/>
        <path fill="#B67B63" d="M134.296 126.395c.092.15.059.336-.057.469a.805.805 0 0 0-.154.262c-.102.291-.03.613-.062.92-.05.48-.367.907-.778 1.156-.41.25-.906.336-1.386.312a.443.443 0 0 1-.217-.052c-.075-.048-.117-.133-.154-.214-.4-.865-.78-1.78-.74-2.733.017-.42.117-.833.24-1.235.121-.392.268-.784.517-1.11.25-.327.755-.802 1.166-.908.477-.122.575.484.723.88.071.19.54 1.662.902 2.253"/>
        <path fill="#090A0B" d="M134.098 126.072c-.06.214-.186.403-.37.49a.48.48 0 0 1-.154.046c-.217.023-.419-.146-.506-.347-.237-.553.087-.695-.654-.698-.137 0-1.418.127-1.436.09a.476.476 0 0 1-.003-.41 19.937 19.937 0 0 1 2.362-.175c.341-.003.598.042.737.368a.993.993 0 0 1 .024.636M128.09 145.89c.649.053 1.267.198 1.9.302 1.193.196 2.436.247 3.669.296.38.016.76.031 1.14.021.39-.01.658.06.82-.273.122-.249.126-.716.066-.981-.096-.422-.246-.318-.691-.294-.794.043-1.584.144-2.38.13-.919-.017-1.81-.184-2.707-.306-.303-.04-1.523-.279-1.68-.089-.112.136-.053.404-.069.555l-.069.64"/>
        <path fill="#1C201E" d="M128.126 144.698v.043c.563-.119 1.305.171 1.868.26 1.25.196 2.553.246 3.845.296.398.015.797.03 1.196.021.178-.005.395.1.52-.083.065-.097.077-.219.086-.335l.082-1.005c.003-.045.004-.099-.031-.128-.026-.022-.062-.022-.096-.022-.95.003-1.896.17-2.852.154-.963-.016-1.896-.183-2.837-.305-.427-.055-.862-.162-1.295-.159-.715.005-.495.683-.486 1.263"/>
        <path fill="#151317" d="M132.61 150.013c.064-.003.132-.008.181-.048.048-.039.068-.102.085-.162l.577-2c.11-.383.22-.764.325-1.148.032-.116.128-.358.08-.477-.063-.157-.298-.103-.473-.114-.266-.017-.532-.04-.797-.07-.237-.027-.386-.12-.5.085-.134.242-.183.59-.269.855-.168.515-.364 1.028-.506 1.551-.09.336-.11.72-.018 1.059.158.582.784.49 1.316.469"/>
        <path fill="#CAD6E3" d="M132.138 148.024l-.416-.185c-.078.248-.12.518-.124.79 0-.012 1.187.329 1.29.337.037-.115.067-.232.093-.353l.081-.38c-.312-.073-.616-.078-.924-.21"/>
        <path fill="#151317" d="M131.221 147.074l-.562 1.708c-.669-.373-1.476-.386-2.199-.638a.277.277 0 0 1-.13-.076c-.048-.06-.04-.144-.046-.22-.027-.329-.342-.612-.272-.934.02-.088.068-.167.112-.246.274-.484.45-1.023.514-1.575a7.352 7.352 0 0 1 1.855.503c.225.094.786.194.927.407.163.247-.117.823-.199 1.07"/>
        <path fill="#492317" d="M131.514 127.41c-.027-.308-.045-.63.07-.918.14-.349.456-.594.659-.91.344-.537.338-1.218.32-1.856-.003-.131-.01-.275-.1-.372a.47.47 0 0 0-.234-.122c-.48-.127-1.006-.014-1.47-.19-.367-.139-.655-.446-1.028-.565a1.433 1.433 0 0 0-.837.014c-.7.208-1.237.8-1.551 1.46-.315.661-.438 1.394-.558 2.116l-.04.243c-.251 1.512-.503 3.031-.533 4.564-.014.757.025 1.515.083 2.27.021.274 4.202.03 4.604-.03.484-.072 1.598-.098 1.618-.696.01-.328-.239-.799-.325-1.122a22.554 22.554 0 0 1-.678-3.885"/>
        <path fill="#38130B" d="M131.66 122.14l1.098-.019a.72.72 0 0 1 .28.034c.2.08.284.337.228.544-.057.208-.22.37-.398.49-.4.272-.895.382-1.378.37-.424-.012-1.891-.155-1.715-.795.175-.637 1.4-.617 1.884-.625"/>
        <path fill="#663531" d="M166.434 108.727c.035-.565.07-1.13.166-1.688.155-.894.47-1.775.422-2.682-.01-.218-.04-.45.057-.645.187-.374.7-.4 1.117-.374.373.024.755.05 1.093.208.75.35 1.09 1.266 1.038 2.092-.05.826-.408 1.596-.71 2.366a19.226 19.226 0 0 0-.982 3.379c-.03.152-.062.315-.168.427-.13.139-.338.167-.528.172-2.17.067-1.603-1.653-1.505-3.255"/>
        <path fill="#C69B93" d="M166.397 111.426l1.719.124c.068.006.146.016.183.074.028.044.022.1.015.152l-.276 2.042c-.057.426-2.017.287-2.281-.075-.472-.647.45-1.674.64-2.317"/>
        <path fill="#170D0A" d="M165.435 113.839a4.442 4.442 0 0 0-.392 1.034c-.054.222-.09.457-.03.677.092.327.377.557.646.765l1.17.9c.295.228.595.458.94.6.344.144.744.191 1.088.048.343-.145.606-.511.554-.88-.036-.256-.205-.468-.352-.68a5.112 5.112 0 0 1-.9-2.554c-.025-.362-2.44-.443-2.724.09"/>
        <path fill="#663531" d="M158.316 110.09l.032 1.932c.002.093.007.196.072.264.054.057.137.073.215.087l.661.119c.113.02.232.04.34.005.12-.037.21-.133.292-.226.76-.867 1.33-1.879 1.791-2.931.407-.93 1.11-2.263 1.17-3.283.036-.634-.407-.644-.982-.839-.41-.14-.836-.293-1.27-.33-.834-.07-1.369.313-1.74 1.048-.64 1.272-.597 2.77-.581 4.153"/>
        <path fill="#070706" d="M165.356 68.723c0-.2.04-.396.08-.59l.205-.982c.093-.449.191-.91.414-1.286.373-.632 1.053-.925 1.695-.893.642.033 1.253.348 1.81.734.375.259.743.563.98.999.384.71.338 1.694-.045 2.405a2.402 2.402 0 0 1-1.758 1.25c-.905.128-3.38-.031-3.381-1.637"/>
        <path fill="#703E34" d="M166.523 70.825l.022-.024a4.93 4.93 0 0 0 2.212.31c.08-.007.162-.015.236.014.172.068.206.29.231.474.152 1.115 1.47 1.84 1.462 2.694-.008.96-1.257 1.79-2.062 1.986-1.303.317-3.79-.203-4.138-1.744-.275-1.223 1.275-2.852 2.037-3.71"/>
        <path fill="#663531" d="M171.069 88.1c-.104.241-.191.528-.063.758.129.229.564.233.595-.029.035.357.52.506.846.361.328-.144.54-.46.77-.733.597-.702 1.377-1.128 2.065-1.698.73-.603 1.302-1.577 1.819-2.362.18-.272.36-.577.324-.9-.02-.196-.12-.374-.22-.545a31.51 31.51 0 0 0-1.937-2.951 7.562 7.562 0 0 0-1.944 1.716l1.236 1.879c-1.326 1.401-2.715 2.7-3.491 4.504M161.3 85.406c.214.264.439.535.524.863.086.328-.013.733-.316.886-.431.219-.908-.172-1.24-.524a44.593 44.593 0 0 0-4.166-3.908c-.396-.327-.823-.685-.937-1.186-.173-.76.454-1.475 1.122-1.878.087-.053.186-.105.286-.088.081.013.148.069.21.123 1.879 1.667 2.962 3.78 4.518 5.712"/>
        <path fill="#170D0A" d="M170.296 94.049c.557-.236 1.058-.593 1.623-.81.208.216.222.548.221.848a52.104 52.104 0 0 1-.864 9.324c-.05.26-.107.538-.292.728-.248.254-.643.277-.998.269-1.298-.033-2.789-.429-3.31-1.62-.159-.362-.207-.762-.248-1.156-.201-1.92-.592-4.359-.15-6.261.157-.678.5-.907 1.176-.951.99-.064 1.896.029 2.842-.371"/>
        <path fill="#170D0A" d="M159.872 103.35c-.12.328-.261.672-.2 1.017.07.4.398.703.736.928a4.679 4.679 0 0 0 3.823.595c.505-.144 1.001-.388 1.33-.8.579-.725.498-1.752.54-2.68.091-1.99.87-3.873 1.532-5.752.341-.97.653-2.047.276-3.003-.215-.546-.632-.983-1.039-1.406l-1.474-1.53c-.139-.145-.287-.295-.48-.351-.19-.055-.392-.01-.584.035-.745.177-1.536.387-2.045.958-1.097 1.23-1.457 3.542-1.537 5.15-.058 1.18-.093 2.362-.204 3.538a16.886 16.886 0 0 1-.237 1.708c-.096.482-.437 1.118-.437 1.592"/>
        <path fill="#C69B93" d="M164.86 74.15c.192.658.799 1.128 1.45 1.336.652.207 1.351.193 2.034.167.724-.028 1.54-.113 1.983-.686.253-.327.34-.77.635-1.057.52-.507 1.435-.275 1.945.242s.757 1.23 1.121 1.858c.435.748 1.055 1.406 1.303 2.235.09.297.129.61.252.893.318.73.892 1.139.764 2.005-.108.727-.565 1.34-1.105 1.814-.349.306-.923.729-1.424.646-.523-.088-.711-.677-.985-1.11.236 3.167.467 6.39-.229 9.49-.059.263-.126.529-.265.76-.326.544-.97.793-1.568 1.003-1.342.474-2.79.952-4.159.567-.817-.23-1.517-.747-2.237-1.198a15.807 15.807 0 0 0-3.345-1.583 59.2 59.2 0 0 0-.538-11.226c-.85.088-1.223 1.106-1.892 1.636-.112.088-.242.166-.384.165-.133-.001-.255-.07-.368-.14-.767-.475-2.135-1.368-2.095-2.327.046-1.075 1.061-2.283 1.787-2.987.895-.87 1.967-1.532 3.047-2.158 1.523-.884 3.213-1.741 4.85-2.329.103.244-.082.416-.239.625-.302.402-.487.848-.338 1.36"/>
        <path fill="#151317" d="M165.058 80.858c-.009.24.047.531.304.622.171.059.375-.001.504-.115a.826.826 0 0 0 .238-.424c.076-.28.079-.573.01-.855-.065-.27-.327-.67-.7-.467-.325.178-.344.948-.356 1.239M169.74 82.531c-.009.24.047.532.305.622.17.06.374 0 .504-.114a.827.827 0 0 0 .237-.424c.076-.28.08-.574.011-.855-.065-.27-.328-.67-.7-.467-.325.178-.345.947-.356 1.238"/>
        <path stroke="#151317" stroke-width=".594" d="M170.357 81.36a38.092 38.092 0 0 1 .014-6.695M165.688 79.723l-.684-6.073c-.065-.569-.058-1.267.511-1.557M170.338 81.289a87.269 87.269 0 0 1-5.054-5.637"/>
        <path fill="#663531" d="M169.806 67.76c-.384-.002-.754.03-1.112-.077-.487-.145-.773-.518-1.349-.43-.192.03-.374.11-.54.208-.642.383-1.057 1.052-1.239 1.754-.062.24.639 2.814.834 3.016.489.506 1.05.948 1.665 1.31.725.429 1.173.496 1.728-.19.3-.37.593-.756.755-1.196.173-.474.187-.984.198-1.485l.056-2.454c-.203-.026-.306-.246-.476-.356-.149-.095-.34-.1-.52-.1"/>
        <path fill="#C69B93" d="M158.175 111.984l1.719.124c.068.006.146.016.183.074.028.044.022.1.015.152l-.276 2.042c-.058.426-2.017.287-2.282-.075-.472-.647.451-1.674.64-2.317"/>
        <path fill="#170D0A" d="M157.172 113.839a4.442 4.442 0 0 0-.393 1.034c-.054.222-.09.457-.029.677.091.327.376.557.645.765l1.17.9c.296.228.596.458.94.6.344.144.744.191 1.088.048.344-.145.606-.511.554-.88-.036-.256-.204-.468-.352-.68a5.115 5.115 0 0 1-.9-2.554c-.025-.362-2.44-.443-2.723.09"/>
        <path fill="#141311" d="M160.764 92.077c.01.114.027.228.01.34-.027.17-.129.315-.217.461-.372.616-.53 1.334-.683 2.037l.727.327c.191.086.391.174.6.162.48-.028.763-.538.954-.98l.907-2.102a1.14 1.14 0 0 0 .114-.385c.011-.226-.117-.443-.289-.592-.902-.785-2.263-.77-2.123.732"/>
        <path fill="#6A131A" d="M161.599 93.847a5.9 5.9 0 0 1-1.092-.233l-.036.436c.205.034.404.099.589.194.072.037.153.08.23.055.156-.048.143-.3.284-.382"/>
        <path stroke="#141311" stroke-width=".594" d="M162.574 91.545l.539-1.465c.219-.594.44-1.194.78-1.728"/>
        <path fill="#6C7A75" d="M14.45 6.899a3.091 3.091 0 0 1-2.234.139c-.07-.023-.15-.048-.215-.013-.053.028-.08.088-.104.144-.295.706-.55 1.43-.764 2.165-.015.05-.028.11.004.15.023.03.062.04.099.05.525.116 1.059.06 1.591.052.297-.005.978.169 1.234.006.322-.204.245-.732.269-1.06.014-.188-.003-1.576.12-1.633"/>
        <path fill="#1E231C" d="M13.37 48.815c-.017.14-.038.288-.133.39-.108.117-.28.14-.439.154-1.676.154-3.363.1-5.045.047-.433-.014-.89-.034-1.256-.265-.364-.229-.587-.748-.343-1.103.18-.26.525-.334.835-.398a12.581 12.581 0 0 0 3.583-1.335c.202-.114.403-.233.622-.308.543-.187 1.75-.267 2.206.2.522.535.047 1.97-.03 2.618"/>
        <path fill="#190C0A" d="M4.128 9.246c.663.798 1.39 1.638 2.391 1.913.442.121.908.122 1.366.112.735-.015 1.47-.054 2.202-.116.603-.051 1.318-.2 1.538-.764.085-.217.076-.458.065-.69-.005-.13-.016-.272-.102-.369-.1-.111-.265-.127-.415-.134-2.286-.106-3.68-.81-5.63-1.897-.575-.321-1.48-.632-2.14-.384-1.275.48.23 1.733.725 2.329"/>
        <path fill="#6C7A75" d="M4.274 7.263c.141-.402-.169-.82-.505-1.082-.22-.172-.472-.32-.75-.351-.279-.031-.587.08-.724.325-.162.29-.04.664.16.931s.47.479.649.76c.05.08.1.17.186.209.11.05.24 0 .344-.062.238-.14.44-.34.585-.576"/>
        <path fill="#8D9FB5" d="M13.323 44.814c-.002.468-.016.963-.259 1.364-.242.401-.799.652-1.196.403-.383-.24-.423-.773-.427-1.226-.058-6.545-1.411-13.07-.91-19.596-.039.498 2.88.362 3.16.92.225.45-.104 1.348-.165 1.816-.097.751-.17 1.505-.225 2.26-.215 2.98-.135 5.972-.058 8.955.044 1.701.089 3.402.08 5.104"/>
        <path fill="#8295A8" d="M12.216 45.957c-.026.426-.06.851-.099 1.276-.019.206-.043.423-.165.589-.196.266-.57.312-.9.336-.898.064-2.001.021-2.423-.774-.124-.233-.165-.498-.205-.758l-.543-3.566c-.946-6.219-1.895-12.53-1.13-18.775l2.555.798c.684.213 1.87.34 2.44.765.832.62.134 3.15.106 4.158-.095 3.422.22 6.837.367 10.253.081 1.906-.003 3.794-.003 5.698"/>
        <path fill="#2E362B" d="M11.867 51.755l-8.233-.14a.593.593 0 0 1-.275-.049c-.11-.06-.17-.183-.193-.305-.068-.365.147-.735.441-.962.294-.226.656-.34 1.007-.462a16.315 16.315 0 0 0 2.917-1.353c.293-.173.586-.358.916-.443.25-.065.513-.069.772-.072.564-.009 2.66-.373 2.941.218.174.364-.086 1.273-.123 1.674l-.17 1.894"/>
        <path fill="#A88E7C" d="M10.38 5.884c-.161-.484-.163-1.005-.135-1.513.033-.598.107-1.194.219-1.783.056-.295.135-.61.363-.806.241-.208.587-.228.906-.238.635-.019 1.308-.03 1.859.287.574.33.915.972 1.026 1.625.112.652.023 1.322-.089 1.974-.173 1.01-.195 2.674-1.598 2.448-1.062-.17-2.206-.951-2.552-1.994"/>
        <path fill="#663531" d="M10.924.819c.099-.2.202-.406.37-.552.286-.247.697-.272 1.074-.266 1.518.025 3.206.497 3.943 1.826.483.871.45 1.96.112 2.897-.337.937-.948 1.75-1.591 2.51-.107.126-.225.257-.385.296-.186.045-.376-.049-.538-.153a3.404 3.404 0 0 1-1.112-1.181c-.18-.32-.308-.668-.52-.966-.513-.716-1.433-1.146-1.809-1.972-.356-.782.11-1.736.456-2.44"/>
        <path fill="#190C0A" d="M10.17 9.181a16.796 16.796 0 0 1 2.768-.201c1.048.01 2.2.17 2.899.953.786.881.711 2.21.575 3.383a127.44 127.44 0 0 1-2.092 12.499c-.058.265-.13.553-.344.721-.205.16-.486.169-.745.178-1.324.047-2.654.295-3.964.104-1.31-.19-2.658-.96-3.02-2.235-.141-.495-.122-1.02-.101-1.533l.17-4.287c.06-1.483.121-2.982.517-4.413.197-.71.511-1.393.68-2.11.112-.48 0-.934.08-1.394.203-1.162 1.57-1.507 2.577-1.665"/>
        <mask id="b" fill="#fff">
            <use xlink:href="#a"/>
        </mask>
        <path fill="#090D01" d="M.926 6.292H2.9V2.34H.926z" mask="url(#b)"/>
        <path fill="#6C7A75" d="M1.802 6.403a.883.883 0 0 0-.326-.396c-.218-.131-.507-.106-.73.018-.223.124-.387.333-.509.557-.25.46-.332 1.04-.1 1.51.148.297.752.84 1.103.556a.817.817 0 0 0 .195-.281c.148-.296.362-.604.476-.908.119-.314.027-.764-.11-1.056" mask="url(#b)"/>
        <path fill="#190C0A" d="M2.75 8.15c-.325-.582-.797-1.246-1.46-1.189C.68 7.013.304 7.687.259 8.3c-.093 1.296.767 2.448 1.61 3.437 1.098 1.288 2.392 2.614 4.07 2.828.812.104 1.631-.069 2.426-.265.356-.087.727-.189.994-.44.268-.25.385-.7.159-.99-.25-.316-.728-.275-1.13-.272-1.05.01-2.061-.452-2.892-1.095-1.19-.92-2.022-2.059-2.746-3.354" mask="url(#b)"/>
        <path stroke="#141614" stroke-width=".594" d="M183.4 108.644c-.034 1.072-.023 2.156.221 3.2.162.69.422 1.351.682 2.01.144.366.29.734.5 1.066.4.63 1.01-1.242 1.606-.793" mask="url(#b)"/>
        <path fill="#4F301F" d="M189.349 117.81c.042-.157.086-.327.025-.479-.072-.182-.27-.276-.456-.34a4.095 4.095 0 0 0-.834-.193c-.096-.011-.2-.018-.283.032a.451.451 0 0 0-.15.183c-.733 1.352-.887 2.933-1.026 4.466l-.117 1.287c-.042.462-.084.934.03 1.384.114.45.414.88.856 1.02 1.676.53 1.234-1.917 1.265-2.756.056-1.554.287-3.102.69-4.604" mask="url(#b)"/>
        <path fill="#190C0A" d="M188.892 124.148a2.016 2.016 0 0 1-1.458.572c-.2-.006-.418-.039-.586.07-.146.095-.214.272-.258.44-.19.721-.127 1.482-.06 2.225.016.188.042.394.182.52.09.08.21.113.327.142 2.063.511 4.202.71 6.323.586.156-.01.332-.031.423-.158.057-.08.067-.183.074-.28.06-.804.236-1.069-.506-1.295-.604-.183-1.212-.178-1.813-.437-.365-.157-3.029-1.837-2.648-2.385" mask="url(#b)"/>
        <path fill="#613927" d="M187.022 122.672a48.279 48.279 0 0 1 1.992-6.673 8.749 8.749 0 0 0-1.951-.444c-.516-.055-1.068-.056-1.513.24-.637.423-.864 1.311-1.008 2.12a36.56 36.56 0 0 0-.428 9.684c.018.206.052.437.204.556.203.158.48.024.69-.12.62-.428 1.454-.93 1.622-1.75.237-1.149.129-2.422.392-3.613" mask="url(#b)"/>
        <path fill="#0B0C0C" d="M192.148 105.966c.374-.048.751.029 1.12.108.196 1.152.392 2.309.407 3.477.008.6-.032 1.198-.06 1.797-.12 2.473-.05.286.207 2.749.06.573.103 1.23-.301 1.64-.336.34-.861.38-1.338.4l-2.033.085c-.539-3.832-.775-3.037-.704-6.907.027-1.48 1.088-3.142 2.702-3.35" mask="url(#b)"/>
        <path fill="#0B0C0C" d="M191.196 112.114c.041 1.624.082.917-.062 2.536-.082.915-.222-.51-.275.407-.046.782-.028 1.566-.01 2.349-2.145.415-4.146.382-6.269.172.129-1.463.727-.401.809-1.875.088-1.593.146-.854.175-2.45.006-.319.01-.64-.036-.956-.052-.349-.167-.685-.261-1.025-.3-1.08-.405-2.203-.508-3.319-.031-.337-.062-.68.008-1.01.144-.688.705-1.254.754-1.955.955.137 1.825.6 2.716.97.623.258 1.289.479 1.969.496.198.005.692-.14.826-.007.137.136.042.862.046 1.057l.118 4.61" mask="url(#b)"/>
        <path fill="#190C0A" d="M183.098 129.83c-.015.25-.021.526.137.72.12.147.311.214.493.272a21.36 21.36 0 0 0 6.596.996c.468-.004 1.016-.067 1.255-.47.204-.344.075-.807-.192-1.104-.267-.298-.642-.47-1.005-.639-1.288-.603-2.65-1.392-3.124-2.734-.06-.168-.115-.356-.264-.451-.176-.111-.416-.045-.576.087-.16.131-.266.316-.395.479-.696.879-1.281.487-2.147.612-.938.136-.735 1.477-.778 2.233" mask="url(#b)"/>
        <path fill="#4F301F" d="M195.092 95.433c.104-.228.156-.48.295-.689.28-.418.826-.548 1.322-.632a.99.99 0 0 1 .103.587c-.195-.03-.387.102-.486.272-.1.171-.128.373-.154.569-.067.507.316.818.355 1.326a.329.329 0 0 1-.022.173.36.36 0 0 1-.115.12 4.793 4.793 0 0 1-1.293.648l-.793.25c-.33.105-.716.203-1.002.007-.486-.332-.297-1.323.16-1.61.248-.157.61-.118.882-.257.323-.164.597-.432.748-.764" mask="url(#b)"/>
        <path fill="#CAD6E3" d="M184.228 109.834c-.247-.197-.428-.46-.606-.721-.229-.334-.462-.68-.548-1.075-.027-.124-.037-.26.025-.37.06-.11.181-.173.302-.207.915-.264 1.649.699 2.039 1.389.503.888-.397 1.633-1.212.984" mask="url(#b)"/>
        <path fill="#5E8C6B" d="M184.288 101.597c.058.857.023 1.72-.104 2.57-.018.123-.038.249-.017.371.024.14.099.263.172.383.469.767.97 1.567 1.753 2.008.469.264 1.006.38 1.494.605.391.18.748.429 1.143.601.394.173.85.264 1.254.113.775-.291.978-1.267 1.419-1.969.058-.093.126-.186.226-.231.143-.066.308-.017.464.008.672.107 1.356-.276 1.753-.83.397-.553.547-1.248.593-1.928.172-2.55-.992-5.022-1.024-7.578-.01-.75.073-1.53-.214-2.221-.074-.18-.173-.35-.234-.534-.087-.26-.097-.54-.118-.814-.041-.54-.131-1.073-.221-1.606-.107-.634-.243-1.32-.726-1.742-.642-.562-1.605-.43-2.456-.485-.878-.055-1.725-.341-2.6-.431a1.27 1.27 0 0 0-.326-.002c-.373.06-.63.397-.833.717a14.143 14.143 0 0 0-2.05 5.487c-.325 2.179.355 4.358.347 6.562-.001.37.006.727.305.946" mask="url(#b)"/>
        <path fill="#613927" d="M188.887 99.78c.388.081.786.109 1.182.136l3.27.23c.626.044 1.311.115 1.748.564.171.176.293.418.26.661-.029.207-.163.382-.293.546l-.707.892c-.113.142-.249.296-.43.3-.144.002-.269-.094-.383-.183-.758-.585-1.665-1.021-2.622-1.057-.461-.017-.92.058-1.38.104-1.75.175-3.51-.082-5.25-.338-.324-.047-.674-.109-.892-.353-.214-.24-.24-.59-.253-.911-.039-.912-.068-1.874.359-2.68.214-.407.993-.516 1.401-.502.193.006 1.458.226 1.428.528-.039.388-.23.837-.225 1.217.005.405.239.296.607.327.749.063 1.45.367 2.18.519" mask="url(#b)"/>
        <path fill="#516660" d="M187.843 95.643c.265-.563.532-1.131.668-1.739.135-.607.13-1.265-.137-1.826-.268-.562-.83-1.004-1.451-1.016-.584-.011-1.109.336-1.568.695-.25.197-.497.403-.699.65-.516.63-.7 1.461-.853 2.261a60.783 60.783 0 0 0-.541 3.355c.021-.16 1.352-.09 1.498-.075.525.057 1.008.351 1.507.414.471.059.607-.665.791-1.056l.785-1.663" mask="url(#b)"/>
        <path fill="#1C201E" d="M183.546 104.995c-.475.284-.603.91-.623 1.464-.02.568.024 1.139.132 1.697.53-.09 1.098.088 1.483.463.274.267.49.644.864.722.038.008.08.012.114-.007.038-.023.055-.069.068-.111.214-.697.16-1.454-.028-2.158-.236-.883-.71-2.847-2.01-2.07" mask="url(#b)"/>
        <path stroke="#141614" stroke-width=".714" d="M194.025 127.344c.621-11.336 1.242-18.001 1.864-29.336l1.095-19.99c.193-3.52.393-7.078 1.41-10.452" mask="url(#b)"/>
        <path fill="#613927" d="M196.838 94.71c.318-.077.649.141.805.428.157.287.178.628.187.955.007.288-.003.606-.199.818-.14.151-.348.216-.55.255-.11.02-.224.035-.336.025-.447-.038-.788-.471-.842-.917-.08-.672.252-1.397.935-1.564" mask="url(#b)"/>
        <path fill="#8295A8" d="M202.103 68.484c-.938.99-2.744.357-3.875.22-1.724-.208-3.476.285-5.223.197-1.447-.073-1.696-1.19-.345-2.092.37-.246.762-.47 1.192-.58.675-.173 1.385-.056 2.077.028 1.735.21 3.435.147 5.17.003.877-.073.965-.322 1.319.411.237.49.042 1.436-.315 1.813" mask="url(#b)"/>
        <path fill="#CAD6E3" d="M201.76 64.545c-.14-.085-.315-.078-.478-.068l-7.923.486c-.528.032-1.09.077-1.51.399-.736.563-.697 1.664-.587 2.585.012.105.03.22.108.292.092.083.233.075.357.062l7.052-.743c.553-.058 1.11-.117 1.648-.259.905-.238 3.036-1.708 1.333-2.754" mask="url(#b)"/>
        <path fill="#613927" d="M187.578 88.925c.268.17.558.301.846.386l1.379.409c.111.033.237.064.337.007a.435.435 0 0 0 .147-.173 53.92 53.92 0 0 0 2.028-3.84c-.577-.087-1.062-.461-1.576-.736-.515-.276-1.169-.45-1.663-.14-.636.402-.765 1.317-1.172 1.904-.13.187-.246.655-.408.78-.156.123-.663.053-.884.127-.027.009-.055.02-.07.044-.02.034-.005.078.012.114.21.457.587.84 1.024 1.118" mask="url(#b)"/>
        <path fill="#613927" d="M188.995 82.314c-.004-.181.226-.259.406-.279a20.338 20.338 0 0 1 3.415-.1c.108.006.218.014.32.05.162.058.29.185.394.323.606.803.49 1.929.245 2.905-.197.79-.47 1.584-.983 2.216-.513.633-1.308 1.084-2.118 1.006a1.39 1.39 0 0 1-.69-.242c-.246-.178-.403-.451-.534-.725-.57-1.2-1.08-3.359-.034-4.44a5.827 5.827 0 0 1 1.155-.922" mask="url(#b)"/>
        <path fill="#210B0C" d="M189.547 84.992c.095.203.186.452.061.638-.106.158-.32.192-.503.244-.73.206-1.23.872-1.58 1.547-.027.053-.063.113-.123.117-.087.007-.128-.108-.121-.195.012-.166.09-.319.134-.479.137-.493-.043-1.02-.286-1.47-.242-.451-.55-.874-.7-1.364-.148-.49-.096-1.088.293-1.42.248-.211.584-.277.904-.336.303-.056.607-.112.915-.126.689-.032 1.374.146 2.062.113-.361.498-.699 1.035-1.103 1.5-.139.159-.395.32-.348.558.04.208.3.47.395.673" mask="url(#b)"/>
        <path fill="#141311" d="M186.756 83.585c-.217-.616.227-1.249.897-1.214.25.012.492.138.647.335.077.098.132.211.184.324.224.49.699 1.555-.028 1.895-.413.194-.855-.185-1.155-.529-.216-.247-.436-.502-.545-.811" mask="url(#b)"/>
        <path stroke="#141311" stroke-width=".594" d="M188.623 84.768c.345.69.583 1.433.703 2.196.058.362.087.74-.024 1.09-.018.059-.044.12-.094.155a.297.297 0 0 1-.159.04c-.523.025-1.04-.127-1.563-.147-.524-.02-1.113.139-1.37.597M192.656 84.34l-3.11.651" mask="url(#b)"/>
        <path fill="#1C201E" d="M192.431 85.205c.127.075.272.122.423.155.148.033.304.051.464.04.416-.032.858-.296 1.05-.679.194-.383.086-.858-.27-1.011a1.351 1.351 0 0 0-.312-.078l-.446-.075c-.416-.07-1.094-.194-1.302.342-.19.493-.012 1.066.393 1.306" mask="url(#b)"/>
        <path fill="#1C1413" d="M196.173 82.519c.044.291-.269.5-.541.614-2.669 1.115-5.755.816-8.472-.174-.362-.132-.767-.33-.852-.705-.035-.157-.006-.32.034-.475.318-1.217 1.418-2.188 2.663-2.351a4.121 4.121 0 0 1 1.41.083c1.544.338 1.779 1.136 2.666 2.18.496.585.475.532 1.295.686.169.032 1.783.055 1.797.142" mask="url(#b)"/>
        <path fill="#B0BAE7" d="M188.468 81.615c.244-.378.582-.686.942-.954.331-.246.688-.466 1.08-.589.394-.122.829-.143 1.214.003-.475-.485-1.288-.486-1.894-.18-.605.307-1.047.856-1.452 1.4-.261.35-.524.726-.57 1.159a.558.558 0 0 0 .057.35c.273.445.277-.22.301-.374.046-.29.164-.57.322-.815" mask="url(#b)"/>
        <path stroke="#1C201E" stroke-width=".594" d="M190.608 83.662l-1.23 1.107" mask="url(#b)"/>
        <path fill="#DEC290" d="M226.596 180.555c.474.087.965-.114 1.333-.425.448-.378 2.058-2.304.861-2.43-1.099-.116-1.896 2.122-2.194 2.855" mask="url(#b)"/>
        <path fill="#090A0B" d="M242.054 194.995c.004.192.017.406.156.537.249.235.67.01.842-.285.172-.295.236-.66.481-.897.29-.28.79-.34.956-.708.127-.282-.01-.605-.146-.883-.179-.364-.403-.767-.796-.865-2.019-.502-1.515 1.97-1.493 3.1M233.85 199.727c-.475.39-1.09.558-1.692.685-.485.102-.99.19-1.402.468-.411.277-.701.806-.536 1.274.213.598.976.748 1.609.78 2.122.11 4.256-.033 6.344-.426.06-.012.125-.026.167-.071.047-.053.049-.132.048-.203l-.076-5.74c-.008-.587-.04-1.236-.448-1.656-.88-.908-2.563-.004-2.977.988-.556 1.33.324 2.782-1.038 3.9" mask="url(#b)"/>
        <path fill="#170D0A" d="M237.308 188.95c-.347.866-.677 1.91-.148 2.678.232.336.6.562.82.904.16.248.234.539.31.823a22.59 22.59 0 0 0 1.898 4.797 12.86 12.86 0 0 0-7.058 1.696l-.075-13.398c-.003-.565-.006-1.138.14-1.683.326-1.215 1.412-2.166 2.642-2.422 1.003-.21 3.429.048 3.508 1.4.042.71-.704 1.865-.963 2.513l-1.074 2.691M243.824 180.199l-3.127.511c-.087.015-.183.034-.24.102-.054.067-.055.16-.054.247l.12 9.432c.008.665.038 1.392.476 1.892.259.294.63.47 1.008.573 1.02.28 2.496.072 3.256-.741.74-.793.259-2.185.14-3.174a79.152 79.152 0 0 0-1.579-8.842" mask="url(#b)"/>
        <path fill="#FFF" d="M233.968 161.828l.04-.889a63.207 63.207 0 0 1 3.076-1.874l.371 1.38a8.727 8.727 0 0 0-3.21 1.67" mask="url(#b)"/>
        <path fill="#492317" d="M243.846 169.608c.263-.107.547-.24.662-.5.08-.18.061-.386.04-.582l-.46-4.363c-.092-.876-.194-1.782-.642-2.54-.618-1.045-1.828-1.643-3.036-1.76-1.209-.117-2.42.19-3.558.614-1.426.53-2.82 1.279-3.778 2.462-.118.146-.232.304-.27.488-.093.47.32.866.548 1.287.424.79.19 1.758.28 2.65.055.545.234 1.07.413 1.587.215.625.51 2.458 1.088 2.761.547.287 2.36-.291 2.955-.404.598-.114 5.758-1.14 5.758-1.7M244.886 180.14c.029.247.056.492.082.733.065.61.123 1.26-.156 1.806-.507.996-1.815 1.168-2.904 1.42-.834.192-1.64.5-2.477.681-1.984.43-4.044.13-6.051-.17-.16-.023-.34-.06-.429-.196-.094-.145-.041-.336.015-.5.45-1.325 1.122-2.733 1.355-4.11.22-1.291.223-2.7.355-4.015.12-1.192-.08-2.513.11-3.653 3.13.094 5.891-.019 8.658-1.74-.043 1.626.123 2.875.477 4.412.459 1.665.758 3.576.965 5.331" mask="url(#b)"/>
        <path fill="#CAD6E3" d="M234.596 178.355c-.03-.021-.559.304-.613.346-.14.109-.056.334.01.474.065.136.216.261.315.375.236.27.474.538.717.802.48.522.98 1.027 1.513 1.495.855.75 1.795 1.398 2.731 2.045l2.483 1.712c.87.6 1.742 1.202 2.66 1.729.662.38 1.347.72 2.005 1.109 1.757 1.036 3.419 2.583 5.434 3.096-.777-1.246-3.003-2.407-4.216-3.338a993.59 993.59 0 0 0-13.04-9.845" mask="url(#b)"/>
        <path fill="#1E1813" d="M233.88 179.042c-.34-.521-.866-1.425-1.206-1.946-.072-.11-.147-.235-.124-.364.031-.176.24-.274.417-.247.176.026.326.14.466.252.427.337 1.168 1.653 1.216 1.666" mask="url(#b)"/>
        <path fill="#170D0A" d="M236.853 171.204l5.859-1.812c.36-.109.557-.183.865-.42.174.193.157.487.128.745-.04.37-.083.74-.176 1.1-.042.16-.096.323-.212.441-.089.091-.206.148-.32.204-.555.275-1.122.48-1.69.688-.653.24-1.358.278-2.052.315l-3.314.175c-.471.025-1.503-.236-1.13-.96.167-.322 1.676-.363 2.042-.476" mask="url(#b)"/>
        <path fill="#EAEAEA" d="M243.447 169.342c-.186-.8-.332-1.613-.36-2.51-.028-.866-.01-1.732.002-2.598.007-.5.278-2.008 0-2.41.456.658 1.168 1.089 1.713 1.676 1.219 1.314 1.606 3.387 2.29 5.006.978 2.31.517 4.947.04 7.41-.066.344-.179.745-.508.863-2.457.879-2.278-3.697-2.517-4.783-.204-.928-.457-1.783-.66-2.654M226.456 177.12c.882-.684 1.224-1.832 1.646-2.865 1.304-3.193 3.796-5.929 4.353-9.333.077-.47.136-.99.486-1.312.484-.447 1.282-.279 1.822.097 1.075.748 1.57 2.124 1.579 3.433.01 1.31-.396 2.583-.797 3.83l-.727 2.257c-.404 1.255-.815 2.525-1.517 3.64-.807 1.28-1.749 2.397-3.332 2.202-.355-.044-3.92-1.634-3.513-1.95M236.329 161.64c.077-.02.156-.037.234-.054.786-.167 1.423-1.756.229-1.77-.285-.002-3.118.44-3.119.618l-.006 1.49c-.001.269.019.582.24.737.04.029 1.05-.557 1.173-.609a6.992 6.992 0 0 1 1.24-.382c.42-.092.817-.329 1.222-.486.472-.184.953-.341 1.442-.472.365-.097.742-.183 1.06-.39-1.185-.075-2.29-.628-3.467-.788" mask="url(#b)"/>
        <path fill="#210B0C" d="M239.92 155.103l.024.062c.469 1.176 1.3 2.66 2.327 3.419 1.19.878 2.488 1.643 3.462 2.755.974 1.113 1.581 2.7 1.072 4.09l-.635-1.356c.289.688.29 1.493 0 2.181a25.897 25.897 0 0 0-1.785-3.064c-.398-.585-.827-1.162-1.386-1.595-.87-.673-1.982-.942-3.068-1.116-1.215-.193-2.467-.288-3.694-.143-.95.113-2.049.73-2.613-.3-.706-1.289-.064-3.359.367-4.638.216-.64.463-1.466.996-1.89.855-.679 2.297-.879 3.347-.812a.97.97 0 0 1 .312.056.89.89 0 0 1 .34.287c.472.593.658 1.355.934 2.064" mask="url(#b)"/>
        <path fill="#6A131A" d="M235.568 154.707c-.587.126-1.194.28-1.655.665-.461.386-.727 1.073-.452 1.608.263.512 6.393-.694 6.55-1.415.367-1.698-3.83-.99-4.443-.858" mask="url(#b)"/>
    </g>
</svg>
