<svg xmlns="http://www.w3.org/2000/svg" xmlns:xlink="http://www.w3.org/1999/xlink" width="34" height="52" viewBox="0 0 34 52">
    <defs>
        <path id="a" d="M.185.255h4.206v5.41H.185z"/>
        <path id="c" d="M.183.29H7.81V20.52H.183z"/>
        <path id="e" d="M0 51.71h33.994V.293H0z"/>
    </defs>
    <g fill="none" fill-rule="evenodd">
        <path fill="#21160A" d="M10.175 49.206c-.041.436-.13.868-.262 1.285-.044.136-.096.276-.201.371-.142.128-.35.147-.54.15a6.323 6.323 0 0 1-2.02-.29c-.16-.052-.335-.123-.406-.277-.045-.098-.037-.211-.03-.319.043-.544.12-1.154.55-1.488.292-.228.684-.27 1.053-.304.506-.047 1.108-.053 1.41.356"/>
        <path fill="#D1B3AF" d="M9.84 47.922c-.009.434-.052.873-.128 1.304-.025.14-.056.286-.128.397-.097.148-.246.2-.385.235-.494.125-.997.14-1.48.045-.119-.023-.25-.065-.308-.204a.805.805 0 0 1-.037-.308c.005-.541.03-1.152.326-1.55.202-.272.484-.378.75-.472.365-.128.801-.233 1.04.12"/>
        <path fill="#21160A" d="M5.009 49a6.146 6.146 0 0 1-.45 1.232c-.064.128-.136.259-.254.337-.16.105-.367.093-.556.068a6.316 6.316 0 0 1-1.954-.588c-.151-.074-.314-.171-.361-.334-.03-.104-.006-.214.018-.32.123-.531.289-1.123.763-1.39.324-.181.717-.165 1.088-.144.506.03 1.102.113 1.34.563"/>
        <path fill="#D1B3AF" d="M4.938 48.199a8.51 8.51 0 0 1-.475 1.221c-.061.128-.13.26-.229.348-.133.116-.291.126-.434.123a3.38 3.38 0 0 1-1.437-.356c-.109-.055-.224-.13-.242-.28a.808.808 0 0 1 .047-.307c.15-.52.338-1.1.73-1.405.268-.207.568-.233.85-.251.385-.026.834-.009.969.395"/>
        <path fill="#301E22" d="M1.782 48.349c.043.016.086.032.129.046 2.857 1 5.972.807 8.99.602.366-.025.759-.06 1.037-.3.416-.356.398-.995.345-1.542-.834-8.651-1.673-17.303-2.517-25.953 0-.282-6.156-1.13-6.783-.7-1.652 1.128-1.042 6.362-1.147 8.24L.826 46.805c-.017.313-.031.644.114.921.167.317.503.494.842.623"/>
        <path fill="#E1846A" d="M10.87 17.395c-.142-1.132-.308-2.258-.403-3.34-.07-.799-.194-1.699-.84-2.174-.819-.602-2.602-.372-3.567-.52-1.2-.183-2.18-.412-3.18.478C1.59 12.986.694 14.56.295 16.234c-.13.55-.498 1.83-.15 2.33.204.29 2.453.21 2.457.312.044 1.075-.265-.385-.456.674.037-.263 5.99.373 6.498.391 1.628.057 2.388 3.279 2.473 1.509.063-1.31-.075-2.686-.247-4.055"/>
        <path fill="#F7E0C4" d="M.43 24.62c-.004.67 0 1.37.303 1.969.302.598 1.006 1.05 1.641.837l.359-6.968c.05-.97-.782-4.886-2.169-2.72-.44.686-.11 2.442-.115 3.242L.43 24.62M12.732 8.51c.052-.58.057-1.185-.092-1.753a1.585 1.585 0 0 0-.198-.481c-.045-.067-.101-.131-.178-.154-.093-.029-.197.013-.268.08-.082.077-.115.192-.201.263-.101.084-.193.099-.23.242-.071.265.035.684.025.967a7.86 7.86 0 0 1-1.027 3.586c-.219.381-.47.7-.755 1.024-.261.298-.429.714-.605 1.07-.642 1.302-1.355 3.063-.497 4.434.14.224.317.424.516.598 1.347 1.179 1.088-1.011 1.322-2.142.252-1.21.78-2.365 1.207-3.519.243-.66.478-1.324.667-2.002.204-.733.246-1.456.314-2.213"/>
        <path fill="#21160A" d="M29.441 48.507c.08.431.112.87.097 1.309-.005.142-.016.29-.092.411-.102.162-.296.236-.479.293-.653.199-1.339.291-2.021.271-.169-.004-.357-.025-.466-.154-.07-.082-.094-.193-.116-.299-.107-.535-.2-1.142.123-1.581.22-.3.585-.448.93-.582.474-.183 1.052-.354 1.453-.042M24.415 49.722c.014.438-.019.878-.098 1.309-.026.14-.06.286-.153.393-.124.145-.327.19-.516.218-.676.1-1.367.089-2.04-.032-.166-.03-.349-.079-.438-.222-.057-.092-.064-.205-.07-.313-.026-.545-.028-1.16.356-1.546.262-.263.645-.355 1.007-.436.496-.11 1.092-.193 1.443.175"/>
        <path fill="#F7E0C4" d="M24.128 48.97a8.505 8.505 0 0 1-.124 1.305c-.024.14-.054.287-.126.397-.097.15-.245.202-.384.237a3.373 3.373 0 0 1-1.48.05c-.119-.022-.25-.063-.309-.203-.038-.088-.038-.2-.038-.307.003-.541.026-1.152.32-1.552.201-.272.483-.379.749-.474.364-.13.8-.236 1.04.116"/>
        <path fill="#D1B3AF" d="M29.71 47.35c-.01.26-.031.546-.214.731-.188.19-.483.208-.75.215l-2.509.065a85.485 85.485 0 0 0-1.268-19.575c.43 6.826.86 13.694.088 20.49l-4.182-.143c1.395-4.728.427-9.778.066-14.695-.297-4.052-.171-8.124.093-12.178.023-.357.058-.74.289-1.011.215-.253.555-.354.874-.443 2.035-.564 4.916-1.358 6.885-.16 1.869 1.136.975 5.889.976 7.953a486.005 486.005 0 0 1-.348 18.751"/>
        <path fill="#F7E0C4" d="M29.046 47.806c.057.432.081.871.071 1.31-.003.141-.011.29-.066.41-.073.162-.213.237-.344.292a3.38 3.38 0 0 1-1.456.27c-.122-.005-.257-.026-.336-.155a.81.81 0 0 1-.083-.299c-.078-.535-.145-1.142.087-1.581.158-.3.42-.447.67-.58.34-.183.756-.353 1.046-.041M19.808 26.884c-.038.4-.073.806.007 1.199s.292.777.642.972l.469-2.425c.066-.34.186-1.579-.51-1.306-.537.21-.565 1.096-.608 1.56"/>
        <path fill="#057158" d="M23.81 21.42c-.283-.04-.58-.089-.802-.253-.4-.297-.406-.835-.378-1.297.017-.29.036-.587.157-.855.223-.495.752-.814 1.273-1.068.763-.374 1.567-.692 2.404-.857.859-.17 1.67-.275 2.085.594.46.962.93 1.954 1.365 2.93.29.653.087 1.043-.607 1.226-1.713.451-3.787-.179-5.496-.42"/>
        <path fill="#F7E0C4" d="M31.19 9.543a3.05 3.05 0 0 0-.177-.601c-.18-.4-.535-.768-.95-1.011-.316.209 0 .758-.053 1.14-.018.133-.083.245-.13.367-.194.506-.058 1.138.086 1.74.105.438.232.91.6 1.276.743.742 1.157.275 1.212-.238.078-.718-.419-1.904-.588-2.673M12.226 5.254a2.2 2.2 0 0 0-.123-.44c-.125-.291-.38-.558-.68-.732-.231.156-.007.556-.05.838-.014.098-.063.181-.097.27-.147.375-.055.837.043 1.278.071.32.16.666.422.931.533.538.838.19.884-.188.064-.528-.284-1.394-.4-1.957"/>
        <g transform="translate(29.603 10.58)">
            <mask id="b" fill="#fff">
                <use xlink:href="#a"/>
            </mask>
            <path fill="#065E47" d="M2.022.293c.172-.036.364-.07.515.02a.684.684 0 0 1 .2.218A11.21 11.21 0 0 1 4.242 3.68c.113.39.202.802.112 1.196-.09.395-.408.763-.811.788-.383.024-.713-.249-.999-.506-.627-.564-1.263-1.138-1.718-1.85C.495 2.79-.03 1.675.28 1.043.58.425 1.417.422 2.022.293" mask="url(#b)"/>
        </g>
        <path fill="#E2BEBA" d="M23.84 5.061l-1.452-.077c-.045-.003-.095-.003-.129.027-.026.023-.035.06-.042.096-.11.595.145 1.192.402 1.74.371.794.443 1.383.409 2.238-.006.142-.005.297.086.405a.497.497 0 0 0 .2.129c1.534.616 1.9-.767 2.198-1.817.405-1.431 1.853-1.99 1.813-3.699-.011-.474-.22-1.04-.69-1.107l-.151 1.111c-.015.104-.033.217-.107.291-.087.087-.222.095-.34.128-.47.13-.463.669-.8.838-.172.085-.638-.022-.847 0-.261.03-.52.087-.769.172a.431.431 0 0 0-.207.121c-.063.08-.067.192-.067.294 0 .6-.08 1.07-.17 1.637-.053.329-.092.66-.119.992"/>
        <path fill="#065E47" d="M23.175 21.923a37.814 37.814 0 0 1-.106 4.055c-.02.234-.049.488-.212.657-.2.207-.522.214-.809.206-.423-.01-.869-.028-1.232-.246-.515-.31-.733-.932-1.096-1.41a2.61 2.61 0 0 0-.669-.617 13.13 13.13 0 0 1 1.142-1.742c.263-.332.563-.663.964-.796.178-.059.366-.076.551-.092.419-.036 1.049.021 1.467-.015"/>
        <path fill="#057158" d="M33.726 15.877c.073-.199.134-.416.074-.62-.045-.151-.153-.275-.257-.394L28.67 9.324c-.44-.5-.903-1.017-1.52-1.27-.566-.23-1.199-.212-1.81-.19-.992.036-1.997.074-2.946.364-.95.29-1.852.866-2.325 1.741-.357.663-.44 1.435-.516 2.185l-1.066 10.457c-.034.33-.067.666-.01.994.208 1.218 1.507 1.875 2.648 2.345.25.102.541.204.78.077.155-.083.25-.245.33-.402.914-1.785 1.038-3.86 1.067-5.867.004-.34.01-.693.154-1.001.265-.567.912-.826 1.5-1.035.965-.341 1.963-.688 2.984-.62 1.298.085 1.99 1.636 3.056 1.633 1.174-.004 2.388-1.925 2.73-2.858"/>
        <path fill="#301E22" d="M24.008 6.687c.323.011.643-.012.951-.106 1.298-.393 2.451-2.06 2.505-3.393.02-.5-.117-.994-.314-1.453-.094-.221-.207-.443-.393-.594-.271-.222-.644-.256-.993-.276A37.254 37.254 0 0 0 23.667.8c-.486 0-.997.014-1.421.253-.471.266-.764.777-.89 1.304-.124.527-.102 1.077-.08 1.618.032.77.36 2.039 1.104 2.43.203.107.435.142.662.175.319.047.644.094.966.106"/>
        <path fill="#F7E0C4" d="M5.536 7.248c-.484.015-.97.03-1.453.047-.045.001-.095.005-.126.037-.025.027-.03.064-.034.1-.058.603.246 1.175.549 1.7.437.758.56 1.34.597 2.194.007.142.021.297.121.397a.492.492 0 0 0 .21.11c1.582.483 1.829-.926 2.035-1.998.282-1.46 1.677-2.141 1.491-3.84-.051-.472-.307-1.019-.78-1.045l-.057 1.12c-.006.106-.014.219-.082.3-.079.093-.213.113-.328.156-.457.17-.404.706-.726.903-.164.1-.637.033-.843.074-.258.05-.51.13-.751.236a.43.43 0 0 0-.196.139c-.057.085-.05.196-.042.298.05.598.01 1.073-.03 1.645-.025.333-.036.666-.034.999"/>
        <path fill="#301E22" d="M5.842 8.853a2.9 2.9 0 0 0 .939-.187c1.26-.503 2.267-2.263 2.206-3.595-.022-.5-.201-.98-.436-1.422-.113-.211-.245-.422-.443-.557-.289-.198-.663-.2-1.012-.19-.699.019-1.398.057-2.095.116-.485.04-.992.099-1.395.374-.446.304-.695.84-.774 1.375-.08.536-.011 1.081.057 1.619.097.765.532 2 1.307 2.326.211.09.445.104.675.118.321.02.65.039.971.023"/>
        <path fill="#3F292F" d="M7.246 3.43a1.5 1.5 0 0 1-1.081.76c-.464.064-.922-.106-1.358-.274l-.626-.242c-.158-.06-.326-.13-.418-.273-.593-.927.654-2.42 1.617-2.322 1.185.122 2.634.954 1.866 2.35"/>
        <g transform="translate(20.517 .003)">
            <mask id="d" fill="#fff">
                <use xlink:href="#c"/>
            </mask>
            <path fill="#301E22" d="M.95 2.042C.176 3.257.156 4.792.194 6.234c.126 4.79.62 9.57 1.477 14.285l3.85-.092c.22-.005.456-.017.623-.16.204-.176.223-.48.227-.75.035-2.97-.056-5.968.53-8.88.326-1.615.86-3.203.908-4.85C7.853 4.291 7.19 1.67 5.858.74 4.356-.31 1.853.626.95 2.042" mask="url(#d)"/>
        </g>
        <mask id="f" fill="#fff">
            <use xlink:href="#e"/>
        </mask>
        <path fill="#090D01" d="M9.45 7.134h2.18V2.767H9.45z" mask="url(#f)"/>
        <path fill="#F7E0C4" d="M11.437 5.928l-.616-.262c-.151-.065-.326-.16-.34-.324a.461.461 0 0 1 .065-.228.197.197 0 0 1 .05-.073c.051-.038.123-.017.182.006l.543.208c.127.049.221.043.353.082.107.032.222.07.285.163.054.08.056.185.055.282 0 .07-.006.15-.063.19a.19.19 0 0 1-.109.026.984.984 0 0 1-.405-.07" mask="url(#f)"/>
        <path fill="#E1846A" d="M10.625 16.248c.474 3.09.594 6.234.356 9.35a7.822 7.822 0 0 0-3.223.383l-2.322-4.932-.88 4.91A13.536 13.536 0 0 0 .7 25.433a20.455 20.455 0 0 1 1.16-7.997" mask="url(#f)"/>
        <path fill="#D1B3AF" d="M8.46 15.587c-.084.403-.168.822-.04 1.2.13.38.532.71 1.037.688.502-.023.92-.367 1.237-.703 1.455-1.54 2.139-3.504 1.848-5.304-1.12.009-2.618-.071-3.35.728-.625.683-.562 2.572-.732 3.39M.133 19.21c.818.106 1.646.138 2.47.094.108-.005.224-.016.304-.09.082-.075.101-.195.115-.305.16-1.22 1.812-6.753-.71-6.544-1.76.146-2.672 6.781-2.18 6.845" mask="url(#f)"/>
    </g>
</svg>
