<svg xmlns="http://www.w3.org/2000/svg" xmlns:xlink="http://www.w3.org/1999/xlink" width="40" height="54" viewBox="0 0 40 54">
    <defs>
        <path id="a" d="M.259.107h13.405v15.928H.26z"/>
        <path id="c" d="M.226.22H6.59v7.594H.226z"/>
        <path id="e" d="M.253.125h10.545v17.321H.253z"/>
    </defs>
    <g fill="none" fill-rule="evenodd">
        <path fill="#516660" d="M26.86 41.092c-.035.91-.196 1.968-.992 2.417-.36.204-.79.238-1.205.26-.619.033-1.238.048-1.858.044-.418-.002-.891-.038-1.155-.36-.232-.285-.216-.693-.173-1.058a13.946 13.946 0 0 1 4.316-8.495c.353-.327 1.38-1.13 1.83-.503.302.42-.265 1.51-.363 1.942-.421 1.885-.325 3.836-.4 5.753"/>
        <path fill="#B78865" d="M29.544 2.394c-.11.23-.136.505-.16.772-.063.73-.126 1.468-.035 2.198s.356 1.463.838 1.93c.586.566 1.461.638 2.08.17.25-.189.455-.45.628-.736.564-.929 1.707-4.563.641-5.473-.747-.638-3.593.317-3.992 1.139"/>
        <path fill="#516660" d="M35.776 43.43a8.537 8.537 0 0 0-5.02.433c.225-1.361-.82-2.587-1.115-3.934-.118-.541-.115-1.105-.26-1.638-.132-.48-.379-.92-.563-1.382a5.587 5.587 0 0 1-.38-2.47c.012-.17.035-.349.13-.492.11-.165.3-.258.484-.335 1.02-.427 2.126-.595 3.22-.76l1.87-.28c.367-.056.764-.106 1.09.072.49.27.592.917.638 1.474l.708 8.59c.066.8.026 2.843-1.283 2.461.157-.154.937-1.64.481-1.74"/>
        <path fill="#21160A" d="M32.045 44.901c-.358-.176-.696-.412-.924-.739-.228-.327-.334-.752-.217-1.132.164-.532.697-.85 1.193-1.104.412-.213.836-.42 1.295-.49.647-.097 1.318.094 1.865.452.889.581 1.872 2.472.554 3.187-.388.21-1.01.135-1.437.176-.81.075-1.587.014-2.33-.35"/>
        <g transform="translate(26.111 19.165)">
            <mask id="b" fill="#fff">
                <use xlink:href="#a"/>
            </mask>
            <path fill="#C69B93" d="M10.377 3.57c-.044.837-.086 1.689.12 2.5.166.654.486 1.256.803 1.851l2.168 4.07c.117.22.237.463.183.704-.049.216-.228.38-.421.488-.719.403-1.608.213-2.43.251-1.705.079-3.17 1.152-4.702 1.9-1.532.747-3.551 1.118-4.808-.031C.473 14.555.23 13.36.262 12.256c.084-2.832 1.644-5.382 3.155-7.782.784-1.243 1.596-2.518 2.784-3.386C7.03.483 8.752-.267 9.775.319c1.11.636.657 2.171.602 3.25" mask="url(#b)"/>
        </g>
        <path fill="#21160A" d="M23.654 14.165l2.62-4.584c.244-.424.494-.858.866-1.177 1.2-1.029 3.05-.47 4.59-.831 1.456-.342 2.751-1.54 4.229-1.311.961.148 1.742.905 2.16 1.781.419.875.53 1.862.602 2.829.111 1.505.14 3.03-.15 4.51a10.798 10.798 0 0 1-4.118 6.524c-1.475 1.095-3.363 1.976-3.899 3.73-.216.706-.172 1.47-.369 2.182s-.774 1.425-1.514 1.384c-.494-.027-.9-.378-1.266-.71-.534-.486-1.074-.978-1.491-1.567-.65-.918-.97-2.02-1.278-3.1-.789-2.754-3.214-7.072-.982-9.66"/>
        <g transform="translate(28.611 .057)">
            <mask id="d" fill="#fff">
                <use xlink:href="#c"/>
            </mask>
            <path fill="#3E2B2F" d="M6.558 3.394c.029.473.056.95-.01 1.42A3.737 3.737 0 0 1 4.75 7.471c-.286.167-.599.298-.929.333-.53.055-1.059-.141-1.515-.417C1.265 6.76.5 5.685.287 4.492.074 3.299.43 2.01 1.254 1.12c.28-.302.612-.56.993-.716.918-.376 1.968-.115 2.896.238 1.099.417 1.347 1.582 1.415 2.752" mask="url(#d)"/>
        </g>
        <path fill="#492317" d="M33.545 46.519c-.343-.458-.695-.931-.838-1.485a3.32 3.32 0 0 1-.087-.866c.004-.296.027-.598.141-.871.114-.274.33-.518.614-.604.296-.089.624.006.88.178.256.173.455.416.65.656.117.144.234.289.326.45.262.461.288 1.025.183 1.545-.078.39-.337 1.52-.716 1.729-.442.244-.92-.423-1.153-.732"/>
        <path fill="#D69C36" d="M32.502 6.74c-.347.041-.757.129-.886.453-.11.277.074.61.347.73.273.12.599.062.86-.081.262-.143.472-.362.679-.577-.102-.416-.605-.681-1.007-.532"/>
        <path fill="#3E2B2F" d="M31.74 7.67a.845.845 0 0 0-.06.34c-.012.363-.025.734.072 1.085.096.351.318.687.655.828.196.083.415.094.628.088.366-.01.742-.07 1.053-.263.507-.314.759-.985.584-1.554-.334-1.085-2.312-1.805-2.932-.525"/>
        <path fill="#CAD6E3" d="M20.32 53.059c.499-.141 1.017-.307 1.382-.674.486-.488.602-1.237.547-1.923-.055-.686-.253-1.355-.292-2.041-.077-1.361.472-2.675.641-4.027.157-1.248-.013-2.51-.182-3.755l-.796-5.863c-.033-.246-.075-.509-.246-.689-.331-.347-.908-.185-1.351.001l-3.13 1.315c-.378.16-.778.336-1.005.676-.197.296-.23.67-.23 1.024-.003 1.653.57 3.245.897 4.866.487 2.405.43 4.869.628 7.304.072.884.001 2.684.521 3.43.563.805 1.81.584 2.616.356"/>
        <path fill="#E1846A" d="M18.223 49.47c-.04.638-.01 1.372.507 1.765.51.387 1.254.258 1.895.11l1.63-.376c.01-.17.008-.34-.006-.507-.055-.686-.253-1.355-.292-2.041a6.085 6.085 0 0 1 .109-1.418c-.696.332-2.549.912-2.907.927-1.881.081-.875.535-.936 1.54"/>
        <g transform="translate(7.778 36.334)">
            <mask id="f" fill="#fff">
                <use xlink:href="#e"/>
            </mask>
            <path fill="#DCE1E5" d="M10.791 16.06c-.517.378-1.232.047-1.805-.24-.573-.288-1.392-.47-1.755.056-.12.175-.156.392-.226.593-.294.85-1.538 1.33-2.144.665-.39-.428-.362-1.103-.7-1.57-.396-.547-1.149-.654-1.806-.809-.658-.154-1.403-.534-1.452-1.205-.473-.184-.685-.756-.646-1.26.04-.505.269-.971.43-1.45.707-2.092.136-4.44.781-6.551C2.102 2.215 3.97.569 6.111.196c3.596-.627 3.536 3.056 3.943 5.606.54 3.39.788 6.826.737 10.258" mask="url(#f)"/>
        </g>
        <path fill="#B78865" d="M17.107 13.524c-.111.23-.137.505-.16.772-.064.73-.127 1.468-.036 2.198.092.73.356 1.464.838 1.93.587.566 1.462.638 2.081.17.249-.188.454-.45.628-.736.563-.929 1.706-4.563.64-5.473-.746-.637-3.592.317-3.991 1.14"/>
        <path fill="#FFF" d="M22.373 36.203c.81-.975 1.046-2.289 1.253-3.538l.86-5.19c.123-.742.246-1.484.297-2.233.105-1.559-.106-3.119-.316-4.666-.058-.43-.12-.87-.336-1.247-.508-.887-1.661-1.124-2.676-1.272-1.868-.27-4.046-.445-5.368.898-.693.703-.993 1.688-1.439 2.566-.47.927-1.127 1.78-1.358 2.792-.15.66-.11 1.346-.067 2.021.116 1.865.232 3.732.466 5.586.213 1.694.745 5.342 2.67 6.072 1.638.622 4.94-.498 6.014-1.789"/>
        <path fill="#E1846A" d="M22.242 40.052c-.324.07-.326.048-.651.11-.465.091-.89-.368-.948-.836-.058-.468.139-.927.324-1.361 2.179-5.104 3.411-10.65 3.215-16.194-.041-1.176-.274-2.551-1.325-3.087-.291-.148-.625-.216-.886-.413-.26-.197-.413-.604-.197-.848.09-.1.221-.15.351-.184.869-.223 1.765.19 2.542.636a23.426 23.426 0 0 1 5.123 3.966c.182.187.37.393.41.65.055.348-.17.67-.383.95l-1.091 1.43c-.055 2.732-.116 5.502-.894 8.122-.577 1.946-1.546 3.793-1.8 5.807-.027.217-.06.46-.231.594-.11.087-.257.11-.396.129a27.89 27.89 0 0 1-1.884.19c-.18.012-.344-.107-.523-.086-.28.032-.458.322-.756.425"/>
        <path fill="#3E2B2F" d="M16.809 15.181a3.642 3.642 0 0 1 .475-2.79 3.663 3.663 0 0 1 2.35-1.59c.63-.123 1.324-.063 1.844.313.71.514.923 1.462 1.042 2.328.092.671.159 1.346.162 2.023.004.6-.052 1.23-.386 1.727-.777 1.157-2.343.985-3.508.68-1.15-.302-1.716-1.592-1.98-2.69"/>
        <path fill="#5E8C6B" d="M20.483 17.433c-.331-.11-.74-.207-.995.03-.218.204-.196.583-.001.808.194.226.513.312.811.295.298-.017.582-.124.861-.23.088-.418-.252-.874-.68-.912"/>
        <path fill="#3E2B2F" d="M19.691 20.53c.445.37.955.66 1.5.855.02-.488.184-.958.258-1.44.146-.94-.55-2.3-1.705-2.01-1.417.355-.815 1.962-.053 2.595"/>
        <path fill="#B78865" d="M15.114 17.281a1.327 1.327 0 0 0-1.37.166c-.144.117-.26.262-.375.406l-2.276 2.845c-.355.444-.732.957-.662 1.522.04.322.291.651.616.637a.707.707 0 0 0 .262-.072c.894-.413 1.077-1.591 1.701-2.352.665-.811 1.627-.888 2.48-1.37.84-.473.42-1.406-.376-1.782"/>
        <path fill="#E1846A" d="M17.155 22.475c.232 2.068.465 4.145.414 6.226-.04 1.688-.268 3.367-.543 5.033-.158.964-.333 1.925-.467 2.893-.26 1.883-.36 3.784-.46 5.682l-3.65.215c-.259.015-.53.028-.765-.078-.236-.105-.421-.372-.345-.618.141.902-.608 1.749-1.47 2.051-.865.302-1.81.198-2.72.106A76.465 76.465 0 0 0 0 43.601c.663-1.828-.053-3.936.61-5.764.224-.62.597-1.174.878-1.77.532-1.128.725-2.382 1.1-3.572.415-1.315 1.051-2.55 1.49-3.858.365-1.085.592-2.213.976-3.292.384-1.078.95-2.13 1.847-2.843 1.976-1.569 4.982-1.109 7.076-2.518.574-.387 1.054-.899 1.61-1.313.197-.147 1.009-.753 1.257-.55.157.13-.058.873-.058 1.058-.005 1.08.248 2.221.369 3.296M18.228 45.2c-1.008.173-1.662 1.113-2.542 1.623-.458.265-.977.412-1.49.556-.202.057-.41.114-.62.108-.75-.024-1.302-.831-2.052-.812-.567.015-1.009.5-1.56.626-.492.111-.996-.074-1.45-.293-.016.056-.03.111-.049.166-.087.258-.192.512-.278.77.252.378.82.513 1.301.445.548-.077 1.055-.336 1.602-.415.446-.066.91-.006 1.323.168.164.07.322.157.494.203.217.057.45.046.661.121.282.1.491.344.773.445.483.174 1-.106 1.465-.322a6.337 6.337 0 0 1 2.662-.58 59.019 59.019 0 0 0-.232-2.81l-.008.001"/>
    </g>
</svg>
