<svg xmlns="http://www.w3.org/2000/svg" xmlns:xlink="http://www.w3.org/1999/xlink" width="36" height="48" viewBox="0 0 36 48">
    <defs>
        <path id="a" d="M.233.095h12.065v14.159H.233z"/>
        <path id="c" d="M.204.195H5.93v6.751H.204z"/>
        <path id="e" d="M.227.112h9.491v15.396H.228z"/>
    </defs>
    <g fill="none" fill-rule="evenodd">
        <path fill="#516660" d="M24.175 36.526c-.032.81-.177 1.75-.893 2.149-.325.18-.712.212-1.085.23a29.13 29.13 0 0 1-1.672.04c-.376-.002-.802-.034-1.04-.32-.21-.254-.194-.616-.155-.94.342-2.861 1.744-5.587 3.884-7.552.317-.29 1.24-1.004 1.647-.447.272.373-.24 1.342-.327 1.727-.379 1.675-.293 3.41-.36 5.113"/>
        <path fill="#B78865" d="M26.59 2.128c-.1.204-.123.449-.144.686-.057.648-.114 1.305-.032 1.954s.32 1.3.754 1.715c.528.504 1.315.567 1.873.151.224-.167.408-.4.564-.654.508-.825 1.537-4.056.577-4.865-.672-.566-3.233.282-3.592 1.013"/>
        <path fill="#516660" d="M32.199 38.604a7.773 7.773 0 0 0-4.519.386c.203-1.21-.737-2.3-1.003-3.498-.107-.48-.104-.981-.235-1.456-.118-.427-.34-.817-.506-1.228a4.91 4.91 0 0 1-.342-2.195c.011-.152.032-.31.118-.438.099-.147.27-.23.435-.298.917-.38 1.913-.529 2.898-.675l1.682-.25c.33-.049.688-.094.981.065.442.24.534.815.575 1.31l.637 7.635c.06.711.024 2.528-1.154 2.188.141-.137.843-1.458.433-1.546"/>
        <path fill="#21160A" d="M28.84 39.912c-.322-.156-.626-.366-.831-.657-.205-.29-.301-.668-.195-1.006.147-.473.627-.755 1.073-.982.371-.188.753-.373 1.165-.434.583-.087 1.187.082 1.68.4.8.518 1.684 2.198.498 2.834-.35.187-.91.12-1.294.156-.73.067-1.428.012-2.096-.311"/>
        <g transform="translate(23.5 17.035)">
            <mask id="b" fill="#fff">
                <use xlink:href="#a"/>
            </mask>
            <path fill="#C69B93" d="M9.339 3.173c-.04.744-.077 1.501.108 2.223.15.581.437 1.116.723 1.645l1.952 3.618c.105.195.213.411.164.626-.044.191-.206.337-.38.433-.646.359-1.446.19-2.187.224-1.533.07-2.852 1.023-4.23 1.687-1.38.665-3.197.995-4.328-.027-.735-.664-.955-1.726-.925-2.708.075-2.517 1.48-4.784 2.84-6.917C3.78 2.872 4.512 1.74 5.58.967 6.327.43 7.877-.237 8.797.284c1 .565.592 1.93.542 2.89" mask="url(#b)"/>
        </g>
        <path fill="#21160A" d="M21.289 12.591l2.358-4.074c.219-.378.444-.763.779-1.047 1.08-.914 2.744-.417 4.132-.739 1.31-.303 2.475-1.368 3.805-1.165.865.132 1.568.805 1.945 1.583.376.779.476 1.655.54 2.515.101 1.337.126 2.693-.135 4.01-.454 2.293-1.803 4.403-3.706 5.798-1.327.973-3.026 1.757-3.508 3.315-.195.628-.155 1.307-.332 1.94-.178.633-.697 1.267-1.363 1.23-.444-.024-.81-.335-1.14-.63-.48-.433-.966-.87-1.341-1.394-.585-.815-.873-1.796-1.15-2.755-.71-2.449-2.893-6.287-.884-8.587"/>
        <g transform="translate(25.75 .05)">
            <mask id="d" fill="#fff">
                <use xlink:href="#c"/>
            </mask>
            <path fill="#3E2B2F" d="M5.903 3.017c.025.42.05.844-.01 1.261-.138.974-.757 1.867-1.619 2.364a2.14 2.14 0 0 1-.836.296c-.477.05-.953-.126-1.364-.37C1.138 6.008.45 5.052.258 3.992c-.192-1.06.13-2.206.87-2.998A2.56 2.56 0 0 1 2.023.36C2.85.025 3.794.257 4.63.57c.988.371 1.212 1.407 1.274 2.447" mask="url(#d)"/>
        </g>
        <path fill="#492317" d="M30.19 41.35c-.309-.407-.625-.828-.754-1.32a2.916 2.916 0 0 1-.078-.77c.003-.263.025-.53.127-.774.102-.243.296-.46.553-.536.266-.08.56.005.791.158.231.153.41.37.585.583.106.128.211.256.294.4.235.41.26.911.165 1.373-.071.346-.304 1.35-.645 1.537-.397.217-.828-.376-1.037-.651"/>
        <path fill="#D69C36" d="M29.252 5.99c-.313.038-.682.116-.797.404-.099.246.066.541.312.648.245.107.538.055.774-.072.235-.127.425-.32.61-.512-.09-.37-.543-.606-.905-.473"/>
        <path fill="#3E2B2F" d="M28.566 6.817a.743.743 0 0 0-.053.303c-.012.323-.023.652.063.964.087.313.287.611.59.737.177.073.374.083.565.078.33-.009.668-.063.948-.234.456-.28.683-.876.526-1.381-.3-.965-2.081-1.605-2.639-.467"/>
        <path fill="#CAD6E3" d="M18.288 47.163c.45-.125.915-.272 1.244-.599.437-.433.542-1.1.492-1.709-.05-.61-.228-1.204-.262-1.814-.07-1.21.424-2.378.577-3.58.14-1.109-.013-2.23-.165-3.338l-.716-5.211c-.03-.219-.068-.452-.221-.612-.299-.309-.818-.165-1.217 0l-2.816 1.17c-.34.14-.7.298-.905.6-.177.263-.207.595-.207.91-.003 1.47.513 2.885.808 4.326.438 2.138.386 4.327.565 6.492.064.786 0 2.386.469 3.048.506.716 1.629.52 2.354.317"/>
        <path fill="#E1846A" d="M16.4 43.973c-.035.567-.008 1.22.457 1.569.46.344 1.128.23 1.706.098l1.467-.334a3.26 3.26 0 0 0-.006-.45c-.05-.61-.228-1.205-.263-1.815a5.344 5.344 0 0 1 .098-1.26c-.626.295-2.294.81-2.616.824-1.693.072-.787.475-.842 1.368"/>
        <g transform="translate(7 32.297)">
            <mask id="f" fill="#fff">
                <use xlink:href="#e"/>
            </mask>
            <path fill="#DCE1E5" d="M9.712 14.276c-.466.335-1.109.041-1.625-.214-.515-.256-1.253-.418-1.579.05-.109.156-.14.349-.203.527-.265.755-1.385 1.183-1.93.59-.35-.38-.326-.979-.63-1.395-.357-.486-1.034-.581-1.626-.718-.592-.137-1.262-.475-1.307-1.072-.425-.163-.616-.672-.58-1.12.035-.448.241-.863.387-1.289.635-1.86.121-3.946.702-5.823C1.891 1.969 3.572.506 5.5.174 8.736-.383 8.682 2.89 9.048 5.157c.487 3.013.71 6.068.664 9.119" mask="url(#f)"/>
        </g>
        <path fill="#B78865" d="M15.396 12.021c-.1.204-.123.45-.144.687-.057.648-.114 1.305-.032 1.954.083.649.32 1.3.754 1.715.528.503 1.316.567 1.873.151.224-.167.409-.4.565-.654.507-.826 1.536-4.056.577-4.865-.672-.567-3.234.282-3.593 1.012"/>
        <path fill="#FFF" d="M20.135 32.18c.73-.866.942-2.034 1.129-3.145l.774-4.613c.11-.66.221-1.32.267-1.985.094-1.385-.096-2.772-.285-4.147-.052-.382-.108-.774-.302-1.108-.457-.79-1.495-1-2.409-1.13-1.68-.242-3.641-.397-4.831.797-.623.625-.893 1.5-1.294 2.281-.423.823-1.015 1.582-1.223 2.481-.135.587-.098 1.197-.06 1.797.104 1.658.208 3.317.419 4.965.192 1.506.67 4.749 2.403 5.398 1.474.552 4.446-.443 5.412-1.59"/>
        <path fill="#E1846A" d="M20.018 35.602c-.291.062-.294.042-.586.098-.419.08-.8-.327-.853-.743-.052-.417.124-.824.291-1.21 1.961-4.537 3.07-9.467 2.894-14.395-.037-1.045-.247-2.268-1.193-2.744-.262-.132-.562-.192-.797-.367-.234-.175-.372-.537-.177-.754a.619.619 0 0 1 .316-.163c.781-.198 1.588.169 2.287.564a21.052 21.052 0 0 1 4.611 3.527c.164.166.333.349.37.578.049.308-.154.595-.346.843l-.982 1.272c-.05 2.428-.104 4.89-.804 7.219-.52 1.73-1.392 3.372-1.62 5.162-.025.193-.053.408-.208.528-.1.077-.231.098-.357.114-.563.076-1.128.132-1.695.17-.162.01-.31-.096-.47-.077-.253.029-.413.286-.681.378"/>
        <path fill="#3E2B2F" d="M15.128 13.494a3.204 3.204 0 0 1 .428-2.48A3.299 3.299 0 0 1 17.67 9.6c.567-.11 1.192-.056 1.66.278.639.457.83 1.3.938 2.07.083.596.143 1.196.146 1.798.003.532-.047 1.092-.348 1.535-.699 1.028-2.109.875-3.157.603-1.034-.267-1.544-1.414-1.781-2.39"/>
        <path fill="#5E8C6B" d="M18.435 15.496c-.298-.098-.666-.184-.896.027-.196.18-.176.518 0 .718.174.2.461.277.73.262.267-.015.523-.11.774-.204.08-.372-.227-.777-.611-.81"/>
        <path fill="#3E2B2F" d="M17.722 18.249c.4.328.86.587 1.35.76.019-.434.165-.851.232-1.28.131-.836-.495-2.044-1.534-1.787-1.276.316-.734 1.744-.048 2.307"/>
        <path fill="#B78865" d="M13.603 15.361a1.207 1.207 0 0 0-1.234.148 2.308 2.308 0 0 0-.337.36l-2.048 2.529c-.32.395-.659.851-.596 1.353.036.286.262.58.555.567a.643.643 0 0 0 .235-.065c.805-.366.97-1.414 1.531-2.09.599-.721 1.464-.79 2.232-1.218.755-.42.378-1.25-.338-1.584"/>
        <path fill="#E1846A" d="M15.44 19.977c.209 1.84.418 3.685.372 5.535-.037 1.5-.241 2.993-.488 4.474-.143.857-.3 1.711-.42 2.571-.234 1.674-.325 3.364-.416 5.051l-3.284.191c-.233.014-.476.025-.688-.069-.213-.094-.38-.33-.311-.55.127.802-.547 1.555-1.324 1.824-.777.268-1.628.176-2.447.094A69.67 69.67 0 0 0 0 38.757c.597-1.625-.048-3.5.548-5.124.202-.55.538-1.043.791-1.573.48-1.003.653-2.118.99-3.175.373-1.17.946-2.268 1.342-3.43.328-.965.532-1.967.877-2.926.346-.958.855-1.894 1.663-2.527 1.778-1.395 4.484-.986 6.368-2.238.517-.344.948-.8 1.449-1.167.178-.131.908-.67 1.132-.489.14.114-.053.775-.053.94-.004.96.224 1.975.332 2.93M16.405 40.178c-.907.154-1.495.99-2.287 1.442-.413.236-.88.367-1.34.494-.184.051-.37.102-.56.096-.675-.02-1.171-.738-1.846-.72-.51.012-.908.443-1.405.555-.442.1-.896-.066-1.304-.26-.015.05-.028.099-.044.147-.078.23-.174.455-.25.685.226.336.738.456 1.17.396.493-.07.95-.3 1.442-.37.402-.058.82-.005 1.19.15.149.062.29.14.445.18.195.051.406.041.595.108.254.09.442.305.696.396.435.154.9-.095 1.319-.287a5.763 5.763 0 0 1 2.396-.515c-.05-.834-.12-1.667-.21-2.498l-.007.001"/>
    </g>
</svg>
