<svg xmlns="http://www.w3.org/2000/svg" xmlns:xlink="http://www.w3.org/1999/xlink" width="52" height="75" viewBox="0 0 52 75">
    <defs>
        <path id="a" d="M.15.027h8.207v14.475H.149z"/>
        <path id="c" d="M1.232.13C1.125.169.982.168.838.167.631.165.42.164.306.28.126.466.113.824.08 1.07-.09 2.332.186 4.4.405 5.642c.327 1.852.544 3.72.715 5.59.012.131.04.285.165.343.068.03.147.024.221.017l.385-.037c.058-.006.121-.014.163-.052.048-.045.052-.116.053-.18.049-2.482 1.082-4.86 1.287-7.334.103-1.24-.004-2.485-.111-3.725-.009-.099-1.04-.158-1.64-.158-.21 0-.368.007-.41.023"/>
        <path id="e" d="M1.453.783C1.015.893.108.83.145 1.373c.04.594.49 1.337.711 1.895a53.675 53.675 0 0 0 1.73 3.897c.261.531.532 1.59.754 2.137.093.229.185.472.382.63.198.16.54.189.695-.008.102-.129.092-.305.077-.466-.27-2.949-.547-6.44-1.256-9.323.033.131-1.617.605-1.785.648"/>
    </defs>
    <g fill="none" fill-rule="evenodd">
        <path fill="#FFF" d="M21.963 21.546c.147.167.16.397.168.612.014.41.333 2.095-.27 2.147-.17-.876-.037-1.884.102-2.76"/>
        <path fill="#1E231C" d="M25.315 38.567c-.34.417-.557.905-.48 1.29.09.45.52.694.91.889.106.053.218.107.34.103 1.127-.032 2.209-2.92.795-3.164-.476-.082-1.124.34-1.565.882M32.738 38.673c-.27.465-.409.981-.273 1.348.16.43.622.605 1.039.736.113.036.231.072.35.05 1.109-.209 1.726-3.23.292-3.25-.483-.007-1.057.511-1.408 1.116"/>
        <path fill="#B6B6B6" d="M26.12 38.241c0 .132-.023.375.113.469a.582.582 0 0 0 .207.1c.184.038.32.038.45 0 .059-.016.123-.066.168-.1.052-.042.062-.197.07-.26.27-2.468 1.483-4.683 1.909-7.131.213-1.228.218-2.478.222-3.721 0-.134-1.862-.344-2.03-.298-.27.073-.727-.105-.937.077-.197.17-.24.526-.296.769-.283 1.245-.193 3.327-.085 4.582.16 1.87.206 3.636.21 5.513zM32.855 35.595c.213.55.387 1.627.56 2.19.072.235.142.484.325.658.182.174.52.23.692.047.114-.12.12-.298.12-.459-.006-2.96.031-6.46-.417-9.39.02.134-1.666.476-1.838.505-.446.075-1.344-.06-1.356.483-.013.596.369 1.372.54 1.945a54.153 54.153 0 0 0 1.374 4.021"/>
        <path fill="#DDB294" d="M36.011 20.162c.027 1.17.045 2.386-.463 3.456-.961-.21-1.492-1.19-1.687-2.102-.183-.856-.186-1.735-.189-2.608-.003-1.069-.885-5.781 1.257-5.521 1.57.19 1.054 5.567 1.082 6.775"/>
        <g transform="translate(24.386)">
            <mask id="b" fill="#fff">
                <use xlink:href="#a"/>
            </mask>
            <path fill="#E57055" d="M.898 7.239c.159-1.55-.155-3.145.264-4.652.075-.268.175-.535.358-.752.176-.209.418-.359.66-.5C2.946.887 3.821.481 4.72.592 7.332.915 7.486 3.694 7.736 5.56c.336 2.508.434 5.043.292 7.567-.006.105-.015.217-.082.302-.077.098-.212.136-.338.165-.698.162-1.382.19-2.095.207-.487.01-1.191.26-1.632.102-.184-.067-.334-.194-.478-.32-1.004-.882-2.042-1.894-2.756-3.003-.598-.93.146-2.312.252-3.342" mask="url(#b)"/>
        </g>
        <path fill="#8295A8" d="M33.288 9.488c1.009 2.106 1.517 4.706 1.669 5.81.523 3.814.816 7.655 1.166 11.482l.28 3.05c.066.703.42 1.787.263 2.467-.446 1.934-4.205 3.306-6.157 3.487a8.64 8.64 0 0 1-.801.037c-1.883 0-5.929-.961-6.012-2.92-.068-1.587.31-3.293.415-4.885.221-3.395.193-6.885.812-10.248.457-2.484.185-4.998.693-7.454.225-1.087.756-2.158 1.7-2.897 2.86-2.243 4.77-.436 5.972 2.07"/>
        <path fill="#353535" d="M25.148 14.787c-.505-.084-1.062-.022-1.467.275-.406.298-.604.866-.363 1.294.298.528 1.045.62 1.679.649.457.02 1.186-.02 1.542-.322.233-.198.366-.491.382-.787.04-.73-1.166-1.007-1.773-1.109"/>
        <path fill="#DDB294" d="M23.52 18.457c-.083.304-.15.67.082.895.113.11.274.16.43.203.281.078.624.132.834-.06.105-.096.15-.233.192-.364.444-1.41.77-2.854.975-4.312.016-.117-1.032-.306-1.177-.249-.345.137-.373.432-.479.739-.352 1.023-.573 2.105-.857 3.148"/>
        <path fill="#8295A8" d="M29.735 6.838c-.741-.183-1.545.026-2.188.42-1.336.818-2.405 2.322-3.06 3.66a12.91 12.91 0 0 0-.922 2.52c-.125.496-.071 1.458-.247 2.02-.011.032.033.052.056.026.386-.43.99-.687 1.588-.657.693.034 1.662.413 1.96 1.003.887-3.075 2.515-5.77 2.813-8.992"/>
        <path fill="#EAEAEF" d="M22.122 21.08c.013.442.069.953.46 1.2.182.114.407.147.624.177.582.082 1.176.163 1.755.068.58-.096 1.153-.401 1.4-.904.176-.357.17-.767.16-1.16-.024-1.015-.048-2.03-.106-3.043-.01-.185-.025-.378-.129-.535-.16-.243-.485-.332-.782-.39-.93-.184-2.683-.65-3.254.301-.593.989-.159 3.188-.128 4.285"/>
        <path fill="#E0A16C" d="M22.979 18.525c-.374-.026-.774-.056-1.099.12l.237 2.34c.046.454.111.948.456 1.268.38.352.97.38 1.502.385l.77.009c.359.004.752-.005 1.076-.167.39-.196.508-.654.573-1.038.053-.318.046-.641.04-.963l-.034-1.542c-.003-.112-.005-.223-.015-.334-.002-.017-.004-.036-.017-.049-.011-.01-.027-.014-.042-.017-.16-.033-.33-.026-.492-.036-.15-.01-.301 0-.45.012-.27.022-.542.073-.812.073-.564 0-1.131-.065-1.693-.06"/>
        <path fill="#FFF" d="M24.238 18.756c.147.167.16.398.169.612.014.41.332 2.096-.27 2.147-.171-.876-.038-1.884.1-2.759M23.029 18.756c.147.167.16.398.168.612.015.41.333 2.096-.27 2.147-.17-.876-.037-1.884.102-2.759M25.514 18.773c.147.167.161.398.169.612.014.41.332 2.096-.27 2.147-.17-.876-.037-1.884.101-2.759"/>
        <path fill="#A88E7C" d="M23.289 16.72c-.178.018-.36.041-.505.102-.146.06-.245.168-.195.265.08.158.449.185.74.183l1.055-.01c.17-.002.345.01.514-.005.11-.01 1.131-.222.811-.46a.766.766 0 0 0-.265-.145.77.77 0 0 0-.183-.015 20.03 20.03 0 0 0-1.972.084"/>
        <path fill="#8295A8" d="M36.531 13.766l-2.356.91c-.32.123-.666.249-1 .17-.456-.109-.717-.549-.903-.955-.231-.507-1.785-6.787-1.23-6.795 1.105-.014 1.982.847 2.638 1.685 1.217 1.552 2.089 3.2 2.851 4.985"/>
        <path fill="#353535" d="M27.848 6.13c.514.922-.003 1.836.26 2.773.112.4.447.775.884.818.447.044.863-.275 1.052-.66.217-.437.294-1.128.297-1.606.003-.537-.385-1.038-.295-1.577"/>
        <path fill="#DDB294" d="M26.796 3.73c-.169.732-.079 1.565.247 2.084.822 1.312 2.695 1.303 3.143-.236.336-1.156.084-2.826-1.283-3.247-1.199-.369-1.883.425-2.107 1.4"/>
        <path fill="#EAEAEF" d="M30.17 25.92c-.009.443-.06.955-.449 1.204-.181.116-.406.151-.622.184-.581.086-1.175.173-1.755.082-.58-.091-1.157-.391-1.409-.893-.179-.355-.177-.765-.17-1.159.014-1.014.029-2.029.077-3.043.01-.185.022-.378.124-.536.237-.365.83-.411 1.235-.433a6.71 6.71 0 0 1 .447-.003l.464.008c.404.006.81.013 1.21.08.234.04.483.11.666.26.157.129.181.322.227.507.3 1.225-.022 2.507-.045 3.743"/>
        <path fill="#E0A16C" d="M29.29 23.374c.373-.03.772-.063 1.098.11l-.214 2.342c-.042.454-.103.949-.445 1.272-.376.356-.965.388-1.498.398l-.77.015c-.52.01-1.134-.026-1.41-.44-.147-.22-.154-.496-.157-.756-.007-.544-.353-2.558.15-2.871.273-.171 1.21.008 1.553.005.564-.005 1.13-.075 1.692-.075"/>
        <path fill="#A88E7C" d="M28.987 21.606c.177.017.36.04.505.099.146.06.247.166.198.264-.08.158-.448.188-.739.188l-1.055-.001c-.17 0-.345.013-.514 0-.11-.01-1.133-.213-.815-.453a.766.766 0 0 1 .264-.148.77.77 0 0 1 .183-.016c.665-.003 1.31.005 1.973.067"/>
        <path fill="#EAEAEF" d="M31.187 26.537c.182-.163.177-.433.167-.67-.031-.716.014-1.436.135-2.143.04-.235.088-.472.06-.708-.028-.235-.145-.475-.364-.593-.315-.17-.73-.031-.988.21-.025.024-.05.05-.055.082-.011.06.051.113.115.127.064.014.13.003.196.008.172.014.314.145.382.295.067.15.074.318.076.481.01.66-.032 1.32-.126 1.973-.079.548-.91.287-.787.721.105.372.94.44 1.189.217"/>
        <path fill="#DDB294" d="M32.443 23.694c1.237.502 2.407 2.474.465 2.743-.568.078-1.141-.15-1.602-.473-.558-.39-1.027-1.058-.785-1.671.223-.566.977-.81 1.606-.693.104.02.21.051.316.094"/>
        <path fill="#FFF" d="M28.134 23.907c-.145.168-.157.399-.162.613-.01.41-.313 2.099.29 2.145.163-.877.02-1.884-.128-2.758M26.963 23.907c-.145.168-.157.399-.162.613-.01.41-.313 2.099.29 2.145.163-.877.02-1.884-.128-2.758M29.234 23.932c-.145.168-.157.4-.162.613-.01.41-.313 2.099.29 2.146.162-.878.02-1.885-.128-2.759"/>
        <path fill="#665146" d="M39.835 56.154c-.184.106-.373.26-.4.483-.026.225.134.436.327.527.193.091.41.09.621.087 1.053-.017 2.105-.046 3.157-.09.29-.011.586-.025.862-.127.158-.059.317-.157.389-.32a.904.904 0 0 0 .056-.318c.063-1.22.133-2.621-.132-3.813-.47-.1-1.213-.066-1.408.485-.17.485.22 1.1.006 1.577-.478 1.063-2.604 1.003-3.478 1.509M49.201 54.236c-.341.325-.796.469-1.234.604l-1.124.346c-.213.065-.43.133-.608.274-.178.142-.31.374-.28.61.03.247.235.437.457.512.222.074.46.055.692.034a32.787 32.787 0 0 0 3.057-.438c.34-.065.722-.168.887-.494.096-.19.095-.417.09-.633a27.622 27.622 0 0 0-.196-2.619c.011.089-1.044.485-1.174.643-.279.34-.219.83-.567 1.16"/>
        <path fill="#21160A" d="M42.337 38.276c.025-1.062-.109-2.125-.093-3.189.008-.463-.054-.961.238-1.315.4-.486.926-.807 1.299-1.349.146-.212.282-.44.475-.604.33-.281.776-.339 1.196-.357a9.498 9.498 0 0 1 2.566.237c.12.028.249.064.33.163.08.096.1.231.114.358.333 2.781.404 5.605.97 8.342.144.693.32 1.382.389 2.088.03.323.04.649.093.968.227 1.354 1.225 5.077 1.338 6.448.027.32.004.649.09.956.066.23.19.436.286.654.211.476.292 1.018.23 1.541-.012.107-.035.223-.11.295-.09.086-.225.083-.345.075-.864-.058-1.608-.104-2.451.076-.85.182-1.68.456-2.506.734-1.134.382-3.869-1.584-3.912-2.308-.22-3.731-.286-10.075-.197-13.813"/>
        <path fill="#E0A16C" d="M48.763 24.643c.32.97.383 1.994.444 3.006l.374 6.23c-2.668.012-5.328.136-7.999.131a.73.73 0 0 1-.314-.047c-.217-.103-.244-.372-.244-.596l.014-3.25c.006-1.52-.093-3.013-.101-4.538l-4.524.621c-1.145.157-2.435.283-3.352-.363-.067-.047-.135-.103-.158-.177-.046-.15.1-.287.237-.377.756-.494 1.69-.685 2.587-.904a31.102 31.102 0 0 0 7.209-2.74c.63-.335 1.317-.706 2.04-.61.394.053.749.242 1.08.445 1.349.83 2.238 1.749 2.707 3.17"/>
        <path fill="#CEA182" d="M43.673 21.601c.759.243 1.687.371 2.287-.132.48-.403.573-1.102.394-1.685-.179-.583-.58-1.08-.972-1.56-.091-.112-.189-.228-.326-.283a.823.823 0 0 0-.35-.035c-.88.053-1.307.173-1.436.898-.14.795.287 1.992.403 2.797"/>
        <path fill="#DDB294" d="M45.075 18.19c.113-.337.114-.7.094-1.056a9.3 9.3 0 0 0-.154-1.246c-.04-.207-.096-.427-.257-.563-.172-.146-.417-.16-.642-.167-.45-.013-.927-.02-1.317.2-.406.231-.648.68-.727 1.136-.08.456-.016.924.063 1.38.123.706.138 1.869 1.132 1.71.752-.119 1.563-.664 1.808-1.393"/>
        <path fill="#823725" d="M48.459 17.787c-.74-1.087-1.161-2.38-2.067-3.34-.16-.17-.34-.331-.557-.425-.209-.09-.44-.112-.668-.127-.732-.051-1.751-.067-2.262.512-.5.565-.603 1.815-.17 2.42.218.305.554.507.843.752 1.816 1.532 1.663 4.553 3.552 6 .337.257.748.455 1.176.438 1.414-.054 1.628-2.867 1.68-3.853.049-.906-1.037-1.654-1.527-2.377"/>
        <path fill="#1E231C" d="M2.754 60.854c.01.093.023.193.08.261.066.078.17.094.266.103 1.014.103 2.035.067 3.053.032.262-.01.538-.023.76-.178.22-.153.355-.501.207-.739-.108-.175-.318-.223-.505-.266a7.156 7.156 0 0 1-2.168-.895c-.122-.076-.244-.156-.376-.207-.328-.125-1.059-.178-1.335.135-.316.358-.028 1.319.018 1.754"/>
        <path fill="#353535" d="M3.664 62.823l4.981-.093a.326.326 0 0 0 .167-.033c.066-.04.102-.123.116-.204.042-.245-.089-.493-.267-.645-.178-.152-.397-.228-.609-.31a9.476 9.476 0 0 1-1.765-.906c-.177-.116-.355-.24-.554-.297a1.793 1.793 0 0 0-.467-.048c-.341-.006-1.61-.25-1.78.146-.105.244.053.853.075 1.121l.103 1.27"/>
        <path fill="#6C7A75" d="M1.867 24.163c.58.24 1.264.277 1.874.103.059-.016.125-.035.18-.01.044.022.067.066.087.107.248.523.462 1.058.641 1.603.012.037.023.08-.004.111-.019.022-.052.03-.082.036-.44.087-.889.046-1.335.039-.249-.004-.82.125-1.035.005-.27-.151-.206-.542-.226-.785-.011-.14.003-1.167-.1-1.209"/>
        <path fill="#C36A51" d="M2.079 57.482c.001.432.013.888.215 1.258.202.37.665.6.995.37.32-.22.353-.712.356-1.129.048-6.031 1.175-12.044.758-18.058.032.458-2.398.333-2.63.848-.188.415.086 1.242.137 1.673.08.692.141 1.387.187 2.083.18 2.746.112 5.503.048 8.252-.036 1.567-.074 3.135-.066 4.703"/>
        <path fill="#E1846A" d="M3 58.535c.022.393.05.785.082 1.177.016.19.036.389.138.542.163.246.474.288.749.31.747.059 1.666.02 2.017-.714.102-.214.137-.459.17-.698l.451-3.286c.789-5.73 1.578-11.548.941-17.301l-2.127.735c-.569.196-1.556.313-2.03.704-.692.572-.111 2.904-.088 3.832.08 3.154-.183 6.3-.305 9.448C2.93 55.041 3 56.781 3 58.535"/>
        <path fill="#A88E7C" d="M5.281 23.412c.135-.357.136-.743.113-1.119a8.896 8.896 0 0 0-.184-1.32c-.047-.218-.113-.45-.304-.596-.203-.153-.493-.168-.76-.175-.533-.015-1.097-.023-1.56.211-.48.244-.767.72-.86 1.203-.094.483-.02.978.074 1.461.146.747.164 1.979 1.34 1.811.892-.126 1.851-.704 2.141-1.476"/>
        <path fill="#663531" d="M4.855 19.649a1.873 1.873 0 0 0-.342-.393c-.24-.182-.583-.201-.9-.197-1.273.019-2.69.368-3.307 1.351-.405.645-.377 1.45-.094 2.144.187.472 1.045 2.08 1.723 2.098.963.027.594-1.935.593-2.444 0-.141 0-.289.07-.416.129-.24.45-.339.743-.405.53-.12 1.723-.077 1.922-.583.1-.255-.147-.777-.408-1.155"/>
        <path fill="#21160A" d="M5.029 25.766a10.777 10.777 0 0 0-2.124-.186c-.804.01-1.689.157-2.224.878-.602.812-.546 2.037-.44 3.118.375 3.868.91 7.713 1.603 11.517.045.246.1.51.265.665.157.148.372.156.572.164 1.015.043 2.035.272 3.04.096 1.006-.176 2.04-.884 2.317-2.06.108-.456.093-.939.078-1.413a12042.9 12042.9 0 0 1-.131-3.95c-.046-1.367-.093-2.748-.397-4.066-.15-.655-.392-1.284-.52-1.945-.087-.442-.002-.86-.063-1.285-.155-1.07-1.205-1.388-1.976-1.533"/>
        <path fill="#21160A" d="M13.539 25.413c.288-.139.593-.279.916-.267.323.012.662.231.673.536.01.253-.197.463-.391.638-1.137 1.03-8.63 7.41-9.93 5.68-1.477-1.967 7.348-5.921 8.732-6.587"/>
        <path fill="#EAEAEF" d="M18.255 25.713c.008.443.06.955.449 1.204.18.116.405.151.621.183.582.087 1.175.173 1.756.082.58-.09 1.156-.39 1.408-.892.18-.355.177-.765.171-1.159a90.866 90.866 0 0 0-.078-3.043c-.009-.185-.021-.379-.124-.537-.236-.364-.83-.41-1.235-.432a6.713 6.713 0 0 0-.446-.003l-.464.008c-.405.006-.811.013-1.21.08-.235.04-.483.11-.667.26-.157.129-.18.322-.226.507-.3 1.225.022 2.507.045 3.742"/>
        <path fill="#E0A16C" d="M19.135 23.167c-.373-.03-.773-.063-1.099.11l.215 2.341c.041.455.102.95.444 1.273.376.355.966.387 1.498.398l.77.014c.52.01 1.134-.025 1.41-.44.147-.22.155-.495.158-.755.007-.544.353-2.558-.15-2.872-.274-.17-1.212.009-1.553.006-.564-.006-1.13-.075-1.693-.075"/>
        <path fill="#A88E7C" d="M19.438 21.4c-.178.016-.36.038-.506.098-.146.06-.246.166-.197.263.08.159.447.19.738.189l1.055-.001c.17 0 .345.012.514-.001.11-.009 1.134-.213.815-.452a.765.765 0 0 0-.263-.149.774.774 0 0 0-.183-.016 19.96 19.96 0 0 0-1.973.068"/>
        <path fill="#EAEAEF" d="M17.238 26.33c-.183-.163-.177-.433-.167-.67.03-.716-.015-1.436-.135-2.144-.04-.234-.088-.471-.06-.707.027-.236.145-.475.363-.594.315-.17.731-.03.989.211.024.023.05.05.055.082.01.06-.052.113-.115.127-.064.014-.13.003-.196.008-.173.014-.314.145-.382.295-.067.15-.074.318-.077.48-.01.66.032 1.32.126 1.974.08.548.91.287.787.72-.105.372-.94.44-1.188.218"/>
        <path fill="#A88E7C" d="M15.981 23.487c-1.237.502-2.406 2.474-.464 2.743.568.078 1.14-.151 1.602-.474.557-.39 1.027-1.057.785-1.67-.223-.566-.977-.81-1.606-.693a1.62 1.62 0 0 0-.317.094"/>
        <path fill="#FFF" d="M20.303 23.7c.146.168.157.399.163.613.01.41.312 2.098-.29 2.145-.163-.877-.02-1.884.127-2.758M21.474 23.7c.146.168.158.399.163.613.01.41.312 2.098-.29 2.145-.163-.877-.02-1.884.127-2.758M19.203 23.725c.146.168.157.399.163.613.01.41.313 2.099-.29 2.145-.163-.877-.02-1.884.127-2.758"/>
        <path fill="#EAEAEF" d="M21.563 30.772c.008.443.06.954.448 1.203.181.116.406.151.622.183.581.087 1.175.173 1.755.083.58-.091 1.157-.392 1.409-.892.179-.356.177-.766.17-1.16a91.61 91.61 0 0 0-.077-3.042c-.01-.185-.022-.38-.124-.537-.158-.244-.482-.336-.779-.397-.928-.19-2.676-.67-3.256.275-.603.983-.189 3.187-.168 4.284"/>
        <path fill="#E0A16C" d="M21.344 28.335l.215 2.342c.041.454.102.949.444 1.272.376.356.965.388 1.498.398l.77.015c.52.01 1.134-.026 1.41-.44.147-.22.168-.442.216-.699.11-.58.294-2.615-.208-2.928-.274-.171-1.212.008-1.553.005-.565-.005-1.13-.075-1.693-.075-.373-.03-.773-.063-1.1.11z"/>
        <ellipse cx="12.652" cy="54.369" fill="#F5D2B1" rx="1" ry="1.38"/>
        <path fill="#B1B1B2" d="M23.926 28.29l-.109 3.138c-.004.125-.01.261-.057.354-.453.903-.532-2.86-.535-2.985-.007-.356-.011-.737.093-1.039.267-.774.631-.125.608.533"/>
        <path fill="#FFF" d="M22.397 28.494c.146.168.157.399.162.613.01.41.313 2.099-.29 2.145-.162-.877-.02-1.884.128-2.758M24.977 28.494c.145.168.157.399.162.613.01.41.313 2.099-.29 2.145-.163-.877-.02-1.884.128-2.758"/>
        <path fill="#C69B93" d="M14.043 41.542c-.408.848-.818 1.703-1.03 2.602-.209.885-.22 1.795-.384 2.687-.19 1.037-.583 2.04-.793 3.075-.262 1.287-.239 2.602-.215 3.907.77.127 1.713.205 2.202-.32.227-.242.296-.563.354-.869.613-3.205.92-6.453.917-9.7"/>
        <path fill="#353535" d="M21.656 70.527c-.29.103-1.09.717-.8.998.898.87 2.135 1.695 3.441 1.87.359.05.779.012.997-.26.233-.29.13-.7.018-1.049-.274-.843-.527-.94-1.42-1.225-.585-.187-1.608-.545-2.236-.334M14.305 71.892c-.305.05-1.214.514-.984.841.712 1.012 1.763 1.508 3.012 1.91.343.11.763.147 1.032-.082.286-.244.266-.666.224-1.027-.102-.877-.332-1.016-1.152-1.452-.54-.287-1.474-.286-2.132-.19"/>
        <path fill="#F5D2B1" d="M15.39 67.087c.327 1.851.543 3.72.714 5.59.012.13.04.285.166.343.067.03.146.024.22.017l.385-.037c.058-.006.121-.014.163-.052.049-.045.052-.117.053-.18.05-2.482 1.083-4.86 1.287-7.334.103-1.24-.004-2.485-.111-3.725-.012-.134-1.887.337-2.05.396-.263.094-.733.219-.926.416-.182.186-.193.543-.227.79-.17 1.263.106 2.534.326 3.776M22.542 69.129c.262.531.532 1.59.754 2.138.093.228.185.47.383.63.197.159.539.188.694-.008.103-.13.093-.306.078-.467-.27-2.949-.83-15.813-1.538-18.696.032.131-1.618 8.65-1.786 8.693-.438.11-1.345.047-1.308.59.04.594.772 2.665.994 3.223a53.792 53.792 0 0 0 1.73 3.897"/>
        <g transform="translate(14.984 61.444)">
            <mask id="d" fill="#fff">
                <use xlink:href="#c"/>
            </mask>
            <path fill="#EAEAEF" d="M3.417 8.31c-.032.236.372.262.539.44.063.068.09.158.113.246.434 1.598.543 3.274.321 4.91-.175 1.3-.59 2.627-1.537 3.587-.297.302-.655.568-1.077.674-.422.107-.915.027-1.212-.275-.152-.156-.242-.355-.328-.55-.359-.816-.703-1.653-.784-2.532-.063-.691.037-1.385.064-2.078.026-.65-.016-1.3-.024-1.95-.008-.54-.09-1.274.125-1.786.215-.513.983-.412 1.474-.46l2.326-.226" mask="url(#d)"/>
        </g>
        <g transform="translate(19.957 61.964)">
            <mask id="f" fill="#fff">
                <use xlink:href="#e"/>
            </mask>
            <path fill="#EAEAEF" d="M4.283 7.166c.087-.024.18-.048.264-.021.08.025.138.091.188.155.445.57.707 1.246.917 1.924.27.871.466 1.762.583 2.662.078.596.12 1.746-.082 2.315-.211.596-.67.552-1.146.992-.23.213-.498.431-.82.438-.28.006-.532-.151-.74-.327-1.6-1.352-.711-.146-1.717-3.271a35.423 35.423 0 0 0-.665-1.885C.907 9.74.306 8.842.493 8.418c.191-.434 1.208-.527 1.62-.643l2.17-.609" mask="url(#f)"/>
        </g>
        <g>
            <path fill="#C69B93" d="M23.204 33.51c-.131.563-.262 1.125-.34 1.69-.133.957-.183 1.854-.77 2.709-.256.373-.64.69-1.103.78-.368.07-.803-.038-.99-.345-.141-.235-.112-.524-.069-.79.251-1.537.846-3 1.437-4.452.419-1.027.61-1.782 1.853-1.527a.463.463 0 0 1 .216.083c.106.092.093.25.071.385-.079.491-.192.98-.305 1.468"/>
            <path fill="#F5D2B1" d="M24.278 30.625c.031-.4-.018-.818-.047-1.158-.025-.302-.13-.686-.45-.717-.136-.013-.268.05-.38.125-.59.395-1.232 1.977-.892 2.623.318.606.928.568 1.385.108.254-.255.354-.61.384-.981"/>
            <path fill="#21160A" d="M22.81 45.05c.5 3.78 1 19.562 1.38 23.354.029.278-11.259-.536-12.306-.461.502-2.831 1.003-17.663 1.507-20.493.428-2.415.174-4.86.65-7.247.21-1.057.71-2.099 1.595-2.817 2.686-2.18 4.48-.423 5.607 2.013.947 2.048 1.424 4.576 1.566 5.65z"/>
            <path fill="#492317" d="M21.59 35.631c.086-1.765-.023-3.697-1.88-4.175-.77-.199-1.624-.347-2.375-.103-3.013.98-2.785 4.657-2.812 6.746-.04 3.185.18 6.413 1.352 9.475 2.503.053 5.01-.032 7.5-.252-.45.04-1.754-8.488-1.852-9.283-.074-.6.024-1.481.068-2.408"/>
            <path fill="#A88E7C" d="M22.77 26.422c-.178.016-.36.038-.506.098-.146.06-.246.166-.197.264.079.158.447.188.738.188l1.055-.001c.17 0 .345.013.514 0 .11-.01 1.134-.213.815-.453a.761.761 0 0 0-.263-.148.76.76 0 0 0-.184-.016 19.96 19.96 0 0 0-1.972.068"/>
            <path fill="#CAD6E3" d="M23.495 58.118c.067.01.168.02.168.027 0 0 .114 1.724.116 2.679a40.217 40.217 0 0 0-2.075-.215c-1.936-.138-3.878-.137-5.816-.224a46.906 46.906 0 0 1-1.864-.112 14.246 14.246 0 0 0-1.583-.025c.042-.776.117-1.49.124-2.354 1.36-.085 1.9-.11 2.95-.205 1.088-.098 2.183-.025 3.272.039.293.017 4.034.288 4.708.39M23.495 62.367c.067.01.355.042.355.049.06.867.053 1.665.13 2.657a48.375 48.375 0 0 0-2.276-.214c-2.886-.206-5.778-.02-8.646-.335-.284-.031-.573-.066-.851-.001.014-.463-.022-.94.022-1.4.036-.38.205-.795.091-1.175 1.369-.064 2.724-.031 4.09-.055.793-.014 1.586.038 2.377.084.293.017 4.034.288 4.708.39"/>
        </g>
    </g>
</svg>
