<svg xmlns="http://www.w3.org/2000/svg" xmlns:xlink="http://www.w3.org/1999/xlink" width="63" height="77" viewBox="0 0 63 77">
    <defs>
        <path id="a" d="M.231.232h12.74v28.236H.231z"/>
        <path id="c" d="M.176.27h11.266v15.618H.176z"/>
        <path id="e" d="M1.427.16c-.125.047-.29.046-.456.045C.73.203.487.202.355.345c-.21.228-.224.667-.262.97-.197 1.55.122 4.09.376 5.615.38 2.274.63 4.567.827 6.864.014.162.047.351.192.422.078.037.17.03.256.02l.445-.045c.067-.007.14-.016.189-.064.056-.055.06-.142.062-.222.056-3.046 1.252-5.967 1.49-9.005.118-1.523-.006-3.052-.13-4.574C3.79.204 2.597.132 1.902.132c-.244 0-.426.009-.475.027"/>
        <path id="g" d="M1.682.961c-.507.137-1.557.059-1.514.724.047.73.567 1.643.823 2.328A67.207 67.207 0 0 0 2.994 8.8c.302.652.615 1.953.872 2.625.108.28.215.578.443.774.229.195.625.23.804-.01.119-.16.107-.376.09-.573C4.89 7.994 4.57 3.706 3.749.165c.037.162-1.872.744-2.067.796"/>
    </defs>
    <g fill="none" fill-rule="evenodd">
        <path fill="#EAEAEF" d="M37.727 16.49c-.01.545-.07 1.173-.52 1.479-.21.142-.469.185-.72.225-.672.106-1.36.212-2.031.1-.672-.11-1.34-.48-1.63-1.095-.208-.437-.206-.94-.199-1.423.017-1.246.034-2.492.09-3.737.01-.227.025-.465.144-.66.273-.447.96-.504 1.43-.53.172-.01.344-.007.516-.004l.538.01c.468.007.938.016 1.4.098.272.05.56.134.772.32.182.157.21.395.262.621.348 1.505-.025 3.08-.052 4.597"/>
        <path fill="#E0A16C" d="M36.708 13.363c.432-.036.895-.077 1.272.136l-.248 2.875c-.048.559-.119 1.166-.514 1.563-.436.437-1.119.476-1.735.488l-.892.019c-.6.012-1.312-.032-1.632-.54-.17-.271-.178-.61-.182-.929-.008-.667-.409-3.14.173-3.526.317-.21 1.403.01 1.798.006.653-.006 1.309-.092 1.96-.092"/>
        <path fill="#A88E7C" d="M36.358 11.193c.205.02.416.047.585.12.169.074.285.204.228.325-.091.194-.517.231-.854.23h-1.222c-.196 0-.4.015-.595-.001-.127-.01-1.312-.261-.944-.556a.868.868 0 0 1 .306-.181.83.83 0 0 1 .212-.02c.77-.004 1.517.006 2.284.083"/>
        <path fill="#EAEAEF" d="M38.905 17.247c.21-.2.205-.531.193-.821-.036-.88.017-1.764.156-2.633.046-.288.102-.58.07-.869-.032-.29-.168-.584-.42-.729-.366-.21-.847-.038-1.145.259-.029.028-.058.06-.064.1-.013.074.06.14.133.156.074.018.151.004.227.01.2.017.364.178.442.363.078.184.086.39.089.59.011.81-.038 1.62-.146 2.423-.092.673-1.053.352-.911.885.121.456 1.087.54 1.376.266"/>
        <path fill="#DDB294" d="M40.36 13.757c1.431.616 2.786 3.038.537 3.367-.658.097-1.32-.184-1.855-.58-.645-.48-1.188-1.3-.909-2.052.259-.696 1.132-.995 1.86-.85.121.023.244.062.366.115"/>
        <path fill="#FFF" d="M35.363 14.018c-.164.206-.177.49-.183.752-.012.504-.351 2.578.326 2.635.183-1.077.022-2.314-.143-3.387M34.007 14.018c-.164.206-.177.49-.183.752-.011.504-.351 2.578.326 2.635.183-1.077.022-2.314-.143-3.387M36.636 14.049c-.164.206-.177.49-.183.753-.011.503-.351 2.577.326 2.634.183-1.077.022-2.314-.143-3.387"/>
        <path fill="#665146" d="M46.935 53.619c-.242.13-.493.32-.527.593-.036.276.176.535.431.647.255.112.542.111.82.107 1.393-.02 2.784-.057 4.176-.11.384-.014.775-.031 1.138-.156.21-.073.42-.193.515-.394a1.04 1.04 0 0 0 .074-.39c.084-1.498.177-3.22-.175-4.683-.62-.123-1.603-.08-1.86.597-.226.594.29 1.35.007 1.936-.633 1.305-3.443 1.231-4.6 1.853M59.32 51.263c-.452.4-1.053.576-1.633.742l-1.486.425c-.28.08-.569.164-.804.337-.235.174-.41.459-.37.748.041.304.311.538.605.63.293.091.609.067.915.04a46.512 46.512 0 0 0 4.042-.536c.449-.08.955-.207 1.173-.608.126-.233.125-.512.118-.777a31.46 31.46 0 0 0-.259-3.216c.015.11-1.381.596-1.552.79-.369.418-.29 1.019-.75 1.425"/>
        <g transform="translate(49.888 23.053)">
            <mask id="b" fill="#fff">
                <use xlink:href="#a"/>
            </mask>
            <path fill="#21160A" d="M.355 8.61C.39 7.308.211 6 .233 4.696c.01-.568-.072-1.18.315-1.616.529-.596 1.223-.99 1.716-1.655.193-.261.373-.54.628-.742C3.33.336 3.918.266 4.474.242c1.138-.046 2.28.053 3.393.293.16.034.329.077.437.2.105.117.13.283.15.44.44 3.414.534 6.882 1.283 10.243.19.852.422 1.697.513 2.565.042.396.053.796.124 1.188.299 1.664 1.619 6.235 1.769 7.92.035.392.005.796.12 1.172.086.284.25.536.377.804.279.584.386 1.25.305 1.892-.017.133-.047.274-.147.363-.119.105-.297.101-.456.092-1.142-.071-2.125-.128-3.241.094-1.124.223-2.221.559-3.313.9-1.5.47-5.115-1.945-5.172-2.834C.324 20.992.237 13.201.356 8.611" mask="url(#b)"/>
        </g>
        <path fill="#E0A16C" d="M58.698 14.922c.36 1.192.43 2.448.499 3.691l.42 7.65c-2.996.016-5.982.168-8.981.162-.12 0-.246-.001-.353-.057-.244-.127-.274-.457-.273-.733l.015-3.99c.007-1.869-.104-3.701-.114-5.573l-5.079.762c-1.286.193-2.734.348-3.764-.446-.075-.058-.15-.126-.177-.217-.052-.183.111-.353.266-.464.849-.606 1.898-.84 2.905-1.11a33.127 33.127 0 0 0 8.093-3.364c.709-.412 1.48-.868 2.29-.75.443.066.842.298 1.213.547 1.516 1.02 2.514 2.148 3.04 3.892"/>
        <path fill="#CEA182" d="M53.36 11.186c.882.299 1.96.456 2.655-.162.558-.495.665-1.353.457-2.07-.207-.716-.672-1.325-1.128-1.915-.106-.138-.219-.28-.378-.347a.901.901 0 0 0-.406-.044c-1.022.065-1.517.213-1.666 1.103-.164.977.333 2.447.467 3.435"/>
        <path fill="#DDB294" d="M54.614 6.967c.17-.52.172-1.08.142-1.627a14.702 14.702 0 0 0-.232-1.918c-.06-.317-.143-.656-.384-.867-.257-.223-.624-.245-.961-.255-.674-.022-1.387-.033-1.972.308-.608.355-.97 1.046-1.089 1.748-.118.701-.023 1.421.095 2.124.184 1.086.207 2.876 1.695 2.633 1.126-.184 2.34-1.024 2.706-2.146"/>
        <g transform="translate(50.528 .049)">
            <mask id="d" fill="#fff">
                <use xlink:href="#c"/>
            </mask>
            <path fill="#823725" d="M9.152 6.297c-1.105-1.672-1.738-3.663-3.093-5.14-.24-.262-.509-.51-.834-.654-.313-.138-.66-.173-1-.197C3.127.228 1.602.203.837 1.094c-.748.87-.903 2.793-.256 3.724.328.471.831.783 1.264 1.158 2.718 2.359 2.49 7.008 5.317 9.234.505.397 1.12.702 1.76.676 2.117-.084 2.438-4.414 2.517-5.93.072-1.395-1.553-2.547-2.288-3.659" mask="url(#d)"/>
        </g>
        <path fill="#6C7A75" d="M2.525 13.717a3.513 3.513 0 0 0 2.533.157c.08-.026.169-.054.243-.015.06.032.091.1.118.163.335.8.624 1.619.867 2.451.016.057.03.124-.006.17-.026.034-.07.046-.11.055-.596.133-1.202.07-1.806.06-.336-.006-1.11.191-1.4.007-.364-.23-.277-.828-.304-1.2-.016-.213.003-1.784-.135-1.848"/>
        <path fill="#1E231C" d="M4.723 60.765c.013.114.03.237.109.321.09.096.231.115.362.126 1.381.127 2.772.083 4.159.04.357-.012.733-.029 1.036-.218.3-.189.483-.617.283-.908-.149-.215-.434-.275-.69-.328A10.372 10.372 0 0 1 7.03 58.7c-.167-.093-.332-.19-.513-.253-.447-.153-1.442-.22-1.819.165-.43.44-.038 1.62.026 2.154"/>
        <path fill="#CC715C" d="M3.802 56.624c.003.531.018 1.09.293 1.545.275.454.906.737 1.357.456.434-.272.48-.876.484-1.388.066-7.407 1.6-14.79 1.033-22.176.043.563-3.267.41-3.584 1.041-.256.51.118 1.526.187 2.056.11.85.193 1.703.254 2.557.245 3.373.154 6.757.067 10.134-.05 1.924-.1 3.85-.091 5.775"/>
        <path fill="#E1846A" d="M5.057 57.918c.03.482.068.964.112 1.445.021.232.049.478.188.665.222.302.646.355 1.02.381 1.019.072 2.27.024 2.749-.876.139-.263.186-.564.231-.858l.616-4.035c1.073-7.038 2.15-14.181 1.281-21.247l-2.898.902c-.775.242-2.12.385-2.766.866-.943.702-.151 3.566-.12 4.706.108 3.873-.25 7.737-.416 11.603-.092 2.157.003 4.294.003 6.448"/>
        <path fill="#2E362B" d="M5.962 63.184l6.787-.115a.487.487 0 0 0 .227-.04c.09-.05.14-.151.158-.252.057-.3-.12-.604-.363-.79-.243-.187-.541-.281-.83-.381a13.505 13.505 0 0 1-2.405-1.114c-.242-.142-.483-.294-.755-.363a2.698 2.698 0 0 0-.636-.06c-.465-.007-2.193-.307-2.426.18-.142.298.072 1.046.102 1.376l.14 1.559"/>
        <path fill="#A88E7C" d="M7.14 12.568c.182-.547.184-1.136.152-1.711a15.287 15.287 0 0 0-.248-2.018c-.064-.335-.153-.69-.411-.912-.274-.236-.667-.258-1.028-.27-.72-.022-1.483-.034-2.108.325-.65.372-1.038 1.1-1.164 1.838-.127.74-.026 1.497.101 2.235.197 1.143.22 3.026 1.812 2.77 1.205-.193 2.502-1.077 2.894-2.257"/>
        <path fill="#663531" d="M6.563 6.812c-.164-.269-.333-.49-.461-.6-.324-.28-.79-.308-1.217-.301-1.721.028-3.636.562-4.472 2.066-.547.986-.51 2.217-.127 3.278.253.722 1.413 3.18 2.33 3.21 1.303.04.803-2.96.801-3.738 0-.217.001-.442.095-.637.175-.368.61-.518 1.004-.62.717-.184 2.331-.118 2.6-.891.136-.39-.199-1.188-.553-1.767"/>
        <path fill="#21160A" d="M7.378 16.3a19.057 19.057 0 0 0-3.14-.228c-1.189.012-2.496.193-3.287 1.079-.89.997-.807 2.501-.652 3.829.555 4.75 1.347 9.472 2.371 14.144.067.3.149.626.392.816.232.181.55.19.845.201 1.5.054 3.008.334 4.495.118 1.486-.216 3.014-1.086 3.425-2.53.159-.56.137-1.153.114-1.734l-.194-4.852c-.067-1.678-.137-3.375-.586-4.993-.223-.804-.58-1.577-.77-2.388-.127-.543-.001-1.058-.092-1.578-.23-1.316-1.78-1.705-2.921-1.884"/>
        <path fill="#21160A" d="M18.474 15.867c.333-.17.687-.342 1.06-.327.375.014.767.284.78.657.01.312-.228.569-.453.785-1.317 1.264-9.99 9.099-11.496 6.974-1.71-2.414 8.507-7.27 10.11-8.089"/>
        <path fill="#EAEAEF" d="M23.934 16.236c.01.544.069 1.173.519 1.478.21.143.47.186.72.225.673.106 1.36.213 2.032.101.672-.111 1.339-.48 1.63-1.095.208-.437.205-.94.198-1.424a119.368 119.368 0 0 0-.09-3.737c-.01-.227-.025-.465-.143-.659-.274-.447-.961-.505-1.43-.53-.172-.01-.344-.007-.517-.004l-.537.009c-.468.008-.939.016-1.4.1-.272.048-.56.133-.773.318-.18.158-.21.396-.262.622-.348 1.504.026 3.079.053 4.596"/>
        <path fill="#E0A16C" d="M24.953 13.109c-.432-.037-.895-.078-1.273.135l.249 2.876c.048.558.118 1.165.514 1.562.435.437 1.118.476 1.735.489l.892.018c.6.012 1.312-.032 1.631-.54.17-.271.18-.608.183-.928.008-.668.408-3.141-.173-3.527-.318-.21-1.403.01-1.799.007-.653-.006-1.308-.092-1.959-.092"/>
        <path fill="#A88E7C" d="M25.303 10.938c-.206.02-.417.048-.585.121-.169.073-.285.204-.229.324.092.194.518.232.855.231l1.222-.001c.196 0 .399.016.594 0 .128-.012 1.313-.262.944-.556a.873.873 0 0 0-.305-.182.828.828 0 0 0-.212-.02c-.77-.003-1.518.007-2.284.083"/>
        <path fill="#EAEAEF" d="M22.756 16.993c-.211-.2-.205-.532-.193-.822.035-.88-.017-1.764-.157-2.633-.046-.288-.102-.579-.07-.868.033-.29.169-.584.421-.73.365-.209.847-.037 1.145.26.029.028.057.06.064.1.012.074-.06.139-.134.156-.073.017-.15.003-.226.01-.2.017-.364.178-.442.362-.078.184-.086.39-.089.59-.011.81.037 1.621.146 2.424.091.672 1.053.352.911.885-.121.456-1.088.54-1.376.266"/>
        <path fill="#A88E7C" d="M21.302 13.502c-1.433.616-2.787 3.038-.539 3.368.658.097 1.321-.185 1.855-.581.646-.48 1.19-1.299.91-2.052-.26-.695-1.132-.994-1.86-.85a1.825 1.825 0 0 0-.366.115"/>
        <path fill="#FFF" d="M26.298 13.763c.164.207.177.49.183.753.011.504.351 2.578-.327 2.635-.182-1.077-.021-2.314.144-3.388M27.654 13.763c.163.207.177.49.183.753.011.504.35 2.578-.327 2.635-.182-1.077-.021-2.314.144-3.388M25.025 13.794c.163.207.177.49.182.753.012.504.352 2.577-.326 2.635-.182-1.077-.022-2.314.144-3.388"/>
        <path fill="#EAEAEF" d="M27.763 22.448c.01.544.07 1.173.52 1.478.209.143.469.186.72.225.672.106 1.359.213 2.031.1.672-.11 1.34-.48 1.63-1.094.208-.437.206-.94.199-1.424a119.325 119.325 0 0 0-.09-3.737c-.01-.227-.026-.465-.144-.66-.183-.3-.558-.412-.902-.486-1.074-.234-3.098-.824-3.77.337-.697 1.208-.218 3.914-.194 5.261"/>
        <path fill="#E0A16C" d="M28.782 19.32c-.432-.036-.895-.077-1.273.136l.25 2.875c.047.559.117 1.166.513 1.563.436.437 1.118.476 1.735.489l.892.018c.6.012 1.312-.032 1.632-.54.17-.271.179-.609.182-.928.008-.668.409-3.141-.173-3.527-.318-.21-1.403.01-1.798.006-.654-.006-1.309-.091-1.96-.091"/>
        <path fill="#B1B1B2" d="M30.5 19.401l-.127 3.853c-.005.154-.013.32-.067.435-.524 1.11-.615-3.511-.618-3.666-.009-.437-.014-.905.107-1.276.31-.95.73-.154.704.654"/>
        <path fill="#FFF" d="M28.722 19.65c.164.207.177.49.182.753.012.504.352 2.578-.326 2.635-.182-1.077-.022-2.314.144-3.387M31.708 19.65c.164.207.177.49.183.753.012.504.351 2.578-.326 2.635-.183-1.077-.022-2.314.143-3.387"/>
        <path fill="#C69B93" d="M19.058 35.675c-.473 1.148-.948 2.305-1.193 3.522-.242 1.199-.256 2.432-.445 3.639-.22 1.405-.674 2.763-.918 4.164-.303 1.742-.276 3.523-.249 5.29.893.172 1.983.277 2.55-.432.262-.33.342-.763.41-1.178a80.997 80.997 0 0 0 1.061-13.134"/>
        <path fill="#353535" d="M27.87 71.27c-.335.126-1.262.88-.925 1.226 1.04 1.067 2.471 2.082 3.983 2.297.415.059.902.014 1.155-.32.27-.357.151-.861.02-1.289-.316-1.035-.61-1.154-1.643-1.504-.678-.23-1.862-.669-2.59-.41M19.36 72.946c-.353.062-1.404.631-1.138 1.033.824 1.242 2.041 1.852 3.487 2.345.397.135.883.181 1.194-.1.332-.3.309-.818.26-1.262-.118-1.076-.385-1.248-1.334-1.783-.624-.352-1.706-.352-2.469-.233"/>
        <path fill="#F5D2B1" d="M20.616 67.045c.38 2.274.63 4.567.828 6.864.013.161.045.35.191.422.078.037.17.03.256.02l.445-.045c.068-.007.14-.016.189-.064.056-.055.06-.143.062-.222.057-3.046 1.253-5.967 1.49-9.005.118-1.522-.006-3.052-.13-4.575-.013-.164-2.184.414-2.373.487-.304.116-.848.268-1.072.511-.21.228-.224.667-.262.97-.197 1.551.122 3.112.376 4.637M28.897 69.553c.303.652.616 1.953.873 2.625.107.28.214.578.443.774.229.195.624.23.804-.01.119-.16.107-.376.09-.574-.313-3.62-.96-19.419-1.78-22.96.037.162-1.874 10.624-2.068 10.676-.508.136-1.557.058-1.514.724.047.73.893 3.274 1.15 3.959a68.343 68.343 0 0 0 2.002 4.786"/>
        <g transform="translate(20.147 60.115)">
            <mask id="f" fill="#fff">
                <use xlink:href="#e"/>
            </mask>
            <path fill="#EAEAEF" d="M3.956 10.206c-.037.29.43.321.624.54a.703.703 0 0 1 .131.301c.502 1.963.628 4.021.372 6.03-.204 1.597-.683 3.226-1.78 4.406-.344.37-.758.696-1.247.827-.488.131-1.06.033-1.402-.338-.177-.191-.28-.436-.38-.676-.416-1.001-.814-2.03-.908-3.109-.074-.848.043-1.7.074-2.551.03-.8-.018-1.598-.029-2.396-.008-.662-.103-1.563.146-2.193.248-.63 1.138-.506 1.706-.564l2.693-.277" mask="url(#f)"/>
        </g>
        <g transform="translate(25.904 60.754)">
            <mask id="h" fill="#fff">
                <use xlink:href="#g"/>
            </mask>
            <path fill="#EAEAEF" d="M4.959 8.8c.1-.03.207-.06.305-.026.094.031.16.112.218.191.515.699.818 1.53 1.062 2.363.312 1.07.538 2.164.674 3.27.09.73.139 2.143-.095 2.842-.244.732-.775.678-1.326 1.218-.267.261-.577.53-.95.537-.323.008-.616-.185-.856-.401-1.854-1.66-.823-.179-1.988-4.017a45.93 45.93 0 0 0-.77-2.314c-.182-.503-.878-1.604-.662-2.126.221-.533 1.398-.647 1.875-.788L4.96 8.8" mask="url(#h)"/>
        </g>
        <g>
            <path fill="#C69B93" d="M29.663 25.812c-.151.69-.302 1.38-.394 2.075-.154 1.175-.211 2.275-.89 3.326-.298.459-.742.848-1.278.958-.426.087-.93-.046-1.145-.424-.164-.288-.13-.643-.08-.971.29-1.886.979-3.684 1.663-5.465.484-1.262.705-2.19 2.146-1.876.088.019.182.04.249.102.122.113.108.307.082.472a28.43 28.43 0 0 1-.353 1.803"/>
            <path fill="#F5D2B1" d="M30.906 22.268c.037-.49-.02-1.005-.054-1.422-.03-.37-.15-.842-.521-.88-.158-.016-.31.061-.44.153-.682.485-1.427 2.427-1.033 3.22.37.745 1.075.699 1.604.134.294-.314.41-.749.444-1.205"/>
            <path fill="#1F9995" d="M28.1 29.007c1.168 2.8 1.756 6.255 1.932 7.724.617 5.167 1.234 26.74 1.703 31.923.035.38-13.885-.732-15.177-.63.62-3.87 1.238-24.143 1.858-28.013.53-3.3.215-6.641.802-9.905.26-1.445.876-2.869 1.967-3.85 3.313-2.982 5.525-.58 6.915 2.751"/>
            <path fill="#492317" d="M28.363 24.859c.116-3-.032-6.282-2.58-7.094-1.059-.338-2.23-.588-3.26-.174-4.135 1.664-3.823 7.911-3.86 11.46-.055 5.411.248 10.895 1.856 16.097 3.435.09 6.876-.054 10.292-.429-.616.068-2.406-14.42-2.54-15.77-.102-1.02.032-2.516.092-4.09"/>
            <path fill="#A88E7C" d="M29.16 17.106c-.205.02-.416.048-.585.12-.169.074-.285.205-.229.325.092.194.518.231.855.231l1.222-.001c.196 0 .4.015.595-.001.128-.011 1.312-.261.944-.556a.873.873 0 0 0-.306-.182.828.828 0 0 0-.212-.02c-.77-.003-1.517.007-2.284.084"/>
            <path fill="#CAD6E3" d="M30.878 56.03c.082.013.128.023.128.03.072 1.067.287 2.236.198 3.293a48.87 48.87 0 0 0-2.536-.263c-2.387-.17-4.782-.168-7.172-.275a57.507 57.507 0 0 1-2.299-.138c-.464-.04-1.46-.363-1.867-.032.084-.964.088-1.934.013-2.899 1.315.22 2.398-.126 3.692-.242 1.342-.12 2.694-.03 4.036.047.362.021 4.975.354 5.807.48M30.878 61.248c.082.013.128.023.128.031.072 1.066.287 2.235.198 3.293a48.87 48.87 0 0 0-2.536-.264c-2.387-.169-4.782-.168-7.172-.274a57.508 57.508 0 0 1-2.299-.138c-.464-.04-1.46-.363-1.867-.033.084-.963.088-1.934.013-2.898 1.315.22 2.398-.127 3.692-.242 1.342-.12 2.694-.031 4.036.047.362.02 4.975.354 5.807.478"/>
        </g>
    </g>
</svg>
