<svg xmlns="http://www.w3.org/2000/svg" xmlns:xlink="http://www.w3.org/1999/xlink" width="77" height="82" viewBox="0 0 77 82">
    <defs>
        <path id="a" d="M.032.33H10.85v34.544H.03z"/>
        <path id="c" d="M.33.554C.7 1.99 1.072 3.431 1.664 4.79c1.181 2.71 3.2 5.007 4.219 7.782.026.072.058.151.127.184.059.028.128.013.192-.002l.42-.1a.46.46 0 0 0 .228-.1c.11-.112.08-.296.041-.448-.548-2.169-1.048-4.351-1.425-6.557-.252-1.479-.456-3.01-1.128-4.37C4.207.911 4.055.513 3.79.371 3.51.22 2.964.254 2.651.244h-.014C2.372.244.29.402.33.554"/>
        <path id="e" d="M.323 10.767c-.006.193-.005.404.118.55.187.224.567.166.777-.035.21-.203.295-.497.383-.776.21-.665.475-1.311.73-1.96a66.239 66.239 0 0 0 1.66-4.752c.208-.679.658-1.592.662-2.302C4.656.844 3.648.98 3.15.877 2.96.837 1.084.382 1.112.223.521 3.701.419 7.241.322 10.767"/>
        <path id="g" d="M20.08.519c-3.489.643-7.063.818-10.598.514-.166-.015-.341-.029-.491.044-.166.081-.267.252-.36.41A16.137 16.137 0 0 1 .25 8.42c.54.938.616 2.064.673 3.145.105 2.024.183 4.05.232 6.078a26.92 26.92 0 0 1 8.867 3.186c.226.13.455.266.71.326.264.063.54.041.812.02a94.718 94.718 0 0 1 12.251-.155c1.651-3.37 5.04-5.82 8.747-6.324a14.717 14.717 0 0 1 .05-9.03c-1.703-.181-3.314-.822-4.787-1.68-1.333-.776-2.558-1.724-3.74-2.713-.42-.352-1.005-1.111-1.55-1.23a1.233 1.233 0 0 0-.264-.026c-.662 0-1.59.394-2.172.502"/>
    </defs>
    <g fill="none" fill-rule="evenodd">
        <path fill="#665146" d="M57.115 80.424c.255.137.518.338.554.626.037.291-.185.565-.453.684-.268.118-.57.117-.863.112-1.464-.021-2.927-.06-4.39-.115-.404-.016-.814-.034-1.197-.165-.22-.077-.441-.205-.541-.417-.06-.127-.07-.271-.078-.412-.088-1.581-.185-3.4.183-4.945.652-.13 1.687-.086 1.957.63.237.627-.306 1.425-.007 2.045.664 1.379 3.62 1.3 4.835 1.957"/>
        <path fill="#847062" d="M46.206 60.83c-.015.982-.036 1.97-.218 2.936s-.522 1.895-.884 2.809c-1.257 3.177-2.8 6.29-3.345 9.665.597.264 1.29.53 1.876.241.451-.222.698-.71.913-1.167l1.657-3.516c.726-1.54 1.451-3.08 2.112-4.65.408-.97.794-1.958.976-2.996.17-.961.16-1.944.167-2.921.025-2.94.492-5.888.497-8.809-1.278-.476-3.27-.44-3.68 1.153-.27 1.049-.045 2.366-.044 3.443 0 1.27-.008 2.54-.027 3.811"/>
        <path fill="#AA8E79" d="M48.499 59.67c-.024 1.354-.054 2.71.026 4.061.078 1.308.26 2.608.441 3.906l.632 4.525.585 4.182c.024.173.056.361.185.479.122.11.3.128.465.135a7.286 7.286 0 0 0 1.735-.137c.182-.036.373-.086.496-.224.128-.145.152-.351.17-.543.732-7.731 1.009-15.505.831-23.27-.003-.13-.013-.279-.114-.363-.079-.066-.19-.072-.292-.077-1.876-.079-3.488-.662-5.247-1.21-.372 1.218.02 2.152.128 3.345.153 1.699-.011 3.486-.041 5.19"/>
        <path fill="#1F9995" d="M49.299 36.746c-1.764.804-3.664 1.737-4.492 3.494-.332.703-.46 1.485-.536 2.26a18.385 18.385 0 0 0 1.798 9.843c.136.274.288.556.54.727.284.191.644.211.985.224 2.1.077 4.201.114 6.302.11.127 0 .259-.002.371-.06.257-.135.289-.484.288-.774l-.017-4.215c-.003-.852-.008-1.718-.25-2.534-.382-1.283-1.306-2.316-2.11-3.385a21.74 21.74 0 0 1-2.63-4.557"/>
        <path fill="#067070" d="M52.722 37.857c1.3 1.533 2.585 3.112 3.447 4.93.5 1.056.851 2.282.463 3.384-.058.165-.141.334-.292.421-.132.076-.294.075-.445.06-1.331-.127-2.41-1.1-3.35-2.054-1.483-1.507-3.87-3.916-4.067-6.162-.087-.984.482-2.541 1.61-2.459 1.097.08 1.975 1.104 2.634 1.88"/>
        <path fill="#E57055" d="M44.387 30.833c1.163-1.767 1.827-3.869 3.252-5.43.253-.276.535-.538.877-.69.329-.146.694-.182 1.052-.208 1.142-.082 2.375-.05 3.305.618 1.286.922 1.555 2.703 1.64 4.286.056 1.069.074 2.165-.27 3.177-.247.725-.672 1.377-1.161 1.965-.82.984-1.822 1.796-2.816 2.602l-3.17 2.57c-.694.562-1.436 1.146-2.32 1.27-.467.066-.993-.027-1.303-.385-.164-.189-.25-.431-.33-.668-.558-1.656-1.071-3.488-1.161-5.243-.076-1.473 1.632-2.69 2.405-3.864"/>
        <path fill="#665146" d="M44.093 77.935c.475.422 1.107.609 1.717.784l1.562.449c.296.084.598.173.846.356.247.183.431.485.39.79-.044.322-.329.568-.637.665-.309.097-.64.072-.963.043a48.662 48.662 0 0 1-4.249-.567c-.472-.084-1.004-.218-1.233-.641-.133-.246-.132-.541-.124-.821a33.47 33.47 0 0 1 .27-3.397c-.015.115 1.454.63 1.634.835.387.44.304 1.075.787 1.504"/>
        <path fill="#846855" d="M71.797 77.423a25.862 25.862 0 0 0 .043 3.53c.014.172.028.354-.044.512-.073.157-.266.273-.422.198-.118-.057-.17-.196-.212-.321l-.308-.945c-.027.31-.214.59-.463.777-.248.185-.551.285-.857.336-.294.05-.624.05-.86-.134-.235-.184-.286-.609-.031-.765.058-.035.125-.054.182-.09.134-.087.189-.252.231-.405.234-.833.396-1.686.487-2.545.007-.064.017-.134.066-.175.04-.035.097-.038.15-.041l1.964-.096c.03.208.037.419.022.628"/>
        <path fill="#C1ADA3" d="M71.866 77.626c-.533.014-1.067.015-1.6.002-.235-.005-.512-.036-.633-.24a.72.72 0 0 1-.075-.292c-.333-3.055-.667-6.127-.509-9.196.016-.299.063-.645.318-.799.135-.081.3-.089.458-.084.824.023 1.84.164 1.873 1.085.039 1.05.037 2.103.056 3.154l.112 6.37"/>
        <path fill="#D6BEAE" d="M69.808 77.261c-.003.043-.007.09-.037.121-.039.04-.101.04-.157.035a23.953 23.953 0 0 1-1.642-.187c-.132-.02-.271-.045-.367-.137-.104-.1-.13-.257-.148-.4-.237-1.896-.093-3.815.05-5.72l.348-4.61c.634.125 2.317.16 2.62.728.334.626-.167 2.63-.215 3.362l-.452 6.808"/>
        <path fill="#E0B9A4" d="M72.592 28.41c-.308-.94-.727-1.906-1.534-2.473-.28-.197-.627-.34-.959-.263-.342.08-.589.372-.792.66-.544.77-.97 1.694-.86 2.633.124 1.065.906 1.933 1.75 2.591.206.161.43.333.503.585.06.206.007.446.123.627.085.135.243.202.392.256.95.345 2.067.573 2.085-.77.019-1.296-.308-2.623-.708-3.846"/>
        <path fill="#A59D38" d="M70.24 32.501l-.19 1.645a.22.22 0 0 0 .007.113c.031.075.128.09.209.095.981.049 1.951-.143 2.918-.284.756-.11.965-.32 1.142-1.091-.73.115-1.364-.04-2.066-.25-.184-.056-1.967-.563-2.02-.228"/>
        <g transform="translate(65.568 33.272)">
            <mask id="b" fill="#fff">
                <use xlink:href="#a"/>
            </mask>
            <path fill="#BCAB64" d="M9.958 1.683c.403.56.538 1.266.634 1.95 1.136 8.123-1.839 16.268-1.797 24.47.011 2.165.063 4.718-1.67 6.007-1.205.897-2.85.812-4.345.687-.669-.055-1.46-.192-1.738-.805-.091-.2-.11-.423-.128-.641-.66-8.024-.95-16.079-.869-24.13.029-2.84.72-6.843 3.573-8.034 1.963-.82 4.817-1.626 6.34.496" mask="url(#b)"/>
        </g>
        <path fill="#2C0B2A" d="M70.582 25.05a2.257 2.257 0 0 1 1.86.224c.337.208.612.502.877.797.799.891 1.562 1.866 1.889 3.019.36 1.27.154 2.634-.188 3.911a.716.716 0 0 1-.12.28c-.135.161-.375.174-.584.164a6.138 6.138 0 0 1-1.232-.19c-.07-.017-.145-.041-.186-.1-.045-.065-.035-.153-.022-.232.066-.405.155-.808.187-1.217.108-1.408-.464-2.769-1.025-4.064a1.04 1.04 0 0 0-.179.454 8.62 8.62 0 0 0-2.25-.875c-1.552-.365.19-1.916.973-2.17"/>
        <path fill="#99765E" d="M69.55 77.138c.047.045.08.117.098.232.12.825-.054 1.804-.078 2.64l-.034 1.162c-.006.172-.013.353-.101.501-.088.148-.287.244-.437.161-.186-.102-.17-.368-.153-.58.017-.212-.048-.494-.26-.507-.544.672-1.642.794-2.32.26a.849.849 0 0 1-.294-.375c-.052-.152-.03-.338.086-.45.185-.176.5-.097.722-.225.193-.112.267-.35.325-.566l.67-2.505c-.011.043 1.072.191 1.17.197.259.015.48-.062.606.055"/>
        <path fill="#D6BEAE" d="M67.883 54.474a.372.372 0 0 0 .027.156c.033.066.101.108.167.143.217.118.445.215.681.288.182.056.373.098.562.08.36-.036.67-.293.851-.607.181-.314.25-.68.292-1.04a7.657 7.657 0 0 0-.023-1.911.16.16 0 0 0-.022-.072c-.025-.037-.073-.046-.117-.053-.292-.046-.857-.25-1.142-.142-.285.107-.58.684-.717.932a4.528 4.528 0 0 0-.56 2.226"/>
        <path fill="#A59D38" d="M70.984 40.195c.076-.666.132-1.357.456-1.943.324-.585 1.004-1.036 1.648-.86.5.138.85.617.978 1.122.129.504.075 1.035.015 1.552a70.07 70.07 0 0 1-2.468 12.001c-.092.31-.19.664-.508.768-.412.135-.988.073-1.411.026-.597-.066-.628-.387-.713-.912a14.612 14.612 0 0 1-.188-1.725c-.048-1.156.112-2.31.557-3.382.869-2.097 1.379-4.397 1.634-6.647"/>
        <path fill="#99765E" d="M68.07 52.184c-.02.048-.04.1-.028.15.021.095.133.132.227.153.483.114.954.283 1.4.503.35.172.7.38 1.088.4a.46.46 0 0 0 .255-.046c.1-.058.153-.17.201-.274l.238-.517a.239.239 0 0 0 .03-.124c-.008-.066-.068-.11-.123-.146a12.977 12.977 0 0 0-1.978-1.065c-.222-.097-.639-.377-.835-.185-.111.109-.171.413-.23.558l-.245.593"/>
        <path fill="#F5D2B1" d="M21.27 44.557c.376 2.205.876 4.388 1.424 6.557.039.152.07.336-.04.447-.06.06-.146.082-.228.101l-.42.1c-.064.015-.133.03-.193.001-.069-.032-.1-.111-.127-.183-1.019-2.775-3.038-5.073-4.219-7.782-.591-1.358-.964-2.8-1.334-4.235-.04-.155 2.125-.317 2.32-.31.315.01.86-.024 1.142.127.263.143.415.541.547.806.672 1.36.876 2.892 1.128 4.371M10.737 47.217c-.255.65-.52 1.295-.73 1.96-.088.279-.174.573-.383.776-.21.202-.589.26-.776.036-.123-.147-.124-.358-.12-.55.097-3.527.2-7.067.79-10.545-.027.16 1.848.614 2.039.654.497.103 1.505-.032 1.501.615-.003.71-.453 1.624-.662 2.303a66.953 66.953 0 0 1-1.659 4.75"/>
        <g transform="translate(15.803 39.009)">
            <mask id="d" fill="#fff">
                <use xlink:href="#c"/>
            </mask>
            <path fill="#2C0B2A" d="M1.182 3.474c.126.254-.29.432-.398.694a.686.686 0 0 0-.025.318c.166 1.96.704 3.887 1.576 5.648.693 1.399 1.647 2.74 3.023 3.472.431.23.913.397 1.4.361.488-.035.978-.307 1.173-.756.1-.232.118-.49.133-.741.06-1.05.098-2.12-.16-3.14-.2-.8-.578-1.544-.877-2.314-.28-.724-.49-1.47-.734-2.206-.203-.61-.402-1.466-.83-1.964-.426-.498-1.199-.102-1.735.026l-2.546.602" mask="url(#d)"/>
        </g>
        <g transform="translate(8.406 38.671)">
            <mask id="f" fill="#fff">
                <use xlink:href="#e"/>
            </mask>
            <path fill="#2C0B2A" d="M.11 3.124c-.097-.023-.203-.046-.296-.007-.088.035-.147.117-.198.197-.458.706-.703 1.529-.89 2.35a20.095 20.095 0 0 0-.465 3.205c-.046.715-.049 1.453.216 2.118.277.695.823 1.244 1.386 1.736.271.238.586.48.947.467.312-.012.583-.215.803-.438C2.643 11.71 2.96 10.176 3.3 8.747c.184-.767.388-1.53.612-2.286.147-.498.756-1.604.517-2.098-.243-.503-1.385-.546-1.853-.657L.11 3.124" mask="url(#f)"/>
        </g>
        <g>
            <path fill="#2C0B2A" d="M26.116 51.184c.05.002.103.006.137.04.066.064.016.174-.042.244-.312.373-.804.536-1.276.648-.646.153-1.306.245-1.97.275a.903.903 0 0 0-.084.53c.015.105.047.218-.005.31a.278.278 0 0 1-.102.097.581.581 0 0 1-.78-.203c-.073-.128-.092-.278-.108-.424a47.07 47.07 0 0 1-.13-1.264c-.056-.621 3.892-.274 4.36-.253M12.66 50.656c.177.057.395.176.36.359-.03.159-.227.21-.387.228a13.01 13.01 0 0 1-3.17-.052c-.05-.007-.107-.013-.15.014-.045.028-.065.083-.075.135-.044.211-.026.471-.201.595-.17.119-.42.012-.528-.165-.106-.178-.108-.398-.104-.605.016-.823-.043-1.732 1.029-1.523 1.085.21 2.172.68 3.226 1.014"/>
            <path fill="#702F2F" d="M24.055 27.217c.372.705.77 1.43.822 2.227.052.797-.354 1.688-1.119 1.908-1.285-1.45-2.299-3.115-3.305-4.771l.602 9.43c.07 1.086.139 2.179.012 3.26-.02.176-.054.367-.183.489-.146.14-.369.148-.57.149-2.201.008-4.402.015-6.602.024-.962.003-1.927.006-2.88-.123a10.479 10.479 0 0 1-2.756-.765c-.283-.122-.577-.272-.732-.538-.15-.258-.142-.576-.13-.875.245-5.754.494-11.547 1.773-17.163 3.421.604 6.936.673 10.379.206.462-.063 1.271-.358 1.696-.047.472.346.677 1.575.893 2.099a51.61 51.61 0 0 0 2.1 4.49"/>
            <path fill="#F5D2B1" d="M25.93 31.039c.28.272.562.547.771.877.347.547.471 1.208.51 1.855.003.04.004.082-.018.115-.023.034-.065.048-.104.058-.543.145-1.132-.064-1.573-.413-.442-.349-.765-.824-1.08-1.29l-.542-.803c-.334-.496.359-.951.799-1.107.541-.192.88.36 1.237.708"/>
            <path fill="#A1B1C9" d="M32.592 5.869a14.717 14.717 0 0 0-.049 9.03c-3.707.504-7.096 2.954-8.747 6.323a94.66 94.66 0 0 0-12.25.155c-.272.021-.549.043-.814-.02-.254-.06-.482-.196-.71-.326a26.94 26.94 0 0 0-8.866-3.186c-.05-2.027-.127-4.053-.232-6.078C.867 10.686.79 9.56.252 8.622A16.135 16.135 0 0 0 8.63 1.69c.094-.16.195-.33.36-.41.15-.073.326-.06.493-.045 3.533.304 7.108.129 10.597-.514.664-.123 1.78-.62 2.436-.477.545.12 1.13.879 1.55 1.23 1.181.99 2.407 1.938 3.74 2.714 1.473.858 3.084 1.499 4.786 1.68"/>
        </g>
        <g transform="translate(0 .202)">
            <mask id="h" fill="#fff">
                <use xlink:href="#g"/>
            </mask>
            <path fill="#2C0B2A" d="M-3.03 18.095c5.466-1.723 10.336-4.46 14.962-7.818 1.082-.785 2.127-1.53 3.098-2.348a72.533 72.533 0 0 0-16.342.844c-.64.106-.694-.906-.06-1.01a73.243 73.243 0 0 1 16.242-.85C13.056 4.72 11.146 2.596 9.327.433c-.42-.497.425-1.053.84-.56 1.962 2.333 4.062 4.624 6.01 7.015a13.983 13.983 0 0 0 1.806-2.166c1.354-2.018 2.895-3.833 4.701-5.46.479-.43 1.237.238.754.673-2.008 1.807-3.538 3.814-5.07 6.027-.282.407-.594.779-.919 1.138 2.797.452 5.245 1.207 7.731 2.79 2.9 1.848 5.725 3.81 8.483 5.865.522.389-.152 1.142-.67.757a138.086 138.086 0 0 0-8.27-5.719c-2.43-1.548-4.855-2.283-7.599-2.72.73.939 1.43 1.897 2.082 2.882 1.25 1.888 2.318 3.894 3.368 5.899.955 1.822 1.781 3.642 1.852 5.73.022.65-.985.711-1.007.058-.082-2.43-1.286-4.498-2.41-6.59-1.021-1.904-2.078-3.797-3.343-5.552a57.294 57.294 0 0 0-1.283-1.703c-.413 2.62-2.327 4.751-3.525 7.073-1.71 3.314-2.882 6.865-3.977 10.421-.19.617-1.18.414-.987-.21.941-3.06 1.934-6.113 3.267-9.027a36.326 36.326 0 0 1 2.292-4.247c.757-1.202 1.57-2.39 1.878-3.767-.919.72-1.887 1.389-2.84 2.08-4.698 3.41-9.647 6.184-15.195 7.933-.62.195-.946-.763-.325-.958" mask="url(#h)"/>
        </g>
    </g>
</svg>
