<svg xmlns="http://www.w3.org/2000/svg" xmlns:xlink="http://www.w3.org/1999/xlink" width="59" height="63" viewBox="0 0 59 63">
    <defs>
        <path id="a" d="M.024.253h8.29v26.54H.024z"/>
        <path id="c" d="M.252.426c.284 1.102.57 2.21 1.023 3.253.905 2.082 2.452 3.848 3.233 5.98.02.055.044.115.097.14.045.022.099.01.147 0l.323-.078c.062-.015.128-.031.174-.077.084-.085.06-.227.031-.344-.42-1.666-.803-3.343-1.092-5.037-.192-1.137-.35-2.314-.864-3.358-.1-.204-.217-.51-.42-.62C2.69.17 2.272.196 2.032.188h-.01C1.817.187.221.31.251.426"/>
        <path id="e" d="M.247 8.272c-.004.148-.003.31.091.423.144.172.435.128.595-.027.16-.156.227-.382.294-.596.16-.511.364-1.008.559-1.507a50.978 50.978 0 0 0 1.271-3.65c.16-.522.505-1.224.508-1.769.003-.497-.77-.393-1.15-.472C2.267.644.83.294.851.17.399 2.843.321 5.563.247 8.272"/>
        <path id="g" d="M15.386.398a30.366 30.366 0 0 1-8.12.395c-.128-.01-.262-.021-.377.035-.127.062-.204.193-.276.315A12.373 12.373 0 0 1 .193 6.47c.412.721.471 1.585.515 2.416.08 1.556.14 3.112.178 4.67a20.592 20.592 0 0 1 6.794 2.448c.173.1.349.204.543.25.203.048.415.032.623.016a72.382 72.382 0 0 1 9.388-.12c1.264-2.588 3.861-4.47 6.702-4.858-.713-2.24-.7-4.706.037-6.938-1.304-.14-2.539-.631-3.667-1.29-1.021-.597-1.96-1.325-2.866-2.085-.322-.27-.77-.854-1.188-.946a.942.942 0 0 0-.202-.02c-.507 0-1.218.304-1.664.386"/>
    </defs>
    <g fill="none" fill-rule="evenodd">
        <path fill="#665146" d="M43.763 61.789c.196.106.397.26.425.481.029.224-.142.434-.347.525-.205.091-.437.09-.662.087a145.453 145.453 0 0 1-3.363-.089c-.31-.012-.624-.025-.917-.127-.17-.059-.339-.157-.415-.32a.849.849 0 0 1-.06-.316c-.067-1.215-.142-2.612.14-3.8.5-.1 1.293-.065 1.5.484.182.483-.235 1.095-.006 1.571.51 1.06 2.774 1 3.705 1.504"/>
        <path fill="#847062" d="M35.405 46.735c-.012.755-.028 1.514-.167 2.256-.14.742-.4 1.456-.678 2.158-.963 2.441-2.145 4.833-2.563 7.425.458.204.989.408 1.438.186.345-.17.534-.546.699-.897l1.27-2.701c.556-1.183 1.112-2.367 1.618-3.572.313-.745.608-1.505.748-2.302.13-.74.122-1.494.128-2.245.019-2.258.377-4.523.381-6.768-.98-.366-2.506-.337-2.82.886-.206.806-.035 1.818-.034 2.646 0 .976-.006 1.952-.02 2.928"/>
        <path fill="#AA8E79" d="M37.161 45.844c-.018 1.04-.041 2.082.02 3.12.06 1.005.2 2.004.339 3l.484 3.477.448 3.213c.018.134.043.278.142.368.094.085.23.1.356.104.446.019.893-.017 1.33-.105.139-.028.285-.066.38-.172.097-.111.116-.27.13-.418.56-5.94.773-11.912.637-17.877-.003-.1-.01-.215-.088-.28-.06-.05-.145-.055-.224-.058-1.437-.061-2.673-.509-4.02-.93-.285.935.016 1.653.098 2.57.117 1.305-.009 2.678-.032 3.988"/>
        <path fill="#1F9995" d="M37.774 28.232c-1.35.617-2.807 1.334-3.441 2.684-.255.54-.353 1.141-.41 1.737a14.158 14.158 0 0 0 1.377 7.562c.104.21.22.427.414.558.217.147.493.162.754.172 1.61.06 3.22.088 4.83.085a.613.613 0 0 0 .283-.047c.197-.103.221-.371.22-.594l-.012-3.238c-.002-.655-.006-1.32-.192-1.947-.292-.986-1-1.78-1.616-2.6a16.714 16.714 0 0 1-2.015-3.502"/>
        <path fill="#067070" d="M40.397 29.085c.997 1.178 1.981 2.39 2.641 3.788.384.811.653 1.753.355 2.6-.044.127-.108.257-.223.323-.102.058-.225.058-.341.047-1.02-.098-1.848-.845-2.567-1.579-1.137-1.158-2.965-3.008-3.117-4.734-.066-.756.37-1.952 1.234-1.889.84.062 1.513.848 2.018 1.444"/>
        <path fill="#E57055" d="M34.01 23.689c.892-1.358 1.4-2.973 2.493-4.172.194-.212.41-.414.672-.53.252-.112.531-.14.806-.16.874-.063 1.82-.038 2.532.475.985.708 1.192 2.076 1.256 3.293.043.82.057 1.663-.207 2.44-.189.557-.514 1.059-.889 1.51-.628.756-1.396 1.38-2.157 2l-2.43 1.973c-.532.433-1.1.881-1.777.977-.358.05-.761-.021-.999-.296-.125-.145-.191-.331-.252-.513-.428-1.273-.821-2.68-.89-4.029-.058-1.131 1.25-2.066 1.843-2.968"/>
        <path fill="#665146" d="M33.786 59.877c.364.324.848.468 1.315.602l1.197.345c.227.065.458.133.648.274.19.14.33.372.299.607-.034.247-.252.436-.488.51-.237.075-.49.056-.738.034a37.192 37.192 0 0 1-3.255-.436c-.362-.065-.77-.167-.946-.493-.101-.189-.1-.415-.094-.63.025-.873.094-1.745.207-2.61-.012.089 1.113.483 1.251.641.297.339.233.827.604 1.156"/>
        <path fill="#846855" d="M55.013 59.484c-.05.903-.04 1.81.033 2.711.011.133.022.273-.034.394-.055.12-.203.21-.323.152-.09-.044-.13-.15-.162-.247l-.236-.726a.861.861 0 0 1-.355.597 1.5 1.5 0 0 1-.656.259c-.226.038-.479.038-.66-.103-.18-.142-.219-.468-.023-.588.044-.027.095-.042.14-.07.101-.066.143-.193.176-.31.179-.64.304-1.295.373-1.956.005-.05.013-.103.05-.134.032-.027.075-.03.116-.032l1.505-.073c.022.16.028.321.016.482"/>
        <path fill="#C1ADA3" d="M55.066 59.64c-.409.01-.817.01-1.226.001-.18-.004-.392-.028-.485-.184a.555.555 0 0 1-.057-.225c-.256-2.347-.512-4.707-.39-7.065.012-.23.048-.495.244-.613.103-.063.23-.069.35-.065.632.017 1.41.126 1.436.833.03.807.028 1.616.042 2.423l.086 4.894"/>
        <path fill="#D6BEAE" d="M53.489 59.36c-.002.032-.005.069-.028.092-.03.031-.078.03-.12.027-.421-.033-.841-.082-1.259-.144-.1-.015-.207-.034-.28-.105-.08-.077-.1-.197-.114-.308-.182-1.456-.072-2.93.038-4.394.09-1.18.178-2.361.267-3.542.486.096 1.775.123 2.007.56.256.48-.128 2.02-.165 2.582l-.346 5.231"/>
        <path fill="#E0B9A4" d="M55.622 21.827c-.235-.721-.557-1.464-1.175-1.9-.215-.151-.48-.262-.735-.202-.262.062-.45.286-.607.507-.417.592-.743 1.302-.659 2.023.096.818.695 1.485 1.341 1.99.158.125.33.256.386.45.045.159.005.343.094.482.065.103.186.155.3.196.729.266 1.584.441 1.598-.591.014-.995-.236-2.015-.543-2.955"/>
        <path fill="#A59D38" d="M53.82 24.97l-.145 1.264a.17.17 0 0 0 .005.087c.024.057.098.07.16.073.752.037 1.495-.11 2.236-.218.58-.085.74-.246.875-.839-.56.089-1.045-.03-1.583-.192-.141-.043-1.507-.432-1.548-.175"/>
        <g transform="translate(50.24 25.563)">
            <mask id="b" fill="#fff">
                <use xlink:href="#a"/>
            </mask>
            <path fill="#BCAB64" d="M7.63 1.293c.309.43.412.973.486 1.498.87 6.241-1.409 12.499-1.377 18.801.009 1.663.049 3.624-1.28 4.615-.923.689-2.183.624-3.33.528-.511-.043-1.117-.148-1.33-.619-.07-.153-.085-.325-.099-.493A202.156 202.156 0 0 1 .034 7.085C.056 4.903.586 1.827 2.772.912c1.504-.63 3.691-1.25 4.859.381" mask="url(#b)"/>
        </g>
        <path fill="#2C0B2A" d="M54.082 19.246a1.726 1.726 0 0 1 1.425.172c.258.16.47.385.672.612.612.685 1.197 1.433 1.448 2.32.276.976.118 2.024-.144 3.005a.55.55 0 0 1-.092.214c-.103.124-.287.134-.448.126A4.691 4.691 0 0 1 56 25.55c-.053-.014-.11-.032-.142-.077-.035-.05-.027-.118-.017-.178.05-.312.119-.621.143-.936.083-1.081-.355-2.127-.785-3.122a.8.8 0 0 0-.137.349 6.594 6.594 0 0 0-1.724-.673c-1.19-.28.146-1.471.745-1.667"/>
        <path fill="#99765E" d="M53.291 59.265c.037.034.062.09.076.177.092.634-.041 1.387-.06 2.029l-.027.893c-.003.132-.01.271-.077.385-.067.113-.22.187-.335.123-.142-.078-.13-.282-.117-.445.014-.163-.036-.38-.198-.39-.418.516-1.259.61-1.779.2a.652.652 0 0 1-.225-.288c-.04-.117-.023-.26.066-.345.142-.136.384-.076.553-.174.148-.086.205-.269.25-.435l.513-1.924c-.009.033.821.147.897.151.197.012.367-.047.463.043"/>
        <path fill="#D6BEAE" d="M52.014 41.852c.001.04.003.083.021.12.026.05.078.082.128.11.166.09.341.165.522.22a1.1 1.1 0 0 0 .43.062c.276-.027.514-.225.653-.466.138-.241.192-.522.223-.799.055-.487.05-.982-.018-1.468a.124.124 0 0 0-.016-.056c-.02-.028-.057-.035-.09-.04-.224-.035-.656-.192-.875-.11-.218.083-.444.526-.55.716a3.486 3.486 0 0 0-.428 1.71"/>
        <path fill="#A59D38" d="M54.39 30.882c.058-.512.102-1.043.35-1.493.248-.45.769-.796 1.262-.66.384.105.651.473.75.86.098.388.058.796.012 1.193a53.961 53.961 0 0 1-1.892 9.22c-.07.239-.145.51-.39.59-.315.104-.756.057-1.08.02-.458-.05-.481-.297-.547-.7-.07-.439-.125-.88-.144-1.325-.036-.888.086-1.774.427-2.599.666-1.61 1.057-3.377 1.252-5.106"/>
        <path fill="#99765E" d="M52.158 40.092c-.016.037-.03.077-.022.116.016.073.102.101.174.118.37.087.731.217 1.073.386.268.132.536.292.833.307a.351.351 0 0 0 .196-.035c.076-.045.117-.13.154-.21l.182-.398a.184.184 0 0 0 .024-.095c-.007-.05-.053-.085-.095-.112a9.935 9.935 0 0 0-1.515-.819c-.171-.074-.49-.29-.64-.141-.086.083-.132.317-.177.428l-.187.455"/>
        <path fill="#F5D2B1" d="M16.298 34.233c.288 1.694.67 3.371 1.091 5.037.03.117.053.259-.031.344-.046.046-.112.063-.174.078l-.323.076c-.048.012-.102.023-.147.001-.053-.024-.077-.085-.097-.14-.78-2.132-2.328-3.898-3.233-5.98-.453-1.043-.739-2.151-1.022-3.253-.03-.12 1.628-.243 1.778-.239.24.008.659-.017.874.099.202.11.318.415.42.619.514 1.044.67 2.221.864 3.358M8.227 36.276c-.195.5-.398.996-.56 1.507-.066.214-.132.44-.293.595-.16.155-.451.2-.595.028-.094-.113-.095-.275-.09-.423.073-2.709.151-5.429.604-8.1-.021.121 1.416.47 1.562.501.381.08 1.154-.024 1.15.473-.002.545-.347 1.247-.506 1.769a51.538 51.538 0 0 1-1.272 3.65"/>
        <g transform="translate(12.11 29.97)">
            <mask id="d" fill="#fff">
                <use xlink:href="#c"/>
            </mask>
            <path fill="#2C0B2A" d="M.905 2.67c.097.194-.222.33-.305.532a.528.528 0 0 0-.018.245 12.12 12.12 0 0 0 1.207 4.339c.53 1.075 1.262 2.105 2.316 2.667.33.177.7.305 1.074.278.373-.028.749-.236.898-.581.077-.178.09-.376.102-.57.046-.806.075-1.628-.122-2.411-.155-.616-.444-1.187-.672-1.779-.215-.556-.376-1.13-.563-1.695-.156-.469-.308-1.126-.635-1.509-.327-.382-.92-.077-1.33.02L.904 2.67" mask="url(#d)"/>
        </g>
        <g transform="translate(6.441 29.71)">
            <mask id="f" fill="#fff">
                <use xlink:href="#e"/>
            </mask>
            <path fill="#2C0B2A" d="M.085 2.4c-.075-.017-.156-.035-.227-.006-.068.027-.113.09-.153.152-.35.543-.538 1.175-.682 1.805-.184.81-.303 1.634-.356 2.463-.034.55-.037 1.117.166 1.627.213.534.63.956 1.062 1.334.208.183.45.369.725.359.24-.01.447-.166.616-.336.79-.802 1.032-1.98 1.294-3.078.14-.59.297-1.175.468-1.756.113-.382.58-1.233.397-1.612-.187-.387-1.062-.42-1.42-.505L.084 2.4" mask="url(#f)"/>
        </g>
        <g>
            <path fill="#2C0B2A" d="M20.011 39.324c.038.002.079.005.105.03.05.05.012.135-.032.189-.24.286-.616.41-.978.497-.495.118-1 .189-1.509.212a.696.696 0 0 0-.065.407c.011.08.036.168-.004.238a.214.214 0 0 1-.078.075.445.445 0 0 1-.598-.156.857.857 0 0 1-.082-.326c-.038-.323-.071-.647-.1-.971-.042-.478 2.982-.21 3.341-.195M9.7 38.919c.136.043.303.135.276.275-.023.122-.174.162-.296.175a9.942 9.942 0 0 1-2.43-.039c-.038-.005-.08-.01-.114.01-.035.022-.05.064-.058.104-.034.162-.02.362-.154.457-.13.092-.322.01-.404-.127-.082-.136-.083-.305-.08-.464.013-.632-.033-1.33.788-1.17.832.161 1.665.521 2.472.779"/>
            <path fill="#702F2F" d="M18.432 20.91c.285.542.59 1.1.63 1.712.04.612-.272 1.296-.858 1.466-.984-1.114-1.761-2.394-2.532-3.666l.461 7.245c.053.834.106 1.674.009 2.504-.016.136-.041.282-.14.376-.111.107-.283.114-.437.115l-5.059.018c-.736.002-1.476.005-2.206-.094a8.012 8.012 0 0 1-2.112-.588c-.216-.094-.442-.209-.56-.414-.116-.198-.11-.442-.1-.671.187-4.421.378-8.872 1.358-13.187a25.77 25.77 0 0 0 7.953.158c.354-.048.974-.275 1.3-.035.36.265.519 1.21.683 1.612a39.701 39.701 0 0 0 1.61 3.45"/>
            <path fill="#F5D2B1" d="M19.869 23.847c.214.21.43.42.59.674.266.42.361.928.391 1.425.002.03.003.063-.014.089-.017.025-.05.036-.08.044-.416.111-.867-.05-1.205-.317-.338-.268-.586-.633-.827-.992l-.415-.616c-.257-.382.274-.731.611-.85.415-.148.674.275.949.543"/>
            <path fill="#A1B1C9" d="M24.973 4.509a11.336 11.336 0 0 0-.037 6.937c-2.84.388-5.438 2.27-6.703 4.859a72.337 72.337 0 0 0-9.387.119c-.207.016-.42.033-.623-.016-.194-.046-.37-.15-.543-.25A20.606 20.606 0 0 0 .886 13.71a168.042 168.042 0 0 0-.178-4.67C.665 8.21.606 7.345.193 6.625a12.37 12.37 0 0 0 6.42-5.327c.072-.122.149-.253.276-.315.115-.056.25-.046.377-.034 2.708.233 5.447.099 8.12-.395.509-.094 1.363-.476 1.866-.366.418.091.866.675 1.188.945.905.76 1.845 1.489 2.866 2.085 1.129.659 2.363 1.151 3.667 1.29"/>
        </g>
        <g transform="translate(0 .155)">
            <mask id="h" fill="#fff">
                <use xlink:href="#g"/>
            </mask>
            <path fill="#2C0B2A" d="M-2.321 13.902c4.187-1.323 7.92-3.427 11.464-6.006.829-.603 1.63-1.176 2.374-1.804a55.43 55.43 0 0 0-12.523.648c-.49.081-.531-.696-.045-.776a55.973 55.973 0 0 1 12.445-.653C10.004 3.627 8.54 1.995 7.146.333c-.32-.382.326-.81.644-.431 1.504 1.793 3.113 3.553 4.605 5.39.501-.497.967-1.04 1.384-1.664a22.283 22.283 0 0 1 3.603-4.195c.366-.33.947.183.577.517-1.538 1.389-2.711 2.93-3.885 4.63a8.567 8.567 0 0 1-.704.875c2.143.347 4.02.927 5.924 2.144a108.108 108.108 0 0 1 6.5 4.505c.4.3-.116.878-.513.582-2.061-1.539-4.17-3.01-6.337-4.394-1.863-1.19-3.72-1.754-5.823-2.09a35.85 35.85 0 0 1 1.595 2.214c.958 1.451 1.776 2.993 2.581 4.533.732 1.4 1.365 2.798 1.42 4.401.016.5-.756.547-.773.046-.062-1.868-.985-3.456-1.846-5.064-.783-1.463-1.593-2.916-2.562-4.265a44.009 44.009 0 0 0-.983-1.308c-.317 2.013-1.783 3.65-2.7 5.434-1.311 2.546-2.21 5.274-3.048 8.006-.146.474-.904.318-.756-.162.721-2.35 1.482-4.696 2.503-6.934a27.933 27.933 0 0 1 1.756-3.263c.58-.924 1.203-1.836 1.44-2.895-.705.554-1.447 1.067-2.177 1.598-3.6 2.62-7.392 4.752-11.643 6.096-.475.15-.724-.587-.25-.737" mask="url(#h)"/>
        </g>
    </g>
</svg>
