<svg xmlns="http://www.w3.org/2000/svg" xmlns:xlink="http://www.w3.org/1999/xlink" width="60" height="82" viewBox="0 0 60 82">
    <defs>
        <path id="a" d="M.181.16h7.26v5.206H.18z"/>
        <path id="c" d="M0 .232h9.943v10.493H0z"/>
        <path id="e" d="M.082.095h1.907V2.59H.082z"/>
    </defs>
    <g fill="none" fill-rule="evenodd">
        <path fill="#2F3531" d="M18.42 35.396c2.059 2.492 2.255 5.71.44 7.19-1.817 1.478-4.959.658-7.017-1.834-2.06-2.49-2.256-5.71-.44-7.188 1.816-1.48 4.957-.659 7.017 1.832"/>
        <path fill="#50514C" d="M3.134 40.866c.203.575.252 1.19.35 1.792.303 1.853 1.177 3.705 2.756 4.737 1.172-.745 2.513-1.189 3.722-1.873 1.64-.929 3.013-2.285 4.7-3.126.872-.435 1.812-.724 2.67-1.185-.48-.295-.795-.784-1.137-1.229-.773-1.003-1.746-1.833-2.711-2.655-.064-.053-.13-.109-.21-.129a.54.54 0 0 0-.264.022c-3.346.855-6.459 2.548-9.869 3.1.026.235-.086.323-.007.546"/>
        <path fill="#EAD4C7" d="M6.604 40.128c-.018.096-.043.2-.122.257-.079.056-.185.045-.28.031l-2.673-.374c.338-.586.679-1.178.884-1.821.263-.821.296-1.694.355-2.554.085-1.212-.043-3.585.65-4.617.6-.894 1.955-.258 2.326.58.433.984.023 2.316-.163 3.307l-.977 5.19M19.745 17.087c.36.64.834 1.217 1.145 1.882.31.666.438 1.477.08 2.118a.975.975 0 0 1-.36.385c-.437.244-.983-.039-1.353-.375-.548-.5-.963-1.126-1.35-1.756-.33-.537-.65-1.099-.746-1.72-.12-.773.118-1.551.353-2.298.161-.512 1.065-3.216 1.52-2.039.192.493-.052 1.46.064 2.038.123.617.34 1.215.647 1.765M10.68 33.528a52.902 52.902 0 0 0-.36 3.837c-.055 1.092 1.045.946 1.827.677a.802.802 0 0 0 .33-.187c.203-.215.133-.489.17-.746.057-.386.204-.774.289-1.156a24.157 24.157 0 0 0 .557-4.19c.03-.66-.099-.667-.719-.801-.577-.124-1.383-.304-1.725.334-.108.2-.138.43-.168.655-.068.525-.137 1.051-.202 1.577"/>
        <path fill="#A098A3" d="M14.765 23.355a72.867 72.867 0 0 0-1.083 8.4 18.388 18.388 0 0 1-2.71-.118 65.532 65.532 0 0 0-1.075-5.95l-1.142 6.648a24.888 24.888 0 0 1-3.999-.623c-.308-.073-.17-5.134-.17-5.665 0-1.06-.553-4.527 1.18-3.868 1.52.578 2.67 1.428 4.361 1.652 1.555.206 3.161.058 4.638-.476"/>
        <path fill="#71BCBA" d="M13.671 6.186a6.372 6.372 0 0 0-4.317 2.398c-1.03 1.33-1.476 3.003-1.898 4.628l-2.53 9.756c1.286-.028 2.498.537 3.73.908 2.337.705 4.88.716 7.223.033a.645.645 0 0 0 .282-.137c.12-.12.129-.307.13-.476a23.864 23.864 0 0 1 1.86-8.883c.089-.212.2-.442.412-.533.27-.115.621.032.856-.143.115-.086.17-.23.202-.37.132-.574-.01-1.172-.157-1.743-.295-1.15-.614-2.32-1.27-3.31-.657-.993-1.715-1.796-2.91-1.85-.605-.029-1.01-.341-1.613-.278"/>
        <path fill="#EAD4C7" d="M7.052 16.962c-.337 1.83.19 3.76 1.235 5.306 1.044 1.545 2.574 2.727 4.248 3.566.266.134.579.261.854.147.283-.119.413-.466.37-.768-.042-.302-.218-.568-.4-.814-.666-.903-1.47-1.699-2.126-2.608-.656-.91-1.17-1.98-1.134-3.098.046-1.448.997-2.752 1.047-4.2-.712-.234-2.548-1.124-3.225-.583-.565.452-.742 2.361-.869 3.052"/>
        <g transform="translate(12.754 .127)">
            <mask id="b" fill="#fff">
                <use xlink:href="#a"/>
            </mask>
            <path fill="#823226" d="M4.02.172C2.857.086 1.69.464.722 1.107c-.137.09-.273.19-.362.326-.11.167-.14.373-.156.572a6.495 6.495 0 0 0 .443 2.97c.069.17.173.36.356.387.112.017.222-.036.324-.087.493-.25.991-.512 1.536-.614 1.264-.24 3.778.569 4.441-1.05.75-1.835-1.8-3.328-3.286-3.439" mask="url(#b)"/>
        </g>
        <path fill="#F4D5C6" d="M14.406 2.522c-.14-.004-.289-.006-.408.067-.312.19-.172.654-.123 1.014.077.568-.178 1.122-.28 1.685-.215 1.184.256 2.4.954 3.382.112.156.237.314.413.393.13.058.279.066.422.057 1.097-.067 1.984-1.236 1.746-2.301 1.35-.307 2.476-1.428 2.782-2.769.02-.088.034-.19-.023-.261-.057-.07-.16-.078-.249-.08-.882-.01-2.89.593-3.517-.148-.186-.22-.04-.627-.254-.838-.33-.324-1.032-.189-1.463-.2"/>
        <path fill="#2A4A3B" d="M17.305 21.154a34.018 34.018 0 0 0-4.211 2.333c-.28.181-.826.419-.854.772-.014.186.148.483.193.67.062.253.112.51.148.768.701-.109 1.34-.45 1.976-.764 1.527-.753 3.118-1.372 4.697-2.013.627-.255 1.258-.517 1.816-.9.552-.378.014-1.452-.188-1.954-.028-.071-.061-.146-.126-.188-.099-.064-.23-.028-.34.011-1.057.37-2.096.792-3.111 1.265"/>
        <path fill="#A098A3" d="M11.482 37.86c.297.038.621-.016.848-.211.574.914 1.79 1.311 2.28 2.273.118.231.18.528.028.739-.161.223-.481.247-.757.233a6.572 6.572 0 0 1-3.295-1.086c-.347-.231-.687-.516-.826-.908-.14-.39-.002-.904.386-1.059.171-.068.454-.191.633-.187.22.006.472.177.703.206"/>
        <path fill="#5699BA" d="M13.602 34.54a62.63 62.63 0 0 1-.232.829c-.51 1.777-1.105 3.537-1.42 5.357a7.026 7.026 0 0 0 2.465-.003c.074-2.015.452-4.004.802-5.99a227.816 227.816 0 0 0 1.718-11.401c-.75.28-1.36.311-1.538 1.149-.133.625-.175 1.353-.175 1.991a60.758 60.758 0 0 1-1.62 8.069"/>
        <g transform="translate(0 39.257)">
            <mask id="d" fill="#fff">
                <use xlink:href="#c"/>
            </mask>
            <path fill="#2F3531" d="M8.26 2.8c2.06 2.492 2.256 5.71.44 7.19-1.817 1.478-4.958.658-7.017-1.833-2.06-2.492-2.256-5.71-.44-7.19C3.06-.511 6.201.31 8.26 2.802" mask="url(#d)"/>
        </g>
        <path fill="#007CAD" d="M7.02 43.068c1.282 1.552 1.405 3.556.273 4.477-1.13.922-3.087.41-4.37-1.141-1.282-1.552-1.405-3.557-.274-4.478 1.131-.92 3.088-.41 4.37 1.142"/>
        <path fill="#2F3531" d="M5.256 44.032c.54.655.593 1.5.115 1.89-.477.388-1.302.172-1.844-.482-.54-.655-.592-1.5-.115-1.89.477-.388 1.303-.172 1.844.482"/>
        <g>
            <path fill="#D0CBCA" d="M29.038 40.995c4.666-.25 9.353-.12 13.997.392-1.254 2.818-1.232 6.01-1.855 9.028-.011.057-.025.117-.067.157a.292.292 0 0 1-.142.061l-1.65.391c-1.208.287-2.424.575-3.663.678-1.239.104-2.513.017-3.673-.427-.307-.116-.615-.266-.816-.523-.205-.26-.276-.596-.333-.921-.21-1.21-.307-2.498-.91-3.597-.191-.35-.51-.653-.62-1.04-.161-.572-.052-1.267-.077-1.856a29.065 29.065 0 0 0-.191-2.343"/>
            <path fill="#FFCCA6" d="M33.89 68.798c.059 2.56.118 5.13-.14 7.678l1.128.014c.128.001.27-.002.363-.087.082-.076.105-.193.124-.302.594-3.47 1.127-6.95 1.598-10.438.073-.54.145-1.086.099-1.63.006.069-.872.39-.97.407a.909.909 0 0 1-.727-.177c-.162-.134-.283-.31-.427-.463a1.982 1.982 0 0 0-1.184-.596c-.064 1.061-.11 2.133-.079 3.196.023.798.196 1.58.215 2.398M29.363 64.276v.306c0 3.196.37 6.363.145 9.551-.047.665-.153 1.324-.218 1.987a15.599 15.599 0 0 0-.006 2.932c.01.118.025.243.097.338.103.136.29.17.459.195.412.061.93.075 1.137-.284.087-.152.092-.334.094-.509l.02-1.403c.012-.852.024-1.707.152-2.55.094-.615.25-1.22.311-1.838.07-.693.02-1.392.064-2.087.05-.8.225-1.588.367-2.378a29.47 29.47 0 0 0 .455-4.549c-.984.236-2.069.211-3.077.289"/>
            <path fill="#65677E" d="M28.768 64.748l3.597.1A7.613 7.613 0 0 1 33 62.425c.156.662.224 1.345.202 2.025l3.543-.05c.182-.003.374-.009.527-.107.186-.119.268-.345.322-.558.184-.726.191-1.483.198-2.23.015-1.585.024-3.207-.504-4.702-.123-.347-5.407.842-5.976.894-.538.049-1.992-.264-2.235.33-.152.373-.004 1.08-.006 1.486a50.376 50.376 0 0 1-.303 5.236"/>
            <path fill="#FFCCA6" d="M38.81 45.255l1.164-.006c.062 0 .129.002.177.04.065.052.068.147.067.23a7.9 7.9 0 0 0 .562 3.025c.404 1.012 1.031 2.003.968 3.09a.995.995 0 0 1-.123.47c-.17.277-.521.378-.843.432a7 7 0 0 1-1.612.085c-.13-.009-.268-.024-.365-.109-.121-.107-.138-.287-.145-.45a90.908 90.908 0 0 1-.067-6.366.542.542 0 0 1 .027-.19c.106-.262.49-.211.755-.114M28.03 45.449c-.08-.003-.167-.003-.23.046-.061.048-.082.13-.1.205-.269 1.23-.352 2.492-.364 3.75-.008.799.015 1.618.314 2.36.104.257.264.522.53.605.23.072.49-.019.666-.184.176-.164.278-.392.345-.623.12-.412.135-.846.146-1.275.028-1.05.034-2.099.019-3.148-.006-.362.143-1.25-.04-1.552-.18-.294-.943-.172-1.286-.184M31.575 41.919c.074.196.17.384.242.581.09.254.138.523.14.792.717-.039 1.439-.016 2.152.07.05.005.1.01.146-.005a.296.296 0 0 0 .114-.085c.217-.233.35-.535.418-.846a3.94 3.94 0 0 0 .065-.949 1.158 1.158 0 0 0-.05-.355c-.066-.183-.215-.324-.376-.435-.24-.163-.511-.271-.782-.374a27.598 27.598 0 0 0-1.824-.616c-.164-.05-.324-.102-.409.085-.082.18-.05.438-.051.632-.003.242.004.485.033.726.03.265.087.528.182.779"/>
            <path fill="#F6F6F6" d="M31.455 44.557c-.32.3-.753.446-1.184.533a5.507 5.507 0 0 1-1.61.081c.294 1.909.458 3.837.491 5.767.005.295.005.6-.113.87-.059.135-.146.258-.187.4-.052.179-.026.37 0 .555.212 1.578.271 3.176.175 4.765-.009.15-.018.305.04.443.038.092.103.17.168.246l1.236 1.461c.267.315.54.635.889.856.802.51 1.846.406 2.769.171.396-.1.79-.223 1.152-.411 1.056-.548 1.744-1.588 2.385-2.584.144-.224.292-.456.336-.718.046-.27-.02-.542-.068-.81-.109-.62-.114-1.252-.11-1.88.007-1.39.056-2.78.146-4.166.036-.577.081-1.156.19-1.724.229-1.187.739-2.355.6-3.555-.696-.084-1.288-.551-1.741-1.082-.179-.21-.36-.445-.625-.525-.239-.074-.495-.005-.74.048-1.345.294-2.488 0-3.763-.382-.08.233.051.561-.001.833a1.498 1.498 0 0 1-.435.808"/>
            <path fill="#502C29" d="M32.124 36.926c-.541.35-.943.907-1.105 1.528-.083.322-.102.669.009.982.155.44.537.754.904 1.044.51.404 1.062.822 1.711.88.406.034.807-.076 1.199-.184.281-.08.57-.16.807-.33.232-.167.4-.408.535-.658.319-.591.477-1.32.198-1.932-.162-.356-.455-.636-.76-.884-.986-.801-2.364-1.182-3.498-.446"/>
            <path fill="#9B861C" d="M35.531 38.027c-.376-.127-.806.034-1.085.316-.28.281-.431.662-.539 1.042-.02.076-.034.174.032.218.034.024.079.023.12.02.762-.047 1.478-.445 2.24-.428.265.005.564.052.769-.115.215-.177.21-.527.053-.757-.157-.23-.422-.361-.684-.456a1.946 1.946 0 0 0-.665-.136c-.33.001-.647.131-.924.308"/>
            <path fill="#592725" d="M35.928 38.169c.338-.046.714-.038.979.176.202.164.302.42.381.666.183.565.302 1.163.231 1.753-.116.956-.713 1.778-1.064 2.676-.335.858-.45 1.802-.901 2.606-.102.18-.242.368-.447.405a.507.507 0 0 1-.345-.075c-.376-.226-.44-.732-.458-1.169a20.708 20.708 0 0 1 .025-2.513c.034-.419.088-.838.087-1.26-.001-.546-.094-1.087-.17-1.628a1.578 1.578 0 0 1-.016-.486c.138-.81.99-1.054 1.698-1.151"/>
            <path fill="#757787" d="M37.804 50.039c0 .09.004.188.06.26.07.091.198.11.313.118.247.014.495.002.74-.036.097-.015.2-.038.266-.11a.442.442 0 0 0 .091-.204c.128-.525.146-1.069.163-1.608l.102-3.274c.003-.088.003-.182-.049-.253a.368.368 0 0 0-.16-.108c-.332-.145-.927-.38-1.089.01-.085.206.015.66.004.892-.013.285-.04.569-.07.852-.129 1.153-.37 2.297-.371 3.46"/>
            <path fill="#324763" d="M39.214 48.95c.595.437.694 1.267.743 2l.095 1.433c.054.808.107 1.63-.081 2.419-.188.788-.655 1.552-1.391 1.9-.1.047-.21.087-.317.065-.242-.052-.308-.358-.323-.604l-.278-4.498c-.046-.742-.1-1.484-.137-2.226-.026-.519.035-.47.546-.47.381 0 .762-.006 1.143-.018"/>
            <path fill="#73707E" d="M33.69 77.627c-.003.021-.005.045.01.062.013.017.038.02.06.02.418.031.875.052 1.219-.186a.347.347 0 0 0 .11-.11.41.41 0 0 0 .04-.128c.068-.367.099-.74.092-1.113-.228.09-.468.152-.712.182-.145.017-.527-.05-.632.032-.207.16-.16.99-.187 1.24"/>
            <g transform="translate(28.986 78.963)">
                <mask id="f" fill="#fff">
                    <use xlink:href="#e"/>
                </mask>
                <path fill="#73707E" d="M.243 2.274a.48.48 0 0 0 .103.193c.083.082.21.1.328.109.281.021.565.017.846-.011.09-.01.184-.023.25-.082a.404.404 0 0 0 .108-.195c.086-.285.098-.587.108-.885.007-.192.012-.392-.069-.566-.122-.266-.414-.41-.695-.498C1.01.273.718.12.502.097.232.07.21.373.16.592.034 1.147.06 1.735.243 2.274" mask="url(#f)"/>
            </g>
            <path fill="#1C1925" d="M34.929 77.502c.164.065.296.191.418.318.542.557 1.04 1.256.99 2.029-.005.086-.02.177-.08.24a.376.376 0 0 1-.188.091c-.637.158-1.336-.113-1.778-.595-.404-.44-.7-1.143-.673-1.747.027-.554.935-.482 1.31-.336"/>
            <path fill="#DDD4D9" d="M49.973 49.783c-.394.303-.649.814-.554 1.3a.55.55 0 0 0 .072.195c.05.078.128.135.212.176.21.1.45.105.684.108.798.01 1.597.02 2.39-.065.136-.015.278-.034.39-.114.191-.137.228-.402.248-.636.01-.129.018-.27-.056-.374-.057-.08-.151-.125-.241-.165-1.046-.474-2.066-1.253-3.145-.425"/>
            <path fill="#EDE2E8" d="M51.012 50.911c-.433.227-.808.717-.64 1.174.145.393.605.559 1.013.662.433.11.87.206 1.31.286.83.152 1.715.246 2.495-.074.26-.107.523-.289.574-.563a.677.677 0 0 0-.072-.411c-.215-.442-.707-.667-1.163-.858l-1.1-.462c-.891-.372-1.569-.198-2.417.246"/>
            <path fill="#100E13" d="M49.658 39.587c.11 1.575.254 3.152.578 4.697.303 1.449.765 2.886.747 4.365-.005.386-.039.79.129 1.138.206.43.73.684 1.198.582-.357.698.185 1.59.92 1.875.734.285 1.563.126 2.321-.092.06-.018.124-.037.164-.085.05-.06.05-.147.047-.226-.112-2.467-.25-4.947.066-7.396.084-.65.2-1.298.2-1.953 0-.625-.104-1.245-.168-1.867-.273-2.692.234-5.418-.031-8.112-.032-.326-3.087.063-3.383.125-.776.163-1.951.386-2.545.972-.568.56-.43 1.502-.418 2.222.021 1.253.088 2.505.175 3.755"/>
            <path fill="#C6B1A1" d="M46.217 24.08c-.098-.008-.203-.01-.286.041-.08.051-.123.145-.149.237-.102.363-.01.76.18 1.088.189.327.469.593.76.835.113.094.23.186.367.241.193.08.411.08.62.053.306-.038.607-.13.883-.27.154-.077.304-.174.396-.318.369-.58.007-1.34-.574-1.603-.6-.27-1.548-.257-2.197-.305"/>
            <path fill="#879069" d="M51.701 19.024c.36-.07.736-.112 1.089-.013.248.07.472.205.684.351a7.075 7.075 0 0 1 2.93 4.542c.14.787.142 1.591.144 2.39l.015 5.733c0 .146-.001.301-.074.428-.129.225-.423.284-.682.303-.73.054-1.464-.029-2.193.029-1.427.114-2.755.758-4.162 1.02a.445.445 0 0 1-.246-.003c-.087-.035-.143-.118-.19-.198a6.508 6.508 0 0 1-.89-2.616c-.06-.531-.049-1.094.205-1.566.152-.283.383-.516.59-.764a5.714 5.714 0 0 0 1.203-4.74c-.049-.239-.117-.482-.275-.669-.121-.144-.287-.243-.428-.369-.716-.636-.962-1.695-.347-2.434.648-.778 1.646-1.233 2.627-1.424"/>
            <path fill="#D5DAE4" d="M51.884 22.246c0-.17-.002-.349-.085-.497a.942.942 0 0 0-.267-.27c-.431-.328-.915-.616-1.453-.698-.537-.082-1.138.077-1.469.506-.303.393-.332.922-.383 1.415a10.637 10.637 0 0 1-.603 2.592c1.194.295 2.399.552 3.61.769.116.02.243.04.347-.016.424-.229.298-1.177.299-1.543l.004-2.258"/>
            <path fill="#FBE0C7" d="M51.13 17.685c-.08.448-.364.83-.64 1.193-.463.613-1.056 1.29-1.826 1.247-.394-.02-.749-.234-1.084-.44-.577-.357-1.173-.73-1.551-1.291-.098-.146-.183-.323-.137-.492.036-.13.141-.228.243-.316.925-.803 2.012-1.563 3.158-2.018 1.1-.437 2.013 1.148 1.837 2.117"/>
            <path fill="#51604D" d="M50.412 18.673c.186-.225.394-.445.661-.564.245-.11.52-.128.79-.13.426-.004.858.027 1.266.152.286.087.602.285.594.583-.006.246-.231.423-.435.564l-1.12.768c-.44.303-.885.608-1.377.815-.466.196-1.653.577-1.496-.248.128-.674.69-1.422 1.117-1.94"/>
            <path fill="#E2CCBA" d="M47.888 25.875c-.27.184-.683.204-.892-.046-.076-.092-.116-.206-.16-.316a4.216 4.216 0 0 0-.428-.809.547.547 0 0 0-.134-.15c-.152-.103-.368-.04-.507.08-.249.213-.331.57-.292.895.04.324.184.625.327.92l.998 2.067c.245.507.612 1.092 1.177 1.075.43-.013.752-.379 1.017-.715.717-.909 1.454-1.857 1.713-2.984-.602-.203-1.207-.408-1.82-.584-.654-.187-.512.233-.999.567"/>
            <path fill="#282123" d="M45.44 18.695c-.112 0-.229 0-.329-.051-.193-.098-.253-.34-.283-.553-.153-1.09-.052-2.195.05-3.29.03-.341.09-.73.382-.912.14-.089.313-.11.479-.124a7.729 7.729 0 0 1 5.359 1.595c.356.28.7.608.851 1.033.152.425.058.965-.32 1.214a.542.542 0 0 1-.31.099c-.236-.009-.41-.212-.611-.333-.258-.154-.572-.175-.872-.179-.985-.013-2.08.168-2.688.937-.173.218-.312.49-.595.562-.324.083-.778.002-1.112.002"/>
            <path fill="#BF5275" d="M53.444 19.027c-.171-.027-.375.103-.355.274.011.09.078.162.142.227.82.837 1.734 1.627 2.245 2.679.392.806.517 1.71.638 2.596l.585 4.313c.074.546.148 1.095.14 1.645-.007.447-.068.89-.107 1.335-.068.789-.065 1.581-.062 2.373l.024 6.34c0 .258.006.532.141.753.136.221.452.355.667.207l.015-.254c-.127.212.015.5.231.622.216.12.478.12.726.115l1.426-.026c.015-.833-.39-1.606-.658-2.395-.368-1.083-.483-2.231-.618-3.366-.281-2.348-.66-4.684-1.038-7.018l-.775-4.786c-.172-1.061-.348-2.137-.795-3.116a4.724 4.724 0 0 0-1.086-1.532c-.312-.286-1.065-.921-1.486-.986"/>
        </g>
    </g>
</svg>
