<svg xmlns="http://www.w3.org/2000/svg" xmlns:xlink="http://www.w3.org/1999/xlink" width="72" height="99" viewBox="0 0 72 99">
    <defs>
        <path id="a" d="M.217.193h8.711v6.285H.218z"/>
        <path id="c" d="M0 .28h11.931v12.669H0z"/>
        <path id="e" d="M.098.115h2.29v3.011H.097z"/>
    </defs>
    <g fill="none" fill-rule="evenodd">
        <path fill="#2F3531" d="M22.104 42.735c2.47 3.007 2.706 6.893.527 8.679-2.18 1.786-5.95.795-8.42-2.213-2.47-3.008-2.707-6.894-.528-8.68 2.18-1.785 5.95-.794 8.42 2.214"/>
        <path fill="#50514C" d="M3.76 49.338c.245.695.303 1.437.42 2.164.365 2.236 1.413 4.473 3.308 5.719 1.407-.9 3.015-1.436 4.466-2.262 1.969-1.12 3.617-2.758 5.641-3.774 1.046-.524 2.174-.874 3.203-1.43-.575-.356-.953-.947-1.364-1.484-.927-1.21-2.095-2.213-3.254-3.205-.076-.065-.154-.132-.25-.156-.104-.027-.214 0-.318.026-4.015 1.032-7.75 3.077-11.842 3.743.03.284-.103.39-.01.66"/>
        <path fill="#EAD4C7" d="M7.925 48.447c-.022.116-.051.243-.147.311-.094.067-.222.054-.337.037l-3.206-.452c.406-.707.814-1.422 1.061-2.198.315-.992.354-2.046.426-3.083.101-1.464-.052-4.33.779-5.574.72-1.08 2.347-.313 2.791.7.52 1.187.029 2.796-.195 3.992l-1.172 6.267M23.695 20.63c.43.773 1 1.469 1.372 2.272.374.803.526 1.782.096 2.557-.104.186-.244.36-.43.465-.525.295-1.18-.048-1.624-.454-.658-.603-1.156-1.358-1.62-2.12-.396-.647-.78-1.326-.896-2.076-.144-.933.141-1.873.424-2.774.193-.618 1.278-3.882 1.825-2.462.229.596-.064 1.762.075 2.46.148.745.409 1.468.778 2.131M12.815 40.479c-.19 1.54-.353 3.083-.43 4.633-.067 1.318 1.253 1.141 2.19.816.146-.05.293-.113.398-.225.243-.26.16-.59.204-.901.067-.465.244-.934.346-1.395a29.328 29.328 0 0 0 .669-5.06c.035-.797-.12-.805-.863-.966-.693-.15-1.66-.367-2.07.403-.13.242-.166.52-.202.791-.082.634-.164 1.269-.242 1.904"/>
        <path fill="#A098A3" d="M17.718 28.197a88.483 88.483 0 0 0-1.3 10.141 21.933 21.933 0 0 1-3.253-.142c-.32-2.413-.75-4.81-1.29-7.184l-1.37 8.027a29.698 29.698 0 0 1-4.797-.752c-.37-.09-.206-6.2-.205-6.84 0-1.28-.664-5.466 1.417-4.67 1.823.697 3.203 1.724 5.232 1.994 1.866.25 3.794.071 5.566-.574"/>
        <path fill="#71BCBA" d="M16.406 7.469a7.635 7.635 0 0 0-5.182 2.895c-1.236 1.605-1.77 3.626-2.276 5.587L5.91 27.73c1.545-.034 3 .648 4.477 1.096 2.804.85 5.856.865 8.668.04.122-.036.248-.076.338-.165.145-.144.154-.371.157-.576a28.963 28.963 0 0 1 2.23-10.724c.108-.256.24-.533.495-.644.324-.139.746.04 1.028-.173.138-.103.203-.278.242-.446.159-.693-.013-1.415-.189-2.105-.353-1.388-.737-2.799-1.524-3.996-.787-1.198-2.057-2.168-3.49-2.234-.727-.034-1.212-.41-1.936-.334"/>
        <path fill="#EAD4C7" d="M8.463 20.479c-.405 2.21.227 4.54 1.481 6.406 1.254 1.865 3.09 3.292 5.098 4.305.32.161.695.315 1.025.177.34-.143.495-.562.444-.927-.05-.365-.262-.686-.48-.983-.8-1.09-1.764-2.05-2.551-3.149-.787-1.098-1.404-2.39-1.361-3.739.055-1.748 1.196-3.323 1.256-5.07-.854-.284-3.058-1.358-3.87-.705-.678.545-.89 2.85-1.042 3.685"/>
        <g transform="translate(15.304 .154)">
            <mask id="b" fill="#fff">
                <use xlink:href="#a"/>
            </mask>
            <path fill="#823226" d="M4.823.208C3.43.104 2.028.56.867 1.336c-.163.11-.326.229-.434.394-.132.201-.167.45-.187.69a7.885 7.885 0 0 0 .532 3.587c.082.205.207.435.427.467.135.02.266-.043.388-.106.592-.302 1.19-.617 1.843-.741 1.518-.289 4.535.687 5.33-1.268.9-2.214-2.161-4.018-3.943-4.15" mask="url(#b)"/>
        </g>
        <path fill="#F4D5C6" d="M17.288 3.045c-.168-.005-.347-.007-.49.08-.374.231-.207.79-.148 1.225.093.685-.213 1.354-.337 2.035-.257 1.428.308 2.896 1.146 4.082.134.188.284.38.495.474.157.07.335.08.507.07 1.316-.081 2.38-1.492 2.095-2.778 1.62-.371 2.971-1.724 3.339-3.343.024-.107.04-.23-.029-.316-.067-.084-.19-.094-.298-.095-1.059-.013-3.469.715-4.22-.18-.224-.264-.047-.757-.305-1.012-.396-.391-1.24-.227-1.755-.242"/>
        <path fill="#2A4A3B" d="M20.766 25.54a40.75 40.75 0 0 0-5.053 2.816c-.335.22-.992.506-1.025.932-.017.225.177.584.232.809.074.306.134.616.177.927.842-.13 1.608-.543 2.371-.922 1.833-.91 3.742-1.656 5.637-2.43.753-.309 1.51-.624 2.178-1.086.663-.458.018-1.754-.224-2.36-.035-.086-.074-.177-.152-.227-.118-.077-.275-.033-.408.013a40.768 40.768 0 0 0-3.733 1.527"/>
        <path fill="#A098A3" d="M13.778 45.709c.357.046.746-.02 1.018-.255.69 1.104 2.148 1.583 2.736 2.744.141.28.217.638.034.892-.194.27-.578.3-.91.283a7.854 7.854 0 0 1-3.953-1.312c-.416-.28-.824-.624-.991-1.096-.168-.472-.002-1.092.463-1.278.206-.083.545-.232.76-.226.265.006.566.212.843.248"/>
        <path fill="#5699BA" d="M16.323 41.702c-.091.334-.184.667-.279 1-.613 2.145-1.326 4.27-1.705 6.468a8.38 8.38 0 0 0 2.959-.005c.089-2.432.542-4.834.963-7.23.802-4.571 1.49-9.161 2.06-13.766-.898.34-1.63.376-1.845 1.387-.159.755-.21 1.634-.21 2.405a73.77 73.77 0 0 1-1.943 9.74"/>
        <g transform="translate(0 47.396)">
            <mask id="d" fill="#fff">
                <use xlink:href="#c"/>
            </mask>
            <path fill="#2F3531" d="M9.912 3.381c2.47 3.008 2.707 6.894.528 8.68-2.18 1.785-5.95.794-8.42-2.213-2.472-3.008-2.708-6.894-.528-8.68C3.672-.618 7.44.373 9.912 3.381" mask="url(#d)"/>
        </g>
        <path fill="#007CAD" d="M8.423 51.997c1.54 1.873 1.686 4.293.329 5.405s-3.705.495-5.244-1.378c-1.54-1.874-1.686-4.294-.329-5.406 1.358-1.112 3.705-.495 5.244 1.379"/>
        <path fill="#2F3531" d="M6.307 53.16c.65.79.711 1.812.138 2.281-.572.47-1.563.21-2.212-.581-.65-.79-.711-1.812-.138-2.28.572-.47 1.563-.21 2.212.58"/>
        <g>
            <path fill="#D0CBCA" d="M34.845 49.494c5.6-.303 11.224-.144 16.797.473-1.505 3.403-1.478 7.256-2.225 10.9-.014.069-.031.14-.082.19a.35.35 0 0 1-.17.073l-1.979.473c-1.45.346-2.91.693-4.396.818-1.487.125-3.016.02-4.409-.515-.367-.141-.737-.322-.979-.632-.245-.313-.33-.72-.399-1.112-.253-1.462-.368-3.016-1.092-4.343-.23-.422-.612-.788-.743-1.256-.195-.69-.064-1.529-.093-2.24a35.3 35.3 0 0 0-.23-2.829"/>
            <path fill="#FFCCA6" d="M40.668 83.06c.07 3.092.141 6.194-.168 9.271l1.353.016c.154.002.324-.001.436-.105.099-.09.127-.232.15-.364.712-4.19 1.35-8.39 1.917-12.601.088-.653.174-1.312.118-1.97.008.084-1.046.473-1.163.492-.307.05-.627-.01-.872-.214-.196-.161-.34-.374-.514-.558a2.374 2.374 0 0 0-1.42-.72c-.077 1.281-.132 2.576-.095 3.86.028.962.235 1.907.258 2.894M35.235 77.601v.37c0 3.858.444 7.683.175 11.531-.057.803-.184 1.599-.262 2.4a18.947 18.947 0 0 0-.008 3.539c.014.143.031.293.117.408.124.164.348.206.55.236.496.073 1.117.09 1.365-.344.104-.183.11-.403.113-.614l.024-1.693c.014-1.03.029-2.062.183-3.08.113-.742.299-1.472.373-2.218.083-.837.024-1.682.076-2.52.062-.967.27-1.917.44-2.87a35.79 35.79 0 0 0 .547-5.493c-1.18.285-2.482.255-3.693.348"/>
            <path fill="#65677E" d="M34.521 78.172l4.317.12c.09-1.009.35-2.001.762-2.926.187.8.268 1.625.243 2.446l4.252-.062c.218-.003.448-.01.632-.128.223-.143.32-.417.385-.674.221-.876.23-1.79.239-2.693.018-1.913.028-3.87-.606-5.676-.147-.419-6.488 1.017-7.17 1.08-.646.058-2.391-.32-2.683.397-.182.452-.004 1.306-.007 1.795a61.184 61.184 0 0 1-.364 6.321"/>
            <path fill="#FFCCA6" d="M46.572 54.637l1.397-.007c.074 0 .154.002.212.048.078.063.082.178.08.278a9.589 9.589 0 0 0 .674 3.651c.486 1.223 1.239 2.419 1.163 3.732-.012.197-.044.399-.148.567-.204.335-.626.456-1.012.522a8.35 8.35 0 0 1-1.934.102c-.155-.01-.321-.029-.438-.131-.146-.13-.165-.347-.174-.543-.116-2.56-.143-5.124-.08-7.686a.658.658 0 0 1 .032-.23c.127-.316.588-.255.907-.137M33.636 54.871c-.095-.003-.2-.003-.275.056-.074.057-.1.156-.12.248-.323 1.484-.423 3.008-.438 4.526-.01.965.019 1.955.378 2.85.124.31.316.63.634.73.277.087.589-.022.8-.221.211-.199.334-.474.414-.752.143-.498.162-1.022.176-1.54.033-1.267.04-2.534.022-3.8-.006-.438.172-1.51-.049-1.874-.216-.356-1.13-.209-1.542-.223M37.89 50.61c.089.237.205.463.29.701a2.9 2.9 0 0 1 .168.956c.861-.047 1.727-.02 2.583.084.059.006.12.014.175-.005a.356.356 0 0 0 .137-.103c.26-.281.42-.646.5-1.02.082-.376.09-.763.08-1.147a1.406 1.406 0 0 0-.06-.43c-.08-.22-.258-.39-.452-.523-.287-.197-.613-.329-.938-.452a32.984 32.984 0 0 0-2.188-.745c-.197-.06-.39-.123-.492.103-.098.219-.06.53-.062.763-.002.292.006.586.04.877.037.32.105.638.219.94"/>
            <path fill="#F6F6F6" d="M37.746 53.795c-.383.361-.904.538-1.42.643a6.57 6.57 0 0 1-1.932.098c.352 2.304.548 4.632.588 6.963.006.355.006.723-.135 1.049-.07.163-.176.312-.225.483-.062.217-.03.447 0 .67.255 1.906.326 3.836.21 5.754-.01.18-.021.368.047.534.047.111.125.205.203.297l1.484 1.765c.32.38.647.766 1.066 1.033.962.615 2.216.49 3.323.207.475-.122.947-.27 1.382-.497 1.267-.662 2.093-1.917 2.862-3.12.173-.27.35-.55.404-.867.055-.325-.025-.654-.082-.978-.13-.747-.137-1.511-.132-2.27.009-1.677.067-3.355.175-5.028.044-.698.098-1.397.229-2.083.273-1.433.886-2.842.719-4.291-.835-.102-1.545-.666-2.09-1.307-.214-.253-.431-.536-.749-.634-.286-.088-.594-.006-.887.059-1.616.355-2.987-.001-4.517-.462-.096.281.062.678-.001 1.006-.07.368-.25.717-.522.976"/>
            <path fill="#502C29" d="M38.549 44.581a3.173 3.173 0 0 0-1.326 1.846c-.1.388-.123.807.01 1.185.186.53.645.91 1.085 1.26.612.487 1.274.993 2.054 1.062.486.042.969-.09 1.438-.222.338-.095.684-.194.968-.399.279-.2.48-.491.643-.794.382-.713.572-1.594.237-2.332-.194-.43-.546-.768-.911-1.067-1.184-.968-2.837-1.427-4.198-.539"/>
            <path fill="#9B861C" d="M42.638 45.91c-.452-.153-.968.042-1.303.382-.335.34-.517.8-.646 1.259-.026.091-.041.21.038.263.04.028.095.028.145.025.913-.058 1.772-.539 2.687-.519.318.007.676.064.922-.139.259-.212.252-.635.064-.912-.188-.278-.506-.437-.82-.551-.257-.094-.525-.166-.798-.165-.396.002-.777.159-1.11.373"/>
            <path fill="#592725" d="M43.113 46.082c.406-.056.858-.046 1.175.213.242.198.363.506.458.804.22.682.363 1.404.277 2.116-.14 1.154-.856 2.146-1.277 3.23-.402 1.037-.541 2.176-1.082 3.147-.122.218-.289.444-.535.489a.606.606 0 0 1-.414-.09c-.452-.273-.53-.885-.55-1.411-.041-1.011-.052-2.025.03-3.034.041-.507.105-1.013.104-1.521-.001-.66-.112-1.314-.204-1.967-.027-.194-.053-.392-.02-.586.167-.979 1.189-1.273 2.038-1.39"/>
            <path fill="#757787" d="M45.365 60.412c0 .11.004.228.07.315.085.11.24.134.378.142.296.017.594.003.887-.043.116-.018.24-.046.32-.132a.536.536 0 0 0 .11-.248c.153-.633.174-1.29.194-1.941.04-1.318.081-2.635.123-3.953.003-.105.004-.22-.059-.304a.441.441 0 0 0-.19-.132c-.4-.174-1.114-.458-1.308.013-.103.248.017.796.004 1.077-.015.344-.047.687-.085 1.029-.153 1.391-.442 2.772-.444 4.177"/>
            <path fill="#324763" d="M47.056 59.1c.715.526.834 1.528.893 2.413l.114 1.73c.064.975.127 1.968-.098 2.92s-.786 1.874-1.67 2.295c-.118.057-.25.105-.38.077-.29-.062-.369-.432-.387-.728l-.334-5.431c-.055-.896-.12-1.792-.164-2.688-.031-.626.042-.568.656-.567.457 0 .914-.007 1.37-.022"/>
            <path fill="#73707E" d="M40.428 93.72c-.004.026-.006.055.011.075.017.02.046.024.072.025.503.037 1.05.062 1.464-.225a.418.418 0 0 0 .132-.133.497.497 0 0 0 .047-.154c.082-.443.12-.894.112-1.345-.274.11-.563.184-.855.22-.174.021-.632-.059-.759.04-.248.192-.19 1.195-.224 1.497"/>
            <g transform="translate(34.783 95.333)">
                <mask id="f" fill="#fff">
                    <use xlink:href="#e"/>
                </mask>
                <path fill="#73707E" d="M.292 2.746a.58.58 0 0 0 .124.232c.1.1.251.121.392.132.338.026.679.021 1.016-.013.107-.011.22-.028.301-.099a.49.49 0 0 0 .129-.235c.103-.345.117-.71.13-1.069.007-.232.014-.473-.083-.684-.147-.32-.497-.495-.834-.6C1.21.33.86.144.603.117.279.083.25.45.19.715c-.15.67-.119 1.38.1 2.03" mask="url(#f)"/>
            </g>
            <path fill="#1C1925" d="M41.915 93.57c.197.078.354.23.502.383.65.673 1.248 1.517 1.187 2.45-.006.103-.025.214-.096.29a.45.45 0 0 1-.226.11c-.764.19-1.602-.137-2.133-.718-.485-.53-.84-1.38-.807-2.11.031-.669 1.122-.582 1.573-.405"/>
            <path fill="#DDD4D9" d="M59.968 60.104c-.474.366-.779.982-.665 1.57.016.082.04.164.086.235a.61.61 0 0 0 .255.212c.251.122.54.128.82.131.958.012 1.917.023 2.869-.079.163-.017.333-.041.466-.137.23-.166.274-.486.298-.769.013-.155.023-.324-.066-.451-.069-.097-.182-.15-.29-.2-1.254-.572-2.478-1.512-3.773-.512"/>
            <path fill="#EDE2E8" d="M61.215 61.466c-.52.274-.97.866-.768 1.418.174.474.726.673 1.215.799.52.133 1.044.248 1.572.345.996.183 2.059.296 2.995-.09.31-.129.627-.348.688-.679a.822.822 0 0 0-.086-.497c-.258-.533-.85-.805-1.396-1.035l-1.32-.558c-1.07-.45-1.883-.239-2.9.297"/>
            <path fill="#100E13" d="M59.59 47.794c.132 1.902.305 3.805.693 5.671.363 1.75.918 3.484.896 5.27-.005.465-.046.954.155 1.373a1.33 1.33 0 0 0 1.438.703c-.428.843.222 1.92 1.104 2.264.881.344 1.876.152 2.785-.111.072-.022.148-.045.197-.102.061-.073.06-.179.056-.274-.134-2.977-.3-5.972.08-8.929.1-.784.24-1.567.24-2.358 0-.754-.126-1.502-.202-2.253-.327-3.251.281-6.542-.037-9.794-.038-.394-3.705.075-4.06.15-.931.197-2.342.467-3.054 1.174-.682.677-.516 1.814-.501 2.682a85.75 85.75 0 0 0 .21 4.534"/>
            <path fill="#C6B1A1" d="M55.46 29.071c-.117-.008-.243-.012-.342.05-.098.063-.148.176-.18.287-.122.438-.012.918.216 1.313.227.395.563.716.913 1.009.135.113.276.224.44.29.232.097.493.096.743.065a3.23 3.23 0 0 0 1.061-.326c.184-.093.365-.21.474-.385.443-.7.009-1.617-.689-1.934-.718-.328-1.857-.31-2.636-.369"/>
            <path fill="#879069" d="M62.041 22.967c.432-.084.883-.134 1.306-.015.298.084.567.248.822.424a8.547 8.547 0 0 1 3.517 5.484c.167.95.17 1.92.172 2.886l.017 6.92c0 .178 0 .364-.089.518-.154.27-.507.342-.818.365-.875.065-1.757-.035-2.631.035-1.712.137-3.306.916-4.995 1.231-.098.019-.202.035-.294-.003-.105-.042-.172-.143-.23-.24a7.889 7.889 0 0 1-1.067-3.157c-.072-.641-.058-1.32.246-1.89.183-.343.46-.624.708-.923a6.93 6.93 0 0 0 1.444-5.723c-.059-.288-.141-.582-.33-.808-.146-.173-.345-.293-.514-.445-.86-.768-1.154-2.047-.416-2.938.777-.94 1.975-1.49 3.152-1.72"/>
            <path fill="#D5DAE4" d="M62.26 26.858c.001-.206-.001-.421-.101-.6-.076-.134-.198-.233-.32-.326-.518-.396-1.099-.743-1.744-.842-.645-.1-1.365.092-1.763.61-.364.474-.398 1.114-.46 1.709a12.908 12.908 0 0 1-.724 3.128c1.434.357 2.88.667 4.333.929.14.025.291.047.416-.02.51-.275.358-1.42.359-1.862l.005-2.726"/>
            <path fill="#FBE0C7" d="M61.356 21.351c-.097.541-.437 1.002-.768 1.441-.556.74-1.267 1.556-2.192 1.506-.472-.026-.897-.283-1.3-.533-.693-.43-1.407-.88-1.861-1.558-.118-.176-.22-.39-.164-.594.042-.156.169-.275.292-.381 1.109-.97 2.413-1.887 3.79-2.437 1.318-.528 2.414 1.387 2.203 2.556"/>
            <path fill="#51604D" d="M60.495 22.544c.222-.272.472-.537.793-.681.293-.133.624-.154.947-.157.512-.005 1.03.033 1.52.183.343.106.722.345.713.704-.007.298-.278.512-.523.681-.448.31-.896.62-1.344.928-.528.365-1.06.733-1.652.984-.558.237-1.984.697-1.795-.3.154-.813.829-1.716 1.34-2.342"/>
            <path fill="#E2CCBA" d="M57.466 31.239c-.323.222-.82.246-1.071-.056-.091-.11-.14-.248-.192-.38a5.1 5.1 0 0 0-.514-.977.66.66 0 0 0-.16-.181c-.183-.125-.441-.049-.608.095-.3.258-.398.69-.35 1.081.047.392.22.755.391 1.11l1.198 2.497c.294.611.734 1.318 1.413 1.297.515-.015.901-.457 1.22-.862.86-1.098 1.745-2.243 2.056-3.603-.724-.246-1.45-.493-2.184-.705-.785-.226-.615.282-1.199.684"/>
            <path fill="#282123" d="M54.529 22.571c-.135 0-.275 0-.396-.062-.231-.118-.304-.41-.34-.667-.182-1.315-.062-2.651.06-3.973.037-.411.109-.88.458-1.1.17-.108.376-.134.576-.15a9.235 9.235 0 0 1 6.43 1.926c.428.337.84.734 1.022 1.246.182.514.07 1.166-.385 1.466a.648.648 0 0 1-.371.12c-.283-.011-.491-.256-.734-.402-.309-.186-.685-.211-1.046-.216-1.181-.017-2.495.203-3.225 1.13-.207.264-.375.592-.714.68-.389.1-.933.002-1.335.002"/>
            <path fill="#BF5275" d="M64.133 22.972c-.206-.032-.45.124-.426.33.014.109.094.196.17.274.984 1.01 2.082 1.965 2.695 3.235.47.973.62 2.063.764 3.134l.703 5.208c.089.659.178 1.32.168 1.986-.009.538-.082 1.074-.128 1.611-.083.952-.079 1.91-.075 2.865l.029 7.653c0 .313.007.643.17.91.162.268.542.429.799.25l.018-.306c-.152.255.019.604.278.75.26.146.573.145.87.14l1.712-.032c.018-1.005-.468-1.939-.79-2.891-.44-1.308-.579-2.694-.742-4.065-.337-2.834-.79-5.654-1.244-8.473l-.931-5.778c-.206-1.28-.418-2.58-.954-3.762-.312-.688-.745-1.336-1.303-1.85-.375-.344-1.278-1.111-1.783-1.19"/>
        </g>
    </g>
</svg>
