<?xml version="1.0" encoding="UTF-8"?>
<svg width="49px" height="72px" viewBox="0 0 49 72" version="1.1" xmlns="http://www.w3.org/2000/svg" xmlns:xlink="http://www.w3.org/1999/xlink">
    <!-- Generator: sketchtool 52.4 (67378) - http://www.bohemiancoding.com/sketch -->
    <title>E4CCC91C-78EF-4F58-8429-4B0C586AB3C7</title>
    <desc>Created with sketchtool.</desc>
    <g id="Page-1" stroke="none" stroke-width="1" fill="none" fill-rule="evenodd">
        <g id="Final" transform="translate(-343.000000, -2711.000000)">
            <g id="Group-35" transform="translate(343.000000, 2711.000000)">
                <path d="M4.4913574,48.2800771 C4.51252308,48.5903422 4.57138107,48.9541012 4.84972426,49.0943422 C4.94888402,49.1443663 5.06225089,49.1565108 5.17300828,49.1648964 C5.89525089,49.2181012 6.65431598,49.1177639 7.26000237,48.7219084 C7.58009704,48.512559 7.86945799,48.1198843 7.70941065,47.7731855 C7.58560592,47.5057157 7.25797278,47.4076916 7.04776568,47.2009446 C6.73607929,46.8932819 6.72825089,46.4014265 6.75057633,45.9645108 C6.82393136,44.5453301 7.00427456,43.1313542 7.28957633,41.7390651 C7.30726272,41.6537639 7.31886036,41.5493783 7.25130414,41.4938602 C7.21013254,41.4603181 7.15272426,41.4577157 7.09937515,41.4562699 C6.5713929,41.4447036 5.24259408,41.1645108 4.80014438,41.4264867 C4.31536331,41.7139084 4.46381302,42.8829687 4.43916805,43.4109687 C4.36291361,45.0421012 4.4913574,46.6532819 4.4913574,48.2800771" id="Fill-1" fill="#252C2C"></path>
                <path d="M6.49516746,12.560212 C5.88745148,13.3843084 5.45138047,14.3188627 5.01965858,15.2464771 C3.32959349,18.8756819 1.63401953,22.5193446 0.468457396,26.3483566 C0.859587574,26.6771277 1.4357,26.7187663 1.92251065,26.5617542 C2.4093213,26.404453 2.82103728,26.0759711 3.19100178,25.7229108 C3.98717929,24.9638747 4.64360533,24.0591036 5.1185284,23.0675855 C5.0063213,25.0916819 4.27885976,27.0238265 3.82713195,28.9999229 C3.27740414,31.4022361 3.1350432,33.8762602 2.99413195,36.3364048 C2.93121479,37.4352 2.86829763,38.5345735 2.80538047,39.633947 C2.75841006,40.453706 2.74942189,41.3798747 3.32785385,41.9642602 C3.88483018,42.5275373 4.77233905,42.5538506 5.56503728,42.543441 C6.38904911,42.5327422 7.21277101,42.5223325 8.03620296,42.5116337 C8.57172367,42.5049831 9.11826213,42.4960193 9.62391893,42.3205012 C10.2928124,42.0880193 10.829203,41.5845976 11.3000669,41.0571759 C13.4146053,38.6878265 14.5882858,35.6299952 15.3975107,32.5629108 C15.7851615,31.093706 16.1000373,29.6025253 16.2600846,28.0922602 C16.3992562,26.7792 16.4210018,25.4571759 16.4427473,24.1368867 C16.498416,20.7418988 16.5540846,17.3469108 16.6097533,13.9516337 C16.6201911,13.3256096 16.6222207,12.6657542 16.3134337,12.1204048 C15.5366822,10.7489349 12.877345,10.3400675 11.4322799,10.1845012 C9.51229172,9.97746506 7.60883018,11.0493687 6.49516746,12.560212" id="Fill-3" fill="#F2CCB8"></path>
                <path d="M40.2305077,57.102188 C40.2374663,57.220453 40.2441349,57.3439229 40.1977444,57.4529349 C40.1513538,57.5613687 40.0582828,57.6423325 39.9626024,57.7111518 C39.3948982,58.1211759 38.6590284,58.2379952 38.0765373,58.6266217 C37.9547621,58.7081639 37.8289278,58.8619952 37.9109811,58.9828627 C37.9588213,59.0531277 38.0539219,59.0690313 38.1385846,59.0779952 C39.4581053,59.2185253 40.7941527,59.2049349 42.110484,59.0375133 C42.1777503,59.0291277 42.2493657,59.0184289 42.3003953,58.9738988 C42.3734604,58.909706 42.3789692,58.8001157 42.3795491,58.702959 C42.3873775,56.7685012 42.3954959,54.8334651 42.4033243,52.8990072 C42.4021645,53.1760193 40.2902355,53.0730795 40.0606024,53.6458988 C39.8938864,54.0611277 40.0898864,54.8097542 40.1165609,55.2460916 L40.2305077,57.102188 Z" id="Fill-5" fill="#1C1E1D"></path>
                <path d="M44.9802604,57.2634217 C45.0118639,57.4051084 45.0399882,57.5713735 44.9440178,57.6806747 C44.8848698,57.7480482 44.7929586,57.7743614 44.7062663,57.797494 C44.403858,57.8784578 44.1014497,57.9594217 43.7993314,58.0403855 C43.5868047,58.0973494 43.3261479,58.2170602 43.3412249,58.4356627 C43.3574615,58.6785542 43.683355,58.7415904 43.9271953,58.733494 C44.7688935,58.7051566 45.6097219,58.6479036 46.4476509,58.5614458 C46.5001302,58.556241 46.554929,58.5498795 46.5998698,58.5224096 C46.7085976,58.4553253 46.7135266,58.3020723 46.7051183,58.1745542 C46.5714556,56.0527229 46.437503,53.9308916 46.3038402,51.8090602 C45.8802367,51.9007229 45.1002959,52.0317108 44.8051361,52.3836145 C44.5647751,52.6704578 44.6334911,53.1620241 44.6239231,53.5119036 C44.5888402,54.771759 44.7051065,56.0330602 44.9802604,57.2634217" id="Fill-7" fill="#1C1E1D"></path>
                <path d="M47.4351314,36.4531952 C47.8625041,36.9190265 48.7131905,36.5058217 48.901942,35.9032193 C49.0904036,35.3006169 48.8671491,34.6578217 48.7181195,34.0442313 C48.1356284,31.6488578 48.6949243,29.1210506 48.392516,26.6747855 C48.142297,24.6521349 47.3133562,22.7526651 46.4936935,20.886159 C45.883368,19.4967614 45.2733325,18.1073639 44.6627172,16.7179663 C44.5838533,16.5375325 44.487013,16.3400386 44.3026107,16.2700627 C44.1208178,16.2012434 43.9198888,16.2813398 43.7412852,16.357388 C41.6154391,17.2624482 39.3106994,17.747653 36.9995811,17.7765687 C36.8276462,17.7788819 36.6354154,17.7869783 36.5174095,17.9113157 C36.4028828,18.031894 36.4014331,18.2172434 36.406942,18.3832193 C36.7757467,29.7242313 37.2329834,41.062641 37.7783621,52.3970024 C37.7861905,52.5525687 37.7951787,52.7144964 37.8708533,52.8509783 C37.9714627,53.0334361 38.171232,53.1360867 38.3643325,53.2150265 C39.9274036,53.8505928 41.6957527,53.5550747 43.3559538,53.2500145 C44.570226,53.0264964 46.7044805,53.0675566 47.5534272,52.015894 C48.2971254,51.0952193 48.0379183,49.2726651 48.0477763,48.1990265 C48.0654627,46.2376771 48.0231314,44.2757494 47.9210722,42.3167133 C47.8625041,41.1907373 48.1869479,37.2764241 47.4351314,36.4531952" id="Fill-9" fill="#AAB0B3"></path>
                <path d="M37.9990361,12.2744386 C38.0648527,12.5381494 38.1405272,12.8093783 38.3136219,13.0190169 C38.5693497,13.3287036 38.9859947,13.4481253 39.3808941,13.5256193 C40.5922669,13.7644627 41.8500302,13.7670651 43.0625627,13.5331373 C43.1451959,13.5172337 43.2333379,13.4972819 43.2907462,13.4359807 C43.3342373,13.3894265 43.3539533,13.325812 43.3699,13.2642217 C43.6917343,12.0387759 43.1944858,10.6976675 42.3182846,9.78017349 C41.4423734,8.86296867 40.2376692,8.31993253 39.0109296,7.99029398 C38.6693793,7.89834217 37.9282905,7.68002892 37.6116751,7.93506506 C37.3388408,8.1548241 37.4739533,8.70075181 37.4930893,9.00031807 C37.5623852,10.1037398 37.7320006,11.2010892 37.9990361,12.2744386" id="Fill-11" fill="#FFE8DC"></path>
                <path d="M37.587929,6.00251566 C37.7018757,5.49996145 37.8239408,4.97919036 38.1420059,4.57321446 C38.4623905,4.16405783 38.9541302,3.91422651 39.4612367,3.79769639 C39.9683432,3.68087711 40.4951657,3.68550361 41.0153195,3.70661205 C41.5807041,3.72945542 42.1707337,3.77803373 42.6531953,4.07268434 C42.9950355,4.28174458 43.257432,4.60068434 43.4635799,4.94391325 C44.2383018,6.23470843 44.2580178,7.82391325 44.2554083,9.32839518 C44.2533787,10.3930699 44.2406213,11.504588 43.7468521,12.4486843 C43.5981124,12.7329253 43.4012426,13.0021301 43.1289882,13.1733108 C42.8573136,13.3447807 42.4998166,13.4037687 42.2090059,13.2669976 C41.934432,13.1380337 41.7598876,12.8621783 41.640142,12.5837205 C41.3957219,12.0169735 41.3174379,11.3952867 41.1730473,10.7952867 C41.0283669,10.1955759 40.7969941,9.58458795 40.3290296,9.18121446 C39.920213,8.82902169 39.3803432,8.6769253 38.8593195,8.53466024 C38.4244083,8.41581687 37.7317396,8.40367229 37.514574,7.96791325 C37.2405799,7.41851566 37.4481775,6.56087711 37.587929,6.00251566" id="Fill-13" fill="#0F1D19"></path>
                <path d="M37.3025112,12.3097446 C37.0943337,12.2967325 36.8789077,12.284588 36.6829077,12.3560096 C36.1740615,12.541359 36.0195231,13.1737446 35.961245,13.7109976 C35.8864402,14.3968771 35.8467183,15.0865157 35.8414994,15.7761542 C35.8357006,16.5635277 35.9319609,17.4625157 36.568671,17.9286361 C37.0006828,18.2443952 37.5750556,18.2733108 38.1105763,18.2568289 C39.8336947,18.2044916 41.5260793,17.8129735 43.2051266,17.4234795 C43.5031858,17.3540819 43.8096533,17.2812145 44.0575527,17.1022265 C44.5832154,16.7219855 44.6896237,15.9967807 44.7519609,15.3519614 C44.796032,14.8965398 44.839813,14.4341783 44.751671,13.9851181 C44.6638189,13.536347 44.4240379,13.0956723 44.0239195,12.8721542 C43.6577243,12.6682988 43.2164343,12.6709012 42.7974698,12.6596241 C41.7435349,12.6304193 40.7261325,12.4176 39.6823456,12.3135036 C39.3532627,12.2805398 39.0769491,12.3652627 38.753955,12.3872386 C38.278742,12.4187566 37.7774343,12.3395277 37.3025112,12.3097446" id="Fill-15" fill="#B92D00"></path>
                <path d="M9.62676036,71.3177349 C9.63110947,71.4200964 9.64096746,71.5354699 9.71983136,71.6008193 C9.7769497,71.6479518 9.85552367,71.6566265 9.92916864,71.6624096 C10.7583994,71.7320964 11.5922692,71.7462651 12.4235296,71.7049157 C12.8077012,71.6858313 13.2037604,71.6514217 13.5450207,71.4741687 C13.8859911,71.2966265 14.1617249,70.9406747 14.1309911,70.5581205 C14.126932,70.5115663 14.117074,70.4615422 14.0828609,70.4291566 C14.048358,70.3964819 13.9976183,70.3895422 13.950068,70.3857831 C13.2626183,70.3311325 12.5482041,70.6055422 11.8946775,70.3857831 C11.8105947,70.3577349 11.7241923,70.3175422 11.6760621,70.2429398 C11.6282219,70.1689157 11.6267722,70.0755181 11.6270621,69.9876145 C11.6343107,68.5617831 11.7163639,67.1359518 11.872932,65.718506 C11.3136361,65.666747 10.3953935,65.5565783 9.86741124,65.7887711 C9.21301479,66.0764819 9.43134024,66.4121928 9.46207396,67.1703614 C9.51745266,68.5525301 9.57196154,69.9355663 9.62676036,71.3177349" id="Fill-17" fill="#81574B"></path>
                <path d="M15.1512059,69.5994506 C15.1329396,70.2477398 14.8969278,70.898053 15.0340698,71.5321735 C15.047987,71.595788 15.0685728,71.6637398 15.1210521,71.7030651 C15.1694722,71.7400771 15.2352888,71.7441253 15.2967562,71.7464386 C15.9094012,71.7698602 16.532484,71.786053 17.125703,71.6316434 C17.7189219,71.4775229 18.2886556,71.1279325 18.5696083,70.5843181 C18.6235373,70.4805108 18.6649988,70.3512578 18.6046911,70.2509205 C18.566129,70.1867277 18.4948036,70.1511614 18.4260876,70.1219566 C17.9540639,69.9198361 17.4217325,69.8617157 16.9172355,69.9568482 C16.7954604,69.9799807 16.6667266,70.0112096 16.5510402,69.9663904 C16.3356142,69.8828241 16.2958923,69.6008964 16.2903834,69.3701494 C16.2645787,68.3219566 16.238774,67.2734747 16.2129692,66.2252819 C14.0752355,66.3120289 15.1903479,68.228559 15.1512059,69.5994506" id="Fill-19" fill="#81574B"></path>
                <path d="M9.67346982,42.0070265 C9.04545799,47.0620627 8.41744615,52.1170988 7.78943432,57.1721349 C7.5783574,58.8691952 7.36728047,60.572906 7.38351716,62.2829783 C7.39482485,63.4734361 7.5166,64.6633157 7.74681302,65.8315084 C7.80190178,66.1099663 7.87148757,66.4040386 8.07386627,66.6035566 C8.24899053,66.7761831 8.4966,66.8510747 8.73725089,66.905147 C9.96428047,67.1818699 11.2414698,67.0734361 12.4945941,66.9638458 C13.5146059,66.8742072 14.5346178,66.7848578 15.5546296,66.6957976 C16.0814521,66.6498217 16.635529,66.5937253 17.0681207,66.2904 C17.5572509,65.9471711 17.7952923,65.3561349 18.0078189,64.7983518 C18.6155349,63.2042313 19.2235408,61.6095325 19.8309669,60.0148337 C20.5178367,58.2128096 21.2081858,56.3992193 21.5775704,54.5069783 C21.3122746,55.0939663 21.2589254,55.7737735 21.4291207,56.3951711 C22.1963041,56.5206651 22.9118781,55.8654361 23.1490497,55.126641 C23.3862213,54.3881349 23.2737243,53.590641 23.1971799,52.8188819 C22.9162272,49.9880386 23.152529,47.1349301 23.171955,44.2904964 C23.1913811,41.4460627 22.9782746,38.5359904 21.8579432,35.9197012 C21.7065941,35.5654843 21.5297302,35.2057735 21.2310911,34.961147 C21.0078367,34.7775325 20.7315231,34.6717012 20.4589787,34.5736771 C18.1600379,33.7472675 15.4560497,33.0313157 12.989813,33.1949783 C11.3464284,33.3042795 10.3887538,35.2127133 10.0782272,36.6229301 C9.91499053,37.3646169 10.1196888,37.981388 10.1075112,38.7167133 C10.0898249,39.7993157 9.80713254,40.9304964 9.67346982,42.0070265" id="Fill-21" fill="#0B2540"></path>
                <path d="M19.1715834,22.5962602 C17.5969148,22.5205012 16.0051396,23.2575614 15.0468852,24.5058506 C14.5452876,25.1593446 14.2179444,25.9270554 13.9193053,26.6938988 C12.2443172,30.9965494 11.3112876,35.5851759 11.1732757,40.1983807 C11.1570391,40.7408386 11.172116,41.3405494 11.5380213,41.7424771 C11.7461988,41.9709108 12.0410686,42.1007422 12.3368083,42.192694 C13.7531692,42.6325012 15.3875657,42.288694 16.5049976,41.3148145 C17.7059325,40.2683566 18.2342047,38.6727904 18.7549385,37.1694651 C19.7091337,34.4164048 20.8068497,31.7130795 22.0425775,29.0736578 C22.2858379,28.5543325 22.5375065,28.0263325 22.608832,27.4575614 C22.7039325,26.7022843 22.4714,25.944694 22.1887077,25.2374169 C21.5351811,23.6025253 21.0622876,22.6870554 19.1715834,22.5962602" id="Fill-23" fill="#BD640F"></path>
                <path d="M4.53777692,25.3599036 C4.23681834,25.3885301 3.91817337,25.4264096 3.68100178,25.6137831 C3.43310237,25.809253 3.32437456,26.1273253 3.23101361,26.4283373 C2.8978716,27.5013976 2.60300178,28.5866024 2.34814379,29.6810602 C2.26058166,30.057253 2.20201361,30.517012 2.49340414,30.771759 C2.61633905,30.8793253 2.77986568,30.9255904 2.93701361,30.9689639 C3.64359941,31.1632771 4.36062308,31.3593253 5.09330355,31.3564337 C5.82598402,31.3535422 6.58910828,31.1259759 7.08693669,30.5895904 C7.38209645,30.2709398 7.56533905,29.8672771 7.72712604,29.4644819 C8.1614574,28.3815904 8.47546331,27.2506988 8.66131538,26.098988 C8.91646331,24.514988 5.39078284,25.2795181 4.53777692,25.3599036" id="Fill-25" fill="#999999"></path>
                <path d="M13.896574,12.7782072 C12.7689941,14.6143518 12.0513905,16.6641831 11.2056331,18.6451952 C10.1856213,21.0339181 8.97308876,23.3347373 7.76200592,25.6326651 C7.94205917,25.7150747 8.12211243,25.7977735 8.30216568,25.8804723 C11.5303669,21.5818699 14.1308462,16.8157012 15.9960355,11.7780145 C16.1175207,11.4501108 16.2361065,11.0863518 16.1108521,10.7601831 C15.5935976,9.41444819 14.1299763,12.3985446 13.896574,12.7782072" id="Fill-27" fill="#B1B8BA"></path>
                <path d="M0.107394083,28.5578602 C0.275849704,29.155547 0.848192899,29.6173301 1.46953609,29.6569446 C2.09116923,29.696559 2.71744142,29.3111133 2.96099172,28.7394506 C3.10828166,28.3939084 3.12132899,28.0081735 3.1320568,27.632559 C3.1384355,27.4136675 3.1448142,27.1947759 3.15090296,26.9755952 C3.15554201,26.8232096 3.1590213,26.6661976 3.1036426,26.5239325 C3.01289112,26.2911614 2.77513964,26.1408 2.53042959,26.0870169 C1.08942367,25.769812 -0.419428402,26.9816675 0.107394083,28.5578602" id="Fill-29" fill="#604B47"></path>
                <path d="M12.5188041,3.88635181 C11.9322538,4.08962892 11.3326562,4.31227952 10.8733899,4.72895422 C10.0041473,5.51835181 9.83395207,6.7964241 9.71797574,7.96288193 C9.63940178,8.7517012 9.56111775,9.54052048 9.48225385,10.3293398 C9.46311775,10.5227855 9.44775089,10.7332916 9.55299941,10.8966651 C9.63476272,11.0236048 9.77538402,11.0987855 9.91542544,11.1551711 C10.9882065,11.5842795 12.3517982,11.0441349 12.8362893,9.99796627 C12.8989166,9.86293012 12.9484964,9.72066506 13.0363485,9.60066506 C13.1674018,9.4210988 13.3689107,9.30890602 13.5547627,9.18717108 C14.4822834,8.57965301 15.1517568,7.5930506 15.3718219,6.50871325 C15.5254905,5.75112289 15.5472361,4.34408675 14.9554669,3.7310747 C14.3564491,3.11025542 13.2021947,3.64953253 12.5188041,3.88635181" id="Fill-31" fill="#604B47"></path>
                <path d="M13.5763343,0.807007229 C12.4736893,0.0401638554 11.0413817,-0.079546988 9.70272485,0.0398746988 C9.29622781,0.0760192771 8.88393195,0.134139759 8.51657692,0.309657831 C8.11790828,0.500212048 7.79520414,0.817995181 7.5058432,1.15168193 C5.66152959,3.2798747 4.94247633,6.32700723 5.64152367,9.05230843 C5.70763018,9.31023614 5.79606213,9.58146506 6.00307988,9.75004337 C6.17559467,9.89057349 6.40464793,9.93799518 6.6252929,9.96604337 C7.44060651,10.0689831 8.28114497,9.96373012 9.04513905,9.66271807 C9.28521006,9.56816386 9.52325148,9.45076627 9.70040533,9.26368193 C10.2295473,8.7058988 10.0283284,7.81298313 10.1425651,7.05365783 C10.2907249,6.07226024 11.030074,5.24758554 11.9193225,4.80257349 C12.8137899,4.35524819 14.6615828,4.67910361 14.890926,3.62021205 C15.1179497,2.57201928 14.4093343,1.38647711 13.5763343,0.807007229" id="Fill-33" fill="#151D10"></path>
            </g>
        </g>
    </g>
</svg>