<svg xmlns="http://www.w3.org/2000/svg" width="38" height="55" viewBox="0 0 38 55">
    <g fill="none" fill-rule="evenodd">
        <path fill="#252C2C" d="M3.483 36.88c.017.238.062.515.278.623a.67.67 0 0 0 .25.054c.56.04 1.15-.036 1.62-.339.247-.16.472-.46.348-.725-.096-.204-.35-.279-.513-.437-.242-.235-.248-.61-.23-.944.056-1.084.196-2.164.417-3.228.014-.065.023-.145-.03-.187-.031-.026-.076-.028-.117-.029-.41-.009-1.44-.223-1.783-.023-.376.22-.261 1.113-.28 1.516-.06 1.246.04 2.477.04 3.72"/>
        <path fill="#F2CCB8" d="M5.037 9.595c-.471.63-.81 1.343-1.144 2.052-1.31 2.772-2.626 5.555-3.53 8.48.304.251.75.283 1.128.163.377-.12.697-.37.984-.64a6.975 6.975 0 0 0 1.494-2.029c-.087 1.546-.65 3.022-1.001 4.532-.426 1.835-.537 3.725-.646 5.604l-.146 2.519c-.037.626-.044 1.334.405 1.78.432.43 1.12.45 1.735.442l1.916-.024c.415-.005.84-.012 1.231-.146.52-.177.935-.562 1.3-.965 1.64-1.81 2.55-4.146 3.178-6.489.3-1.122.545-2.261.669-3.415.108-1.003.125-2.013.142-3.021l.129-7.78c.008-.479.01-.983-.23-1.4-.602-1.047-2.664-1.36-3.785-1.478-1.49-.158-2.965.66-3.829 1.815"/>
        <path fill="#1C1E1D" d="M31.2 43.62c.005.09.01.184-.026.268a.504.504 0 0 1-.183.197c-.44.313-1.01.402-1.462.7-.095.062-.192.179-.129.271.037.054.111.066.177.073 1.023.107 2.06.097 3.08-.03.052-.007.108-.015.147-.05.057-.049.061-.132.062-.206l.018-4.434c0 .212-1.639.133-1.817.57-.129.318.023.89.044 1.223l.088 1.418zM34.883 43.743c.024.108.046.235-.028.319-.046.051-.118.071-.185.089l-.703.185c-.165.044-.367.135-.355.302.012.186.265.234.454.228a28.76 28.76 0 0 0 1.955-.132.28.28 0 0 0 .118-.03c.084-.05.088-.168.081-.265l-.31-4.863c-.33.07-.934.17-1.163.44-.187.218-.133.594-.14.861a11.48 11.48 0 0 0 .276 2.866"/>
        <path fill="#AAB0B3" d="M36.786 27.846c.332.356.992.04 1.138-.42.146-.46-.027-.951-.143-1.42-.451-1.83-.018-3.76-.252-5.63-.194-1.545-.837-2.995-1.473-4.421l-1.42-3.184c-.06-.138-.136-.289-.279-.342-.14-.053-.297.008-.435.066a14.012 14.012 0 0 1-5.228 1.084c-.134.002-.283.008-.374.103-.09.092-.09.234-.086.36.286 8.664.64 17.325 1.064 25.983.006.12.013.243.071.347.078.14.233.218.383.278 1.212.486 2.583.26 3.871.027.942-.17 2.597-.14 3.255-.943.577-.703.376-2.095.384-2.915a72.514 72.514 0 0 0-.099-4.494c-.045-.86.206-3.85-.377-4.479"/>
        <path fill="#FFE8DC" d="M29.469 9.376c.05.202.11.409.244.57.198.236.521.327.827.386.94.183 1.915.185 2.855.006.065-.012.133-.028.177-.074a.293.293 0 0 0 .062-.132c.25-.936-.136-1.96-.816-2.661-.679-.7-1.613-1.115-2.565-1.367-.265-.07-.84-.237-1.085-.042-.211.167-.107.584-.092.813.054.843.186 1.681.393 2.501"/>
        <path fill="#0F1D19" d="M29.15 4.585c.088-.384.183-.781.43-1.092.248-.312.63-.503 1.023-.592.393-.09.801-.086 1.205-.07.438.018.896.055 1.27.28.265.16.469.403.628.666.601.986.617 2.2.615 3.349-.002.813-.012 1.662-.395 2.383-.115.218-.268.423-.479.554-.21.13-.488.176-.713.072-.213-.099-.349-.31-.442-.522-.19-.433-.25-.908-.362-1.367-.112-.458-.292-.924-.654-1.233-.317-.269-.736-.385-1.14-.493-.337-.091-.875-.1-1.043-.433-.213-.42-.052-1.075.057-1.502"/>
        <path fill="#B92D00" d="M28.928 9.403c-.161-.01-.328-.019-.48.036-.395.141-.514.624-.56 1.035-.058.524-.089 1.05-.093 1.577-.004.602.07 1.288.564 1.644.335.242.78.264 1.196.251 1.336-.04 2.649-.339 3.951-.636.231-.053.469-.11.661-.246.408-.29.49-.844.539-1.337.034-.348.068-.7 0-1.044-.069-.343-.255-.68-.565-.85-.284-.156-.626-.154-.951-.162-.817-.023-1.606-.185-2.416-.265-.255-.025-.47.04-.72.056-.368.025-.757-.036-1.126-.059"/>
        <path fill="#81574B" d="M7.466 54.479c.003.078.01.166.072.216.044.036.105.043.162.047.643.053 1.29.064 1.935.033.298-.015.605-.041.87-.177.264-.135.478-.407.454-.7-.003-.035-.011-.073-.038-.098-.026-.025-.066-.03-.103-.033-.533-.042-1.087.168-1.594 0-.065-.022-.132-.052-.17-.11-.036-.056-.037-.127-.037-.194.006-1.09.07-2.179.19-3.261-.433-.04-1.145-.124-1.555.053-.507.22-.338.477-.314 1.056l.128 3.168M11.75 53.166c-.014.495-.197.992-.09 1.477.01.048.026.1.067.13.037.028.088.032.136.033.475.018.958.03 1.418-.087.46-.118.902-.385 1.12-.8.042-.08.074-.178.027-.255-.03-.05-.085-.076-.138-.099a2.064 2.064 0 0 0-1.17-.126c-.095.018-.195.042-.284.008-.168-.064-.198-.28-.203-.456l-.06-2.402c-1.658.066-.793 1.53-.823 2.577"/>
        <path fill="#0B2540" d="M7.502 32.089L6.04 43.673c-.164 1.297-.328 2.598-.315 3.904.009.91.103 1.819.282 2.711.042.213.096.437.253.59.136.132.328.189.515.23.951.211 1.942.129 2.914.045l2.373-.205c.408-.035.838-.078 1.174-.31.379-.262.563-.713.728-1.14l1.414-3.653c.533-1.377 1.068-2.762 1.355-4.208a2.124 2.124 0 0 0-.115 1.443c.594.096 1.15-.405 1.333-.97.184-.564.097-1.173.038-1.762-.218-2.163-.035-4.342-.02-6.515.015-2.173-.15-4.396-1.019-6.394-.117-.27-.254-.546-.486-.733-.173-.14-.387-.22-.599-.296-1.783-.63-3.88-1.178-5.792-1.053-1.275.084-2.017 1.542-2.258 2.619-.127.566.032 1.038.022 1.6-.013.826-.232 1.69-.336 2.513"/>
        <path fill="#BD640F" d="M14.868 17.261c-1.221-.058-2.456.505-3.199 1.459-.389.499-.643 1.085-.874 1.671a30.66 30.66 0 0 0-2.13 10.316c-.013.414 0 .873.283 1.18.161.174.39.273.62.344 1.098.335 2.365.073 3.232-.671.931-.8 1.34-2.018 1.745-3.167a63.53 63.53 0 0 1 2.55-6.184c.188-.397.383-.8.438-1.234.074-.577-.106-1.156-.325-1.696-.507-1.25-.874-1.949-2.34-2.018"/>
        <path fill="#999" d="M3.52 19.372c-.234.022-.481.051-.665.194-.193.15-.277.392-.35.622a35.23 35.23 0 0 0-.684 2.485c-.068.287-.113.639.113.833.095.082.222.118.344.15.548.15 1.104.299 1.672.297.568-.002 1.16-.176 1.546-.586.229-.243.371-.552.496-.86.337-.827.58-1.69.725-2.57.198-1.21-2.536-.626-3.198-.565"/>
        <path fill="#B1B8BA" d="M10.777 9.761c-.875 1.403-1.431 2.969-2.087 4.482-.79 1.825-1.731 3.582-2.67 5.338.14.062.279.126.418.189a42.413 42.413 0 0 0 5.967-10.773c.094-.25.186-.528.09-.777-.402-1.028-1.537 1.251-1.718 1.541"/>
        <path fill="#604B47" d="M.083 21.815c.13.457.575.81 1.057.84a1.21 1.21 0 0 0 1.156-.701c.115-.264.125-.559.133-.846l.015-.502a.86.86 0 0 0-.037-.345c-.07-.177-.255-.292-.445-.333-1.117-.243-2.287.683-1.879 1.887M9.708 2.969c-.454.155-.92.325-1.276.643-.674.603-.806 1.58-.896 2.47L7.354 7.89c-.015.148-.027.309.054.434a.574.574 0 0 0 .282.197c.831.328 1.889-.085 2.265-.884.048-.103.087-.211.155-.303.101-.137.258-.223.402-.316a3.248 3.248 0 0 0 1.409-2.046c.12-.579.136-1.654-.323-2.122-.464-.474-1.36-.062-1.89.119"/>
        <path fill="#151D10" d="M10.529.616C9.673.031 8.563-.06 7.525.03c-.316.028-.635.072-.92.207-.31.145-.56.388-.784.643-1.43 1.625-1.988 3.953-1.446 6.035.051.197.12.404.28.533.134.107.312.144.483.165a3.889 3.889 0 0 0 1.877-.232c.186-.072.37-.162.508-.305.41-.426.254-1.108.343-1.688.115-.75.688-1.38 1.378-1.72.693-.341 2.126-.094 2.304-.903.176-.8-.373-1.706-1.02-2.149"/>
    </g>
</svg>
