<svg xmlns="http://www.w3.org/2000/svg" xmlns:xlink="http://www.w3.org/1999/xlink" width="20" height="44" viewBox="0 0 20 44">
    <defs>
        <path id="a" d="M.258.106h19.04v14.46H.258z"/>
    </defs>
    <g fill="none" fill-rule="evenodd">
        <path fill="#F5D7CC" d="M15.294 42.392c.014.088.027.185-.021.26-.052.08-.156.11-.25.13a6.177 6.177 0 0 1-1.781.109c-.004-.886-.007-1.779-.181-2.648-.147-.735-.412-1.441-.677-2.144l-.735-1.95c.02.051 2.211.05 2.45.095.762.14.662.476.69 1.192.066 1.66.235 3.316.505 4.956M4.199 40.935c-.068.02-.142.038-.208.012-.059-.023-.098-.078-.134-.13l-.318-.463c-.036-.053-.075-.113-.068-.176.007-.078.076-.134.139-.18.87-.644 1.785-1.352 2.248-2.349.206-.444.123-2.066.633-2.114.491-.046 1.047 1.008 1.189 1.342.37.873.117 1.817-.496 2.534-.739.864-1.92 1.224-2.985 1.524"/>
        <g transform="translate(.54 3.956)">
            <mask id="b" fill="#fff">
                <use xlink:href="#a"/>
            </mask>
            <path fill="#F5D7CC" d="M4.403 5.226A24.428 24.428 0 0 0 .258 14.45c2.086.115 4.193.23 6.253-.113.779-.13 1.605-.36 2.093-.97.487-.61.392-1.693-.347-1.968a7.252 7.252 0 0 1-4.846 1.214c.398-.71.886-1.37 1.45-1.962.195-.206.41-.41.68-.504.313-.11.658-.057.99-.055 1.845.014 3.297-1.464 4.52-2.818.204-.227.427-.464.724-.543.355-.094.722.058 1.064.188 1.37.524 2.857.753 4.325.666.522-.031 1.062-.108 1.499-.39.437-.283.74-.819.6-1.313-.09-.32-.342-.567-.584-.799L14.172.767c-.42-.401-1-.834-1.53-.591-.422.193-.555.752-.413 1.187.142.435.486.774.817 1.094l2.212 2.14L8.74 4.12c-.093-.007-.198-.02-.252-.094-.043-.058-.04-.136-.044-.208-.029-.563-.57-.998-1.134-1.109-1.855-.365-2.014 1.296-2.907 2.518" mask="url(#b)"/>
        </g>
        <path fill="#2A3755" d="M7.131 12.428c.28 1.253.07 2.651-.235 3.9l1.466-.649c.11-.049.23-.099.35-.079a.5.5 0 0 1 .28.185c.513.597.34 1.234-.244 1.764-.583.53-1.425.691-2.22.687-.863 6.058-2.25 12.295-4.105 18.135 1.08.083 2.136.345 3.199.556 3.273.652 6.73.818 9.907-.196.125-.04.257-.087.335-.19.07-.092.083-.212.094-.326.32-3.277.637-6.627-.152-9.827-.314-1.273-.801-2.513-.93-3.816-.087-.866-.014-1.754-.245-2.594-.244-.89-.813-1.663-1.1-2.54-.344-1.048-.267-2.182-.098-3.27.12-.768.282-1.568.044-2.31-.125-.385-.351-.731-.59-1.06a13.61 13.61 0 0 0-2.141-2.326c-.385-.33-1.038-.618-1.34-.213-.297.4.152.903.465 1.29.351.435.556.982.577 1.536.005.15-.008.314-.114.422-.106.11-.274.13-.427.142l-.718.063c-.153.013-.318.024-.451-.05-.153-.084-.227-.256-.299-.414a5.301 5.301 0 0 0-1.938-2.237c-.301-.195-.646-.364-1.005-.33-1.468.144.032 1.207.38 1.521.645.583 1.07 1.391 1.255 2.226"/>
        <path fill="#FCE5DE" d="M6.88 2.036c.734.697 1.48 1.41 1.96 2.295.203.373.357.784.354 1.207-.001.423-.18.86-.532 1.105-.525.364-1.242.214-1.863.05l-2.55-.677a.549.549 0 0 1-.228-.1c-.098-.087-.119-.229-.13-.358-.091-.993-.068-1.995.068-2.983.067-.49.261-1.607.866-1.77.672-.182 1.64.836 2.055 1.23"/>
        <path fill="#010B0E" d="M2.131 1.388c-.373.454-.618.996-.828 1.542-.21.549-.392 1.114-.441 1.698-.033.383 0 .793.224 1.108.227.32.612.49.98.637a28.35 28.35 0 0 0 1.697.616c.153.05.324.098.471.033a.551.551 0 0 0 .235-.237c.47-.784.224-1.732.263-2.588.04-.882.686-1.58.726-2.434.03-.655-.403-1.069-1.023-1.232C3.54.295 2.69.706 2.13 1.388"/>
        <path fill="#010B0E" d="M2.631 10.585c.282-.137.521-.344.745-.561.421-.409.814-.885.932-1.455.052-.247.048-.503.021-.754-.046-.423-.168-.853-.45-1.175-.282-.322-.752-.511-1.163-.377-.584.192-.788.875-1.04 1.426A4.144 4.144 0 0 1 .238 9.384C.128 9.459 0 9.55 0 9.68c0 .093.065.173.127.243.287.326.537.767.96.885.46.127 1.124-.052 1.544-.224"/>
        <path fill="#20843A" d="M3.667 7.297a3.532 3.532 0 0 1-1.241-.431c-.179-.103-.37-.297-.277-.478.703-.137 1.422.086 2.103.307.074.024.152.051.2.11.119.148-.035.371-.216.431s-.383.032-.565.09"/>
        <path fill="#491F08" d="M9.107 4.557l1.268-.426a.733.733 0 0 1 .307-.056c.232.025.375.25.557.392.387.304.947.222 1.43.116a36.358 36.358 0 0 0 5.3-1.6c-.22-1.008-.5-2.005-.835-2.983L11.52.98c-.433.075-.89.162-1.218.45-.327.288-.443.85-.12 1.142l-1.42.837c-.005.113.298 1.164.345 1.148"/>
        <path fill="#010B0E" d="M4.25 41.734c.04.096.088.197.18.248.077.043.17.042.26.04l.618-.017c.308-.008.66.003.858.234.049.056.085.13.072.202-.017.089-.1.148-.182.19-.358.187-.776.22-1.18.248l-.977.069c-.118.008-.243.015-.348-.039a.637.637 0 0 1-.203-.2c-.45-.605-1.891-1.875-.747-2.454 1.027-.52 1.371.804 1.65 1.479M14.885 42.815c.563-.072 1.123-.25 1.568-.595.18-.14.37-.317.599-.296.12.01.23.078.307.17.229.274.136.707-.11.966-.247.258-.604.382-.95.485-1.007.3-2.062.504-3.11.414-.247-.02.001-.94.174-1.052.324-.21 1.14-.043 1.522-.092"/>
    </g>
</svg>
