<svg xmlns="http://www.w3.org/2000/svg" xmlns:xlink="http://www.w3.org/1999/xlink" width="22" height="49" viewBox="0 0 22 49">
    <defs>
        <path id="a" d="M.284.118h20.943V16.22H.284z"/>
    </defs>
    <g fill="none" fill-rule="evenodd">
        <path fill="#F5D7CC" d="M16.823 47.209c.016.098.03.206-.023.29-.057.09-.171.122-.276.144a6.713 6.713 0 0 1-1.958.122c-.004-.987-.008-1.981-.2-2.95-.16-.818-.452-1.604-.744-2.386l-.808-2.173c.021.058 2.432.057 2.695.106.838.156.729.531.76 1.328.072 1.848.257 3.693.554 5.519M4.619 45.587c-.075.021-.156.042-.229.013-.065-.026-.108-.086-.147-.144l-.35-.516c-.04-.06-.082-.126-.075-.197.008-.086.084-.148.153-.2.956-.717 1.964-1.505 2.473-2.615.227-.495.135-2.302.696-2.355.54-.052 1.152 1.123 1.308 1.495.407.972.13 2.023-.545 2.822-.813.962-2.112 1.363-3.284 1.697"/>
        <g transform="translate(.595 4.406)">
            <mask id="b" fill="#fff">
                <use xlink:href="#a"/>
            </mask>
            <path fill="#F5D7CC" d="M4.843 5.82a27.367 27.367 0 0 0-4.56 10.272c2.296.128 4.613.256 6.879-.126.857-.144 1.766-.4 2.302-1.08.536-.679.431-1.886-.38-2.192a7.902 7.902 0 0 1-5.332 1.352 10.96 10.96 0 0 1 1.594-2.184c.216-.23.451-.457.749-.562.345-.122.724-.064 1.09-.061 2.029.016 3.626-1.63 4.971-3.139.225-.252.47-.516.797-.604.39-.105.793.064 1.17.21 1.507.583 3.142.838 4.757.74.574-.034 1.169-.12 1.649-.434s.815-.911.66-1.462c-.1-.356-.376-.631-.642-.889L15.589.855c-.461-.447-1.1-.93-1.683-.659-.465.215-.61.837-.454 1.322.157.484.534.861.899 1.219l2.433 2.383-7.17-.533c-.102-.008-.217-.022-.277-.104-.047-.065-.044-.152-.048-.232-.032-.628-.628-1.111-1.249-1.235C6 2.61 5.826 4.46 4.843 5.82" mask="url(#b)"/>
        </g>
        <path fill="#2A3755" d="M7.844 13.84c.308 1.396.078 2.953-.258 4.343l1.612-.722c.122-.055.253-.11.385-.088.125.02.227.11.31.206.563.664.372 1.374-.27 1.964-.642.59-1.568.77-2.443.765-.949 6.747-2.475 13.693-4.515 20.196 1.189.092 2.35.384 3.519.62 3.6.725 7.404.91 10.898-.219.138-.044.283-.097.369-.212.076-.102.09-.236.103-.362.352-3.65.7-7.38-.168-10.945-.345-1.417-.881-2.798-1.023-4.249-.095-.964-.015-1.953-.269-2.888-.269-.99-.894-1.853-1.21-2.83-.378-1.166-.294-2.43-.107-3.64.132-.856.31-1.747.047-2.573-.136-.43-.386-.815-.65-1.182-.68-.95-1.471-1.82-2.354-2.59-.423-.368-1.141-.688-1.473-.236-.327.444.167 1.005.511 1.437.387.484.612 1.092.635 1.71.006.166-.01.35-.126.47-.117.121-.3.143-.47.158l-.79.07c-.168.015-.349.027-.496-.056-.168-.093-.25-.285-.328-.46a5.883 5.883 0 0 0-2.132-2.493c-.331-.216-.711-.405-1.105-.366-1.615.16.035 1.344.418 1.694.709.648 1.176 1.549 1.38 2.478"/>
        <path fill="#FCE5DE" d="M7.568 2.267c.808.776 1.629 1.57 2.156 2.556.223.416.392.873.39 1.345-.002.47-.198.958-.586 1.23-.578.405-1.367.238-2.05.055L4.676 6.7a.6.6 0 0 1-.252-.111c-.108-.097-.13-.256-.144-.4a14.81 14.81 0 0 1 .076-3.321c.074-.545.287-1.79.952-1.972.74-.203 1.804.932 2.26 1.371"/>
        <path fill="#010B0E" d="M2.344 1.545c-.41.506-.68 1.11-.91 1.718-.232.611-.432 1.24-.486 1.891-.036.427 0 .883.247 1.234.25.356.672.545 1.078.71.614.248 1.237.477 1.867.685.168.055.355.11.517.037.115-.05.195-.156.259-.264.517-.873.246-1.928.29-2.882.044-.983.754-1.76.797-2.71.033-.73-.443-1.19-1.125-1.373-.983-.262-1.918.195-2.534.954"/>
        <path fill="#010B0E" d="M2.894 11.788c.31-.153.573-.384.82-.625.463-.455.895-.985 1.025-1.62.057-.276.053-.56.023-.84-.05-.47-.184-.95-.495-1.308-.31-.36-.827-.57-1.279-.42-.643.213-.867.974-1.145 1.588A4.6 4.6 0 0 1 .261 10.45c-.12.084-.26.185-.26.331-.001.104.07.193.139.271.315.363.59.854 1.055.985.506.142 1.238-.058 1.7-.249"/>
        <path fill="#20843A" d="M4.033 8.127a3.854 3.854 0 0 1-1.365-.48c-.196-.115-.406-.331-.304-.533.774-.153 1.564.096 2.313.342.081.026.168.057.22.123.131.164-.038.413-.237.48-.2.066-.422.035-.622.099"/>
        <path fill="#491F08" d="M10.017 5.074l1.395-.474a.798.798 0 0 1 .339-.062c.254.028.411.278.611.437.427.338 1.042.247 1.575.129a39.629 39.629 0 0 0 5.83-1.781A30.129 30.129 0 0 0 18.846 0l-6.175 1.09c-.476.084-.98.181-1.34.502-.36.321-.488.948-.131 1.272l-1.563.932c-.005.126.328 1.296.38 1.278"/>
        <path fill="#010B0E" d="M4.676 46.476c.043.107.096.22.197.277.084.048.188.047.285.044l.68-.018c.34-.01.727.002.945.26.053.063.093.144.079.225-.019.099-.111.165-.2.212-.394.208-.853.243-1.299.275l-1.075.077c-.129.01-.266.017-.382-.042a.705.705 0 0 1-.223-.224c-.495-.673-2.08-2.088-.822-2.733 1.13-.578 1.509.896 1.815 1.647M16.373 47.68c.62-.08 1.236-.278 1.725-.663.198-.156.407-.352.659-.33a.508.508 0 0 1 .338.19c.251.305.15.788-.122 1.076-.27.288-.663.426-1.043.54-1.109.335-2.269.562-3.423.461-.271-.022.002-1.047.192-1.171.356-.233 1.254-.048 1.674-.103"/>
    </g>
</svg>
